<?xml version="1.0" standalone="no"?>
<!DOCTYPE svg PUBLIC "-//W3C//DTD SVG 20010904//EN"
 "http://www.w3.org/TR/2001/REC-SVG-20010904/DTD/svg10.dtd">
<svg version="1.0" xmlns="http://www.w3.org/2000/svg"
 width="700.000000pt" height="700.000000pt" viewBox="0 0 700.000000 700.000000"
 preserveAspectRatio="xMidYMid meet">
<metadata>
Created by potrace 1.14, written by Peter Selinger 2001-2017
</metadata>
<g transform="translate(0.000000,700.000000) scale(0.100000,-0.100000)"
fill="#000000" stroke="none">
<path d="M3278 6995 c-1 -1 -42 -5 -89 -9 -47 -4 -95 -8 -105 -10 -10 -2 -41
-7 -69 -10 -428 -56 -875 -210 -1270 -439 -103 -60 -265 -165 -315 -204 -8 -6
-51 -40 -95 -74 -353 -275 -673 -651 -897 -1054 -49 -87 -148 -289 -148 -301
0 -2 -9 -23 -20 -47 -57 -123 -157 -435 -186 -582 -2 -11 -10 -54 -19 -95 -29
-147 -36 -200 -52 -370 -15 -164 -8 -592 12 -711 2 -13 6 -46 9 -74 9 -78 22
-152 51 -285 21 -96 91 -339 114 -395 5 -11 25 -65 46 -120 63 -166 249 -531
312 -610 4 -6 34 -49 65 -95 170 -255 433 -535 708 -755 92 -74 370 -265 386
-265 4 0 15 -6 23 -14 26 -22 298 -158 411 -205 267 -111 589 -200 859 -237
25 -3 57 -8 71 -10 163 -25 682 -25 842 1 13 2 46 7 73 10 71 10 87 13 115 18
14 3 43 8 65 12 22 4 76 16 120 27 44 10 87 21 96 23 25 5 157 45 219 65 178
57 568 235 660 300 15 11 33 20 39 20 6 0 11 5 11 10 0 6 5 10 10 10 15 0 220
141 330 227 152 118 324 280 450 422 36 41 70 79 76 85 6 6 48 61 94 121 150
197 277 405 383 628 26 53 47 99 47 102 0 2 11 28 24 57 57 127 151 421 182
573 17 81 54 301 59 350 4 33 9 71 11 85 9 46 11 524 4 605 -15 153 -21 210
-25 225 -2 8 -7 35 -10 60 -17 129 -80 384 -136 552 -348 1037 -1167 1857
-2204 2206 -168 57 -420 119 -555 137 -19 3 -46 7 -60 10 -13 2 -52 7 -86 11
-33 3 -74 8 -90 10 -32 5 -540 14 -546 9z m432 -1406 c143 -16 237 -34 370
-70 105 -29 290 -103 390 -156 87 -46 289 -176 325 -210 11 -10 36 -30 55 -45
73 -55 220 -208 306 -318 214 -272 378 -653 420 -975 2 -22 7 -51 11 -65 3
-14 7 -108 8 -210 5 -366 -58 -653 -211 -966 -223 -454 -607 -815 -1074 -1011
-157 -66 -261 -96 -470 -134 -120 -23 -435 -32 -560 -18 -532 63 -986 296
-1345 690 -224 246 -396 572 -474 899 -11 47 -22 96 -24 110 -3 14 -8 44 -12
68 -4 23 -9 54 -11 70 -3 15 -6 115 -8 222 -4 221 11 352 64 560 158 623 611
1148 1213 1404 136 58 299 107 416 127 31 5 71 12 88 15 131 22 387 28 523 13z"/>
<path d="M3427 4734 c-1 -1 -33 -5 -71 -9 -162 -16 -341 -78 -497 -171 -103
-63 -117 -73 -217 -169 -388 -369 -487 -959 -242 -1445 120 -238 334 -443 583
-560 161 -76 324 -112 507 -112 135 -1 206 7 305 34 22 5 47 12 55 13 21 5 94
31 138 51 260 114 488 327 612 574 109 216 152 448 127 690 -20 198 -92 394
-207 566 -68 101 -223 256 -324 324 -149 99 -339 175 -507 201 -59 9 -255 19
-262 13z"/>
</g>
</svg>
