<?xml version="1.0" standalone="no"?>
<!DOCTYPE svg PUBLIC "-//W3C//DTD SVG 20010904//EN"
 "http://www.w3.org/TR/2001/REC-SVG-20010904/DTD/svg10.dtd">
<svg version="1.0" xmlns="http://www.w3.org/2000/svg"
 width="621.000000pt" height="621.000000pt" viewBox="0 0 621.000000 621.000000"
 preserveAspectRatio="xMidYMid meet">
<metadata>
Created by potrace 1.14, written by Peter Selinger 2001-2017
</metadata>
<g transform="translate(0.000000,621.000000) scale(0.100000,-0.100000)"
fill="#000000" stroke="none">
<path d="M5450 5642 c-14 -9 -27 -19 -30 -23 -5 -5 -304 -240 -373 -293 -24
-18 -128 -100 -177 -140 -9 -6 -41 -31 -73 -55 -47 -36 -57 -49 -58 -75 -3
-59 -6 -161 -9 -276 -2 -63 -5 -122 -8 -131 -2 -9 -63 -60 -135 -115 -73 -54
-136 -105 -140 -111 -4 -7 -15 -13 -22 -13 -8 0 -15 -3 -15 -7 -1 -5 -41 -37
-90 -73 -49 -36 -91 -70 -94 -76 -2 -6 10 -26 27 -46 53 -58 97 -116 97 -127
0 -6 5 -11 12 -11 9 0 349 250 368 271 3 3 27 22 55 43 55 42 59 42 195 11 41
-9 84 -18 95 -20 37 -5 89 -16 174 -35 l85 -19 30 22 c17 11 51 37 76 56 24
20 51 41 60 48 51 40 340 269 365 290 17 13 67 52 112 86 73 55 100 83 90 93
-4 4 -115 33 -152 40 -16 3 -43 9 -60 14 -16 5 -88 23 -160 40 -71 17 -147 35
-167 41 l-38 10 0 294 c0 162 -3 296 -7 298 -5 3 -19 -3 -33 -11z"/>
<path d="M2417 5013 c-1 -1 -40 -4 -87 -8 -47 -3 -98 -9 -115 -11 -16 -3 -41
-7 -55 -9 -254 -36 -618 -178 -860 -336 -196 -129 -407 -324 -544 -504 -42
-55 -81 -105 -86 -112 -6 -7 -15 -24 -22 -38 -6 -14 -15 -25 -20 -25 -4 0 -8
-5 -8 -11 0 -6 -8 -23 -19 -37 -21 -31 -95 -176 -140 -275 -23 -51 -99 -270
-106 -307 -1 -3 -7 -30 -13 -60 -23 -103 -22 -99 -37 -205 -21 -140 -26 -377
-11 -525 9 -89 13 -125 16 -125 1 0 3 -11 4 -25 10 -83 52 -253 88 -355 121
-343 307 -636 561 -883 87 -84 114 -108 212 -184 40 -32 106 -78 140 -98 22
-13 42 -26 45 -29 6 -7 38 -24 160 -87 150 -77 363 -153 515 -185 33 -7 67
-14 75 -16 8 -2 26 -5 40 -7 14 -3 41 -7 60 -10 210 -32 532 -25 730 15 25 5
59 12 75 15 89 16 312 89 405 131 108 49 172 81 228 115 34 21 66 38 71 38 4
0 16 9 26 20 10 11 22 20 27 20 9 0 181 129 233 175 109 97 209 202 285 300
30 39 57 72 60 75 3 3 17 23 30 45 13 22 27 42 31 45 11 8 120 201 144 255 12
27 31 70 43 95 18 39 70 177 76 205 2 6 6 17 9 25 13 31 41 151 51 216 4 22 8
46 11 54 37 125 38 563 2 750 -3 14 -8 43 -12 65 -4 22 -16 74 -27 115 -10 41
-20 80 -22 85 -9 36 -60 182 -66 190 -5 6 -9 13 -9 18 -3 28 -98 220 -155 312
-27 44 -56 92 -65 108 -9 15 -22 25 -29 22 -11 -4 -119 -82 -132 -95 -3 -3
-50 -39 -105 -80 -55 -41 -104 -77 -109 -82 -5 -4 2 -24 16 -45 31 -47 73
-116 74 -123 0 -3 18 -41 40 -85 22 -44 41 -83 41 -88 1 -4 11 -33 23 -65 21
-54 68 -224 75 -267 2 -11 9 -51 15 -90 15 -85 20 -378 9 -466 -13 -93 -19
-132 -24 -149 -2 -8 -6 -32 -9 -53 -4 -21 -11 -47 -16 -58 -6 -10 -9 -19 -6
-19 5 0 -46 -157 -63 -195 -70 -158 -166 -335 -206 -380 -5 -7 -19 -24 -30
-40 -46 -64 -141 -171 -214 -239 -63 -59 -62 -58 -111 -96 -25 -19 -47 -37
-50 -40 -9 -11 -193 -130 -201 -130 -5 0 -31 -13 -59 -30 -28 -17 -57 -30 -65
-30 -8 0 -15 -4 -15 -8 0 -5 -19 -15 -42 -21 -24 -7 -47 -17 -53 -21 -26 -20
-241 -74 -415 -106 -60 -10 -381 -13 -450 -3 -36 5 -83 12 -105 15 -128 18
-336 86 -485 157 -69 33 -221 120 -249 142 -9 8 -50 40 -91 73 -217 170 -403
405 -517 652 -24 52 -48 103 -54 112 -5 10 -9 26 -9 36 0 10 -4 22 -8 28 -9 9
-54 168 -66 229 -4 17 -9 41 -11 55 -3 14 -7 41 -10 60 -2 19 -7 55 -10 80 -8
54 -8 325 -1 359 3 13 8 49 12 80 3 31 8 63 9 71 17 83 69 272 85 305 5 11 21
49 36 85 30 76 95 197 135 257 16 23 29 44 29 47 0 3 6 14 14 23 8 10 43 54
78 97 224 282 604 537 913 612 6 1 37 9 70 18 33 9 71 18 85 20 14 3 25 5 25
6 0 2 12 4 105 16 82 10 354 11 441 2 275 -31 562 -137 799 -294 47 -30 87
-59 90 -62 3 -4 23 -20 45 -37 22 -16 80 -68 128 -115 49 -47 93 -87 98 -88 9
-4 110 67 162 113 13 11 40 31 60 45 20 14 37 28 37 33 0 4 7 7 15 7 8 0 15 3
15 8 0 4 14 16 30 27 16 11 30 25 30 30 0 16 -190 199 -288 277 -90 73 -342
236 -342 222 0 -3 -13 4 -29 15 -16 12 -32 21 -35 21 -3 0 -31 12 -63 26 -102
46 -116 52 -223 87 -99 33 -245 68 -335 81 -22 3 -51 8 -65 11 -68 12 -404 28
-413 18z"/>
<path d="M2307 4134 c-2 -2 -21 -6 -43 -9 -21 -4 -48 -9 -59 -12 -11 -4 -27
-8 -35 -9 -121 -20 -360 -126 -455 -202 -5 -4 -26 -18 -45 -32 -46 -31 -68
-51 -154 -135 -72 -72 -186 -215 -186 -234 0 -6 -4 -11 -10 -11 -5 0 -10 -4
-10 -9 0 -4 -18 -41 -40 -81 -37 -68 -96 -224 -119 -315 -38 -153 -45 -412
-15 -555 3 -14 7 -34 9 -45 25 -159 142 -409 262 -560 95 -118 301 -305 338
-305 8 0 15 -4 15 -9 0 -13 189 -107 274 -135 176 -59 273 -74 461 -76 114 0
189 8 295 32 25 5 52 11 60 13 88 19 332 128 381 171 8 8 20 14 26 14 6 0 13
3 15 8 2 4 30 27 62 51 68 51 209 191 234 233 9 15 20 28 24 28 4 0 8 6 8 14
0 8 4 16 9 18 11 4 76 107 85 136 4 12 12 22 17 22 5 0 9 5 9 11 0 5 11 35 25
65 14 30 25 56 25 59 0 2 5 16 12 32 6 15 12 33 13 38 2 6 10 35 19 65 8 30
18 71 21 90 3 19 8 42 10 50 21 79 21 329 -1 445 -22 115 -40 183 -61 235 -3
8 -7 20 -8 26 -2 6 -14 35 -29 66 -14 30 -26 60 -26 66 0 6 -3 12 -7 14 -5 2
-19 25 -33 51 -14 27 -28 51 -32 53 -6 4 -314 -222 -355 -260 -10 -9 -7 -24
16 -71 66 -142 91 -247 93 -395 1 -106 -11 -190 -43 -289 -92 -289 -331 -521
-620 -601 -147 -40 -268 -45 -442 -15 -108 18 -261 89 -367 170 -69 54 -185
176 -203 215 -4 8 -18 33 -32 55 -13 22 -29 51 -35 65 -6 14 -15 34 -20 45
-21 44 -50 154 -58 220 -46 353 110 693 405 887 82 53 153 92 153 82 0 -3 6
-2 13 4 11 9 51 23 127 43 160 41 379 24 550 -43 57 -23 179 -92 208 -118 9
-8 34 -29 56 -47 36 -29 39 -30 58 -14 38 31 58 47 201 156 l145 109 -57 54
c-69 66 -194 162 -209 162 -7 0 -12 4 -12 8 0 5 -48 32 -107 62 -130 64 -131
64 -213 90 -64 20 -78 23 -150 36 -19 4 -44 9 -55 12 -23 6 -382 12 -388 6z"/>
<path d="M2363 3230 c-200 -55 -340 -230 -349 -435 -4 -113 16 -193 71 -280
86 -135 219 -212 379 -221 137 -7 247 33 350 127 94 86 144 195 151 330 4 64
-17 185 -35 203 -7 7 -50 -23 -229 -160 -12 -10 -7 -20 32 -65 26 -30 47 -57
47 -61 0 -5 -10 -8 -22 -9 -13 0 -32 -2 -43 -3 -11 -2 -60 -6 -109 -10 -49 -4
-98 -9 -110 -11 -11 -2 -52 -7 -91 -10 -38 -3 -85 -8 -104 -11 -30 -5 -33 -3
-27 13 13 33 127 378 130 390 1 7 5 16 9 19 4 4 7 17 7 28 0 17 12 8 53 -38
39 -44 57 -57 68 -51 29 18 184 140 187 147 2 5 10 8 17 8 23 0 28 21 9 36
-27 21 -116 61 -155 69 -66 15 -174 12 -236 -5z"/>
</g>
</svg>
