<?xml version="1.0" standalone="no"?>
<!DOCTYPE svg PUBLIC "-//W3C//DTD SVG 20010904//EN"
 "http://www.w3.org/TR/2001/REC-SVG-20010904/DTD/svg10.dtd">
<svg version="1.0" xmlns="http://www.w3.org/2000/svg"
 width="500.000000pt" height="500.000000pt" viewBox="0 0 500.000000 500.000000"
 preserveAspectRatio="xMidYMid meet">
<metadata>
Created by potrace 1.14, written by Peter Selinger 2001-2017
</metadata>
<g transform="translate(0.000000,500.000000) scale(0.100000,-0.100000)"
fill="#000000" stroke="none">
<path d="M4310 4254 c-124 -97 -235 -185 -247 -197 -20 -20 -22 -35 -28 -192
-4 -93 -7 -170 -8 -171 -1 -1 -71 -54 -156 -118 -85 -65 -159 -120 -165 -122
-7 -3 -39 24 -72 58 -241 254 -551 416 -899 468 -118 18 -351 16 -470 -5 -334
-58 -614 -202 -843 -435 -234 -237 -383 -529 -436 -855 -22 -136 -16 -420 13
-553 103 -486 418 -887 856 -1093 230 -107 431 -149 690 -144 248 5 439 51
658 160 296 147 552 404 695 697 64 132 93 215 128 363 26 110 28 137 28 320
1 172 -3 215 -23 309 -42 200 -122 397 -218 542 -21 33 -42 64 -46 70 -4 7 50
55 135 120 78 60 148 112 154 117 7 4 98 -10 203 -31 l190 -39 188 149 c103
82 197 157 208 166 11 9 37 30 58 45 20 15 37 32 37 36 0 5 -88 30 -195 56
l-195 48 0 203 c0 112 -3 204 -7 204 -5 0 -109 -79 -233 -176z"/>
</g>
</svg>
