<?xml version="1.0" standalone="no"?>
<!DOCTYPE svg PUBLIC "-//W3C//DTD SVG 20010904//EN"
 "http://www.w3.org/TR/2001/REC-SVG-20010904/DTD/svg10.dtd">
<svg version="1.0" xmlns="http://www.w3.org/2000/svg"
 width="512.000000pt" height="512.000000pt" viewBox="0 0 512.000000 512.000000"
 preserveAspectRatio="xMidYMid meet">
<metadata>
Created by potrace 1.14, written by Peter Selinger 2001-2017
</metadata>
<g transform="translate(0.000000,512.000000) scale(0.100000,-0.100000)"
fill="#000000" stroke="none">
<path d="M2487 4694 c-1 -1 -40 -4 -87 -8 -412 -28 -848 -199 -1170 -459 -433
-349 -712 -841 -784 -1387 -14 -104 -17 -163 -17 -291 0 -77 3 -162 6 -187 14
-106 21 -156 30 -207 1 -11 14 -65 28 -120 97 -383 309 -745 594 -1015 117
-111 153 -140 290 -232 265 -179 610 -309 908 -343 28 -3 70 -8 95 -11 50 -6
305 -6 360 0 199 22 329 49 489 102 464 155 860 461 1124 869 168 261 295 610
323 890 3 39 8 79 10 90 5 27 5 334 0 360 -2 11 -7 49 -11 85 -4 36 -9 74 -11
85 -2 11 -6 31 -9 45 -3 14 -7 36 -10 50 -4 14 -9 39 -12 55 -13 78 -100 313
-158 431 -113 230 -228 389 -414 574 -134 134 -170 163 -312 259 -258 174
-607 308 -899 346 -65 8 -358 23 -363 19z m162 -645 c40 -1 108 -9 150 -16 42
-8 89 -17 104 -19 51 -10 210 -65 285 -99 355 -164 655 -495 780 -860 59 -171
83 -325 81 -516 -2 -287 -81 -551 -235 -786 -31 -49 -59 -90 -63 -93 -3 -3
-18 -21 -32 -40 -40 -53 -136 -149 -214 -213 -90 -74 -78 -66 -165 -119 -165
-103 -379 -181 -556 -203 -27 -4 -60 -9 -74 -11 -27 -5 -271 -5 -305 0 -149
22 -220 38 -333 76 -154 51 -351 163 -473 266 -241 205 -423 502 -493 806 -13
58 -17 82 -32 180 -10 70 -4 287 10 373 24 143 26 154 57 249 56 169 150 342
263 481 46 56 216 225 227 225 4 0 14 6 22 14 22 23 157 110 222 143 175 91
387 150 580 160 55 3 102 7 104 9 2 2 7 2 10 -1 4 -2 40 -5 80 -6z"/>
<path d="M2468 3625 c-2 -2 -23 -5 -48 -8 -85 -10 -219 -48 -299 -85 -376
-176 -611 -529 -626 -942 -10 -294 108 -585 321 -792 214 -206 481 -311 773
-303 126 4 275 34 359 71 96 43 141 66 194 101 375 248 554 691 458 1128 -68
307 -288 586 -570 722 -77 37 -199 79 -255 87 -22 3 -53 9 -68 12 -30 6 -234
14 -239 9z"/>
</g>
</svg>
