<?xml version="1.0" standalone="no"?>
<!DOCTYPE svg PUBLIC "-//W3C//DTD SVG 20010904//EN"
 "http://www.w3.org/TR/2001/REC-SVG-20010904/DTD/svg10.dtd">
<svg version="1.0" xmlns="http://www.w3.org/2000/svg"
 width="500.000000pt" height="500.000000pt" viewBox="0 0 500.000000 500.000000"
 preserveAspectRatio="xMidYMid meet">
<metadata>
Created by potrace 1.14, written by Peter Selinger 2001-2017
</metadata>
<g transform="translate(0.000000,500.000000) scale(0.100000,-0.100000)"
fill="#000000" stroke="none">
<path d="M4295 4319 c-132 -104 -245 -196 -251 -204 -7 -9 -12 -77 -13 -172
-1 -86 -6 -163 -10 -171 -4 -7 -41 -39 -82 -70 -42 -31 -110 -83 -152 -116
-42 -32 -77 -65 -77 -74 0 -8 -42 28 -92 80 -132 136 -256 226 -423 307 -185
91 -311 129 -515 157 -72 10 -254 12 -317 3 -32 -4 -78 -10 -103 -13 -76 -10
-102 -16 -175 -37 -369 -107 -667 -323 -883 -641 -78 -114 -169 -325 -215
-498 -37 -137 -49 -314 -34 -500 7 -80 9 -98 23 -175 27 -148 138 -418 226
-546 165 -242 382 -428 638 -547 128 -59 141 -64 260 -96 148 -40 227 -50 400
-50 261 0 469 48 695 160 382 191 668 529 796 941 62 200 82 460 52 663 -19
134 -19 131 -53 243 -47 151 -111 287 -194 412 -39 59 -43 71 -29 74 10 2 45
25 78 51 175 137 209 160 239 160 33 -1 58 -6 201 -38 50 -11 107 -23 127 -26
43 -7 28 -17 268 174 80 64 173 137 208 164 34 27 62 53 62 57 0 9 -41 21
-152 44 -43 9 -96 22 -118 30 -22 8 -42 14 -45 14 -3 1 -23 4 -45 7 l-40 7 0
208 c0 115 -3 209 -7 208 -5 0 -116 -86 -248 -190z"/>
</g>
</svg>
