<svg width="21" height="21" viewBox="0 0 21 21" fill="currentColor" xmlns="http://www.w3.org/2000/svg">
<path d="M5.5 13.3991H15.5C15.7833 13.3991 16.0208 13.2961 16.2125 13.0901C16.4042 12.884 16.5 12.6287 16.5 12.3242C16.5 12.0196 16.4042 11.7643 16.2125 11.5583C16.0208 11.3523 15.7833 11.2493 15.5 11.2493H5.5C5.21667 11.2493 4.97917 11.3523 4.7875 11.5583C4.59583 11.7643 4.5 12.0196 4.5 12.3242C4.5 12.6287 4.59583 12.884 4.7875 13.0901C4.97917 13.2961 5.21667 13.3991 5.5 13.3991ZM5.5 10.1743H15.5C15.7833 10.1743 16.0208 10.0713 16.2125 9.86529C16.4042 9.65927 16.5 9.40397 16.5 9.09941C16.5 8.79484 16.4042 8.53955 16.2125 8.33352C16.0208 8.1275 15.7833 8.02448 15.5 8.02448H5.5C5.21667 8.02448 4.97917 8.1275 4.7875 8.33352C4.59583 8.53955 4.5 8.79484 4.5 9.09941C4.5 9.40397 4.59583 9.65927 4.7875 9.86529C4.97917 10.0713 5.21667 10.1743 5.5 10.1743ZM5.5 6.94956H15.5C15.7833 6.94956 16.0208 6.84654 16.2125 6.64051C16.4042 6.43449 16.5 6.17919 16.5 5.87463C16.5 5.57007 16.4042 5.31477 16.2125 5.10875C16.0208 4.90272 15.7833 4.7997 15.5 4.7997H5.5C5.21667 4.7997 4.97917 4.90272 4.7875 5.10875C4.59583 5.31477 4.5 5.57007 4.5 5.87463C4.5 6.17919 4.59583 6.43449 4.7875 6.64051C4.97917 6.84654 5.21667 6.94956 5.5 6.94956ZM2.5 17.6988C1.95 17.6988 1.47917 17.4883 1.0875 17.0673C0.695833 16.6463 0.5 16.1402 0.5 15.549V2.64985C0.5 2.05864 0.695833 1.55253 1.0875 1.13152C1.47917 0.710506 1.95 0.5 2.5 0.5H18.5C19.05 0.5 19.5208 0.710506 19.9125 1.13152C20.3042 1.55253 20.5 2.05864 20.5 2.64985V19.3918C20.5 19.8755 20.2958 20.2115 19.8875 20.3996C19.4792 20.5877 19.1167 20.5115 18.8 20.1711L16.5 17.6988H2.5ZM17.35 15.549L18.5 16.7583V2.64985H2.5V15.549H17.35Z"/>
</svg>
