<svg xmlns="http://www.w3.org/2000/svg" enable-background="new 0 0 32 32" viewBox="0 0 32 32" id="crown"><g><path fill="#ffd731" d="M24.214,24.943l3.546-12.828l-5.81,3.292c-0.603,0.342-1.369,0.122-1.699-0.488L16,7.066l-4.251,7.852
		c-0.33,0.609-1.096,0.829-1.699,0.488l-5.81-3.292l3.546,12.829L24.214,24.943z"></path><path fill="#ffc933" d="M27.76,12.11l-3.55,12.83h-3.99c0.567-0.941,1.435-2.66,1.697-4.982c0.212-1.88-0.055-3.432-0.307-4.418
		c0.12-0.02,0.23-0.07,0.34-0.13L27.76,12.11z"></path><path fill="#ffd731" d="M27.049,24.535c0,0.801-0.545,1.515-1.325,1.698c-3.233,0.76-6.484,1.125-9.724,1.125
		s-6.492-0.365-9.724-1.125c-0.78-0.183-1.325-0.897-1.325-1.698v0c0-1.097,1.007-1.933,2.079-1.702
		c2.984,0.644,5.982,0.955,8.97,0.955s5.986-0.31,8.97-0.955C26.042,22.602,27.049,23.438,27.049,24.535L27.049,24.535z"></path><path fill="#ffc933" d="M27.05,24.54c0,0.8-0.55,1.51-1.33,1.69c-1.04,0.24-2.08,0.45-3.12,0.61c0.52-0.36,0.84-0.96,0.84-1.61
		c0-0.91-0.62-1.66-1.44-1.87c0.99-0.14,1.98-0.31,2.97-0.53C26.04,22.6,27.05,23.44,27.05,24.54z"></path><circle cx="4.24" cy="12.114" r="2.24" fill="#ffd731"></circle><circle cx="27.76" cy="12.114" r="2.24" fill="#ffc933"></circle><circle cx="16" cy="6.882" r="2.24" fill="#ffd731"></circle><ellipse cx="16" cy="18.759" fill="#e96565" rx="2.104" ry="2.542"></ellipse><path fill="#e05353" d="M18.1,18.76c0,1.4-0.94,2.54-2.1,2.54c-0.24,0-0.46-0.05-0.67-0.13c0.83-0.34,1.43-1.29,1.43-2.41
		s-0.6-2.07-1.43-2.41c0.21-0.08,0.43-0.13,0.67-0.13C17.16,16.22,18.1,17.36,18.1,18.76z"></path><path fill="#ffe576" d="M8.406 18.646l-.784-2.835C7.56 15.586 7.327 15.449 7.1 15.516c-.226.063-.359.296-.296.522l.784 2.835c.052.188.223.312.41.312.037 0 .075-.005.113-.016C8.336 19.106 8.469 18.873 8.406 18.646zM8.895 20.413c-.063-.227-.296-.362-.523-.296-.226.063-.359.296-.296.522l.073.265c.052.188.223.312.41.312.037 0 .076-.005.113-.016.226-.063.359-.296.296-.522L8.895 20.413zM13.956 14.729c.064.034.134.051.202.051.151 0 .297-.08.374-.223l.677-1.25c.111-.206.035-.465-.172-.576-.208-.11-.464-.035-.576.172l-.676 1.25C13.673 14.358 13.75 14.616 13.956 14.729z"></path></g></svg>