<svg width="18" height="16" viewBox="0 0 18 16" fill="none" xmlns="http://www.w3.org/2000/svg">
<path fill-rule="evenodd" clip-rule="evenodd" d="M2.565 0.226453C2.40505 0.0774133 2.1935 -0.00372529 1.97491 0.000131453C1.75632 0.0039882 1.54777 0.0925391 1.39318 0.247129C1.23859 0.401718 1.15003 0.610277 1.14618 0.828865C1.14232 1.04745 1.22346 1.25901 1.3725 1.41895L3.2445 3.29208C2.43405 3.96587 1.71308 4.74053 1.09912 5.5972C0.76725 6.05845 0.509625 6.48708 0.33075 6.83808C0.24887 6.99544 0.176002 7.15732 0.1125 7.32295C0.0445533 7.49211 0.00648817 7.67178 0 7.85395C0 8.02833 0.046125 8.18695 0.075375 8.27583C0.11463 8.39453 0.160451 8.51096 0.212625 8.62458C0.32175 8.86645 0.475875 9.15445 0.6705 9.46945C1.05975 10.0995 1.63125 10.8712 2.376 11.6227C3.85875 13.119 6.09975 14.604 9 14.604C10.6763 14.604 12.1343 14.1067 13.3515 13.3991L15.435 15.4815C15.5122 15.5644 15.6054 15.6308 15.7089 15.677C15.8124 15.7231 15.9241 15.7479 16.0374 15.7499C16.1507 15.7519 16.2632 15.731 16.3683 15.6886C16.4734 15.6462 16.5688 15.583 16.6489 15.5029C16.729 15.4227 16.7922 15.3273 16.8346 15.2223C16.8771 15.1172 16.8979 15.0047 16.8959 14.8914C16.8939 14.7781 16.8691 14.6663 16.823 14.5628C16.7769 14.4593 16.7104 14.3662 16.6275 14.289L11.4019 9.0622C11.3989 9.05954 11.3959 9.05691 11.3929 9.05433V9.0532L7.80412 5.46445C7.79897 5.45911 7.79372 5.45386 7.78837 5.4487L2.565 0.226453ZM6.08288 6.13045L4.44375 4.4902C3.69442 5.094 3.0306 5.7968 2.4705 6.57933C2.23362 6.90502 2.0208 7.24755 1.83375 7.6042C1.782 7.70545 1.74375 7.7887 1.71675 7.85283L1.7505 7.9282C1.82362 8.09133 1.94175 8.3152 2.106 8.5807C2.52532 9.25104 3.01812 9.87251 3.57525 10.4336C4.8735 11.7442 6.7095 12.9165 9 12.9165C10.1565 12.9165 11.1937 12.6195 12.1084 12.1548L10.7246 10.7711C10.2127 11.0692 9.621 11.229 9 11.229C8.10489 11.229 7.24645 10.8734 6.61351 10.2404C5.98058 9.6075 5.625 8.74906 5.625 7.85395C5.625 7.23183 5.78475 6.64008 6.08288 6.13045ZM9.441 9.48858L7.36537 7.41295C7.32984 7.55725 7.31208 7.70535 7.3125 7.85395C7.3125 8.30151 7.49029 8.73073 7.80676 9.0472C8.12322 9.36366 8.55245 9.54145 9 9.54145C9.15412 9.54145 9.30263 9.52345 9.441 9.48858ZM9 2.79145C8.65575 2.79145 8.32275 2.81733 8.00212 2.86683C7.89258 2.88352 7.78082 2.87848 7.67322 2.85198C7.56562 2.82548 7.4643 2.77805 7.37503 2.71239C7.28577 2.64673 7.21031 2.56414 7.15296 2.46932C7.09561 2.3745 7.05751 2.26931 7.04081 2.15977C7.02412 2.05022 7.02916 1.93846 7.05566 1.83086C7.08216 1.72326 7.12959 1.62194 7.19525 1.53267C7.26091 1.44341 7.3435 1.36795 7.43832 1.3106C7.53314 1.25326 7.63833 1.21515 7.74788 1.19845C8.15288 1.13658 8.56913 1.10395 9 1.10395C11.9003 1.10395 14.1412 2.58895 15.624 4.0852C16.3687 4.8367 16.9403 5.60845 17.3295 6.23845C17.5241 6.55345 17.6782 6.84145 17.7874 7.0822C17.8414 7.20258 17.8886 7.3207 17.9246 7.43095C17.9539 7.52095 18 7.67958 18 7.85395C18 8.0902 17.9111 8.32645 17.8582 8.45808C17.7757 8.6599 17.6814 8.85673 17.5759 9.04758C17.3396 9.47958 16.9965 10.0117 16.5532 10.572C16.4859 10.6627 16.4011 10.739 16.3037 10.7963C16.2063 10.8536 16.0984 10.8908 15.9864 10.9056C15.8744 10.9204 15.7606 10.9126 15.6516 10.8826C15.5427 10.8526 15.4409 10.8011 15.3523 10.731C15.2637 10.6609 15.19 10.5737 15.1357 10.4746C15.0814 10.3756 15.0476 10.2666 15.0362 10.1542C15.0248 10.0418 15.0361 9.92821 15.0695 9.82025C15.1028 9.71229 15.1575 9.61213 15.2303 9.5257C15.6161 9.03745 15.9052 8.5852 16.0942 8.2387C16.182 8.07783 16.2439 7.94845 16.2832 7.85395C16.1704 7.6023 16.0403 7.35872 15.894 7.12495C15.4746 6.45502 14.9818 5.83393 14.4247 5.2732C13.1265 3.9637 11.2905 2.79145 9 2.79145ZM16.3249 7.97095L16.3226 7.96195L16.3238 7.96758L16.3249 7.97095Z" fill="#043730"/>
</svg>
