<svg width="18" height="16" viewBox="0 0 18 14" fill="none" xmlns="http://www.w3.org/2000/svg">
<path fill-rule="evenodd" clip-rule="evenodd" d="M9 3.375C8.10489 3.375 7.24645 3.73058 6.61351 4.36351C5.98058 4.99645 5.625 5.85489 5.625 6.75C5.625 7.64511 5.98058 8.50355 6.61351 9.13649C7.24645 9.76942 8.10489 10.125 9 10.125C9.89511 10.125 10.7536 9.76942 11.3865 9.13649C12.0194 8.50355 12.375 7.64511 12.375 6.75C12.375 5.85489 12.0194 4.99645 11.3865 4.36351C10.7536 3.73058 9.89511 3.375 9 3.375ZM7.3125 6.75C7.3125 6.30245 7.49029 5.87322 7.80676 5.55676C8.12322 5.24029 8.55245 5.0625 9 5.0625C9.44755 5.0625 9.87678 5.24029 10.1932 5.55676C10.5097 5.87322 10.6875 6.30245 10.6875 6.75C10.6875 7.19755 10.5097 7.62678 10.1932 7.94324C9.87678 8.25971 9.44755 8.4375 9 8.4375C8.55245 8.4375 8.12322 8.25971 7.80676 7.94324C7.49029 7.62678 7.3125 7.19755 7.3125 6.75Z" fill="#043730"/>
<path fill-rule="evenodd" clip-rule="evenodd" d="M9 0C6.09975 0 3.85875 1.485 2.376 2.98125C1.72899 3.63316 1.15693 4.3554 0.6705 5.1345C0.475875 5.4495 0.32175 5.7375 0.212625 5.97825C0.160451 6.09187 0.11463 6.2083 0.075375 6.327C0.045 6.41813 0 6.57675 0 6.75C0 6.92325 0.046125 7.083 0.075375 7.17188C0.11463 7.29058 0.160451 7.40701 0.212625 7.52063C0.32175 7.7625 0.475875 8.0505 0.6705 8.3655C1.05975 8.9955 1.63125 9.76725 2.376 10.5188C3.85875 12.015 6.09975 13.5 9 13.5C11.9003 13.5 14.1412 12.015 15.624 10.5188C16.271 9.86681 16.843 9.14458 17.3295 8.3655C17.5241 8.0505 17.6782 7.7625 17.7874 7.52175C17.8414 7.40137 17.8886 7.28325 17.9246 7.173C17.9539 7.083 18 6.92438 18 6.75C18 6.57562 17.9539 6.417 17.9246 6.32812C17.8854 6.20941 17.8396 6.09297 17.7874 5.97938C17.6527 5.6884 17.4997 5.40622 17.3295 5.1345C16.843 4.35542 16.271 3.63319 15.624 2.98125C14.1412 1.485 11.9003 0 9 0ZM1.7505 6.67463C1.73885 6.69957 1.7276 6.7247 1.71675 6.75L1.7505 6.82538C1.82362 6.9885 1.94175 7.21238 2.106 7.47788C2.52532 8.14822 3.01812 8.76968 3.57525 9.33075C4.8735 10.6402 6.7095 11.8125 9 11.8125C11.2905 11.8125 13.1265 10.6402 14.4247 9.33075C14.9818 8.77004 15.4746 8.14895 15.894 7.479C16.04 7.2452 16.1696 7.00162 16.2821 6.75C16.1693 6.49835 16.0392 6.25477 15.8929 6.021C15.4738 5.35112 14.9814 4.73004 14.4247 4.16925C13.1265 2.85975 11.2905 1.6875 9 1.6875C6.7095 1.6875 4.8735 2.85975 3.57525 4.16925C3.01819 4.72996 2.52539 5.35105 2.106 6.021C1.97409 6.23092 1.85536 6.44997 1.7505 6.67463Z" fill="#043730"/>
</svg>
