<svg width="12" height="12" viewBox="0 0 12 12" fill="currentColor" xmlns="http://www.w3.org/2000/svg">
<path d="M7.16003 0.223805C7.1257 0.228706 7.02761 0.243408 6.93932 0.25811C6.57638 0.31692 6.12516 0.508052 5.78183 0.748193C5.55622 0.905019 5.24232 1.22357 5.08538 1.45391C4.93333 1.67935 4.74696 2.05671 4.6832 2.28705C4.62925 2.48798 4.56549 2.86045 4.56549 3.00257V3.10059H4.46739C4.32025 3.10059 3.9475 3.1594 3.74641 3.21821C3.5159 3.28192 3.13824 3.46325 2.91263 3.62007C2.67721 3.7769 2.34369 4.11016 2.18675 4.3454C1.59329 5.20794 1.505 6.34983 1.96113 7.26138C2.00527 7.3496 2.03961 7.42311 2.03961 7.43291C2.03961 7.43781 2.01999 7.44272 1.99056 7.44272C1.84833 7.44272 1.37258 7.75637 1.0783 8.04062C0.617267 8.48169 0.352417 8.97667 0.24942 9.55987C0.224897 9.7069 0.215088 9.94703 0.215088 10.4469V11.1477L0.278848 11.2752C0.357322 11.4271 0.587839 11.6672 0.730073 11.7358L0.83307 11.7848H4.59001H8.34204L8.44014 11.7358C8.57747 11.6672 8.73441 11.4908 8.8227 11.3291L8.89136 11.1918L8.89627 10.5008C8.90117 10.0745 8.89627 9.7412 8.87665 9.62358C8.85703 9.47165 8.75894 9.1286 8.68046 8.92766C8.66575 8.88846 8.73441 8.88846 9.95076 8.88846C11.2162 8.88846 11.2407 8.88846 11.3339 8.83945C11.4712 8.77084 11.6281 8.59441 11.7164 8.43268L11.7851 8.29546V7.49172C11.7851 6.69289 11.7851 6.68309 11.7213 6.45275C11.6429 6.1587 11.4516 5.76173 11.2701 5.51669C11.0053 5.16383 10.5736 4.79627 10.196 4.61004C10.1273 4.57573 10.0538 4.55123 10.0243 4.55123C9.96547 4.55123 9.96547 4.55123 10.0489 4.3846C10.1568 4.16897 10.2794 3.7867 10.3137 3.53186C10.402 2.96336 10.3137 2.39487 10.0685 1.87538C9.6761 1.04224 8.9355 0.463945 8.03305 0.267912C7.88101 0.228706 7.28265 0.199301 7.16003 0.223805ZM7.77311 1.69405C8.03305 1.74796 8.26357 1.87538 8.46466 2.08122C8.66084 2.27725 8.75894 2.42917 8.84232 2.67422C8.88646 2.80654 8.89627 2.88495 8.89627 3.10549C8.89627 3.44855 8.83251 3.65438 8.65104 3.91902C8.33223 4.3895 7.72406 4.63945 7.19927 4.51692L7.02761 4.47772L6.90989 4.31109C6.76276 4.10035 6.46848 3.8014 6.25268 3.65438C6.05159 3.51226 6.02216 3.44855 6.02216 3.08098C6.02216 2.66932 6.14968 2.38017 6.45377 2.07632C6.8118 1.72346 7.28265 1.58623 7.77311 1.69405ZM4.899 4.60024C5.19328 4.67375 5.36984 4.77177 5.58074 4.9874C5.79164 5.19814 5.89464 5.37947 5.97311 5.68332C6.09573 6.1636 5.92897 6.70759 5.55622 7.05065C5.39437 7.19767 5.23742 7.29569 5.02162 7.3692C4.85976 7.42801 4.80091 7.43291 4.56549 7.43291C4.11917 7.43291 3.78075 7.28589 3.49137 6.96244C2.99601 6.40864 3.00091 5.5657 3.50609 5.01681C3.86413 4.62964 4.39873 4.46792 4.899 4.60024ZM9.84776 6.10479C10.0145 6.23711 10.196 6.47725 10.2794 6.67329C10.3333 6.80561 10.3431 6.86932 10.3529 7.13396L10.3627 7.44272H8.7246C7.82706 7.44272 7.08646 7.43781 7.08646 7.43291C7.08646 7.42801 7.12079 7.3545 7.16003 7.28099C7.31698 6.96734 7.45921 6.40864 7.45921 6.09989V6.00187H8.58728H9.71534L9.84776 6.10479ZM6.95404 9.00118C7.12079 9.1335 7.30226 9.37364 7.38564 9.56967C7.43959 9.70199 7.4494 9.76571 7.45921 10.0303L7.46902 10.3391H4.56549H1.66686V10.0892C1.66686 9.82451 1.70119 9.63828 1.77966 9.48146C1.85814 9.32953 2.03961 9.109 2.17203 8.99628L2.30446 8.89336H4.56058H6.81671L6.95404 9.00118Z"/>
</svg>

