<svg width="20" height="16" viewBox="0 0 20 16" fill="currentColor" xmlns="http://www.w3.org/2000/svg">
<path d="M0.100098 15.1998V12.6798C0.100098 12.1698 0.231348 11.7011 0.493848 11.2736C0.756348 10.8461 1.1051 10.5198 1.5401 10.2948C2.4701 9.8298 3.4151 9.48105 4.3751 9.24855C5.3351 9.01605 6.3101 8.8998 7.3001 8.8998C8.2901 8.8998 9.2651 9.01605 10.2251 9.24855C11.1851 9.48105 12.1301 9.8298 13.0601 10.2948C13.4951 10.5198 13.8438 10.8461 14.1063 11.2736C14.3688 11.7011 14.5001 12.1698 14.5001 12.6798V15.1998H0.100098ZM16.3001 15.1998V12.4998C16.3001 11.8398 16.1163 11.2061 15.7488 10.5986C15.3813 9.99105 14.8601 9.4698 14.1851 9.0348C14.9501 9.1248 15.6701 9.27855 16.3451 9.49605C17.0201 9.71355 17.6501 9.9798 18.2351 10.2948C18.7751 10.5948 19.1876 10.9286 19.4726 11.2961C19.7576 11.6636 19.9001 12.0648 19.9001 12.4998V15.1998H16.3001ZM7.3001 7.9998C6.3101 7.9998 5.4626 7.6473 4.7576 6.9423C4.0526 6.2373 3.7001 5.3898 3.7001 4.3998C3.7001 3.4098 4.0526 2.5623 4.7576 1.8573C5.4626 1.1523 6.3101 0.799805 7.3001 0.799805C8.2901 0.799805 9.1376 1.1523 9.8426 1.8573C10.5476 2.5623 10.9001 3.4098 10.9001 4.3998C10.9001 5.3898 10.5476 6.2373 9.8426 6.9423C9.1376 7.6473 8.2901 7.9998 7.3001 7.9998ZM16.3001 4.3998C16.3001 5.3898 15.9476 6.2373 15.2426 6.9423C14.5376 7.6473 13.6901 7.9998 12.7001 7.9998C12.5351 7.9998 12.3251 7.98105 12.0701 7.94355C11.8151 7.90605 11.6051 7.8648 11.4401 7.8198C11.8451 7.3398 12.1563 6.8073 12.3738 6.2223C12.5913 5.6373 12.7001 5.0298 12.7001 4.3998C12.7001 3.7698 12.5913 3.1623 12.3738 2.5773C12.1563 1.9923 11.8451 1.4598 11.4401 0.979805C11.6501 0.904805 11.8601 0.856055 12.0701 0.833555C12.2801 0.811055 12.4901 0.799805 12.7001 0.799805C13.6901 0.799805 14.5376 1.1523 15.2426 1.8573C15.9476 2.5623 16.3001 3.4098 16.3001 4.3998ZM1.9001 13.3998H12.7001V12.6798C12.7001 12.5148 12.6588 12.3648 12.5763 12.2298C12.4938 12.0948 12.3851 11.9898 12.2501 11.9148C11.4401 11.5098 10.6226 11.2061 9.7976 11.0036C8.9726 10.8011 8.1401 10.6998 7.3001 10.6998C6.4601 10.6998 5.6276 10.8011 4.8026 11.0036C3.9776 11.2061 3.1601 11.5098 2.3501 11.9148C2.2151 11.9898 2.10635 12.0948 2.02385 12.2298C1.94135 12.3648 1.9001 12.5148 1.9001 12.6798V13.3998ZM7.3001 6.1998C7.7951 6.1998 8.21885 6.02355 8.57135 5.67105C8.92385 5.31855 9.1001 4.8948 9.1001 4.3998C9.1001 3.9048 8.92385 3.48105 8.57135 3.12855C8.21885 2.77605 7.7951 2.5998 7.3001 2.5998C6.8051 2.5998 6.38135 2.77605 6.02885 3.12855C5.67635 3.48105 5.5001 3.9048 5.5001 4.3998C5.5001 4.8948 5.67635 5.31855 6.02885 5.67105C6.38135 6.02355 6.8051 6.1998 7.3001 6.1998Z"/>
</svg>
