<svg width="20" height="21" viewBox="0 0 20 21" fill="currentColor" xmlns="http://www.w3.org/2000/svg">
<path d="M18.8889 6.60584L12.2222 1.33039C11.6111 0.836985 10.82 0.564209 10 0.564209C9.18011 0.564209 8.38896 0.836985 7.77783 1.33039L1.11121 6.60584C0.758287 6.89075 0.476658 7.24026 0.285072 7.63109C0.0934866 8.02192 -0.00365837 8.44511 0.000105326 8.87248V17.6382C0.000105326 18.4361 0.351292 19.2015 0.976409 19.7657C1.60153 20.33 2.44937 20.647 3.33342 20.647H16.6667C17.5507 20.647 18.3985 20.33 19.0237 19.7657C19.6488 19.2015 20 18.4361 20 17.6382V8.86245C20.0021 8.43677 19.9042 8.01551 19.7127 7.62651C19.5212 7.23751 19.2404 6.88963 18.8889 6.60584ZM12.2222 18.6411H7.77783V13.6264C7.77783 13.3604 7.89489 13.1053 8.10326 12.9172C8.31164 12.7291 8.59425 12.6235 8.88893 12.6235H11.1111C11.4058 12.6235 11.6884 12.7291 11.8968 12.9172C12.1052 13.1053 12.2222 13.3604 12.2222 13.6264V18.6411ZM17.7778 17.6382C17.7778 17.9042 17.6607 18.1593 17.4523 18.3473C17.2439 18.5354 16.9613 18.6411 16.6667 18.6411H14.4444V13.6264C14.4444 12.8284 14.0933 12.0631 13.4681 11.4989C12.843 10.9346 11.9952 10.6176 11.1111 10.6176H8.88893C8.00488 10.6176 7.15704 10.9346 6.53192 11.4989C5.90681 12.0631 5.55562 12.8284 5.55562 13.6264V18.6411H3.33342C3.03873 18.6411 2.75612 18.5354 2.54775 18.3473C2.33937 18.1593 2.22231 17.9042 2.22231 17.6382V8.86245C2.22251 8.72005 2.2563 8.57932 2.32144 8.44962C2.38658 8.31992 2.48157 8.20423 2.60009 8.11025L9.26671 2.84482C9.46947 2.68403 9.73014 2.59536 10 2.59536C10.2699 2.59536 10.5306 2.68403 10.7334 2.84482L17.4 8.11025C17.5185 8.20423 17.6135 8.31992 17.6786 8.44962C17.7438 8.57932 17.7776 8.72005 17.7778 8.86245V17.6382Z"/>
</svg>
