<svg width="30" height="30" viewBox="0 0 30 30" fill="none" xmlns="http://www.w3.org/2000/svg">
<path d="M20.5952 8.59794C21.1032 8.59794 21.5476 8.80412 21.9286 9.21649C22.3095 9.62887 22.5 10.11 22.5 10.6598V12.7216C22.5 12.8419 22.4841 12.9708 22.4524 13.1082C22.4206 13.2457 22.3889 13.3746 22.3571 13.4948L19.5 20.7629C19.3571 21.1065 19.119 21.3986 18.7857 21.6392C18.4524 21.8797 18.1032 22 17.7381 22H7.2619V8.59794L12.9762 2.46392C13.2143 2.20619 13.496 2.05584 13.8214 2.01289C14.1468 1.96993 14.4603 2.03436 14.7619 2.20619C15.0635 2.37801 15.2857 2.61856 15.4286 2.92784C15.5714 3.23711 15.6032 3.55498 15.5238 3.88144L14.4524 8.59794H20.5952ZM9.16667 9.47423V19.9381H17.7381L20.5952 12.7216V10.6598H12.0238L13.3095 4.98969L9.16667 9.47423ZM4.40476 22C3.88095 22 3.43254 21.7981 3.05952 21.3943C2.68651 20.9905 2.5 20.5052 2.5 19.9381V10.6598C2.5 10.0928 2.68651 9.60739 3.05952 9.20361C3.43254 8.79983 3.88095 8.59794 4.40476 8.59794H7.2619V10.6598H4.40476V19.9381H7.2619V22H4.40476Z"/>
</svg>
