<svg width="21" height="20" viewBox="0 0 21 20" fill="none" xmlns="http://www.w3.org/2000/svg">
<path d="M18.5952 6.59794C19.1032 6.59794 19.5476 6.80412 19.9286 7.21649C20.3095 7.62887 20.5 8.10997 20.5 8.65979V10.7216C20.5 10.8419 20.4841 10.9708 20.4524 11.1082C20.4206 11.2457 20.3889 11.3746 20.3571 11.4948L17.5 18.7629C17.3571 19.1065 17.119 19.3986 16.7857 19.6392C16.4524 19.8797 16.1032 20 15.7381 20H5.2619V6.59794L10.9762 0.463918C11.2143 0.206186 11.496 0.0558419 11.8214 0.0128866C12.1468 -0.0300687 12.4603 0.0343643 12.7619 0.206186C13.0635 0.378007 13.2857 0.618557 13.4286 0.927835C13.5714 1.23711 13.6032 1.55498 13.5238 1.88144L12.4524 6.59794H18.5952ZM7.16667 7.47423V17.9381H15.7381L18.5952 10.7216V8.65979H10.0238L11.3095 2.98969L7.16667 7.47423ZM2.40476 20C1.88095 20 1.43254 19.7981 1.05952 19.3943C0.686508 18.9905 0.5 18.5052 0.5 17.9381V8.65979C0.5 8.09278 0.686508 7.60739 1.05952 7.20361C1.43254 6.79983 1.88095 6.59794 2.40476 6.59794H5.2619V8.65979H2.40476V17.9381H5.2619V20H2.40476Z"/>
</svg>
