<svg width="20" height="20" viewBox="0 0 20 20" fill="none" xmlns="http://www.w3.org/2000/svg">
<path d="M10 11.5625C10.2486 11.5625 10.4871 11.6613 10.6629 11.8371C10.8387 12.0129 10.9375 12.2514 10.9375 12.5V13.75C10.9375 13.9986 10.8387 14.2371 10.6629 14.4129C10.4871 14.5887 10.2486 14.6875 10 14.6875C9.75136 14.6875 9.5129 14.5887 9.33709 14.4129C9.16127 14.2371 9.0625 13.9986 9.0625 13.75V12.5C9.0625 12.2514 9.16127 12.0129 9.33709 11.8371C9.5129 11.6613 9.75136 11.5625 10 11.5625Z" fill="currentColor"/>
<path fill-rule="evenodd" clip-rule="evenodd" d="M5 6.2675V5.105C5 3.7575 5.52125 2.4625 6.45625 1.50375C6.91657 1.02913 7.46731 0.651541 8.07595 0.393269C8.6846 0.134996 9.33882 0.0012753 10 0C10.6612 0.0012753 11.3154 0.134996 11.924 0.393269C12.5327 0.651541 13.0834 1.02913 13.5437 1.50375C14.4795 2.46826 15.002 3.75988 15 5.10375V6.26625C15.6877 6.34314 16.323 6.67088 16.7842 7.18677C17.2454 7.70266 17.5003 8.37049 17.5 9.0625V15.9375C17.5 16.6834 17.2037 17.3988 16.6762 17.9262C16.1488 18.4537 15.4334 18.75 14.6875 18.75H5.3125C4.56658 18.75 3.85121 18.4537 3.32376 17.9262C2.79632 17.3988 2.5 16.6834 2.5 15.9375V9.0625C2.50002 8.3707 2.75501 7.70318 3.21621 7.18755C3.67742 6.67193 4.31249 6.34437 5 6.2675ZM7.79875 2.8125C8.0844 2.51707 8.42637 2.2819 8.80446 2.12088C9.18254 1.95986 9.58906 1.87625 10 1.875C10.8212 1.875 11.6125 2.20875 12.2013 2.8125C12.79 3.41625 13.125 4.24 13.125 5.10375V6.25H6.875V5.10375C6.875 4.24125 7.21 3.41625 7.79875 2.8125ZM14.6875 8.125C14.9361 8.125 15.1746 8.22377 15.3504 8.39959C15.5262 8.5754 15.625 8.81386 15.625 9.0625V15.9375C15.625 16.1861 15.5262 16.4246 15.3504 16.6004C15.1746 16.7762 14.9361 16.875 14.6875 16.875H5.3125C5.06386 16.875 4.8254 16.7762 4.64959 16.6004C4.47377 16.4246 4.375 16.1861 4.375 15.9375V9.0625C4.375 8.81386 4.47377 8.5754 4.64959 8.39959C4.8254 8.22377 5.06386 8.125 5.3125 8.125H14.6875Z" fill="currentColor"/>
</svg>
