<svg width="20" height="21" viewBox="0 0 20 21" fill="currentColor" xmlns="http://www.w3.org/2000/svg">
<path d="M17 10.9403H10V3.91971C10 3.31794 9.6 2.91677 9 2.91677C4 2.91677 0 6.92852 0 11.9432C0 16.9579 4 20.9697 9 20.9697C14 20.9697 18 16.9579 18 11.9432C18 11.3415 17.6 10.9403 17 10.9403ZM10 18.8635C6.2 19.4653 2.6 16.7573 2.1 12.9462C1.5 9.13499 4.2 5.52441 8 5.02294V11.9432C8 12.545 8.4 12.9462 9 12.9462H15.9C15.5 16.0553 13.1 18.4623 10 18.8635ZM13 0.910889C12.4 0.910889 12 1.31206 12 1.91383V7.93146C12 8.53322 12.4 8.9344 13 8.9344H19C19.6 8.9344 20 8.53322 20 7.93146C20 4.02 16.9 0.910889 13 0.910889ZM14 6.92852V3.01706C16 3.41824 17.5 4.92264 17.9 6.92852H14Z"/>
</svg>
