<svg width="209" height="209" viewBox="0 0 209 209" fill="none" xmlns="http://www.w3.org/2000/svg">
<path d="M188.656 47.805L109.756 48.005C109.756 48.005 104.956 16.205 129.656 24.505C129.656 24.505 131.956 10.705 145.256 8.80501C151.156 8.00501 157.156 9.805 161.456 14.605C163.856 17.305 165.856 21.005 166.056 25.905C166.156 25.905 189.756 14.305 188.656 47.805Z" fill="white"/>
<path d="M109.656 48.205V48.005C109.656 47.805 107.256 31.705 114.856 25.405C118.356 22.505 123.256 22.105 129.656 24.205C130.056 22.405 133.056 10.305 145.456 8.60499C151.756 7.70499 157.756 9.805 161.856 14.505C164.756 17.705 166.256 21.505 166.556 25.705C168.156 25.005 175.856 21.905 181.856 25.705C187.056 29.005 189.456 36.505 189.056 47.905V48.105H188.856L109.656 48.205ZM122.256 23.305C119.356 23.305 116.956 24.105 114.956 25.705C108.056 31.505 109.656 46.005 109.956 47.805L188.456 47.605C188.756 36.505 186.356 29.205 181.356 26.005C174.956 21.905 166.256 26.105 166.256 26.105L165.956 26.205V25.905C165.756 21.705 164.256 17.905 161.356 14.705C157.356 10.205 151.456 8.105 145.256 9.005C132.156 10.805 129.856 24.405 129.756 24.505V24.705L129.556 24.605C126.956 23.705 124.456 23.305 122.256 23.305Z" fill="black"/>
<path d="M57.956 105.005L0.356 105.105C0.356 105.105 -3.144 81.9049 14.856 87.9049C14.856 87.9049 16.556 77.8049 26.256 76.4049C30.556 75.8049 34.956 77.1048 38.056 80.6048C39.856 82.6048 41.256 85.3049 41.456 88.9049C41.556 89.0049 58.756 80.5048 57.956 105.005Z" fill="white"/>
<path d="M0.256 105.305V105.105C0.256 105.105 -0.144 102.105 0.056 98.6049C0.256 95.4049 1.156 91.0049 4.056 88.6049C6.556 86.5049 10.256 86.2049 14.856 87.7049C15.156 86.2049 17.356 77.6049 26.356 76.3049C30.956 75.6049 35.356 77.2049 38.356 80.6049C40.456 82.9049 41.556 85.7049 41.756 88.7049C42.956 88.2049 48.556 86.0049 52.856 88.8049C56.656 91.2049 58.456 96.7049 58.156 105.005V105.205L0.256 105.305ZM9.556 87.2049C7.456 87.2049 5.656 87.8049 4.256 89.0049C-0.744 93.2049 0.456 103.605 0.556 105.005L57.756 104.905C57.956 96.8049 56.256 91.5049 52.656 89.2049C47.956 86.2049 41.656 89.3049 41.656 89.3049L41.356 89.4049V89.1049C41.256 86.0049 40.156 83.3049 38.056 80.9049C35.156 77.6049 30.856 76.1049 26.356 76.7049C16.856 78.0049 15.156 87.9049 15.056 88.0049V88.2049L14.856 88.1049C12.956 87.5049 11.156 87.2049 9.556 87.2049Z" fill="black"/>
<path d="M9.156 24.005L56.956 24.105C56.956 24.105 59.856 4.80501 44.856 9.90501C44.856 9.90501 43.456 1.50501 35.356 0.40501C31.756 -0.0949903 28.156 1.00501 25.556 3.90501C24.056 5.60501 22.856 7.80502 22.756 10.805C22.756 10.705 8.556 3.705 9.156 24.005Z" fill="white"/>
<path d="M57.156 24.305L8.956 24.205V24.005C8.756 17.105 10.256 12.505 13.356 10.505C16.956 8.20499 21.456 9.90499 22.556 10.405C22.756 7.90499 23.656 5.60499 25.356 3.70499C27.856 0.90499 31.556 -0.395016 35.356 0.104984C42.756 1.10498 44.656 8.20498 44.956 9.60498C48.856 8.40498 51.856 8.60499 53.956 10.405C55.856 12.005 57.056 14.905 57.256 18.805C57.456 21.705 57.056 24.205 57.056 24.205L57.156 24.305ZM9.356 23.805L56.756 23.905C56.956 22.605 57.756 14.105 53.756 10.705C51.756 9.00499 48.756 8.80498 44.956 10.105L44.756 10.205V10.005C44.756 9.90499 43.256 1.80499 35.456 0.704991C31.756 0.204991 28.256 1.40499 25.756 4.20499C24.056 6.10499 23.156 8.40499 22.956 10.905V11.205L22.656 11.105C22.556 11.105 17.456 8.60499 13.556 11.005C10.556 12.805 9.156 17.105 9.356 23.805Z" fill="black"/>
<path d="M207.956 92.9049L160.156 93.0049C160.156 93.0049 157.256 73.7049 172.256 78.8049C172.256 78.8049 173.656 70.4049 181.756 69.3049C185.356 68.8049 188.956 69.9049 191.556 72.8049C193.056 74.5049 194.256 76.7049 194.356 79.7049C194.256 79.6049 208.556 72.6049 207.956 92.9049Z" fill="white"/>
<path d="M159.956 93.205V93.005C159.956 93.005 159.556 90.505 159.756 87.605C160.056 83.705 161.156 80.805 163.056 79.205C165.156 77.405 168.156 77.205 172.056 78.405C172.356 77.005 174.256 70.005 181.656 68.905C185.556 68.405 189.156 69.705 191.656 72.505C193.356 74.405 194.356 76.705 194.456 79.205C195.656 78.705 200.156 77.005 203.656 79.305C206.756 81.305 208.256 85.905 208.056 92.805V93.005L159.956 93.205ZM167.656 78.105C165.956 78.105 164.456 78.605 163.256 79.605C159.156 83.005 160.056 91.505 160.256 92.805L207.656 92.705C207.856 86.005 206.356 81.705 203.456 79.805C199.656 77.305 194.456 79.805 194.356 79.905L194.056 80.005V79.705C193.956 77.205 193.056 74.905 191.256 73.005C188.856 70.305 185.356 69.005 181.556 69.505C173.756 70.605 172.256 78.805 172.256 78.805V79.005L172.056 78.905C170.456 78.405 169.056 78.105 167.656 78.105Z" fill="black"/>
<path d="M116.756 133.705C122.756 155.505 125.456 177.105 123.356 199.705C122.756 206.005 112.856 206.205 113.356 199.805C115.356 178.105 112.856 157.405 107.056 136.405C105.456 130.305 115.056 127.505 116.756 133.705Z" fill="black"/>
<path d="M124.956 188.305L112.756 188.605L113.256 208.005L147.156 207.905L147.256 203.305C147.256 203.305 144.756 194.605 124.956 197.205V188.305Z" fill="#BB7F55"/>
<path d="M146.956 203.405L134.056 203.305C134.556 201.205 135.156 199.105 136.056 197.105C144.456 198.205 146.656 202.305 147.056 203.205C147.156 203.305 147.056 203.405 146.956 203.405Z" fill="white"/>
<path d="M113.056 203.105L146.956 203.305C147.056 203.305 147.156 203.405 147.156 203.505L147.056 207.905L113.156 208.005L113.056 203.105Z" fill="white"/>
<path d="M147.356 203.305C147.356 203.205 147.156 202.805 146.856 202.205C146.556 201.705 146.156 201.205 145.756 200.805L145.656 200.705C143.256 198.305 137.656 195.405 125.056 197.005L125.156 188.105L112.556 188.405L113.056 208.005V208.205L147.356 208.105L147.456 203.505L147.356 203.305ZM113.356 207.805L113.256 203.305L133.856 203.405L146.956 203.505L146.856 207.705L113.356 207.805ZM146.856 203.105L134.356 203.005C134.856 200.905 135.456 199.005 136.256 197.205C144.156 198.305 146.456 202.105 146.856 203.105ZM124.756 188.505V191.305L117.956 191.405C117.856 191.405 117.756 191.505 117.756 191.605C117.756 191.705 117.856 191.805 117.956 191.805L124.756 191.705V194.805L118.156 194.905C118.056 194.905 117.956 195.005 117.956 195.105C117.956 195.205 118.056 195.305 118.156 195.305L124.756 195.205V197.405H124.956C129.456 196.805 133.056 196.805 135.956 197.205C135.156 199.105 134.556 201.005 134.056 203.105L113.356 203.005L113.056 188.805L124.756 188.505Z" fill="black"/>
<path d="M72.856 133.705C66.856 155.505 64.156 177.105 66.256 199.705C66.856 206.005 76.756 206.205 76.256 199.805C74.256 178.105 76.756 157.405 82.556 136.405C84.156 130.305 74.556 127.505 72.856 133.705Z" fill="black"/>
<path d="M64.656 188.305L76.856 188.605L76.356 208.005L42.456 207.905L42.356 203.305C42.356 203.305 44.856 194.605 64.656 197.205V188.305Z" fill="#BB7F55"/>
<path d="M42.656 203.405L55.556 203.305C55.056 201.205 54.456 199.105 53.556 197.105C45.156 198.205 42.956 202.305 42.556 203.205C42.456 203.305 42.556 203.405 42.656 203.405Z" fill="white"/>
<path d="M76.556 203.105L42.656 203.305C42.556 203.305 42.456 203.405 42.456 203.505L42.556 207.905L76.456 208.005L76.556 203.105Z" fill="white"/>
<path d="M42.256 203.605L42.356 208.205L76.656 208.305V208.105L77.156 188.505L64.556 188.205L64.656 197.105C52.056 195.505 46.456 198.405 44.056 200.805L43.956 200.905C43.556 201.305 43.156 201.805 42.856 202.305C42.556 202.905 42.356 203.205 42.356 203.305L42.256 203.605ZM42.756 207.705L42.656 203.505L55.756 203.405L76.356 203.305L76.256 207.805L42.756 207.705ZM53.356 197.305C54.156 199.105 54.756 201.005 55.256 203.105L42.756 203.205C43.256 202.105 45.456 198.305 53.356 197.305ZM76.656 188.805L76.356 203.005L55.656 203.105C55.156 201.005 54.556 199.105 53.756 197.205C56.656 196.805 60.256 196.805 64.756 197.405H64.956V195.205L71.556 195.305C71.656 195.305 71.756 195.205 71.756 195.105C71.756 195.005 71.656 194.905 71.556 194.905L64.956 194.805V191.705L71.756 191.805C71.856 191.805 71.956 191.705 71.956 191.605C71.956 191.505 71.856 191.405 71.756 191.405L64.956 191.305V188.505L76.656 188.805Z" fill="black"/>
<path d="M93.956 148.205C134.77 148.205 167.856 115.119 167.856 74.305C167.856 33.4912 134.77 0.405029 93.956 0.405029C53.1422 0.405029 20.056 33.4912 20.056 74.305C20.056 115.119 53.1422 148.205 93.956 148.205Z" fill="#FEBE30"/>
<path d="M146.256 21.8051L146.156 21.7051C132.156 7.80508 113.656 0.205078 93.956 0.205078C93.356 0.205078 92.756 0.205078 92.156 0.205078C92.056 0.205078 91.956 0.205078 91.956 0.205078C91.656 0.205078 91.256 0.205078 90.956 0.205078H90.856C68.756 1.10508 49.156 11.8051 36.156 28.0051H36.056L35.956 28.1051C31.756 33.4051 28.256 39.2051 25.656 45.4051C25.456 45.9051 25.156 46.5051 24.956 47.0051C23.856 49.8051 22.956 52.7051 22.156 55.6051C22.056 56.2051 21.856 56.7051 21.756 57.3051C21.756 57.4051 21.756 57.5051 21.656 57.5051C21.556 57.8051 21.556 58.1051 21.456 58.4051V58.5051C20.356 63.5051 19.756 68.7051 19.756 74.1051C19.756 91.0051 25.456 106.605 35.056 119.105L35.156 119.205C46.056 133.405 61.556 143.105 78.956 146.605C79.156 146.605 79.256 146.705 79.456 146.705C79.756 146.805 79.956 146.805 80.256 146.905H80.356C84.756 147.705 89.356 148.205 93.956 148.205C134.856 148.205 168.056 114.905 168.056 74.1051C168.156 53.8051 159.756 35.2051 146.256 21.8051ZM91.956 0.605072C92.056 0.605072 92.156 0.605072 92.156 0.605072C92.756 0.605072 93.356 0.605072 93.956 0.605072C114.156 0.605072 132.456 8.80507 145.756 22.0051C144.756 26.7051 142.656 31.0051 139.656 34.7051C129.156 47.5051 110.356 49.6051 97.556 39.2051C86.156 29.9051 83.356 13.4051 90.956 0.705078C91.356 0.605078 91.656 0.605072 91.956 0.605072ZM22.156 57.8051C22.156 57.7051 22.156 57.7051 22.256 57.6051C23.056 54.1051 24.156 50.7051 25.456 47.4051C25.656 46.8051 25.856 46.3051 26.156 45.8051C28.756 39.6051 32.256 33.8051 36.456 28.6051C41.856 27.9051 47.456 29.5051 51.556 33.0051C55.556 36.4051 58.056 41.1051 58.456 46.4051C58.856 51.7051 57.256 56.8051 53.856 60.9051C50.456 65.0051 45.656 67.5051 40.456 68.0051C35.156 68.5051 30.056 66.9051 26.056 63.5051C24.456 62.2051 23.056 60.6051 22.056 58.9051C21.956 58.4051 22.056 58.1051 22.156 57.8051ZM79.456 146.605C79.256 146.605 79.156 146.505 78.956 146.505C78.456 146.405 77.956 146.305 77.356 146.205H77.256C60.456 142.305 45.756 132.605 35.556 119.405C36.056 118.605 36.656 117.805 37.256 117.005C41.756 111.505 48.056 108.105 54.956 107.405C61.956 106.705 68.756 108.705 74.156 113.105C84.156 121.205 86.656 135.705 80.056 146.905C79.956 146.705 79.756 146.705 79.456 146.605ZM93.956 148.005C89.356 148.005 84.956 147.605 80.556 146.805C87.256 135.505 84.656 120.905 74.556 112.605C69.056 108.105 62.156 106.105 55.056 106.805C47.956 107.605 41.556 111.005 37.056 116.605C36.456 117.305 35.856 118.105 35.356 118.905C25.856 106.505 20.256 91.0051 20.256 74.3051C20.256 69.1051 20.756 64.1051 21.856 59.2051C22.956 60.8051 24.256 62.3051 25.756 63.6051C29.356 66.6051 33.856 68.2051 38.556 68.2051C39.156 68.2051 39.856 68.2051 40.456 68.1051C45.856 67.6051 50.656 65.0051 54.156 60.9051C57.656 56.7051 59.256 51.5051 58.856 46.1051C58.356 40.7051 55.856 35.9051 51.756 32.4051C47.556 28.9051 42.156 27.3051 36.756 27.9051C49.656 12.0051 68.956 1.60507 90.656 0.605072C83.056 13.4051 85.956 30.1051 97.456 39.4051C102.956 43.9051 109.656 46.1051 116.356 46.1051C125.156 46.1051 134.056 42.2051 140.056 34.8051C143.156 31.1051 145.156 26.8051 146.156 22.1051C159.456 35.4051 167.756 53.8051 167.756 74.1051C167.756 115.005 134.656 148.005 93.956 148.005Z" fill="black"/>
<path d="M165.756 76.1052C165.656 74.8052 164.956 73.6052 163.956 72.8052C161.856 71.1052 158.756 71.4052 157.056 73.5052C156.256 74.5052 155.856 75.8052 155.956 77.1052C156.056 78.4052 156.756 79.6052 157.756 80.4052C158.656 81.1052 159.756 81.5052 160.856 81.5052C161.056 81.5052 161.156 81.5052 161.356 81.5052C162.656 81.4052 163.856 80.7052 164.656 79.7052C165.456 78.7052 165.856 77.4052 165.756 76.1052ZM164.356 79.5052C163.556 80.4052 162.556 81.0052 161.356 81.1052C160.156 81.2052 158.956 80.9052 158.056 80.1052C157.156 79.3052 156.556 78.3052 156.456 77.1052C156.356 75.9052 156.656 74.7052 157.456 73.8052C158.356 72.7052 159.656 72.1052 160.956 72.1052C161.956 72.1052 162.956 72.4052 163.756 73.1052C164.656 73.9052 165.256 74.9052 165.356 76.1052C165.456 77.4052 165.156 78.6052 164.356 79.5052Z" fill="black"/>
<path d="M37.256 89.7052C36.256 88.9052 34.956 88.5052 33.656 88.6052C32.356 88.7052 31.156 89.4052 30.356 90.4052C29.556 91.4052 29.156 92.7052 29.256 94.0052C29.356 95.3052 30.056 96.5052 31.056 97.3052C31.956 98.0052 33.056 98.4052 34.156 98.4052C34.356 98.4052 34.456 98.4052 34.656 98.4052C35.956 98.3052 37.156 97.6052 37.956 96.6052C38.756 95.6052 39.156 94.3052 39.056 93.0052C38.856 91.7052 38.256 90.5052 37.256 89.7052ZM37.556 96.4052C36.756 97.3052 35.756 97.9052 34.556 98.0052C33.356 98.1052 32.156 97.8052 31.256 97.0052C30.356 96.2052 29.756 95.2052 29.656 94.0052C29.556 92.8052 29.856 91.6052 30.656 90.7052C31.456 89.8052 32.456 89.2052 33.656 89.1052C33.856 89.1052 33.956 89.1052 34.156 89.1052C35.156 89.1052 36.156 89.5052 36.956 90.1052C37.856 90.9052 38.456 91.9052 38.556 93.1052C38.756 94.3052 38.356 95.4052 37.556 96.4052Z" fill="black"/>
<path d="M71.056 14.8051C67.456 11.8051 62.056 12.4051 59.056 16.0051C56.056 19.6051 56.656 25.0051 60.256 28.0051C61.856 29.3051 63.756 29.9051 65.656 29.9051C68.156 29.9051 70.556 28.8051 72.256 26.8051C75.256 23.2051 74.756 17.8051 71.056 14.8051ZM72.056 26.5051C69.256 30.0051 64.156 30.5051 60.656 27.7051C57.156 24.9051 56.656 19.8051 59.456 16.3051C62.256 12.8051 67.356 12.3051 70.856 15.1051C74.356 18.0051 74.856 23.1051 72.056 26.5051Z" fill="black"/>
<path d="M140.856 102.405C138.356 100.305 135.156 99.4052 131.856 99.7052C128.556 100.005 125.656 101.605 123.656 104.105C121.556 106.605 120.656 109.805 120.956 113.105C121.256 116.405 122.856 119.305 125.356 121.305C127.556 123.105 130.256 124.005 133.056 124.005C133.456 124.005 133.856 124.005 134.356 123.905C137.656 123.605 140.556 122.005 142.556 119.505C144.656 117.005 145.556 113.805 145.256 110.505C144.956 107.405 143.356 104.505 140.856 102.405ZM142.256 119.405C140.256 121.805 137.456 123.405 134.256 123.705C131.156 124.005 128.056 123.105 125.556 121.105C123.156 119.105 121.556 116.305 121.256 113.105C120.956 110.005 121.856 106.905 123.856 104.405C125.856 102.005 128.656 100.405 131.856 100.105C132.256 100.105 132.656 100.005 133.056 100.005C135.756 100.005 138.356 100.905 140.456 102.705C145.656 106.805 146.356 114.305 142.256 119.405Z" fill="black"/>
<path d="M100.756 119.005C99.356 117.905 97.356 118.105 96.256 119.505C95.156 120.905 95.356 122.905 96.756 124.005C97.356 124.505 98.056 124.705 98.756 124.705C99.656 124.705 100.656 124.305 101.256 123.505C102.356 122.105 102.156 120.105 100.756 119.005ZM100.856 123.305C99.856 124.505 98.156 124.705 96.956 123.705C95.756 122.705 95.556 121.005 96.556 119.805C97.556 118.605 99.256 118.405 100.456 119.405C101.656 120.305 101.856 122.105 100.856 123.305Z" fill="black"/>
<path d="M92.6124 108.785C97.3602 108.658 101.048 102.514 100.849 95.0611C100.65 87.6083 96.6399 81.6693 91.8921 81.796C87.1444 81.9227 83.4568 88.0671 83.6557 95.52C83.8546 102.973 87.8647 108.912 92.6124 108.785Z" fill="#F06416"/>
<path d="M92.456 109.005C87.656 109.005 83.556 103.005 83.356 95.5051C83.156 87.9051 86.956 81.7051 91.856 81.5051C91.956 81.5051 91.956 81.5051 92.056 81.5051C96.856 81.5051 100.956 87.5051 101.156 95.0051C101.256 98.7051 100.456 102.105 98.856 104.705C97.256 107.405 95.056 108.905 92.656 108.905C92.556 109.005 92.556 109.005 92.456 109.005ZM92.056 82.0051H91.956C87.256 82.1051 83.656 88.2051 83.856 95.5051C84.056 102.805 87.956 108.605 92.556 108.605H92.656C94.856 108.505 96.956 107.105 98.456 104.605C99.956 102.005 100.756 98.7051 100.656 95.1051C100.556 87.8051 96.656 82.0051 92.056 82.0051Z" fill="black"/>
<path d="M95.056 95.0052C95.156 97.7052 93.956 99.9052 92.356 100.005C90.856 100.005 89.456 97.9052 89.456 95.2052C89.356 92.5052 90.556 90.3052 92.156 90.2052C93.656 90.1052 94.956 92.3052 95.056 95.0052Z" fill="black"/>
<path d="M92.256 100.105C91.456 100.105 90.656 99.6053 90.156 98.6053C89.556 97.7053 89.256 96.4053 89.256 95.1053C89.156 92.3053 90.456 90.0053 92.156 89.9053C92.956 89.9053 93.756 90.4053 94.356 91.4053C94.956 92.3053 95.256 93.6053 95.256 94.9053C95.256 96.2053 95.056 97.5052 94.456 98.5052C93.956 99.5052 93.156 100.105 92.256 100.105C92.356 100.105 92.356 100.105 92.256 100.105ZM92.156 90.4053C90.656 90.4053 89.556 92.6053 89.656 95.1053C89.656 96.4053 89.956 97.6053 90.556 98.4053C91.056 99.2053 91.756 99.7053 92.356 99.7053C93.056 99.7053 93.656 99.2053 94.156 98.3053C94.656 97.4053 94.856 96.2053 94.856 94.9053C94.856 93.6053 94.556 92.4053 93.956 91.6053C93.456 90.8053 92.756 90.4053 92.156 90.4053Z" fill="black"/>
<path d="M167.656 67.905C147.356 65.005 122.756 62.705 94.756 62.705C66.056 62.705 40.956 65.105 20.356 68.105C20.956 60.605 22.756 53.505 25.356 46.805C45.556 44.805 68.256 43.405 93.256 43.405C118.756 43.405 142.056 44.705 162.656 46.705C165.256 53.405 167.056 60.505 167.656 67.905Z" fill="black"/>
<path d="M20.056 68.3051V68.0051C20.656 60.7051 22.356 53.5051 25.056 46.7051V46.6051H25.156C47.556 44.4051 70.456 43.2051 93.056 43.2051C116.156 43.2051 139.556 44.3051 162.456 46.5051H162.556V46.6051C165.256 53.4051 166.956 60.5051 167.656 67.9051V68.2051H167.356C143.356 64.7051 118.856 63.0051 94.456 63.0051C94.356 63.0051 94.256 63.0051 94.156 63.0051C69.356 63.0051 44.456 64.8051 20.056 68.4051V68.3051ZM25.456 47.0051C22.756 53.7051 21.156 60.7051 20.556 67.8051C44.956 64.2051 69.956 62.4051 94.756 62.5051C119.056 62.5051 143.556 64.3051 167.456 67.7051C166.856 60.5051 165.156 53.6051 162.456 46.9051C139.556 44.7051 116.256 43.6051 93.156 43.6051C70.656 43.6051 47.856 44.8051 25.456 47.0051Z" fill="black"/>
<path d="M147.256 80.405C132.056 82.805 114.156 84.605 94.256 84.705C73.356 84.805 54.756 83.105 38.956 80.705C38.456 80.705 36.056 80.705 34.156 78.705C32.956 77.505 32.156 75.805 32.156 73.905L31.956 32.605C31.956 28.905 34.956 25.805 38.756 25.805C54.956 24.005 73.056 22.805 92.756 22.705C112.556 22.605 130.756 23.805 147.056 25.505C147.556 25.505 149.956 25.505 151.856 27.505C153.056 28.705 153.856 30.405 153.856 32.305L153.956 73.705C154.056 77.405 151.056 80.405 147.256 80.405Z" fill="#5040E5"/>
<path d="M92.156 84.9052C74.356 84.9052 56.456 83.6052 38.856 80.9052C38.156 80.9052 35.856 80.8052 33.856 78.9052C32.556 77.6052 31.756 75.8051 31.756 74.0051L31.656 32.6051C31.656 28.8051 34.756 25.6051 38.656 25.6051C56.456 23.6051 74.656 22.5051 92.656 22.5051C110.756 22.4051 129.056 23.4051 146.956 25.3051C147.656 25.3051 149.956 25.5051 151.856 27.3051C153.156 28.6051 153.956 30.4051 153.956 32.2051L154.056 73.6051C154.056 77.4051 150.956 80.6051 147.056 80.6051C129.556 83.3051 111.756 84.8052 94.056 84.9052C93.556 84.9052 92.856 84.9052 92.156 84.9052ZM38.956 80.5051C57.256 83.2051 75.756 84.6051 94.256 84.5051C111.956 84.4051 129.756 83.0051 147.256 80.2051C150.956 80.2051 153.856 77.2051 153.856 73.6051L153.756 32.2051C153.756 30.4051 153.056 28.8051 151.756 27.6051C149.956 25.8051 147.656 25.7051 147.056 25.7051C129.056 23.8051 110.756 22.8052 92.756 22.9052C74.756 23.0052 56.656 24.0051 38.756 26.0051C35.056 26.0051 32.056 29.0051 32.156 32.6051L32.256 74.0051C32.256 75.8051 32.956 77.4051 34.256 78.6051C36.056 80.4051 38.256 80.5051 38.956 80.5051Z" fill="black"/>
<path d="M139.856 74.6052C126.656 76.5052 111.156 77.9052 93.756 78.0052C75.556 78.1052 59.356 76.7052 45.656 74.9052C45.256 74.9052 43.156 74.9052 41.456 73.3052C40.356 72.3052 39.756 71.0052 39.656 69.5052L39.556 36.7052C39.556 33.7052 42.256 31.3052 45.456 31.3052C59.556 29.9052 75.256 28.9052 92.356 28.8052C109.556 28.7052 125.456 29.6052 139.556 31.0052C139.956 31.0052 142.056 31.0052 143.756 32.6052C144.856 33.6052 145.456 34.9052 145.556 36.4052L145.656 69.2052C145.856 72.2052 143.156 74.6052 139.856 74.6052Z" fill="#826BFB"/>
<path d="M91.956 78.2051C76.556 78.2051 60.956 77.1051 45.756 75.1051C45.156 75.1051 43.156 75.0051 41.456 73.5051C40.256 72.5051 39.656 71.1051 39.656 69.6051L39.556 36.8051C39.556 33.7051 42.256 31.2051 45.656 31.2051C61.156 29.6051 76.956 28.8051 92.556 28.7051C108.256 28.7051 124.156 29.4051 139.756 30.9051C140.356 30.9051 142.456 31.0051 144.056 32.5051C145.256 33.5051 145.856 34.9051 145.856 36.4051L145.956 69.2051C145.956 72.3051 143.256 74.8051 139.856 74.8051C124.656 77.0051 109.156 78.1051 93.756 78.2051C93.156 78.2051 92.556 78.2051 91.956 78.2051ZM45.756 74.7051C61.656 76.9051 77.756 77.9051 93.856 77.8051C109.256 77.7051 124.756 76.6051 139.956 74.4051C143.156 74.4051 145.656 72.1051 145.656 69.2051L145.556 36.4051C145.556 35.0051 144.956 33.7051 143.856 32.8051C142.256 31.4051 140.356 31.3051 139.756 31.3051C124.156 29.8051 108.256 29.0051 92.556 29.1051C76.956 29.1051 61.156 30.0051 45.656 31.6051C42.456 31.6051 39.856 33.9051 39.856 36.8051L39.956 69.6051C39.956 71.0051 40.556 72.3051 41.656 73.2051C43.156 74.6051 45.156 74.7051 45.756 74.7051Z" fill="black"/>
<path d="M108.056 51.3053C97.756 53.1053 96.556 54.4053 95.356 65.7053C93.656 54.5053 92.456 53.2053 82.056 51.8053C92.356 50.0053 93.556 48.7053 94.756 37.4053C96.456 48.7053 97.756 49.9053 108.056 51.3053Z" fill="#FF9BED"/>
<path d="M95.456 67.3053L95.256 65.8053C93.556 54.6053 92.456 53.5053 82.156 52.1053L80.856 51.9053L82.156 51.7053C92.456 49.9053 93.456 48.7053 94.656 37.4053L94.856 35.9053L95.056 37.4053C96.756 48.6053 97.856 49.7053 108.156 51.1053L109.456 51.3053L108.156 51.5052C97.856 53.3052 96.856 54.5053 95.656 65.8053L95.456 67.3053ZM83.356 51.8053C92.256 53.1053 93.756 54.7053 95.356 64.2053C96.556 54.6053 97.956 53.0053 106.856 51.3053C97.956 50.0053 96.456 48.4053 94.856 38.9053C93.656 48.6053 92.156 50.2053 83.356 51.8053Z" fill="black"/>
<path d="M68.856 52.3054C61.056 53.7054 60.156 54.7054 59.256 63.2054C57.956 54.7054 57.056 53.7054 49.156 52.7054C56.956 51.3054 57.856 50.3054 58.756 41.8054C60.056 50.3054 60.956 51.2054 68.856 52.3054Z" fill="#FF9BED"/>
<path d="M59.256 64.8053L59.056 63.3053C57.756 54.9053 56.956 54.0053 49.156 52.9053L47.856 52.7053L49.156 52.5053C56.856 51.1053 57.656 50.2053 58.656 41.7053L58.856 40.2053L59.056 41.7053C60.356 50.1053 61.156 51.0053 68.956 52.1053L70.256 52.3053L68.956 52.5053C61.256 53.9053 60.456 54.8053 59.456 63.3053L59.256 64.8053ZM50.456 52.6053C56.856 53.6053 58.056 54.8053 59.256 61.7053C60.156 54.8053 61.256 53.5053 67.656 52.3053C61.256 51.3053 60.056 50.1053 58.856 43.2053C57.956 50.1053 56.756 51.4053 50.456 52.6053Z" fill="black"/>
<path d="M139.556 53.0055C131.656 53.6055 130.656 54.5055 128.956 63.0055C128.456 54.4055 127.656 53.4055 119.956 51.6055C127.856 51.0055 128.856 50.1055 130.556 41.6055C131.056 50.2055 131.856 51.2055 139.556 53.0055Z" fill="#FF9BED"/>
<path d="M128.856 64.5054L128.756 62.9054C128.256 54.4054 127.556 53.4054 119.956 51.7054L118.656 51.4054L119.956 51.3054C127.756 50.7054 128.656 49.9054 130.356 41.5054L130.656 40.0054L130.756 41.6054C131.256 50.1054 131.956 51.1054 139.556 52.8054L140.856 53.1054L139.556 53.2054C131.756 53.8054 130.856 54.6054 129.156 63.0054L128.856 64.5054ZM121.256 51.6054C127.556 53.2054 128.656 54.5054 129.156 61.4054C130.656 54.6054 131.956 53.4054 138.456 52.8054C132.156 51.2054 131.056 49.9054 130.556 43.0054C128.956 49.9054 127.656 51.0054 121.256 51.6054Z" fill="black"/>
<path d="M200.656 94.7052C200.356 102.205 195.956 109.605 187.556 108.905C184.356 108.605 181.356 107.205 178.656 105.505C175.556 103.705 172.556 101.605 169.656 99.4052C168.056 98.2052 166.456 96.9052 164.956 95.5052C165.856 92.5052 166.556 89.5052 167.056 86.4052C169.756 89.0052 172.556 91.4052 175.556 93.6052C177.856 95.3052 180.256 97.0052 182.756 98.5052C184.556 99.6052 186.856 100.905 188.956 100.805C194.056 100.605 192.756 90.7052 192.756 87.5052C192.456 74.9052 190.656 62.3052 187.256 50.2052C186.656 48.1052 187.256 45.8052 189.556 44.9052C191.456 44.1052 194.256 45.0052 194.856 47.2052C197.156 55.4052 198.856 63.8052 199.856 72.3052C200.556 79.7052 200.956 87.2052 200.656 94.7052Z" fill="black"/>
<path d="M187.056 56.4051C187.156 56.4051 187.156 56.5051 187.156 56.6051C186.556 57.5051 183.956 62.2051 192.156 61.6051C201.156 60.9051 204.956 59.5051 200.156 55.7051C200.156 55.7051 208.356 54.1051 202.156 32.1051C201.956 31.3051 201.256 30.6051 200.456 30.4051C198.956 30.1051 197.056 30.8051 197.256 41.6051C197.256 41.6051 196.756 26.2051 192.656 27.1051C191.856 27.3051 191.356 28.0051 191.156 28.8051C190.656 30.4051 190.556 37.2051 191.156 42.0051C191.156 42.0051 189.656 32.9051 188.056 30.1051C186.456 27.3051 183.656 27.0051 183.856 32.9051C183.856 34.4051 184.056 35.9051 184.356 37.5051L185.456 44.3051C185.456 44.4051 185.356 44.4051 185.356 44.4051C184.456 43.2051 180.556 38.0051 177.956 40.0051C176.256 41.4051 179.256 54.4051 187.056 56.4051Z" fill="white"/>
<path d="M202.956 53.6052C204.656 50.9052 205.956 44.9052 202.356 32.1052C202.056 31.2052 201.356 30.5052 200.556 30.3052C200.156 30.2052 199.556 30.1052 198.956 30.6052C197.956 31.4052 197.356 33.5052 197.156 37.1052C196.756 33.4052 195.956 28.7052 194.156 27.3052C193.656 26.9052 193.256 26.8052 192.656 26.9052C191.856 27.1052 191.256 27.7052 190.956 28.7052C190.556 29.9052 190.456 34.0052 190.656 38.0052C190.056 35.2052 189.156 31.6052 188.256 30.0052C187.356 28.5052 186.256 27.8052 185.356 28.0052C184.656 28.2052 183.556 29.1052 183.756 32.9052C183.756 34.4052 183.956 35.9052 184.256 37.5052L185.356 43.8052C184.356 42.4052 181.956 39.7052 179.856 39.4052C179.156 39.3052 178.556 39.5052 178.056 39.9052C177.256 40.5052 177.456 42.7052 177.856 44.6052C178.656 48.4052 181.556 55.2052 187.056 56.6052C186.656 57.2052 185.756 59.0052 186.556 60.4052C187.156 61.4052 188.656 61.9052 190.856 61.9052C191.256 61.9052 191.756 61.9052 192.256 61.8052C198.956 61.3052 202.056 60.4052 202.456 58.9052C202.756 58.0052 202.156 57.0052 200.656 55.8052C201.056 55.6052 202.056 55.0052 202.956 53.6052ZM191.356 28.9052C191.656 28.1052 192.156 27.5052 192.756 27.3052C193.156 27.2052 193.556 27.3052 193.856 27.6052C196.456 29.6052 196.956 40.3052 197.056 41.5052L191.356 41.9052C190.756 37.2052 190.856 30.5052 191.356 28.9052ZM200.056 55.5052C199.556 55.6052 198.956 55.7052 198.456 55.7052C197.956 55.8052 197.456 55.8052 196.956 55.8052C196.856 55.8052 196.756 55.9052 196.756 56.0052C196.756 56.1052 196.856 56.2052 196.956 56.2052C197.456 56.2052 197.956 56.2052 198.456 56.1052C198.956 56.0052 199.456 56.0052 200.056 55.9052C201.556 57.1052 202.156 58.0052 201.956 58.7052C201.456 60.4052 196.056 61.0052 192.056 61.3052C189.156 61.5052 187.356 61.1052 186.756 60.0052C186.056 58.8052 186.956 57.1052 187.356 56.6052C187.956 56.7052 188.756 56.8052 189.456 56.8052C189.556 56.8052 189.556 56.8052 189.656 56.8052C190.956 56.8052 191.856 56.5052 192.256 56.3052C192.356 56.3052 192.456 56.1052 192.356 56.0052C192.356 55.9052 192.156 55.8052 192.056 55.9052C191.656 56.0052 190.756 56.3052 189.556 56.3052C188.656 56.3052 187.556 56.1052 187.156 56.0052C187.156 56.0052 187.156 56.0052 187.056 56.0052C184.556 55.4052 179.756 52.1052 178.056 44.3052C177.556 41.9052 177.756 40.4052 178.156 40.0052C178.556 39.7052 179.056 39.5052 179.656 39.6052C181.956 39.9052 184.756 43.6052 185.256 44.3052C185.356 44.4052 185.456 44.4052 185.556 44.4052C185.956 44.4052 187.456 44.3052 188.956 44.8052C191.356 45.6052 192.656 47.3052 193.056 50.0052C193.056 50.1052 193.156 50.2052 193.256 50.2052C193.356 50.2052 193.456 50.1052 193.456 50.0052C192.756 44.1052 187.056 44.0052 185.756 44.1052L184.656 37.4052C184.356 35.8052 184.256 34.3052 184.156 32.9052C184.056 30.3052 184.556 28.7052 185.556 28.4052C186.256 28.2052 187.256 28.9052 188.056 30.2052C189.556 32.7052 190.956 40.8052 191.056 41.9052L188.456 42.1052C188.356 42.1052 188.256 42.2052 188.256 42.3052C188.256 42.4052 188.356 42.5052 188.456 42.5052L200.156 41.7052C200.256 41.7052 200.356 41.6052 200.356 41.5052C200.356 41.4052 200.256 41.3052 200.156 41.3052L197.556 41.5052C197.456 35.4052 198.056 31.8052 199.256 30.8052C199.556 30.5052 199.956 30.4052 200.556 30.6052C201.256 30.8052 201.856 31.3052 202.056 32.1052C205.556 44.7052 204.356 50.6052 202.756 53.3052C201.456 55.2052 200.056 55.5052 200.056 55.5052Z" fill="black"/>
<path d="M64.956 121.105C58.456 124.405 51.856 127.305 45.056 129.805C44.956 129.805 44.856 129.905 44.656 129.905C36.256 132.905 16.756 141.005 14.156 126.605C13.056 120.705 15.256 114.205 16.656 108.605C18.156 102.905 19.956 97.3052 22.056 91.8052C23.056 95.9052 24.356 99.9052 26.056 103.705C25.056 106.805 24.256 109.905 23.456 113.005C22.756 116.105 21.856 119.305 21.556 122.405C21.356 124.305 21.356 126.705 23.656 127.205C26.356 127.705 29.256 126.605 31.756 125.905C34.156 125.205 36.556 124.505 38.956 123.705C39.956 123.405 40.956 123.005 41.856 122.705C48.456 120.405 54.756 117.605 60.956 114.505C65.456 112.305 69.356 118.805 64.956 121.105Z" fill="black"/>
<path d="M84.356 122.705C83.356 123.305 82.256 123.805 81.156 124.305C79.556 124.905 77.856 125.405 76.256 125.905C76.056 126.005 75.856 126.005 75.656 126.105C71.256 127.205 68.556 125.305 67.856 124.705C67.756 124.605 67.556 124.605 67.356 124.705C66.256 125.405 65.056 126.205 63.656 125.705C62.656 125.305 61.856 124.605 61.056 123.805C58.556 121.305 54.456 112.405 60.956 111.805L61.056 111.705C61.056 111.605 61.156 111.505 61.156 111.405C64.456 100.405 72.656 103.305 74.056 103.805C74.156 103.805 74.356 103.805 74.456 103.805C75.956 102.805 86.656 95.5051 89.856 98.9051C94.056 103.505 82.656 108.005 79.856 109.305C81.556 108.505 83.356 108.805 84.356 110.205C85.756 112.005 85.356 114.505 83.356 115.805C83.156 115.905 82.856 116.105 82.756 116.105C83.556 116.005 84.756 116.405 85.356 116.905C86.456 117.705 87.056 119.105 86.656 120.405C86.256 121.305 85.356 122.105 84.356 122.705Z" fill="white"/>
<path d="M89.956 98.6052C86.956 95.4052 78.056 100.905 74.356 103.405C74.356 103.405 74.256 103.405 74.156 103.405C73.256 103.005 69.856 101.805 66.556 103.405C63.956 104.605 62.156 107.205 60.956 111.105C60.956 111.105 60.956 111.205 60.956 111.305V111.405C59.256 111.605 58.056 112.305 57.556 113.605C56.356 116.705 59.156 121.905 60.956 123.705C61.656 124.405 62.456 125.205 63.556 125.605C65.056 126.205 66.256 125.405 67.356 124.605L67.456 124.505C67.556 124.505 67.656 124.505 67.656 124.505C68.256 125.005 70.056 126.305 72.956 126.305C73.756 126.305 74.656 126.205 75.656 125.905C75.856 125.905 75.956 125.805 76.156 125.805H76.256C76.756 125.705 77.156 125.505 77.656 125.405C78.856 125.105 80.056 124.705 81.256 124.205C82.556 123.705 83.656 123.205 84.556 122.605C85.756 121.805 86.556 120.905 86.856 120.005C87.256 118.605 86.756 117.105 85.456 116.305C84.956 116.005 84.156 115.605 83.456 115.505C84.456 114.905 85.156 113.905 85.356 112.805C85.556 111.705 85.256 110.505 84.556 109.605C83.856 108.705 82.856 108.205 81.756 108.205C84.956 106.805 90.256 104.105 90.856 101.205C91.056 100.405 90.756 99.5052 89.956 98.6052ZM90.456 101.305C89.756 104.405 83.256 107.305 80.456 108.505C80.156 108.605 79.956 108.705 79.656 108.805L77.256 109.905C77.156 109.905 77.156 110.105 77.156 110.205C77.156 110.305 77.256 110.305 77.356 110.305H77.456L80.156 109.105C81.756 108.505 83.256 108.805 84.156 110.005C84.756 110.805 85.056 111.905 84.856 112.905C84.656 113.905 84.056 114.705 83.156 115.305C82.856 115.505 82.756 115.505 82.656 115.605L79.956 116.605C79.856 116.605 79.756 116.805 79.856 116.905C79.856 117.005 79.956 117.005 80.056 117.005C80.056 117.005 80.056 117.005 80.156 117.005L82.656 116.105C83.456 116.005 84.556 116.405 85.156 116.905C86.256 117.605 86.756 119.005 86.356 120.205C86.056 121.105 85.356 121.905 84.156 122.605C83.256 123.205 82.256 123.705 80.956 124.205C79.756 124.605 78.556 125.005 77.456 125.305C76.956 125.405 76.556 125.605 76.056 125.705H75.956C75.856 125.705 75.656 125.805 75.556 125.805C71.256 126.905 68.656 125.005 67.956 124.405C67.956 124.405 67.856 124.405 67.856 124.305C67.856 124.305 66.656 123.605 64.656 121.005C64.556 120.905 64.456 120.905 64.356 121.005C64.256 121.105 64.256 121.205 64.356 121.305C65.656 123.105 66.656 124.005 67.256 124.405H67.156C66.056 125.105 64.956 125.805 63.756 125.305C62.756 124.905 61.856 124.105 61.256 123.505C59.456 121.705 56.956 116.605 57.956 113.805C58.356 112.705 59.356 112.005 60.956 111.805C60.756 114.805 61.756 116.505 61.756 116.605C61.756 116.705 61.856 116.705 61.956 116.705H62.056C62.156 116.605 62.156 116.505 62.156 116.405C62.156 116.405 61.056 114.605 61.456 111.505V111.405C61.456 111.305 61.456 111.305 61.456 111.205C62.556 107.405 64.356 104.905 66.856 103.805C69.756 102.405 72.756 103.305 73.856 103.705L69.756 105.905C69.656 106.005 69.656 106.105 69.656 106.205C69.656 106.305 69.756 106.305 69.856 106.305H69.956L74.456 103.905L74.556 103.805H74.656C77.256 102.105 79.556 100.705 81.756 99.7052C84.556 98.4052 88.156 97.2052 89.756 98.9052C90.356 99.7052 90.656 100.505 90.456 101.305Z" fill="black"/>
</svg>
