<svg width="208" height="208" viewBox="0 0 208 208" fill="none" xmlns="http://www.w3.org/2000/svg">
<path d="M104.058 207.604C152.052 207.604 190.958 192.516 190.958 173.904C190.958 155.292 152.052 140.204 104.058 140.204C56.0647 140.204 17.1582 155.292 17.1582 173.904C17.1582 192.516 56.0647 207.604 104.058 207.604Z" fill="#BB9FFF"/>
<path d="M104.058 207.803C80.858 207.803 58.958 204.303 42.558 197.903C26.058 191.503 16.958 183.003 16.958 173.903C16.958 164.803 26.058 156.303 42.558 149.903C58.958 143.503 80.858 140.003 104.058 140.003C127.258 140.003 149.158 143.503 165.558 149.903C182.058 156.303 191.158 164.803 191.158 173.903C191.158 183.003 182.058 191.503 165.558 197.903C149.058 204.303 127.258 207.803 104.058 207.803ZM104.058 140.403C56.258 140.403 17.358 155.403 17.358 173.903C17.358 192.403 56.258 207.403 104.058 207.403C151.858 207.403 190.758 192.403 190.758 173.903C190.658 155.403 151.858 140.403 104.058 140.403Z" fill="black"/>
<path d="M176.258 92.5032C176.158 93.7032 176.058 94.9032 175.958 96.1032C174.758 108.203 170.458 119.303 163.958 128.803C150.458 148.503 127.358 161.003 101.758 159.603C81.9583 158.603 64.4583 149.503 52.3583 135.803C43.5583 125.803 37.4583 113.303 35.3583 99.7032C34.6583 95.0032 34.3583 90.1032 34.6583 85.2032C36.4583 50.3032 63.1583 22.6032 96.6583 18.5032C97.9583 18.3032 99.3583 18.2032 100.758 18.1032C103.558 17.9032 106.358 17.9032 109.158 18.0032C124.158 18.8032 137.858 24.2032 148.858 32.7032C156.658 38.7032 163.058 46.3032 167.758 55.0032C173.858 66.1032 176.958 78.9032 176.258 92.5032Z" fill="#FFBE32"/>
<path d="M105.558 159.903C104.358 159.903 103.158 159.903 101.858 159.803C82.6582 158.803 65.0582 150.303 52.2582 135.903C43.1582 125.603 37.2582 113.103 35.2582 99.7034C34.5582 94.9034 34.2582 90.0034 34.5582 85.1034C35.4582 68.3034 42.2582 52.3034 53.7582 40.1034C65.1582 28.0034 80.3582 20.2034 96.7582 18.2034C98.1582 18.0034 99.4582 17.9034 100.858 17.8034C103.658 17.6034 106.458 17.6034 109.258 17.7034C123.858 18.5034 137.658 23.6034 149.158 32.5034C157.058 38.6034 163.358 46.1034 168.158 54.8034C174.358 66.3034 177.358 79.3034 176.658 92.4034C176.558 93.6034 176.458 94.9034 176.358 96.0034C175.158 107.703 170.958 119.103 164.358 128.803C157.558 138.703 148.358 146.803 137.758 152.203C127.658 157.303 116.658 159.903 105.558 159.903ZM105.458 18.1034C103.858 18.1034 102.358 18.2034 100.758 18.3034C99.4582 18.4034 98.0582 18.5034 96.7582 18.7034C80.4582 20.7034 65.2582 28.4034 53.9582 40.5034C42.5582 52.6034 35.7582 68.5034 34.9582 85.2034C34.7582 90.0034 34.9582 94.9034 35.6582 99.7034C37.7582 113.103 43.5582 125.503 52.5582 135.703C65.2582 150.003 82.7582 158.503 101.858 159.503C114.158 160.103 126.458 157.503 137.358 152.003C147.958 146.603 157.158 138.603 163.858 128.803C170.458 119.103 174.558 107.903 175.758 96.2034C175.858 95.0034 175.958 93.8034 176.058 92.6034C176.758 79.6034 173.758 66.6034 167.558 55.2034C162.858 46.5034 156.458 39.1034 148.658 33.0034C137.258 24.1034 123.558 19.0034 109.058 18.3034C107.958 18.1034 106.658 18.1034 105.458 18.1034Z" fill="black"/>
<path d="M43.5581 86.6034C43.4581 86.3034 43.3581 86.1034 43.1581 85.9034L42.6581 85.4034C42.5581 85.3034 42.3581 85.2034 42.1581 85.1034C41.9581 85.0034 41.7581 85.0034 41.5581 85.0034C41.3581 85.0034 41.1581 85.0034 40.9581 85.1034C40.7581 85.2034 40.6581 85.3034 40.4581 85.4034C40.3581 85.5034 40.2581 85.6034 40.2581 85.7034C40.1581 85.9034 40.0581 86.2034 40.0581 86.5034C40.0581 86.6034 40.0581 86.8034 40.1581 86.9034C40.2581 87.2034 40.3581 87.4034 40.5581 87.6034C40.7581 87.8034 40.9581 87.9034 41.0581 88.1034C41.1581 88.2034 41.3581 88.3034 41.5581 88.4034C41.7581 88.5034 41.9581 88.5034 42.1581 88.5034C42.3581 88.5034 42.5581 88.5034 42.7581 88.4034C42.9581 88.3034 43.0581 88.2034 43.2581 88.1034L43.4581 87.8034C43.5581 87.6034 43.6581 87.3034 43.6581 87.0034C43.6581 86.8034 43.5581 86.7034 43.5581 86.6034Z" fill="white"/>
<path d="M135.058 145.503C134.958 145.203 134.858 145.003 134.658 144.803C134.458 144.603 134.258 144.503 134.158 144.303C134.058 144.203 133.858 144.103 133.658 144.003C133.458 143.903 133.258 143.903 133.058 143.903C132.858 143.903 132.658 143.903 132.458 144.003C132.258 144.103 132.158 144.203 131.958 144.303L131.758 144.603C131.658 144.803 131.558 145.103 131.558 145.403C131.558 145.503 131.558 145.703 131.658 145.803C131.758 146.103 131.858 146.303 132.058 146.503L132.558 147.003C132.658 147.103 132.858 147.203 133.058 147.303C133.258 147.403 133.458 147.403 133.658 147.403C133.858 147.403 134.058 147.403 134.258 147.303C134.458 147.203 134.558 147.103 134.758 147.003L134.958 146.703C135.058 146.503 135.158 146.203 135.158 145.903C135.158 145.703 135.158 145.603 135.058 145.503Z" fill="white"/>
<path d="M124.958 141.903C124.858 141.603 124.758 141.403 124.558 141.203C124.358 141.003 124.158 140.903 124.058 140.703C123.958 140.603 123.758 140.503 123.558 140.403C123.358 140.303 123.158 140.303 122.958 140.303C122.758 140.303 122.558 140.303 122.358 140.403C122.158 140.503 122.058 140.603 121.858 140.703L121.658 141.003C121.558 141.203 121.458 141.503 121.458 141.803C121.458 141.903 121.458 142.103 121.558 142.203C121.658 142.503 121.758 142.703 121.958 142.903L122.458 143.403C122.558 143.503 122.758 143.603 122.958 143.703C123.158 143.803 123.358 143.803 123.558 143.803C123.758 143.803 123.958 143.803 124.158 143.703C124.358 143.603 124.458 143.503 124.658 143.403L124.858 143.103C124.958 142.903 125.058 142.603 125.058 142.303C124.958 142.203 124.958 142.003 124.958 141.903Z" fill="white"/>
<path d="M162.558 121.903C162.458 121.503 162.258 121.103 162.058 120.603C161.958 120.303 161.758 120.003 161.558 119.703C161.358 119.403 160.958 119.103 160.658 119.003C160.458 118.903 160.258 118.903 160.058 119.003C159.858 119.003 159.658 119.103 159.458 119.203C159.158 119.403 158.858 119.703 158.758 120.103C158.658 120.503 158.758 120.903 158.958 121.303C159.158 121.503 159.258 121.803 159.358 122.003C159.458 122.203 159.558 122.503 159.658 122.703C159.758 122.903 159.758 123.103 159.958 123.203C160.058 123.403 160.258 123.503 160.358 123.603C160.558 123.703 160.758 123.803 160.958 123.803C161.158 123.803 161.358 123.803 161.558 123.803C161.958 123.703 162.258 123.403 162.458 123.103C162.558 122.703 162.658 122.303 162.558 121.903Z" fill="white"/>
<path d="M100.858 36.2032C100.858 36.1032 100.758 36.0032 100.658 36.0032C100.558 35.8032 100.358 35.7032 100.258 35.5032L100.158 35.4032C100.058 35.3032 99.8581 35.2032 99.7581 35.1032C99.6581 35.0032 99.5581 35.0032 99.4581 35.0032C99.2581 34.9032 99.0581 34.8032 98.8581 34.8032C98.6581 34.8032 98.4581 34.8032 98.2581 34.8032C98.0581 34.9032 97.8581 34.9032 97.7581 35.1032C97.5581 35.2032 97.4581 35.4032 97.3581 35.5032C97.3581 35.6032 97.2581 35.7032 97.2581 35.9032C97.1581 36.2032 97.1581 36.4032 97.2581 36.7032C97.3581 36.8032 97.3581 36.9032 97.4581 37.1032C97.5581 37.3032 97.7581 37.5032 98.0581 37.6032C98.0581 37.6032 98.1581 37.6032 98.1581 37.7032C98.1581 37.7032 98.1581 37.7032 98.2581 37.8032C98.2581 37.8032 98.2581 37.9032 98.3581 37.9032C98.4581 38.1032 98.5581 38.2032 98.7581 38.3032C98.9581 38.4032 99.0581 38.5032 99.2581 38.6032C99.4581 38.7032 99.6581 38.7032 99.8581 38.6032C100.058 38.6032 100.258 38.5032 100.458 38.4032L100.758 38.2032C100.958 38.0032 101.058 37.8032 101.158 37.5032C101.158 37.4032 101.158 37.2032 101.158 37.1032C101.058 36.6032 101.058 36.4032 100.858 36.2032Z" fill="white"/>
<path d="M97.8584 27.5039C97.9584 28.1039 99.2584 28.4039 100.758 28.3039C102.258 28.1039 103.458 27.5039 103.458 26.9039C103.358 26.3039 102.058 26.0039 100.558 26.1039C98.9584 26.3039 97.7584 26.9039 97.8584 27.5039Z" fill="black"/>
<path d="M99.9582 28.6037C99.4582 28.6037 99.0582 28.6037 98.7582 28.5037C98.1582 28.3037 97.7582 28.0037 97.6582 27.7037C97.6582 27.3037 97.8582 26.9037 98.4582 26.6037C98.9582 26.3037 99.6582 26.1037 100.458 26.0037C101.258 25.9037 101.958 25.9037 102.558 26.1037C103.158 26.3037 103.558 26.6037 103.658 26.9037C103.758 27.7037 102.258 28.4037 100.858 28.6037C100.458 28.5037 100.158 28.6037 99.9582 28.6037ZM101.358 26.3037C101.058 26.3037 100.858 26.3037 100.558 26.3037C99.8582 26.4037 99.1582 26.6037 98.6582 26.8037C98.2582 27.0037 98.0582 27.3037 98.0582 27.5037C98.0582 27.7037 98.3582 27.9037 98.8582 28.0037C99.3582 28.1037 100.058 28.2037 100.758 28.1037C102.258 27.9037 103.258 27.3037 103.258 26.9037C103.258 26.7037 102.958 26.5037 102.458 26.4037C102.158 26.3037 101.758 26.3037 101.358 26.3037Z" fill="black"/>
<path d="M93.6581 10.5034C92.5581 9.60342 91.5581 8.00342 90.5581 7.00342C89.4581 5.90342 88.2581 4.90342 86.9581 4.00342C84.5581 2.30342 81.8581 1.10342 79.1581 0.703418C76.5581 0.303418 74.4581 1.30342 71.9581 2.20342C65.5581 4.50342 57.0581 0.703418 56.0581 0.503418C56.7581 2.20342 57.5581 3.80342 58.1581 5.20342C60.3581 9.90342 63.1581 14.1034 66.7581 16.8034C69.5581 18.8034 72.6581 19.7034 75.6581 18.2034C78.3581 16.7034 90.0581 10.4034 93.6581 10.5034Z" fill="#00A45C"/>
<path d="M72.4582 19.1035C70.5582 19.1035 68.5582 18.4035 66.6582 16.9035C63.3582 14.5035 60.4582 10.6035 57.9582 5.20352C57.3582 3.80352 56.5582 2.20352 55.8582 0.503516L55.6582 0.103516L56.0582 0.203516C56.2582 0.203516 56.4582 0.303516 56.8582 0.503516C59.4582 1.40352 66.4582 3.90352 71.8582 2.00352C72.1582 1.90352 72.3582 1.80352 72.6582 1.70352C74.7582 0.903516 76.7582 0.203516 79.1582 0.503516C81.7582 0.903516 84.4582 2.00352 87.0582 3.80352C88.2582 4.70352 89.4582 5.70352 90.6582 6.80352C91.1582 7.30352 91.6582 7.90351 92.0582 8.40351C92.6582 9.10351 93.1582 9.80352 93.7582 10.3035L94.1582 10.7035H93.5582C90.4582 10.6035 80.5582 15.7035 76.8582 17.7035C76.3582 17.9035 75.9582 18.1035 75.7582 18.3035C74.7582 18.8035 73.6582 19.1035 72.4582 19.1035ZM56.3582 0.803516C57.0582 2.40352 57.7582 3.80352 58.3582 5.10352C60.8582 10.4035 63.7582 14.2035 66.9582 16.6035C69.9582 18.8035 73.0582 19.3035 75.6582 17.9035C75.9582 17.8035 76.3582 17.6035 76.7582 17.3035C80.6582 15.3035 89.5582 10.6035 93.1582 10.3035C92.6582 9.80352 92.2582 9.20352 91.7582 8.70352C91.2582 8.10352 90.8582 7.60352 90.3582 7.10352C89.2582 6.00352 88.0582 5.00352 86.8582 4.10352C84.3582 2.30352 81.7582 1.20352 79.1582 0.803516C76.9582 0.503516 74.9582 1.20352 72.8582 2.00352C72.5582 2.10352 72.3582 2.20352 72.0582 2.30352C66.4582 4.30352 59.4582 1.80352 56.7582 0.803516C56.6582 0.803516 56.5582 0.803516 56.3582 0.803516Z" fill="black"/>
<path d="M93.658 10.7033C93.558 10.7033 93.558 10.7033 93.658 10.7033C93.458 10.6033 85.458 6.30333 65.158 6.90333C65.058 6.90333 64.958 6.80333 64.958 6.70333C64.958 6.60333 65.058 6.50333 65.158 6.50333C75.858 6.20333 82.958 7.20333 87.158 8.20333C91.658 9.20333 93.658 10.3033 93.758 10.4033C93.858 10.5033 93.858 10.6033 93.858 10.7033C93.758 10.7033 93.658 10.7033 93.658 10.7033Z" fill="black"/>
<path d="M93.258 1.20361L102.858 27.1036L98.858 27.6036L90.958 1.60361L93.258 1.20361Z" fill="#00A45C"/>
<path d="M98.7582 27.8034L98.6582 27.6034L90.6582 1.50342L93.3582 1.00342L103.058 27.3034L98.7582 27.8034ZM91.1582 1.80342L99.0582 27.4034L102.558 27.0034L93.1582 1.40342L91.1582 1.80342Z" fill="black"/>
<path d="M100.758 82.7036C100.858 85.7036 103.358 88.1036 106.458 88.0036C109.458 87.9036 111.858 85.4036 111.758 82.3036C111.658 79.2036 109.158 76.9036 106.058 77.0036C103.058 77.1036 100.658 79.6036 100.758 82.7036Z" fill="#FF7300"/>
<path d="M106.258 88.2037C103.158 88.2037 100.658 85.8037 100.558 82.7037C100.458 79.6037 102.958 76.9037 106.058 76.8037C109.158 76.7037 111.858 79.2037 111.958 82.3037C112.058 85.4037 109.558 88.1037 106.458 88.2037C106.358 88.2037 106.358 88.2037 106.258 88.2037ZM100.958 82.7037C101.058 85.6037 103.558 87.9037 106.458 87.8037C109.358 87.7037 111.658 85.3037 111.558 82.3037C111.458 79.4037 108.958 77.1037 106.058 77.2037C104.658 77.2037 103.358 77.8037 102.358 78.9037C101.458 79.9037 100.958 81.3037 100.958 82.7037Z" fill="black"/>
<path d="M145.858 49.4036C145.758 49.4036 145.658 49.3036 145.658 49.3036C145.658 49.2036 145.658 49.1036 145.758 49.0036C151.758 47.1036 151.458 41.0036 151.458 40.9036C151.458 40.8036 151.558 40.7036 151.658 40.7036C151.758 40.7036 151.858 40.8036 151.858 40.9036C151.958 40.9036 152.158 47.4036 145.858 49.4036Z" fill="black"/>
<path d="M148.958 55.9034C148.858 55.9034 148.758 55.8034 148.758 55.7034C148.758 55.6034 148.858 55.5034 148.958 55.5034C156.058 55.3034 157.758 48.8034 157.758 48.7034C157.758 48.6034 157.858 48.5034 157.958 48.6034C158.058 48.6034 158.158 48.7034 158.058 48.8034C158.158 48.9034 156.358 55.7034 148.958 55.9034Z" fill="black"/>
<path d="M150.258 64.6034C150.158 64.6034 150.058 64.5034 150.058 64.4034C150.058 64.3034 150.158 64.2034 150.258 64.2034C153.958 64.1034 156.258 62.4034 157.458 61.1034C158.758 59.6034 159.258 58.2034 159.258 58.2034C159.258 58.1034 159.358 58.0034 159.558 58.1034C159.658 58.1034 159.758 58.2034 159.658 58.4034C159.658 58.4034 157.658 64.3034 150.258 64.6034Z" fill="black"/>
<path d="M115.958 82.9037C116.558 82.7037 117.158 82.5037 117.758 82.3037C122.358 80.9037 127.958 80.3037 133.958 80.5037C134.958 80.5037 135.958 80.6037 136.958 80.7037C141.058 81.1037 144.958 81.9037 148.258 83.0037C148.958 83.2037 149.659 83.5037 150.359 83.8037C151.959 79.1037 152.759 73.7037 152.859 67.9037C152.859 65.7037 152.759 63.5037 152.559 61.4037C151.959 55.8037 150.458 50.7037 148.458 46.5037C144.958 39.3037 139.658 34.8037 133.658 34.8037C126.058 34.8037 119.459 42.2037 116.159 52.9037C114.859 57.4037 114.058 62.5037 113.958 67.8037C113.958 73.3037 114.658 78.4037 115.958 82.9037Z" fill="white"/>
<path d="M150.458 84.1036L150.258 84.0036C149.558 83.7036 148.858 83.5036 148.158 83.2036C144.758 82.0036 140.958 81.3036 136.858 80.9036C135.958 80.8036 134.958 80.7036 133.858 80.7036C128.058 80.5036 122.458 81.1036 117.758 82.5036C117.158 82.7036 116.558 82.9036 115.958 83.1036L115.758 83.2036V83.0036C114.458 78.4036 113.758 73.2036 113.758 68.0036C113.758 62.8036 114.558 57.8036 115.958 53.0036C115.958 52.9036 115.958 52.9036 115.958 52.9036C119.358 41.7036 126.158 34.7036 133.558 34.7036C139.358 34.7036 144.758 39.0036 148.458 46.6036C150.558 50.9036 151.958 56.1036 152.558 61.6036C152.758 63.7036 152.958 65.9036 152.858 68.1036C152.858 73.7036 151.958 79.3036 150.358 84.1036H150.458ZM131.358 80.3036C132.158 80.3036 133.058 80.3036 133.858 80.4036C134.958 80.4036 135.958 80.5036 136.858 80.6036C140.958 81.0036 144.858 81.8036 148.258 82.9036C148.958 83.1036 149.558 83.3036 150.158 83.6036C151.658 78.9036 152.558 73.5036 152.558 68.0036C152.558 65.8036 152.458 63.6036 152.258 61.5036C151.658 56.1036 150.258 50.9036 148.158 46.7036C144.558 39.3036 139.258 35.1036 133.558 35.1036C126.258 35.1036 119.658 42.0036 116.258 53.1036V53.2036C114.858 57.9036 114.158 62.9036 114.158 68.0036C114.158 73.1036 114.758 78.2036 116.058 82.7036C116.558 82.5036 117.058 82.4036 117.658 82.2036C121.758 80.9036 126.458 80.3036 131.358 80.3036Z" fill="black"/>
<path d="M117.758 82.4039C122.358 81.0039 127.958 80.4039 133.958 80.6039C134.958 80.6039 135.958 80.7039 136.958 80.8039C141.058 81.2039 144.958 82.0039 148.258 83.1039C148.858 80.9039 149.258 78.6039 149.258 76.2039C149.658 64.1039 142.758 54.1039 133.958 53.9039C125.058 53.7039 117.558 63.5039 117.258 75.6039C117.058 78.0039 117.258 80.2039 117.758 82.4039Z" fill="black"/>
<path d="M148.359 83.4037L148.158 83.3037C144.758 82.1037 140.959 81.4037 136.859 81.0037C135.959 80.9037 134.959 80.8037 133.859 80.8037C128.059 80.6037 122.458 81.2037 117.758 82.6037L117.559 82.7037V82.5037C117.159 80.3037 116.958 78.0037 116.958 75.7037C117.358 63.6037 124.858 53.8037 133.658 53.8037C133.758 53.8037 133.759 53.8037 133.859 53.8037C137.359 53.9037 140.659 55.4037 143.359 58.3037C147.359 62.5037 149.658 69.3037 149.458 76.3037C149.358 78.7037 149.058 81.0037 148.458 83.2037L148.359 83.4037ZM131.359 80.3037C132.159 80.3037 133.059 80.3037 133.859 80.4037C134.959 80.4037 135.959 80.5037 136.859 80.6037C140.859 81.0037 144.659 81.7037 148.059 82.9037C148.659 80.8037 148.959 78.5037 149.059 76.3037C149.259 69.4037 147.059 62.7037 143.059 58.6037C140.459 55.8037 137.259 54.3037 133.859 54.3037C125.159 54.2037 117.658 63.8037 117.358 75.8037C117.258 78.0037 117.458 80.2037 117.858 82.3037C121.958 80.9037 126.559 80.3037 131.359 80.3037Z" fill="black"/>
<path d="M125.958 68.9037C131.858 69.7037 132.658 70.5037 133.758 77.5037C134.358 70.4037 134.959 69.6037 140.859 68.4037C134.959 67.6037 134.159 66.8037 133.059 59.8037C132.559 66.8037 131.858 67.7037 125.958 68.9037Z" fill="white"/>
<path d="M63.158 49.4035C56.858 47.3035 57.258 40.8035 57.258 40.8035C57.258 40.7035 57.358 40.6035 57.458 40.6035C57.558 40.6035 57.658 40.7035 57.658 40.8035C57.658 41.1035 57.258 47.0035 63.158 49.0035C63.258 49.0035 63.358 49.2035 63.258 49.3035C63.358 49.3035 63.258 49.4035 63.158 49.4035Z" fill="black"/>
<path d="M60.9582 55.6033C53.5582 55.3033 51.1582 48.2033 51.1582 48.2033C51.1582 48.1033 51.1582 48.0033 51.2582 47.9033C51.3582 47.9033 51.4582 47.9033 51.5582 48.0033C51.5582 48.1033 53.8582 54.8033 61.0582 55.1033C61.1582 55.1033 61.2582 55.2033 61.2582 55.3033C61.1582 55.5033 61.0582 55.6033 60.9582 55.6033Z" fill="black"/>
<path d="M59.0582 64.4037C51.6582 64.0037 49.1582 58.2037 49.1582 58.1037C49.1582 58.0037 49.1582 57.9037 49.2582 57.8037C49.3582 57.8037 49.4582 57.8037 49.5582 57.9037C49.5582 58.0037 51.9582 63.5037 59.0582 63.9037C59.1582 63.9037 59.2582 64.0037 59.2582 64.1037C59.2582 64.4037 59.1582 64.4037 59.0582 64.4037Z" fill="black"/>
<path d="M57.8579 69.2034C58.0579 74.7034 58.9579 79.8034 60.4579 84.3034C60.4579 84.4034 60.4579 84.4034 60.5579 84.5034V84.6034C60.5579 84.8034 60.6579 84.9034 60.6579 85.1034C61.3579 84.8034 62.0579 84.5034 62.7579 84.3034H62.8579C63.2579 84.1034 63.6579 84.0034 64.1579 83.9034C67.9579 82.6034 72.3579 81.8034 77.0579 81.4034C78.9579 81.3034 80.7579 81.2034 82.5579 81.3034C82.7579 81.3034 83.0579 81.3034 83.2579 81.3034C86.9579 81.4034 90.4579 82.0034 93.5579 82.8034C94.0579 82.9034 94.5579 83.1034 95.0579 83.3034C96.2579 78.8034 96.8579 73.7034 96.6579 68.3034C96.0579 50.0034 86.9579 35.5034 76.2579 35.8034C70.3579 36.0034 65.1579 40.7034 61.7579 48.0034C61.2579 49.1034 60.8579 50.3034 60.3579 51.5034C60.3579 51.6034 60.2579 51.7034 60.2579 51.9034C60.1579 52.1034 60.1579 52.2034 60.0579 52.4034C59.9579 52.6034 59.9579 52.8034 59.8579 53.1034C59.7579 53.5034 59.6579 53.8034 59.5579 54.2034C59.4579 54.7034 59.2579 55.2034 59.1579 55.7034C59.0579 56.2034 58.9579 56.7034 58.8579 57.2034C58.5579 58.6034 58.3579 60.0034 58.1579 61.5034C58.1579 62.0034 58.0579 62.5034 58.0579 63.0034V63.1034C57.9579 63.8034 57.9579 64.5034 57.9579 65.2034C57.9579 65.7034 57.9579 66.2034 57.9579 66.7034C57.9579 67.1034 57.9579 67.4034 57.9579 67.8034C57.9579 67.9034 57.9579 68.0034 57.9579 68.1034C57.8579 68.1034 57.8579 68.6034 57.8579 69.2034Z" fill="white"/>
<path d="M60.5581 85.3036L60.4581 85.1036C60.3581 84.9036 60.3581 84.8036 60.2581 84.6036V84.5036V84.4036C58.6581 79.7036 57.7581 74.5036 57.5581 69.2036C57.5581 68.7036 57.5581 68.2036 57.5581 67.6036C57.5581 67.5036 57.5581 67.5036 57.5581 67.5036C57.5581 67.4036 57.5581 67.4036 57.5581 67.3036C57.5581 67.1036 57.5581 67.0036 57.5581 66.8036C57.5581 66.6036 57.5581 66.4036 57.5581 66.2036C57.5581 65.7036 57.5581 65.2036 57.5581 64.7036C57.5581 64.1036 57.6581 63.4036 57.6581 62.7036V62.6036C57.6581 62.3036 57.7581 62.1036 57.7581 61.8036C57.7581 61.6036 57.7581 61.4036 57.8581 61.1036C58.0581 59.6036 58.2581 58.1036 58.5581 56.8036C58.6581 56.3036 58.7581 55.9036 58.8581 55.4036V55.2036C58.9581 54.7036 59.0581 54.2036 59.2581 53.7036C59.3581 53.4036 59.4581 53.0036 59.5581 52.6036C59.5581 52.4036 59.6581 52.3036 59.7581 52.1036L59.8581 51.9036C59.8581 51.8036 59.9581 51.7036 59.9581 51.7036C59.9581 51.6036 60.0581 51.5036 60.0581 51.4036C60.0581 51.3036 60.0581 51.2036 60.1581 51.1036V51.0036C60.5581 49.7036 61.0581 48.5036 61.5581 47.5036L61.6581 47.4036C65.1581 39.8036 70.4581 35.4036 76.2581 35.2036C76.3581 35.2036 76.4581 35.2036 76.6581 35.2036C87.3581 35.2036 96.3581 49.7036 96.9581 67.9036C97.1581 73.1036 96.5581 78.3036 95.3581 83.0036L95.2581 83.2036L95.0581 83.1036C94.5581 82.9036 94.0581 82.8036 93.5581 82.6036C90.4581 81.8036 87.0581 81.3036 83.3581 81.1036C83.1581 81.1036 82.8581 81.1036 82.6581 81.1036C80.8581 81.0036 78.9581 81.1036 77.1581 81.2036C72.6581 81.5036 68.1581 82.4036 64.3581 83.7036C63.9581 83.8036 63.5581 84.0036 63.1581 84.1036H63.0581C62.3581 84.4036 61.6581 84.6036 60.9581 84.9036L60.5581 85.3036ZM58.2581 62.6036C58.1581 63.5036 58.1581 64.1036 58.1581 64.7036C58.1581 65.2036 58.1581 65.6036 58.1581 66.1036C58.1581 66.3036 58.1581 66.5036 58.1581 66.7036C58.1581 66.9036 58.1581 67.1036 58.1581 67.2036C58.1581 67.3036 58.1581 67.3036 58.1581 67.3036C58.1581 67.4036 58.1581 67.4036 58.1581 67.5036C58.1581 68.1036 58.1581 68.6036 58.1581 69.1036C58.3581 74.4036 59.1581 79.5036 60.7581 84.1036V84.2036V84.3036V84.4036C60.7581 84.5036 60.8581 84.6036 60.8581 84.7036C61.4581 84.4036 62.0581 84.2036 62.7581 84.0036C62.8581 84.0036 62.8581 84.0036 62.8581 83.9036C63.2581 83.7036 63.6581 83.6036 64.1581 83.5036C68.0581 82.2036 72.5581 81.4036 77.0581 81.0036C78.8581 80.9036 80.6581 80.8036 82.5581 80.9036C82.7581 80.9036 83.0581 80.9036 83.2581 80.9036C86.9581 81.0036 90.4581 81.5036 93.5581 82.4036C93.9581 82.5036 94.4581 82.7036 94.8581 82.8036C96.0581 78.2036 96.5581 73.1036 96.4581 68.0036C95.9581 50.1036 87.0581 35.7036 76.5581 35.7036C76.4581 35.7036 76.3581 35.7036 76.2581 35.7036C70.6581 35.9036 65.4581 40.2036 61.9581 47.7036L61.8581 47.8036C61.3581 48.8036 60.9581 50.0036 60.5581 51.2036V51.3036C60.5581 51.4036 60.4581 51.5036 60.4581 51.5036C60.4581 51.6036 60.3581 51.7036 60.3581 51.8036C60.3581 51.9036 60.2581 52.0036 60.2581 52.0036V52.2036C60.1581 52.4036 60.1581 52.5036 60.0581 52.7036C59.9581 53.1036 59.8581 53.4036 59.7581 53.8036C59.5581 54.3036 59.4581 54.8036 59.3581 55.3036V55.5036C59.2581 56.0036 59.1581 56.4036 59.0581 56.9036C58.7581 58.2036 58.5581 59.7036 58.3581 61.2036C58.3581 61.4036 58.3581 61.6036 58.2581 61.9036C58.2581 62.1036 58.2581 62.3036 58.2581 62.6036Z" fill="black"/>
<path d="M61.6583 78.5033C61.8583 80.5033 62.2583 82.4033 62.8583 84.2033H62.9583C63.3583 84.0033 63.7583 83.9034 64.2583 83.8034C68.0583 82.5034 72.4583 81.7034 77.1583 81.3034C79.0583 81.2034 80.8583 81.1033 82.6583 81.2033C82.8583 81.2033 83.1583 81.2033 83.3583 81.2033C87.0583 81.3033 90.5583 81.9033 93.6583 82.7033C93.9583 80.5033 93.9583 78.2034 93.7583 75.8034C92.5583 63.7034 84.3583 54.5033 75.5583 55.3033C66.5583 55.9033 60.4583 66.4033 61.6583 78.5033Z" fill="black"/>
<path d="M62.6582 84.5035L62.5582 84.2035C61.9582 82.4035 61.5582 80.4035 61.3582 78.5035C60.6582 71.5035 62.4582 64.6035 66.1582 60.1035C68.6582 57.1035 71.8582 55.3035 75.2582 55.0035C84.1582 54.2035 92.4582 63.5035 93.6582 75.7035C93.8582 78.0035 93.8582 80.4035 93.5582 82.6035V82.8036L93.3582 82.7035C90.2582 81.9035 86.8582 81.4035 83.1582 81.2035C82.9582 81.2035 82.6582 81.2035 82.4582 81.2035C80.6582 81.1035 78.7582 81.2036 76.9582 81.3036C72.4582 81.6035 67.9582 82.5036 64.1582 83.8036C63.7582 83.9036 63.3582 84.1035 62.9582 84.2035H62.8582L62.6582 84.5035ZM76.4582 55.3035C76.1582 55.3035 75.7582 55.3035 75.4582 55.3035C72.0582 55.6035 69.0582 57.3035 66.6582 60.2035C62.9582 64.6035 61.2582 71.4036 61.9582 78.3036C62.1582 80.2036 62.5582 82.0036 63.0582 83.8036C63.4582 83.7036 63.8582 83.5035 64.2582 83.4035C68.1582 82.1035 72.6582 81.3035 77.1582 80.9035C78.9582 80.8035 80.7582 80.7036 82.6582 80.8036C82.8582 80.8036 83.1582 80.8036 83.3582 80.8036C86.9582 80.9036 90.3582 81.4035 93.4582 82.2035C93.7582 80.0035 93.7582 77.8035 93.5582 75.6035C92.2582 64.2035 84.7582 55.3035 76.4582 55.3035Z" fill="black"/>
<path d="M69.7583 71.0038C75.6583 71.8038 76.4583 72.6038 77.5583 79.6038C78.1583 72.5038 78.7583 71.7038 84.6583 70.5038C78.7583 69.7038 77.9583 68.9038 76.8583 61.9038C76.2583 68.9038 75.5583 69.8038 69.7583 71.0038Z" fill="white"/>
<path d="M130.059 89.6036C129.459 91.4036 132.159 92.3036 132.759 90.6036C133.459 88.8036 130.659 87.9036 130.059 89.6036Z" fill="white"/>
<path d="M142.159 89.2037C141.559 91.0037 144.259 91.9037 144.859 90.2037C145.459 88.4037 142.759 87.4037 142.159 89.2037Z" fill="white"/>
<path d="M136.759 95.4039C136.159 97.2039 138.859 98.1039 139.459 96.4039C140.159 94.6039 137.359 93.7039 136.759 95.4039Z" fill="white"/>
<path d="M66.6584 89.5037C65.9584 91.2037 68.5584 92.4037 69.3584 90.7037C70.0584 88.9037 67.3584 87.7037 66.6584 89.5037Z" fill="white"/>
<path d="M78.6584 89.9037C77.9584 91.6037 80.5584 92.8037 81.3584 91.1037C82.0584 89.4037 79.4584 88.2037 78.6584 89.9037Z" fill="white"/>
<path d="M72.8586 95.8035C72.1586 97.5035 74.7586 98.7035 75.5586 97.0035C76.2586 95.2035 73.6586 94.0035 72.8586 95.8035Z" fill="white"/>
<path d="M105.058 105.803C109.158 104.803 113.358 104.303 117.558 104.403C121.258 104.403 128.258 103.103 125.158 97.3034C123.058 93.4034 117.758 92.0034 113.958 91.8034C107.358 91.3034 97.358 92.9034 92.358 98.0034C90.158 100.203 89.158 104.403 92.358 106.203C95.758 108.303 101.358 106.603 105.058 105.803Z" fill="#FC79FF"/>
<path d="M96.558 107.403C94.958 107.403 93.358 107.103 92.058 106.403C90.858 105.703 90.158 104.603 89.958 103.303C89.758 101.503 90.558 99.4034 92.058 97.9034C94.358 95.6034 97.958 93.7034 102.458 92.6034C106.158 91.7034 110.358 91.3034 113.958 91.6034C116.558 91.8034 122.858 92.7034 125.358 97.3034C126.258 99.0034 126.458 100.503 125.658 101.703C124.358 103.903 120.558 104.603 117.658 104.603C117.558 104.603 117.458 104.603 117.358 104.603C113.258 104.603 109.158 105.103 105.058 106.003C104.758 106.103 104.458 106.103 104.058 106.203C101.858 106.703 99.158 107.403 96.558 107.403ZM111.458 91.8034C104.758 91.8034 96.558 93.8034 92.358 98.1034C90.958 99.5034 90.158 101.503 90.358 103.203C90.558 104.403 91.158 105.403 92.258 106.003C95.358 107.903 100.358 106.703 103.958 105.803C104.258 105.703 104.658 105.603 104.958 105.603C109.058 104.603 113.358 104.103 117.558 104.203C117.558 104.203 117.558 104.203 117.658 104.203C120.458 104.203 124.158 103.503 125.358 101.503C125.958 100.403 125.858 99.1034 125.058 97.5034C122.758 93.2034 116.558 92.3034 114.058 92.1034C113.058 91.9034 112.358 91.8034 111.458 91.8034Z" fill="black"/>
<path d="M95.4582 102.604C95.3582 102.604 95.3582 102.604 95.2582 102.504C95.1582 102.404 95.2582 102.304 95.3582 102.204C99.6582 99.3036 104.458 97.5036 109.458 97.1036C113.358 96.8036 117.158 97.3036 120.958 98.5036C121.058 98.5036 121.158 98.7036 121.058 98.8036C121.058 98.9036 120.858 99.0036 120.758 98.9036C117.058 97.7036 113.258 97.2036 109.458 97.5036C104.558 97.9036 99.7582 99.6036 95.5582 102.504C95.4582 102.604 95.4582 102.604 95.4582 102.604Z" fill="black"/>
<path d="M140.458 126.603C147.158 130.503 153.458 135.003 159.958 139.103C160.158 139.203 160.358 139.303 160.558 139.403C161.558 140.003 162.558 140.603 163.658 141.203C168.258 143.603 173.658 145.303 178.458 142.803C185.458 139.103 184.458 130.203 182.158 123.903C179.758 117.303 177.358 110.803 174.658 104.303C174.258 106.403 173.858 108.103 173.158 110.403C172.358 112.903 171.458 115.103 170.558 116.903C172.058 119.803 172.958 122.303 173.658 124.003C174.558 126.303 178.458 135.103 173.858 135.803C172.058 136.103 170.058 135.203 168.458 134.403C168.358 134.403 168.358 134.303 168.258 134.303C166.258 133.303 164.358 132.103 162.458 130.903C161.858 130.503 161.358 130.203 160.758 129.803C155.458 126.203 150.158 122.803 144.658 119.603C140.058 116.903 135.958 123.903 140.458 126.603Z" fill="black"/>
<path d="M122.358 124.504C123.258 125.204 124.158 125.804 125.158 126.404C126.558 127.204 128.058 127.804 129.558 128.504C129.758 128.604 129.858 128.704 130.058 128.704C134.058 130.304 136.758 128.804 137.458 128.304C137.558 128.204 137.758 128.204 137.858 128.304C138.858 129.104 139.758 130.004 141.158 129.704C142.158 129.504 142.958 128.904 143.758 128.304C146.358 126.204 151.358 118.504 145.258 117.104L145.158 117.004C145.158 116.904 145.158 116.804 145.158 116.704C143.458 106.004 135.458 107.704 134.158 108.104C134.058 108.104 133.958 108.104 133.858 108.004C132.558 106.904 123.558 98.8036 120.158 101.604C115.658 105.304 125.758 110.904 128.158 112.504C126.658 111.604 124.958 111.604 123.858 112.804C122.358 114.304 122.458 116.704 124.158 118.104C124.258 118.204 124.558 118.504 124.758 118.504C123.958 118.304 122.858 118.604 122.258 118.904C121.158 119.504 120.458 120.704 120.658 122.004C120.758 123.004 121.558 123.904 122.358 124.504Z" fill="white"/>
<path d="M140.758 130.003C139.658 130.003 138.758 129.303 137.958 128.603L137.858 128.503C137.758 128.503 137.758 128.403 137.658 128.503C136.858 129.003 134.058 130.503 130.058 128.903C129.958 128.903 129.758 128.803 129.658 128.703L129.558 128.603C129.158 128.403 128.758 128.203 128.258 128.003C127.258 127.503 126.158 127.103 125.058 126.503C123.858 125.903 122.958 125.303 122.158 124.603C121.058 123.703 120.458 122.803 120.358 121.903C120.158 120.603 120.858 119.203 122.058 118.603C122.558 118.303 123.258 118.103 123.958 118.103C123.158 117.403 122.658 116.503 122.558 115.403C122.458 114.303 122.958 113.303 123.658 112.503C124.358 111.803 125.358 111.403 126.358 111.503C123.558 109.803 118.958 106.703 118.758 103.903C118.658 103.003 119.058 102.103 119.958 101.403C123.058 98.8034 130.758 105.003 133.858 107.803H133.958C134.858 107.603 138.158 106.903 140.958 108.703C143.158 110.203 144.658 112.803 145.258 116.503C145.258 116.603 145.258 116.603 145.258 116.703V116.803C146.858 117.203 147.858 118.003 148.158 119.303C148.858 122.303 145.658 126.803 143.758 128.303C143.058 128.803 142.158 129.503 141.058 129.803C141.158 130.003 140.958 130.003 140.758 130.003ZM137.758 128.103C137.858 128.103 138.058 128.103 138.158 128.203L138.258 128.303C139.158 129.103 140.058 129.903 141.358 129.603C142.358 129.403 143.258 128.703 143.858 128.203C145.758 126.703 148.758 122.403 148.058 119.603C147.758 118.503 146.958 117.703 145.458 117.403C145.358 117.403 145.258 117.303 145.258 117.103C145.258 117.003 145.258 117.003 145.258 116.903C145.258 116.803 145.258 116.803 145.258 116.703C144.658 113.103 143.358 110.503 141.158 109.203C138.458 107.403 135.358 108.103 134.458 108.303C134.258 108.403 134.058 108.303 133.958 108.203C127.558 102.503 122.558 100.103 120.558 101.803C119.758 102.403 119.458 103.203 119.458 104.003C119.658 107.003 125.358 110.503 127.858 111.903C128.158 112.103 128.358 112.203 128.558 112.303L128.358 112.603C126.858 111.703 125.358 111.803 124.258 112.803C123.558 113.503 123.158 114.403 123.258 115.403C123.258 116.303 123.758 117.203 124.558 117.803C124.958 118.103 125.058 118.203 125.058 118.203L124.958 118.603C124.258 118.403 123.158 118.703 122.558 119.003C121.458 119.503 120.858 120.703 121.058 121.903C121.258 122.703 121.758 123.603 122.758 124.403C123.458 125.003 124.458 125.603 125.558 126.203C126.558 126.803 127.658 127.203 128.658 127.703C129.058 127.903 129.458 128.103 129.958 128.303L130.058 128.403C130.158 128.503 130.358 128.503 130.458 128.603C134.358 130.203 136.958 128.703 137.758 128.303C137.558 128.103 137.658 128.103 137.758 128.103Z" fill="black"/>
<path d="M137.658 128.304C137.658 128.304 138.858 127.804 141.058 125.604L137.658 128.304Z" fill="white"/>
<path d="M137.658 128.504C137.558 128.504 137.458 128.504 137.458 128.404C137.458 128.304 137.458 128.204 137.558 128.104C137.558 128.104 138.758 127.604 140.858 125.404C140.958 125.304 141.058 125.304 141.158 125.404C141.258 125.504 141.258 125.604 141.158 125.704C139.058 127.904 137.758 128.404 137.658 128.504Z" fill="black"/>
<path d="M144.058 121.603C144.058 121.603 145.258 120.103 145.358 117.003L144.058 121.603Z" fill="white"/>
<path d="M144.058 121.803H143.958C143.858 121.703 143.858 121.603 143.958 121.503C143.958 121.503 145.158 120.003 145.258 117.003C145.258 116.903 145.358 116.803 145.458 116.803C145.558 116.803 145.658 116.903 145.658 117.003C145.558 120.103 144.358 121.603 144.258 121.703C144.158 121.803 144.058 121.803 144.058 121.803Z" fill="black"/>
<path d="M130.358 114.003H130.258L127.758 112.403C127.658 112.303 127.658 112.203 127.658 112.103C127.758 112.003 127.858 112.003 127.958 112.003L130.458 113.603C130.558 113.703 130.558 113.803 130.558 113.903C130.458 114.003 130.358 114.003 130.358 114.003Z" fill="black"/>
<path d="M126.958 119.804L124.358 118.504C124.258 118.404 124.258 118.304 124.258 118.204C124.358 118.104 124.458 118.104 124.558 118.104L127.058 119.404C127.158 119.504 127.158 119.604 127.158 119.704C127.158 119.804 127.058 119.804 126.958 119.804Z" fill="black"/>
<path d="M137.958 111.103H137.858L133.958 108.303C133.858 108.203 133.858 108.103 133.958 108.003C134.058 107.903 134.158 107.903 134.258 108.003L138.158 110.803C138.258 110.903 138.258 111.003 138.158 111.103C138.158 111.103 138.058 111.103 137.958 111.103Z" fill="black"/>
<path d="M79.1582 145.603C79.1582 148.003 77.2582 149.403 75.0582 149.703C73.3582 149.903 71.6582 150.103 69.9582 150.203C63.5582 150.903 57.0582 151.503 50.6582 151.903C46.7582 152.103 42.7582 152.403 38.8582 151.903C37.0582 151.703 35.2582 151.403 33.4582 151.203C31.2582 150.903 29.0582 149.503 27.2582 148.203C25.5582 147.003 24.6582 144.503 24.2582 142.603C23.8582 141.003 24.2582 139.003 24.8582 137.403C26.1582 134.003 28.1582 130.803 30.0582 127.703C32.9582 123.103 36.1582 118.703 39.2582 114.303C40.3582 117.203 41.6582 120.003 43.1582 122.703C41.7582 124.703 40.3582 126.603 39.0582 128.603C37.2582 131.303 35.6582 134.003 34.0582 136.903C33.4582 137.903 32.8582 139.003 32.4582 140.203C32.3582 140.603 32.2582 140.903 32.1582 141.303C32.2582 141.003 32.2582 141.003 32.3582 141.403C32.4582 141.603 32.4582 141.803 32.5582 141.903C33.3582 142.303 34.0582 142.803 34.8582 143.203C37.8582 143.603 40.8582 144.003 43.8582 144.003C47.2582 143.903 50.7582 143.803 54.1582 143.503C56.0582 143.303 57.8582 143.203 59.7582 143.003C64.8582 142.503 69.9582 142.003 75.0582 141.503C77.2582 141.303 79.1582 143.603 79.1582 145.603Z" fill="black"/>
<path d="M147.658 173.503L65.6584 174.303L60.4584 122.503C60.2584 120.203 61.9584 118.203 64.2584 118.203L146.858 117.403C149.058 117.403 150.858 119.303 150.758 121.503L147.658 173.503Z" fill="#4B3BC5"/>
<path d="M65.4583 174.504L60.1583 122.504C60.0583 121.304 60.4583 120.204 61.1583 119.304C61.9583 118.504 62.9583 118.004 64.1583 117.904L146.758 117.104C147.858 117.104 148.958 117.504 149.758 118.404C150.558 119.204 150.958 120.304 150.858 121.504L147.858 173.704H147.658L65.4583 174.504ZM146.858 117.604L64.2583 118.404C63.2583 118.404 62.2583 118.804 61.5583 119.604C60.8583 120.404 60.5583 121.404 60.6583 122.504L65.8583 174.204L147.458 173.404L150.458 121.604C150.558 120.604 150.158 119.604 149.458 118.804C148.758 118.004 147.858 117.604 146.858 117.604Z" fill="black"/>
<path d="M147.859 179.104L65.5585 179.804L65.4585 174.304L147.658 173.604L147.859 179.104Z" fill="#4B3BC5"/>
<path d="M65.3583 180.103L65.2583 174.103L147.858 173.403L148.058 179.303H147.858L65.3583 180.103ZM65.6583 174.503L65.7583 179.703L147.658 179.003L147.558 173.903L65.6583 174.503Z" fill="black"/>
<path d="M111.658 148.704C111.658 151.404 109.458 153.604 106.758 153.604C104.058 153.604 101.858 151.404 101.858 148.704C101.858 146.004 104.058 143.804 106.758 143.804C109.458 143.704 111.658 145.904 111.658 148.704Z" fill="white"/>
<path d="M106.658 153.804C103.858 153.804 101.558 151.504 101.558 148.704C101.558 145.904 103.858 143.604 106.658 143.604C109.458 143.604 111.758 145.904 111.758 148.704C111.858 151.504 109.558 153.804 106.658 153.804ZM106.658 143.904C104.058 143.904 101.958 146.004 101.958 148.604C101.958 151.204 104.058 153.304 106.658 153.304C109.258 153.304 111.358 151.204 111.358 148.604C111.458 146.104 109.358 143.904 106.658 143.904Z" fill="black"/>
<path d="M90.158 175.704C90.158 176.604 90.158 177.504 90.158 178.404C89.358 165.104 83.358 154.804 76.258 154.804C69.158 154.904 63.358 165.304 62.758 178.604C62.658 177.704 62.658 176.804 62.658 175.904C62.558 161.304 68.558 149.504 76.158 149.404C83.758 149.404 89.958 161.104 90.158 175.704Z" fill="#8ED4B5"/>
<path d="M62.458 178.704C62.358 177.904 62.358 177.004 62.358 176.004C62.258 168.904 63.658 162.204 66.258 157.204C68.858 152.104 72.358 149.304 76.058 149.304C76.058 149.304 76.058 149.304 76.158 149.304C79.858 149.304 83.458 152.004 86.058 157.004C88.758 162.004 90.258 168.604 90.258 175.704C90.258 176.704 90.258 177.604 90.258 178.404H89.858C89.058 165.104 83.158 155.004 76.258 155.004C76.258 155.004 76.258 155.004 76.158 155.004C69.158 155.104 63.458 165.204 62.858 178.604L62.458 178.704ZM76.158 149.704C72.458 149.704 69.158 152.504 66.558 157.404C64.158 162.104 62.758 168.304 62.758 174.904C64.158 163.204 69.658 154.804 76.158 154.704C76.158 154.704 76.158 154.704 76.258 154.704C82.758 154.704 88.358 163.004 89.958 174.704C89.758 168.104 88.258 162.004 85.858 157.304C83.158 152.304 79.758 149.704 76.158 149.704Z" fill="black"/>
<path d="M76.5821 207.61C84.2037 207.546 90.2829 195.674 90.1605 181.094C90.0381 166.514 83.7604 154.746 76.1389 154.81C68.5173 154.874 62.4381 166.745 62.5605 181.326C62.6829 195.906 68.9606 207.674 76.5821 207.61Z" fill="white"/>
<path d="M76.5581 207.804C68.8581 207.804 62.5581 196.004 62.4581 181.304C62.3581 174.204 63.7581 167.604 66.3581 162.504C68.9581 157.404 72.4581 154.604 76.2581 154.604C76.2581 154.604 76.2581 154.604 76.3581 154.604C80.0581 154.604 83.6581 157.404 86.2581 162.404C88.9581 167.404 90.4581 174.004 90.4581 181.104C90.5581 188.204 89.1581 194.804 86.5581 199.904C83.8581 205.004 80.3581 207.804 76.5581 207.804ZM76.2581 155.004C76.1581 155.004 76.1581 155.004 76.2581 155.004C72.5581 155.004 69.2581 157.804 66.6581 162.704C64.1581 167.704 62.7581 174.304 62.7581 181.304C62.8581 195.704 69.0581 207.404 76.4581 207.404C76.4581 207.404 76.4581 207.404 76.5581 207.404C80.1581 207.404 83.5581 204.604 86.0581 199.704C88.5581 194.704 89.9581 188.104 89.9581 181.104C89.8581 174.104 88.4581 167.504 85.7581 162.604C83.1581 157.704 79.7581 155.004 76.2581 155.004Z" fill="black"/>
<path d="M64.5579 167.603C64.4579 167.603 64.3579 167.503 64.3579 167.403C64.3579 167.303 64.4579 167.203 64.5579 167.203L87.9579 167.003C88.0579 167.003 88.1579 167.103 88.1579 167.203C88.1579 167.303 88.0579 167.403 87.9579 167.403L64.5579 167.603Z" fill="black"/>
<path d="M62.658 179.304C62.558 179.304 62.458 179.204 62.458 179.104C62.458 179.004 62.558 178.904 62.658 178.904L90.058 178.704C90.158 178.704 90.258 178.804 90.258 178.904C90.258 179.004 90.158 179.104 90.058 179.104L62.658 179.304Z" fill="black"/>
<path d="M63.3582 189.603C63.2582 189.603 63.1582 189.503 63.1582 189.403C63.1582 189.303 63.2582 189.203 63.3582 189.203L89.5582 189.003C89.6582 189.003 89.7582 189.103 89.7582 189.203C89.7582 189.303 89.6582 189.403 89.5582 189.403L63.3582 189.603Z" fill="black"/>
<path d="M66.7581 200.103C66.6581 200.103 66.5581 200.003 66.5581 199.903C66.5581 199.803 66.6581 199.703 66.7581 199.703L86.2581 199.503C86.3581 199.503 86.4581 199.603 86.4581 199.703C86.4581 199.803 86.3581 199.903 86.2581 199.903L66.7581 200.103Z" fill="black"/>
<path d="M151.358 175.704C151.358 176.604 151.358 177.504 151.358 178.404C150.558 165.104 144.558 154.804 137.458 154.804C130.358 154.904 124.558 165.304 123.958 178.604C123.858 177.704 123.858 176.804 123.858 175.904C123.758 161.304 129.758 149.504 137.358 149.404C144.958 149.404 151.258 161.104 151.358 175.704Z" fill="#8ED4B5"/>
<path d="M123.658 178.704C123.558 177.904 123.558 177.004 123.558 176.004C123.458 168.904 124.858 162.204 127.458 157.204C130.058 152.104 133.558 149.304 137.258 149.304C137.258 149.304 137.258 149.304 137.358 149.304C141.058 149.304 144.658 152.004 147.258 157.004C149.958 162.004 151.458 168.604 151.458 175.704C151.458 176.704 151.458 177.604 151.458 178.404H151.058C150.258 165.104 144.358 155.004 137.458 155.004C137.458 155.004 137.458 155.004 137.358 155.004C130.358 155.104 124.658 165.204 124.058 178.604L123.658 178.704ZM137.458 149.704C137.358 149.704 137.358 149.704 137.458 149.704C133.758 149.704 130.458 152.504 127.858 157.404C125.458 162.104 124.058 168.304 124.058 174.904C125.458 163.204 130.958 154.804 137.458 154.704C137.458 154.704 137.458 154.704 137.558 154.704C144.058 154.704 149.658 163.004 151.258 174.704C151.058 168.104 149.558 162.004 147.158 157.304C144.358 152.304 140.958 149.704 137.458 149.704Z" fill="black"/>
<path d="M137.884 207.61C145.505 207.546 151.584 195.674 151.462 181.094C151.34 166.513 145.062 154.746 137.441 154.81C129.819 154.873 123.74 166.745 123.862 181.325C123.984 195.906 130.262 207.673 137.884 207.61Z" fill="white"/>
<path d="M137.757 207.804C130.057 207.804 123.757 196.004 123.657 181.304C123.557 174.204 124.957 167.604 127.557 162.504C130.157 157.404 133.657 154.604 137.457 154.604C137.457 154.604 137.457 154.604 137.557 154.604C141.257 154.604 144.857 157.404 147.457 162.404C150.157 167.404 151.657 174.004 151.657 181.104C151.757 188.204 150.357 194.804 147.757 199.904C145.057 205.004 141.557 207.804 137.757 207.804ZM137.457 155.004C133.757 155.004 130.457 157.804 127.857 162.704C125.357 167.704 123.957 174.304 123.957 181.304C124.057 195.704 130.257 207.404 137.657 207.404C137.657 207.404 137.657 207.404 137.757 207.404C141.357 207.404 144.757 204.604 147.257 199.704C149.757 194.704 151.157 188.104 151.157 181.104C151.057 174.104 149.657 167.504 146.957 162.604C144.457 157.704 141.057 155.004 137.457 155.004Z" fill="black"/>
<path d="M125.858 167.603C125.758 167.603 125.658 167.503 125.658 167.403C125.658 167.303 125.758 167.203 125.858 167.203L149.258 167.003C149.358 167.003 149.458 167.103 149.458 167.203C149.458 167.303 149.358 167.403 149.258 167.403L125.858 167.603Z" fill="black"/>
<path d="M123.758 179.304C123.658 179.304 123.558 179.204 123.558 179.104C123.558 179.004 123.658 178.904 123.758 178.904L151.258 178.704C151.358 178.704 151.458 178.804 151.458 178.904C151.458 179.004 151.358 179.104 151.258 179.104L123.758 179.304Z" fill="black"/>
<path d="M124.557 189.603C124.457 189.603 124.357 189.503 124.357 189.403C124.357 189.303 124.457 189.203 124.557 189.203L150.757 189.003C150.857 189.003 150.957 189.103 150.957 189.203C150.957 189.303 150.857 189.403 150.757 189.403L124.557 189.603Z" fill="black"/>
<path d="M128.057 200.103C127.957 200.103 127.857 200.003 127.857 199.903C127.857 199.803 127.957 199.703 128.057 199.703L147.557 199.503C147.657 199.503 147.757 199.603 147.757 199.703C147.757 199.803 147.657 199.903 147.557 199.903L128.057 200.103Z" fill="black"/>
<path d="M1.75823 13.6033C5.95823 2.80332 18.0582 -2.59668 28.9582 1.60332C39.7582 5.80332 45.0582 18.0033 40.8582 28.8033C39.7582 31.7033 38.0582 34.2033 35.9582 36.2033L39.0582 44.5033L30.5582 40.0033C25.4582 42.5033 19.4582 42.9033 13.7582 40.7033C2.85823 36.6033 -2.44177 24.4033 1.75823 13.6033Z" fill="white"/>
<path d="M39.4581 45.0034L30.5581 40.3034C25.2581 42.9034 19.1581 43.1034 13.6581 41.0034C8.35809 38.9034 4.25809 35.0034 1.95809 29.8034C-0.34191 24.6034 -0.44191 18.9034 1.55809 13.6034H1.75809L1.55809 13.5034C3.55809 8.30341 7.55809 4.10341 12.7581 1.80341C17.9581 -0.496591 23.7581 -0.596591 28.9581 1.50341C34.2581 3.60341 38.3581 7.50341 40.6581 12.7034C42.9581 17.9034 43.0581 23.6034 41.0581 28.9034C39.9581 31.7034 38.3581 34.2034 36.1581 36.3034L39.4581 45.0034ZM30.5581 39.8034L38.7581 44.1034L35.7581 36.2034L35.8581 36.1034C38.0581 34.0034 39.6581 31.5034 40.7581 28.7034C42.7581 23.5034 42.6581 17.9034 40.4581 12.8034C38.2581 7.70341 34.1581 3.80341 28.9581 1.80341C23.7581 -0.196591 18.1581 -0.096591 13.0581 2.10341C7.95809 4.30341 4.05809 8.40341 2.05809 13.6034C0.0580897 18.8034 0.15809 24.4034 2.35809 29.5034C4.55809 34.6034 8.65809 38.5034 13.8581 40.5034C19.1581 42.7034 25.2581 42.4034 30.5581 39.8034Z" fill="black"/>
<path d="M12.9585 8.30332C15.1585 7.70332 17.3585 7.40332 19.7585 7.40332C25.6585 7.40332 29.2585 9.00332 30.5585 12.3033C30.8585 13.0033 31.0585 13.9033 31.0585 14.8033C31.0585 17.2033 30.3585 19.0033 29.0585 20.2033C28.5585 20.7033 27.8585 21.2033 27.0585 21.7033C26.2585 22.3033 25.6585 22.7033 25.2585 23.1033C24.3585 24.0033 23.6585 25.0033 23.3585 26.2033H17.0585C16.7585 25.2033 16.5585 24.2033 16.5585 23.3033C16.5585 22.4033 16.6585 21.7033 16.9585 21.2033C17.1585 20.7033 17.4585 20.2033 17.8585 19.8033C18.2585 19.4033 18.6585 19.1033 19.0585 18.8033C19.4585 18.5033 19.8585 18.3033 20.2585 18.0033C20.6585 17.8033 20.9585 17.5033 21.1585 17.3033C21.3585 17.1033 21.5585 16.8033 21.5585 16.5033C21.5585 15.1033 20.6585 14.5033 18.7585 14.5033C17.4585 14.5033 15.8585 14.8033 14.0585 15.4033C13.6585 15.5033 13.3585 15.6033 13.1585 15.7033V8.30332H12.9585ZM23.7585 31.3033C23.7585 33.4033 22.0585 35.1033 19.9585 35.1033C17.8585 35.1033 16.1585 33.4033 16.1585 31.3033C16.1585 29.2033 17.8585 27.5033 19.9585 27.5033C22.0585 27.5033 23.7585 29.3033 23.7585 31.3033Z" fill="#FC79FF"/>
<path d="M19.9583 35.3032C17.7583 35.3032 15.9583 33.5032 15.9583 31.3032C15.9583 29.1032 17.7583 27.3032 19.9583 27.3032C22.1583 27.3032 23.9583 29.1032 23.9583 31.3032C23.9583 33.5032 22.1583 35.3032 19.9583 35.3032ZM19.9583 27.8032C17.9583 27.8032 16.3583 29.4032 16.3583 31.4032C16.3583 33.4032 17.9583 35.0032 19.9583 35.0032C21.9583 35.0032 23.5583 33.4032 23.5583 31.4032C23.5583 29.4032 21.9583 27.8032 19.9583 27.8032ZM23.3583 26.4032H16.7583V26.3032C16.3583 25.2032 16.2583 24.3032 16.2583 23.4032C16.2583 22.5032 16.3583 21.8032 16.6583 21.2032C16.8583 20.6032 17.2583 20.1032 17.5583 19.7032C17.9583 19.3032 18.3583 19.0032 18.7583 18.7032L19.9583 17.9032C20.3583 17.7032 20.5583 17.4032 20.8583 17.2032C21.0583 17.0032 21.1583 16.8032 21.1583 16.5032C21.1583 15.3032 20.3583 14.7032 18.5583 14.7032C17.2583 14.7032 15.7583 15.0032 13.9583 15.6032C13.5583 15.7032 13.2583 15.8032 13.0583 15.9032L12.7583 16.1032V8.20322H12.8583C15.0583 7.60322 17.3583 7.30322 19.6583 7.30322C25.5583 7.30322 29.2583 9.00322 30.6583 12.3032C30.9583 13.1032 31.1583 13.9032 31.1583 14.9032C31.1583 17.3032 30.4583 19.2032 29.1583 20.5032C28.6583 21.0032 27.9583 21.5032 27.1583 22.0032C26.3583 22.5032 25.7583 23.0032 25.3583 23.4032C24.4583 24.2032 23.8583 25.3032 23.4583 26.5032L23.3583 26.4032ZM17.0583 26.0032H23.0583C23.4583 24.8032 24.0583 23.8032 25.0583 22.9032C25.4583 22.5032 26.0583 22.1032 26.8583 21.5032C27.6583 21.0032 28.3583 20.4032 28.7583 20.0032C30.0583 18.8032 30.6583 17.1032 30.6583 14.7032C30.6583 13.8032 30.5583 13.0032 30.2583 12.3032C29.0583 9.20322 25.4583 7.60322 19.7583 7.60322C17.4583 7.60322 15.2583 7.90322 13.1583 8.50322V15.5032C13.3583 15.4032 13.5583 15.4032 13.7583 15.3032C15.5583 14.7032 17.1583 14.4032 18.4583 14.4032C20.4583 14.4032 21.4583 15.2032 21.4583 16.6032C21.4583 17.0032 21.3583 17.3032 21.0583 17.6032C20.8583 17.8032 20.4583 18.1032 20.1583 18.3032L18.9583 19.0032C18.5583 19.3032 18.1583 19.6032 17.8583 20.0032C17.5583 20.4032 17.2583 20.8032 16.9583 21.3032C16.7583 21.8032 16.6583 22.5032 16.6583 23.3032C16.5583 24.2032 16.7583 25.1032 17.0583 26.0032Z" fill="black"/>
<path d="M206.258 14.1033C201.858 2.90331 189.258 -2.69669 178.058 1.70331C166.858 6.10331 161.258 18.7033 165.658 29.9033C166.858 32.9033 168.658 35.5033 170.758 37.6033L167.558 46.2033L176.458 41.5033C181.758 44.1033 187.958 44.5033 193.858 42.3033C205.058 37.9033 210.558 25.3033 206.258 14.1033Z" fill="white"/>
<path d="M167.158 46.6033L170.558 37.6033C168.358 35.4033 166.558 32.8033 165.458 29.9033C163.358 24.4033 163.458 18.5033 165.858 13.1033C168.258 7.70333 172.558 3.60333 177.958 1.50333C189.258 -2.89667 201.958 2.70333 206.358 14.0033C210.758 25.3033 205.158 38.1033 193.858 42.4033C188.258 44.6033 181.858 44.3033 176.358 41.7033L167.158 46.6033ZM185.958 0.403334C183.358 0.403334 180.758 0.903334 178.158 1.90333C172.758 4.00333 168.558 8.00333 166.258 13.3033C163.958 18.6033 163.858 24.4033 165.858 29.8033C166.958 32.7033 168.658 35.3033 170.958 37.4033L171.058 37.5033L167.958 45.7033L176.458 41.2033H176.558C181.958 43.8033 188.258 44.1033 193.858 41.9033C204.958 37.6033 210.458 25.1033 206.158 14.0033C202.758 5.70333 194.558 0.403334 185.958 0.403334Z" fill="black"/>
<path d="M178.058 8.60352C180.258 8.00352 182.658 7.60352 185.058 7.60352C191.158 7.60352 194.858 9.30352 196.258 12.6035C196.558 13.4035 196.758 14.2035 196.758 15.2035C196.758 17.7035 196.058 19.6035 194.658 20.8035C194.158 21.3035 193.458 21.8035 192.658 22.4035C191.858 23.0035 191.158 23.5035 190.758 23.8035C189.758 24.7035 189.158 25.8035 188.758 27.1035H182.158C181.758 26.0035 181.658 25.0035 181.658 24.1035C181.658 23.2035 181.758 22.5035 182.058 21.9035C182.258 21.3035 182.658 20.9035 182.958 20.5035C183.358 20.1035 183.758 19.8035 184.158 19.5035C184.558 19.2035 184.958 19.0035 185.358 18.7035C185.758 18.5035 186.058 18.2035 186.258 18.0035C186.458 17.8035 186.658 17.5035 186.658 17.1035C186.658 15.7035 185.658 15.0035 183.758 15.0035C182.358 15.0035 180.758 15.3035 178.958 16.0035C178.558 16.1035 178.258 16.3035 178.058 16.3035V8.60352ZM189.258 32.5035C189.258 34.6035 187.558 36.4035 185.358 36.4035C183.258 36.4035 181.458 34.7035 181.458 32.5035C181.458 30.3035 183.158 28.6035 185.358 28.6035C187.558 28.6035 189.258 30.3035 189.258 32.5035Z" fill="#8ED4B5"/>
<path d="M185.358 36.6034C183.058 36.6034 181.258 34.8034 181.258 32.5034C181.258 30.2034 183.058 28.4034 185.358 28.4034C187.658 28.4034 189.458 30.2034 189.458 32.5034C189.458 34.7034 187.658 36.6034 185.358 36.6034ZM185.358 28.8034C183.358 28.8034 181.658 30.5034 181.658 32.5034C181.658 34.5034 183.358 36.2034 185.358 36.2034C187.358 36.2034 189.058 34.5034 189.058 32.5034C189.058 30.5034 187.458 28.8034 185.358 28.8034ZM188.958 27.4034H182.058V27.3034C181.658 26.2034 181.458 25.2034 181.458 24.3034C181.458 23.4034 181.558 22.6034 181.858 22.0034C182.158 21.4034 182.458 20.9034 182.858 20.5034C183.258 20.1034 183.658 19.7034 184.158 19.4034L185.358 18.6034C185.758 18.4034 186.058 18.1034 186.258 17.9034C186.458 17.7034 186.558 17.5034 186.558 17.2034C186.558 15.9034 185.658 15.3034 183.858 15.3034C182.558 15.3034 180.958 15.6034 179.058 16.2034C178.658 16.3034 178.358 16.5034 178.158 16.5034L177.858 16.6034V8.50342H177.958C180.258 7.90342 182.558 7.50342 185.058 7.50342C191.158 7.50342 195.058 9.20342 196.458 12.7034C196.758 13.5034 196.958 14.4034 196.958 15.4034C196.958 17.9034 196.258 19.9034 194.858 21.2034C194.358 21.7034 193.658 22.2034 192.758 22.8034C191.958 23.4034 191.258 23.8034 190.858 24.2034C189.958 25.1034 189.258 26.1034 188.858 27.4034H188.958ZM182.358 27.0034H188.658C189.058 25.8034 189.758 24.7034 190.658 23.8034C191.058 23.4034 191.758 22.9034 192.558 22.3034C193.358 21.7034 194.058 21.2034 194.558 20.7034C195.858 19.5034 196.558 17.6034 196.558 15.2034C196.558 14.3034 196.358 13.4034 196.058 12.7034C194.758 9.40342 191.058 7.80342 185.058 7.80342C182.658 7.80342 180.358 8.10342 178.258 8.70342V16.0034C178.458 15.9034 178.658 15.9034 178.858 15.8034C180.758 15.2034 182.358 14.8034 183.758 14.8034C185.758 14.8034 186.858 15.6034 186.858 17.1034C186.858 17.5034 186.758 17.8034 186.458 18.1034C186.158 18.4034 185.858 18.6034 185.458 18.9034L184.258 19.7034C183.858 20.0034 183.458 20.3034 183.058 20.7034C182.658 21.1034 182.358 21.6034 182.158 22.1034C181.958 22.6034 181.758 23.3034 181.758 24.2034C181.858 25.1034 182.058 26.0034 182.358 27.0034Z" fill="black"/>
</svg>
