<svg width="51" height="26" viewBox="0 0 51 26" fill="none" xmlns="http://www.w3.org/2000/svg">
<path d="M0.21764 24.9367L50.1176 25.0367C50.1176 25.0367 53.1176 4.93668 37.5176 10.1367C37.5176 10.1367 36.1176 1.43668 27.6176 0.236676C23.9176 -0.263324 20.1176 0.836681 17.3176 3.93668C15.8176 5.63668 14.5176 8.03668 14.4176 11.1367C14.4176 11.1367 -0.48236 3.73668 0.21764 24.9367Z" fill="white"/>
<path d="M50.2176 25.3367L0.0176268 25.2367V25.0367C-0.182373 17.8367 1.31763 13.0367 4.61763 10.9367C8.31763 8.53674 13.0176 10.3367 14.2176 10.8367C14.4176 8.23674 15.4176 5.83674 17.2176 3.83674C19.8176 0.936741 23.6176 -0.463263 27.6176 0.136737C35.3176 1.23674 37.3176 8.63674 37.6176 10.0367C41.6176 8.73674 44.8176 9.03674 47.0176 10.8367C49.5176 12.9367 50.3176 16.7367 50.5176 19.5367C50.7176 22.5367 50.3176 25.1367 50.3176 25.1367L50.2176 25.3367ZM0.417627 24.7367L49.9176 24.8367C50.1176 23.4367 51.0176 14.6367 46.7176 11.0367C44.6176 9.23674 41.5176 9.03674 37.5176 10.3367L37.3176 10.4367V10.2367C37.3176 10.1367 35.8176 1.63674 27.6176 0.43674C23.7176 -0.0632604 20.0176 1.23674 17.5176 4.03674C15.7176 6.03674 14.7176 8.43674 14.6176 11.0367V11.3367L14.3176 11.2367C14.2176 11.2367 8.81763 8.53674 4.81763 11.1367C1.71763 13.2367 0.217627 17.8367 0.417627 24.7367Z" fill="black"/>
</svg>
