<svg width="278" height="247" viewBox="0 0 278 247" fill="none" xmlns="http://www.w3.org/2000/svg">
<path d="M0.752592 38.6742L80.1508 37.7809C80.1508 37.7809 84.5469 9.44319 59.8043 17.1206C59.8043 17.1206 57.4023 4.88015 43.9051 3.29888C37.9513 2.67343 31.8937 4.26978 27.5891 8.64863C25.2424 11.1327 23.1703 14.4313 23.0932 18.7564C23.0962 18.9901 -0.683379 8.89147 0.752592 38.6742Z" fill="white"/>
<path d="M80.4193 38.1287L80.155 38.1321L0.492657 39.0288L0.489684 38.7951C-0.035982 28.6344 2.38932 21.9421 7.63497 18.8368C13.5367 15.3726 20.9674 17.8491 22.958 18.525C23.1746 14.7825 24.7183 11.4906 27.589 8.64924C31.7644 4.50578 37.6839 2.44372 44.1676 3.1793C56.473 4.542 59.7759 14.9011 60.3296 16.8808C66.6469 14.9306 71.673 15.3341 75.2726 17.8594C83.0062 23.3706 80.8067 37.4226 80.8141 38.0068L80.4193 38.1287ZM1.01365 38.4378L79.7513 37.5529C79.9917 35.6799 81.2858 23.1587 74.4844 18.22C71.1505 15.8082 66.1259 15.5215 59.8086 17.4718L59.4137 17.5937L59.4093 17.2431C59.4078 17.1263 56.8767 5.1212 43.7787 3.76858C37.5593 3.02964 31.7703 4.97315 27.8576 8.99641C24.987 11.8377 23.5769 15.2448 23.3602 18.9873L23.3662 19.4547L22.9669 19.2261C22.8348 19.2277 14.2002 15.5979 7.90513 19.3008C2.92072 22.169 0.624556 28.6259 1.01365 38.4378Z" fill="black"/>
<path d="M195.232 58.2878L274.63 57.3944C274.63 57.3944 279.026 29.0567 254.283 36.7341C254.283 36.7341 251.881 24.4937 238.384 22.9124C232.43 22.287 226.373 23.8833 222.068 28.2621C219.721 30.7462 217.649 34.0448 217.572 38.3699C217.575 38.6036 193.796 28.505 195.232 58.2878Z" fill="white"/>
<path d="M274.899 57.7415L274.634 57.7448L194.972 58.6416L194.969 58.4079C194.443 48.2471 196.869 41.5549 202.114 38.4496C208.016 34.9854 215.447 37.4619 217.437 38.1378C217.654 34.3953 219.198 31.1034 222.068 28.262C226.244 24.1186 232.163 22.0565 238.647 22.7921C250.952 24.1548 254.255 34.5139 254.809 36.4936C261.126 34.5434 266.152 34.9469 269.752 37.4721C277.486 42.9834 275.286 57.0354 275.293 57.6196L274.899 57.7415ZM195.493 58.0506L274.231 57.1656C274.471 55.2927 275.765 42.7715 268.964 37.8328C265.63 35.421 260.605 35.1343 254.288 37.0846L253.893 37.2065L253.889 36.8559C253.887 36.7391 251.356 24.734 238.257 23.2645C232.037 22.5256 226.248 24.4691 222.335 28.4924C219.465 31.3337 218.055 34.7408 217.838 38.4833L217.844 38.9507L217.445 38.722C217.313 38.7237 208.678 35.0938 202.383 38.7968C197.4 41.7818 195.104 48.2388 195.493 58.0506Z" fill="black"/>
<path d="M10.9069 109.834L64.2798 109.272C64.2798 109.272 67.3402 90.1837 50.6264 95.4217C50.6264 95.4217 48.9356 87.1456 39.9389 86.2083C35.9697 85.7913 31.8878 86.8951 29.0186 89.8533C27.4541 91.5093 26.0292 93.7479 25.9342 96.6708C25.9327 96.5539 9.99061 89.7447 10.9069 109.834Z" fill="white"/>
<path d="M64.5486 109.619L64.2844 109.622L10.6472 110.188L10.6442 109.954C10.2923 103.064 11.9532 98.6015 15.4933 96.4528C19.2962 94.184 24.2035 95.6408 25.7962 96.2049C26.0292 93.7477 27.0579 91.5142 28.8836 89.6211C31.6222 86.7814 35.7011 85.444 40.0666 85.8559C48.1386 86.805 50.4691 93.4367 51.0184 95.0659C55.231 93.8436 58.6687 94.0336 61.069 95.7561C66.2702 99.5465 64.8054 109.031 64.8098 109.382L64.5486 109.619ZM11.3003 109.595L64.0127 109.041C64.2576 107.519 64.9477 99.4465 60.5465 96.2302C58.2799 94.6229 54.9742 94.4312 50.7631 95.7703L50.3683 95.8922L50.3638 95.5417C50.3623 95.4249 48.6759 87.4994 39.9434 86.5587C35.8422 86.1434 31.8938 87.3623 29.2858 90.0834C27.4601 91.9765 26.4315 94.2101 26.3321 96.7824L26.3381 97.2498L25.9388 97.0212C25.9388 97.0212 20.0948 94.6413 15.8971 97.032C12.4846 98.8285 10.9528 103.055 11.3003 109.595Z" fill="black"/>
<path d="M219.425 121.672L272.798 121.11C272.798 121.11 275.858 102.022 259.144 107.26C259.144 107.26 257.454 98.9839 248.457 98.0466C244.488 97.6296 240.406 98.7334 237.537 101.692C235.972 103.348 234.547 105.586 234.452 108.509C234.451 108.392 218.376 101.585 219.425 121.672Z" fill="white"/>
<path d="M273.067 121.458L272.802 121.461L219.165 122.027L219.162 121.793C218.81 114.902 220.471 110.44 224.011 108.292C227.814 106.023 232.722 107.48 234.314 108.044C234.547 105.587 235.576 103.353 237.402 101.46C240.14 98.6202 244.219 97.2828 248.585 97.6948C256.657 98.6439 258.987 105.276 259.536 106.905C263.749 105.682 267.187 105.872 269.587 107.595C274.788 111.385 273.323 120.87 273.328 121.221L273.067 121.458ZM219.686 121.436L272.399 120.882C272.644 119.36 273.334 111.287 268.932 108.071C266.666 106.463 263.36 106.272 259.149 107.611L258.754 107.733L258.75 107.382C258.748 107.265 257.062 99.3399 248.329 98.3992C244.228 97.9839 240.28 99.2028 237.672 101.924C235.846 103.817 234.817 106.051 234.718 108.623L234.724 109.09L234.325 108.862C234.325 108.862 228.481 106.482 224.283 108.873C221.003 110.667 219.471 114.894 219.686 121.436Z" fill="black"/>
<path d="M171.059 235.414L139.882 235.811L139.89 236.395L171.067 235.998L171.059 235.414Z" fill="black"/>
<path d="M162.271 240.435L120.657 240.964L120.664 241.548L162.278 241.019L162.271 240.435Z" fill="black"/>
<path d="M203.878 166.747C201.96 161.396 198.858 156.41 195.494 151.661C191.997 146.797 183.334 151.348 186.833 156.329C189.793 160.499 192.622 164.787 194.269 169.557C196.05 174.56 196.247 179.699 195.654 184.966C194.342 196.085 189.588 206.664 186.024 217.344C184.112 222.861 193.918 225.073 195.83 219.556C199.776 207.819 204.651 196.305 205.816 184.019C206.402 178.168 205.931 172.33 203.878 166.747Z" fill="black"/>
<path d="M225.072 243.609C220.977 243.661 217.503 240.667 217.589 237.043C217.543 233.421 220.809 230.457 224.904 230.405C229 230.353 232.341 233.349 232.387 236.972C232.432 240.477 229.168 243.557 225.072 243.609ZM218.118 237.036C218.159 240.308 221.232 242.957 224.933 243.027C228.632 242.98 231.636 240.253 231.594 236.982C231.553 233.71 228.48 231.061 224.78 230.991C221.081 231.038 218.076 233.764 218.118 237.036Z" fill="black"/>
<path d="M225.028 240.104C222.914 240.131 221.177 238.633 221.286 236.762C221.262 234.893 222.961 233.469 224.943 233.443C227.057 233.416 228.661 234.915 228.685 236.785C228.697 237.72 228.311 238.543 227.658 239.135C227.005 239.728 226.085 240.09 225.028 240.104ZM221.55 236.759L221.814 236.755C221.833 238.274 223.169 239.426 224.888 239.521C225.681 239.511 226.47 239.267 226.991 238.676C227.514 238.202 227.901 237.496 227.891 236.678C227.872 235.159 226.536 234.007 224.817 233.912C223.099 233.934 221.793 235.12 221.812 236.639L221.55 236.759Z" fill="black"/>
<path d="M198.432 237.17C198.477 240.676 201.683 243.44 205.646 243.389C209.61 243.339 212.744 240.494 212.7 236.989C212.655 233.483 209.449 230.719 205.486 230.77C201.523 230.82 198.388 233.665 198.432 237.17Z" fill="black"/>
<path d="M205.651 243.739C203.669 243.764 201.811 243.087 200.341 241.82C198.872 240.553 198.19 238.926 198.168 237.173C198.146 235.42 198.918 233.774 200.354 232.471C201.791 231.167 203.632 230.442 205.615 230.534C207.597 230.509 209.455 231.186 210.925 232.453C212.394 233.72 213.075 235.347 213.098 237.1C213.01 240.607 209.746 243.687 205.651 243.739ZM205.49 231.12C203.641 231.143 202.063 231.748 200.757 232.933C199.45 234.118 198.809 235.646 198.829 237.165C198.849 238.801 199.529 240.311 200.864 241.346C202.2 242.498 203.925 243.06 205.642 243.038C209.341 242.991 212.345 240.265 212.304 236.993C212.283 235.357 211.603 233.847 210.268 232.812C209.065 231.659 207.34 231.096 205.49 231.12Z" fill="black"/>
<path d="M205.606 240.234C204.549 240.247 203.62 239.908 202.952 239.333C202.284 238.757 201.876 237.827 201.866 237.009C201.854 236.074 202.24 235.251 202.893 234.659C203.546 234.066 204.598 233.702 205.523 233.69C207.637 233.663 209.241 235.162 209.265 237.032C209.286 238.668 207.72 240.207 205.606 240.234ZM205.529 234.158C204.736 234.168 203.947 234.412 203.426 235.002C202.903 235.477 202.516 236.183 202.526 237.001C202.536 237.819 202.808 238.399 203.476 238.975C204.011 239.436 204.808 239.776 205.732 239.765C207.45 239.743 208.756 238.558 208.737 237.038C208.584 235.404 207.246 234.136 205.529 234.158Z" fill="black"/>
<path d="M217.854 237.04C217.898 240.545 221.105 243.309 225.068 243.259C229.031 243.208 232.166 240.364 232.121 236.858C232.077 233.353 228.87 230.589 224.907 230.639C220.944 230.69 217.809 233.534 217.854 237.04Z" fill="black"/>
<path d="M225.072 243.609C220.977 243.661 217.503 240.667 217.589 237.043C217.543 233.421 220.809 230.457 224.904 230.405C229 230.353 232.341 233.349 232.387 236.972C232.432 240.477 229.168 243.557 225.072 243.609ZM218.118 237.036C218.159 240.308 221.232 242.957 224.933 243.027C228.632 242.98 231.636 240.253 231.594 236.982C231.553 233.71 228.48 231.061 224.78 230.991C221.081 231.038 218.076 233.764 218.118 237.036Z" fill="black"/>
<path d="M221.55 236.759C221.57 238.395 223.041 239.779 225.023 239.754C226.873 239.73 228.442 238.425 228.419 236.672C228.398 235.036 226.927 233.652 224.946 233.677C223.096 233.701 221.529 235.123 221.55 236.759Z" fill="white"/>
<path d="M225.028 240.104C222.914 240.131 221.177 238.633 221.286 236.762C221.262 234.893 222.961 233.469 224.943 233.443C227.057 233.416 228.661 234.915 228.685 236.785C228.697 237.72 228.311 238.543 227.658 239.135C227.005 239.728 226.085 240.09 225.028 240.104ZM221.55 236.759L221.814 236.755C221.833 238.274 223.169 239.426 224.888 239.521C225.681 239.511 226.47 239.267 226.991 238.676C227.514 238.202 227.901 237.496 227.891 236.678C227.872 235.159 226.536 234.007 224.817 233.912C223.099 233.934 221.793 235.12 221.812 236.639L221.55 236.759Z" fill="black"/>
<path d="M198.432 237.17C198.477 240.676 201.683 243.44 205.646 243.389C209.61 243.339 212.744 240.494 212.7 236.989C212.655 233.483 209.449 230.719 205.486 230.77C201.523 230.82 198.388 233.665 198.432 237.17Z" fill="black"/>
<path d="M205.651 243.739C203.669 243.764 201.811 243.087 200.341 241.82C198.872 240.553 198.19 238.926 198.168 237.173C198.146 235.42 198.918 233.774 200.354 232.471C201.791 231.167 203.632 230.442 205.615 230.534C207.597 230.509 209.455 231.186 210.925 232.453C212.394 233.72 213.075 235.347 213.098 237.1C213.01 240.607 209.746 243.687 205.651 243.739ZM205.49 231.12C203.641 231.143 202.063 231.748 200.757 232.933C199.45 234.118 198.809 235.646 198.829 237.165C198.849 238.801 199.529 240.311 200.864 241.346C202.2 242.498 203.925 243.06 205.642 243.038C209.341 242.991 212.345 240.265 212.304 236.993C212.283 235.357 211.603 233.847 210.268 232.812C209.065 231.659 207.34 231.096 205.49 231.12Z" fill="black"/>
<path d="M202.128 236.889C202.149 238.525 203.62 239.908 205.602 239.883C207.451 239.86 209.02 238.554 208.998 236.801C208.977 235.166 207.506 233.782 205.524 233.807C203.676 233.948 202.107 235.253 202.128 236.889Z" fill="white"/>
<path d="M205.606 240.234C204.549 240.247 203.62 239.908 202.952 239.333C202.284 238.757 201.876 237.827 201.866 237.009C201.854 236.074 202.24 235.251 202.893 234.659C203.546 234.066 204.598 233.702 205.523 233.69C207.637 233.663 209.241 235.162 209.265 237.032C209.286 238.668 207.72 240.207 205.606 240.234ZM205.529 234.158C204.736 234.168 203.947 234.412 203.426 235.002C202.903 235.477 202.516 236.183 202.526 237.001C202.536 237.819 202.808 238.399 203.476 238.975C204.011 239.436 204.808 239.776 205.732 239.765C207.45 239.743 208.756 238.558 208.737 237.038C208.584 235.404 207.246 234.136 205.529 234.158Z" fill="black"/>
<path d="M177.956 237.43C178 240.936 181.207 243.7 185.17 243.649C189.133 243.599 192.268 240.754 192.223 237.249C192.179 233.743 188.973 230.979 185.009 231.03C181.046 231.08 177.911 233.925 177.956 237.43Z" fill="black"/>
<path d="M185.042 244.001C183.06 244.027 181.202 243.349 179.732 242.082C178.263 240.815 177.582 239.188 177.559 237.435C177.537 235.682 178.309 234.036 179.746 232.733C181.182 231.429 183.025 230.821 185.006 230.796C186.988 230.771 188.846 231.448 190.316 232.715C191.785 233.982 192.467 235.609 192.489 237.362C192.534 240.867 189.137 243.949 185.042 244.001ZM184.882 231.382C183.032 231.405 181.454 232.01 180.148 233.195C178.842 234.38 178.201 235.908 178.22 237.427C178.241 239.063 178.921 240.573 180.255 241.608C181.591 242.76 183.316 243.322 185.033 243.3C188.732 243.253 191.736 240.527 191.695 237.255C191.674 235.619 190.994 234.109 189.66 233.074C188.456 231.921 186.731 231.358 184.882 231.382Z" fill="black"/>
<path d="M185.13 240.494C184.073 240.508 183.144 240.169 182.476 239.593C181.808 239.017 181.399 238.087 181.389 237.27C181.377 236.335 181.763 235.512 182.416 234.919C183.069 234.326 183.99 233.964 185.046 233.951C187.16 233.924 188.765 235.423 188.789 237.292C188.809 238.928 187.111 240.469 185.13 240.494ZM185.052 234.418C184.26 234.428 183.47 234.672 182.949 235.263C182.427 235.737 182.039 236.443 182.05 237.261C182.058 237.962 182.332 238.66 183 239.236C183.534 239.696 184.331 240.037 185.256 240.025C186.973 240.003 188.279 238.818 188.26 237.299C188.107 235.665 186.77 234.396 185.052 234.418Z" fill="black"/>
<path d="M177.956 237.43C178 240.936 181.207 243.7 185.17 243.649C189.133 243.599 192.268 240.754 192.223 237.249C192.179 233.743 188.973 230.979 185.009 231.03C181.046 231.08 177.911 233.925 177.956 237.43Z" fill="black"/>
<path d="M185.042 244.001C183.06 244.027 181.202 243.349 179.732 242.082C178.263 240.815 177.582 239.188 177.559 237.435C177.537 235.682 178.309 234.036 179.746 232.733C181.182 231.429 183.025 230.821 185.006 230.796C186.988 230.771 188.846 231.448 190.316 232.715C191.785 233.982 192.467 235.609 192.489 237.362C192.534 240.867 189.137 243.949 185.042 244.001ZM184.882 231.382C183.032 231.405 181.454 232.01 180.148 233.195C178.842 234.38 178.201 235.908 178.22 237.427C178.241 239.063 178.921 240.573 180.255 241.608C181.591 242.76 183.316 243.322 185.033 243.3C188.732 243.253 191.736 240.527 191.695 237.255C191.674 235.619 190.994 234.109 189.66 233.074C188.456 231.921 186.731 231.358 184.882 231.382Z" fill="black"/>
<path d="M181.652 237.149C181.672 238.785 183.143 240.169 185.125 240.144C186.975 240.12 188.544 238.815 188.521 237.062C188.5 235.426 187.029 234.042 185.048 234.068C183.068 234.21 181.631 235.513 181.652 237.149Z" fill="white"/>
<path d="M185.13 240.494C184.073 240.508 183.144 240.169 182.476 239.593C181.808 239.017 181.399 238.087 181.389 237.27C181.377 236.335 181.763 235.512 182.416 234.919C183.069 234.326 183.99 233.964 185.046 233.951C187.16 233.924 188.765 235.423 188.789 237.292C188.809 238.928 187.111 240.469 185.13 240.494ZM185.052 234.418C184.26 234.428 183.47 234.672 182.949 235.263C182.427 235.737 182.039 236.443 182.05 237.261C182.058 237.962 182.332 238.66 183 239.236C183.534 239.696 184.331 240.037 185.256 240.025C186.973 240.003 188.279 238.818 188.26 237.299C188.107 235.665 186.77 234.396 185.052 234.418Z" fill="black"/>
<path d="M176.944 230.665L233.098 230.535C233.098 230.535 235.518 213.091 210.703 215.043C208.855 215.183 206.876 215.442 204.635 215.821L208.059 204.558L180.437 203.975L176.944 230.665Z" fill="#F299DE"/>
<path d="M233.234 230.884L176.421 231.022L179.904 203.631L208.187 204.206L204.763 215.469C206.74 215.093 208.588 214.953 210.304 214.814C218.751 214.122 224.979 215.562 228.857 219.136C233.938 223.863 233.098 230.535 233.099 230.652L233.234 230.884ZM177.204 230.311L232.697 230.189C232.813 228.902 233.007 223.407 228.595 219.373C224.852 215.914 218.757 214.59 210.572 215.161C208.724 215.302 206.746 215.56 204.504 215.94L203.977 216.063L207.4 204.683L180.57 204.09L177.204 230.311Z" fill="black"/>
<path d="M191.788 213.414C191.798 214.231 196.168 214.994 201.584 214.925C202.509 214.913 203.434 214.901 204.359 214.89L205 213.362L205.509 211.837C204.584 211.848 202.603 211.874 201.546 211.887C196.126 211.722 191.776 212.479 191.788 213.414Z" fill="#F6CA4F"/>
<path d="M201.852 215.155C201.72 215.157 201.72 215.157 201.588 215.159C198.945 215.192 196.432 214.99 194.58 214.78C191.8 214.348 191.396 213.769 191.391 213.418C191.387 213.068 191.644 212.48 194.544 211.976C196.389 211.602 198.898 211.453 201.54 211.419L202.333 211.409C203.389 211.396 204.843 211.377 205.503 211.369L205.899 211.364L204.492 215.005L204.228 215.008C203.437 215.135 202.644 215.145 201.852 215.155ZM192.052 213.41C192.058 213.877 195.503 214.652 201.448 214.576C202.241 214.566 203.033 214.556 203.958 214.544L204.852 212.078C204.059 212.089 203.002 212.102 202.077 212.114L201.285 212.124C201.153 212.126 201.153 212.126 201.02 212.127C195.47 212.081 192.178 212.941 192.052 213.41Z" fill="black"/>
<path d="M192.506 207.561C192.517 208.379 197.155 209.488 202.572 209.419C203.629 209.406 205.083 209.504 206.139 209.374L207.287 206.204C206.229 206.101 203.721 206.249 202.664 206.263C196.983 206.335 192.496 206.743 192.506 207.561Z" fill="#F6CA4F"/>
<path d="M205.218 209.736C204.69 209.743 204.293 209.748 203.765 209.755C203.369 209.76 202.972 209.765 202.576 209.77C197.688 209.832 192.26 208.966 192.243 207.681C192.236 207.097 193.156 206.734 195.531 206.47C197.246 206.215 199.756 206.183 202.53 206.148L203.323 206.138C204.644 206.121 206.361 206.099 207.154 206.089L207.55 206.084L206.143 209.725L205.879 209.728C205.747 209.73 205.482 209.733 205.218 209.736ZM192.77 207.557C192.908 208.023 196.754 209.143 202.435 209.071C202.831 209.066 203.228 209.06 203.624 209.055C204.285 209.047 205.077 209.037 205.606 209.03L206.498 206.448C205.573 206.46 204.12 206.478 203.063 206.492L202.27 206.502C194.742 206.714 192.9 207.322 192.77 207.557Z" fill="black"/>
<path d="M221.18 218.064C221.569 217.475 222.36 217.348 222.893 217.692C226.875 219.161 230.086 222.275 230.663 226.124C230.803 226.707 230.018 227.301 229.357 227.31C228.565 227.32 228.162 226.857 228.021 226.158C228.024 226.392 228.02 226.041 228.02 226.041C228.018 225.924 228.017 225.807 227.883 225.692C227.88 225.459 227.747 225.343 227.744 225.11C227.609 224.878 227.606 224.644 227.472 224.529C227.471 224.412 227.338 224.414 227.337 224.297C227.2 223.948 226.932 223.601 226.663 223.254C226.529 223.138 226.528 223.022 226.396 223.023L226.262 222.908C226.129 222.793 225.995 222.678 225.86 222.446C225.591 222.099 225.192 221.87 224.925 221.64C224.791 221.524 224.658 221.409 224.392 221.296L224.258 221.181C224.126 221.182 224.125 221.065 223.993 221.067C223.194 220.61 222.397 220.269 221.6 219.929C221.064 219.351 220.921 218.535 221.18 218.064Z" fill="white"/>
<path d="M185.362 206.833L183.097 226.145C182.984 227.666 180.338 227.349 180.452 225.945L182.717 206.633C182.962 205.111 185.475 205.313 185.362 206.833Z" fill="white"/>
<path d="M106.616 165.53C107.226 171.95 107.571 178.257 106.193 184.234C104.938 189.392 102.618 193.98 97.764 196.729C91.4674 200.316 83.5484 201.001 76.275 200.509C67.6791 199.917 58.9303 197.691 51.3555 194.281C45.6407 191.666 40.3209 199.33 46.1678 201.944C61.8502 209.107 82.6431 212.933 99.3376 206.176C114.85 200.018 117.825 184.554 117.124 171.006C116.964 168.788 116.802 166.453 116.641 164.234C113.211 164.628 109.914 165.138 106.616 165.53Z" fill="black"/>
<path d="M19.839 230.327C19.3106 230.334 18.7821 230.34 18.2522 230.23C14.2786 229.463 11.5918 225.991 12.472 222.474C12.846 220.716 14.0171 219.299 15.7212 218.225C17.4267 217.269 19.4038 216.893 21.2578 217.22C23.2439 217.545 24.8425 218.577 26.0493 219.964C27.1255 221.469 27.5442 223.217 27.1686 224.858C26.2855 228.141 23.2738 230.283 19.839 230.327ZM19.6784 217.707C18.3574 217.724 17.1729 218.09 15.9913 218.689C14.4164 219.527 13.5095 220.941 13.1325 222.465C12.3815 225.747 14.7996 228.872 18.3754 229.527C20.0973 229.856 21.9423 229.482 23.5172 228.644C25.0921 227.806 25.999 226.392 26.376 224.868C26.753 223.344 26.3359 221.713 25.3933 220.323C24.4507 218.932 22.855 218.134 21.1331 217.806C20.6032 217.696 20.0748 217.702 19.6784 217.707Z" fill="black"/>
<path d="M19.9295 227.053C19.6653 227.057 19.4011 227.06 19.1354 226.947C17.1493 226.621 15.806 224.885 16.1785 223.011C16.4323 222.189 16.9503 221.365 17.737 220.887C18.5237 220.41 19.5776 220.163 20.5053 220.385C21.4331 220.607 22.3638 221.062 22.9011 221.757C23.4385 222.451 23.7146 223.382 23.4608 224.204C23.2189 225.96 21.7791 227.03 19.9295 227.053ZM19.8537 221.094C19.3253 221.101 18.6662 221.226 18.1423 221.583C17.4862 221.942 16.9667 222.65 16.8435 223.353C16.4665 224.877 17.5412 226.266 19.2631 226.594C20.9849 226.923 22.5583 225.968 22.9353 224.444C23.0585 223.741 22.9175 223.042 22.5122 222.346C22.1085 221.767 21.3099 221.309 20.5157 221.203C20.3822 221.087 20.1179 221.091 19.8537 221.094Z" fill="black"/>
<path d="M25.0113 200.694C21.1712 200.042 17.3669 202.194 16.6173 205.592C15.8678 208.991 18.2888 212.349 22.1289 213.002C25.9689 213.654 29.7733 211.502 30.5228 208.103C31.4045 204.703 28.8513 201.346 25.0113 200.694Z" fill="black"/>
<path d="M23.7202 213.449C23.1917 213.455 22.6633 213.462 22.1334 213.352C20.1473 213.027 18.5486 211.995 17.3418 210.608C16.2656 209.103 15.847 207.355 16.2225 205.714C17.1027 202.197 21.0362 199.809 25.0098 200.577C28.9835 201.344 31.6702 204.816 30.7901 208.334C30.416 210.091 29.2449 211.509 27.5409 212.582C26.49 213.063 25.1734 213.43 23.7202 213.449ZM23.5596 200.829C20.389 200.869 17.64 202.891 17.0152 205.704C16.6382 207.228 17.0553 208.859 17.9979 210.249C18.9405 211.64 20.5362 212.437 22.2581 212.766C23.9799 213.095 25.825 212.721 27.3999 211.883C28.9747 211.045 29.8817 209.631 30.2586 208.107C31.0097 204.825 28.5916 201.7 25.0158 201.044C24.4858 200.934 23.9559 200.824 23.5596 200.829Z" fill="black"/>
<path d="M23.9443 210.29C23.6801 210.294 23.4159 210.297 23.1502 210.183C22.2224 209.962 21.2917 209.506 20.7544 208.812C20.217 208.117 19.9409 207.186 20.1947 206.364C20.5688 204.607 22.5355 203.413 24.6537 203.737C26.6398 204.062 27.9831 205.798 27.6106 207.672C27.3568 208.494 26.8388 209.318 26.0521 209.796C25.2624 210.04 24.6048 210.282 23.9443 210.29ZM23.867 204.214C22.4138 204.233 21.1046 205.184 20.8568 206.473C20.7336 207.176 20.8746 207.875 21.2798 208.571C21.6836 209.15 22.4822 209.608 23.2763 209.714C24.0705 209.821 24.8616 209.694 25.6498 209.334C26.3059 208.975 26.8254 208.267 26.9486 207.564C27.3256 206.04 26.2509 204.651 24.529 204.323C24.2633 204.209 23.9991 204.212 23.867 204.214Z" fill="black"/>
<path d="M21.1302 217.572C17.2901 216.92 13.4857 219.072 12.7362 222.47C11.9867 225.869 14.4077 229.227 18.2478 229.88C22.0878 230.532 25.8922 228.38 26.6417 224.981C27.5234 221.581 24.9702 218.224 21.1302 217.572Z" fill="black"/>
<path d="M19.839 230.327C19.3106 230.334 18.7821 230.34 18.2522 230.23C14.2786 229.463 11.5918 225.991 12.472 222.474C12.846 220.716 14.0171 219.299 15.7212 218.225C17.4267 217.269 19.4038 216.893 21.2578 217.22C23.2439 217.545 24.8425 218.577 26.0493 219.964C27.1255 221.469 27.5442 223.217 27.1686 224.858C26.2855 228.141 23.2738 230.283 19.839 230.327ZM19.6784 217.707C18.3574 217.724 17.1729 218.09 15.9913 218.689C14.4164 219.527 13.5095 220.941 13.1325 222.465C12.3815 225.747 14.7996 228.872 18.3754 229.527C20.0973 229.856 21.9423 229.482 23.5172 228.644C25.0921 227.806 25.999 226.392 26.376 224.868C26.753 223.344 26.3359 221.713 25.3933 220.323C24.4507 218.932 22.855 218.134 21.1331 217.806C20.6032 217.696 20.0748 217.702 19.6784 217.707Z" fill="black"/>
<path d="M20.6433 220.851C18.7893 220.524 16.9532 221.599 16.5777 223.24C16.2022 224.881 17.4119 226.501 19.2659 226.828C21.1199 227.155 22.956 226.08 23.3315 224.439C23.7055 222.681 22.4972 221.178 20.6433 220.851Z" fill="white"/>
<path d="M19.9295 227.053C19.6653 227.057 19.4011 227.06 19.1354 226.947C17.1493 226.621 15.806 224.885 16.1785 223.011C16.4323 222.189 16.9503 221.365 17.737 220.887C18.5237 220.41 19.5776 220.163 20.5053 220.385C21.4331 220.607 22.3638 221.062 22.9011 221.757C23.4385 222.451 23.7146 223.382 23.4608 224.204C23.2189 225.96 21.7791 227.03 19.9295 227.053ZM19.8537 221.094C19.3253 221.101 18.6662 221.226 18.1423 221.583C17.4862 221.942 16.9667 222.65 16.8435 223.353C16.4665 224.877 17.5412 226.266 19.2631 226.594C20.9849 226.923 22.5583 225.968 22.9353 224.444C23.0585 223.741 22.9175 223.042 22.5122 222.346C22.1085 221.767 21.3099 221.309 20.5157 221.203C20.3822 221.087 20.1179 221.091 19.8537 221.094Z" fill="black"/>
<path d="M25.0113 200.694C21.1712 200.042 17.3669 202.194 16.6173 205.592C15.8678 208.991 18.2888 212.349 22.1289 213.002C25.9689 213.654 29.7733 211.502 30.5228 208.103C31.4045 204.703 28.8513 201.346 25.0113 200.694Z" fill="black"/>
<path d="M23.7202 213.449C23.1917 213.455 22.6633 213.462 22.1334 213.352C20.1473 213.027 18.5486 211.995 17.3418 210.608C16.2656 209.103 15.847 207.355 16.2225 205.714C17.1027 202.197 21.0362 199.809 25.0098 200.577C28.9835 201.344 31.6702 204.816 30.7901 208.334C30.416 210.091 29.2449 211.509 27.5409 212.582C26.49 213.063 25.1734 213.43 23.7202 213.449ZM23.5596 200.829C20.389 200.869 17.64 202.891 17.0152 205.704C16.6382 207.228 17.0553 208.859 17.9979 210.249C18.9405 211.64 20.5362 212.437 22.2581 212.766C23.9799 213.095 25.825 212.721 27.3999 211.883C28.9747 211.045 29.8817 209.631 30.2586 208.107C31.0097 204.825 28.5916 201.7 25.0158 201.044C24.4858 200.934 23.9559 200.824 23.5596 200.829Z" fill="black"/>
<path d="M24.5246 203.972C22.6707 203.645 20.8345 204.72 20.459 206.361C20.0835 208.002 21.2933 209.623 23.1473 209.95C25.0012 210.277 26.8374 209.202 27.2129 207.561C27.5884 205.92 26.3786 204.299 24.5246 203.972Z" fill="white"/>
<path d="M23.9443 210.29C23.6801 210.294 23.4159 210.297 23.1502 210.183C22.2224 209.962 21.2917 209.506 20.7544 208.812C20.217 208.117 19.9409 207.186 20.1947 206.364C20.5688 204.607 22.5355 203.413 24.6537 203.737C26.6398 204.062 27.9831 205.798 27.6106 207.672C27.3568 208.494 26.8388 209.318 26.0521 209.796C25.2624 210.04 24.6048 210.282 23.9443 210.29ZM23.867 204.214C22.4138 204.233 21.1046 205.184 20.8568 206.473C20.7336 207.176 20.8746 207.875 21.2798 208.571C21.6836 209.15 22.4822 209.608 23.2763 209.714C24.0705 209.821 24.8616 209.694 25.6498 209.334C26.3059 208.975 26.8254 208.267 26.9486 207.564C27.3256 206.04 26.2509 204.651 24.529 204.323C24.2633 204.209 23.9991 204.212 23.867 204.214Z" fill="black"/>
<path d="M29.0128 182.88C25.1727 182.228 21.3684 184.38 20.6188 187.778C19.8693 191.177 22.2904 194.535 26.1304 195.188C29.9705 195.84 33.7748 193.688 34.5243 190.289C35.406 186.889 32.8528 183.532 29.0128 182.88Z" fill="black"/>
<path d="M27.7217 195.635C27.1933 195.641 26.6648 195.648 26.1349 195.538C22.1613 194.77 19.4745 191.299 20.3547 187.781C20.7287 186.024 21.8998 184.606 23.6039 183.533C25.3094 182.576 27.2865 182.2 29.1405 182.527C31.1266 182.853 32.7252 183.884 33.932 185.271C35.0082 186.777 35.4268 188.524 35.0513 190.165C34.6773 191.923 33.5062 193.34 31.8022 194.414C30.4915 195.249 29.1749 195.616 27.7217 195.635ZM27.5611 183.015C26.2401 183.032 25.0556 183.397 23.874 183.997C22.2991 184.835 21.3922 186.249 21.0152 187.773C20.2642 191.055 22.6823 194.179 26.2581 194.835C27.98 195.164 29.825 194.79 31.3999 193.952C32.9748 193.114 33.8817 191.7 34.2587 190.175C34.6357 188.651 34.2185 187.021 33.276 185.63C32.3334 184.24 30.7377 183.442 29.0158 183.113C28.4874 183.12 27.9575 183.01 27.5611 183.015Z" fill="black"/>
<path d="M27.8137 192.478C27.5495 192.481 27.2852 192.484 27.0195 192.371C25.0335 192.046 23.6901 190.31 24.0626 188.435C24.3164 187.614 24.8345 186.789 25.6212 186.312C26.4079 185.834 27.4617 185.587 28.3895 185.809C29.3172 186.031 30.2479 186.487 30.7852 187.181C31.3226 187.875 31.5987 188.807 31.3449 189.628C31.103 191.384 29.6632 192.454 27.8137 192.478ZM27.7364 186.402C27.2079 186.408 26.5489 186.534 26.0249 186.891C25.3688 187.25 24.8493 187.958 24.7261 188.66C24.3491 190.184 25.4238 191.573 27.1457 191.902C28.8676 192.231 30.441 191.276 30.818 189.752C30.9411 189.049 30.8001 188.349 30.3949 187.653C29.9911 187.074 29.1925 186.617 28.3984 186.51C28.2648 186.395 28.0006 186.398 27.7364 186.402Z" fill="black"/>
<path d="M29.0128 182.88C25.1727 182.228 21.3684 184.38 20.6188 187.778C19.8693 191.177 22.2904 194.535 26.1304 195.188C29.9705 195.84 33.7748 193.688 34.5243 190.289C35.406 186.889 32.8528 183.532 29.0128 182.88Z" fill="black"/>
<path d="M27.7217 195.635C27.1933 195.641 26.6648 195.648 26.1349 195.538C22.1613 194.77 19.4745 191.299 20.3547 187.781C20.7287 186.024 21.8998 184.606 23.6039 183.533C25.3094 182.576 27.2865 182.2 29.1405 182.527C31.1266 182.853 32.7252 183.884 33.932 185.271C35.0082 186.777 35.4268 188.524 35.0513 190.165C34.6773 191.923 33.5062 193.34 31.8022 194.414C30.4915 195.249 29.1749 195.616 27.7217 195.635ZM27.5611 183.015C26.2401 183.032 25.0556 183.397 23.874 183.997C22.2991 184.835 21.3922 186.249 21.0152 187.773C20.2642 191.055 22.6823 194.179 26.2581 194.835C27.98 195.164 29.825 194.79 31.3999 193.952C32.9748 193.114 33.8817 191.7 34.2587 190.175C34.6357 188.651 34.2185 187.021 33.276 185.63C32.3334 184.24 30.7377 183.442 29.0158 183.113C28.4874 183.12 27.9575 183.01 27.5611 183.015Z" fill="black"/>
<path d="M28.5261 186.158C26.6721 185.831 24.836 186.906 24.4605 188.547C24.085 190.188 25.2948 191.808 27.1487 192.135C29.0027 192.462 30.8388 191.387 31.2143 189.746C31.5898 188.105 30.3801 186.485 28.5261 186.158Z" fill="white"/>
<path d="M27.8137 192.478C27.5495 192.481 27.2852 192.484 27.0195 192.371C25.0335 192.046 23.6901 190.31 24.0626 188.435C24.3164 187.614 24.8345 186.789 25.6212 186.312C26.4079 185.834 27.4617 185.587 28.3895 185.809C29.3172 186.031 30.2479 186.487 30.7852 187.181C31.3226 187.875 31.5987 188.807 31.3449 189.628C31.103 191.384 29.6632 192.454 27.8137 192.478ZM27.7364 186.402C27.2079 186.408 26.5489 186.534 26.0249 186.891C25.3688 187.25 24.8493 187.958 24.7261 188.66C24.3491 190.184 25.4238 191.573 27.1457 191.902C28.8676 192.231 30.441 191.276 30.818 189.752C30.9411 189.049 30.8001 188.349 30.3949 187.653C29.9911 187.074 29.1925 186.617 28.3984 186.51C28.2648 186.395 28.0006 186.398 27.7364 186.402Z" fill="black"/>
<path d="M36.8144 183.364L25.2774 232.011C25.2774 232.011 44.1111 237.614 47.1357 215.722C47.3791 214.083 47.489 212.328 47.5958 210.34L59.4217 215.565L65.8574 191.76L36.8144 183.364Z" fill="#F299DE"/>
<path d="M30.5738 232.878C27.4032 232.919 25.0163 232.248 25.0163 232.248L24.7506 232.134L24.7476 231.901L36.4137 183.019L65.9882 191.641L59.4278 216.033L47.734 210.806C47.6241 212.56 47.5143 214.315 47.4001 215.719C46.4369 223.093 43.4638 228.273 38.7406 230.905C35.9857 232.459 33.0838 232.846 30.5738 232.878ZM25.5388 231.774C26.8643 232.107 32.9576 233.315 38.3384 230.442C42.9309 227.93 45.7734 222.868 46.7395 215.727C46.9829 214.088 47.0927 212.333 47.1996 210.345L47.1936 209.878L59.1532 215.218L65.3336 192.117L36.951 183.713L25.5388 231.774Z" fill="black"/>
<path d="M52.7463 199.757C51.8185 199.535 50.1487 203.296 49.0192 207.985C48.7654 208.806 48.6437 209.626 48.5205 210.329L50.1162 211.126L51.7119 211.924C51.9657 211.103 52.3397 209.345 52.4614 208.526C53.5909 203.837 53.6725 199.862 52.7463 199.757Z" fill="#F6CA4F"/>
<path d="M51.9822 212.388L48.2579 210.449L48.255 210.215C48.3767 209.395 48.6305 208.574 48.7522 207.754C49.5062 204.706 51.1522 199.076 52.8726 199.288C54.4623 199.618 53.6104 205.355 52.9885 208.402L52.8639 208.988C52.6115 209.926 52.3637 211.215 52.239 211.8L51.9822 212.388ZM49.0476 210.205L51.5755 211.575C51.6987 210.872 51.951 209.934 52.2048 209.113L52.3295 208.527C53.5851 203.369 53.2808 200.217 52.7509 200.107C52.2224 200.114 50.6713 202.822 49.4172 208.097C49.2925 208.683 49.1693 209.385 49.0476 210.205Z" fill="black"/>
<path d="M58.9792 201.547C58.0515 201.325 55.9868 205.208 54.8573 209.897C54.605 210.835 54.2251 212.125 54.1034 212.945L57.2948 214.54C57.5486 213.719 58.0487 211.492 58.2996 210.437C59.4291 205.748 59.9055 201.652 58.9792 201.547Z" fill="#F6CA4F"/>
<path d="M57.5633 214.888L53.8391 212.948L53.8361 212.715C53.9608 212.129 54.0839 211.426 54.3392 210.722C54.4669 210.369 54.4624 210.019 54.5901 209.667C55.0903 207.44 55.8561 205.326 56.7601 203.679C57.6625 201.914 58.4448 201.086 59.1068 201.195C59.7688 201.303 60.0449 202.235 59.806 204.224C59.6932 205.745 59.3236 207.853 58.6958 210.432L58.5726 211.135C58.3218 212.19 57.9448 213.714 57.8231 214.534L57.5633 214.888ZM54.4966 212.706L57.1566 214.075C57.4104 213.254 57.6598 212.082 57.9121 211.144L58.0353 210.441C59.5358 203.76 59.2493 202.011 58.9836 201.897C58.4552 201.904 56.3801 204.969 55.2551 210.009C55.1274 210.361 55.1319 210.712 55.0042 211.064C54.746 211.534 54.6213 212.12 54.4966 212.706Z" fill="black"/>
<path d="M41.4318 224.325C41.9662 224.786 41.9751 225.487 41.5847 225.96C39.1148 229.147 35.0448 231.185 30.6807 230.89C30.0202 230.898 29.4814 230.087 29.606 229.501C29.7292 228.798 30.3868 228.556 31.1794 228.546C30.9152 228.55 31.3116 228.545 31.3116 228.545C31.4437 228.543 31.5758 228.541 31.7079 228.54C31.9721 228.536 32.1042 228.535 32.3684 228.531C32.6326 228.528 32.8968 228.524 33.1596 228.404C33.2917 228.403 33.4238 228.401 33.4223 228.284C33.8171 228.162 34.3441 228.039 34.7389 227.917C34.871 227.915 35.0016 227.796 35.1338 227.795L35.2644 227.676C35.395 227.558 35.6592 227.554 35.7898 227.436C36.1832 227.197 36.5765 226.958 36.9699 226.72C37.1005 226.601 37.3632 226.481 37.4939 226.362L37.6245 226.244C37.7551 226.125 37.7551 226.125 37.8857 226.007C38.5388 225.414 39.1919 224.821 39.7114 224.114C39.9727 223.877 41.0295 223.863 41.4318 224.325Z" fill="white"/>
<path d="M61.4122 195.439L40.4619 189.629C38.8707 189.181 39.6351 186.951 41.2263 187.398L62.1766 193.209C63.7693 193.773 63.0035 195.886 61.4122 195.439Z" fill="white"/>
<path d="M141.091 185.427C191.361 184.788 231.654 148.224 231.088 103.761C230.523 59.2974 189.312 23.7711 139.042 24.4107C88.7717 25.0503 48.4783 61.6136 49.044 106.077C49.6097 150.541 90.8204 186.067 141.091 185.427Z" fill="#8398E4"/>
<path d="M141.095 185.778C116.655 186.089 93.6934 177.966 76.1925 162.879C58.6916 147.792 49.0548 127.697 48.7798 106.08C48.2133 61.5612 88.7058 24.8173 139.039 24.1769C163.479 23.8659 186.44 31.9882 203.941 47.0751C221.442 62.162 231.079 82.2573 231.354 103.874C231.629 125.491 222.374 145.827 205.263 161.354C188.282 176.763 165.535 185.467 141.095 185.778ZM139.046 24.7611C89.1096 25.3965 48.8783 61.9034 49.4403 106.072C49.7124 127.455 59.3492 147.55 76.715 162.405C94.0822 177.377 116.91 185.384 141.086 185.076C165.262 184.769 188.011 176.182 204.859 160.775C221.84 145.366 230.964 125.149 230.692 103.766C230.42 82.3826 220.783 62.2872 203.417 47.4324C186.182 32.459 163.354 24.4519 139.046 24.7611Z" fill="black"/>
<path d="M186.924 173.858C171.987 183.748 153.301 189.712 133.088 189.969C82.8875 190.608 41.6143 155.606 41.0568 111.788C40.7416 87.016 53.4071 64.767 73.5674 50.0191C58.163 64.7065 48.7689 84.4597 49.044 106.077C49.6089 150.479 90.7575 186.067 141.09 185.427C157.868 185.213 173.538 181.04 186.924 173.858Z" fill="#8398E4"/>
<path d="M133.093 190.32C108.653 190.631 85.6927 182.626 68.1948 167.773C50.6969 152.92 41.063 133.058 40.7924 111.792C40.4877 87.8377 52.3561 65.2482 73.4322 49.7874L73.8344 50.2498C57.7755 65.413 49.0434 85.2746 49.3081 106.074C49.5801 127.457 59.217 147.552 76.5828 162.407C93.95 177.379 116.778 185.386 140.954 185.078C157.071 184.873 172.876 180.932 186.523 173.513L186.926 173.975C171.468 184.456 152.777 190.07 133.093 190.32ZM70.042 53.3365C51.6051 68.5301 41.1705 89.582 41.453 111.783C41.7221 132.933 51.353 152.561 68.7172 167.299C86.0815 182.037 108.908 189.927 133.084 189.619C150.39 189.399 166.85 184.982 181.281 176.852C168.931 182.385 155.097 185.483 141.093 185.661C116.653 185.972 93.6917 177.849 76.1909 162.763C58.69 147.676 49.0532 127.58 48.7781 105.963C48.5328 86.6835 56.0923 68.1224 70.042 53.3365Z" fill="black"/>
<path d="M108.133 118.648L119.985 146.662C119.985 146.662 121.472 149.331 123.058 149.311C124.643 149.29 147.23 127.967 147.23 127.967L172.174 84.1751L108.571 111.513L108.133 118.648Z" fill="#DFE4F8"/>
<path d="M122.927 149.429C121.21 149.451 119.725 147.016 119.589 146.667L107.736 118.536L107.734 118.419L108.035 110.936L108.166 110.817L172.689 83.1167L147.227 127.733C142.01 133.059 124.512 149.409 122.927 149.429ZM108.396 118.527L120.246 146.425C120.652 147.121 121.863 148.858 122.92 148.845C124.238 148.594 137.951 136.032 146.829 127.621L171.255 84.6542L108.703 111.511L108.396 118.527Z" fill="black"/>
<path d="M123.416 125.582L121.435 146.409C121.435 146.409 120.591 152.731 127.644 146.33C134.698 139.93 141.505 134.935 141.505 134.935L123.416 125.582Z" fill="#DFE4F8"/>
<path d="M122.929 149.546C122.664 149.549 122.4 149.553 122.267 149.437C120.938 148.87 121.174 146.647 121.171 146.413L123.148 125.235L142.298 134.925L141.904 135.164C141.772 135.165 134.965 140.16 128.044 146.559C125.822 148.457 124.118 149.531 122.929 149.546ZM123.688 126.163L121.832 146.404C121.707 146.99 121.726 148.509 122.523 148.85C123.055 149.077 124.374 148.943 127.509 146.098C133.648 140.528 139.537 136.012 141.109 134.94L123.688 126.163Z" fill="black"/>
<path d="M108.277 119.581L84.5438 113.104C84.5438 113.104 81.7562 112.088 82.6527 109.856C82.7789 109.387 83.1692 108.915 84.3508 108.315C89.5935 104.976 180.906 74.7146 180.906 74.7146C180.906 74.7146 183.538 73.8631 184.998 74.4289C185.662 74.6541 186.193 74.8811 186.603 75.9277C186.74 76.2766 186.881 76.976 186.891 77.7939C186.898 78.3781 186.772 78.8472 186.783 79.6652C186.355 87.6175 170.334 147.307 170.334 147.307C170.334 147.307 169.322 150.825 165.757 150.988C164.436 151.005 162.847 150.791 160.98 149.412C153.91 144.126 129.418 129.947 123.961 126.861C123.694 126.63 123.559 126.398 123.557 126.281C123.421 125.933 123.945 125.575 123.945 125.575C123.945 125.575 165.796 91.7357 166.94 88.2152C167.069 87.9798 166.671 87.868 166.276 87.9899C163.514 88.96 115.113 116.806 109.734 119.796C109.204 119.686 108.277 119.581 108.277 119.581Z" fill="white"/>
<path d="M165.36 150.993C164.172 151.008 162.583 150.795 160.582 149.301C153.38 144.017 128.489 129.608 123.563 126.749C123.164 126.52 123.028 126.172 123.025 125.938C122.887 125.472 123.277 125 123.408 124.881C137.926 113.244 165.385 90.5726 166.274 87.7565C166.274 87.7565 166.141 87.7581 166.009 87.7598C163.247 88.7299 115.108 116.455 109.599 119.564C109.205 119.803 108.411 119.696 108.147 119.699L84.4133 113.223C83.352 112.886 81.4862 111.624 82.252 109.511C82.5088 108.923 82.8992 108.451 84.0792 107.735C89.1898 104.397 176.95 75.3496 180.767 74.1324C180.899 74.1307 183.53 73.2792 185.123 73.8432C185.919 74.0668 186.452 74.4107 186.861 75.4572C186.998 75.8061 187.14 76.6224 187.151 77.4403C187.155 77.7909 187.16 78.1414 187.032 78.4936C187.035 78.7273 187.038 78.961 186.91 79.3132C186.483 87.2656 171.093 144.609 170.464 147.072C170.464 147.072 169.454 150.824 165.625 150.99C165.625 150.99 165.493 150.991 165.36 150.993ZM166.4 87.2874C166.664 87.284 166.798 87.3992 166.931 87.5144C167.065 87.6295 167.2 87.8616 167.069 87.9801C165.925 91.5006 125.643 124.035 123.943 125.459C123.813 125.577 123.684 125.813 123.685 125.929C123.688 126.163 123.822 126.278 123.955 126.393C128.881 129.252 153.772 143.661 160.974 148.945C162.842 150.324 164.43 150.537 165.617 150.405C168.918 150.247 169.802 146.963 169.802 146.963C169.926 146.377 185.821 87.1571 186.25 79.3216C186.245 78.9711 186.242 78.7374 186.372 78.502C186.367 78.1515 186.363 77.8009 186.492 77.5655C186.483 76.8644 186.342 76.165 186.337 75.8145C185.929 74.8848 185.531 74.773 185 74.546C183.541 74.0971 181.172 74.8284 181.04 74.8301C180.118 75.0756 89.5966 105.21 84.6166 108.429C83.5687 109.144 83.1768 109.499 83.0491 109.851C82.2818 111.848 84.6716 112.752 84.8037 112.751L108.537 119.227C108.934 119.222 109.33 119.217 109.462 119.215C118.381 114.077 163.241 88.2625 166.003 87.2924C166.005 87.4093 166.268 87.2891 166.4 87.2874Z" fill="black"/>
<path d="M101.677 47.3242C102.774 50.4656 103.605 53.4936 104.04 56.5266C104.328 58.3928 104.482 60.1438 104.373 61.8982C104.321 68.2097 102.673 73.7234 99.6838 77.618C97.6028 80.2156 94.8508 82.0036 91.6906 82.8619C80.1008 85.8141 65.689 74.6614 59.6622 57.9093C53.6354 41.1571 58.189 25.2053 69.7788 22.2531C70.5685 22.0093 71.4918 21.8806 72.2844 21.8706C74.6609 21.7235 77.0433 22.0438 79.4301 22.7146C81.155 23.277 82.7507 24.0748 84.4799 24.9877C91.5381 29.3388 98.114 37.3189 101.677 47.3242Z" fill="white"/>
<path d="M88.0021 83.7269C77.0372 83.8664 64.7465 73.271 59.269 58.148C55.4332 47.4451 55.6927 36.69 60.0937 29.5052C62.424 25.7358 65.6955 23.24 69.6468 22.2548C70.4365 22.011 71.3598 21.8823 72.2845 21.8706C74.661 21.7235 77.0434 22.0438 79.5638 22.8298C81.2887 23.3921 82.8844 24.1899 84.6137 25.1028L84.7473 25.218C92.2018 29.5641 98.65 37.8965 102.076 47.5529C103.172 50.5775 104.004 53.7223 104.439 56.7553C104.727 58.6215 104.883 60.4893 104.773 62.2437C104.722 68.5552 103.077 74.3026 99.9556 78.1989C97.7439 80.915 94.992 82.703 91.6997 83.563C90.5092 83.4613 89.1911 83.7118 88.0021 83.7269ZM73.3459 22.2077C72.9495 22.2127 72.6853 22.2161 72.289 22.2211C71.4978 22.3481 70.5746 22.4767 69.7834 22.6036C65.9642 23.5871 62.8233 25.9644 60.6236 29.6153C56.3532 36.6816 56.0907 47.203 59.925 57.7891C65.9489 74.3075 80.0965 85.4636 91.5542 82.513C94.7158 81.7716 97.3357 79.9853 99.4167 77.3877C102.408 73.6099 104.055 68.0962 104.107 61.7848C104.085 60.032 103.93 58.281 103.774 56.4131C103.339 53.3801 102.64 50.3505 101.545 47.3259C98.1216 37.9032 91.6748 29.6877 84.3524 25.3399L84.2203 25.3416C82.6231 24.427 80.8953 23.6309 79.3026 23.0668C77.1814 22.5095 75.1954 22.1842 73.3459 22.2077Z" fill="black"/>
<path d="M101.677 47.3244C102.774 50.4658 103.605 53.4938 104.04 56.5268C104.328 58.393 104.482 60.144 104.373 61.8984C97.613 70.6326 80.4019 67.9299 74.4256 55.1506L83.4013 44.0509L69.5984 49.6024C69.4633 49.3704 69.3282 49.1384 69.1931 48.9063C63.3921 39.5139 64.8436 28.9775 71.759 22.1112C74.3997 21.9607 77.0463 22.2776 79.6989 23.062C81.2901 23.5092 82.8843 24.1901 84.3494 25.1064C91.5382 29.339 98.1141 37.3192 101.677 47.3244Z" fill="black"/>
<path d="M93.2104 67.299C92.5498 67.3074 91.8893 67.3158 91.2273 67.2074C83.8188 66.4835 77.2861 61.892 74.1614 55.1535L74.0278 55.0383L82.3518 44.6481L69.3371 49.839L69.202 49.607C69.2005 49.4901 69.067 49.3749 69.067 49.3749C68.9334 49.2598 68.9319 49.1429 68.7968 48.9109C62.9972 39.6354 64.0509 28.9871 71.4904 21.7636L71.621 21.645L71.7531 21.6433C74.3937 21.4929 77.0404 21.8098 79.8265 22.7093C81.4178 23.1565 82.8799 23.8391 84.477 24.7537L84.6106 24.8689C92.0652 29.215 98.5134 37.5473 101.939 47.2037C103.035 50.2283 103.868 53.3731 104.303 56.4061C104.591 58.2723 104.747 60.1402 104.637 61.8946L104.638 62.0115L104.64 62.1283C102.17 65.3151 97.9662 67.2385 93.2104 67.299ZM74.8219 55.1451C77.8101 61.5347 84.2092 66.0111 91.2198 66.6231C96.5116 67.1401 101.245 65.3269 103.975 61.7862C103.954 60.1503 103.798 58.2824 103.644 56.5314C103.209 53.4984 102.51 50.4687 101.414 47.4441C97.9909 38.0215 91.5442 29.8059 84.2217 25.4582C82.6261 24.6604 81.1639 23.9778 79.5712 23.4137C76.9187 22.6294 74.4027 22.194 71.8956 22.4596C64.7174 29.4461 63.7928 39.859 69.4558 48.7857C69.5894 48.9008 69.5909 49.0177 69.726 49.2497L84.4492 43.3359L74.8219 55.1451Z" fill="black"/>
<path d="M48.9421 56.5265C44.3183 56.5853 39.6619 54.0735 37.3625 49.8956L37.888 49.6551C40.3209 53.9483 45.2416 56.4567 49.9915 55.9288C54.0824 55.5262 56.6918 52.9219 57.6032 51.8585L58.1361 52.2023C57.0926 53.2674 54.3526 55.9902 49.9975 56.3962C49.7347 56.5164 49.3384 56.5215 48.9421 56.5265Z" fill="black"/>
<path d="M51.0605 67.2513C47.0973 67.3017 42.9781 65.4843 40.2958 62.363L40.8198 62.0057C44.1716 65.8197 49.346 67.5069 53.9549 66.2796C57.9048 65.1775 59.9828 62.3463 60.6285 61.1694L61.1599 61.3964C60.3836 62.6918 58.1765 65.7584 54.0945 66.8621C53.1727 67.1076 52.1173 67.2379 51.0605 67.2513Z" fill="black"/>
<path d="M53.599 79.8402C49.9 79.8873 46.054 78.7675 42.9858 76.4692L43.3761 75.9968C48.3102 79.5569 55.0581 80.2891 59.9149 77.7731C64.1156 75.6161 65.6518 71.7399 66.1609 70.2142L66.8229 70.3226C66.3153 71.9652 64.7805 75.9582 60.3171 78.2355C58.2153 79.1971 55.9769 79.8099 53.599 79.8402Z" fill="black"/>
<path d="M168.287 27.8943C169.384 31.0357 170.215 34.0637 170.65 37.0967C170.938 38.9629 171.092 40.7139 170.983 42.4683C170.931 48.7798 169.285 54.4103 166.295 58.305C164.214 60.9025 161.596 62.8057 158.304 63.6657C146.715 66.7348 132.437 55.6972 126.28 39.0636C120.254 22.4283 124.674 6.36133 136.263 3.29222C137.052 3.04844 137.976 2.91983 138.767 2.7929C141.142 2.52894 143.524 2.84924 145.78 3.6386C147.505 4.20099 149.099 4.8819 150.83 5.91168C158.018 10.0274 164.593 18.0076 168.287 27.8943Z" fill="white"/>
<path d="M154.483 64.5325C143.518 64.672 131.361 54.1918 125.885 39.1857C122.049 28.4827 122.309 17.7277 126.576 10.4276C128.906 6.65825 132.176 4.04557 136.126 2.94351C136.916 2.69973 137.839 2.57112 138.762 2.44251C141.137 2.17856 143.52 2.49885 146.04 3.28485C147.765 3.84724 149.359 4.52815 151.09 5.55793L151.224 5.67309C158.677 9.90234 165.125 18.2347 168.682 27.7725C169.777 30.7971 170.61 33.9419 171.045 36.9749C171.333 38.8411 171.489 40.709 171.379 42.4634C171.329 48.8918 169.683 54.5223 166.561 58.4186C164.351 61.2516 161.599 63.0396 158.439 63.8978C157.124 64.382 155.804 64.5157 154.483 64.5325ZM139.96 3.12848C139.564 3.13352 139.168 3.13856 138.771 3.1436C137.98 3.27054 137.057 3.39914 136.266 3.52607C132.446 4.5096 129.307 7.00374 127.107 10.6546C122.839 17.8378 122.576 28.3592 126.41 38.9453C132.434 55.4637 146.579 66.3861 158.036 63.4355C161.197 62.5772 163.817 60.7909 165.898 58.1933C168.887 54.2987 170.534 48.785 170.588 42.5904C170.565 40.8377 170.411 39.0866 170.255 37.2187C169.82 34.1857 168.989 31.1578 167.893 28.1332C164.47 18.7105 158.024 10.495 150.703 6.26405C148.972 5.23427 147.378 4.55336 145.653 3.99097C143.794 3.31341 141.81 3.10494 139.96 3.12848Z" fill="black"/>
<path d="M168.287 27.8938C169.384 31.0353 170.215 34.0632 170.65 37.0962C170.938 38.9625 171.092 40.7135 170.983 42.4679C165.4 50.2521 150.099 52.3167 141.04 36.0706L150.014 24.854L136.214 30.6393C136.079 30.4072 135.944 30.1752 135.809 29.9432C130.009 20.6676 131.327 10.016 138.373 3.0312C141.013 2.76389 143.659 3.08081 146.313 3.98197C147.905 4.4292 149.367 5.11181 150.962 5.90957C158.018 10.027 164.593 18.0072 168.287 27.8938Z" fill="black"/>
<path d="M159.038 48.6973C158.774 48.7006 158.377 48.7057 157.981 48.7107C154.015 48.5275 146.46 46.6369 140.645 36.1928L140.511 36.0777L148.834 25.5706L135.822 30.9952L135.687 30.7632C135.686 30.6463 135.552 30.5312 135.552 30.5312C135.419 30.416 135.417 30.2991 135.282 30.0671C129.484 20.9084 130.536 10.1433 137.843 2.92142L137.974 2.80291L138.106 2.80123C140.745 2.53391 143.392 2.85083 146.178 3.75032C147.769 4.19754 149.231 4.88013 150.827 5.6779L150.961 5.79307C158.414 10.0223 164.862 18.3547 168.419 27.8925C169.514 30.9171 170.347 34.0619 170.782 37.0949C171.07 38.9611 171.226 40.829 171.116 42.5834L171.118 42.7002L171.119 42.8171C168.521 46.3562 163.926 48.6351 159.038 48.6973ZM141.438 36.1827C146.982 46.1627 154.272 47.9399 158.106 48.1248C163.129 48.2946 167.859 46.2477 170.586 42.4733C170.565 40.8374 170.409 38.9695 170.255 37.2185C169.82 34.1855 168.989 31.1575 167.893 28.1329C164.47 18.7103 158.023 10.4947 150.702 6.26382C149.107 5.46605 147.645 4.78346 146.053 4.33624C143.401 3.55192 140.886 3.23332 138.378 3.3821C131.333 10.4837 130.277 20.8983 135.94 29.825C136.073 29.9402 136.075 30.057 136.21 30.289L150.93 24.1416L141.438 36.1827Z" fill="black"/>
<path d="M165.113 17.2995C163.528 17.3196 162.204 17.1028 161.408 16.8791L161.533 16.2932C162.99 16.6253 166.83 17.2776 170.375 15.4795C174.576 13.3225 176.763 8.73682 175.91 3.95614L176.569 3.8309C177.558 8.84359 175.241 13.6646 170.777 15.9419C168.809 17.0187 166.83 17.2776 165.113 17.2995Z" fill="black"/>
<path d="M170.918 27.0431C168.276 27.0767 166.152 26.2857 165.091 25.9486L165.349 25.4778C166.677 26.0453 170.393 27.2835 174.209 26.0663C178.683 24.607 181.801 20.477 181.872 15.6845L182.533 15.6761C182.465 20.7022 179.217 25.0676 174.349 26.6489C173.295 26.896 171.975 27.0296 170.918 27.0431Z" fill="black"/>
<path d="M175.958 38.8988C171.466 38.956 168.005 36.8964 166.672 35.9784L167.062 35.506C168.529 36.5391 172.257 38.829 177.139 38.2994C182.814 37.7598 187.65 33.6079 189.298 28.0942L189.96 28.2026C188.315 33.95 183.216 38.2221 177.279 38.882C176.883 38.887 176.486 38.8921 175.958 38.8988Z" fill="black"/>
<path d="M122.187 49.7512C122.223 52.5555 119.611 54.9262 116.44 54.9665C113.269 55.0068 110.598 52.7035 110.562 49.8991C110.526 47.0948 113.139 44.7242 116.309 44.6839C119.48 44.6435 122.152 46.9468 122.187 49.7512Z" fill="#F6CA4F"/>
<path d="M116.444 55.3167C113.01 55.3604 110.336 52.9403 110.299 50.0191C110.261 46.981 113.005 44.6087 116.308 44.5667C119.743 44.523 122.416 46.9432 122.453 49.8644C122.49 52.7856 119.747 55.2747 116.444 55.3167ZM116.314 45.0341C113.275 45.0728 110.926 47.3231 110.958 49.8938C110.992 52.5813 113.529 54.6526 116.436 54.6157C119.474 54.577 121.824 52.3266 121.791 49.756C121.757 47.0685 119.352 44.9955 116.314 45.0341Z" fill="black"/>
<path d="M111.054 78.1744C120.632 83.3116 135.249 79.3859 140.175 71.9606C144.063 65.9509 141.465 59.0888 136.565 58.2162C127.163 56.5829 123.184 65.7491 123.184 65.7491C123.184 65.7491 110.549 59.2484 105.498 67.2597C103.811 69.7353 105.066 74.8615 111.054 78.1744Z" fill="white"/>
<path d="M121.392 80.7309C117.561 80.7797 113.852 80.0088 110.791 78.2948C104.937 75.097 103.285 69.859 105.097 66.9143C106.262 65.0296 108.095 63.7207 110.334 63.1079C115.471 61.8739 121.45 64.4857 122.912 65.1683C123.684 63.5224 127.951 56.2223 136.559 57.7489C138.545 58.0743 140.28 59.4546 141.363 61.4276C142.988 64.5623 142.642 68.5402 140.439 71.9573C137.977 75.7284 132.994 78.7135 127.198 80.0727C125.222 80.5654 123.242 80.7074 121.392 80.7309ZM113.244 63.4215C112.32 63.4332 111.529 63.5602 110.737 63.6871C108.63 64.1814 106.927 65.3717 105.892 67.1379C104.337 69.495 105.458 74.506 111.314 77.8207C115.571 80.1038 121.392 80.7309 127.058 79.4902C132.724 78.2494 137.575 75.266 139.908 71.7304C141.982 68.5486 142.33 64.8044 140.839 61.7848C139.89 59.927 138.288 58.6619 136.567 58.3332C127.561 56.6948 123.579 65.6273 123.58 65.7442L123.452 66.0964L123.053 65.8677C122.921 65.8694 118 63.361 113.244 63.4215Z" fill="black"/>
<path d="M127.325 79.7206L122.652 65.5222L123.31 65.2802L127.851 79.4801L127.325 79.7206Z" fill="black"/>
<path d="M111.286 63.2688L110.645 63.4114L115.292 79.9575L115.934 79.815L111.286 63.2688Z" fill="black"/>
<path d="M136.255 75.3996L130.757 58.6407L131.282 58.4003L136.914 75.2743L136.255 75.3996Z" fill="black"/>
<path d="M245.195 90.9595C239.78 91.1453 234.213 89.6969 229.034 87.6592C227.922 83.3492 226.546 79.0427 224.646 75.0934C226.375 76.0063 228.235 76.8007 230.095 77.5951C234.745 79.6395 246.705 84.9801 250.061 78.7435C251.867 75.3314 251.417 71.1299 251.239 67.5093C251.048 62.837 250.194 58.0563 249.211 53.511C247.243 44.1867 244.485 35.1062 241.594 26.0274C239.669 20.0917 250.077 17.7388 252.003 23.6745C254.894 32.8702 257.788 42.1827 259.624 51.5087C262.433 64.562 267.514 90.0912 245.195 90.9595Z" fill="black"/>
<path d="M244.858 22.9476C244.858 22.9476 229.577 5.72882 222.373 10.7289C216.742 14.6571 235.69 29.2581 235.69 29.2581L244.858 22.9476Z" fill="white"/>
<path d="M235.696 29.7253L235.43 29.6118C234.896 29.1512 220.885 18.344 220.947 12.8504C220.935 11.9156 221.322 11.2095 222.109 10.732C223.288 9.89898 224.606 9.64847 226.192 9.74514C233.999 10.5808 244.587 22.3665 244.991 22.9457L245.258 23.176L235.696 29.7253ZM225.406 10.2226C224.349 10.2361 223.427 10.4815 222.642 11.0759C221.987 11.5517 221.729 12.0224 221.739 12.8403C221.67 17.7496 233.952 27.6439 235.687 29.0242L244.332 23.0709C242.856 21.3367 233.08 11.0599 226.2 10.3294C225.934 10.2159 225.67 10.2193 225.406 10.2226Z" fill="black"/>
<path d="M252.873 19.3393C252.873 19.3393 251.545 -1.91353 242.859 0.768059C234.04 3.45133 243.667 22.7287 243.667 22.7287L252.873 19.3393Z" fill="white"/>
<path d="M243.408 23.1995L243.273 22.9675C243.002 22.3866 236.626 9.37863 239.587 3.26388C240.231 1.97015 241.276 1.02193 242.725 0.652892C244.172 0.167011 245.496 0.383891 246.694 1.06985C252.286 4.38784 253.131 18.8686 253.138 19.4528L253.141 19.6865L243.408 23.1995ZM244.313 0.866414C243.917 0.871457 243.39 0.995025 242.995 1.11692C241.679 1.48427 240.764 2.31397 240.251 3.48917C237.677 8.89779 242.978 20.517 243.794 22.3765L252.607 19.2259C252.452 17.4748 251.361 4.39961 246.434 1.42376C245.769 1.08162 245.106 0.856329 244.313 0.866414Z" fill="black"/>
<path d="M233.604 31.5045C233.604 31.5045 231.635 42.8657 243.799 43.529C243.799 43.529 241.221 48.5871 248.085 48.0323C254.948 47.4775 267.699 42.2899 261.831 38.0405C261.831 38.0405 271.482 28.1009 258.96 20.0796L233.604 31.5045Z" fill="white"/>
<path d="M247.428 48.3914C245.579 48.4149 244.252 47.9643 243.581 47.1548C242.641 45.9981 243.15 44.4724 243.406 43.7679C240.099 43.4594 237.575 42.4397 235.832 40.4751C232.484 36.8949 233.342 31.6249 233.471 31.3896L233.469 31.2727L233.6 31.1542L259.087 19.7276L259.221 19.8427C263.085 22.3646 265.236 25.2589 265.674 28.5256C266.262 33.1928 263.14 37.0891 262.359 38.034C263.829 39.3008 263.844 40.4693 263.59 41.2906C262.313 44.8129 253.501 47.9635 248.221 48.3813C247.825 48.3864 247.561 48.3897 247.428 48.3914ZM234.004 31.7334C233.882 32.553 233.544 37.1151 236.358 40.2347C238.099 42.0824 240.623 43.1021 243.928 43.2938L244.457 43.2871L244.197 43.641C244.197 43.641 243.165 45.6408 244.105 46.7976C244.776 47.6071 246.101 47.9408 248.082 47.7988C253.097 47.3843 261.648 44.4707 262.796 41.1839C263.18 40.244 262.771 39.1975 261.571 38.3946L261.304 38.1643L261.565 37.9273C261.565 37.9273 265.607 33.6686 265.015 28.6509C264.58 25.6179 262.562 22.8387 258.966 20.5472L234.004 31.7334Z" fill="black"/>
<path d="M244.068 43.8764C243.936 43.8781 243.936 43.8781 243.936 43.8781L243.928 43.2939C243.928 43.2939 247.759 43.2451 250.393 42.5104L250.664 43.0913C248.162 43.7075 244.86 43.8663 244.068 43.8764Z" fill="black"/>
<path d="M256.581 40.7957L256.441 40.2132C256.441 40.2132 258.944 39.597 261.696 37.809L262.098 38.2713C259.215 40.1779 256.713 40.7941 256.581 40.7957Z" fill="black"/>
<path d="M257.44 14.8403C255.724 14.979 254.02 16.0525 253.111 17.3496C251.814 19.236 251.976 21.5712 252.397 23.5526C252.816 25.3003 253.898 27.2733 256.278 27.3599C259.717 27.6667 261.266 24.8422 261.765 22.4985C262.265 20.2717 262.097 17.469 260.226 15.7398C259.556 15.0471 258.495 14.71 257.44 14.8403Z" fill="white"/>
<path d="M256.811 27.7036C256.678 27.7053 256.414 27.7087 256.282 27.7104C254.165 27.5036 252.694 26.1199 252.135 23.6728C251.44 20.9937 251.81 18.8854 252.846 17.2361C253.885 15.8205 255.589 14.747 257.305 14.6083C258.492 14.4763 259.685 14.8117 260.488 15.6196C262.895 17.8094 262.409 21.2047 262.163 22.6103C261.543 25.7736 259.453 27.67 256.811 27.7036ZM257.444 15.1908C255.992 15.3262 254.287 16.2828 253.377 17.4631C252.339 18.9955 252.101 20.9853 252.66 23.4324C253.076 24.9464 254.026 26.921 256.273 27.0093C259.977 27.3128 261.121 23.7922 261.499 22.385C261.747 21.0963 262.236 17.9347 260.097 15.9752C259.427 15.2825 258.499 15.0605 257.444 15.1908Z" fill="black"/>
<path d="M233.607 31.738C235.384 25.9889 245.633 21.5345 249.577 19.965C251.813 19.1185 254.182 18.3871 256.048 19.6489C262.046 23.7798 248.417 32.6014 248.417 32.6014C248.417 32.6014 252.289 35.8244 248.892 38.7893" fill="white"/>
<path d="M249.025 38.9045L248.623 38.4422C249.537 37.6125 249.923 36.7895 249.911 35.8547C249.889 34.102 248.152 32.6049 248.152 32.6049L247.885 32.3745L248.146 32.1375C248.279 32.1358 257.058 26.4145 257.269 22.2046C257.257 21.2698 256.85 20.4569 255.917 19.7676C254.183 18.5041 251.814 19.2354 249.843 20.0786C244.584 22.1322 235.654 26.4531 234.136 31.7314L233.474 31.623C235.123 26.2261 244.315 21.7851 249.573 19.6146C251.676 18.7697 254.308 17.9182 256.309 19.412C257.376 20.2165 258.048 21.1428 257.931 22.313C257.851 26.4044 250.517 31.523 248.945 32.5948C249.481 33.1723 250.554 34.4442 250.706 35.9615C250.587 37.0148 250.072 38.0732 249.025 38.9045Z" fill="black"/>
<path d="M77.12 152.7C74.4957 154.136 71.8699 155.455 69.2456 156.891C61.763 160.726 54.0103 164.097 45.8493 166.538C38.3475 168.854 27.5503 171.796 20.2309 167.682C11.5814 162.884 14.0868 152.1 17.0361 145.05C23.9692 129.185 36.4865 116.054 49.0098 103.39C49.0142 103.74 49.0172 103.974 49.0216 104.324C48.9445 108.649 49.1317 112.971 49.8457 117.169C46.5861 120.6 43.4587 124.029 40.4663 127.69C35.522 133.713 30.8494 140.317 27.6344 147.253C26.3475 149.957 24.6762 153.601 24.9791 156.636C24.991 157.571 25.2745 159.086 25.8104 159.664C25.8104 159.664 27.0053 160.116 27.9316 160.221C30.4461 160.54 34.1362 159.792 36.903 159.172C40.9879 158.302 44.9348 156.966 48.8802 155.514C53.7459 153.699 58.3429 151.537 62.9384 149.258C65.8269 147.819 68.7139 146.263 71.601 144.707C77.5027 141.243 83.0247 149.47 77.12 152.7Z" fill="black"/>
<path d="M98.0525 157.109C96.4791 158.064 94.7721 158.904 93.0621 159.51C90.564 160.476 87.9308 161.211 85.299 162.063C85.0363 162.183 84.6415 162.305 84.3772 162.308C76.0812 164.517 71.5375 160.485 71.5375 160.485L69.0468 162.036C67.8668 162.752 66.2829 162.889 65.0865 162.32C62.5616 161.183 60.4271 159.574 58.8165 157.608C57.0709 155.41 55.9813 152.853 55.4202 150.289C55.2806 149.706 55.1426 149.24 55.1352 148.656C54.9837 147.139 55.6264 145.728 56.8035 144.778C57.1954 144.423 60.219 143.216 60.4787 142.862C60.4772 142.745 60.6064 142.509 60.6049 142.393C65.5385 125.15 80.9403 131.032 80.9403 131.032C80.9403 131.032 100.606 118.978 105.414 123.007C110.757 127.497 94.0784 135.539 89.7427 137.464C92.3729 136.496 95.024 137.163 96.8943 138.776C97.4287 139.236 97.831 139.699 98.2347 140.278C99.7191 142.713 98.7024 145.881 95.946 147.319C95.6833 147.439 95.4205 147.559 95.2899 147.678C96.6095 147.544 98.3343 148.107 99.3986 148.677C101.262 149.705 102.212 151.68 101.707 153.556C101.064 154.967 99.6259 156.154 98.0525 157.109Z" fill="white"/>
<path d="M79.7654 163.302C75.1417 163.361 72.2115 161.528 71.5435 160.952L69.3156 162.383C68.0049 163.218 66.2875 163.24 64.959 162.672C62.4356 161.653 60.301 160.044 58.5554 157.845C56.8097 155.647 55.7202 153.09 55.0254 150.411C54.8859 149.828 54.7478 149.363 54.7404 148.778C54.5875 147.144 55.2302 145.734 56.5379 144.665C56.7991 144.428 57.3246 144.188 58.3755 143.707C59.033 143.465 59.9518 142.986 60.0825 142.867C60.081 142.75 60.081 142.75 60.0795 142.633C60.078 142.517 60.078 142.517 60.0765 142.4C61.7211 136.652 64.712 132.874 68.7835 130.953C74.0396 128.665 79.6104 130.348 80.5396 130.686C82.5064 129.493 100.473 118.863 105.279 122.775C106.214 123.581 106.621 124.394 106.37 125.449C105.759 129.314 97.0992 134.099 91.714 136.621C93.5635 136.598 95.2883 137.16 96.8899 138.425C97.4243 138.886 97.9602 139.463 98.2304 139.927C99.7148 142.363 98.8301 145.529 96.2088 147.199C97.2672 147.302 98.4621 147.755 99.2607 148.212C101.257 149.355 102.209 151.447 101.704 153.323C101.326 154.73 100.021 156.032 98.1862 157.224C96.7434 158.061 95.1685 158.899 93.0637 159.627C91.2231 160.351 89.381 160.959 87.5375 161.45C86.7478 161.694 86.0903 161.936 85.3006 162.18L85.0378 162.3C84.7751 162.42 84.5109 162.424 84.2482 162.544C82.6688 163.031 81.2186 163.284 79.7654 163.302ZM71.5331 160.135L71.6667 160.25C71.6667 160.25 76.2089 164.165 84.2407 161.96C84.505 161.956 84.7677 161.836 84.8983 161.717L85.161 161.597C85.9507 161.353 86.6083 161.111 87.3979 160.868C89.24 160.26 91.0836 159.769 92.9242 159.044C94.8954 158.201 96.6039 157.478 97.9145 156.643C99.7506 155.568 100.793 154.386 101.173 153.096C101.68 151.453 100.864 149.594 99.0009 148.566C97.9366 147.995 96.3439 147.431 95.1564 147.563L95.0169 146.98C95.149 146.979 95.4117 146.858 95.6744 146.738C98.2987 145.302 99.1863 142.37 97.8355 140.049C97.5653 139.585 97.1631 139.123 96.6287 138.662C94.6263 137.052 92.1103 136.616 89.8749 137.463L89.6032 136.882C93.2814 135.199 105.364 129.436 106.102 125.102C106.223 124.283 105.95 123.585 105.149 122.894C103.28 121.398 98.5343 122.277 91.5712 125.404C86.186 127.927 81.2031 130.912 81.2031 130.912L81.0725 131.03L80.9389 130.915C80.9389 130.915 74.9643 128.654 69.4455 131.061C65.5046 132.864 62.6443 136.524 60.9968 142.037C60.9983 142.154 60.9983 142.154 60.9998 142.271C61.0013 142.388 61.0013 142.388 61.0028 142.505C60.8751 142.857 60.4803 142.979 58.9039 143.7C58.2463 143.942 57.4582 144.303 57.329 144.538C56.152 145.488 55.5078 146.782 55.6577 148.182C55.6651 148.767 55.8032 149.232 55.9427 149.815C56.5054 152.496 57.7256 154.934 59.3376 157.017C61.0818 159.099 63.0842 160.709 65.4755 161.731C66.6704 162.183 67.9915 162.166 69.1716 161.45L71.5331 160.135Z" fill="black"/>
<path d="M71.5375 160.484C71.5375 160.484 69.6791 159.807 66.4624 156.225L71.5375 160.484Z" fill="white"/>
<path d="M71.4085 160.72C71.2764 160.722 69.5486 159.925 66.1998 156.345L66.7237 155.988C69.9389 159.453 71.6667 160.249 71.6667 160.249L71.4085 160.72Z" fill="black"/>
<path d="M61.8891 149.856C61.8891 149.856 60.0084 147.426 60.3452 142.747L61.8891 149.856Z" fill="white"/>
<path d="M61.6263 149.976C61.4928 149.861 59.7426 147.312 60.081 142.75L60.7415 142.742C60.4017 147.187 62.1503 149.619 62.2824 149.617L61.6263 149.976Z" fill="black"/>
<path d="M86.069 139.497L85.7973 138.916L89.2113 137.237L89.6136 137.699L86.069 139.497Z" fill="black"/>
<path d="M95.1994 147.123L90.992 148.832L91.2661 149.363L95.4734 147.654L95.1994 147.123Z" fill="black"/>
<path d="M80.7935 130.674L73.7006 134.318L74.031 134.823L81.124 131.179L80.7935 130.674Z" fill="black"/>
</svg>
