<svg width="283" height="286" viewBox="0 0 283 286" fill="none" xmlns="http://www.w3.org/2000/svg">
<path d="M38.2043 3.07214L34.4048 6.60027L52.7239 26.412L56.5233 22.8839L38.2043 3.07214Z" fill="#8ED4B5"/>
<path d="M0.797 65.622L0 70.8539L24.5494 74.5937L25.3464 69.3618L0.797 65.622Z" fill="#8ED4B5"/>
<path d="M38.2038 45.2736L14.0498 29.5328L11.2002 33.8751L35.3542 49.7517L38.2038 45.2736Z" fill="#8ED4B5"/>
<path d="M227.501 46.2236L275.538 60.8788C280.966 62.5072 283.951 68.6136 282.187 74.3129L274.859 98.3312C273.095 104.03 267.26 107.287 261.832 105.659L232.25 96.5671C231.165 98.1955 228.994 101.181 225.058 103.352C220.038 106.202 215.288 105.93 213.524 105.659C214.61 104.845 217.324 102.402 218.545 98.1955C219.223 95.8886 219.088 93.8532 218.952 92.4962C217.188 91.9534 215.56 91.4106 213.796 90.8678C208.368 89.2395 205.382 83.1331 207.146 77.4339L214.474 53.4155C216.102 47.8519 222.073 44.5952 227.501 46.2236Z" fill="white"/>
<path d="M264.682 106.337C263.732 106.337 262.647 106.202 261.697 105.93L232.251 96.8386C230.894 98.8741 228.587 101.588 225.059 103.488C220.309 106.202 215.696 106.066 213.389 105.795L212.71 105.659L213.253 105.252C214.61 104.166 217.188 101.724 218.274 97.9242C218.817 96.1602 218.952 94.3961 218.681 92.6321L213.66 91.1394C210.946 90.3252 208.775 88.4255 207.418 85.8472C206.061 83.269 205.925 80.2836 206.74 77.434L214.067 53.4156C215.831 47.5807 221.802 44.1883 227.501 45.9523L275.538 60.6076C281.101 62.3717 284.222 68.478 282.458 74.313L275.131 98.3313C274.317 101.181 272.417 103.488 269.839 104.845C268.21 105.93 266.446 106.337 264.682 106.337ZM231.979 96.2958H232.115L261.697 105.388C264.275 106.202 266.989 105.795 269.432 104.573C271.874 103.216 273.638 101.045 274.452 98.3313L281.78 74.313C283.544 68.7494 280.559 62.9144 275.267 61.2861L227.23 46.6308C221.938 45.0024 216.238 48.2592 214.474 53.8228L207.147 77.8411C206.333 80.555 206.604 83.4047 207.825 85.8472C209.046 88.2898 211.218 90.0538 213.66 90.868L218.952 92.4963V92.6321C219.224 94.5318 219.088 96.5672 218.545 98.3313C217.595 101.859 215.424 104.302 213.932 105.523C216.374 105.659 220.445 105.523 224.652 103.216C228.18 101.181 230.487 98.467 231.708 96.5673L231.979 96.2958Z" fill="black"/>
<path d="M225.465 53.2799C228.179 53.2799 230.893 53.8227 233.743 54.6369C240.528 56.6723 244.191 59.9291 244.598 64.1357C244.734 65.0855 244.598 66.1711 244.191 67.2567C243.377 70.1063 241.885 71.8704 239.985 72.8202C239.306 73.2273 238.356 73.4987 237.135 73.9058C236.05 74.3129 235.1 74.5843 234.557 74.8557C233.2 75.5342 231.979 76.484 231.164 77.841L223.837 75.5342C223.837 74.1772 223.973 73.0916 224.244 72.0061C224.515 71.0562 224.922 70.242 225.465 69.6992C225.872 69.1564 226.415 68.7493 226.958 68.3422C227.501 68.0708 228.043 67.7994 228.722 67.6637C229.265 67.528 229.808 67.3924 230.35 67.2567C230.893 67.121 231.3 66.9853 231.707 66.7139C232.114 66.5782 232.25 66.1711 232.386 65.8997C232.929 64.2713 231.979 63.1858 229.943 62.5073C228.451 62.1002 226.551 61.8288 224.244 61.9645C223.701 61.9645 223.294 61.9645 223.158 62.1002L225.465 53.2799ZM229.808 83.8117C229.129 86.2542 226.551 87.6112 224.108 86.797C221.666 86.1185 220.309 83.5403 221.123 81.0978C221.801 78.6552 224.38 77.2982 226.822 78.1124C229.129 78.9266 230.486 81.3691 229.808 83.8117Z" fill="#FF7300"/>
<path d="M225.465 87.3398C225.058 87.3398 224.516 87.2041 224.109 87.0685C221.53 86.2543 220.173 83.5403 220.852 80.9621C221.259 79.7408 222.073 78.6552 223.159 78.1125C224.244 77.5697 225.601 77.434 226.822 77.7054C229.401 78.5196 230.758 81.2335 230.079 83.8117C229.401 85.9829 227.501 87.3398 225.465 87.3398ZM225.465 78.2482C224.787 78.2482 224.109 78.3838 223.43 78.7909C222.48 79.3337 221.666 80.2836 221.395 81.3692C220.716 83.676 221.937 85.9829 224.244 86.797C226.551 87.4755 228.858 86.2542 229.536 83.9474C230.215 81.6406 228.994 79.3337 226.687 78.5195C226.28 78.2481 225.873 78.2482 225.465 78.2482ZM231.165 78.1125L223.43 75.6699V75.5342C223.43 74.1773 223.566 72.956 223.837 72.0061C224.109 70.9205 224.516 70.1064 225.058 69.5636C225.601 69.0208 226.144 68.478 226.687 68.2066C227.23 67.9352 227.908 67.6638 228.451 67.3924L230.079 66.9853C230.622 66.8496 231.029 66.7139 231.3 66.4425C231.572 66.3068 231.843 66.0354 231.843 65.764C232.25 64.4071 231.572 63.3215 229.536 62.7787C228.044 62.3716 226.144 62.1002 223.837 62.2359C223.294 62.2359 222.887 62.2359 222.752 62.2359H222.344L225.194 53.0085H225.465C228.179 53.0085 231.029 53.5513 233.743 54.3655C240.664 56.5367 244.327 59.7934 244.734 64.1357C244.87 65.0856 244.734 66.1711 244.327 67.2567C243.513 70.1063 242.021 72.0061 239.985 72.956C239.171 73.3631 238.221 73.6345 237.135 74.0415C236.05 74.4486 235.1 74.7201 234.557 74.9914C233.2 75.6699 232.115 76.6198 231.3 77.841L231.165 78.1125ZM223.973 75.2628L230.893 77.434C231.708 76.2127 232.929 75.2628 234.286 74.5843C234.829 74.3129 235.778 73.9059 236.864 73.6345C237.95 73.2274 238.899 72.956 239.714 72.5489C241.613 71.599 242.97 69.8349 243.785 67.121C244.056 66.0354 244.192 65.0856 244.192 64.1357C243.785 60.0648 240.256 56.9437 233.607 54.9083C231.029 54.0941 228.315 53.687 225.737 53.5513L223.294 61.6931C223.566 61.6931 223.701 61.6931 224.109 61.6931C226.415 61.5574 228.451 61.8288 229.944 62.2359C232.793 63.1858 233.065 64.6785 232.657 65.8997C232.522 66.3068 232.25 66.7139 231.843 66.8496C231.436 66.9853 231.029 67.2567 230.486 67.3924L228.858 67.7995C228.315 67.9352 227.772 68.2066 227.23 68.478C226.687 68.7494 226.144 69.1564 225.737 69.6992C225.33 70.242 224.923 70.9205 224.651 71.8704C224.109 72.956 223.973 74.0415 223.973 75.2628Z" fill="black"/>
<path d="M253.555 61.9647C256.269 61.9647 258.982 62.5075 261.832 63.3217C268.617 65.3571 272.281 68.6139 272.688 72.8205C272.824 73.7703 272.688 74.8559 272.281 75.9415C271.467 78.7911 269.974 80.5552 268.074 81.5051C267.396 81.9121 266.446 82.1835 265.225 82.5906C264.139 82.9977 263.189 83.2691 262.646 83.5405C261.289 84.219 260.068 85.1689 259.254 86.5259L251.926 84.219C251.926 82.862 252.062 81.7764 252.333 80.6909C252.605 79.741 253.012 78.9268 253.555 78.384C253.962 77.8413 254.504 77.4342 255.047 77.0271C255.59 76.7557 256.133 76.4843 256.811 76.3486C257.354 76.2129 257.897 76.0772 258.44 75.9415C258.982 75.8058 259.39 75.6701 259.797 75.3987C260.204 75.263 260.339 74.8559 260.475 74.5845C261.018 72.9561 260.068 71.8706 258.033 71.1921C256.54 70.785 254.64 70.5136 252.333 70.6493C251.791 70.6493 251.383 70.6493 251.248 70.785L253.555 61.9647ZM257.897 92.6322C257.218 95.0747 254.64 96.4317 252.198 95.6175C249.755 94.8033 248.398 92.3608 249.212 89.9183C249.891 87.4757 252.469 86.1187 254.912 86.9329C257.354 87.6114 258.711 90.1897 257.897 92.6322Z" fill="#FF7300"/>
<path d="M253.555 96.1601C253.148 96.1601 252.605 96.0244 252.198 95.8887C250.977 95.4816 249.891 94.6674 249.348 93.5819C248.806 92.4963 248.67 91.1393 248.941 89.9181C249.756 87.3398 252.469 85.9828 255.048 86.6613C257.626 87.4755 258.983 90.1894 258.304 92.7677C257.49 94.8031 255.59 96.1601 253.555 96.1601ZM253.555 87.0684C251.655 87.0684 250.027 88.2897 249.484 90.0537C249.213 91.1393 249.213 92.3606 249.756 93.3105C250.298 94.2604 251.248 95.0746 252.334 95.3459C254.641 96.0244 256.947 94.8032 257.626 92.4963C258.304 90.1895 257.083 87.8826 254.776 87.0684C254.369 87.0684 253.962 87.0684 253.555 87.0684ZM259.254 86.797L251.52 84.3545V84.2188C251.52 82.8618 251.655 81.6405 251.927 80.6907C252.198 79.6051 252.605 78.7909 253.148 78.2481C253.691 77.7054 254.234 77.1626 254.776 76.8912C255.319 76.6198 255.998 76.3484 256.54 76.077L258.169 75.6699C258.712 75.5342 259.119 75.3985 259.39 75.1271C259.661 74.9914 259.933 74.72 259.933 74.4486C260.34 73.0916 259.661 72.0061 257.626 71.4633C256.133 71.0562 254.234 70.7848 251.927 70.9205C251.384 70.9205 250.977 70.9205 250.841 70.9205H250.434L253.284 61.6931H253.555C256.269 61.6931 259.119 62.2359 261.833 63.0501C268.753 65.2212 272.417 68.478 272.824 72.8203C272.96 73.7701 272.824 74.8557 272.417 75.9413C271.603 78.7909 270.11 80.6907 268.075 81.6406C267.26 82.0477 266.311 82.319 265.225 82.7261C264.139 83.1332 263.19 83.4046 262.647 83.676C261.29 84.3545 260.204 85.3044 259.39 86.5257L259.254 86.797ZM252.062 84.0831L258.983 86.2542C259.797 85.033 261.018 84.0831 262.375 83.4046C262.918 83.1332 263.868 82.7261 264.954 82.4548C266.039 82.0477 266.989 81.7762 267.803 81.3692C269.703 80.4193 271.06 78.6552 271.874 75.9413C272.146 74.8557 272.281 73.9059 272.281 72.956C271.874 68.8851 268.346 65.764 261.697 63.7286C259.119 62.9144 256.405 62.5073 253.826 62.3716L251.384 70.5134C251.655 70.5134 251.791 70.5134 252.198 70.5134C254.505 70.3777 256.54 70.6491 258.033 71.0562C260.883 72.0061 261.154 73.4987 260.747 74.72C260.611 75.1271 260.34 75.5342 259.933 75.6699C259.526 75.8056 259.119 76.077 258.576 76.2127L256.947 76.6198C256.405 76.7555 255.862 77.0269 255.319 77.2982C254.776 77.5696 254.234 77.9767 253.826 78.5195C253.419 79.0623 253.012 79.7408 252.741 80.6907C252.198 81.7762 252.062 82.8618 252.062 84.0831Z" fill="black"/>
<path d="M84.8836 125.878C74.5707 122.757 64.2577 119.364 54.3519 115.022C49.8739 113.122 45.5316 110.951 41.325 108.373C38.8824 106.88 35.8971 104.98 34.6758 102.267C33.1832 99.0098 36.1685 96.1602 38.7467 94.3961C42.8176 91.6822 47.2956 89.7825 51.7736 87.8827C62.0866 83.6761 72.6709 80.148 83.2553 76.3485C89.9044 73.9059 85.8335 63.7287 79.1844 66.0355C69.8213 69.4279 60.3225 72.549 51.0951 76.2128C42.9533 79.3338 33.3188 82.8619 27.4839 89.511C21.2418 96.5673 22.4631 106.066 28.8408 112.58C34.4044 118.143 42.2748 121.671 49.3311 124.792C59.3726 129.27 69.8213 132.663 80.2699 135.784C83.1196 136.598 86.2406 135.919 87.5976 132.934C88.8189 130.763 87.7333 126.828 84.8836 125.878Z" fill="black"/>
<path d="M254.912 135.376C253.012 133.477 248.941 133.07 247.042 135.376C242.157 141.347 237.272 147.318 232.115 153.153C229.673 155.867 227.23 158.58 224.652 161.294C222.616 163.33 220.038 166.722 217.188 167.672C215.289 168.351 213.525 165.908 212.303 164.551C210.268 162.109 208.639 159.259 207.283 156.545C204.297 150.574 202.397 144.061 200.226 137.683C199.276 134.834 196.427 132.934 193.441 133.884C190.728 134.698 188.556 137.819 189.642 140.669C192.356 148.403 194.663 156.545 198.598 163.737C202.126 170.25 208.232 179.206 216.646 178.935C221.259 178.799 224.923 176.221 228.18 173.236C231.437 170.386 234.422 167.265 237.407 164.008C243.514 157.359 249.349 150.303 255.048 143.247C256.676 140.94 257.083 137.683 254.912 135.376Z" fill="black"/>
<path d="M241.614 139.04C236.05 129.949 234.015 120.45 238.629 119.093C244.871 117.736 250.706 127.506 250.706 127.506C250.706 127.506 255.998 122.621 264.547 119.907C274.724 116.65 270.924 123.435 270.924 123.435C270.924 123.435 275.131 121.264 278.116 124.249C280.152 126.963 276.081 128.863 276.081 128.863C277.981 128.727 281.78 128.592 281.644 131.306C281.509 133.748 278.659 135.105 277.031 136.055C274.724 137.412 272.281 138.497 269.703 139.583C269.025 139.854 267.668 140.261 267.125 140.94C260.204 151.117 251.927 147.996 251.927 147.996C251.791 149.76 250.57 154.238 246.77 151.524C244.464 149.896 239.85 145.689 238.222 143.247C236.05 140.261 241.614 139.04 241.614 139.04Z" fill="white"/>
<path d="M248.941 152.61C248.263 152.61 247.449 152.338 246.634 151.796C244.463 150.303 239.714 145.961 238.085 143.518C237.543 142.704 237.407 142.025 237.678 141.347C238.221 139.99 240.257 139.176 241.206 138.904C236.864 131.712 234.964 124.521 236.321 121.128C236.728 119.907 237.543 119.228 238.628 118.821C241.342 118.279 244.327 119.5 247.313 122.621C249.077 124.521 250.434 126.42 250.841 127.099C252.062 126.149 257.083 122.078 264.546 119.635C268.21 118.414 270.653 118.414 271.603 119.635C272.417 120.585 272.01 122.078 271.603 122.892C272.959 122.349 276.081 121.671 278.387 124.113C278.93 124.928 279.202 125.606 278.93 126.42C278.659 127.37 277.845 128.184 277.302 128.591C278.659 128.591 280.423 128.727 281.373 129.541C281.916 129.948 282.051 130.627 282.051 131.305C281.916 133.748 279.473 135.105 277.709 136.055L277.302 136.326C275.266 137.412 272.96 138.633 269.974 139.99C269.838 140.126 269.567 140.126 269.431 140.261C268.753 140.533 267.939 140.804 267.667 141.347C264.004 146.639 260.068 148.403 257.354 148.81C255.048 149.217 253.283 148.81 252.469 148.539C252.334 149.896 251.655 151.931 250.162 152.61C249.62 152.61 249.348 152.61 248.941 152.61ZM241.749 138.769L242.156 139.176L241.614 139.312C241.614 139.312 238.628 139.99 238.085 141.483C237.95 142.025 237.95 142.568 238.493 143.247C240.121 145.689 244.87 149.896 246.906 151.389C247.991 152.203 248.941 152.338 249.62 151.931C250.977 151.253 251.519 149.082 251.519 147.996V147.589L251.926 147.725C252.198 147.86 260.204 150.71 266.853 140.804C267.26 140.261 268.21 139.854 268.889 139.583C269.16 139.447 269.296 139.447 269.431 139.312C272.417 137.955 274.588 136.869 276.623 135.783L277.03 135.512C278.659 134.562 280.966 133.341 281.101 131.305C281.101 130.763 280.966 130.356 280.559 129.948C279.473 128.863 276.895 129.134 275.809 129.134L274.181 129.27L275.673 128.591C275.673 128.591 277.709 127.642 278.116 126.149C278.252 125.606 278.116 124.928 277.709 124.385C274.995 121.671 270.924 123.571 270.924 123.706L270.11 124.113L270.517 123.299C270.517 123.299 271.738 121.128 270.924 120.043C270.381 119.364 268.889 118.821 264.546 120.314C256.133 123.028 250.841 127.777 250.705 127.913L250.434 128.184L250.298 127.913C250.298 127.777 244.463 118.279 238.493 119.635C237.543 119.907 236.864 120.585 236.457 121.535C235.371 124.656 237.407 131.713 241.749 138.769Z" fill="black"/>
<path d="M259.118 129.406C258.982 129.406 258.982 129.406 258.847 129.27C258.847 129.134 258.847 128.999 258.982 128.863L270.924 123.164C271.059 123.164 271.195 123.164 271.331 123.299C271.331 123.435 271.331 123.571 271.195 123.706L259.118 129.406Z" fill="black"/>
<path d="M263.597 135.105C263.461 135.105 263.461 135.105 263.326 134.969C263.326 134.834 263.326 134.698 263.461 134.562L276.081 128.592C276.217 128.592 276.353 128.592 276.488 128.727C276.488 128.863 276.488 128.999 276.353 129.134L263.597 135.105Z" fill="black"/>
<path d="M265.361 137.412C265.225 137.412 265.225 137.412 265.09 137.276L258.033 128.32C257.898 128.184 257.898 128.049 258.033 127.913C258.169 127.777 258.305 127.777 258.441 127.913L265.497 136.869C265.632 137.005 265.632 137.14 265.497 137.276C265.361 137.412 265.361 137.412 265.361 137.412Z" fill="black"/>
<path d="M254.777 137.819C254.641 137.819 254.641 137.819 254.777 137.819C254.505 137.683 254.505 137.548 254.505 137.412C255.319 135.648 255.319 134.155 254.641 132.934C253.42 130.356 249.891 129.541 249.891 129.541L249.62 129.406L250.57 127.37C250.57 127.235 250.841 127.235 250.977 127.235C251.113 127.37 251.113 127.506 251.113 127.642L250.434 129.134C251.384 129.406 254.098 130.356 255.319 132.662C255.998 134.155 255.998 135.783 255.184 137.683C254.912 137.683 254.777 137.819 254.777 137.819Z" fill="black"/>
<path d="M252.062 148.268C251.926 148.268 251.926 148.268 251.926 148.132L249.619 145.961C249.484 145.825 249.484 145.689 249.619 145.554C249.755 145.418 249.891 145.418 250.026 145.554L252.333 147.725C252.469 147.86 252.469 147.996 252.333 148.132C252.198 148.268 252.062 148.268 252.062 148.268Z" fill="black"/>
<path d="M243.785 141.483C243.649 141.483 243.649 141.483 243.649 141.347L241.342 139.176C241.207 139.04 241.207 138.904 241.342 138.769C241.478 138.633 241.614 138.633 241.75 138.769L244.056 140.94C244.192 141.076 244.192 141.211 244.056 141.347C243.921 141.347 243.921 141.483 243.785 141.483Z" fill="black"/>
<path d="M138.077 186.941C138.756 182.192 144.998 181.242 147.847 184.77C155.446 194.405 161.553 204.718 164.674 216.523C166.438 223.172 167.523 230.093 167.93 237.013C168.202 243.663 166.709 249.769 165.624 256.282C164.538 263.203 153.818 261.303 154.904 254.383C155.853 248.955 157.21 243.662 157.075 238.099C156.803 231.857 155.989 225.479 154.225 219.508C151.511 209.738 146.762 201.461 140.791 193.59C139.841 193.048 138.891 192.098 138.349 190.876C138.077 189.519 137.941 188.298 138.077 186.941Z" fill="black"/>
<path d="M146.897 263.881V278.672L181.5 279.894L197.241 280.436C197.241 280.436 199.547 263.746 182.314 261.303C180.686 261.032 178.786 260.896 176.615 261.032C176.886 260.489 177.836 258.589 177.293 256.147C177.157 255.74 176.615 253.297 174.851 251.94C172.408 250.312 165.895 250.719 162.774 253.84H156.939C156.939 253.84 147.983 249.769 144.726 254.925C141.876 259.675 146.897 263.881 146.897 263.881Z" fill="#00A45C"/>
<path d="M197.376 280.572L181.5 280.029L146.626 278.808V263.881C145.947 263.203 141.876 259.132 144.319 254.383C145.676 252.211 148.254 251.262 151.918 251.804C154.36 252.211 156.531 253.026 156.803 253.161H162.502C165.759 250.04 172.272 249.498 174.851 251.262C176.75 252.483 177.293 254.925 177.429 255.604C177.836 257.639 177.293 259.268 176.886 260.218C178.786 260.218 180.55 260.353 182.178 260.489C199.412 263.067 197.376 279.894 197.376 280.029V280.572ZM147.033 278.265L196.833 279.894C197.105 277.722 197.919 263.61 182.178 261.303C180.414 261.032 178.514 260.896 176.615 261.032H176.207L176.479 260.625C176.886 259.81 177.564 258.046 177.157 255.875C177.022 255.197 176.479 253.026 174.851 251.804C172.408 250.176 166.03 250.719 163.045 253.704L162.909 253.84L156.803 253.704C156.667 253.704 147.983 249.769 144.997 254.654C142.419 259.403 147.168 263.474 147.168 263.474L147.304 263.61L147.033 278.265Z" fill="black"/>
<path d="M197.105 280.301C197.376 280.436 198.19 281.386 198.326 282.743C198.462 284.372 197.376 285.457 197.105 285.593C180.278 285.593 163.452 285.593 146.626 285.593C146.354 285.322 145.269 284.1 145.269 282.201C145.269 280.165 146.354 278.808 146.626 278.537C163.452 279.215 180.278 279.758 197.105 280.301Z" fill="white"/>
<path d="M197.241 286H146.49L146.355 285.864C145.947 285.457 144.998 284.1 144.998 282.336C144.998 280.301 145.947 278.944 146.355 278.537L146.49 278.401L197.241 280.165L197.377 280.301C197.784 280.572 198.598 281.522 198.598 282.879C198.598 284.372 197.648 285.593 197.241 286ZM146.762 285.457H196.969C197.241 285.186 198.055 284.236 197.919 282.879C197.784 281.793 197.241 280.979 196.969 280.708L146.762 279.079C146.355 279.622 145.54 280.843 145.54 282.472C145.54 283.829 146.355 284.914 146.762 285.457Z" fill="black"/>
<path d="M181.364 279.758L197.105 280.301C197.105 280.301 199.412 263.61 182.178 261.167C180.414 264.153 178.786 269.988 181.364 279.758Z" fill="white"/>
<path d="M197.376 280.572L181.228 280.029V279.894C178.514 270.123 180.143 264.153 182.042 261.032L182.178 260.896H182.314C199.547 263.474 197.512 280.301 197.512 280.436L197.376 280.572ZM181.635 279.486L196.833 280.029C196.969 279.079 197.105 275.551 195.748 271.752C193.712 265.917 189.099 262.524 182.314 261.439C180.55 264.56 179.193 270.123 181.635 279.486Z" fill="black"/>
<path d="M150.425 265.917C149.611 265.781 149.068 265.51 148.389 265.103C147.847 264.831 147.168 264.424 146.761 264.017C146.625 263.881 146.625 263.746 146.761 263.61C146.897 263.474 147.032 263.474 147.168 263.61C147.711 264.017 148.254 264.288 148.796 264.696C149.339 264.967 150.018 265.238 150.696 265.374C150.832 265.374 150.968 265.51 150.832 265.781C150.56 265.917 150.56 265.917 150.425 265.917Z" fill="black"/>
<path d="M165.894 264.017C165.759 264.017 165.623 263.881 165.623 263.881C165.623 263.746 165.623 263.61 165.759 263.474L176.343 260.489C176.479 260.489 176.614 260.489 176.75 260.625C176.75 260.76 176.75 260.896 176.614 261.032L165.894 264.017C166.03 264.017 166.03 264.017 165.894 264.017Z" fill="black"/>
<path d="M169.151 269.038C169.016 269.038 169.016 269.038 168.88 268.902C168.744 268.767 168.744 268.631 168.88 268.495L178.922 260.625C179.057 260.489 179.193 260.489 179.329 260.625C179.464 260.76 179.464 260.896 179.329 261.032L169.287 268.902C169.287 269.038 169.151 269.038 169.151 269.038Z" fill="black"/>
<path d="M163.859 264.017C163.859 264.695 164.402 265.103 164.944 265.103C165.623 265.103 166.03 264.56 166.03 264.017C166.03 263.339 165.487 262.931 164.944 262.931C164.266 262.796 163.859 263.339 163.859 264.017Z" fill="white"/>
<path d="M164.944 265.374C164.13 265.374 163.587 264.695 163.587 264.017C163.587 263.339 164.266 262.66 164.944 262.66C165.759 262.66 166.301 263.339 166.301 264.017C166.301 264.695 165.759 265.374 164.944 265.374ZM164.944 263.067C164.402 263.067 164.13 263.474 164.13 263.881C164.13 264.424 164.537 264.695 164.944 264.695C165.487 264.695 165.759 264.288 165.759 263.881C165.759 263.474 165.487 263.067 164.944 263.067Z" fill="black"/>
<path d="M168.337 270.53C168.937 270.53 169.423 270.044 169.423 269.445C169.423 268.845 168.937 268.359 168.337 268.359C167.738 268.359 167.251 268.845 167.251 269.445C167.251 270.044 167.738 270.53 168.337 270.53Z" fill="white"/>
<path d="M168.337 270.802C167.523 270.802 166.98 270.123 166.98 269.445C166.98 268.631 167.658 268.088 168.337 268.088C169.151 268.088 169.694 268.766 169.694 269.445C169.694 270.259 169.151 270.802 168.337 270.802ZM168.337 268.495C167.794 268.495 167.523 268.902 167.523 269.309C167.523 269.852 167.93 270.123 168.337 270.123C168.88 270.123 169.151 269.716 169.151 269.309C169.151 268.902 168.744 268.495 168.337 268.495Z" fill="black"/>
<path d="M113.924 186.941C113.245 182.192 107.003 181.242 104.154 184.77C96.5546 194.405 90.4482 204.718 87.3272 216.523C85.5631 223.172 84.4776 230.093 84.0705 237.013C83.7991 243.663 85.2917 249.769 86.3773 256.282C87.4629 263.203 98.1829 261.303 97.0974 254.383C96.1475 248.955 94.7905 243.662 94.9262 238.099C95.1976 231.857 96.0118 225.479 97.7759 219.508C100.49 209.738 105.239 201.461 111.21 193.59C112.16 193.048 113.11 192.098 113.652 190.876C114.059 189.519 114.059 188.298 113.924 186.941Z" fill="black"/>
<path d="M105.239 263.881V278.672L70.6362 279.894L54.8954 280.436C54.8954 280.436 52.5885 263.746 69.822 261.303C71.4504 261.032 73.3501 260.896 75.5212 261.032C75.2499 260.489 74.3 258.589 74.8428 256.147C74.9785 255.74 75.5213 253.297 77.2853 251.94C79.7279 250.312 86.2413 250.719 89.3623 253.84H95.1973C95.1973 253.84 104.153 249.769 107.41 254.925C110.124 259.675 105.239 263.881 105.239 263.881Z" fill="#00A45C"/>
<path d="M54.7587 280.572V280.301C54.7587 280.165 52.5876 263.338 69.9568 260.76C71.5851 260.489 73.3492 260.353 75.2489 260.489C74.8419 259.539 74.2991 257.775 74.7062 255.875C74.8419 255.197 75.3846 252.754 77.2844 251.533C79.8626 249.769 86.3761 250.312 89.6328 253.433H95.3321C95.7391 253.297 97.7746 252.347 100.217 252.076C103.745 251.533 106.459 252.483 107.816 254.654C110.394 259.403 106.324 263.474 105.645 264.153V279.079L54.7587 280.572ZM74.4348 261.032C72.8064 261.032 71.3137 261.167 69.9568 261.303C62.9005 262.389 58.2868 265.781 56.2514 271.616C54.8944 275.415 55.1658 278.944 55.1658 279.893L104.967 278.265V263.746L105.102 263.61C105.238 263.474 109.852 259.403 107.273 254.79C104.288 249.904 95.4678 253.84 95.4678 253.84H95.3321H89.3614L89.2257 253.704C86.2404 250.719 79.8626 250.176 77.4201 251.804C75.656 253.025 75.2489 255.197 75.1132 255.875C74.7062 258.046 75.3846 259.675 75.7917 260.625L76.0631 261.032H75.656C75.1132 261.032 74.8418 261.032 74.4348 261.032Z" fill="black"/>
<path d="M54.8951 280.301C54.6237 280.436 53.8095 281.386 53.6738 282.743C53.5381 284.372 54.6237 285.457 54.8951 285.593C71.7215 285.593 88.5478 285.593 105.374 285.593C105.646 285.321 106.731 284.1 106.731 282.2C106.731 280.165 105.646 278.808 105.374 278.537C88.5478 279.215 71.7215 279.758 54.8951 280.301Z" fill="white"/>
<path d="M105.51 286H54.7593L54.6236 285.864C54.3522 285.593 53.2666 284.372 53.4023 282.743C53.538 281.386 54.3522 280.436 54.6236 280.165L54.7593 280.029H54.895L105.51 278.265L105.646 278.401C106.053 278.944 107.138 280.301 107.003 282.2C107.003 284.1 106.053 285.322 105.51 286ZM55.0307 285.457H105.238C105.646 284.914 106.324 283.829 106.46 282.336C106.46 280.708 105.646 279.487 105.238 278.944L55.0307 280.572C54.7593 280.844 54.0808 281.658 54.0808 282.743C53.9451 284.1 54.7593 285.05 55.0307 285.457Z" fill="black"/>
<path d="M70.6362 279.758L54.8954 280.301C54.8954 280.301 52.5885 263.61 69.822 261.167C71.5861 264.153 73.2144 269.988 70.6362 279.758Z" fill="white"/>
<path d="M54.7587 280.572V280.301C54.7587 280.165 52.5876 263.339 69.9568 260.76H70.0924L70.2281 260.896C71.9922 264.153 73.6206 269.988 71.0423 279.758V279.894L54.7587 280.572ZM69.6854 261.439C62.7648 262.524 58.2868 265.917 56.2514 271.752C54.8944 275.551 55.1658 279.079 55.1658 280.029L70.3639 279.487C72.9421 270.123 71.4494 264.56 69.6854 261.439Z" fill="black"/>
<path d="M101.575 265.917C101.439 265.917 101.304 265.781 101.304 265.781C101.304 265.645 101.304 265.51 101.439 265.374C102.118 265.238 102.661 264.967 103.339 264.696C103.882 264.424 104.425 264.017 104.968 263.61C105.103 263.474 105.239 263.474 105.375 263.61C105.51 263.746 105.51 263.881 105.375 264.017C104.832 264.424 104.289 264.831 103.746 265.103C103.068 265.51 102.389 265.781 101.575 265.917C101.711 265.917 101.711 265.917 101.575 265.917Z" fill="black"/>
<path d="M86.1054 264.017L75.521 261.032C75.3853 261.032 75.2496 260.896 75.3853 260.625C75.3853 260.489 75.521 260.353 75.7924 260.489L86.3767 263.474C86.5124 263.474 86.6481 263.61 86.5124 263.881C86.241 263.881 86.2411 264.017 86.1054 264.017Z" fill="black"/>
<path d="M82.8489 269.038H82.7132L72.6716 261.167C72.5359 261.032 72.5359 260.896 72.6716 260.76C72.8073 260.625 72.943 260.625 73.0787 260.76L83.1202 268.631C83.2559 268.766 83.2559 268.902 83.1202 269.038C83.1202 269.038 82.9846 269.038 82.8489 269.038Z" fill="black"/>
<path d="M88.2761 264.017C88.2761 264.695 87.7333 265.103 87.1905 265.103C86.5121 265.103 86.105 264.56 86.105 264.017C86.105 263.339 86.6478 262.931 87.1905 262.931C87.7333 262.796 88.2761 263.339 88.2761 264.017Z" fill="white"/>
<path d="M87.0552 265.374C86.241 265.374 85.6982 264.695 85.6982 264.017C85.6982 263.339 86.3767 262.66 87.0552 262.66C87.7337 262.66 88.4122 263.339 88.4122 264.017C88.4122 264.695 87.8694 265.374 87.0552 265.374ZM87.0552 263.067C86.5124 263.067 86.2411 263.474 86.2411 263.881C86.2411 264.424 86.6481 264.695 87.0552 264.695C87.598 264.695 87.8694 264.288 87.8694 263.881C87.8694 263.474 87.598 263.067 87.0552 263.067Z" fill="black"/>
<path d="M84.884 269.445C84.884 270.123 84.3412 270.53 83.7984 270.53C83.12 270.53 82.7129 269.988 82.7129 269.445C82.7129 268.766 83.2557 268.359 83.7984 268.359C84.3412 268.224 84.884 268.766 84.884 269.445Z" fill="white"/>
<path d="M83.6631 270.802C82.8489 270.802 82.3062 270.123 82.3062 269.445C82.3062 268.631 82.9846 268.088 83.6631 268.088C84.4773 268.088 85.0201 268.766 85.0201 269.445C85.1558 270.259 84.4773 270.802 83.6631 270.802ZM83.6631 268.495C83.1203 268.495 82.849 268.902 82.849 269.309C82.849 269.852 83.256 270.123 83.6631 270.123C84.2059 270.123 84.4773 269.716 84.4773 269.309C84.613 268.902 84.2059 268.495 83.6631 268.495Z" fill="black"/>
<path d="M93.3944 71.3851C102.999 69.3518 107.576 52.5476 103.619 33.8518C99.6609 15.156 88.6665 1.64823 79.0619 3.68145C69.4574 5.71466 64.8798 22.5189 68.8376 41.2147C72.7954 59.9106 83.7898 73.4183 93.3944 71.3851Z" fill="black"/>
<path d="M91.5329 72.0061C82.3056 72.0061 72.3997 58.9792 68.7359 41.3386C66.8361 32.2469 66.8361 23.2909 68.7359 16.2347C70.6356 9.04277 74.2994 4.56479 79.0488 3.47921C83.7982 2.52934 88.9547 5.10757 93.7041 10.9425C98.3178 16.6418 101.982 24.7836 103.881 33.8753C105.781 42.967 105.781 51.923 103.881 58.9792C101.982 66.1711 98.3178 70.6491 93.5684 71.7347C92.8899 71.8704 92.2114 72.0061 91.5329 72.0061ZM81.0843 3.7506C80.4058 3.7506 79.863 3.75061 79.1845 3.88631C74.7065 4.83618 71.1784 9.17847 69.2787 16.2347C67.3789 23.2909 67.3789 32.1112 69.2787 41.2029C72.9425 58.5721 82.7126 71.3276 91.5329 71.3276C92.2114 71.3276 92.7542 71.3276 93.4327 71.1919C97.9107 70.242 101.439 65.8997 103.339 58.8435C105.238 51.7873 105.238 42.967 103.339 33.8753C101.439 24.9193 97.9107 16.7775 93.297 11.0782C89.3618 6.32885 85.0195 3.7506 81.0843 3.7506Z" fill="black"/>
<path d="M206.333 53.1444C198.462 70.6492 184.893 81.505 175.937 77.4341C166.981 73.3632 166.166 55.994 174.037 38.6248C181.907 21.1199 195.477 10.2642 204.433 14.3351C213.389 18.406 214.203 35.6395 206.333 53.1444Z" fill="black"/>
<path d="M180.007 78.5196C178.515 78.5196 177.158 78.2483 175.936 77.7055C171.458 75.67 168.88 70.5135 168.473 63.0502C168.066 55.7226 169.966 46.9023 173.765 38.4891C177.565 30.0759 182.857 22.7483 188.556 18.1346C194.391 13.5209 199.955 12.0282 204.433 13.928C208.911 15.9634 211.489 21.1199 211.896 28.5832C212.303 35.9109 210.403 44.7312 206.604 53.1444C199.819 68.3424 188.692 78.5196 180.007 78.5196ZM200.362 13.7923C196.969 13.7923 193.034 15.4206 188.963 18.6774C183.264 23.2911 178.108 30.3473 174.308 38.7605C170.509 47.1737 168.609 55.8583 169.016 63.0502C169.423 70.2421 171.866 75.2629 176.072 77.1627C177.293 77.7055 178.65 77.9769 180.007 77.9769C188.556 77.9769 199.412 67.9353 206.061 53.0087C209.861 44.5955 211.76 35.9109 211.353 28.7189C210.946 21.527 208.504 16.5062 204.297 14.6065C203.076 14.0637 201.719 13.7923 200.362 13.7923Z" fill="black"/>
<path d="M203.04 124.742C207.637 73.6115 180.14 29.3547 141.624 25.8919C103.108 22.4291 68.1577 61.0717 63.5608 112.202C58.9638 163.333 86.4607 207.59 124.977 211.053C163.493 214.516 198.443 175.873 203.04 124.742Z" fill="#BB9FFF"/>
<path d="M129.799 211.502C128.171 211.502 126.543 211.367 124.914 211.231C106.188 209.603 89.4974 198.34 77.8274 179.478C66.1575 160.752 61.001 136.869 63.3079 112.037C67.9215 60.879 103.067 22.0697 141.741 25.5978C160.467 27.2262 177.157 38.4891 188.827 57.3509C200.497 76.0771 205.654 99.9597 203.347 124.792C199.005 173.779 166.437 211.502 129.799 211.502ZM136.856 26.0049C100.489 26.0049 68.193 63.4573 63.8507 112.172C61.6795 136.869 66.836 160.616 78.3702 179.342C89.9044 197.933 106.459 209.06 125.05 210.824C126.678 210.96 128.307 211.095 129.799 211.095C166.166 211.095 198.462 173.643 202.804 124.928C204.975 100.231 199.819 76.4841 188.285 57.758C176.75 39.1675 160.195 28.0404 141.605 26.2763C140.112 26.0049 138.484 26.0049 136.856 26.0049Z" fill="black"/>
<path d="M113.923 37.6747C111.616 32.5182 108.631 28.9901 106.596 27.0903C104.289 29.2615 101.575 31.9754 98.8608 35.6393C95.7398 39.8459 93.7043 43.7811 92.2117 47.1735C88.8193 45.8165 84.6127 44.3238 79.4562 43.5097C75.1139 42.8312 71.1786 42.6955 68.0576 42.8312C68.0576 45.6808 68.1933 50.2945 70.2288 55.5867C72.1285 60.8788 74.9782 64.5427 76.8779 66.5781C79.4561 64.814 82.7129 62.2358 85.8339 58.7077C89.0906 55.0439 91.2618 51.3801 92.7544 48.5305C95.8755 49.616 99.9464 50.7016 104.831 50.973C109.581 51.3801 113.652 50.973 116.773 50.4302C116.773 47.3092 116.23 42.6955 113.923 37.6747Z" fill="#FFBE32"/>
<path d="M76.8778 66.8495L76.7422 66.7138C73.8925 63.4571 71.5856 59.6575 70.093 55.5866C68.6003 51.5157 67.7862 47.1734 67.9219 42.6954V42.4241H68.1932C71.9927 42.2884 75.928 42.5598 79.7275 43.1025C84.0698 43.781 88.2764 45.0023 92.3473 46.6306C94.1113 42.5597 96.2825 38.7602 98.8607 35.3678C101.168 32.2468 103.746 29.3972 106.595 26.8189L106.731 26.6832L106.867 26.8189C109.988 29.94 112.43 33.4681 114.33 37.539C116.094 41.6099 117.044 45.8165 117.315 50.1588V50.4302H117.044C113.109 51.1087 109.038 51.38 104.967 50.9729C100.896 50.7016 96.8253 49.8874 93.0258 48.5304C91.126 52.1942 88.8192 55.5866 86.1052 58.572C83.3913 61.5573 80.4059 64.2712 77.0135 66.5781L76.8778 66.8495ZM68.4646 42.9668C68.4646 47.1734 69.1431 51.3801 70.6358 55.3153C72.1285 59.2505 74.2996 62.9143 77.0135 66.0353C80.2703 63.8642 83.1199 61.1502 85.6981 58.3006C88.4121 55.1795 90.7189 51.7871 92.6187 48.1233L92.7544 47.8519L93.0258 47.9876C96.961 49.3446 101.032 50.1588 105.103 50.4302C109.038 50.7016 112.838 50.5659 116.773 49.8874C116.501 45.6808 115.551 41.6099 113.923 37.6747C112.159 33.7395 109.852 30.347 106.867 27.3617C104.153 29.94 101.575 32.6539 99.4035 35.6392C96.8253 39.1673 94.5184 42.9668 92.8901 47.0377L92.7544 47.3091L92.483 47.1735C88.4121 45.5451 84.0698 44.3238 79.7275 43.5096C75.928 43.1025 72.1285 42.8311 68.4646 42.9668Z" fill="black"/>
<path d="M95.6038 45.9524C96.8251 48.9378 96.6893 51.7874 95.1967 52.4659C93.704 53.1444 91.3972 51.2446 90.1759 48.395C88.9547 45.4097 89.0903 42.56 90.583 41.8815C92.0757 41.203 94.3825 43.1028 95.6038 45.9524Z" fill="#FFBE32"/>
<path d="M94.6539 52.8729C93.9754 52.8729 93.2969 52.6015 92.4827 51.9231C91.5328 51.1089 90.583 49.8876 89.9045 48.3949C88.5475 45.2739 88.8189 42.2886 90.4473 41.6101C92.0756 40.9316 94.5182 42.6957 95.8751 45.8167C96.5536 47.3094 96.825 48.802 96.6893 50.0233C96.5536 51.3802 96.1465 52.3302 95.3324 52.6015C95.1967 52.8729 94.9253 52.8729 94.6539 52.8729ZM91.2615 42.0172C91.1258 42.0172 90.8544 42.0172 90.7187 42.1529C89.3617 42.6957 89.226 45.5453 90.4473 48.2592C90.9901 49.6162 91.9399 50.8375 92.7541 51.5159C93.5683 52.1944 94.3825 52.4658 95.061 52.1944C95.7395 51.923 96.0108 51.1089 96.1465 50.0233C96.2822 48.802 95.8751 47.445 95.3324 46.0881C94.3825 43.7812 92.6184 42.0172 91.2615 42.0172Z" fill="black"/>
<path d="M69.2785 129.406C69.1428 129.406 69.1428 129.406 69.1428 129.27C69.0071 129.134 69.0071 128.999 69.1428 128.863L78.0988 119.636C78.2345 119.5 78.3702 119.5 78.5059 119.636C78.6416 119.771 78.6416 119.907 78.5059 120.043L69.5499 129.27C69.4142 129.406 69.4142 129.406 69.2785 129.406Z" fill="black"/>
<path d="M81.8984 137.141C81.7627 137.141 81.7627 137.141 81.8984 137.141C81.627 137.141 81.627 136.869 81.627 136.733L85.2908 124.385C85.2908 124.249 85.4265 124.114 85.6979 124.249C85.8336 124.249 85.9693 124.385 85.8336 124.656L82.1698 137.005C82.0341 137.005 82.0341 137.141 81.8984 137.141Z" fill="black"/>
<path d="M96.6891 137.548C96.5534 137.548 96.4178 137.412 96.4178 137.276L94.3823 124.114C94.3823 123.978 94.518 123.842 94.6537 123.842C94.7894 123.842 94.9251 123.978 94.9251 124.114L96.9606 137.276C96.9606 137.412 96.9605 137.548 96.6891 137.548Z" fill="black"/>
<path d="M116.908 102.674C113.923 119.229 100.082 130.22 85.8337 127.099C71.5855 123.978 62.3581 108.101 65.3434 91.5465C68.3288 74.9915 82.1699 64 96.418 67.121C110.666 70.2421 119.894 86.1186 116.908 102.674Z" fill="white"/>
<path d="M90.5834 127.777C88.955 127.777 87.3266 127.642 85.6983 127.235C71.3144 124.114 62.087 108.101 64.9367 91.4106C66.4293 82.5903 71.1787 74.9913 77.9636 70.5133C83.5272 66.7138 90.0406 65.4925 96.4184 66.7138C110.802 69.8348 120.03 85.8471 117.18 102.538C115.687 111.358 110.938 118.957 104.153 123.435C100.082 126.42 95.3328 127.777 90.5834 127.777ZM91.669 66.8495C87.0553 66.8495 82.4416 68.2065 78.3707 71.0561C71.7215 75.5341 67.1078 82.9974 65.6152 91.5463C62.7655 107.966 71.8572 123.706 85.9697 126.692C92.076 128.049 98.4538 126.692 104.017 123.028C110.666 118.55 115.28 111.087 116.773 102.538C119.623 86.1184 110.531 70.3776 96.4184 67.3923C94.79 67.1209 93.1616 66.8495 91.669 66.8495Z" fill="black"/>
<path d="M95.3334 73.363C84.4776 71.0561 73.8933 79.3337 71.7221 91.9535C71.7221 92.2249 71.5864 92.6319 71.5864 92.9033L85.4275 95.8887L71.8578 101.995C73.6219 110.408 79.4568 117.193 87.3273 118.957C98.183 121.264 108.767 112.986 110.938 100.367C113.11 87.8825 106.189 75.6698 95.3334 73.363Z" fill="black"/>
<path d="M90.8548 119.636C89.6335 119.636 88.4122 119.5 87.191 119.229C79.4562 117.6 73.3499 110.815 71.5858 101.995V101.724L84.6127 95.8888L71.3145 92.9034V92.632C71.3145 92.4963 71.3145 92.3606 71.3145 92.2249C71.3145 92.0892 71.3144 91.8178 71.4501 91.6821C72.6714 85.033 76.1995 79.1981 81.356 75.6699C85.5626 72.8203 90.5834 71.7347 95.4685 72.8203C106.46 75.1271 113.516 87.4756 111.345 100.095C110.124 106.745 106.596 112.579 101.439 116.108C98.0467 118.55 94.5186 119.636 90.8548 119.636ZM72.1286 102.131C74.0284 110.544 79.8633 117.057 87.3267 118.686C91.9403 119.636 96.8254 118.686 100.896 115.972C105.917 112.579 109.445 106.88 110.531 100.367C112.702 87.8826 105.781 75.9413 95.1971 73.6345C90.5834 72.6846 85.6983 73.6345 81.6274 76.3484C76.6066 79.7408 73.0785 85.4401 71.9929 91.9536C71.9929 92.0893 71.9929 92.3606 71.8572 92.4963V92.632L86.2411 95.753L72.1286 102.131Z" fill="black"/>
<path d="M182.178 136.733C182.042 136.733 182.042 136.733 181.906 136.598L174.307 126.285C174.172 126.149 174.307 126.013 174.307 125.878C174.443 125.742 174.579 125.878 174.714 125.878L182.313 136.191C182.449 136.326 182.313 136.462 182.313 136.598C182.178 136.733 182.178 136.733 182.178 136.733Z" fill="black"/>
<path d="M168.608 142.84C168.472 142.84 168.337 142.704 168.337 142.568L166.301 129.813C166.301 129.677 166.437 129.542 166.573 129.542C166.708 129.542 166.844 129.677 166.844 129.813L168.88 142.568C169.015 142.568 168.879 142.704 168.608 142.84C168.744 142.84 168.744 142.84 168.608 142.84Z" fill="black"/>
<path d="M153.817 141.347C153.546 141.347 153.546 141.076 153.546 140.94L157.21 128.185C157.21 128.049 157.345 127.913 157.617 128.049C157.752 128.049 157.888 128.185 157.753 128.456L154.089 141.211C154.089 141.211 153.953 141.347 153.817 141.347Z" fill="black"/>
<path d="M190.855 103.563C191.946 86.7362 181.069 72.3326 166.561 71.3917C152.052 70.4507 139.406 83.3288 138.315 100.156C137.224 116.982 148.1 131.386 162.609 132.327C177.117 133.268 189.763 120.39 190.855 103.563Z" fill="white"/>
<path d="M164.13 132.663C158.431 132.663 152.732 130.492 148.254 126.421C142.147 120.993 138.484 112.851 138.076 104.031C137.398 87.0686 148.661 72.4133 163.316 71.1921C169.694 70.6493 176.072 72.8204 181.092 77.2984C187.199 82.7263 190.863 90.8681 191.27 99.6884C192.084 116.65 180.685 131.306 166.03 132.527C165.352 132.663 164.809 132.663 164.13 132.663ZM138.619 104.031C139.026 112.715 142.69 120.857 148.661 126.014C153.546 130.356 159.788 132.527 166.03 131.984C180.414 130.763 191.405 116.379 190.727 99.6884C190.32 91.0038 186.656 82.862 180.685 77.7055C175.8 73.3632 169.558 71.1921 163.316 71.7348C148.932 72.9561 137.941 87.4757 138.619 104.031Z" fill="black"/>
<path d="M163.588 77.841C174.58 76.8911 184.079 86.5256 184.621 99.2811C184.621 99.5525 184.621 99.9596 184.621 100.231L170.509 101.452L183.129 109.323C180.279 117.464 173.63 123.435 165.624 124.114C154.632 125.063 145.134 115.429 144.591 102.674C144.048 89.7823 152.461 78.7909 163.588 77.841Z" fill="black"/>
<path d="M164.267 124.385C159.925 124.385 155.582 122.757 152.19 119.636C147.576 115.565 144.727 109.323 144.455 102.538C143.912 89.6466 152.461 78.3838 163.724 77.5696C168.609 77.1625 173.494 78.7909 177.294 82.1833C181.907 86.2542 184.757 92.4963 185.028 99.2811C185.028 99.4168 185.028 99.6882 185.028 99.8239C185.028 99.9596 185.028 100.095 185.028 100.231V100.502L171.459 101.724L183.536 109.187L183.4 109.458C180.415 117.872 173.494 123.842 165.624 124.385C165.217 124.385 164.674 124.385 164.267 124.385ZM163.588 78.1124C152.733 79.0623 144.319 89.918 144.862 102.538C145.134 109.187 147.848 115.293 152.461 119.229C156.261 122.485 160.874 124.114 165.624 123.707C173.223 123.028 179.872 117.464 182.857 109.323L169.695 101.181L184.35 99.9596V99.8239C184.35 99.6882 184.35 99.4168 184.35 99.2811C184.079 92.632 181.365 86.5256 176.751 82.5904C172.951 79.3337 168.338 77.7053 163.588 78.1124Z" fill="black"/>
<path d="M118.537 117.464C117.315 120.043 119.758 122.757 123.829 123.435C127.9 124.249 132.242 122.757 133.463 120.178C134.685 117.6 132.242 114.886 128.171 114.208C123.965 113.394 119.758 114.886 118.537 117.464Z" fill="#4B3BC5"/>
<path d="M126 123.978C125.322 123.978 124.508 123.978 123.694 123.707C121.115 123.164 119.08 121.943 118.266 120.314C117.723 119.364 117.723 118.279 118.13 117.193C119.351 114.479 123.829 112.987 128.036 113.801C130.614 114.344 132.65 115.565 133.464 117.193C134.007 118.143 134.007 119.229 133.599 120.314C132.65 122.485 129.529 123.978 126 123.978ZM125.865 114.208C122.608 114.208 119.623 115.565 118.809 117.465C118.401 118.279 118.401 119.229 118.809 120.043C119.623 121.535 121.522 122.621 123.829 123.164C127.764 123.842 131.971 122.485 133.192 120.043C133.599 119.229 133.599 118.279 133.192 117.465C132.378 115.972 130.614 114.886 128.172 114.344C127.357 114.344 126.679 114.208 125.865 114.208Z" fill="black"/>
<path d="M125.322 115.565C127.764 116.786 124.779 119.5 122.336 118.143C119.894 117.057 122.879 114.343 125.322 115.565Z" fill="white"/>
<path d="M101.981 134.427C102.117 136.598 102.931 138.769 104.017 140.533C104.56 141.483 105.238 142.433 105.917 143.247C112.43 150.982 123.693 152.067 132.242 150.575C132.92 150.439 133.734 150.303 134.413 150.032C135.091 149.896 135.634 149.76 136.177 149.489C137.941 148.946 139.569 148.268 141.198 147.318C141.741 147.047 142.148 146.775 142.555 146.504C144.59 145.282 146.354 143.654 147.44 141.347C148.118 140.126 148.525 138.633 148.39 137.141C148.254 132.663 144.862 129.135 140.926 129.542C121.115 131.577 124.643 130.084 109.173 127.099C106.866 126.692 104.424 127.37 102.796 129.406C102.253 131.034 101.846 132.663 101.981 134.427Z" fill="black"/>
<path d="M125.729 151.524C118.537 151.524 110.802 149.489 105.781 143.518C105.103 142.704 104.424 141.754 103.746 140.669C102.524 138.633 101.846 136.326 101.71 134.427C101.575 132.527 101.982 130.763 103.067 129.406C104.56 127.37 107.002 126.556 109.716 126.963C113.787 127.642 116.501 128.32 118.672 128.863C124.914 130.356 126.814 130.763 141.334 129.27C143.098 129.135 144.862 129.677 146.219 130.899C147.983 132.391 148.933 134.698 148.933 137.141C148.933 138.633 148.661 140.126 147.847 141.483C146.762 143.518 145.133 145.282 142.826 146.775C142.284 147.046 141.876 147.318 141.334 147.589C139.705 148.403 138.077 149.218 136.313 149.76C135.77 149.896 135.092 150.168 134.413 150.303C133.735 150.439 132.921 150.71 132.242 150.846C130.342 151.253 128.035 151.524 125.729 151.524ZM102.253 134.427C102.389 136.326 103.067 138.498 104.288 140.397C104.831 141.347 105.51 142.297 106.188 143.111C112.702 150.71 123.829 151.796 132.242 150.303C132.921 150.168 133.735 150.032 134.413 149.76C135.092 149.625 135.634 149.489 136.177 149.218C137.941 148.675 139.57 147.996 141.198 147.046C141.605 146.775 142.148 146.504 142.555 146.232C144.726 144.875 146.354 143.111 147.44 141.212C148.119 139.99 148.39 138.498 148.39 137.141C148.39 134.834 147.44 132.663 145.812 131.306C144.455 130.22 142.962 129.677 141.334 129.813C126.678 131.306 124.779 130.899 118.401 129.406C116.23 128.863 113.516 128.185 109.445 127.506C107.002 127.099 104.696 127.913 103.339 129.677C102.524 131.034 102.117 132.663 102.253 134.427Z" fill="black"/>
<path d="M109.717 173.372C109.717 173.372 122.337 179.478 127.222 163.195C127.222 163.195 130.343 152.067 134.685 150.168C135.092 150.032 136.449 149.625 136.449 149.625C138.213 149.082 139.842 148.404 141.47 147.454C139.842 143.383 133.057 129.542 122.608 141.347C122.608 141.347 121.115 131.441 112.702 135.784C110.395 137.005 108.496 139.448 106.053 143.383C100.354 152.61 97.3685 166.858 109.717 173.372Z" fill="#FC79FF"/>
<path d="M115.009 174.864C112.024 174.864 109.717 173.779 109.581 173.779C105.374 171.608 102.66 168.351 101.439 164.144C99.8109 158.309 101.439 150.439 105.782 143.383C107.953 139.719 109.988 137.005 112.431 135.784C114.873 134.563 117.044 134.291 118.808 135.241C121.387 136.598 122.337 139.719 122.608 140.94C125.593 137.684 128.714 136.191 131.564 136.734C136.856 137.684 140.384 144.604 141.605 147.589L141.741 147.861L141.47 147.996C139.841 148.811 138.213 149.625 136.449 150.168C136.449 150.168 135.092 150.575 134.821 150.71C130.614 152.474 127.493 163.466 127.493 163.602C125.865 169.029 123.286 172.558 119.623 174.186C117.994 174.593 116.366 174.864 115.009 174.864ZM109.852 173.236C109.988 173.372 114.738 175.407 119.487 173.372C122.879 171.879 125.458 168.351 127.086 163.195C127.222 162.787 130.343 151.932 134.685 150.032C135.092 149.896 136.313 149.489 136.449 149.489C138.077 148.946 139.706 148.268 141.198 147.454C139.977 144.468 136.585 137.955 131.7 137.141C128.85 136.734 125.865 138.226 122.879 141.619L122.472 142.026L122.337 141.483C122.337 141.483 121.658 137.005 118.673 135.512C117.044 134.698 115.009 134.834 112.702 136.055C110.395 137.276 108.36 139.855 106.189 143.519C101.982 150.575 100.354 158.174 101.982 163.873C103.068 167.944 105.782 171.065 109.852 173.236Z" fill="black"/>
<path d="M114.059 162.245C113.924 162.245 113.924 162.245 114.059 162.245C113.788 162.245 113.788 162.109 113.788 161.838C114.738 158.038 116.095 154.374 117.588 150.846C118.945 147.454 120.573 144.333 122.473 141.212C122.608 141.076 122.744 141.076 122.88 141.076C123.015 141.212 123.015 141.347 123.015 141.483C121.251 144.468 119.623 147.725 118.13 150.982C116.638 154.51 115.416 158.174 114.467 161.973C114.195 162.109 114.059 162.245 114.059 162.245Z" fill="black"/>
<path d="M114.195 171.744C116.095 171.608 117.995 170.794 119.623 169.572C121.523 168.215 122.608 166.451 123.83 164.552C124.237 164.009 125.051 164.687 124.644 165.366C121.93 169.572 118.945 172.693 114.195 172.965C113.652 172.965 113.517 171.879 114.195 171.744Z" fill="white"/>
<path d="M115.959 136.734C116.637 136.598 116.773 137.819 116.094 137.955C113.788 138.226 111.616 139.855 110.667 142.297C110.395 142.976 109.445 142.569 109.717 141.89C110.802 139.04 113.245 137.005 115.959 136.734Z" fill="white"/>
<path d="M109.31 143.111C109.988 143.383 109.581 144.468 108.903 144.197C108.36 144.061 108.631 142.84 109.31 143.111Z" fill="white"/>
</svg>
