<svg width="298" height="78" viewBox="0 0 298 78" fill="none" xmlns="http://www.w3.org/2000/svg">
<path d="M81.338 39.6382V34.857H103.865V39.6382H95.4675V62.2855H89.7353V39.6382H81.338Z" fill="#043730"/>
<path d="M105.331 62.2855V41.7141H110.863V45.3034H111.077C111.452 44.0266 112.081 43.0623 112.965 42.4106C113.849 41.7498 114.867 41.4195 116.019 41.4195C116.305 41.4195 116.613 41.4373 116.943 41.4731C117.273 41.5088 117.563 41.5579 117.813 41.6204V46.6829C117.546 46.6025 117.175 46.5311 116.702 46.4686C116.229 46.4061 115.796 46.3748 115.403 46.3748C114.563 46.3748 113.813 46.5579 113.153 46.924C112.501 47.2811 111.983 47.7811 111.599 48.424C111.224 49.0668 111.037 49.8079 111.037 50.6472V62.2855H105.331Z" fill="#043730"/>
<path d="M126.04 62.6739C124.727 62.6739 123.558 62.4463 122.531 61.9909C121.504 61.5266 120.692 60.8436 120.094 59.9418C119.504 59.0311 119.21 57.8972 119.21 56.54C119.21 55.3972 119.419 54.4373 119.839 53.6606C120.259 52.8838 120.83 52.2588 121.553 51.7856C122.277 51.3123 123.098 50.9552 124.018 50.7141C124.946 50.4731 125.919 50.3034 126.937 50.2052C128.134 50.0802 129.098 49.9641 129.83 49.857C130.562 49.7409 131.094 49.5713 131.424 49.3481C131.754 49.1248 131.919 48.7945 131.919 48.357V48.2766C131.919 47.4284 131.652 46.7722 131.116 46.3079C130.589 45.8436 129.839 45.6115 128.866 45.6115C127.839 45.6115 127.022 45.8391 126.415 46.2945C125.808 46.7409 125.406 47.3034 125.21 47.982L119.933 47.5534C120.201 46.3034 120.727 45.2231 121.513 44.3123C122.299 43.3927 123.312 42.6873 124.553 42.1963C125.803 41.6963 127.25 41.4463 128.893 41.4463C130.036 41.4463 131.129 41.5802 132.174 41.8481C133.227 42.1159 134.161 42.5311 134.973 43.0936C135.794 43.6561 136.442 44.3793 136.915 45.2632C137.388 46.1382 137.625 47.1873 137.625 48.4106V62.2855H132.214V59.4329H132.053C131.723 60.0757 131.281 60.6427 130.727 61.1338C130.174 61.6159 129.509 61.9954 128.732 62.2722C127.955 62.54 127.058 62.6739 126.04 62.6739ZM127.674 58.7364C128.513 58.7364 129.254 58.5713 129.897 58.2409C130.54 57.9016 131.044 57.4463 131.411 56.8748C131.777 56.3034 131.96 55.6561 131.96 54.9329V52.7498C131.781 52.8659 131.536 52.9731 131.223 53.0713C130.919 53.1606 130.576 53.2454 130.192 53.3257C129.808 53.3972 129.424 53.4641 129.04 53.5266C128.656 53.5802 128.308 53.6293 127.995 53.6739C127.326 53.7722 126.741 53.9284 126.241 54.1427C125.741 54.357 125.352 54.6472 125.076 55.0132C124.799 55.3704 124.661 55.8168 124.661 56.3525C124.661 57.1293 124.942 57.7231 125.504 58.1338C126.076 58.5355 126.799 58.7364 127.674 58.7364Z" fill="#043730"/>
<path d="M151.346 62.6873C149.239 62.6873 147.426 62.2409 145.908 61.348C144.399 60.4463 143.239 59.1963 142.426 57.5981C141.623 55.9998 141.221 54.1606 141.221 52.0802C141.221 49.9731 141.627 48.1248 142.44 46.5356C143.261 44.9373 144.426 43.6918 145.935 42.799C147.444 41.8972 149.239 41.4463 151.319 41.4463C153.114 41.4463 154.685 41.7722 156.033 42.424C157.381 43.0757 158.448 43.9909 159.234 45.1695C160.02 46.3481 160.453 47.732 160.533 49.3213H155.149C154.998 48.2945 154.596 47.4686 153.944 46.8436C153.301 46.2097 152.457 45.8927 151.413 45.8927C150.529 45.8927 149.756 46.1338 149.096 46.6159C148.444 47.0891 147.935 47.7811 147.569 48.6918C147.203 49.6025 147.02 50.7052 147.02 51.9998C147.02 53.3123 147.198 54.4284 147.556 55.3481C147.922 56.2677 148.435 56.9686 149.096 57.4507C149.756 57.9329 150.529 58.1739 151.413 58.1739C152.065 58.1739 152.649 58.04 153.167 57.7722C153.694 57.5043 154.127 57.1159 154.466 56.607C154.815 56.0891 155.042 55.4686 155.149 54.7454H160.533C160.444 56.3168 160.015 57.7007 159.248 58.8972C158.489 60.0847 157.44 61.0132 156.1 61.6829C154.761 62.3525 153.176 62.6873 151.346 62.6873Z" fill="#043730"/>
<path d="M169.356 56.3659L169.369 49.5222H170.2L176.789 41.7141H183.338L174.485 52.0534H173.133L169.356 56.3659ZM164.186 62.2855V34.857H169.892V62.2855H164.186ZM177.043 62.2855L170.99 53.3257L174.793 49.2945L183.726 62.2855H177.043Z" fill="#043730"/>
<path d="M186.244 34.857H193.396L200.95 53.2856H201.271L208.825 34.857H215.976V62.2855H210.351V44.4329H210.124L203.025 62.1516H199.195L192.097 44.3659H191.869V62.2855H186.244V34.857Z" fill="#043730"/>
<path d="M226.513 62.6739C225.201 62.6739 224.031 62.4463 223.004 61.9909C221.977 61.5266 221.165 60.8436 220.567 59.9418C219.977 59.0311 219.683 57.8972 219.683 56.54C219.683 55.3972 219.893 54.4373 220.312 53.6606C220.732 52.8838 221.303 52.2588 222.027 51.7856C222.75 51.3123 223.571 50.9552 224.491 50.7141C225.419 50.4731 226.393 50.3034 227.41 50.2052C228.607 50.0802 229.571 49.9641 230.303 49.857C231.035 49.7409 231.567 49.5713 231.897 49.3481C232.227 49.1248 232.393 48.7945 232.393 48.357V48.2766C232.393 47.4284 232.125 46.7722 231.589 46.3079C231.062 45.8436 230.312 45.6115 229.339 45.6115C228.312 45.6115 227.495 45.8391 226.888 46.2945C226.281 46.7409 225.879 47.3034 225.683 47.982L220.406 47.5534C220.674 46.3034 221.201 45.2231 221.986 44.3123C222.772 43.3927 223.785 42.6873 225.027 42.1963C226.277 41.6963 227.723 41.4463 229.366 41.4463C230.509 41.4463 231.602 41.5802 232.647 41.8481C233.701 42.1159 234.634 42.5311 235.446 43.0936C236.268 43.6561 236.915 44.3793 237.388 45.2632C237.861 46.1382 238.098 47.1873 238.098 48.4106V62.2855H232.687V59.4329H232.527C232.196 60.0757 231.754 60.6427 231.201 61.1338C230.647 61.6159 229.982 61.9954 229.205 62.2722C228.428 62.54 227.531 62.6739 226.513 62.6739ZM228.147 58.7364C228.986 58.7364 229.727 58.5713 230.37 58.2409C231.013 57.9016 231.518 57.4463 231.884 56.8748C232.25 56.3034 232.433 55.6561 232.433 54.9329V52.7498C232.254 52.8659 232.009 52.9731 231.696 53.0713C231.393 53.1606 231.049 53.2454 230.665 53.3257C230.281 53.3972 229.897 53.4641 229.513 53.5266C229.129 53.5802 228.781 53.6293 228.468 53.6739C227.799 53.7722 227.214 53.9284 226.714 54.1427C226.214 54.357 225.826 54.6472 225.549 55.0132C225.272 55.3704 225.134 55.8168 225.134 56.3525C225.134 57.1293 225.415 57.7231 225.977 58.1338C226.549 58.5355 227.272 58.7364 228.147 58.7364Z" fill="#043730"/>
<path d="M253.466 41.7141V45.9998H241.078V41.7141H253.466ZM243.89 36.7856H249.596V55.9641C249.596 56.4909 249.676 56.9016 249.837 57.1963C249.997 57.482 250.221 57.6829 250.506 57.7989C250.801 57.915 251.14 57.9731 251.524 57.9731C251.792 57.9731 252.06 57.9507 252.328 57.9061C252.596 57.8525 252.801 57.8123 252.944 57.7856L253.841 62.0311C253.556 62.1204 253.154 62.223 252.636 62.3391C252.118 62.4641 251.489 62.54 250.747 62.5668C249.372 62.6204 248.167 62.4373 247.131 62.0177C246.105 61.598 245.306 60.9463 244.734 60.0623C244.163 59.1784 243.881 58.0623 243.89 56.7141V36.7856Z" fill="#043730"/>
<path d="M266.337 62.6873C264.221 62.6873 262.399 62.2588 260.872 61.4016C259.355 60.5355 258.185 59.3123 257.364 57.732C256.542 56.1427 256.131 54.2632 256.131 52.0936C256.131 49.9775 256.542 48.1204 257.364 46.5222C258.185 44.924 259.341 43.6784 260.832 42.7856C262.332 41.8927 264.091 41.4463 266.109 41.4463C267.466 41.4463 268.73 41.665 269.899 42.1025C271.078 42.5311 272.105 43.1784 272.98 44.0445C273.864 44.9106 274.551 45.9998 275.042 47.3123C275.533 48.6159 275.779 50.1427 275.779 51.8927V53.4597H258.408V49.9239H270.408C270.408 49.1025 270.23 48.3748 269.872 47.7409C269.515 47.107 269.02 46.6115 268.386 46.2543C267.761 45.8882 267.033 45.7052 266.203 45.7052C265.337 45.7052 264.569 45.9061 263.899 46.3079C263.239 46.7007 262.721 47.232 262.346 47.9016C261.971 48.5623 261.779 49.2989 261.77 50.1114V53.4731C261.77 54.4909 261.957 55.3704 262.332 56.1114C262.716 56.8525 263.256 57.4239 263.953 57.8257C264.649 58.2275 265.475 58.4284 266.431 58.4284C267.064 58.4284 267.645 58.3391 268.172 58.1606C268.698 57.982 269.149 57.7141 269.524 57.357C269.899 56.9998 270.185 56.5623 270.381 56.0445L275.658 56.3927C275.39 57.6606 274.841 58.7677 274.011 59.7141C273.189 60.6516 272.127 61.3838 270.823 61.9105C269.529 62.4284 268.033 62.6873 266.337 62.6873Z" fill="#043730"/>
<path d="M296.618 47.5802L291.395 47.9016C291.306 47.4552 291.114 47.0534 290.819 46.6963C290.524 46.3302 290.136 46.04 289.654 45.8257C289.181 45.6025 288.614 45.4909 287.953 45.4909C287.069 45.4909 286.323 45.6784 285.716 46.0534C285.109 46.4195 284.805 46.9106 284.805 47.5266C284.805 48.0177 285.002 48.4329 285.395 48.7722C285.788 49.1114 286.462 49.3838 287.417 49.5891L291.14 50.3391C293.14 50.7498 294.631 51.4106 295.614 52.3213C296.596 53.232 297.087 54.4284 297.087 55.9106C297.087 57.2588 296.689 58.4418 295.895 59.4597C295.109 60.4775 294.029 61.2722 292.654 61.8436C291.288 62.4061 289.712 62.6873 287.926 62.6873C285.203 62.6873 283.033 62.1204 281.417 60.9864C279.81 59.8436 278.868 58.29 278.591 56.3257L284.203 56.0311C284.372 56.8614 284.783 57.4954 285.435 57.9329C286.087 58.3614 286.922 58.5757 287.939 58.5757C288.939 58.5757 289.743 58.3838 290.35 57.9998C290.966 57.607 291.279 57.1025 291.288 56.4864C291.279 55.9686 291.06 55.5445 290.631 55.2141C290.203 54.8748 289.542 54.6159 288.649 54.4373L285.087 53.7275C283.078 53.3257 281.582 52.6293 280.6 51.6382C279.627 50.6472 279.14 49.3838 279.14 47.8481C279.14 46.5266 279.497 45.3882 280.212 44.4329C280.935 43.4775 281.948 42.7409 283.252 42.2231C284.564 41.7052 286.1 41.4463 287.859 41.4463C290.457 41.4463 292.502 41.9954 293.993 43.0936C295.493 44.1918 296.368 45.6873 296.618 47.5802Z" fill="#043730"/>
<circle cx="33.8049" cy="44.1951" r="33.8049" fill="#F76519"/>
<circle cx="33.1789" cy="44.1951" r="27.5447" fill="white"/>
<circle cx="33.1788" cy="44.1951" r="20.6585" fill="#F76519"/>
<circle cx="33.1787" cy="44.1951" r="13.7723" fill="white"/>
<circle cx="33.1787" cy="44.1951" r="7.19918" fill="#043730"/>
<path d="M29.8571 46.5714L32.2142 39.5L37.7142 45.7857L29.8571 46.5714Z" fill="white" stroke="white" stroke-width="0.21602" stroke-linejoin="round"/>
<path d="M67.2966 9.45121L66.9836 18.6849L78.0954 9.92072V1L67.2966 9.45121Z" fill="#043730" stroke="#043730" stroke-width="0.21602" stroke-linejoin="round"/>
<path d="M76.0328 20.5507L66.9836 18.6873L78.1114 9.94346L86.7829 12.0376L76.0328 20.5507Z" fill="#043730" stroke="#043730" stroke-width="0.21602" stroke-linejoin="round"/>
<path d="M34.1179 43.2562L77.626 10.0773" stroke="white" stroke-width="1.51214"/>
<mask id="mask0_550_4390" style="mask-type:alpha" maskUnits="userSpaceOnUse" x="33" y="0" width="54" height="44">
<path d="M67.2966 9.45121L66.9836 18.6849L78.0954 9.92072V1L67.2966 9.45121Z" fill="#043730" stroke="#043730" stroke-width="0.21602" stroke-linejoin="round"/>
<path d="M76.0328 20.5507L66.9836 18.6873L78.1114 9.94346L86.7829 12.0376L76.0328 20.5507Z" fill="#043730" stroke="#043730" stroke-width="0.21602" stroke-linejoin="round"/>
<path d="M34.1179 43.2562L77.626 10.0773" stroke="#043730" stroke-width="1.51214"/>
</mask>
<g mask="url(#mask0_550_4390)">
<path fill-rule="evenodd" clip-rule="evenodd" d="M35.3571 117.286C75.7133 117.286 108.428 84.5705 108.428 44.2143C108.428 3.85805 75.7133 -28.8571 35.3571 -28.8571C-4.99913 -28.8571 -37.7143 3.85805 -37.7143 44.2143C-37.7143 84.5705 -4.99913 117.286 35.3571 117.286ZM33.7857 77.9999C52.445 77.9999 67.5714 62.8736 67.5714 44.2142C67.5714 25.5549 52.445 10.4285 33.7857 10.4285C15.1264 10.4285 -1.90735e-05 25.5549 -1.90735e-05 44.2142C-1.90735e-05 62.8736 15.1264 77.9999 33.7857 77.9999Z" fill="#043730"/>
</g>
</svg>
