<svg width="203" height="210" viewBox="0 0 203 210" fill="none" xmlns="http://www.w3.org/2000/svg">
<path d="M27.9999 106C26.0999 108.5 24.6999 111.2 23.7999 113.9C22.8999 116.6 22.6999 119.4 22.9999 122.1C23.0999 123.5 23.3999 124.9 23.6999 126.3C23.9999 127.7 24.4999 129.1 24.9999 130.5C25.9999 133.3 27.2999 136.1 28.5999 139.1L28.3999 139.3L26.9999 137.4C26.4999 136.8 26.0999 136.1 25.6999 135.5C25.2999 134.8 24.8999 134.2 24.4999 133.5C24.0999 132.8 23.6999 132.1 23.3999 131.4L22.8999 130.3L22.6999 129.8L22.4999 129.3L22.0999 128.2C21.9999 127.8 21.8999 127.5 21.6999 127.1C21.5999 126.7 21.4999 126.4 21.3999 126L21.0999 124.9C20.9999 124.1 20.7999 123.3 20.6999 122.6C20.3999 119.5 20.8999 116.2 22.1999 113.3C22.7999 111.9 23.6999 110.5 24.5999 109.3C25.5999 108.1 26.6999 107 27.9999 106Z" fill="#A986FC"/>
<path d="M28.4 139.5L26.8 137.5C26.5 137.1 26.2 136.7 25.9 136.3C25.7 136.1 25.6 135.8 25.4 135.6C25.1 135.2 24.9 134.7 24.6 134.3C24.5 134.1 24.3 133.8 24.2 133.6L24.1 133.5C23.7 132.9 23.4 132.2 23 131.5L22.3 129.9L21.6 128.2C21.5 128 21.4 127.7 21.4 127.5C21.4 127.4 21.3 127.2 21.3 127.1C21.2 126.7 21.1 126.3 21 125.9L20.7 124.8L20.6 124.4C20.5 123.8 20.4 123.1 20.3 122.5C20 119.2 20.5 116 21.8 113.1C22.4 111.7 23.3 110.3 24.3 109C25.4 107.6 26.6 106.5 27.7 105.7L27.9 105.6L28.2 106.1L28.1 106.2C26.2 108.7 24.8 111.4 23.9 114C23.1 116.6 22.8 119.3 23.1 122.2C23.2 123.4 23.4 124.8 23.8 126.3C24.1 127.5 24.5 128.7 24.9 130L25.1 130.5C25.7 132.3 26.5 134.1 27.3 135.9C27.7 136.9 28.2 138 28.6 139L28.7 139.1L28.4 139.5ZM27.5 106.3C26.5 107.1 25.6 108 24.6 109.2C23.6 110.4 22.8 111.8 22.2 113.2C20.9 116 20.4 119.1 20.7 122.4C20.7 123 20.9 123.7 21 124.3L21.1 124.7L21.4 125.8C21.5 126.2 21.6 126.6 21.7 126.9C21.7 127 21.8 127.2 21.8 127.3C21.9 127.5 22 127.8 22 128L22.6 129.6L23.3 131.2C23.6 131.9 24 132.5 24.4 133.2V133.3C24.5 133.5 24.7 133.8 24.8 134C25.1 134.4 25.3 134.9 25.6 135.3C25.8 135.5 25.9 135.8 26.1 136C26.4 136.4 26.7 136.8 27 137.2L28 138.6C27.6 137.7 27.3 136.9 26.9 136C26.1 134.1 25.3 132.4 24.7 130.6L24.5 130.1C24.1 128.9 23.6 127.6 23.4 126.4C23 124.8 22.8 123.5 22.7 122.2C22.4 119.3 22.7 116.5 23.5 113.9C24.5 111.2 25.8 108.7 27.5 106.3Z" fill="#A986FC"/>
<path d="M20.1 105.7C18.2 107.7 16.7 109.7 15.6 111.9C14.5 114 14 116.3 13.8 118.6C13.7 119.8 13.7 121 13.8 122.2C13.9 123.4 14.1 124.6 14.2 125.9C14.6 128.4 15.2 131 15.7 133.7L15.5 133.8L14.6 132C14.3 131.4 14 130.8 13.7 130.2C13.4 129.6 13.2 129 12.9 128.3C12.7 127.7 12.5 127 12.3 126.4C11.9 125.1 11.6 123.8 11.4 122.4C11.3 121.7 11.3 121.1 11.2 120.4C11.2 119.7 11.2 119 11.2 118.4C11.4 115.7 12.3 113 13.8 110.8C14.6 109.7 15.5 108.6 16.5 107.7C17.5 106.8 18.6 106 19.9 105.4L20.1 105.7Z" fill="#A986FC"/>
<path d="M15.5 134.1L14.5 132.1C14.3 131.7 14.1 131.3 13.9 130.9C13.8 130.7 13.7 130.5 13.6 130.3C13.4 129.9 13.3 129.5 13.1 129.1C13 128.9 12.9 128.7 12.8 128.4V128.3C12.6 127.7 12.4 127.1 12.2 126.5C11.9 125.3 11.5 123.9 11.3 122.5C11.2 122 11.2 121.5 11.2 121.1C11.2 120.9 11.2 120.7 11.2 120.5V120.1C11.2 119.6 11.2 119 11.2 118.4C11.4 115.6 12.3 112.9 13.8 110.7C14.6 109.6 15.5 108.5 16.5 107.6C17.7 106.6 18.8 105.8 19.9 105.3L20.1 105.2L20.3 105.7L20.2 105.8C18.3 107.8 16.8 109.8 15.8 111.9C14.8 113.9 14.2 116.1 14 118.6C13.9 119.6 13.9 120.8 14 122.1C14 123.1 14.2 124.1 14.4 125.2L14.5 125.8C14.7 127.2 15 128.6 15.3 130.1C15.5 131.2 15.8 132.4 16 133.6V133.7L15.5 134.1ZM19.6 105.9C18.7 106.4 17.7 107.1 16.7 107.9C15.7 108.8 14.8 109.8 14.1 110.9C12.6 113.1 11.7 115.7 11.5 118.4C11.4 118.9 11.5 119.5 11.5 120V120.4C11.5 120.6 11.5 120.8 11.5 121C11.5 121.5 11.6 122 11.6 122.4C11.8 123.8 12.1 125.2 12.5 126.3C12.7 126.9 12.9 127.5 13.1 128.1V128.2C13.2 128.4 13.3 128.6 13.4 128.9C13.6 129.3 13.7 129.7 13.9 130.1C14 130.3 14.1 130.5 14.2 130.7C14.4 131.1 14.6 131.5 14.8 131.9L15.5 133.2C15.3 132.2 15.1 131.2 14.9 130.2C14.6 128.7 14.3 127.3 14.1 125.9L14 125.3C13.8 124.2 13.7 123.2 13.6 122.2C13.5 120.8 13.5 119.7 13.6 118.6C13.8 116.1 14.4 113.9 15.4 111.8C16.4 109.7 17.8 107.8 19.6 105.9Z" fill="#A986FC"/>
<path d="M176.2 84.2999C179.8 84.5999 183.2 86.2999 185.9 88.7999C187.3 89.9999 188.4 91.5 189.4 93.2C189.6 93.6 189.8 93.9999 190 94.4999C190.2 94.8999 190.4 95.3999 190.6 95.7999C190.8 96.1999 190.9 96.6999 191 97.0999L191.2 97.7999L191.4 98.4999C191.6 99.3999 191.7 100.3 191.9 101.2L192 102.6C192 102.8 192 103.1 192 103.3C192 103.5 192 103.8 192 104C192 104.5 192 104.9 192 105.4C192 105.9 191.9 106.3 191.9 106.7C191.8 107.6 191.6 108.5 191.4 109.3C190.6 112.8 189.3 116 187.3 119L187.1 118.9L187.9 116.5C188.1 115.7 188.3 114.9 188.6 114.1C188.8 113.3 189 112.5 189.2 111.6C189.3 110.8 189.5 109.9 189.6 109.1L189.7 107.8L189.8 107.2V106.6L189.9 105.3C189.9 104.9 189.9 104.5 189.9 104V103.4C189.9 103.2 189.9 103 189.8 102.8L189.7 101.5C189.6 100.7 189.5 99.7999 189.2 98.9999C188.8 97.3999 188.3 95.7999 187.5 94.2999C186.7 92.7999 185.8 91.4 184.7 90.2C183.6 89 182.3 87.8999 180.9 86.8999C179.5 85.9999 178 85.1999 176.4 84.5999L176.2 84.2999Z" fill="#A986FC"/>
<path d="M187.3 119.2L186.7 119L187.5 116.4C187.6 115.9 187.8 115.4 187.9 114.8C188 114.5 188.1 114.2 188.1 113.9C188.2 113.4 188.3 112.8 188.5 112.3C188.6 112 188.6 111.7 188.7 111.4V111.3C188.8 110.5 189 109.7 189.1 108.9L189.3 107L189.4 105.1C189.4 104.8 189.4 104.6 189.4 104.3C189.4 104.1 189.4 104 189.4 103.8V103.2C189.4 103.1 189.4 102.9 189.4 102.8C189.4 102.7 189.4 102.6 189.4 102.6L189.3 101.3L189.2 100.8C189.1 100.1 189 99.4999 188.8 98.7999C188.4 97.0999 187.9 95.4999 187.1 94.0999C186.4 92.5999 185.4 91.1999 184.3 89.9999C183.2 88.7999 181.9 87.6999 180.5 86.7999C179 85.7999 177.5 84.9999 176.1 84.5999L175.9 84.4999L176.1 83.8999H176.3C179.7 84.1999 183.2 85.7999 186.1 88.3999C187.4 89.5999 188.6 91.0999 189.6 92.7999C189.8 93.0999 189.9 93.3999 190.1 93.6999C190.2 93.7999 190.2 93.9999 190.3 94.0999C190.4 94.3999 190.6 94.6999 190.7 94.9999C190.8 95.0999 190.8 95.2999 190.9 95.3999C191 95.6999 191.1 95.9999 191.2 96.2999C191.2 96.3999 191.3 96.5999 191.3 96.6999L191.5 97.3999L191.7 98.0999C191.9 98.8999 192 99.7999 192.1 100.6V100.8L192.2 102.4C192.2 102.6 192.2 102.7 192.2 102.9C192.2 103.1 192.2 103.2 192.2 103.4V103.6C192.2 103.8 192.2 103.9 192.2 104.1C192.2 104.4 192.2 104.7 192.2 105C192.2 105.3 192.1 105.7 192.1 106V106.3C192.1 107 191.9 107.6 191.8 108.2C191.7 108.4 191.7 108.7 191.7 108.9C190.9 112.4 189.5 115.7 187.6 118.6L187.3 119.2ZM176.8 84.5999C178.1 85.0999 179.4 85.7999 180.7 86.6999C182.1 87.6999 183.4 88.7999 184.5 89.9999C185.6 91.2999 186.6 92.6999 187.4 94.1999C188.1 95.6999 188.7 97.2999 189.1 98.9999C189.3 99.6999 189.4 100.3 189.5 101L189.6 101.5L189.7 103C189.7 103.1 189.7 103.3 189.7 103.4V104C189.7 104.2 189.7 104.3 189.7 104.4C189.7 104.7 189.7 104.9 189.7 105.2L189.6 107.1L189.4 109C189.3 109.8 189.2 110.6 189 111.4V111.5C188.9 111.8 188.9 112.1 188.8 112.4C188.7 112.9 188.6 113.5 188.4 114C188.3 114.3 188.2 114.6 188.2 114.9C188.1 115.4 187.9 116 187.8 116.5L187.2 118.3C189 115.5 190.2 112.5 190.9 109.2C190.9 109 191 108.7 191 108.5C191.1 107.9 191.3 107.3 191.3 106.6V106.2C191.3 105.9 191.4 105.5 191.4 105.2C191.4 104.9 191.4 104.6 191.4 104.3C191.4 104.1 191.4 104 191.4 103.8V103.6C191.4 103.5 191.4 103.3 191.4 103.2C191.4 103.1 191.4 102.9 191.4 102.8C191.4 102.7 191.4 102.6 191.4 102.6L191.3 101.2V101C191.2 100.2 191.1 99.2999 190.9 98.4999L190.7 97.7999L190.5 97.0999C190.5 96.9999 190.4 96.7999 190.4 96.6999C190.3 96.3999 190.2 96.0999 190.1 95.7999C190 95.6999 190 95.4999 189.9 95.3999C189.8 95.0999 189.7 94.7999 189.5 94.4999C189.4 94.3999 189.4 94.1999 189.3 94.0999C189.2 93.7999 189 93.4999 188.9 93.1999C187.9 91.4999 186.8 89.9999 185.5 88.8999C183.1 86.4999 180 84.9999 176.8 84.5999Z" fill="#A986FC"/>
<path d="M184.2 81.3C187.3 80.9 190.4 81.8 193.2 83.5C194.6 84.4 195.8 85.5 196.8 86.7C197.1 87 197.3 87.4 197.5 87.7C197.7 88 197.9 88.4 198.2 88.7C198.4 89 198.6 89.4 198.8 89.8L199.1 90.3L199.3 90.9C199.6 91.6 199.9 92.4 200.1 93.2L200.4 94.4C200.5 94.8 200.6 95.2 200.6 95.6C200.7 96 200.7 96.4 200.8 96.8C200.8 97.2 200.8 97.6 200.9 98C201 98.8 200.9 99.6 200.9 100.3C200.7 103.4 200 106.3 198.6 109.1H198.4L198.7 106.9C198.8 106.2 198.8 105.5 198.9 104.7C199 104 199 103.3 199 102.5C199 101.8 199 101.1 199 100.3L198.9 99.2V98.7L198.8 98.2L198.7 97.1C198.6 96.7 198.6 96.4 198.5 96C198.4 95.6 198.4 95.3 198.3 94.9L198 93.9C197.8 93.2 197.6 92.5 197.3 91.9C196.2 89.2 194.5 86.9 192.2 85.1C191.1 84.2 189.8 83.5 188.5 82.9C187.2 82.3 185.8 81.9 184.4 81.6L184.2 81.3Z" fill="#A986FC"/>
<path d="M198.7 109.1L198.1 109L198.4 106.7C198.5 106.2 198.5 105.8 198.5 105.3C198.5 105 198.5 104.8 198.6 104.5C198.6 104 198.7 103.6 198.7 103.1C198.7 102.8 198.7 102.6 198.7 102.3V102.2C198.7 101.5 198.7 100.8 198.7 100.1L198.6 98.5L198.4 96.9C198.4 96.7 198.3 96.5 198.3 96.2C198.3 96.1 198.2 95.9 198.2 95.8C198.1 95.5 198.1 95.1 198 94.8L197.7 93.8L197.6 93.4C197.4 92.9 197.2 92.3 197 91.8C195.9 89.1 194.1 86.8 192 85.1C190.9 84.2 189.7 83.5 188.4 82.9C186.9 82.3 185.6 81.8 184.3 81.7H184.1L184.2 81.1H184.4C187.3 80.7 190.6 81.5 193.5 83.3C194.9 84.2 196.1 85.3 197.2 86.6C197.4 86.8 197.6 87.1 197.7 87.3L197.9 87.6C198.1 87.8 198.2 88.1 198.4 88.3C198.5 88.4 198.5 88.5 198.6 88.6C198.8 88.8 198.9 89.1 199 89.3C199.1 89.4 199.1 89.5 199.2 89.6L199.5 90.1L199.7 90.7C200 91.4 200.2 92.2 200.5 92.9V93L200.8 94.2C200.9 94.6 201 95 201 95.4L201.1 95.8C201.1 96.1 201.2 96.3 201.2 96.6C201.2 96.9 201.2 97.2 201.3 97.5V97.8C201.3 98.4 201.3 98.9 201.3 99.5C201.3 99.7 201.3 100 201.3 100.2C201.1 103.4 200.3 106.4 199 109.1H198.7ZM184.8 81.4C185.9 81.6 187.1 82 188.4 82.6C189.8 83.2 191 84 192.1 84.8C194.3 86.5 196.1 88.9 197.3 91.7C197.5 92.2 197.7 92.8 197.9 93.3L198 93.7L198.3 94.8C198.4 95.2 198.5 95.5 198.5 95.9C198.5 96 198.5 96.2 198.6 96.3C198.6 96.5 198.7 96.8 198.7 97L198.9 98.6L199 100.2C199 100.9 199 101.6 199 102.3V102.4C199 102.7 199 102.9 199 103.2C199 103.7 199 104.1 198.9 104.6C198.9 104.9 198.9 105.1 198.8 105.4C198.8 105.9 198.7 106.3 198.7 106.8L198.5 108.4C199.7 105.9 200.3 103.1 200.5 100.2C200.5 100 200.5 99.8 200.5 99.5C200.5 99 200.5 98.4 200.5 97.9V97.6C200.5 97.3 200.5 97 200.4 96.8C200.4 96.5 200.3 96.3 200.3 96L200.2 95.6C200.2 95.2 200.1 94.8 200 94.5L199.7 93.2C199.5 92.5 199.2 91.8 198.9 91.1L198.7 90.5L198.4 90C198.3 89.9 198.3 89.8 198.2 89.7C198.1 89.5 198 89.2 197.8 89C197.7 88.9 197.7 88.8 197.6 88.7C197.5 88.5 197.3 88.2 197.2 88L197 87.7C196.8 87.5 196.7 87.2 196.5 87C195.5 85.7 194.2 84.7 192.9 83.8C190.4 82 187.5 81.2 184.8 81.4Z" fill="#A986FC"/>
<path d="M68.8998 145.7C59.7998 162.6 52.5998 180.5 44.4998 198C41.7998 203.8 50.3998 208.9 53.0998 203C61.1998 185.6 68.2998 167.7 77.4998 150.7C80.4998 145.1 71.8998 140.1 68.8998 145.7Z" fill="black"/>
<path d="M66.2998 201.1C66.7998 208.8 61.0998 205.9 61.0998 205.9C57.9998 209.5 52.8998 207 52.8998 207C48.8998 210.1 43.9998 207.9 43.9998 207.9C39.2998 210.8 35.7998 207.5 35.7998 207.5C29.2998 210.3 26.2998 206.1 26.2998 206.1C25.4998 206.4 24.6998 206.5 23.9998 206.5C21.2998 206.5 19.2998 203.9 19.7998 201.2L20.6998 196.2H20.8998C21.0998 196.6 21.2998 197.1 21.4998 197.5C23.8998 201.6 29.2998 202.6 33.6998 203C37.8998 203.4 42.1998 203.3 46.3998 202.9L66.2998 201.1Z" fill="white" stroke="black" stroke-width="0.5" stroke-miterlimit="10"/>
<path d="M52.7998 178.5C51.8998 178 49.0998 176.5 46.5998 177.9C44.4998 179 43.3998 181.7 43.7998 184.5C42.2998 184.2 37.7998 183.6 37.3998 183.6C33.5998 183.3 29.3998 183.3 25.7998 184.8C20.8998 186.9 19.0998 193.1 21.5998 197.6C23.8998 201.7 29.3998 202.7 33.7998 203.1C37.9998 203.5 42.2998 203.4 46.4998 203L66.2998 201.1L65.5998 188.8C65.5998 188.8 70.3998 185.7 67.3998 181.2C66.6998 180.2 65.7998 179.4 64.6998 179.1C59.6998 177.5 56.1998 180.4 52.7998 178.5Z" fill="#FF1F33" stroke="black" stroke-width="0.5" stroke-miterlimit="10"/>
<path d="M43.6997 184.5C43.6997 184.5 50.1997 186.6 51.7997 193.5" stroke="black" stroke-width="0.5" stroke-miterlimit="10"/>
<path d="M35.2998 183.6C35.2998 183.6 44.0998 186.1 45.2998 194.5" stroke="black" stroke-width="0.5" stroke-miterlimit="10"/>
<path d="M62.3998 192.1C63.0998 194.1 61.9998 196.3 59.8998 197C57.8998 197.7 55.6998 196.6 54.9998 194.5C54.2998 192.5 55.3998 190.3 57.4998 189.6C59.5998 188.9 61.6998 190.1 62.3998 192.1Z" fill="black" stroke="black" stroke-width="0.5" stroke-miterlimit="10"/>
<path d="M148.8 142.9C158.4 160.6 165.8 179.3 174.3 197.5C177.1 203.5 168.1 208.8 165.3 202.8C156.8 184.6 149.4 165.9 139.8 148.2C136.6 142.2 145.6 136.9 148.8 142.9Z" fill="black"/>
<path d="M152.5 200.8C151.9 208.9 158 205.8 158 205.8C161.2 209.5 166.6 207 166.6 207C170.8 210.2 175.9 207.9 175.9 207.9C180.8 210.9 184.5 207.4 184.5 207.4C191.3 210.4 194.4 206 194.4 206C195.3 206.3 196.1 206.4 196.8 206.4C199.6 206.4 201.7 203.6 201.2 200.8L200.3 195.6H200.1C199.9 196.1 199.7 196.5 199.5 196.9C197 201.3 191.3 202.2 186.7 202.7C182.3 203.1 177.8 203 173.3 202.6L152.5 200.8Z" fill="white" stroke="black" stroke-width="0.5" stroke-miterlimit="10"/>
<path d="M166.7 177.1C167.6 176.6 170.6 175 173.3 176.5C175.5 177.7 176.7 180.5 176.2 183.4C177.8 183.1 182.5 182.5 182.9 182.4C186.9 182.1 191.3 182.1 195.1 183.7C200.3 185.9 202.1 192.4 199.5 197.1C197 201.4 191.3 202.4 186.7 202.9C182.3 203.3 177.8 203.2 173.3 202.8L152.6 200.8L153.3 187.9C153.3 187.9 148.2 184.6 151.4 180C152.1 179 153.1 178.2 154.3 177.8C159.5 176 163.1 179 166.7 177.1Z" fill="#FF1F33" stroke="black" stroke-width="0.5" stroke-miterlimit="10"/>
<path d="M176.2 183.4C176.2 183.4 169.4 185.6 167.7 192.8" stroke="black" stroke-width="0.5" stroke-miterlimit="10"/>
<path d="M185 182.4C185 182.4 175.8 185 174.6 193.9" stroke="black" stroke-width="0.5" stroke-miterlimit="10"/>
<path d="M156.6 191.4C155.9 193.5 157 195.8 159.2 196.5C161.3 197.2 163.6 196.1 164.3 193.9C165 191.8 163.9 189.5 161.7 188.8C159.6 188.1 157.3 189.2 156.6 191.4Z" fill="black" stroke="black" stroke-width="0.5" stroke-miterlimit="10"/>
<path d="M181.7 30C181.3 30.8 181.1 31.8 180.7 32.6C180.1 33.9 180.6 33.6 179.3 33.8C177.6 34 176.2 33.2 174.5 33.9C171.2 35.2 170 39.3 171.5 42.4C172.1 43.8 176.2 47.1 176 48.2C175.7 50.1 169.9 49.4 168.4 50.4C165.3 52.3 165.3 56.5 166.4 59.5C167 61.1 168.4 62.9 168.5 64.7C168.6 67 166.6 65.9 165 65.9C160.4 65.9 158.5 69.9 159.3 74C159.6 75.3 160.1 76.6 160.2 78C160.3 79.2 160.2 80.5 159.3 81.4C158.8 81.9 158.1 82.3 157.5 82.6C157.2 82.8 156 83.1 156 83.6C155.9 86.4 155.8 91.4 155.8 91.6C156.2 91.5 156.7 91.6 157.2 91.6C159.8 91.7 161.5 89.7 162.9 87.8C164.4 85.8 165.6 83.5 165.9 81C166 79.7 165.9 78.4 165.7 77.1C165.5 75.6 163.7 71.8 165.2 71.3C165.9 71 167.3 71.6 168 71.5C168.9 71.5 169.8 71.3 170.6 70.9C174.2 69.2 174.6 65.1 173.4 61.8C172.8 60.1 171.6 58.4 171.3 56.7C171 54.8 171.1 54.9 172.9 54.8C176.2 54.6 179.4 53.9 181 50.6C182.4 47.6 180.9 44.9 178.8 42.7C178.2 42 176.4 40.7 176.4 39.7C176.4 38.1 178.4 39.1 179.4 39.1C184.1 39.4 184.9 36.1 186.5 32.5C187.9 29.5 183.1 26.8 181.7 30Z" fill="black"/>
<path d="M177.2 26.2C177.2 26.2 170.6 29.2 178.9 33.2C187.3 37.2 191.4 37.9 189 32.2C189 32.2 196.9 34.9 202.4 13.7C202.7 12.6 202.8 11.2 202 10.5C200.8 9.49999 198 10.9 193.5 18.3C193.5 18.3 200.8 5.09999 196.7 3.79999C195.9 3.59999 195.1 3.89999 194.5 4.49999C193.3 5.59999 189.8 11.4 187.9 15.9C187.9 15.9 191.2 7.3 191.1 4.1C191.1 0.899997 188.8 -0.800015 185.9 4.39999C185.2 5.69999 184.6 7.1 184 8.6L181.5 15.4C181.5 15.4 180.8 7.1 177.1 7.6C174.9 7.7 171 20.6 177.2 26.2Z" fill="white" stroke="black" stroke-width="0.5" stroke-miterlimit="10"/>
<path d="M185.3 14.6L196.1 19.9" stroke="black" stroke-width="0.5" stroke-miterlimit="10"/>
<path d="M181.5 16.4C181.5 16.4 188.1 19.2 185.6 25.3" stroke="black" stroke-width="0.5" stroke-miterlimit="10"/>
<path d="M181.7 28.6C181.1 28.5 180.2 28.2 179.2 27.7C178.4 27.3 177.8 26.8 177.3 26.4" stroke="black" stroke-width="0.5" stroke-miterlimit="10"/>
<path d="M186.1 30.9L189 32.2" stroke="black" stroke-width="0.5" stroke-miterlimit="10"/>
<path d="M25.4998 37.3999C25.9998 38.2999 26.3998 39.1999 26.8998 40.0999C27.6998 41.3999 27.0998 41.2 28.4998 41.2C30.2998 41.2 31.6998 40.1999 33.5998 40.7999C37.2998 41.8999 38.9998 46.0999 37.7998 49.4999C37.2998 51.0999 33.2998 55.0999 33.6998 56.2999C34.2998 58.2999 40.3998 56.9 42.0998 57.7C45.5998 59.4 46.0998 63.8 45.1998 67.2C44.6998 69 43.4998 71.0999 43.5998 72.8999C43.6998 75.2999 45.7998 73.9999 47.4998 73.7999C52.4998 73.2999 54.8998 77.2999 54.4998 81.8999C54.3998 83.3999 53.9998 84.7999 53.9998 86.2999C53.9998 87.5999 54.2998 88.9999 55.3998 89.7999C55.9998 90.2999 56.6998 90.5999 57.4998 90.7999C57.8998 90.8999 59.1998 91.2 59.1998 91.7C59.5998 94.7 60.2998 100 60.2998 100.2C59.7998 100.2 59.2998 100.3 58.7998 100.4C56.0998 100.8 53.9998 98.8999 52.1998 96.9999C50.3998 94.9999 48.7998 92.7999 48.2998 90.0999C47.9998 88.6999 47.9998 87.2999 47.9998 85.8999C48.0998 84.2999 49.4998 80.0999 47.8998 79.5999C47.0998 79.3999 45.6998 80.1 44.8998 80.2C43.8998 80.3 42.9998 80.1999 41.9998 79.8999C37.9998 78.4999 37.0998 74.1999 37.9998 70.4999C38.3998 68.6999 39.5998 66.6999 39.5998 64.7999C39.6998 62.6999 39.5998 62.8999 37.6998 62.9999C34.0998 63.1999 30.6998 62.7999 28.5998 59.3999C26.6998 56.2999 28.0998 53.3 29.9998 50.7C30.5998 49.9 32.2998 48.3 32.1998 47.2C31.9998 45.5 29.9998 46.7999 28.8998 46.9999C23.8998 47.7999 22.6998 44.3999 20.4998 40.7999C18.7998 37.4999 23.5998 34.0999 25.4998 37.3999Z" fill="black"/>
<path d="M29.8999 32.7999C29.8999 32.7999 37.2999 35.2999 28.7999 40.4999C20.2999 45.6999 15.9999 46.9 17.8999 40.6C17.8999 40.6 9.79988 44.3999 1.39988 22.3999C0.999882 21.2999 0.699882 19.7999 1.49988 18.8999C2.59988 17.5999 5.89988 18.8 11.3999 26.2C11.3999 26.2 2.09988 12.8999 6.29988 10.9999C7.09988 10.5999 7.99988 10.9999 8.69988 11.4999C10.0999 12.5999 14.4999 18.3999 17.0999 22.8999C17.0999 22.8999 12.5999 14 12.2999 10.6C11.9999 7.19995 14.1999 5.09995 17.7999 10.3C18.6999 11.7 19.5999 13.0999 20.2999 14.4999L23.7999 21.3999C23.7999 21.3999 23.5999 12.4 27.5999 12.6C30.1999 12.8 35.7999 26.0999 29.8999 32.7999Z" fill="white" stroke="black" stroke-width="0.5" stroke-miterlimit="10"/>
<path d="M19.8999 21.2999L8.8999 28.2" stroke="black" stroke-width="0.5" stroke-miterlimit="10"/>
<path d="M24 22.7999C24 22.7999 17.2 26.5999 20.7 32.7999" stroke="black" stroke-width="0.5" stroke-miterlimit="10"/>
<path d="M25.2998 35.9C25.9998 35.7 26.8998 35.3 27.8998 34.7C28.6998 34.1 29.2998 33.5 29.6998 33.1" stroke="black" stroke-width="0.5" stroke-miterlimit="10"/>
<path d="M20.8999 38.7999L17.8999 40.4999" stroke="black" stroke-width="0.5" stroke-miterlimit="10"/>
<path d="M128.544 170.311C134.835 162.9 133.927 151.793 126.516 145.502C119.105 139.211 107.998 140.118 101.707 147.529C95.4162 154.94 96.324 166.047 103.735 172.338C111.145 178.629 122.253 177.721 128.544 170.311Z" fill="#FFD800" stroke="black" stroke-width="0.5" stroke-miterlimit="10"/>
<path d="M178.2 131C166.7 138 140.2 152.5 114.4 157.2C88.1999 161.9 60.3999 158.5 44.0999 153.3C44.0999 153.3 43.9999 143.3 44.9999 128.7C45.2999 124.5 45.6999 120 46.1999 115.2C50.1999 76 62.0999 20.1 97.4999 16.2C131.1 12.5 153.8 56.3 166.4 90.9C168.4 96.4 170.1 101.6 171.6 106.4C176 120.8 178.2 131 178.2 131Z" fill="#FFD800" stroke="black" stroke-width="0.5" stroke-miterlimit="10"/>
<path d="M178.2 131C166.7 138 140.2 152.5 114.4 157.2C88.2 161.9 60.4 158.5 44.1 153.3C44.1 153.3 44 147.9 44.4 139.2C61 143.8 86.8 146.4 111.2 142C136.6 137.4 162.7 123.2 174.5 116.1C176.9 125.2 178.2 131 178.2 131Z" fill="#FFE036" stroke="black" stroke-width="0.5" stroke-miterlimit="10"/>
<path d="M104.5 9.7C104.9 14.9 101.1 19.4 95.8999 19.8C90.6999 20.2 86.1999 16.4 85.7999 11.2C85.3999 6 89.1999 1.5 94.3999 1.1C99.5999 0.700004 104.1 4.6 104.5 9.7Z" fill="#FFD800" stroke="black" stroke-width="0.5" stroke-miterlimit="10"/>
<path d="M90.2291 107.002C92.2607 98.062 86.6606 89.168 77.721 87.1364C68.7814 85.1048 59.8874 90.7049 57.8558 99.6445C55.8242 108.584 61.4242 117.478 70.3639 119.51C79.3035 121.541 88.1975 115.941 90.2291 107.002Z" fill="#FFB1DF"/>
<path d="M136.7 112.1C145.537 112.1 152.7 104.937 152.7 96.1001C152.7 87.2635 145.537 80.1001 136.7 80.1001C127.863 80.1001 120.7 87.2635 120.7 96.1001C120.7 104.937 127.863 112.1 136.7 112.1Z" fill="#FFB1DF"/>
<path d="M96.3737 78.2819C97.2825 67.495 89.2747 58.0138 78.4878 57.105C67.7009 56.1962 58.2197 64.2039 57.3108 74.9908C56.402 85.7777 64.4098 95.259 75.1967 96.1678C85.9836 97.0766 95.4648 89.0688 96.3737 78.2819Z" fill="white" stroke="black" stroke-width="0.5" stroke-miterlimit="10"/>
<path d="M82.6 95.3C83.7 93.5 82 91.3 82.7 89.4C83.3 87.8 84.5 87.2 84.3 85.2C84.2 83.6 83 82.3 82.4 80.9C81.1 78.1 82.6 77.5 83.5 74.8C84 73.1 83.7 71.9 82.8 70.3C81.8 68.4 81.5 68.5 82.3 66.6C82.8 65.5 83.8 64.4 84 63.1C84.2 61.2 83.2 59.2 81.6 58.5C78.9 57.3 76.1 57.2 72.9 58C69.8 58.7 70.1 61.5 70.2 62.5C70.3 63.8 71.2 64.9 71.7 66.1C72.4 68 72.1 67.9 71 69.8C70 71.4 69.6 72.5 70.1 74.3C70.8 77.1 72.2 77.7 70.8 80.4C70.1 81.8 68.8 83 68.6 84.6C68.3 86.6 69.5 87.3 70 88.9C70.6 90.9 68.8 93 69.8 94.8C71.3 95.3 73.3 95.8 75.7 96C78.5 96 80.9 95.7 82.6 95.3Z" fill="black" stroke="black" stroke-width="0.5" stroke-miterlimit="10"/>
<path d="M60.3999 54.4L65.4999 61" stroke="black" stroke-width="0.5" stroke-miterlimit="10"/>
<path d="M76.9 50.4L76.7 58" stroke="black" stroke-width="0.5" stroke-miterlimit="10"/>
<path d="M92.8999 54.2001L88.3999 61.1001" stroke="black" stroke-width="0.5" stroke-miterlimit="10"/>
<path d="M62.8999 90.6001L58.3999 95.3001" stroke="black" stroke-width="0.5" stroke-miterlimit="10"/>
<path d="M72.6999 96.1001L71.8999 102.6" stroke="black" stroke-width="0.5" stroke-miterlimit="10"/>
<path d="M86.8999 93.4L89.8999 99.1" stroke="black" stroke-width="0.5" stroke-miterlimit="10"/>
<path d="M149.9 63.1001C154.3 73.0001 149.8 84.6001 139.9 88.9001C130 93.3001 118.4 88.8001 114.1 78.9001C109.7 69.0001 114.2 57.4001 124.1 53.1001C134 48.7001 145.6 53.2001 149.9 63.1001Z" fill="white" stroke="black" stroke-width="0.5" stroke-miterlimit="10"/>
<path d="M143.3 87.0001C143.8 85.0001 141.5 83.4 141.6 81.3C141.7 79.6 142.6 78.7 141.8 76.8C141.2 75.3 139.7 74.5 138.6 73.3C136.5 71 137.8 70.0001 137.7 67.2001C137.7 65.4001 137 64.4001 135.7 63.1001C134.2 61.6001 133.9 61.8001 134.1 59.7001C134.2 58.5001 134.9 57.1 134.6 55.8C134.2 53.9 132.7 52.4001 130.9 52.2001C128 51.9001 125.3 52.7 122.4 54.4C119.6 56.1 120.9 58.6001 121.2 59.5001C121.7 60.7001 122.9 61.5001 123.7 62.5001C125 64.1001 124.7 64.1001 124.2 66.2001C123.8 68.0001 123.7 69.2001 124.7 70.7001C126.2 73.1001 127.8 73.3 127.3 76.3C127 77.8 126.2 79.4001 126.5 81.0001C126.9 83.0001 128.1 83.3001 129.1 84.7001C130.3 86.4001 129.2 88.9 130.7 90.4C132.3 90.4 134.3 90.3001 136.6 89.7001C139.6 89.0001 141.8 87.9001 143.3 87.0001Z" fill="black" stroke="black" stroke-width="0.5" stroke-miterlimit="10"/>
<path d="M109.6 55L116.4 59.7" stroke="black" stroke-width="0.5" stroke-miterlimit="10"/>
<path d="M124 46L126.1 53.4" stroke="black" stroke-width="0.5" stroke-miterlimit="10"/>
<path d="M140.4 44.7001L138.3 52.6001" stroke="black" stroke-width="0.5" stroke-miterlimit="10"/>
<path d="M123.1 88.6001L120.3 94.5001" stroke="black" stroke-width="0.5" stroke-miterlimit="10"/>
<path d="M134.1 90.8L135.4 97.3" stroke="black" stroke-width="0.5" stroke-miterlimit="10"/>
<path d="M146.8 83.9L151.5 88.4" stroke="black" stroke-width="0.5" stroke-miterlimit="10"/>
<path d="M115.5 90.7001C115.5 90.7001 120.3 117.1 109.7 118.1C97.6999 119.3 97.5999 92.5001 97.5999 92.5001C99.1999 93.1001 102.6 94.0001 106.9 93.5001C111.1 93.1001 114.1 91.6001 115.5 90.7001Z" fill="white" stroke="black" stroke-width="0.5" stroke-miterlimit="10"/>
<path d="M110.3 92.9L111.5 104.8L112.8 116.8" stroke="black" stroke-width="0.5" stroke-miterlimit="10"/>
<path d="M103.7 93.6001L105 105.5L106.5 117.6" stroke="black" stroke-width="0.5" stroke-miterlimit="10"/>
<path d="M116.6 104.3L111.5 104.8L105 105.5L99.2998 106" stroke="black" stroke-width="0.5" stroke-miterlimit="10"/>
<path d="M96.2 51C95.9 51.9 88.3 49.7 81.5 47.7C74.7 45.7 67.1 43.5 67.3 42.6C67.5 41.7 75.1 41.9 82.5 44.1C90 46.3 96.5 50.2 96.2 51Z" fill="black" stroke="black" stroke-width="0.5" stroke-miterlimit="10"/>
<path d="M107.8 50.4C108.3 51.1 115 46.9 120.9 43C126.8 39.2 133.5 34.8 133 34C132.6 33.2 125.4 35.6 118.8 39.8C112.4 44 107.3 49.6 107.8 50.4Z" fill="black" stroke="black" stroke-width="0.5" stroke-miterlimit="10"/>
<path d="M106.9 76.5L107.2 81.3C107.2 81.3 99.2998 81.3 99.4998 85.4C99.6998 89.5 108.5 87.2 108.5 87.2" fill="#FF9ED7"/>
<path d="M106.9 76.5L107.2 81.3C107.2 81.3 99.2998 81.3 99.4998 85.4C99.6998 89.5 108.5 87.2 108.5 87.2" stroke="black" stroke-width="0.5" stroke-miterlimit="10"/>
</svg>
