<svg width="266" height="324" viewBox="0 0 266 324" fill="none" xmlns="http://www.w3.org/2000/svg">
<path d="M52.9999 169C51.0999 171.5 49.6999 174.2 48.7999 176.9C47.8999 179.6 47.6999 182.4 47.9999 185.1C48.0999 186.5 48.3999 187.9 48.6999 189.3C48.9999 190.7 49.4999 192.1 49.9999 193.5C50.9999 196.3 52.2999 199.1 53.5999 202.1L53.3999 202.3L51.9999 200.4C51.4999 199.8 51.0999 199.1 50.6999 198.5C50.2999 197.8 49.8999 197.2 49.4999 196.5C49.0999 195.8 48.6999 195.1 48.3999 194.4L47.8999 193.3L47.6999 192.8L47.4999 192.3L47.0999 191.2C46.9999 190.8 46.8999 190.5 46.6999 190.1C46.5999 189.7 46.4999 189.4 46.3999 189L46.0999 187.9C45.9999 187.1 45.7999 186.3 45.6999 185.6C45.3999 182.5 45.8999 179.2 47.1999 176.3C47.7999 174.9 48.6999 173.5 49.5999 172.3C50.5999 171.1 51.6999 170 52.9999 169Z" fill="#A986FC"/>
<path d="M53.3999 202.5L51.7999 200.5C51.4999 200.1 51.1999 199.7 50.8999 199.3C50.6999 199.1 50.5999 198.8 50.3999 198.6C50.0999 198.2 49.8999 197.7 49.5999 197.3C49.4999 197.1 49.2999 196.8 49.1999 196.6L49.0999 196.5C48.6999 195.9 48.3999 195.2 47.9999 194.5L47.2999 192.9L46.5999 191.2C46.4999 191 46.3999 190.7 46.3999 190.5C46.3999 190.4 46.2999 190.2 46.2999 190.1C46.1999 189.7 46.0999 189.3 45.9999 188.9L45.6999 187.8L45.5999 187.4C45.4999 186.8 45.3999 186.1 45.2999 185.5C44.9999 182.2 45.4999 179 46.7999 176.1C47.3999 174.7 48.2999 173.3 49.2999 172C50.3999 170.6 51.5999 169.5 52.6999 168.7L52.8999 168.6L53.1999 169.1L53.0999 169.2C51.1999 171.7 49.7999 174.4 48.8999 177C48.0999 179.6 47.7999 182.3 48.0999 185.2C48.1999 186.4 48.3999 187.8 48.7999 189.3C49.0999 190.5 49.4999 191.7 49.8999 193L50.0999 193.5C50.6999 195.3 51.4999 197.1 52.2999 198.9C52.6999 199.9 53.1999 201 53.5999 202L53.6999 202.1L53.3999 202.5ZM52.4999 169.3C51.4999 170.1 50.5999 171 49.5999 172.2C48.5999 173.4 47.7999 174.8 47.1999 176.2C45.8999 179 45.3999 182.1 45.6999 185.4C45.6999 186 45.8999 186.7 45.9999 187.3L46.0999 187.7L46.3999 188.8C46.4999 189.2 46.5999 189.6 46.6999 189.9C46.6999 190 46.7999 190.2 46.7999 190.3C46.8999 190.5 46.9999 190.8 46.9999 191L47.5999 192.6L48.2999 194.2C48.5999 194.9 48.9999 195.5 49.3999 196.2V196.3C49.4999 196.5 49.6999 196.8 49.7999 197C50.0999 197.4 50.2999 197.9 50.5999 198.3C50.7999 198.5 50.8999 198.8 51.0999 199C51.3999 199.4 51.6999 199.8 51.9999 200.2L52.9999 201.6C52.5999 200.7 52.2999 199.9 51.8999 199C51.0999 197.1 50.2999 195.4 49.6999 193.6L49.4999 193.1C49.0999 191.9 48.5999 190.6 48.3999 189.4C47.9999 187.8 47.7999 186.5 47.6999 185.2C47.3999 182.3 47.6999 179.5 48.4999 176.9C49.4999 174.2 50.7999 171.7 52.4999 169.3Z" fill="#A986FC"/>
<path d="M45.0999 168.7C43.1999 170.7 41.6999 172.7 40.5999 174.9C39.4999 177 38.9999 179.3 38.7999 181.6C38.6999 182.8 38.6999 184 38.7999 185.2C38.8999 186.4 39.0999 187.6 39.1999 188.9C39.5999 191.4 40.1999 194 40.6999 196.7L40.4999 196.8L39.5999 195C39.2999 194.4 38.9999 193.8 38.6999 193.2C38.3999 192.6 38.1999 192 37.8999 191.3C37.6999 190.7 37.4999 190 37.2999 189.4C36.8999 188.1 36.5999 186.8 36.3999 185.4C36.2999 184.7 36.2999 184.1 36.1999 183.4C36.1999 182.7 36.1999 182 36.1999 181.4C36.3999 178.7 37.2999 176 38.7999 173.8C39.5999 172.7 40.4999 171.6 41.4999 170.7C42.4999 169.8 43.5999 169 44.8999 168.4L45.0999 168.7Z" fill="#A986FC"/>
<path d="M40.4999 197.1L39.4999 195.1C39.2999 194.7 39.0999 194.3 38.8999 193.9C38.7999 193.7 38.6999 193.5 38.5999 193.3C38.3999 192.9 38.2999 192.5 38.0999 192.1C37.9999 191.9 37.8999 191.7 37.7999 191.4V191.3C37.5999 190.7 37.3999 190.1 37.1999 189.5C36.8999 188.3 36.4999 186.9 36.2999 185.5C36.1999 185 36.1999 184.5 36.1999 184.1C36.1999 183.9 36.1999 183.7 36.1999 183.5V183.1C36.1999 182.6 36.1999 182 36.1999 181.4C36.3999 178.6 37.2999 175.9 38.7999 173.7C39.5999 172.6 40.4999 171.5 41.4999 170.6C42.6999 169.6 43.7999 168.8 44.8999 168.3L45.0999 168.2L45.2999 168.7L45.1999 168.8C43.2999 170.8 41.7999 172.8 40.7999 174.9C39.7999 176.9 39.1999 179.1 38.9999 181.6C38.8999 182.6 38.8999 183.8 38.9999 185.1C38.9999 186.1 39.1999 187.1 39.3999 188.2L39.4999 188.8C39.6999 190.2 39.9999 191.6 40.2999 193.1C40.4999 194.2 40.7999 195.4 40.9999 196.6V196.7L40.4999 197.1ZM44.5999 168.9C43.6999 169.4 42.6999 170.1 41.6999 170.9C40.6999 171.8 39.7999 172.8 39.0999 173.9C37.5999 176.1 36.6999 178.7 36.4999 181.4C36.3999 181.9 36.4999 182.5 36.4999 183V183.4C36.4999 183.6 36.4999 183.8 36.4999 184C36.4999 184.5 36.5999 185 36.5999 185.4C36.7999 186.8 37.0999 188.2 37.4999 189.3C37.6999 189.9 37.8999 190.5 38.0999 191.1V191.2C38.1999 191.4 38.2999 191.6 38.3999 191.9C38.5999 192.3 38.6999 192.7 38.8999 193.1C38.9999 193.3 39.0999 193.5 39.1999 193.7C39.3999 194.1 39.5999 194.5 39.7999 194.9L40.4999 196.2C40.2999 195.2 40.0999 194.2 39.8999 193.2C39.5999 191.7 39.2999 190.3 39.0999 188.9L38.9999 188.3C38.7999 187.2 38.6999 186.2 38.5999 185.2C38.4999 183.8 38.4999 182.7 38.5999 181.6C38.7999 179.1 39.3999 176.9 40.3999 174.8C41.3999 172.7 42.7999 170.8 44.5999 168.9Z" fill="#A986FC"/>
<path d="M201.2 147.3C204.8 147.6 208.2 149.3 210.9 151.8C212.3 153 213.4 154.5 214.4 156.2C214.6 156.6 214.8 157 215 157.5C215.2 157.9 215.4 158.4 215.6 158.8C215.8 159.2 215.9 159.7 216 160.1L216.2 160.8L216.4 161.5C216.6 162.4 216.7 163.3 216.9 164.2L217 165.6C217 165.8 217 166.1 217 166.3C217 166.5 217 166.8 217 167C217 167.5 217 167.9 217 168.4C217 168.9 216.9 169.3 216.9 169.7C216.8 170.6 216.6 171.5 216.4 172.3C215.6 175.8 214.3 179 212.3 182L212.1 181.9L212.9 179.5C213.1 178.7 213.3 177.9 213.6 177.1C213.8 176.3 214 175.5 214.2 174.6C214.3 173.8 214.5 172.9 214.6 172.1L214.7 170.8L214.8 170.2V169.6L214.9 168.3C214.9 167.9 214.9 167.5 214.9 167V166.4C214.9 166.2 214.9 166 214.8 165.8L214.7 164.5C214.6 163.7 214.5 162.8 214.2 162C213.8 160.4 213.3 158.8 212.5 157.3C211.7 155.8 210.8 154.4 209.7 153.2C208.6 152 207.3 150.9 205.9 149.9C204.5 149 203 148.2 201.4 147.6L201.2 147.3Z" fill="#A986FC"/>
<path d="M212.3 182.2L211.7 182L212.5 179.4C212.6 178.9 212.8 178.4 212.9 177.8C213 177.5 213.1 177.2 213.1 176.9C213.2 176.4 213.3 175.8 213.5 175.3C213.6 175 213.6 174.7 213.7 174.4V174.3C213.8 173.5 214 172.7 214.1 171.9L214.3 170L214.4 168.1C214.4 167.8 214.4 167.6 214.4 167.3C214.4 167.1 214.4 167 214.4 166.8V166.2C214.4 166.1 214.4 165.9 214.4 165.8C214.4 165.7 214.4 165.6 214.4 165.6L214.3 164.3L214.2 163.8C214.1 163.1 214 162.5 213.8 161.8C213.4 160.1 212.9 158.5 212.1 157.1C211.4 155.6 210.4 154.2 209.3 153C208.2 151.8 206.9 150.7 205.5 149.8C204 148.8 202.5 148 201.1 147.6L200.9 147.5L201.1 146.9H201.3C204.7 147.2 208.2 148.8 211.1 151.4C212.4 152.6 213.6 154.1 214.6 155.8C214.8 156.1 214.9 156.4 215.1 156.7C215.2 156.8 215.2 157 215.3 157.1C215.4 157.4 215.6 157.7 215.7 158C215.8 158.1 215.8 158.3 215.9 158.4C216 158.7 216.1 159 216.2 159.3C216.2 159.4 216.3 159.6 216.3 159.7L216.5 160.4L216.7 161.1C216.9 161.9 217 162.8 217.1 163.6V163.8L217.2 165.4C217.2 165.6 217.2 165.7 217.2 165.9C217.2 166.1 217.2 166.2 217.2 166.4V166.6C217.2 166.8 217.2 166.9 217.2 167.1C217.2 167.4 217.2 167.7 217.2 168C217.2 168.3 217.1 168.7 217.1 169V169.3C217.1 170 216.9 170.6 216.8 171.2C216.7 171.4 216.7 171.7 216.7 171.9C215.9 175.4 214.5 178.7 212.6 181.6L212.3 182.2ZM201.8 147.6C203.1 148.1 204.4 148.8 205.7 149.7C207.1 150.7 208.4 151.8 209.5 153C210.6 154.3 211.6 155.7 212.4 157.2C213.1 158.7 213.7 160.3 214.1 162C214.3 162.7 214.4 163.3 214.5 164L214.6 164.5L214.7 166C214.7 166.1 214.7 166.3 214.7 166.4V167C214.7 167.2 214.7 167.3 214.7 167.4C214.7 167.7 214.7 167.9 214.7 168.2L214.6 170.1L214.4 172C214.3 172.8 214.2 173.6 214 174.4V174.5C213.9 174.8 213.9 175.1 213.8 175.4C213.7 175.9 213.6 176.5 213.4 177C213.3 177.3 213.2 177.6 213.2 177.9C213.1 178.4 212.9 179 212.8 179.5L212.2 181.3C214 178.5 215.2 175.5 215.9 172.2C215.9 172 216 171.7 216 171.5C216.1 170.9 216.3 170.3 216.3 169.6V169.2C216.3 168.9 216.4 168.5 216.4 168.2C216.4 167.9 216.4 167.6 216.4 167.3C216.4 167.1 216.4 167 216.4 166.8V166.6C216.4 166.5 216.4 166.3 216.4 166.2C216.4 166.1 216.4 165.9 216.4 165.8C216.4 165.7 216.4 165.6 216.4 165.6L216.3 164.2V164C216.2 163.2 216.1 162.3 215.9 161.5L215.7 160.8L215.5 160.1C215.5 160 215.4 159.8 215.4 159.7C215.3 159.4 215.2 159.1 215.1 158.8C215 158.7 215 158.5 214.9 158.4C214.8 158.1 214.7 157.8 214.5 157.5C214.4 157.4 214.4 157.2 214.3 157.1C214.2 156.8 214 156.5 213.9 156.2C212.9 154.5 211.8 153 210.5 151.9C208.1 149.5 205 148 201.8 147.6Z" fill="#A986FC"/>
<path d="M209.2 144.3C212.3 143.9 215.4 144.8 218.2 146.5C219.6 147.4 220.8 148.5 221.8 149.7C222.1 150 222.3 150.4 222.5 150.7C222.7 151 222.9 151.4 223.2 151.7C223.4 152 223.6 152.4 223.8 152.8L224.1 153.3L224.3 153.9C224.6 154.6 224.9 155.4 225.1 156.2L225.4 157.4C225.5 157.8 225.6 158.2 225.6 158.6C225.7 159 225.7 159.4 225.8 159.8C225.8 160.2 225.8 160.6 225.9 161C226 161.8 225.9 162.6 225.9 163.3C225.7 166.4 225 169.3 223.6 172.1H223.4L223.7 169.9C223.8 169.2 223.8 168.5 223.9 167.7C224 167 224 166.3 224 165.5C224 164.8 224 164.1 224 163.3L223.9 162.2V161.7L223.8 161.2L223.7 160.1C223.6 159.7 223.6 159.4 223.5 159C223.4 158.6 223.4 158.3 223.3 157.9L223 156.9C222.8 156.2 222.6 155.5 222.3 154.9C221.2 152.2 219.5 149.9 217.2 148.1C216.1 147.2 214.8 146.5 213.5 145.9C212.2 145.3 210.8 144.9 209.4 144.6L209.2 144.3Z" fill="#A986FC"/>
<path d="M223.7 172.1L223.1 172L223.4 169.7C223.5 169.2 223.5 168.8 223.5 168.3C223.5 168 223.5 167.8 223.6 167.5C223.6 167 223.7 166.6 223.7 166.1C223.7 165.8 223.7 165.6 223.7 165.3V165.2C223.7 164.5 223.7 163.8 223.7 163.1L223.6 161.5L223.4 159.9C223.4 159.7 223.3 159.5 223.3 159.2C223.3 159.1 223.2 158.9 223.2 158.8C223.1 158.5 223.1 158.1 223 157.8L222.7 156.8L222.6 156.4C222.4 155.9 222.2 155.3 222 154.8C220.9 152.1 219.1 149.8 217 148.1C215.9 147.2 214.7 146.5 213.4 145.9C211.9 145.3 210.6 144.8 209.3 144.7H209.1L209.2 144.1H209.4C212.3 143.7 215.6 144.5 218.5 146.3C219.9 147.2 221.1 148.3 222.2 149.6C222.4 149.8 222.6 150.1 222.7 150.3L222.9 150.6C223.1 150.8 223.2 151.1 223.4 151.3C223.5 151.4 223.5 151.5 223.6 151.6C223.8 151.8 223.9 152.1 224 152.3C224.1 152.4 224.1 152.5 224.2 152.6L224.5 153.1L224.7 153.7C225 154.4 225.2 155.2 225.5 155.9V156L225.8 157.2C225.9 157.6 226 158 226 158.4L226.1 158.8C226.1 159.1 226.2 159.3 226.2 159.6C226.2 159.9 226.2 160.2 226.3 160.5V160.8C226.3 161.4 226.3 161.9 226.3 162.5C226.3 162.7 226.3 163 226.3 163.2C226.1 166.4 225.3 169.4 224 172.1H223.7ZM209.8 144.4C210.9 144.6 212.1 145 213.4 145.6C214.8 146.2 216 147 217.1 147.8C219.3 149.5 221.1 151.9 222.3 154.7C222.5 155.2 222.7 155.8 222.9 156.3L223 156.7L223.3 157.8C223.4 158.2 223.5 158.5 223.5 158.9C223.5 159 223.5 159.2 223.6 159.3C223.6 159.5 223.7 159.8 223.7 160L223.9 161.6L224 163.2C224 163.9 224 164.6 224 165.3V165.4C224 165.7 224 165.9 224 166.2C224 166.7 224 167.1 223.9 167.6C223.9 167.9 223.9 168.1 223.8 168.4C223.8 168.9 223.7 169.3 223.7 169.8L223.5 171.4C224.7 168.9 225.3 166.1 225.5 163.2C225.5 163 225.5 162.8 225.5 162.5C225.5 162 225.5 161.4 225.5 160.9V160.6C225.5 160.3 225.5 160 225.4 159.8C225.4 159.5 225.3 159.3 225.3 159L225.2 158.6C225.2 158.2 225.1 157.8 225 157.5L224.7 156.2C224.5 155.5 224.2 154.8 223.9 154.1L223.7 153.5L223.4 153C223.3 152.9 223.3 152.8 223.2 152.7C223.1 152.5 223 152.2 222.8 152C222.7 151.9 222.7 151.8 222.6 151.7C222.5 151.5 222.3 151.2 222.2 151L222 150.7C221.8 150.5 221.7 150.2 221.5 150C220.5 148.7 219.2 147.7 217.9 146.8C215.4 145 212.5 144.2 209.8 144.4Z" fill="#A986FC"/>
<path d="M93.8999 208.7C84.7999 225.6 77.5999 243.5 69.4999 261C66.7999 266.8 75.3999 271.9 78.0999 266C86.1999 248.6 93.2999 230.7 102.5 213.7C105.5 208.1 96.8999 203.1 93.8999 208.7Z" fill="black"/>
<path d="M91.2999 264.1C91.7999 271.8 86.0999 268.9 86.0999 268.9C82.9999 272.5 77.8999 270 77.8999 270C73.8999 273.1 68.9999 270.9 68.9999 270.9C64.2999 273.8 60.7999 270.5 60.7999 270.5C54.2999 273.3 51.2999 269.1 51.2999 269.1C50.4999 269.4 49.6999 269.5 48.9999 269.5C46.2999 269.5 44.2999 266.9 44.7999 264.2L45.6999 259.2H45.8999C46.0999 259.6 46.2999 260.1 46.4999 260.5C48.8999 264.6 54.2999 265.6 58.6999 266C62.8999 266.4 67.1999 266.3 71.3999 265.9L91.2999 264.1Z" fill="white" stroke="black" stroke-width="0.5" stroke-miterlimit="10"/>
<path d="M77.7999 241.5C76.8999 241 74.0999 239.5 71.5999 240.9C69.4999 242 68.3999 244.7 68.7999 247.5C67.2999 247.2 62.7999 246.6 62.3999 246.6C58.5999 246.3 54.3999 246.3 50.7999 247.8C45.8999 249.9 44.0999 256.1 46.5999 260.6C48.8999 264.7 54.3999 265.7 58.7999 266.1C62.9999 266.5 67.2999 266.4 71.4999 266L91.2999 264.1L90.5999 251.8C90.5999 251.8 95.3999 248.7 92.3999 244.2C91.6999 243.2 90.7999 242.4 89.6999 242.1C84.6999 240.5 81.1999 243.4 77.7999 241.5Z" fill="#FF1F33" stroke="black" stroke-width="0.5" stroke-miterlimit="10"/>
<path d="M68.6999 247.5C68.6999 247.5 75.1999 249.6 76.7999 256.5" stroke="black" stroke-width="0.5" stroke-miterlimit="10"/>
<path d="M60.2999 246.6C60.2999 246.6 69.0999 249.1 70.2999 257.5" stroke="black" stroke-width="0.5" stroke-miterlimit="10"/>
<path d="M87.3999 255.1C88.0999 257.1 86.9999 259.3 84.8999 260C82.8999 260.7 80.6999 259.6 79.9999 257.5C79.2999 255.5 80.3999 253.3 82.4999 252.6C84.5999 251.9 86.6999 253.1 87.3999 255.1Z" fill="black" stroke="black" stroke-width="0.5" stroke-miterlimit="10"/>
<path d="M173.8 205.9C183.4 223.6 190.8 242.3 199.3 260.5C202.1 266.5 193.1 271.8 190.3 265.8C181.8 247.6 174.4 228.9 164.8 211.2C161.6 205.2 170.6 199.9 173.8 205.9Z" fill="black"/>
<path d="M177.5 263.8C176.9 271.9 183 268.8 183 268.8C186.2 272.5 191.6 270 191.6 270C195.8 273.2 200.9 270.9 200.9 270.9C205.8 273.9 209.5 270.4 209.5 270.4C216.3 273.4 219.4 269 219.4 269C220.3 269.3 221.1 269.4 221.8 269.4C224.6 269.4 226.7 266.6 226.2 263.8L225.3 258.6H225.1C224.9 259.1 224.7 259.5 224.5 259.9C222 264.3 216.3 265.2 211.7 265.7C207.3 266.1 202.8 266 198.3 265.6L177.5 263.8Z" fill="white" stroke="black" stroke-width="0.5" stroke-miterlimit="10"/>
<path d="M191.7 240.1C192.6 239.6 195.6 238 198.3 239.5C200.5 240.7 201.7 243.5 201.2 246.4C202.8 246.1 207.5 245.5 207.9 245.4C211.9 245.1 216.3 245.1 220.1 246.7C225.3 248.9 227.1 255.4 224.5 260.1C222 264.4 216.3 265.4 211.7 265.9C207.3 266.3 202.8 266.2 198.3 265.8L177.6 263.8L178.3 250.9C178.3 250.9 173.2 247.6 176.4 243C177.1 242 178.1 241.2 179.3 240.8C184.5 239 188.1 242 191.7 240.1Z" fill="#FF1F33" stroke="black" stroke-width="0.5" stroke-miterlimit="10"/>
<path d="M201.2 246.4C201.2 246.4 194.4 248.6 192.7 255.8" stroke="black" stroke-width="0.5" stroke-miterlimit="10"/>
<path d="M210 245.4C210 245.4 200.8 248 199.6 256.9" stroke="black" stroke-width="0.5" stroke-miterlimit="10"/>
<path d="M181.6 254.4C180.9 256.5 182 258.8 184.2 259.5C186.3 260.2 188.6 259.1 189.3 256.9C190 254.8 188.9 252.5 186.7 251.8C184.6 251.1 182.3 252.2 181.6 254.4Z" fill="black" stroke="black" stroke-width="0.5" stroke-miterlimit="10"/>
<path d="M206.7 93C206.3 93.8 206.1 94.8 205.7 95.6C205.1 96.9 205.6 96.6 204.3 96.8C202.6 97 201.2 96.2 199.5 96.9C196.2 98.2 195 102.3 196.5 105.4C197.1 106.8 201.2 110.1 201 111.2C200.7 113.1 194.9 112.4 193.4 113.4C190.3 115.3 190.3 119.5 191.4 122.5C192 124.1 193.4 125.9 193.5 127.7C193.6 130 191.6 128.9 190 128.9C185.4 128.9 183.5 132.9 184.3 137C184.6 138.3 185.1 139.6 185.2 141C185.3 142.2 185.2 143.5 184.3 144.4C183.8 144.9 183.1 145.3 182.5 145.6C182.2 145.8 181 146.1 181 146.6C180.9 149.4 180.8 154.4 180.8 154.6C181.2 154.5 181.7 154.6 182.2 154.6C184.8 154.7 186.5 152.7 187.9 150.8C189.4 148.8 190.6 146.5 190.9 144C191 142.7 190.9 141.4 190.7 140.1C190.5 138.6 188.7 134.8 190.2 134.3C190.9 134 192.3 134.6 193 134.5C193.9 134.5 194.8 134.3 195.6 133.9C199.2 132.2 199.6 128.1 198.4 124.8C197.8 123.1 196.6 121.4 196.3 119.7C196 117.8 196.1 117.9 197.9 117.8C201.2 117.6 204.4 116.9 206 113.6C207.4 110.6 205.9 107.9 203.8 105.7C203.2 105 201.4 103.7 201.4 102.7C201.4 101.1 203.4 102.1 204.4 102.1C209.1 102.4 209.9 99.1 211.5 95.5C212.9 92.5 208.1 89.8 206.7 93Z" fill="black"/>
<path d="M202.2 89.2C202.2 89.2 195.6 92.2 203.9 96.2C212.3 100.2 216.4 100.9 214 95.2C214 95.2 221.9 97.9 227.4 76.7C227.7 75.6 227.8 74.2 227 73.5C225.8 72.5 223 73.9 218.5 81.3C218.5 81.3 225.8 68.1 221.7 66.8C220.9 66.6 220.1 66.9 219.5 67.5C218.3 68.6 214.8 74.4 212.9 78.9C212.9 78.9 216.2 70.3 216.1 67.1C216.1 63.9 213.8 62.2 210.9 67.4C210.2 68.7 209.6 70.1 209 71.6L206.5 78.4C206.5 78.4 205.8 70.1 202.1 70.6C199.9 70.7 196 83.6 202.2 89.2Z" fill="white" stroke="black" stroke-width="0.5" stroke-miterlimit="10"/>
<path d="M210.3 77.6L221.1 82.9" stroke="black" stroke-width="0.5" stroke-miterlimit="10"/>
<path d="M206.5 79.4C206.5 79.4 213.1 82.2 210.6 88.3" stroke="black" stroke-width="0.5" stroke-miterlimit="10"/>
<path d="M206.7 91.6C206.1 91.5 205.2 91.2 204.2 90.7C203.4 90.3 202.8 89.8 202.3 89.4" stroke="black" stroke-width="0.5" stroke-miterlimit="10"/>
<path d="M211.1 93.9L214 95.2" stroke="black" stroke-width="0.5" stroke-miterlimit="10"/>
<path d="M50.4999 100.4C50.9999 101.3 51.3999 102.2 51.8999 103.1C52.6999 104.4 52.0999 104.2 53.4999 104.2C55.2999 104.2 56.6999 103.2 58.5999 103.8C62.2999 104.9 63.9999 109.1 62.7999 112.5C62.2999 114.1 58.2999 118.1 58.6999 119.3C59.2999 121.3 65.3999 119.9 67.0999 120.7C70.5999 122.4 71.0999 126.8 70.1999 130.2C69.6999 132 68.4999 134.1 68.5999 135.9C68.6999 138.3 70.7999 137 72.4999 136.8C77.4999 136.3 79.8999 140.3 79.4999 144.9C79.3999 146.4 78.9999 147.8 78.9999 149.3C78.9999 150.6 79.2999 152 80.3999 152.8C80.9999 153.3 81.6999 153.6 82.4999 153.8C82.8999 153.9 84.1999 154.2 84.1999 154.7C84.5999 157.7 85.2999 163 85.2999 163.2C84.7999 163.2 84.2999 163.3 83.7999 163.4C81.0999 163.8 78.9999 161.9 77.1999 160C75.3999 158 73.7999 155.8 73.2999 153.1C72.9999 151.7 72.9999 150.3 72.9999 148.9C73.0999 147.3 74.4999 143.1 72.8999 142.6C72.0999 142.4 70.6999 143.1 69.8999 143.2C68.8999 143.3 67.9999 143.2 66.9999 142.9C62.9999 141.5 62.0999 137.2 62.9999 133.5C63.3999 131.7 64.5999 129.7 64.5999 127.8C64.6999 125.7 64.5999 125.9 62.6999 126C59.0999 126.2 55.6999 125.8 53.5999 122.4C51.6999 119.3 53.0999 116.3 54.9999 113.7C55.5999 112.9 57.2999 111.3 57.1999 110.2C56.9999 108.5 54.9999 109.8 53.8999 110C48.8999 110.8 47.6999 107.4 45.4999 103.8C43.7999 100.5 48.5999 97.1 50.4999 100.4Z" fill="black"/>
<path d="M54.8999 95.8C54.8999 95.8 62.2999 98.3 53.7999 103.5C45.2999 108.7 40.9999 109.9 42.8999 103.6C42.8999 103.6 34.7999 107.4 26.3999 85.4C25.9999 84.3 25.6999 82.8 26.4999 81.9C27.5999 80.6 30.8999 81.8 36.3999 89.2C36.3999 89.2 27.0999 75.9 31.2999 74C32.0999 73.6 32.9999 74 33.6999 74.5C35.0999 75.6 39.4999 81.4 42.0999 85.9C42.0999 85.9 37.5999 77 37.2999 73.6C36.9999 70.2 39.1999 68.1 42.7999 73.3C43.6999 74.7 44.5999 76.1 45.2999 77.5L48.7999 84.4C48.7999 84.4 48.5999 75.4 52.5999 75.6C55.1999 75.8 60.7999 89.1 54.8999 95.8Z" fill="white" stroke="black" stroke-width="0.5" stroke-miterlimit="10"/>
<path d="M44.8999 84.3L33.8999 91.2" stroke="black" stroke-width="0.5" stroke-miterlimit="10"/>
<path d="M48.9999 85.8C48.9999 85.8 42.1999 89.6 45.6999 95.8" stroke="black" stroke-width="0.5" stroke-miterlimit="10"/>
<path d="M50.2999 98.9C50.9999 98.7 51.8999 98.3 52.8999 97.7C53.6999 97.1 54.2999 96.5 54.6999 96.1" stroke="black" stroke-width="0.5" stroke-miterlimit="10"/>
<path d="M45.8999 101.8L42.8999 103.5" stroke="black" stroke-width="0.5" stroke-miterlimit="10"/>
<path d="M153.543 233.311C159.834 225.9 158.927 214.793 151.516 208.502C144.105 202.211 132.998 203.118 126.707 210.529C120.416 217.94 121.324 229.047 128.734 235.338C136.145 241.629 147.252 240.721 153.543 233.311Z" fill="#FFD800" stroke="black" stroke-width="0.5" stroke-miterlimit="10"/>
<path d="M203.2 194C191.7 201 165.2 215.5 139.4 220.2C113.2 224.9 85.3999 221.5 69.0999 216.3C69.0999 216.3 68.9999 206.3 69.9999 191.7C70.2999 187.5 70.6999 183 71.1999 178.2C75.1999 139 87.0999 83.1 122.5 79.2C156.1 75.5 178.8 119.3 191.4 153.9C193.4 159.4 195.1 164.6 196.6 169.4C201 183.8 203.2 194 203.2 194Z" fill="#FFD800" stroke="black" stroke-width="0.5" stroke-miterlimit="10"/>
<path d="M203.2 194C191.7 201 165.2 215.5 139.4 220.2C113.2 224.9 85.3999 221.5 69.0999 216.3C69.0999 216.3 68.9999 210.9 69.3999 202.2C85.9999 206.8 111.8 209.4 136.2 205C161.6 200.4 187.7 186.2 199.5 179.1C201.9 188.2 203.2 194 203.2 194Z" fill="#FFE036" stroke="black" stroke-width="0.5" stroke-miterlimit="10"/>
<path d="M129.5 72.7C129.9 77.9 126.1 82.4 120.9 82.8C115.7 83.2 111.2 79.4 110.8 74.2C110.4 69 114.2 64.5 119.4 64.1C124.6 63.7 129.1 67.6 129.5 72.7Z" fill="#FFD800" stroke="black" stroke-width="0.5" stroke-miterlimit="10"/>
<path d="M115.229 170.002C117.261 161.062 111.661 152.168 102.721 150.136C93.7813 148.105 84.8874 153.705 82.8558 162.644C80.8242 171.584 86.4242 180.478 95.3638 182.51C104.303 184.541 113.197 178.941 115.229 170.002Z" fill="#FFB1DF"/>
<path d="M161.7 175.1C170.536 175.1 177.7 167.937 177.7 159.1C177.7 150.263 170.536 143.1 161.7 143.1C152.863 143.1 145.7 150.263 145.7 159.1C145.7 167.937 152.863 175.1 161.7 175.1Z" fill="#FFB1DF"/>
<path d="M121.374 141.282C122.282 130.495 114.275 121.014 103.488 120.105C92.7009 119.196 83.2196 127.204 82.3108 137.991C81.402 148.778 89.4098 158.259 100.197 159.168C110.984 160.077 120.465 152.069 121.374 141.282Z" fill="white" stroke="black" stroke-width="0.5" stroke-miterlimit="10"/>
<path d="M107.6 158.3C108.7 156.5 107 154.3 107.7 152.4C108.3 150.8 109.5 150.2 109.3 148.2C109.2 146.6 108 145.3 107.4 143.9C106.1 141.1 107.6 140.5 108.5 137.8C109 136.1 108.7 134.9 107.8 133.3C106.8 131.4 106.5 131.5 107.3 129.6C107.8 128.5 108.8 127.4 109 126.1C109.2 124.2 108.2 122.2 106.6 121.5C103.9 120.3 101.1 120.2 97.8999 121C94.7999 121.7 95.0999 124.5 95.1999 125.5C95.2999 126.8 96.1999 127.9 96.6999 129.1C97.3999 131 97.0999 130.9 95.9999 132.8C94.9999 134.4 94.5999 135.5 95.0999 137.3C95.7999 140.1 97.1999 140.7 95.7999 143.4C95.0999 144.8 93.7999 146 93.5999 147.6C93.2999 149.6 94.4999 150.3 94.9999 151.9C95.5999 153.9 93.7999 156 94.7999 157.8C96.2999 158.3 98.2999 158.8 100.7 159C103.5 159 105.9 158.7 107.6 158.3Z" fill="black" stroke="black" stroke-width="0.5" stroke-miterlimit="10"/>
<path d="M85.3999 117.4L90.4999 124" stroke="black" stroke-width="0.5" stroke-miterlimit="10"/>
<path d="M101.9 113.4L101.7 121" stroke="black" stroke-width="0.5" stroke-miterlimit="10"/>
<path d="M117.9 117.2L113.4 124.1" stroke="black" stroke-width="0.5" stroke-miterlimit="10"/>
<path d="M87.8999 153.6L83.3999 158.3" stroke="black" stroke-width="0.5" stroke-miterlimit="10"/>
<path d="M97.6999 159.1L96.8999 165.6" stroke="black" stroke-width="0.5" stroke-miterlimit="10"/>
<path d="M111.9 156.4L114.9 162.1" stroke="black" stroke-width="0.5" stroke-miterlimit="10"/>
<path d="M174.9 126.1C179.3 136 174.8 147.6 164.9 151.9C155 156.3 143.4 151.8 139.1 141.9C134.7 132 139.2 120.4 149.1 116.1C159 111.7 170.6 116.2 174.9 126.1Z" fill="white" stroke="black" stroke-width="0.5" stroke-miterlimit="10"/>
<path d="M168.3 150C168.8 148 166.5 146.4 166.6 144.3C166.7 142.6 167.6 141.7 166.8 139.8C166.2 138.3 164.7 137.5 163.6 136.3C161.5 134 162.8 133 162.7 130.2C162.7 128.4 162 127.4 160.7 126.1C159.2 124.6 158.9 124.8 159.1 122.7C159.2 121.5 159.9 120.1 159.6 118.8C159.2 116.9 157.7 115.4 155.9 115.2C153 114.9 150.3 115.7 147.4 117.4C144.6 119.1 145.9 121.6 146.2 122.5C146.7 123.7 147.9 124.5 148.7 125.5C150 127.1 149.7 127.1 149.2 129.2C148.8 131 148.7 132.2 149.7 133.7C151.2 136.1 152.8 136.3 152.3 139.3C152 140.8 151.2 142.4 151.5 144C151.9 146 153.1 146.3 154.1 147.7C155.3 149.4 154.2 151.9 155.7 153.4C157.3 153.4 159.3 153.3 161.6 152.7C164.6 152 166.8 150.9 168.3 150Z" fill="black" stroke="black" stroke-width="0.5" stroke-miterlimit="10"/>
<path d="M134.6 118L141.4 122.7" stroke="black" stroke-width="0.5" stroke-miterlimit="10"/>
<path d="M149 109L151.1 116.4" stroke="black" stroke-width="0.5" stroke-miterlimit="10"/>
<path d="M165.4 107.7L163.3 115.6" stroke="black" stroke-width="0.5" stroke-miterlimit="10"/>
<path d="M148.1 151.6L145.3 157.5" stroke="black" stroke-width="0.5" stroke-miterlimit="10"/>
<path d="M159.1 153.8L160.4 160.3" stroke="black" stroke-width="0.5" stroke-miterlimit="10"/>
<path d="M171.8 146.9L176.5 151.4" stroke="black" stroke-width="0.5" stroke-miterlimit="10"/>
<path d="M140.5 153.7C140.5 153.7 145.3 180.1 134.7 181.1C122.7 182.3 122.6 155.5 122.6 155.5C124.2 156.1 127.6 157 131.9 156.5C136.1 156.1 139.1 154.6 140.5 153.7Z" fill="white" stroke="black" stroke-width="0.5" stroke-miterlimit="10"/>
<path d="M135.3 155.9L136.5 167.8L137.8 179.8" stroke="black" stroke-width="0.5" stroke-miterlimit="10"/>
<path d="M128.7 156.6L130 168.5L131.5 180.6" stroke="black" stroke-width="0.5" stroke-miterlimit="10"/>
<path d="M141.6 167.3L136.5 167.8L130 168.5L124.3 169" stroke="black" stroke-width="0.5" stroke-miterlimit="10"/>
<path d="M121.2 114C120.9 114.9 113.3 112.7 106.5 110.7C99.6999 108.7 92.0999 106.5 92.2999 105.6C92.4999 104.7 100.1 104.9 107.5 107.1C115 109.3 121.5 113.2 121.2 114Z" fill="black" stroke="black" stroke-width="0.5" stroke-miterlimit="10"/>
<path d="M132.8 113.4C133.3 114.1 140 109.9 145.9 106C151.8 102.2 158.5 97.8 158 97C157.6 96.2 150.4 98.6 143.8 102.8C137.4 107 132.3 112.6 132.8 113.4Z" fill="black" stroke="black" stroke-width="0.5" stroke-miterlimit="10"/>
<path d="M131.9 139.5L132.2 144.3C132.2 144.3 124.3 144.3 124.5 148.4C124.7 152.5 133.5 150.2 133.5 150.2" fill="#FF9ED7"/>
<path d="M131.9 139.5L132.2 144.3C132.2 144.3 124.3 144.3 124.5 148.4C124.7 152.5 133.5 150.2 133.5 150.2" stroke="black" stroke-width="0.5" stroke-miterlimit="10"/>
<path d="M57.5 0L58.0884 4.7341C58.7879 10.3611 63.0853 14.8545 68.6489 15.7762L70 16L68.6489 16.2238C63.0853 17.1455 58.7879 21.6389 58.0884 27.2659L57.5 32L56.9116 27.2659C56.2121 21.6389 51.9147 17.1455 46.3511 16.2238L45 16L46.3511 15.7762C51.9147 14.8545 56.2121 10.3611 56.9116 4.7341L57.5 0Z" fill="#043730"/>
<path d="M7.5 123L7.85306 125.811C8.27271 129.152 10.8512 131.82 14.1893 132.367L15 132.5L14.1893 132.633C10.8512 133.18 8.27271 135.848 7.85306 139.189L7.5 142L7.14694 139.189C6.72729 135.848 4.14882 133.18 0.810658 132.633L0 132.5L0.810658 132.367C4.14882 131.82 6.72729 129.152 7.14694 125.811L7.5 123Z" fill="#043730"/>
<path d="M115 36L115.282 38.2191C115.618 40.8568 117.681 42.9631 120.351 43.3951L121 43.5L120.351 43.6049C117.681 44.0369 115.618 46.1432 115.282 48.7809L115 51L114.718 48.7809C114.382 46.1432 112.319 44.0369 109.649 43.6049L109 43.5L109.649 43.3951C112.319 42.9631 114.382 40.8568 114.718 38.2191L115 36Z" fill="#043730"/>
<path d="M260 151L260.282 153.219C260.618 155.857 262.681 157.963 265.351 158.395L266 158.5L265.351 158.605C262.681 159.037 260.618 161.143 260.282 163.781L260 166L259.718 163.781C259.382 161.143 257.319 159.037 254.649 158.605L254 158.5L254.649 158.395C257.319 157.963 259.382 155.857 259.718 153.219L260 151Z" fill="#043730"/>
<path d="M97.5 287L97.806 289.367C98.1697 292.181 100.404 294.427 103.297 294.888L104 295L103.297 295.112C100.404 295.573 98.1697 297.819 97.806 300.633L97.5 303L97.194 300.633C96.8303 297.819 94.5956 295.573 91.7026 295.112L91 295L91.7026 294.888C94.5956 294.427 96.8303 292.181 97.194 289.367L97.5 287Z" fill="#043730"/>
<path d="M153.5 295L154.041 299.29C154.685 304.39 158.638 308.462 163.757 309.297L165 309.5L163.757 309.703C158.638 310.538 154.685 314.61 154.041 319.71L153.5 324L152.959 319.71C152.315 314.61 148.362 310.538 143.243 309.703L142 309.5L143.243 309.297C148.362 308.462 152.315 304.39 152.959 299.29L153.5 295Z" fill="#043730"/>
<path d="M175 11L175.471 14.6985C176.03 19.0946 179.468 22.6051 183.919 23.3251L185 23.5L183.919 23.6749C179.468 24.3949 176.03 27.9054 175.471 32.3015L175 36L174.529 32.3015C173.97 27.9054 170.532 24.3949 166.081 23.6749L165 23.5L166.081 23.3251C170.532 22.6051 173.97 19.0946 174.529 14.6985L175 11Z" fill="#043730"/>
<path d="M233 203L233.565 207.586C234.236 213.037 238.362 217.39 243.703 218.283L245 218.5L243.703 218.717C238.362 219.61 234.236 223.963 233.565 229.414L233 234L232.435 229.414C231.764 223.963 227.638 219.61 222.297 218.717L221 218.5L222.297 218.283C227.638 217.39 231.764 213.037 232.435 207.586L233 203Z" fill="#043730"/>
<path d="M16.5 193L16.9472 196.699C17.4788 201.095 20.7448 204.605 24.9732 205.325L26 205.5L24.9732 205.675C20.7448 206.395 17.4788 209.905 16.9472 214.301L16.5 218L16.0528 214.301C15.5212 209.905 12.2552 206.395 8.02683 205.675L7 205.5L8.02683 205.325C12.2552 204.605 15.5212 201.095 16.0528 196.699L16.5 193Z" fill="#043730"/>
<path d="M237.5 93L237.947 96.6985C238.479 101.095 241.745 104.605 245.973 105.325L247 105.5L245.973 105.675C241.745 106.395 238.479 109.905 237.947 114.301L237.5 118L237.053 114.301C236.521 109.905 233.255 106.395 229.027 105.675L228 105.5L229.027 105.325C233.255 104.605 236.521 101.095 237.053 96.6985L237.5 93Z" fill="#043730"/>
</svg>
