<svg viewBox="0 0 202 207" fill="none" xmlns="http://www.w3.org/2000/svg">
<path d="M161.175 117.292C162.296 119.674 162.971 122.132 163.237 124.502C163.503 126.873 163.177 129.203 162.459 131.364C162.133 132.494 161.642 133.59 161.151 134.685C160.661 135.78 160.006 136.84 159.351 137.901C158.042 140.021 156.487 142.089 154.897 144.321L155.026 144.52L156.506 143.207C157.02 142.803 157.471 142.299 157.904 141.877C158.354 141.373 158.787 140.951 159.237 140.447C159.687 139.943 160.137 139.439 160.506 138.918L161.108 138.104L161.359 137.729L161.611 137.354L162.131 136.522C162.283 136.212 162.417 135.983 162.651 135.69C162.803 135.38 162.937 135.151 163.089 134.841L163.527 133.992C163.749 133.353 164.053 132.733 164.257 132.176C165.045 129.687 165.212 126.895 164.654 124.29C164.406 123.038 163.913 121.733 163.385 120.592C162.775 119.433 162.066 118.339 161.175 117.292Z" fill="#A986FC"/>
<path d="M154.991 144.684L156.652 143.324C156.968 143.049 157.283 142.773 157.599 142.498C157.798 142.369 157.933 142.141 158.132 142.012C158.447 141.736 158.699 141.361 159.015 141.086C159.132 140.939 159.348 140.728 159.465 140.582L159.564 140.517C159.997 140.095 160.365 139.574 160.816 139.07L161.669 137.881L162.54 136.61C162.657 136.463 162.792 136.235 162.827 136.071C162.844 135.989 162.961 135.842 162.979 135.76C163.13 135.45 163.282 135.14 163.434 134.829L163.872 133.98L164.024 133.669C164.211 133.195 164.416 132.639 164.602 132.164C165.425 129.512 165.575 126.801 165.016 124.196C164.769 122.944 164.276 121.639 163.683 120.398C163.026 119.058 162.235 117.947 161.473 117.099L161.327 116.982L160.993 117.339L161.058 117.439C162.178 119.82 162.854 122.278 163.137 124.567C163.339 126.838 163.112 129.104 162.36 131.429C162.068 132.395 161.659 133.508 161.069 134.668C160.613 135.599 160.076 136.513 159.52 137.508L159.269 137.883C158.463 139.254 157.492 140.59 156.522 141.925C156.019 142.675 155.417 143.49 154.914 144.239L154.815 144.304L154.991 144.684ZM161.532 117.626C162.212 118.456 162.793 119.351 163.403 120.51C164.012 121.668 164.424 122.956 164.671 124.208C165.247 126.731 165.115 129.36 164.292 132.012C164.187 132.504 163.901 133.043 163.714 133.518L163.562 133.828L163.124 134.677C162.972 134.988 162.82 135.298 162.686 135.527C162.668 135.608 162.551 135.755 162.534 135.837C162.417 135.983 162.282 136.212 162.247 136.376L161.476 137.583L160.622 138.772C160.254 139.293 159.821 139.715 159.371 140.219L159.353 140.301C159.236 140.447 159.02 140.658 158.903 140.805C158.587 141.08 158.336 141.455 158.02 141.731C157.821 141.86 157.687 142.088 157.488 142.217C157.172 142.493 156.856 142.768 156.54 143.044L155.476 144.016C155.961 143.348 156.347 142.745 156.832 142.077C157.82 140.66 158.773 139.406 159.579 138.035L159.831 137.66C160.369 136.746 161.006 135.768 161.379 134.819C161.987 133.578 162.378 132.547 162.687 131.499C163.44 129.174 163.684 126.826 163.483 124.555C163.135 122.167 162.506 119.89 161.532 117.626Z" fill="#A986FC"/>
<path d="M167.703 118.427C168.911 120.399 169.791 122.301 170.309 124.297C170.843 126.21 170.851 128.183 170.613 130.104C170.485 131.105 170.275 132.088 169.983 133.055C169.692 134.021 169.318 134.97 169.009 136.018C168.244 137.997 167.297 140.024 166.416 142.15L166.562 142.267L167.614 140.948C167.965 140.509 168.316 140.07 168.667 139.63C169.018 139.191 169.287 138.734 169.655 138.213C169.924 137.756 170.21 137.217 170.479 136.76C171.034 135.764 171.507 134.751 171.916 133.638C172.12 133.082 172.225 132.59 172.43 132.034C172.552 131.46 172.674 130.886 172.779 130.394C173.087 128.146 172.821 125.775 171.976 123.709C171.513 122.668 170.967 121.609 170.305 120.696C169.643 119.784 168.881 118.936 167.92 118.216L167.703 118.427Z" fill="#A986FC"/>
<path d="M166.509 142.513L167.679 141.049C167.913 140.756 168.146 140.463 168.38 140.17C168.497 140.023 168.614 139.877 168.731 139.731C168.965 139.438 169.117 139.127 169.351 138.834C169.468 138.688 169.585 138.541 169.719 138.313L169.737 138.231C170.005 137.774 170.274 137.317 170.543 136.86C170.999 135.929 171.571 134.851 171.98 133.739C172.15 133.346 172.237 132.936 172.307 132.608C172.342 132.444 172.377 132.28 172.412 132.116L172.482 131.789C172.569 131.379 172.674 130.887 172.779 130.395C173.104 128.065 172.839 125.694 171.994 123.628C171.53 122.587 170.985 121.528 170.322 120.615C169.513 119.586 168.751 118.737 167.937 118.135L167.791 118.018L167.539 118.393L167.604 118.493C168.812 120.464 169.692 122.366 170.144 124.262C170.614 126.077 170.722 127.985 170.449 130.069C170.356 130.907 170.146 131.89 169.837 132.939C169.662 133.758 169.323 134.543 168.967 135.41L168.78 135.884C168.371 136.997 167.881 138.092 167.373 139.269C167.016 140.136 166.561 141.067 166.187 142.016L166.169 142.098L166.509 142.513ZM168.078 118.68C168.728 119.247 169.426 119.995 170.106 120.826C170.768 121.739 171.331 122.716 171.713 123.74C172.558 125.806 172.841 128.094 172.533 130.343C172.528 130.77 172.341 131.244 172.253 131.654L172.183 131.982C172.148 132.146 172.113 132.31 172.078 132.474C171.991 132.884 171.822 133.276 171.752 133.604C171.343 134.717 170.852 135.812 170.332 136.644C170.063 137.101 169.794 137.558 169.526 138.014L169.508 138.096C169.391 138.243 169.274 138.389 169.14 138.618C168.906 138.911 168.754 139.221 168.52 139.514C168.403 139.661 168.286 139.807 168.169 139.954C167.935 140.247 167.702 140.539 167.468 140.832L166.667 141.776C167.005 140.991 167.344 140.206 167.683 139.421C168.191 138.244 168.682 137.149 169.09 136.036L169.277 135.562C169.634 134.695 169.89 133.893 170.147 133.091C170.474 131.96 170.666 131.059 170.776 130.139C171.05 128.055 170.942 126.147 170.49 124.25C170.037 122.354 169.222 120.552 168.078 118.68Z" fill="#A986FC"/>
<path d="M43.4785 73.5986C40.4749 73.2152 37.3906 74.0144 34.7402 75.5918C33.3828 76.3308 32.2188 77.3682 31.1019 78.5869C30.868 78.8799 30.6341 79.1728 30.3828 79.5477C30.1489 79.8406 29.8975 80.2155 29.6636 80.5085C29.4298 80.8014 29.2604 81.1938 29.1085 81.5043L28.8222 82.0431L28.5358 82.582C28.2145 83.2848 27.9752 84.0051 27.654 84.7079L27.3272 85.8381C27.2923 86.0021 27.2398 86.248 27.2049 86.4119C27.1699 86.5759 27.1175 86.8218 27.0825 86.9858C26.9951 87.3956 26.9252 87.7235 26.8377 88.1334C26.7503 88.5433 26.7624 88.8887 26.6925 89.2166C26.6171 89.9719 26.6237 90.7446 26.6478 91.4354C26.6918 94.4444 27.198 97.2948 28.3131 100.104L28.4945 100.057L28.2583 97.9495C28.2342 97.2587 28.2101 96.5679 28.104 95.8597C28.0799 95.1689 28.0558 94.4782 28.0492 93.7054C28.1071 93.0321 28.1005 92.2594 28.1583 91.5861L28.3036 90.5029L28.3265 89.9936L28.4314 89.5017L28.5767 88.4186C28.6467 88.0906 28.7166 87.7628 28.804 87.3529L28.9089 86.861C28.9438 86.6971 28.9788 86.5331 29.0957 86.3866L29.405 85.3384C29.6268 84.7001 29.8661 83.9798 30.2519 83.3765C30.8595 82.1348 31.5491 80.9106 32.4671 79.8208C33.3851 78.731 34.3677 77.7407 35.4792 76.9493C36.5907 76.1579 37.8487 75.4834 39.1711 74.9084C40.4761 74.4153 41.8456 74.0218 43.2621 73.8096L43.4785 73.5986Z" fill="#A986FC"/>
<path d="M28.2787 100.267L28.8055 100.208L28.6042 97.9365C28.6097 97.5091 28.5331 97.0643 28.556 96.555C28.5265 96.2915 28.497 96.0281 28.5494 95.7822C28.5548 95.3549 28.5778 94.8455 28.5012 94.4007C28.4717 94.1373 28.5241 93.8913 28.4946 93.6279L28.5121 93.546C28.57 92.8727 28.5459 92.1819 28.6037 91.5086L28.7719 89.9161L29.0221 88.3411C29.0746 88.0952 29.1095 87.9312 29.162 87.6853C29.1969 87.5213 29.2144 87.4394 29.2494 87.2754L29.3543 86.7836C29.3717 86.7016 29.4067 86.5376 29.4242 86.4557C29.4417 86.3737 29.4592 86.2917 29.4592 86.2917L29.7684 85.2435L29.9378 84.8511C30.1421 84.2948 30.329 83.8204 30.6153 83.2815C31.2404 81.9579 31.93 80.7337 32.8305 79.7259C33.6666 78.6186 34.7311 77.6457 35.8426 76.8543C36.9541 76.0629 38.2121 75.3884 39.5171 74.8954C40.9215 74.3379 42.291 73.9443 43.5086 73.8611L43.69 73.8141L43.631 73.2873L43.467 73.2523C40.6274 72.9039 37.4785 73.6036 34.6467 75.228C33.3713 75.9845 32.1253 77.0043 31.0084 78.2231C30.792 78.4341 30.6576 78.6625 30.4412 78.8735C30.3417 78.938 30.3068 79.102 30.2073 79.1664C30.0729 79.3949 29.8565 79.6059 29.7221 79.8343C29.6226 79.8988 29.5876 80.0627 29.4882 80.1272C29.3538 80.3557 29.2193 80.5841 29.0849 80.8126C29.0674 80.8945 28.9505 81.041 28.933 81.123L28.6467 81.6619L28.3604 82.2007C28.0566 82.8216 27.8173 83.5419 27.5954 84.1802L27.5605 84.3441L27.1988 85.6383C27.1638 85.8022 27.1464 85.8842 27.1114 86.0481C27.0764 86.2121 27.0589 86.2941 27.024 86.458L26.989 86.622C26.9541 86.7859 26.9366 86.8679 26.9016 87.0319C26.8492 87.2778 26.7967 87.5237 26.7443 87.7696C26.6918 88.0156 26.7039 88.361 26.6514 88.6069L26.599 88.8528C26.4766 89.4266 26.5357 89.9535 26.5128 90.4628C26.5598 90.6442 26.5073 90.8901 26.4724 91.0541C26.5163 94.0631 27.0871 97.013 28.1377 99.7225L28.2787 100.267ZM42.9348 73.7388C41.7817 73.9214 40.5936 74.268 39.3706 74.7785C38.0481 75.3535 36.7901 76.028 35.6786 76.8194C34.5496 77.6928 33.4851 78.6656 32.5671 79.7554C31.7311 80.8627 30.9595 82.0694 30.3344 83.393C30.0481 83.9319 29.8612 84.4063 29.6569 84.9626L29.4875 85.355L29.1433 86.5672C29.1258 86.6491 29.0909 86.8131 29.0734 86.8951L28.9685 87.3869C28.9335 87.5509 28.916 87.6328 28.8986 87.7148C28.8461 87.9607 28.8111 88.1247 28.7587 88.3706L28.5085 89.9457L28.3403 91.5382C28.2825 92.2114 28.2246 92.8847 28.2487 93.5755L28.2312 93.6575C28.2607 93.9209 28.2083 94.1668 28.2378 94.4302C28.2324 94.8576 28.2095 95.3669 28.286 95.8118C28.3155 96.0752 28.3451 96.3386 28.2926 96.5845C28.2872 97.0119 28.3463 97.5387 28.3408 97.966L28.518 99.5465C27.5319 96.9365 27.0727 94.2675 27.0757 91.4399C27.1107 91.2759 27.0812 91.0125 27.1161 90.8486C27.139 90.3392 27.08 89.8124 27.2023 89.2386L27.2723 88.9107C27.3247 88.6648 27.3127 88.3194 27.3651 88.0735C27.4176 87.8275 27.47 87.5816 27.5225 87.3357C27.5574 87.1717 27.5749 87.0897 27.6099 86.9258L27.6448 86.7618C27.6623 86.6799 27.6973 86.5159 27.7147 86.4339C27.7322 86.352 27.7672 86.188 27.7847 86.106C27.8022 86.024 27.8196 85.9421 27.8196 85.9421L28.1463 84.8119L28.1813 84.6479C28.4031 84.0096 28.6425 83.2893 28.9463 82.6685L29.2326 82.1296L29.5189 81.5908C29.5364 81.5088 29.6533 81.3623 29.6708 81.2803C29.8052 81.0519 29.9396 80.8234 30.0741 80.595C30.1735 80.5305 30.2085 80.3665 30.3079 80.302C30.4424 80.0736 30.5768 79.8452 30.7932 79.6342C30.8926 79.5697 30.9276 79.4058 31.0271 79.3413C31.1615 79.1128 31.3779 78.9019 31.5123 78.6734C32.6292 77.4546 33.7932 76.4173 35.0512 75.7428C37.4381 74.195 40.2416 73.5073 42.9348 73.7388Z" fill="#A986FC"/>
<path d="M37.4454 69.7384C34.9741 68.8685 32.2755 69.0644 29.683 69.9685C28.378 70.4615 27.202 71.1535 26.1725 71.9624C25.8741 72.1559 25.6403 72.4488 25.4239 72.6598C25.2075 72.8707 24.9736 73.1637 24.6752 73.3572C24.4588 73.5681 24.2249 73.861 23.9911 74.154L23.6577 74.5114L23.3889 74.9683C23.0206 75.4897 22.6348 76.0931 22.331 76.7139L21.8753 77.6452C21.7234 77.9556 21.5715 78.266 21.5016 78.5939C21.3497 78.9043 21.2797 79.2322 21.1278 79.5427C21.0579 79.8706 20.988 80.1985 20.8361 80.5089C20.6143 81.1472 20.5564 81.8205 20.434 82.3943C20.056 84.9705 20.1229 87.4702 20.7811 90.0103L20.945 90.0452L21.0837 88.1893C21.1241 87.598 21.2465 87.0242 21.3043 86.3509C21.3447 85.7596 21.4671 85.1858 21.607 84.5299C21.7293 83.9561 21.8517 83.3823 21.9915 82.7265L22.2658 81.8422L22.3532 81.4324L22.5226 81.04L22.7969 80.1557C22.9488 79.8453 23.0012 79.5994 23.1531 79.2889C23.305 78.9785 23.3575 78.7326 23.5094 78.4222L23.9301 77.6549C24.2164 77.116 24.5028 76.5771 24.8536 76.1377C26.2273 74.1167 28.023 72.5284 30.2231 71.4549C31.2822 70.9094 32.4702 70.5629 33.6408 70.2983C34.8114 70.0337 36.0289 69.9505 37.229 69.9493L37.4454 69.7384Z" fill="#A986FC"/>
<path d="M20.6992 89.9934L21.2085 90.0163L21.3646 88.0784C21.3701 87.6511 21.44 87.3232 21.5274 86.9133C21.5798 86.6673 21.6148 86.5034 21.5853 86.24C21.6727 85.8301 21.6606 85.4847 21.748 85.0749C21.8005 84.8289 21.8355 84.665 21.8879 84.419L21.9054 84.3371C22.0278 83.7633 22.1501 83.1894 22.2725 82.6156L22.6342 81.3215L23.0778 80.0448C23.1128 79.8809 23.2297 79.7344 23.2822 79.4885C23.2997 79.4065 23.4166 79.26 23.4341 79.178C23.5685 78.9496 23.6384 78.6217 23.7728 78.3932L24.1936 77.6259L24.3455 77.3155C24.5968 76.9406 24.8657 76.4837 25.1171 76.1088C26.4908 74.0877 28.3684 72.517 30.3871 71.4905C31.4462 70.945 32.5522 70.581 33.7228 70.3164C35.0573 70.0867 36.2104 69.9041 37.2936 70.0494L37.4575 70.0844L37.4805 69.575L37.3165 69.5401C35.0091 68.7052 32.1641 68.7841 29.4721 69.7527C28.1671 70.2457 26.9911 70.9377 25.8621 71.8111C25.6632 71.9401 25.4468 72.151 25.3299 72.2975L25.1135 72.5085C24.9146 72.6375 24.7802 72.8659 24.5813 72.9949C24.4818 73.0594 24.4643 73.1414 24.3648 73.2059C24.1659 73.3349 24.0315 73.5633 23.9146 73.7098C23.8151 73.7743 23.7976 73.8562 23.6982 73.9207L23.3648 74.2782L23.096 74.7351C22.7277 75.2565 22.4239 75.8773 22.0556 76.3987L22.0381 76.4806L21.5824 77.4119C21.4305 77.7223 21.2786 78.0327 21.2087 78.3606L21.0568 78.6711C21.0043 78.917 20.8874 79.0635 20.835 79.3094C20.7825 79.5553 20.7301 79.8013 20.5956 80.0297L20.5432 80.2756C20.4383 80.7675 20.3509 81.1774 20.246 81.6692C20.211 81.8332 20.1586 82.0791 20.1236 82.243C19.7282 84.9012 19.8595 87.5004 20.4532 89.941L20.6992 89.9934ZM36.9362 69.7161C35.9995 69.6877 34.9458 69.8059 33.7753 70.0704C32.5227 70.3176 31.3991 70.7636 30.3576 71.2271C28.2569 72.2361 26.3618 73.8888 24.8886 75.9744C24.6372 76.3493 24.3684 76.8062 24.1171 77.1811L23.9651 77.4915L23.5269 78.3408C23.375 78.6512 23.2406 78.8797 23.1707 79.2076C23.1532 79.2895 23.1182 79.4535 23.0188 79.518C22.9838 79.6819 22.8494 79.9104 22.8144 80.0743L22.3708 81.351L22.0091 82.6451C21.8867 83.219 21.7643 83.7928 21.642 84.3666L21.6245 84.4486C21.572 84.6945 21.5371 84.8585 21.4846 85.1044C21.3972 85.5143 21.3273 85.8422 21.3219 86.2695C21.2694 86.5155 21.2345 86.6794 21.264 86.9428C21.1766 87.3527 21.1886 87.6981 21.1012 88.1079L20.9855 89.4545C20.4388 87.1954 20.4364 84.7952 20.7794 82.3829C20.8144 82.219 20.8494 82.055 20.9018 81.8091C20.9892 81.3992 21.0941 80.9073 21.1815 80.4974L21.234 80.2515C21.2864 80.0056 21.3389 79.7597 21.4558 79.6132C21.5082 79.3673 21.6252 79.2208 21.6776 78.9749L21.8295 78.6645C21.8995 78.3366 22.0514 78.0261 22.1858 77.7977L22.659 76.7845C22.9453 76.2456 23.3136 75.7242 23.6819 75.2028L23.9507 74.7459L24.2841 74.3885C24.3835 74.324 24.401 74.242 24.5005 74.1775C24.6174 74.0311 24.7518 73.8026 24.9507 73.6736C25.0502 73.6091 25.0677 73.5272 25.1671 73.4627C25.2841 73.3162 25.5005 73.1052 25.6174 72.9588L25.8338 72.7478C26.0327 72.6188 26.1671 72.3904 26.366 72.2614C27.4131 71.3705 28.6536 70.778 29.8766 70.2675C32.2406 69.2289 34.7578 69.0801 36.9362 69.7161Z" fill="#A986FC"/>
<path d="M120.705 142.69C125.21 158.135 127.983 174.067 131.564 189.829C132.764 195.056 124.822 197.733 123.64 192.425C120.042 176.745 117.351 160.83 112.781 145.286C111.301 140.171 119.225 137.575 120.705 142.69Z" fill="black"/>
<path d="M113.153 188.56C111.397 194.785 116.576 193.404 116.576 193.404C118.488 196.897 123.106 195.739 123.106 195.739C125.843 198.98 130.244 198.033 130.244 198.033C133.59 201.232 137.036 199.138 137.036 199.138C141.875 202.57 145.069 199.651 145.069 199.651C145.672 200.037 146.31 200.259 146.884 200.381C149.098 200.853 151.192 199.072 151.254 196.771L151.39 192.515L151.226 192.48C150.992 192.773 150.741 193.148 150.507 193.441C147.823 196.382 143.221 196.258 139.545 195.817C136.032 195.41 132.524 194.576 129.151 193.514L113.153 188.56Z" fill="white" stroke="black" stroke-width="0.5" stroke-miterlimit="10"/>
<path d="M128.17 172.394C128.995 172.142 131.553 171.401 133.357 172.986C134.887 174.255 135.316 176.661 134.499 178.886C135.781 178.902 139.575 179.197 139.903 179.267C143.07 179.685 146.513 180.42 149.202 182.279C152.852 184.857 153.244 190.254 150.407 193.506C147.805 196.465 143.122 196.323 139.445 195.882C135.932 195.475 132.425 194.642 129.052 193.58L113.153 188.561L115.877 178.6C115.877 178.6 112.484 175.22 115.73 172.055C116.478 171.358 117.356 170.859 118.31 170.806C122.689 170.368 125.051 173.357 128.17 172.394Z" fill="#4363D6" stroke="black" stroke-width="0.5" stroke-miterlimit="10"/>
<path d="M134.581 178.901C134.581 178.901 128.885 179.487 126.367 184.863" stroke="black" stroke-width="0.5" stroke-miterlimit="10"/>
<path d="M141.625 179.633C141.625 179.633 133.974 180.144 131.521 186.82" stroke="black" stroke-width="0.5" stroke-miterlimit="10"/>
<path d="M117.922 181.864C116.999 183.381 117.516 185.377 119.115 186.318C120.632 187.241 122.628 186.724 123.569 185.125C124.493 183.608 123.975 181.612 122.376 180.671C120.777 179.73 118.846 180.347 117.922 181.864Z" fill="black" stroke="black" stroke-width="0.5" stroke-miterlimit="10"/>
<path d="M55.6974 126.426C44.7335 139.257 35.3983 153.293 25.2487 166.727C21.9045 171.156 28.3558 177.074 31.7 172.645C41.8496 159.211 51.1848 145.175 62.1487 132.344C65.8208 127.985 59.3696 122.067 55.6974 126.426Z" fill="black"/>
<path d="M42.5418 173.243C41.6176 179.988 37.159 176.38 37.159 176.38C33.889 178.854 29.8993 175.86 29.8993 175.86C25.897 177.749 22.1183 174.972 22.1183 174.972C17.577 176.575 15.1558 173.059 15.1558 173.059C9.05699 174.33 7.28494 170.181 7.28494 170.181C6.49471 170.269 5.82142 170.211 5.24759 170.089C2.95227 169.6 1.72027 166.937 2.61964 164.729L4.26645 160.624L4.4304 160.659C4.50694 161.104 4.60097 161.467 4.695 161.829C5.9752 165.873 10.4905 167.608 14.174 168.822C17.711 169.919 21.4173 170.623 25.1762 171.082L42.5418 173.243Z" fill="white" stroke="black" stroke-width="0.5" stroke-miterlimit="10"/>
<path d="M35.0445 151.332C34.3941 150.765 32.2145 148.929 29.7389 149.686C27.7257 150.285 26.2525 152.371 26.1554 154.836C24.8963 154.31 21.1483 152.996 20.8379 152.845C17.6113 151.899 14.0044 151.13 10.6096 151.778C5.96224 152.672 3.35039 157.686 4.66012 161.993C5.9578 165.955 10.4556 167.771 14.1391 168.985C17.6761 170.082 21.3825 170.787 25.1413 171.246L42.4599 173.225L44.1412 162.528C44.1412 162.528 48.8988 160.714 47.0798 156.384C46.6808 155.442 46.0008 154.611 45.0871 154.073C41.139 151.689 37.6634 153.519 35.0445 151.332Z" fill="#FF1F33" stroke="black" stroke-width="0.5" stroke-miterlimit="10"/>
<path d="M26.1556 154.835C26.1556 154.835 31.3454 157.828 31.4803 164.027" stroke="black" stroke-width="0.5" stroke-miterlimit="10"/>
<path d="M19.1171 152.478C19.1171 152.478 26.2043 156.217 25.6322 163.723" stroke="black" stroke-width="0.5" stroke-miterlimit="10"/>
<path d="M40.8248 164.82C41.0315 166.664 39.7277 168.357 37.8019 168.547C35.958 168.753 34.2649 167.449 34.0756 165.524C33.8689 163.68 35.1727 161.987 37.0985 161.797C38.9424 161.591 40.6355 162.894 40.8248 164.82Z" fill="black" stroke="black" stroke-width="0.5" stroke-miterlimit="10"/>
<path d="M48.4614 28.1249C48.6494 28.8507 48.6385 29.7054 48.8266 30.4311C49.0912 31.6017 48.7337 31.2683 49.7645 31.6596C51.1231 32.1207 52.4106 31.7096 53.6818 32.5806C56.1598 34.2232 56.4267 37.794 54.6552 40.073C53.9186 41.1158 49.9807 43.1043 49.9523 44.041C49.8661 45.6509 54.7431 46.091 55.7979 47.173C58.007 49.2725 57.2728 52.7155 55.8466 54.9824C55.075 56.1892 53.6127 57.42 53.216 58.8781C52.732 60.746 54.5638 60.1939 55.8754 60.4736C59.6463 61.2778 60.5046 64.8889 59.132 68.1101C58.6588 69.1233 58.0217 70.1016 57.695 71.2318C57.4032 72.198 57.2579 73.2812 57.8384 74.1763C58.1609 74.6736 58.6648 75.1239 59.1042 75.4747C59.3151 75.6911 60.2464 76.1468 60.159 76.5567C59.7515 78.8695 58.9594 82.9857 58.9244 83.1497C58.614 82.9978 58.1866 82.9923 57.7768 82.9049C55.6279 82.5324 54.584 80.5957 53.7684 78.7934C52.8884 76.8917 52.3068 74.7965 52.4979 72.6946C52.6432 71.6114 52.9524 70.5633 53.3436 69.5325C53.7698 68.3379 55.9097 65.5374 54.7675 64.8653C54.2461 64.497 52.9935 64.7442 52.4372 64.5398C51.6994 64.3825 50.9966 64.0612 50.4107 63.5934C47.7568 61.5705 48.1456 58.1396 49.7062 55.6442C50.4952 54.3555 51.7761 53.1717 52.3192 51.8305C52.8973 50.3254 52.7979 50.3899 51.3398 49.9933C48.6696 49.2524 46.1687 48.1192 45.434 45.1343C44.8108 42.4303 46.5124 40.4792 48.6185 39.0428C49.2327 38.5739 50.9355 37.8229 51.1104 37.0031C51.3901 35.6915 49.5757 36.1616 48.756 35.9868C44.8507 35.4111 44.7718 32.566 44.0895 29.3352C43.4663 26.6312 47.8731 25.257 48.4614 28.1249Z" fill="black"/>
<path d="M52.8142 25.7965C52.8142 25.7965 57.7001 29.4095 50.1969 31.2376C42.6117 33.0482 39.1283 32.9052 42.0922 28.6522C42.0922 28.6522 35.1441 29.4845 34.3415 11.1441C34.2879 10.19 34.4506 9.02483 35.2288 8.59085C36.3873 7.98087 38.4379 9.61802 40.8332 16.4709C40.8332 16.4709 37.1565 4.37395 40.7448 4.02501C41.4356 4.00091 42.0389 4.38669 42.4259 4.98343C43.2173 6.09494 45.0725 11.4614 45.8434 15.4824C45.8434 15.4824 44.6416 7.85564 45.283 5.2499C45.8424 2.62668 48.025 1.63516 49.4933 6.40486C49.8399 7.59292 50.087 8.84548 50.3166 10.18L51.1772 16.1914C51.1772 16.1914 53.202 9.50977 56.1477 10.5665C57.9337 11.033 58.8756 22.2897 52.8142 25.7965Z" fill="white" stroke="black" stroke-width="0.5" stroke-miterlimit="10"/>
<path d="M48.2021 14.8721L38.4223 17.3288" stroke="black" stroke-width="0.5" stroke-miterlimit="10"/>
<path d="M51.0029 17.0107C51.0029 17.0107 45.103 18.1523 46.0861 23.5898" stroke="black" stroke-width="0.5" stroke-miterlimit="10"/>
<path d="M48.7053 26.9767C49.2146 26.9996 50.0048 26.911 50.912 26.6759C51.6377 26.4879 52.217 26.1829 52.6968 25.9424" stroke="black" stroke-width="0.5" stroke-miterlimit="10"/>
<path d="M44.6973 28.0938L42.0927 28.6525" stroke="black" stroke-width="0.5" stroke-miterlimit="10"/>
<path d="M175.214 61.4981C174.647 62.1485 174.162 62.8164 173.595 63.4667C172.712 64.3926 173.239 64.3335 172.091 64.0888C170.615 63.7741 169.643 62.7096 167.98 62.8693C164.755 63.1242 162.627 66.27 163.016 69.267C163.146 70.666 165.726 74.6443 165.188 75.558C164.347 77.0927 159.591 74.8787 158.058 75.2373C154.891 76.019 153.712 79.5385 153.856 82.483C153.951 84.046 154.568 85.9773 154.171 87.4353C153.669 89.3853 152.175 87.9525 150.817 87.4913C146.805 86.2074 144.138 89.0669 143.662 92.9077C143.482 94.1548 143.565 95.3724 143.303 96.602C143.076 97.6677 142.585 98.7629 141.543 99.2264C140.964 99.5314 140.338 99.6549 139.647 99.679C139.302 99.6911 138.184 99.7098 138.096 100.12C137.244 102.509 135.743 106.731 135.709 106.895C136.118 106.983 136.511 107.152 136.903 107.321C139.047 108.121 141.1 106.931 142.908 105.688C144.733 104.363 146.429 102.839 147.311 100.714C147.802 99.6183 148.047 98.4706 148.291 97.323C148.489 95.9939 148.076 92.3062 149.475 92.176C150.165 92.1519 151.191 92.9705 151.829 93.1923C152.631 93.4491 153.387 93.5245 154.259 93.4533C157.783 93.0049 159.272 89.6373 159.181 86.4469C159.168 84.9014 158.534 83.0521 158.866 81.4946C159.151 79.7556 159.198 79.937 160.738 80.3512C163.654 81.1444 166.511 81.4109 168.827 78.9909C170.927 76.7818 170.304 74.0778 169.201 71.6142C168.849 70.8535 167.735 69.2448 168.009 68.3605C168.47 67.0019 169.882 68.4172 170.749 68.7734C174.708 70.3033 176.286 67.7259 178.719 65.1594C180.689 62.7514 177.349 59.1251 175.214 61.4981Z" fill="black"/>
<path d="M172.412 56.9595C172.412 56.9595 165.909 57.7153 171.968 63.464C178.026 69.2127 181.342 70.9481 180.885 65.4515C180.885 65.4515 186.861 69.9825 197.593 53.4163C198.113 52.5845 198.621 51.4073 198.123 50.5297C197.448 49.2717 194.533 49.6785 188.731 54.7833C188.731 54.7833 198.68 45.5063 195.569 43.2145C194.983 42.7468 194.176 42.9173 193.514 43.2048C192.174 43.8618 187.553 47.8472 184.635 51.0816C184.635 51.0816 189.88 44.5724 190.721 41.8377C191.561 39.103 190.124 36.9969 186.264 40.6303C185.282 41.6206 184.299 42.6109 183.481 43.6362L179.405 48.6807C179.405 48.6807 181.143 41.3379 177.829 40.8025C175.662 40.512 168.747 50.4358 172.412 56.9595Z" fill="white" stroke="black" stroke-width="0.5" stroke-miterlimit="10"/>
<path d="M182.62 49.2802L190.431 56.8595" stroke="black" stroke-width="0.5" stroke-miterlimit="10"/>
<path d="M178.996 49.794C178.996 49.794 183.907 54.0978 179.954 58.5684" stroke="black" stroke-width="0.5" stroke-miterlimit="10"/>
<path d="M175.64 60.3051C175.102 60.0188 174.434 59.5335 173.719 58.8669C173.168 58.2352 172.781 57.6384 172.523 57.2406" stroke="black" stroke-width="0.5" stroke-miterlimit="10"/>
<path d="M178.741 63.4502L180.903 65.3682" stroke="black" stroke-width="0.5" stroke-miterlimit="10"/>
<path d="M67.5096 152.436C63.648 145.261 66.3339 136.315 73.5086 132.453C80.6833 128.592 89.63 131.278 93.4915 138.452C97.353 145.627 94.6671 154.574 87.4924 158.435C80.3177 162.297 71.3711 159.611 67.5096 152.436Z" fill="#FFBE32" stroke="black" stroke-width="0.5" stroke-miterlimit="10"/>
<path d="M33.6755 111.531C41.879 119.28 61.0677 135.799 81.3958 144.162C102.052 152.595 125.435 154.668 139.706 153.255C139.706 153.255 141.537 145.075 143.269 132.931C143.757 129.436 144.216 125.677 144.645 121.655C148.219 88.8212 148.236 40.9165 119.899 31.5309C93.0017 22.624 66.7363 54.5611 50.3587 80.722C47.7577 84.881 45.4551 88.8465 43.3863 92.5191C37.2621 103.554 33.6755 111.531 33.6755 111.531Z" fill="#FFD800" stroke="black" stroke-width="0.5" stroke-miterlimit="10"/>
<path d="M33.677 111.531C41.8805 119.28 61.0692 135.799 81.3973 144.162C102.053 152.595 125.437 154.668 139.708 153.255C139.708 153.255 140.734 148.846 141.927 141.644C127.515 142.513 105.911 140.134 86.6777 132.261C66.66 124.05 47.7468 107.847 39.3148 99.9638C35.7566 107.004 33.677 111.531 33.677 111.531Z" fill="#FFD800" stroke="black" stroke-width="0.5" stroke-miterlimit="10"/>
<path d="M115.297 24.9786C114.06 29.1714 116.388 33.5246 120.581 34.7616C124.774 35.9985 129.127 33.6701 130.364 29.4773C131.601 25.2845 129.272 20.9313 125.08 19.6944C120.887 18.4574 116.516 20.8678 115.297 24.9786Z" fill="#FFBE32" stroke="black" stroke-width="0.5" stroke-miterlimit="10"/>
<path d="M109.985 107.24C109.882 99.5563 116.028 93.2444 123.711 93.1417C131.395 93.0391 137.707 99.1846 137.809 106.868C137.912 114.552 131.766 120.863 124.083 120.966C116.399 121.069 110.088 114.923 109.985 107.24Z" fill="#FFB1DF"/>
<path d="M70.9988 103.296C63.755 101.751 59.135 94.6262 60.6797 87.3824C62.2245 80.1385 69.3491 75.5185 76.5929 77.0633C83.8367 78.6081 88.4567 85.7326 86.9119 92.9765C85.3672 100.22 78.2426 104.84 70.9988 103.296Z" fill="#FFB1DF"/>
<path d="M109.968 82.6222C111.108 73.6207 119.33 67.2483 128.332 68.389C137.333 69.5297 143.706 77.7516 142.565 86.7531C141.424 95.7546 133.202 102.127 124.201 100.986C115.199 99.8456 108.827 91.6237 109.968 82.6222Z" fill="white" stroke="black" stroke-width="0.5" stroke-miterlimit="10"/>
<path d="M118.283 98.9795C117.696 97.3117 119.474 95.8054 119.233 94.1255C119.02 92.709 118.142 92.0074 118.655 90.4028C119.017 89.1087 120.228 88.2528 120.964 87.21C122.52 85.142 121.395 84.3879 121.129 82.0172C121.016 80.5362 121.472 79.6049 122.49 78.4507C123.641 77.0679 123.87 77.2024 123.546 75.505C123.329 74.5158 122.701 73.4393 122.765 72.3387C122.933 70.7462 124.102 69.2815 125.536 68.9873C127.959 68.4756 130.272 68.8831 132.755 70.0983C135.174 71.2141 134.439 73.457 134.182 74.2593C133.873 75.3075 132.943 76.0519 132.323 76.9482C131.417 78.3833 131.681 78.3538 132.25 80.1036C132.79 81.59 132.926 82.5617 132.201 83.9499C131.138 86.1228 129.885 86.3699 130.561 88.828C130.89 90.098 131.746 91.309 131.63 92.6556C131.527 94.3475 130.42 94.7116 129.731 95.9358C128.889 97.4704 129.998 99.5066 128.863 100.807C127.546 100.955 125.819 101.015 123.817 100.76C121.522 100.27 119.607 99.6046 118.283 98.9795Z" fill="black" stroke="black" stroke-width="0.5" stroke-miterlimit="10"/>
<path d="M143.632 69.333L138.298 73.8518" stroke="black" stroke-width="0.5" stroke-miterlimit="10"/>
<path d="M130.806 63.1701L129.642 69.4352" stroke="black" stroke-width="0.5" stroke-miterlimit="10"/>
<path d="M117.025 63.4877L119.508 69.9307" stroke="black" stroke-width="0.5" stroke-miterlimit="10"/>
<path d="M135.255 98.5727L138.122 103.212" stroke="black" stroke-width="0.5" stroke-miterlimit="10"/>
<path d="M126.26 101.368L125.779 106.836" stroke="black" stroke-width="0.5" stroke-miterlimit="10"/>
<path d="M115.091 96.6709L111.636 100.819" stroke="black" stroke-width="0.5" stroke-miterlimit="10"/>
<path d="M68.7427 60.8183C63.4051 68.1647 65.0661 78.4605 72.43 83.7161C79.7764 89.0537 90.0723 87.3927 95.3279 80.0288C100.666 72.6824 99.0045 62.3866 91.6406 57.1309C84.2942 51.7933 73.9983 53.4544 68.7427 60.8183Z" fill="white" stroke="black" stroke-width="0.5" stroke-miterlimit="10"/>
<path d="M69.9751 81.5647C69.9148 79.8378 72.08 78.9282 72.3651 77.1892C72.5803 75.7782 71.9999 74.8831 72.9878 73.4654C73.7419 72.3406 75.1114 71.9471 76.2229 71.1556C78.3465 69.6373 77.4556 68.5903 78.0271 66.3125C78.3417 64.8369 79.0904 64.1395 80.3833 63.3011C81.8752 62.3337 82.0861 62.5501 82.2893 60.7936C82.4171 59.7924 82.088 58.5224 82.5612 57.5092C83.2213 56.0215 84.7131 55.0542 86.2236 55.2049C88.6534 55.4659 90.7269 56.5937 92.807 58.4943C94.8051 60.3773 93.3024 62.1995 92.8991 62.8848C92.2795 63.7811 91.1559 64.2271 90.3253 64.907C88.9799 65.9914 89.2258 66.0438 89.2686 67.8527C89.2818 69.3982 89.154 70.3994 88.072 71.4542C86.4229 73.1594 85.0763 73.0436 84.9617 75.5903C84.9454 76.8724 85.3215 78.3239 84.7959 79.583C84.1184 81.1526 83.0822 81.1888 82.0177 82.1616C80.7368 83.3454 81.2015 85.5871 79.7096 86.5545C78.398 86.2748 76.776 85.8432 74.9954 84.9493C72.6585 83.851 71.0474 82.5647 69.9751 81.5647Z" fill="black" stroke="black" stroke-width="0.5" stroke-miterlimit="10"/>
<path d="M103.195 61.2236L96.7993 63.8878" stroke="black" stroke-width="0.5" stroke-miterlimit="10"/>
<path d="M92.9648 51.3281L89.9497 57.0272" stroke="black" stroke-width="0.5" stroke-miterlimit="10"/>
<path d="M79.7473 47.3946L80.0877 54.2378" stroke="black" stroke-width="0.5" stroke-miterlimit="10"/>
<path d="M86.2545 86.407L87.5184 91.733" stroke="black" stroke-width="0.5" stroke-miterlimit="10"/>
<path d="M76.8525 86.2881L74.6506 91.3892" stroke="black" stroke-width="0.5" stroke-miterlimit="10"/>
<path d="M67.6479 78.4111L63.0084 81.2784" stroke="black" stroke-width="0.5" stroke-miterlimit="10"/>
<path d="M92.0534 94.5573C92.0534 94.5573 83.5034 115.36 92.018 118.033C101.645 121.114 106.412 99.1621 106.412 99.1621C104.996 99.3742 102.051 99.5176 98.6138 98.356C95.2408 97.2939 93.0437 95.5398 92.0534 94.5573Z" fill="white" stroke="black" stroke-width="0.5" stroke-miterlimit="10"/>
<path d="M95.9312 97.2695L92.8671 106.815L89.7037 116.425" stroke="black" stroke-width="0.5" stroke-miterlimit="10"/>
<path d="M101.22 98.9961L98.0737 108.524L94.7288 118.181" stroke="black" stroke-width="0.5" stroke-miterlimit="10"/>
<path d="M88.7738 105.513L92.8671 106.814L98.0732 108.524L102.658 109.931" stroke="black" stroke-width="0.5" stroke-miterlimit="10"/>
<path d="M118.918 52.6273C118.564 53.3393 124.379 56.5268 129.601 59.36C134.823 62.1932 140.639 65.3807 141.052 64.7278C141.466 64.0749 136.833 59.6994 131.136 56.6302C125.38 53.5018 119.213 51.9747 118.918 52.6273Z" fill="black" stroke="black" stroke-width="0.5" stroke-miterlimit="10"/>
<path d="M107.142 49.0159C106.98 49.7184 100.443 48.6197 94.6227 47.4962C88.8342 46.4501 82.2336 45.1965 82.3637 44.4165C82.4163 43.6687 88.7614 43.2133 95.2203 44.3441C101.524 45.5392 107.272 48.2359 107.142 49.0159Z" fill="black" stroke="black" stroke-width="0.5" stroke-miterlimit="10"/>
<path d="M101.65 79.3209L100.565 83.2033C100.565 83.2033 107.042 84.5844 106.161 87.9104C105.28 91.2365 98.4683 87.8126 98.4683 87.8126" fill="#FF9ED7"/>
<path d="M101.65 79.3209L100.565 83.2033C100.565 83.2033 107.042 84.5844 106.161 87.9104C105.28 91.2365 98.4683 87.8126 98.4683 87.8126" stroke="black" stroke-width="0.5" stroke-miterlimit="10"/>
</svg>
