<svg viewBox="0 0 202 207" fill="none" xmlns="http://www.w3.org/2000/svg">
<path d="M40.4772 117.292C39.3567 119.674 38.6811 122.132 38.4153 124.502C38.1495 126.873 38.475 129.203 39.193 131.364C39.5197 132.494 40.0104 133.59 40.501 134.685C40.9917 135.78 41.6463 136.84 42.3009 137.901C43.6102 140.021 45.1653 142.089 46.7555 144.321L46.6265 144.52L45.1467 143.207C44.6319 142.803 44.1816 142.299 43.7488 141.877C43.2986 141.373 42.8658 140.951 42.4155 140.447C41.9652 139.943 41.515 139.439 41.1467 138.918L40.5445 138.104L40.2931 137.729L40.0418 137.354L39.5216 136.522C39.3697 136.212 39.2352 135.983 39.0014 135.69C38.8495 135.38 38.715 135.151 38.5631 134.841L38.1249 133.992C37.9031 133.353 37.5993 132.733 37.3949 132.176C36.6071 129.687 36.4401 126.895 36.9988 124.29C37.2459 123.038 37.7389 121.733 38.2669 120.592C38.8769 119.433 39.5864 118.339 40.4772 117.292Z" fill="#A986FC"/>
<path d="M46.6618 144.684L45.0006 143.324C44.6847 143.049 44.3689 142.773 44.053 142.498C43.8541 142.369 43.7197 142.141 43.5208 142.012C43.2049 141.736 42.9535 141.361 42.6377 141.086C42.5208 140.939 42.3044 140.728 42.1874 140.582L42.088 140.517C41.6552 140.095 41.2869 139.574 40.8366 139.07L39.9831 137.881L39.1121 136.61C38.9951 136.463 38.8607 136.235 38.8257 136.071C38.8082 135.989 38.6913 135.842 38.6738 135.76C38.5219 135.45 38.37 135.14 38.2181 134.829L37.7799 133.98L37.628 133.669C37.4411 133.195 37.2368 132.639 37.0499 132.164C36.2271 129.512 36.0776 126.801 36.6363 124.196C36.8834 122.944 37.3764 121.639 37.9689 120.398C38.6259 119.058 39.4173 117.947 40.1792 117.099L40.3257 116.982L40.659 117.339L40.5945 117.439C39.474 119.82 38.7984 122.278 38.5151 124.567C38.3138 126.838 38.5399 129.104 39.2928 131.429C39.5845 132.395 39.9932 133.508 40.5834 134.668C41.0391 135.599 41.5768 136.513 42.1319 137.508L42.3833 137.883C43.1898 139.254 44.1603 140.59 45.1307 141.925C45.6335 142.675 46.2356 143.49 46.7384 144.239L46.8378 144.304L46.6618 144.684ZM40.1202 117.626C39.4402 118.456 38.8598 119.351 38.2498 120.51C37.6398 121.668 37.2288 122.956 36.9817 124.208C36.4055 126.731 36.5375 129.36 37.3603 132.012C37.4652 132.504 37.7515 133.043 37.9384 133.518L38.0903 133.828L38.5285 134.677C38.6804 134.988 38.8323 135.298 38.9668 135.527C38.9842 135.608 39.1012 135.755 39.1187 135.837C39.2356 135.983 39.37 136.212 39.405 136.376L40.1766 137.583L41.0301 138.772C41.3984 139.293 41.8312 139.715 42.2814 140.219L42.2989 140.301C42.4159 140.447 42.6323 140.658 42.7492 140.805C43.0651 141.08 43.3164 141.455 43.6323 141.731C43.8312 141.86 43.9656 142.088 44.1645 142.217C44.4804 142.493 44.7962 142.768 45.1121 143.044L46.1766 144.016C45.6913 143.348 45.3056 142.745 44.8203 142.077C43.8324 140.66 42.8794 139.406 42.0729 138.035L41.8215 137.66C41.2838 136.746 40.6467 135.768 40.2729 134.819C39.6653 133.578 39.2741 132.547 38.9649 131.499C38.212 129.174 37.9684 126.826 38.1697 124.555C38.5175 122.167 39.1461 119.89 40.1202 117.626Z" fill="#A986FC"/>
<path d="M33.9489 118.427C32.741 120.399 31.861 122.301 31.3438 124.297C30.8092 126.21 30.8014 128.183 31.0395 130.104C31.1673 131.105 31.3771 132.088 31.6689 133.055C31.9606 134.021 32.3343 134.97 32.6436 136.018C33.4085 137.997 34.3549 140.024 35.2368 142.15L35.0903 142.267L34.0379 140.948C33.687 140.509 33.3362 140.07 32.9854 139.63C32.6346 139.191 32.3657 138.734 31.9974 138.213C31.7286 137.756 31.4423 137.217 31.1734 136.76C30.6183 135.764 30.1451 134.751 29.7364 133.638C29.5321 133.082 29.4272 132.59 29.2228 132.034C29.1004 131.46 28.9781 130.886 28.8732 130.394C28.5651 128.146 28.8309 125.775 29.676 123.709C30.1395 122.668 30.685 121.609 31.3474 120.696C32.0098 119.784 32.7717 118.936 33.7325 118.216L33.9489 118.427Z" fill="#A986FC"/>
<path d="M35.143 142.513L33.9737 141.049C33.7398 140.756 33.5059 140.463 33.272 140.17C33.1551 140.023 33.0381 139.877 32.9212 139.731C32.6873 139.438 32.5354 139.127 32.3015 138.834C32.1846 138.688 32.0677 138.541 31.9332 138.313L31.9158 138.231C31.6469 137.774 31.3781 137.317 31.1092 136.86C30.6535 135.929 30.0809 134.851 29.6722 133.739C29.5028 133.346 29.4154 132.936 29.3455 132.608C29.3105 132.444 29.2756 132.28 29.2406 132.116L29.1707 131.789C29.0833 131.379 28.9784 130.887 28.8735 130.395C28.5479 128.065 28.8137 125.694 29.6588 123.628C30.1223 122.587 30.6678 121.528 31.3302 120.615C32.1391 119.586 32.901 118.737 33.7153 118.135L33.8618 118.018L34.1131 118.393L34.0486 118.493C32.8407 120.464 31.9607 122.366 31.5081 124.262C31.0379 126.077 30.9307 127.985 31.2038 130.069C31.2966 130.907 31.5064 131.89 31.8156 132.939C31.9904 133.758 32.3292 134.543 32.6855 135.41L32.8723 135.884C33.281 136.997 33.7717 138.092 34.2798 139.269C34.6361 140.136 35.0918 141.067 35.4655 142.016L35.483 142.098L35.143 142.513ZM33.5742 118.68C32.9239 119.247 32.2265 119.995 31.5466 120.826C30.8842 121.739 30.3212 122.716 29.9397 123.74C29.0946 125.806 28.8114 128.094 29.1194 130.343C29.1248 130.77 29.3117 131.244 29.3991 131.654L29.469 131.982C29.504 132.146 29.539 132.31 29.5739 132.474C29.6613 132.884 29.8307 133.276 29.9006 133.604C30.3093 134.717 30.8 135.812 31.3202 136.644C31.589 137.101 31.8579 137.558 32.1267 138.014L32.1442 138.096C32.2612 138.243 32.3781 138.389 32.5125 138.618C32.7464 138.911 32.8983 139.221 33.1322 139.514C33.2491 139.661 33.366 139.807 33.483 139.954C33.7169 140.247 33.9507 140.539 34.1846 140.832L34.9857 141.776C34.6469 140.991 34.3082 140.206 33.9694 139.421C33.4613 138.244 32.9706 137.149 32.5619 136.036L32.375 135.562C32.0188 134.695 31.762 133.893 31.5052 133.091C31.1785 131.96 30.9862 131.059 30.8759 130.139C30.6028 128.055 30.71 126.147 31.1627 124.25C31.6153 122.354 32.4308 120.552 33.5742 118.68Z" fill="#A986FC"/>
<path d="M158.174 73.5986C161.177 73.2152 164.262 74.0144 166.912 75.5918C168.27 76.3308 169.434 77.3682 170.55 78.5869C170.784 78.8799 171.018 79.1728 171.27 79.5477C171.503 79.8406 171.755 80.2155 171.989 80.5085C172.223 80.8014 172.392 81.1938 172.544 81.5043L172.83 82.0431L173.117 82.582C173.438 83.2848 173.677 84.0051 173.998 84.7079L174.325 85.8381C174.36 86.0021 174.413 86.248 174.447 86.4119C174.482 86.5759 174.535 86.8218 174.57 86.9858C174.657 87.3956 174.727 87.7235 174.815 88.1334C174.902 88.5433 174.89 88.8887 174.96 89.2166C175.035 89.9719 175.029 90.7446 175.005 91.4354C174.961 94.4444 174.454 97.2948 173.339 100.104L173.158 100.057L173.394 97.9495C173.418 97.2587 173.442 96.5679 173.548 95.8597C173.572 95.1689 173.597 94.4782 173.603 93.7054C173.545 93.0321 173.552 92.2594 173.494 91.5861L173.349 90.5029L173.326 89.9936L173.221 89.5017L173.076 88.4186C173.006 88.0906 172.936 87.7628 172.848 87.3529L172.743 86.861C172.709 86.6971 172.674 86.5331 172.557 86.3866L172.247 85.3384C172.026 84.7001 171.786 83.9798 171.4 83.3765C170.793 82.1348 170.103 80.9106 169.185 79.8208C168.267 78.731 167.285 77.7407 166.173 76.9493C165.062 76.1579 163.804 75.4834 162.481 74.9084C161.176 74.4153 159.807 74.0218 158.39 73.8096L158.174 73.5986Z" fill="#A986FC"/>
<path d="M173.374 100.267L172.847 100.208L173.048 97.9365C173.043 97.5091 173.119 97.0643 173.096 96.555C173.126 96.2915 173.155 96.0281 173.103 95.7822C173.098 95.3549 173.075 94.8455 173.151 94.4007C173.181 94.1373 173.128 93.8913 173.158 93.6279L173.14 93.546C173.082 92.8727 173.106 92.1819 173.049 91.5086L172.88 89.9161L172.63 88.3411C172.578 88.0952 172.543 87.9312 172.49 87.6853C172.455 87.5213 172.438 87.4394 172.403 87.2754L172.298 86.7836C172.281 86.7016 172.246 86.5376 172.228 86.4557C172.211 86.3737 172.193 86.2917 172.193 86.2917L171.884 85.2435L171.715 84.8511C171.51 84.2948 171.323 83.8204 171.037 83.2815C170.412 81.9579 169.722 80.7337 168.822 79.7259C167.986 78.6186 166.921 77.6457 165.81 76.8543C164.698 76.0629 163.44 75.3884 162.135 74.8954C160.731 74.3379 159.361 73.9443 158.144 73.8611L157.962 73.8141L158.021 73.2873L158.185 73.2523C161.025 72.9039 164.174 73.6036 167.006 75.228C168.281 75.9845 169.527 77.0043 170.644 78.2231C170.86 78.4341 170.995 78.6625 171.211 78.8735C171.311 78.938 171.346 79.102 171.445 79.1664C171.579 79.3949 171.796 79.6059 171.93 79.8343C172.03 79.8988 172.065 80.0627 172.164 80.1272C172.299 80.3557 172.433 80.5841 172.567 80.8126C172.585 80.8945 172.702 81.041 172.719 81.123L173.006 81.6619L173.292 82.2007C173.596 82.8216 173.835 83.5419 174.057 84.1802L174.092 84.3441L174.454 85.6383C174.489 85.8022 174.506 85.8842 174.541 86.0481C174.576 86.2121 174.593 86.2941 174.628 86.458L174.663 86.622C174.698 86.7859 174.716 86.8679 174.751 87.0319C174.803 87.2778 174.856 87.5237 174.908 87.7696C174.961 88.0156 174.948 88.361 175.001 88.6069L175.053 88.8528C175.176 89.4266 175.117 89.9535 175.14 90.4628C175.093 90.6442 175.145 90.8901 175.18 91.0541C175.136 94.0631 174.565 97.013 173.515 99.7225L173.374 100.267ZM158.718 73.7388C159.871 73.9214 161.059 74.268 162.282 74.7785C163.604 75.3535 164.862 76.028 165.974 76.8194C167.103 77.6928 168.167 78.6656 169.085 79.7554C169.921 80.8627 170.693 82.0694 171.318 83.393C171.604 83.9319 171.791 84.4063 171.995 84.9626L172.165 85.355L172.509 86.5672C172.527 86.6491 172.561 86.8131 172.579 86.8951L172.684 87.3869C172.719 87.5509 172.736 87.6328 172.754 87.7148C172.806 87.9607 172.841 88.1247 172.894 88.3706L173.144 89.9457L173.312 91.5382C173.37 92.2114 173.428 92.8847 173.404 93.5755L173.421 93.6575C173.392 93.9209 173.444 94.1668 173.415 94.4302C173.42 94.8576 173.443 95.3669 173.366 95.8118C173.337 96.0752 173.307 96.3386 173.36 96.5845C173.365 97.0119 173.306 97.5387 173.312 97.966L173.134 99.5465C174.12 96.9365 174.58 94.2675 174.577 91.4399C174.542 91.2759 174.571 91.0125 174.536 90.8486C174.513 90.3392 174.572 89.8124 174.45 89.2386L174.38 88.9107C174.328 88.6648 174.34 88.3194 174.287 88.0735C174.235 87.8275 174.182 87.5816 174.13 87.3357C174.095 87.1717 174.077 87.0897 174.042 86.9258L174.008 86.7618C173.99 86.6799 173.955 86.5159 173.938 86.4339C173.92 86.352 173.885 86.188 173.868 86.106C173.85 86.024 173.833 85.9421 173.833 85.9421L173.506 84.8119L173.471 84.6479C173.249 84.0096 173.01 83.2893 172.706 82.6685L172.42 82.1296L172.133 81.5908C172.116 81.5088 171.999 81.3623 171.982 81.2803C171.847 81.0519 171.713 80.8234 171.578 80.595C171.479 80.5305 171.444 80.3665 171.344 80.302C171.21 80.0736 171.076 79.8452 170.859 79.6342C170.76 79.5697 170.725 79.4058 170.625 79.3413C170.491 79.1128 170.274 78.9019 170.14 78.6734C169.023 77.4546 167.859 76.4173 166.601 75.7428C164.214 74.195 161.411 73.5073 158.718 73.7388Z" fill="#A986FC"/>
<path d="M164.207 69.7384C166.678 68.8685 169.377 69.0644 171.969 69.9685C173.274 70.4615 174.45 71.1535 175.48 71.9624C175.778 72.1559 176.012 72.4488 176.228 72.6598C176.445 72.8707 176.679 73.1637 176.977 73.3572C177.194 73.5681 177.427 73.861 177.661 74.154L177.995 74.5114L178.263 74.9683C178.632 75.4897 179.018 76.0931 179.321 76.7139L179.777 77.6452C179.929 77.9556 180.081 78.266 180.151 78.5939C180.303 78.9043 180.373 79.2322 180.525 79.5427C180.594 79.8706 180.664 80.1985 180.816 80.5089C181.038 81.1472 181.096 81.8205 181.218 82.3943C181.596 84.9705 181.529 87.4702 180.871 90.0103L180.707 90.0452L180.569 88.1893C180.528 87.598 180.406 87.0242 180.348 86.3509C180.308 85.7596 180.185 85.1858 180.045 84.5299C179.923 83.9561 179.801 83.3823 179.661 82.7265L179.387 81.8422L179.299 81.4324L179.13 81.04L178.855 80.1557C178.704 79.8453 178.651 79.5994 178.499 79.2889C178.347 78.9785 178.295 78.7326 178.143 78.4222L177.722 77.6549C177.436 77.116 177.15 76.5771 176.799 76.1377C175.425 74.1167 173.629 72.5284 171.429 71.4549C170.37 70.9094 169.182 70.5629 168.012 70.2983C166.841 70.0337 165.623 69.9505 164.423 69.9493L164.207 69.7384Z" fill="#A986FC"/>
<path d="M180.953 89.9934L180.444 90.0163L180.288 88.0784C180.282 87.6511 180.212 87.3232 180.125 86.9133C180.072 86.6673 180.038 86.5034 180.067 86.24C179.98 85.8301 179.992 85.4847 179.904 85.0749C179.852 84.8289 179.817 84.665 179.764 84.419L179.747 84.3371C179.625 83.7633 179.502 83.1894 179.38 82.6156L179.018 81.3215L178.575 80.0448C178.54 79.8809 178.423 79.7344 178.37 79.4885C178.353 79.4065 178.236 79.26 178.218 79.178C178.084 78.9496 178.014 78.6217 177.879 78.3932L177.459 77.6259L177.307 77.3155C177.055 76.9406 176.787 76.4837 176.535 76.1088C175.162 74.0877 173.284 72.517 171.265 71.4905C170.206 70.945 169.1 70.581 167.93 70.3164C166.595 70.0867 165.442 69.9041 164.359 70.0494L164.195 70.0844L164.172 69.575L164.336 69.5401C166.643 68.7052 169.488 68.7841 172.18 69.7527C173.485 70.2457 174.661 70.9377 175.79 71.8111C175.989 71.9401 176.206 72.151 176.322 72.2975L176.539 72.5085C176.738 72.6375 176.872 72.8659 177.071 72.9949C177.171 73.0594 177.188 73.1414 177.288 73.2059C177.486 73.3349 177.621 73.5633 177.738 73.7098C177.837 73.7743 177.855 73.8562 177.954 73.9207L178.288 74.2782L178.556 74.7351C178.925 75.2565 179.228 75.8773 179.597 76.3987L179.614 76.4806L180.07 77.4119C180.222 77.7223 180.374 78.0327 180.444 78.3606L180.596 78.6711C180.648 78.917 180.765 79.0635 180.817 79.3094C180.87 79.5553 180.922 79.8013 181.057 80.0297L181.109 80.2756C181.214 80.7675 181.301 81.1774 181.406 81.6692C181.441 81.8332 181.494 82.0791 181.529 82.243C181.924 84.9012 181.793 87.5004 181.199 89.941L180.953 89.9934ZM164.716 69.7161C165.653 69.6877 166.707 69.8059 167.877 70.0704C169.13 70.3176 170.253 70.7636 171.295 71.2271C173.395 72.2361 175.291 73.8888 176.764 75.9744C177.015 76.3493 177.284 76.8062 177.535 77.1811L177.687 77.4915L178.125 78.3408C178.277 78.6512 178.412 78.8797 178.482 79.2076C178.499 79.2895 178.534 79.4535 178.634 79.518C178.669 79.6819 178.803 79.9104 178.838 80.0743L179.282 81.351L179.643 82.6451C179.766 83.219 179.888 83.7928 180.01 84.3666L180.028 84.4486C180.08 84.6945 180.115 84.8585 180.168 85.1044C180.255 85.5143 180.325 85.8422 180.33 86.2695C180.383 86.5155 180.418 86.6794 180.388 86.9428C180.476 87.3527 180.464 87.6981 180.551 88.1079L180.667 89.4545C181.214 87.1954 181.216 84.7952 180.873 82.3829C180.838 82.219 180.803 82.055 180.751 81.8091C180.663 81.3992 180.558 80.9073 180.471 80.4974L180.418 80.2515C180.366 80.0056 180.313 79.7597 180.197 79.6132C180.144 79.3673 180.027 79.2208 179.975 78.9749L179.823 78.6645C179.753 78.3366 179.601 78.0261 179.467 77.7977L178.993 76.7845C178.707 76.2456 178.339 75.7242 177.97 75.2028L177.702 74.7459L177.368 74.3885C177.269 74.324 177.251 74.242 177.152 74.1775C177.035 74.0311 176.901 73.8026 176.702 73.6736C176.602 73.6091 176.585 73.5272 176.485 73.4627C176.368 73.3162 176.152 73.1052 176.035 72.9588L175.819 72.7478C175.62 72.6188 175.485 72.3904 175.286 72.2614C174.239 71.3705 172.999 70.778 171.776 70.2675C169.412 69.2289 166.895 69.0801 164.716 69.7161Z" fill="#A986FC"/>
<path d="M80.9474 142.69C76.442 158.135 73.6689 174.067 70.0882 189.829C68.8887 195.056 76.8302 197.733 78.0121 192.425C81.6104 176.745 84.3014 160.83 88.8713 145.286C90.3516 140.171 82.4277 137.575 80.9474 142.69Z" fill="black"/>
<path d="M88.4998 188.56C90.2557 194.785 85.0761 193.404 85.0761 193.404C83.1642 196.897 78.5464 195.739 78.5464 195.739C75.8093 198.98 71.4079 198.033 71.4079 198.033C68.062 201.232 64.616 199.138 64.616 199.138C59.7771 202.57 56.5836 199.651 56.5836 199.651C55.9802 200.037 55.3419 200.259 54.768 200.381C52.5547 200.853 50.4607 199.072 50.3985 196.771L50.2623 192.515L50.4262 192.48C50.6601 192.773 50.9114 193.148 51.1453 193.441C53.8295 196.382 58.431 196.258 62.1078 195.817C65.6207 195.41 69.1282 194.576 72.5013 193.514L88.4998 188.56Z" fill="white" stroke="black" stroke-width="0.5" stroke-miterlimit="10"/>
<path d="M73.4823 172.394C72.6571 172.142 70.0996 171.401 68.2949 172.986C66.7657 174.255 66.336 176.661 67.1534 178.886C65.8713 178.902 62.0775 179.197 61.7496 179.267C58.5821 179.685 55.1391 180.42 52.4502 182.279C48.8005 184.857 48.4088 190.254 51.2449 193.506C53.847 196.465 58.5305 196.323 62.2074 195.882C65.7203 195.475 69.2278 194.642 72.6008 193.58L88.4998 188.561L85.7758 178.6C85.7758 178.6 89.1687 175.22 85.9227 172.055C85.1741 171.358 84.2965 170.859 83.3423 170.806C78.9638 170.368 76.6016 173.357 73.4823 172.394Z" fill="#FF1F33" stroke="black" stroke-width="0.5" stroke-miterlimit="10"/>
<path d="M67.0718 178.901C67.0718 178.901 72.7673 179.487 75.2851 184.863" stroke="black" stroke-width="0.5" stroke-miterlimit="10"/>
<path d="M60.0278 179.633C60.0278 179.633 67.6787 180.144 70.1309 186.82" stroke="black" stroke-width="0.5" stroke-miterlimit="10"/>
<path d="M83.7299 181.864C84.6534 183.381 84.1363 185.377 82.5371 186.318C81.02 187.241 79.0242 186.724 78.0833 185.125C77.1598 183.608 77.677 181.612 79.2761 180.671C80.8752 179.73 82.8065 180.347 83.7299 181.864Z" fill="black" stroke="black" stroke-width="0.5" stroke-miterlimit="10"/>
<path d="M145.955 126.426C156.919 139.257 166.254 153.293 176.404 166.727C179.748 171.156 173.297 177.074 169.952 172.645C159.803 159.211 150.468 145.175 139.504 132.344C135.831 127.985 142.283 122.067 145.955 126.426Z" fill="black"/>
<path d="M159.111 173.243C160.035 179.988 164.493 176.38 164.493 176.38C167.763 178.854 171.753 175.86 171.753 175.86C175.755 177.749 179.534 174.972 179.534 174.972C184.075 176.575 186.497 173.059 186.497 173.059C192.595 174.33 194.367 170.181 194.367 170.181C195.158 170.269 195.831 170.211 196.405 170.089C198.7 169.6 199.932 166.937 199.033 164.729L197.386 160.624L197.222 160.659C197.145 161.104 197.051 161.467 196.957 161.829C195.677 165.873 191.162 167.608 187.478 168.822C183.941 169.919 180.235 170.623 176.476 171.082L159.111 173.243Z" fill="white" stroke="black" stroke-width="0.5" stroke-miterlimit="10"/>
<path d="M166.608 151.332C167.258 150.765 169.438 148.929 171.913 149.686C173.927 150.285 175.4 152.371 175.497 154.836C176.756 154.31 180.504 152.996 180.814 152.845C184.041 151.899 187.648 151.13 191.043 151.778C195.69 152.672 198.302 157.686 196.992 161.993C195.695 165.955 191.197 167.771 187.513 168.985C183.976 170.082 180.27 170.787 176.511 171.246L159.192 173.225L157.511 162.528C157.511 162.528 152.754 160.714 154.573 156.384C154.972 155.442 155.651 154.611 156.565 154.073C160.513 151.689 163.989 153.519 166.608 151.332Z" fill="#FF1F33" stroke="black" stroke-width="0.5" stroke-miterlimit="10"/>
<path d="M175.497 154.835C175.497 154.835 170.307 157.828 170.172 164.027" stroke="black" stroke-width="0.5" stroke-miterlimit="10"/>
<path d="M182.535 152.478C182.535 152.478 175.448 156.217 176.02 163.723" stroke="black" stroke-width="0.5" stroke-miterlimit="10"/>
<path d="M160.828 164.82C160.621 166.664 161.925 168.357 163.85 168.547C165.694 168.753 167.387 167.449 167.577 165.524C167.783 163.68 166.48 161.987 164.554 161.797C162.71 161.591 161.017 162.894 160.828 164.82Z" fill="black" stroke="black" stroke-width="0.5" stroke-miterlimit="10"/>
<path d="M153.191 28.1249C153.003 28.8507 153.014 29.7054 152.826 30.4311C152.561 31.6017 152.919 31.2683 151.888 31.6596C150.529 32.1207 149.242 31.7096 147.971 32.5806C145.493 34.2232 145.226 37.794 146.997 40.073C147.734 41.1158 151.672 43.1043 151.7 44.041C151.786 45.6509 146.909 46.091 145.854 47.173C143.645 49.2725 144.38 52.7155 145.806 54.9824C146.577 56.1892 148.04 57.42 148.436 58.8781C148.92 60.746 147.089 60.1939 145.777 60.4736C142.006 61.2778 141.148 64.8889 142.52 68.1101C142.994 69.1233 143.631 70.1016 143.957 71.2318C144.249 72.198 144.394 73.2812 143.814 74.1763C143.491 74.6736 142.988 75.1239 142.548 75.4747C142.337 75.6911 141.406 76.1468 141.493 76.5567C141.901 78.8695 142.693 82.9857 142.728 83.1497C143.038 82.9978 143.466 82.9923 143.876 82.9049C146.024 82.5324 147.068 80.5957 147.884 78.7934C148.764 76.8917 149.346 74.7965 149.154 72.6946C149.009 71.6114 148.7 70.5633 148.309 69.5325C147.883 68.3379 145.743 65.5374 146.885 64.8653C147.406 64.497 148.659 64.7442 149.215 64.5398C149.953 64.3825 150.656 64.0612 151.242 63.5934C153.896 61.5705 153.507 58.1396 151.946 55.6442C151.157 54.3555 149.876 53.1717 149.333 51.8305C148.755 50.3254 148.854 50.3899 150.313 49.9933C152.983 49.2524 155.484 48.1192 156.218 45.1343C156.842 42.4303 155.14 40.4792 153.034 39.0428C152.42 38.5739 150.717 37.8229 150.542 37.0031C150.262 35.6915 152.077 36.1616 152.896 35.9868C156.802 35.4111 156.881 32.566 157.563 29.3352C158.186 26.6312 153.779 25.257 153.191 28.1249Z" fill="black"/>
<path d="M148.838 25.7965C148.838 25.7965 143.952 29.4095 151.455 31.2376C159.041 33.0482 162.524 32.9052 159.56 28.6522C159.56 28.6522 166.508 29.4845 167.311 11.1441C167.364 10.19 167.202 9.02483 166.424 8.59085C165.265 7.98087 163.214 9.61802 160.819 16.4709C160.819 16.4709 164.496 4.37395 160.908 4.02501C160.217 4.00091 159.613 4.38669 159.226 4.98343C158.435 6.09494 156.58 11.4614 155.809 15.4824C155.809 15.4824 157.011 7.85564 156.369 5.2499C155.81 2.62668 153.627 1.63516 152.159 6.40486C151.812 7.59292 151.565 8.84548 151.336 10.18L150.475 16.1914C150.475 16.1914 148.45 9.50977 145.505 10.5665C143.719 11.033 142.777 22.2897 148.838 25.7965Z" fill="white" stroke="black" stroke-width="0.5" stroke-miterlimit="10"/>
<path d="M153.45 14.8721L163.23 17.3288" stroke="black" stroke-width="0.5" stroke-miterlimit="10"/>
<path d="M150.649 17.0107C150.649 17.0107 156.549 18.1523 155.566 23.5898" stroke="black" stroke-width="0.5" stroke-miterlimit="10"/>
<path d="M152.947 26.9767C152.438 26.9996 151.648 26.911 150.74 26.6759C150.015 26.4879 149.435 26.1829 148.956 25.9424" stroke="black" stroke-width="0.5" stroke-miterlimit="10"/>
<path d="M156.955 28.0938L159.56 28.6525" stroke="black" stroke-width="0.5" stroke-miterlimit="10"/>
<path d="M26.4379 61.4981C27.0051 62.1485 27.4903 62.8164 28.0575 63.4667C28.9406 64.3926 28.4138 64.3335 29.5614 64.0888C31.037 63.7741 32.0098 62.7096 33.6723 62.8693C36.8977 63.1242 39.0255 66.27 38.6361 69.267C38.506 70.666 35.9262 74.6443 36.4639 75.558C37.3054 77.0927 42.0611 74.8787 43.5946 75.2373C46.7609 76.019 47.94 79.5385 47.7966 82.483C47.7014 84.046 47.0848 85.9773 47.4814 87.4353C47.9829 89.3853 49.4772 87.9525 50.8358 87.4913C54.8472 86.2074 57.5138 89.0669 57.9901 92.9077C58.1703 94.1548 58.0872 95.3724 58.3494 96.602C58.5767 97.6677 59.0673 98.7629 60.1089 99.2264C60.6882 99.5314 61.3145 99.6549 62.0052 99.679C62.3506 99.6911 63.4687 99.7098 63.5562 100.12C64.4085 102.509 65.9089 106.731 65.9438 106.895C65.5339 106.983 65.1415 107.152 64.7491 107.321C62.6057 108.121 60.5521 106.931 58.7444 105.688C56.9192 104.363 55.223 102.839 54.3411 100.714C53.8504 99.6183 53.6057 98.4706 53.3609 97.323C53.1632 95.9939 53.5766 92.3062 52.1776 92.176C51.4869 92.1519 50.4616 92.9705 49.8233 93.1923C49.021 93.4491 48.2657 93.5245 47.3935 93.4533C43.8697 93.0049 42.3803 89.6373 42.4712 86.4469C42.4845 84.9014 43.1185 83.0521 42.7864 81.4946C42.5012 79.7556 42.4542 79.937 40.9142 80.3512C37.998 81.1444 35.1409 81.4109 32.825 78.9909C30.7256 76.7818 31.3488 74.0778 32.4518 71.6142C32.8038 70.8535 33.9177 69.2448 33.6434 68.3605C33.1823 67.0019 31.77 68.4172 30.9033 68.7734C26.9443 70.3033 25.3662 67.7259 22.9334 65.1594C20.963 62.7514 24.3034 59.1251 26.4379 61.4981Z" fill="black"/>
<path d="M29.2405 56.9595C29.2405 56.9595 35.7437 57.7153 29.6848 63.464C23.6259 69.2127 20.3107 70.9481 20.7669 65.4515C20.7669 65.4515 14.7912 69.9825 4.05931 53.4163C3.53911 52.5845 3.03096 51.4073 3.52943 50.5297C4.2039 49.2717 7.11888 49.6785 12.9212 54.7833C12.9212 54.7833 2.97239 45.5063 6.08322 43.2145C6.6691 42.7468 7.4768 42.9173 8.13804 43.2048C9.478 43.8618 14.0989 47.8472 17.0169 51.0816C17.0169 51.0816 11.7721 44.5724 10.9318 41.8377C10.0915 39.103 11.5279 36.9969 15.388 40.6303C16.3706 41.6206 17.3531 42.6109 18.1717 43.6362L22.247 48.6807C22.247 48.6807 20.5098 41.3379 23.8237 40.8025C25.9901 40.512 32.9058 50.4358 29.2405 56.9595Z" fill="white" stroke="black" stroke-width="0.5" stroke-miterlimit="10"/>
<path d="M19.032 49.2802L11.2209 56.8595" stroke="black" stroke-width="0.5" stroke-miterlimit="10"/>
<path d="M22.6559 49.794C22.6559 49.794 17.7458 54.0978 21.6988 58.5684" stroke="black" stroke-width="0.5" stroke-miterlimit="10"/>
<path d="M26.0119 60.3051C26.5508 60.0188 27.2187 59.5335 27.9335 58.8669C28.4845 58.2352 28.8714 57.6384 29.1294 57.2406" stroke="black" stroke-width="0.5" stroke-miterlimit="10"/>
<path d="M22.9114 63.4502L20.7493 65.3682" stroke="black" stroke-width="0.5" stroke-miterlimit="10"/>
<path d="M134.143 152.436C138.004 145.261 135.318 136.315 128.144 132.453C120.969 128.592 112.022 131.278 108.161 138.452C104.299 145.627 106.985 154.574 114.16 158.435C121.335 162.297 130.281 159.611 134.143 152.436Z" fill="#FFBE32" stroke="black" stroke-width="0.5" stroke-miterlimit="10"/>
<path d="M167.977 111.531C159.773 119.28 140.585 135.799 120.257 144.162C99.6006 152.595 76.217 154.668 61.9459 153.255C61.9459 153.255 60.1158 145.075 58.3832 132.931C57.8949 129.436 57.4361 125.677 57.0069 121.655C53.4332 88.8212 53.4161 40.9165 81.7537 31.5309C108.651 22.624 134.916 54.5611 151.294 80.722C153.895 84.881 156.197 88.8465 158.266 92.5191C164.39 103.554 167.977 111.531 167.977 111.531Z" fill="#FFD800" stroke="black" stroke-width="0.5" stroke-miterlimit="10"/>
<path d="M167.975 111.531C159.772 119.28 140.583 135.799 120.255 144.162C99.5991 152.595 76.2154 154.668 61.9444 153.255C61.9444 153.255 60.9184 148.846 59.7254 141.644C74.1375 142.513 95.7418 140.134 114.975 132.261C134.992 124.05 153.906 107.847 162.338 99.9638C165.896 107.004 167.975 111.531 167.975 111.531Z" fill="#FFD800" stroke="black" stroke-width="0.5" stroke-miterlimit="10"/>
<path d="M86.3556 24.9786C87.5926 29.1714 85.2641 33.5246 81.0713 34.7616C76.8785 35.9985 72.5253 33.6701 71.2884 29.4773C70.0514 25.2845 72.3798 20.9313 76.5727 19.6944C80.7655 18.4574 85.1362 20.8678 86.3556 24.9786Z" fill="#FFBE32" stroke="black" stroke-width="0.5" stroke-miterlimit="10"/>
<path d="M91.6674 107.24C91.7701 99.5563 85.6246 93.2444 77.9411 93.1417C70.2576 93.0391 63.9457 99.1846 63.8431 106.868C63.7404 114.552 69.8859 120.863 77.5694 120.966C85.2529 121.069 91.5648 114.923 91.6674 107.24Z" fill="#FFB1DF"/>
<path d="M130.654 103.296C137.897 101.751 142.517 94.6262 140.973 87.3824C139.428 80.1385 132.303 75.5185 125.059 77.0633C117.816 78.6081 113.196 85.7326 114.74 92.9765C116.285 100.22 123.41 104.84 130.654 103.296Z" fill="#FFB1DF"/>
<path d="M91.6847 82.6222C90.544 73.6207 82.3221 67.2483 73.3206 68.389C64.3191 69.5297 57.9467 77.7516 59.0874 86.7531C60.2281 95.7546 68.45 102.127 77.4515 100.986C86.453 99.8456 92.8254 91.6237 91.6847 82.6222Z" fill="white" stroke="black" stroke-width="0.5" stroke-miterlimit="10"/>
<path d="M83.3692 98.9795C83.9563 97.3117 82.1781 95.8054 82.4198 94.1255C82.6319 92.709 83.5107 92.0074 82.9971 90.4028C82.6355 89.1087 81.4245 88.2528 80.6879 87.21C79.1327 85.142 80.2575 84.3879 80.5233 82.0172C80.6359 80.5362 80.1802 79.6049 79.1628 78.4507C78.0108 77.0679 77.7824 77.2024 78.1061 75.505C78.3236 74.5158 78.9511 73.4393 78.8878 72.3387C78.7196 70.7462 77.5502 69.2815 76.1162 68.9873C73.6931 68.4756 71.3803 68.8831 68.8969 70.0983C66.4781 71.2141 67.2135 73.457 67.4703 74.2593C67.7795 75.3075 68.7096 76.0519 69.3292 76.9482C70.2352 78.3833 69.9718 78.3538 69.4022 80.1036C68.8622 81.59 68.7266 82.5617 69.4511 83.9499C70.5144 86.1228 71.767 86.3699 71.0913 88.828C70.7622 90.098 69.9063 91.309 70.0221 92.6556C70.1258 94.3475 71.2319 94.7116 71.9214 95.9358C72.7629 97.4704 71.6545 99.5066 72.7889 100.807C74.1059 100.955 75.8329 101.015 77.8352 100.76C80.1306 100.27 82.0455 99.6046 83.3692 98.9795Z" fill="black" stroke="black" stroke-width="0.5" stroke-miterlimit="10"/>
<path d="M58.02 69.333L63.3546 73.8518" stroke="black" stroke-width="0.5" stroke-miterlimit="10"/>
<path d="M70.8461 63.1701L72.0107 69.4352" stroke="black" stroke-width="0.5" stroke-miterlimit="10"/>
<path d="M84.6269 63.4877L82.1442 69.9307" stroke="black" stroke-width="0.5" stroke-miterlimit="10"/>
<path d="M66.3974 98.5727L63.5301 103.212" stroke="black" stroke-width="0.5" stroke-miterlimit="10"/>
<path d="M75.3926 101.368L75.8731 106.836" stroke="black" stroke-width="0.5" stroke-miterlimit="10"/>
<path d="M86.561 96.6709L90.0168 100.819" stroke="black" stroke-width="0.5" stroke-miterlimit="10"/>
<path d="M132.91 60.8183C138.247 68.1647 136.586 78.4605 129.222 83.7161C121.876 89.0537 111.58 87.3927 106.324 80.0288C100.987 72.6824 102.648 62.3866 110.012 57.1309C117.358 51.7933 127.654 53.4544 132.91 60.8183Z" fill="white" stroke="black" stroke-width="0.5" stroke-miterlimit="10"/>
<path d="M131.677 81.5647C131.738 79.8378 129.572 78.9282 129.287 77.1892C129.072 75.7782 129.652 74.8831 128.665 73.4654C127.91 72.3406 126.541 71.9471 125.429 71.1556C123.306 69.6373 124.197 68.5903 123.625 66.3125C123.311 64.8369 122.562 64.1395 121.269 63.3011C119.777 62.3337 119.566 62.5501 119.363 60.7936C119.235 59.7924 119.564 58.5224 119.091 57.5092C118.431 56.0215 116.939 55.0542 115.429 55.2049C112.999 55.4659 110.925 56.5937 108.845 58.4943C106.847 60.3773 108.35 62.1995 108.753 62.8848C109.373 63.7811 110.496 64.2271 111.327 64.907C112.672 65.9914 112.427 66.0438 112.384 67.8527C112.371 69.3982 112.498 70.3994 113.58 71.4542C115.229 73.1594 116.576 73.0436 116.691 75.5903C116.707 76.8724 116.331 78.3239 116.856 79.583C117.534 81.1526 118.57 81.1888 119.635 82.1616C120.916 83.3454 120.451 85.5871 121.943 86.5545C123.254 86.2748 124.876 85.8432 126.657 84.9493C128.994 83.851 130.605 82.5647 131.677 81.5647Z" fill="black" stroke="black" stroke-width="0.5" stroke-miterlimit="10"/>
<path d="M98.457 61.2236L104.853 63.8878" stroke="black" stroke-width="0.5" stroke-miterlimit="10"/>
<path d="M108.688 51.3281L111.703 57.0272" stroke="black" stroke-width="0.5" stroke-miterlimit="10"/>
<path d="M121.905 47.3946L121.565 54.2378" stroke="black" stroke-width="0.5" stroke-miterlimit="10"/>
<path d="M115.398 86.407L114.134 91.733" stroke="black" stroke-width="0.5" stroke-miterlimit="10"/>
<path d="M124.8 86.2881L127.002 91.3892" stroke="black" stroke-width="0.5" stroke-miterlimit="10"/>
<path d="M134.004 78.4111L138.644 81.2784" stroke="black" stroke-width="0.5" stroke-miterlimit="10"/>
<path d="M109.599 94.5573C109.599 94.5573 118.149 115.36 109.634 118.033C100.007 121.114 95.24 99.1621 95.24 99.1621C96.6565 99.3742 99.601 99.5176 103.039 98.356C106.412 97.2939 108.609 95.5398 109.599 94.5573Z" fill="white" stroke="black" stroke-width="0.5" stroke-miterlimit="10"/>
<path d="M105.721 97.2695L108.785 106.815L111.949 116.425" stroke="black" stroke-width="0.5" stroke-miterlimit="10"/>
<path d="M100.433 98.9961L103.579 108.524L106.924 118.181" stroke="black" stroke-width="0.5" stroke-miterlimit="10"/>
<path d="M112.879 105.513L108.785 106.814L103.579 108.524L98.994 109.931" stroke="black" stroke-width="0.5" stroke-miterlimit="10"/>
<path d="M82.7347 52.6273C83.0887 53.3393 77.2732 56.5268 72.0511 59.36C66.8291 62.1932 61.0136 65.3807 60.6002 64.7278C60.1867 64.0749 64.8195 59.6994 70.5163 56.6302C76.2724 53.5018 82.4398 51.9747 82.7347 52.6273Z" fill="black" stroke="black" stroke-width="0.5" stroke-miterlimit="10"/>
<path d="M94.5104 49.0159C94.6726 49.7184 101.209 48.6197 107.03 47.4962C112.818 46.4501 119.419 45.1965 119.289 44.4165C119.236 43.6687 112.891 43.2133 106.432 44.3441C100.128 45.5392 94.3804 48.2359 94.5104 49.0159Z" fill="black" stroke="black" stroke-width="0.5" stroke-miterlimit="10"/>
<path d="M100.002 79.3209L101.087 83.2033C101.087 83.2033 94.6108 84.5844 95.4915 87.9104C96.3722 91.2365 103.184 87.8126 103.184 87.8126" fill="#FF9ED7"/>
<path d="M100.002 79.3209L101.087 83.2033C101.087 83.2033 94.6108 84.5844 95.4915 87.9104C96.3722 91.2365 103.184 87.8126 103.184 87.8126" stroke="black" stroke-width="0.5" stroke-miterlimit="10"/>
</svg>
