<svg width="83" height="87" viewBox="0 0 83 87" fill="none" xmlns="http://www.w3.org/2000/svg">
<g clip-path="url(#clip0_0_1)">
<mask id="path-1-inside-1_0_1" fill="white">
<path fill-rule="evenodd" clip-rule="evenodd" d="M11.4658 29.4133C11.001 29.5844 10.5981 29.8907 10.3091 30.2929C10.0201 30.6951 9.85814 31.1747 9.84419 31.6697C9.83023 32.1648 9.9649 32.6527 10.2308 33.0705C10.4968 33.4884 10.8817 33.817 11.3362 34.0139L11.2778 34.3774L10.7612 37.6633C10.7315 37.8822 10.692 38.0996 10.6428 38.3149C10.6355 38.3434 10.6266 38.3713 10.616 38.3987C10.587 38.3924 10.5584 38.3843 10.5303 38.3746C10.3236 38.296 10.1205 38.2083 9.92156 38.1117L9.82929 38.0698C9.49958 37.9139 9.16599 37.7664 8.82884 37.6273C8.83135 37.2242 8.71367 36.8295 8.49082 36.4935C8.26797 36.1576 7.95006 35.8957 7.57768 35.7412C7.2053 35.5868 6.79535 35.5468 6.40015 35.6265C6.00496 35.7061 5.64246 35.9017 5.35893 36.1882C5.0754 36.4748 4.8837 36.8394 4.80832 37.2354C4.73293 37.6314 4.77727 38.0409 4.93568 38.4116C5.09409 38.7823 5.35938 39.0974 5.69768 39.3167C6.03598 39.5359 6.43195 39.6494 6.83502 39.6426L6.89735 39.7858C7.01885 40.0532 7.1755 40.3692 7.35351 40.7302L8.04463 42.125L8.37667 42.8001C8.80863 43.6813 9.22226 44.5232 9.62943 45.2119C9.88591 45.6477 10.1561 46.0477 10.4454 46.3744C10.7329 46.6989 11.0706 46.9848 11.4722 47.1443C12.1808 47.4253 12.9003 47.3967 13.7028 47.2127C14.4779 47.035 15.4109 46.6916 16.5732 46.2638L18.5019 45.5538C19.6642 45.126 20.5973 44.7826 21.3026 44.4154C22.0337 44.0348 22.5992 43.5904 22.9565 42.9171C23.1589 42.5353 23.2306 42.0987 23.2392 41.6652C23.2476 41.2289 23.194 40.7492 23.1075 40.2508C22.9711 39.4625 22.7393 38.5536 22.4971 37.6035L22.3123 36.8743L21.9342 35.3642C21.8354 34.9731 21.7506 34.6307 21.668 34.3489L21.6235 34.1991C21.9348 33.943 22.1627 33.5999 22.2781 33.2137C22.3935 32.8274 22.3912 32.4155 22.2715 32.0306C22.1518 31.6456 21.92 31.3051 21.6059 31.0525C21.2917 30.7998 20.9094 30.6465 20.5077 30.6122C20.1061 30.5778 19.7033 30.6639 19.3508 30.8595C18.9983 31.0551 18.7121 31.3513 18.5287 31.7103C18.3453 32.0693 18.273 32.4748 18.3212 32.8751C18.3693 33.2753 18.5356 33.6522 18.7989 33.9575C18.6494 34.2402 18.494 34.5749 18.3232 34.9433L18.281 35.0347C18.1431 35.3333 18.0601 35.5098 17.988 35.6295C17.9729 35.6551 17.9563 35.6798 17.9383 35.7035C17.9126 35.6895 17.8876 35.6739 17.8636 35.657C17.6866 35.525 17.5155 35.3851 17.351 35.2377L14.8273 33.0708L14.5473 32.832C14.7655 32.3874 14.8456 31.8876 14.7772 31.3971C14.7088 30.9066 14.495 30.4478 14.1634 30.0799C13.8318 29.712 13.3976 29.4519 12.9168 29.3331C12.436 29.2143 11.9306 29.2422 11.4658 29.4133ZM11.2647 32.1288C11.1615 31.8483 11.1739 31.5384 11.2992 31.2671C11.4245 30.9958 11.6524 30.7854 11.9329 30.6822C12.2133 30.5789 12.5233 30.5913 12.7946 30.7167C13.0659 30.842 13.2763 31.0699 13.3795 31.3504C13.4827 31.6308 13.4703 31.9408 13.345 32.2121C13.2197 32.4833 12.9917 32.6937 12.7113 32.797C12.4309 32.9002 12.1209 32.8878 11.8496 32.7625C11.5783 32.6372 11.3679 32.4092 11.2647 32.1288ZM12.6117 34.601C12.6342 34.4534 12.6563 34.3176 12.6767 34.1929C13.02 34.1431 13.349 34.022 13.6427 33.8373C13.7399 33.9187 13.8431 34.0085 13.9567 34.1059L16.4942 36.2841C16.7118 36.471 16.9128 36.6439 17.0932 36.7686C17.285 36.9007 17.5287 37.0357 17.8344 37.0548C18.0979 37.0712 18.3611 37.0137 18.5939 36.8896C18.8635 36.7452 19.03 36.5216 19.1496 36.3219C19.261 36.134 19.373 35.8929 19.495 35.6319L19.5078 35.6042C19.7086 35.171 19.8568 34.8561 19.9747 34.6283C20.098 34.6502 20.2232 34.6617 20.3507 34.6609L20.3695 34.7251C20.4441 34.98 20.5233 35.2995 20.624 35.7034L21.0009 37.2023L21.194 37.9669C21.3434 38.5555 21.4838 39.1041 21.5985 39.6113L10.3629 43.747C10.1032 43.2454 9.85012 42.7404 9.60365 42.2322C9.49215 42.0024 9.37563 41.7667 9.25662 41.5243L8.57039 40.1401C8.40897 39.8192 8.25328 39.4954 8.10342 39.169C8.20098 39.0869 8.28973 38.9966 8.36945 38.9001C8.60687 38.9971 8.92304 39.141 9.35756 39.3403L9.38449 39.3535C9.64657 39.4731 9.88814 39.584 10.0948 39.6549C10.3153 39.7293 10.587 39.7916 10.8859 39.7268C11.1436 39.6703 11.3813 39.5435 11.5709 39.3594C11.7908 39.1478 11.8905 38.8863 11.95 38.6617C12.0097 38.4115 12.057 38.1585 12.0917 37.9036L12.6117 34.601ZM11.0491 44.9352C11.19 45.1485 11.3256 45.3291 11.4568 45.4767C11.6696 45.7154 11.8395 45.8353 11.9701 45.8872C12.3263 46.0279 12.7384 46.0462 13.4011 45.8945C14.0816 45.7391 14.9337 45.4264 16.1502 44.9787L17.9909 44.3011C19.2073 43.8534 20.0589 43.539 20.6777 43.2161C21.2809 42.9028 21.5824 42.6209 21.7625 42.2828C21.8282 42.1587 21.8807 41.9568 21.8874 41.6384C21.8912 41.44 21.8774 41.2146 21.8465 40.9609L11.0491 44.9352ZM6.16574 37.8478C6.11968 37.7226 6.11167 37.5866 6.14271 37.4569C6.17376 37.3272 6.24246 37.2096 6.3402 37.1189C6.43793 37.0281 6.56032 36.9683 6.69196 36.947C6.8236 36.9256 6.95862 36.9437 7.08002 36.9989C7.20143 37.0541 7.30379 37.1439 7.37424 37.2572C7.44469 37.3704 7.48007 37.502 7.47593 37.6353C7.4718 37.7686 7.42833 37.8977 7.351 38.0063C7.27366 38.115 7.16592 38.1983 7.04133 38.2459L7.03371 38.2487C6.86545 38.3106 6.67947 38.3032 6.5167 38.228C6.35392 38.1528 6.22768 38.016 6.16574 37.8478ZM19.7005 32.8658C19.6543 32.7403 19.6464 32.604 19.6777 32.474C19.709 32.344 19.7782 32.2262 19.8764 32.1355C19.9747 32.0448 20.0976 31.9853 20.2297 31.9645C20.3618 31.9436 20.4971 31.9625 20.6184 32.0185C20.7398 32.0746 20.8419 32.1654 20.9117 32.2795C20.9814 32.3935 21.0158 32.5257 21.0105 32.6593C21.0051 32.7929 20.9603 32.9219 20.8816 33.0301C20.8029 33.1382 20.694 33.2205 20.5685 33.2667L20.5609 33.2695C20.3932 33.3297 20.2086 33.321 20.0473 33.2454C19.8861 33.1697 19.7614 33.0332 19.7005 32.8658Z"/>
</mask>
<path fill-rule="evenodd" clip-rule="evenodd" d="M11.4658 29.4133C11.001 29.5844 10.5981 29.8907 10.3091 30.2929C10.0201 30.6951 9.85814 31.1747 9.84419 31.6697C9.83023 32.1648 9.9649 32.6527 10.2308 33.0705C10.4968 33.4884 10.8817 33.817 11.3362 34.0139L11.2778 34.3774L10.7612 37.6633C10.7315 37.8822 10.692 38.0996 10.6428 38.3149C10.6355 38.3434 10.6266 38.3713 10.616 38.3987C10.587 38.3924 10.5584 38.3843 10.5303 38.3746C10.3236 38.296 10.1205 38.2083 9.92156 38.1117L9.82929 38.0698C9.49958 37.9139 9.16599 37.7664 8.82884 37.6273C8.83135 37.2242 8.71367 36.8295 8.49082 36.4935C8.26797 36.1576 7.95006 35.8957 7.57768 35.7412C7.2053 35.5868 6.79535 35.5468 6.40015 35.6265C6.00496 35.7061 5.64246 35.9017 5.35893 36.1882C5.0754 36.4748 4.8837 36.8394 4.80832 37.2354C4.73293 37.6314 4.77727 38.0409 4.93568 38.4116C5.09409 38.7823 5.35938 39.0974 5.69768 39.3167C6.03598 39.5359 6.43195 39.6494 6.83502 39.6426L6.89735 39.7858C7.01885 40.0532 7.1755 40.3692 7.35351 40.7302L8.04463 42.125L8.37667 42.8001C8.80863 43.6813 9.22226 44.5232 9.62943 45.2119C9.88591 45.6477 10.1561 46.0477 10.4454 46.3744C10.7329 46.6989 11.0706 46.9848 11.4722 47.1443C12.1808 47.4253 12.9003 47.3967 13.7028 47.2127C14.4779 47.035 15.4109 46.6916 16.5732 46.2638L18.5019 45.5538C19.6642 45.126 20.5973 44.7826 21.3026 44.4154C22.0337 44.0348 22.5992 43.5904 22.9565 42.9171C23.1589 42.5353 23.2306 42.0987 23.2392 41.6652C23.2476 41.2289 23.194 40.7492 23.1075 40.2508C22.9711 39.4625 22.7393 38.5536 22.4971 37.6035L22.3123 36.8743L21.9342 35.3642C21.8354 34.9731 21.7506 34.6307 21.668 34.3489L21.6235 34.1991C21.9348 33.943 22.1627 33.5999 22.2781 33.2137C22.3935 32.8274 22.3912 32.4155 22.2715 32.0306C22.1518 31.6456 21.92 31.3051 21.6059 31.0525C21.2917 30.7998 20.9094 30.6465 20.5077 30.6122C20.1061 30.5778 19.7033 30.6639 19.3508 30.8595C18.9983 31.0551 18.7121 31.3513 18.5287 31.7103C18.3453 32.0693 18.273 32.4748 18.3212 32.8751C18.3693 33.2753 18.5356 33.6522 18.7989 33.9575C18.6494 34.2402 18.494 34.5749 18.3232 34.9433L18.281 35.0347C18.1431 35.3333 18.0601 35.5098 17.988 35.6295C17.9729 35.6551 17.9563 35.6798 17.9383 35.7035C17.9126 35.6895 17.8876 35.6739 17.8636 35.657C17.6866 35.525 17.5155 35.3851 17.351 35.2377L14.8273 33.0708L14.5473 32.832C14.7655 32.3874 14.8456 31.8876 14.7772 31.3971C14.7088 30.9066 14.495 30.4478 14.1634 30.0799C13.8318 29.712 13.3976 29.4519 12.9168 29.3331C12.436 29.2143 11.9306 29.2422 11.4658 29.4133ZM11.2647 32.1288C11.1615 31.8483 11.1739 31.5384 11.2992 31.2671C11.4245 30.9958 11.6524 30.7854 11.9329 30.6822C12.2133 30.5789 12.5233 30.5913 12.7946 30.7167C13.0659 30.842 13.2763 31.0699 13.3795 31.3504C13.4827 31.6308 13.4703 31.9408 13.345 32.2121C13.2197 32.4833 12.9917 32.6937 12.7113 32.797C12.4309 32.9002 12.1209 32.8878 11.8496 32.7625C11.5783 32.6372 11.3679 32.4092 11.2647 32.1288ZM12.6117 34.601C12.6342 34.4534 12.6563 34.3176 12.6767 34.1929C13.02 34.1431 13.349 34.022 13.6427 33.8373C13.7399 33.9187 13.8431 34.0085 13.9567 34.1059L16.4942 36.2841C16.7118 36.471 16.9128 36.6439 17.0932 36.7686C17.285 36.9007 17.5287 37.0357 17.8344 37.0548C18.0979 37.0712 18.3611 37.0137 18.5939 36.8896C18.8635 36.7452 19.03 36.5216 19.1496 36.3219C19.261 36.134 19.373 35.8929 19.495 35.6319L19.5078 35.6042C19.7086 35.171 19.8568 34.8561 19.9747 34.6283C20.098 34.6502 20.2232 34.6617 20.3507 34.6609L20.3695 34.7251C20.4441 34.98 20.5233 35.2995 20.624 35.7034L21.0009 37.2023L21.194 37.9669C21.3434 38.5555 21.4838 39.1041 21.5985 39.6113L10.3629 43.747C10.1032 43.2454 9.85012 42.7404 9.60365 42.2322C9.49215 42.0024 9.37563 41.7667 9.25662 41.5243L8.57039 40.1401C8.40897 39.8192 8.25328 39.4954 8.10342 39.169C8.20098 39.0869 8.28973 38.9966 8.36945 38.9001C8.60687 38.9971 8.92304 39.141 9.35756 39.3403L9.38449 39.3535C9.64657 39.4731 9.88814 39.584 10.0948 39.6549C10.3153 39.7293 10.587 39.7916 10.8859 39.7268C11.1436 39.6703 11.3813 39.5435 11.5709 39.3594C11.7908 39.1478 11.8905 38.8863 11.95 38.6617C12.0097 38.4115 12.057 38.1585 12.0917 37.9036L12.6117 34.601ZM11.0491 44.9352C11.19 45.1485 11.3256 45.3291 11.4568 45.4767C11.6696 45.7154 11.8395 45.8353 11.9701 45.8872C12.3263 46.0279 12.7384 46.0462 13.4011 45.8945C14.0816 45.7391 14.9337 45.4264 16.1502 44.9787L17.9909 44.3011C19.2073 43.8534 20.0589 43.539 20.6777 43.2161C21.2809 42.9028 21.5824 42.6209 21.7625 42.2828C21.8282 42.1587 21.8807 41.9568 21.8874 41.6384C21.8912 41.44 21.8774 41.2146 21.8465 40.9609L11.0491 44.9352ZM6.16574 37.8478C6.11968 37.7226 6.11167 37.5866 6.14271 37.4569C6.17376 37.3272 6.24246 37.2096 6.3402 37.1189C6.43793 37.0281 6.56032 36.9683 6.69196 36.947C6.8236 36.9256 6.95862 36.9437 7.08002 36.9989C7.20143 37.0541 7.30379 37.1439 7.37424 37.2572C7.44469 37.3704 7.48007 37.502 7.47593 37.6353C7.4718 37.7686 7.42833 37.8977 7.351 38.0063C7.27366 38.115 7.16592 38.1983 7.04133 38.2459L7.03371 38.2487C6.86545 38.3106 6.67947 38.3032 6.5167 38.228C6.35392 38.1528 6.22768 38.016 6.16574 37.8478ZM19.7005 32.8658C19.6543 32.7403 19.6464 32.604 19.6777 32.474C19.709 32.344 19.7782 32.2262 19.8764 32.1355C19.9747 32.0448 20.0976 31.9853 20.2297 31.9645C20.3618 31.9436 20.4971 31.9625 20.6184 32.0185C20.7398 32.0746 20.8419 32.1654 20.9117 32.2795C20.9814 32.3935 21.0158 32.5257 21.0105 32.6593C21.0051 32.7929 20.9603 32.9219 20.8816 33.0301C20.8029 33.1382 20.694 33.2205 20.5685 33.2667L20.5609 33.2695C20.3932 33.3297 20.2086 33.321 20.0473 33.2454C19.8861 33.1697 19.7614 33.0332 19.7005 32.8658Z" fill="#135249" stroke="#135249" stroke-width="2" mask="url(#path-1-inside-1_0_1)"/>
</g>
<g clip-path="url(#clip1_0_1)">
<path d="M57.3138 20.1573L55.0065 13.0796L40.9261 8.28242L34.7649 12.4749M57.3138 20.1573L41.2378 30.4091M57.3138 20.1573L34.7649 12.4749M41.2378 30.4091L34.7649 12.4749M41.2378 30.4091L41.8115 14.8756M41.2378 30.4091L50.2673 17.7565" stroke="#135249" stroke-linecap="round" stroke-linejoin="round"/>
<path d="M40.9263 8.28247L41.8116 14.8757L47.9601 10.6789L50.2674 17.7566L55.0066 13.0797" stroke="#135249" stroke-linecap="round" stroke-linejoin="round"/>
</g>
<g clip-path="url(#clip2_0_1)">
<path d="M30.0303 68.352L25.8535 66.6463L18.119 71.2781L17.644 75.7697M30.0303 68.352L28.4732 79.8024M30.0303 68.352L17.644 75.7697M28.4732 79.8024L17.644 75.7697M28.4732 79.8024L21.5147 73.4517M28.4732 79.8024L26.1596 70.6701" stroke="#135249" stroke-linecap="round" stroke-linejoin="round"/>
<path d="M18.1191 71.2781L21.5149 73.4516L21.9829 68.9642L26.1598 70.67L25.8537 66.6462" stroke="#135249" stroke-linecap="round" stroke-linejoin="round"/>
</g>
<g clip-path="url(#clip3_0_1)">
<path d="M74.5412 71.4504L74.5807 67.7259L68.6743 63.1976L65.0825 64.1984M74.5412 71.4504L65.2794 73.7361M74.5412 71.4504L65.0825 64.1984M65.2794 73.7361L65.0825 64.1984M65.2794 73.7361L68.0384 66.4646M65.2794 73.7361L71.5854 69.1841" stroke="#135249" stroke-linecap="round" stroke-linejoin="round"/>
<path d="M68.6743 63.1975L68.0383 66.4646L71.6248 65.4597L71.5853 69.1841L74.5807 67.7259" stroke="#135249" stroke-linecap="round" stroke-linejoin="round"/>
</g>
<g clip-path="url(#clip4_0_1)">
<mask id="path-8-inside-2_0_1" fill="white">
<path fill-rule="evenodd" clip-rule="evenodd" d="M75.8918 36.597C75.5885 36.4891 75.2599 36.4746 74.9483 36.5553C74.6367 36.636 74.3564 36.8081 74.1436 37.0496C73.9307 37.2911 73.7951 37.5907 73.7542 37.91C73.7132 38.2292 73.7689 38.5534 73.9139 38.8408L73.7337 38.998L72.1093 40.4243C72.0034 40.5213 71.8932 40.6134 71.7791 40.7005C71.7637 40.7117 71.7476 40.722 71.7309 40.7313C71.7191 40.716 71.7081 40.7001 71.6981 40.6835C71.6276 40.5583 71.5626 40.4301 71.5035 40.2991L71.4748 40.2398C71.3749 40.0248 71.2697 39.8124 71.1591 39.6028C71.328 39.4025 71.4334 39.1564 71.4618 38.896C71.4902 38.6355 71.4403 38.3725 71.3185 38.1406C71.1968 37.9086 71.0087 37.7181 70.7782 37.5936C70.5477 37.469 70.2853 37.4159 70.0245 37.4412C69.7638 37.4664 69.5164 37.5688 69.3141 37.7352C69.1118 37.9016 68.9636 38.1246 68.8886 38.3756C68.8136 38.6266 68.815 38.8943 68.8928 39.1445C68.9706 39.3947 69.1212 39.616 69.3253 39.7802L69.2969 39.8776C69.2464 40.0617 69.1932 40.2847 69.132 40.539L68.8972 41.523L68.7823 41.9982C68.6316 42.618 68.4881 43.2105 68.405 43.7237C68.3519 44.048 68.3205 44.3602 68.3291 44.6436C68.3378 44.9253 68.3876 45.2085 68.5218 45.4551C68.7589 45.8901 69.1301 46.175 69.6074 46.4169C70.0684 46.6504 70.6772 46.8669 71.4356 47.1365L72.6941 47.584C73.4525 47.8536 74.0613 48.0701 74.5662 48.18C75.0896 48.294 75.5569 48.3071 76.0153 48.1195C76.2751 48.0129 76.4925 47.8247 76.677 47.6118C76.8627 47.3974 77.0354 47.1355 77.1995 46.8506C77.4591 46.4002 77.7213 45.8499 77.9955 45.2746L78.2064 44.8336L78.6454 43.9222C78.7587 43.6858 78.8588 43.4795 78.9347 43.3044L78.9747 43.2111C79.2367 43.2126 79.4932 43.136 79.7115 42.9911C79.9298 42.8462 80.0999 42.6395 80.2002 42.3975C80.3004 42.1555 80.3263 41.889 80.2745 41.6322C80.2226 41.3754 80.0954 41.1399 79.9091 40.9557C79.7228 40.7715 79.4858 40.647 79.2284 40.5981C78.971 40.5492 78.7049 40.5781 78.464 40.6812C78.2232 40.7842 78.0185 40.9567 77.8761 41.1766C77.7337 41.3965 77.66 41.6539 77.6646 41.9158C77.4723 41.9948 77.2555 42.0975 77.0171 42.2104L76.9579 42.2385C76.7649 42.3302 76.6501 42.3839 76.5643 42.4137C76.5461 42.4202 76.5275 42.4257 76.5087 42.43C76.5017 42.4123 76.4957 42.3942 76.4907 42.3758C76.4572 42.2362 76.43 42.0952 76.4091 41.9532L76.0497 39.8215L76.0092 39.5858C76.3031 39.4545 76.5509 39.2382 76.7207 38.9647C76.8905 38.6913 76.9745 38.3733 76.9618 38.0516C76.9492 37.73 76.8405 37.4196 76.6498 37.1603C76.4591 36.901 76.1951 36.7048 75.8918 36.597ZM74.6621 37.8696C74.7272 37.6866 74.8623 37.5369 75.0377 37.4535C75.2131 37.3701 75.4144 37.3599 75.5974 37.4249C75.7804 37.49 75.93 37.6251 76.0134 37.8005C76.0968 37.9759 76.1071 38.1772 76.042 38.3602C75.977 38.5432 75.8419 38.6928 75.6665 38.7762C75.4911 38.8596 75.2898 38.8699 75.1068 38.8048C74.9238 38.7398 74.7741 38.6047 74.6908 38.4293C74.6074 38.2539 74.5971 38.0525 74.6621 37.8696ZM74.3069 39.6644C74.3795 39.6001 74.447 39.5414 74.509 39.4876C74.7012 39.6055 74.9159 39.6818 75.1393 39.7117C75.154 39.7928 75.1682 39.8805 75.1845 39.9765L75.546 42.1194C75.577 42.3033 75.6055 42.4732 75.6437 42.6105C75.6846 42.7563 75.7501 42.9251 75.8949 43.0617C76.0197 43.1794 76.175 43.2602 76.3429 43.295C76.5376 43.335 76.7137 43.2925 76.8565 43.2426C76.9903 43.195 77.1465 43.1212 77.3159 43.0416L77.3339 43.033C77.6142 42.9002 77.8192 42.8046 77.9728 42.7398C78.0253 42.802 78.0831 42.8599 78.1471 42.9125L78.1298 42.9523C78.0611 43.1107 77.9677 43.3032 77.8501 43.5467L77.415 44.4521L77.1935 44.9143C77.0233 45.2703 76.8654 45.6027 76.7117 45.9038L69.3805 43.2971C69.4594 42.9386 69.543 42.5812 69.6312 42.2248C69.6711 42.0637 69.7109 41.8975 69.7523 41.727L69.9851 40.7503C70.038 40.5229 70.0948 40.2965 70.1558 40.0711C70.2386 40.0707 70.3205 40.0625 70.4004 40.0474C70.4787 40.1946 70.5767 40.398 70.7109 40.6782L70.7188 40.696C70.8 40.8647 70.8745 41.0205 70.9483 41.1419C71.0274 41.2707 71.1372 41.4148 71.3134 41.5067C71.4657 41.5857 71.6371 41.6212 71.8084 41.6081C72.0062 41.5939 72.1647 41.5047 72.2878 41.4173C72.4216 41.3172 72.5505 41.2105 72.6738 41.0976L74.3069 39.6644ZM69.2291 44.1759C69.2108 44.341 69.2035 44.4876 69.2076 44.6159C69.2146 44.8236 69.2496 44.9541 69.2932 45.0343C69.4126 45.2527 69.6108 45.4332 70.0049 45.633C70.4093 45.8384 70.965 46.0366 71.7587 46.3188L72.9598 46.7458C73.7535 47.028 74.3095 47.2251 74.7528 47.3212C75.1844 47.4156 75.4522 47.4001 75.6827 47.3061C75.7672 47.2715 75.8773 47.1925 76.0131 47.0362C76.0975 46.9388 76.1843 46.8205 76.2744 46.6809L69.2291 44.1759ZM69.7374 38.6055C69.7664 38.5238 69.819 38.4526 69.8884 38.4007C69.9579 38.3489 70.0411 38.3187 70.1276 38.314C70.2142 38.3093 70.3002 38.3303 70.3748 38.3744C70.4494 38.4185 70.5094 38.4837 70.547 38.5617C70.5847 38.6398 70.5985 38.7272 70.5866 38.8131C70.5747 38.8989 70.5376 38.9793 70.4801 39.0442C70.4226 39.109 70.3472 39.1554 70.2634 39.1776C70.1796 39.1997 70.0912 39.1965 70.0092 39.1684L70.0042 39.1667C69.8944 39.1276 69.8046 39.0466 69.7546 38.9413C69.7045 38.8361 69.6984 38.7153 69.7374 38.6055ZM78.5688 41.7456C78.5979 41.6637 78.6507 41.5923 78.7204 41.5404C78.79 41.4885 78.8736 41.4584 78.9603 41.454C79.0471 41.4495 79.1333 41.4709 79.2079 41.5154C79.2825 41.56 79.3423 41.6256 79.3796 41.7041C79.4169 41.7826 79.4301 41.8704 79.4175 41.9563C79.4049 42.0423 79.3671 42.1226 79.3089 42.1872C79.2507 42.2517 79.1746 42.2974 79.0904 42.3187C79.0061 42.34 78.9175 42.3358 78.8356 42.3067L78.8306 42.305C78.7219 42.2653 78.6333 42.1842 78.5842 42.0793C78.5351 41.9745 78.5296 41.8545 78.5688 41.7456Z"/>
</mask>
<path fill-rule="evenodd" clip-rule="evenodd" d="M75.8918 36.597C75.5885 36.4891 75.2599 36.4746 74.9483 36.5553C74.6367 36.636 74.3564 36.8081 74.1436 37.0496C73.9307 37.2911 73.7951 37.5907 73.7542 37.91C73.7132 38.2292 73.7689 38.5534 73.9139 38.8408L73.7337 38.998L72.1093 40.4243C72.0034 40.5213 71.8932 40.6134 71.7791 40.7005C71.7637 40.7117 71.7476 40.722 71.7309 40.7313C71.7191 40.716 71.7081 40.7001 71.6981 40.6835C71.6276 40.5583 71.5626 40.4301 71.5035 40.2991L71.4748 40.2398C71.3749 40.0248 71.2697 39.8124 71.1591 39.6028C71.328 39.4025 71.4334 39.1564 71.4618 38.896C71.4902 38.6355 71.4403 38.3725 71.3185 38.1406C71.1968 37.9086 71.0087 37.7181 70.7782 37.5936C70.5477 37.469 70.2853 37.4159 70.0245 37.4412C69.7638 37.4664 69.5164 37.5688 69.3141 37.7352C69.1118 37.9016 68.9636 38.1246 68.8886 38.3756C68.8136 38.6266 68.815 38.8943 68.8928 39.1445C68.9706 39.3947 69.1212 39.616 69.3253 39.7802L69.2969 39.8776C69.2464 40.0617 69.1932 40.2847 69.132 40.539L68.8972 41.523L68.7823 41.9982C68.6316 42.618 68.4881 43.2105 68.405 43.7237C68.3519 44.048 68.3205 44.3602 68.3291 44.6436C68.3378 44.9253 68.3876 45.2085 68.5218 45.4551C68.7589 45.8901 69.1301 46.175 69.6074 46.4169C70.0684 46.6504 70.6772 46.8669 71.4356 47.1365L72.6941 47.584C73.4525 47.8536 74.0613 48.0701 74.5662 48.18C75.0896 48.294 75.5569 48.3071 76.0153 48.1195C76.2751 48.0129 76.4925 47.8247 76.677 47.6118C76.8627 47.3974 77.0354 47.1355 77.1995 46.8506C77.4591 46.4002 77.7213 45.8499 77.9955 45.2746L78.2064 44.8336L78.6454 43.9222C78.7587 43.6858 78.8588 43.4795 78.9347 43.3044L78.9747 43.2111C79.2367 43.2126 79.4932 43.136 79.7115 42.9911C79.9298 42.8462 80.0999 42.6395 80.2002 42.3975C80.3004 42.1555 80.3263 41.889 80.2745 41.6322C80.2226 41.3754 80.0954 41.1399 79.9091 40.9557C79.7228 40.7715 79.4858 40.647 79.2284 40.5981C78.971 40.5492 78.7049 40.5781 78.464 40.6812C78.2232 40.7842 78.0185 40.9567 77.8761 41.1766C77.7337 41.3965 77.66 41.6539 77.6646 41.9158C77.4723 41.9948 77.2555 42.0975 77.0171 42.2104L76.9579 42.2385C76.7649 42.3302 76.6501 42.3839 76.5643 42.4137C76.5461 42.4202 76.5275 42.4257 76.5087 42.43C76.5017 42.4123 76.4957 42.3942 76.4907 42.3758C76.4572 42.2362 76.43 42.0952 76.4091 41.9532L76.0497 39.8215L76.0092 39.5858C76.3031 39.4545 76.5509 39.2382 76.7207 38.9647C76.8905 38.6913 76.9745 38.3733 76.9618 38.0516C76.9492 37.73 76.8405 37.4196 76.6498 37.1603C76.4591 36.901 76.1951 36.7048 75.8918 36.597ZM74.6621 37.8696C74.7272 37.6866 74.8623 37.5369 75.0377 37.4535C75.2131 37.3701 75.4144 37.3599 75.5974 37.4249C75.7804 37.49 75.93 37.6251 76.0134 37.8005C76.0968 37.9759 76.1071 38.1772 76.042 38.3602C75.977 38.5432 75.8419 38.6928 75.6665 38.7762C75.4911 38.8596 75.2898 38.8699 75.1068 38.8048C74.9238 38.7398 74.7741 38.6047 74.6908 38.4293C74.6074 38.2539 74.5971 38.0525 74.6621 37.8696ZM74.3069 39.6644C74.3795 39.6001 74.447 39.5414 74.509 39.4876C74.7012 39.6055 74.9159 39.6818 75.1393 39.7117C75.154 39.7928 75.1682 39.8805 75.1845 39.9765L75.546 42.1194C75.577 42.3033 75.6055 42.4732 75.6437 42.6105C75.6846 42.7563 75.7501 42.9251 75.8949 43.0617C76.0197 43.1794 76.175 43.2602 76.3429 43.295C76.5376 43.335 76.7137 43.2925 76.8565 43.2426C76.9903 43.195 77.1465 43.1212 77.3159 43.0416L77.3339 43.033C77.6142 42.9002 77.8192 42.8046 77.9728 42.7398C78.0253 42.802 78.0831 42.8599 78.1471 42.9125L78.1298 42.9523C78.0611 43.1107 77.9677 43.3032 77.8501 43.5467L77.415 44.4521L77.1935 44.9143C77.0233 45.2703 76.8654 45.6027 76.7117 45.9038L69.3805 43.2971C69.4594 42.9386 69.543 42.5812 69.6312 42.2248C69.6711 42.0637 69.7109 41.8975 69.7523 41.727L69.9851 40.7503C70.038 40.5229 70.0948 40.2965 70.1558 40.0711C70.2386 40.0707 70.3205 40.0625 70.4004 40.0474C70.4787 40.1946 70.5767 40.398 70.7109 40.6782L70.7188 40.696C70.8 40.8647 70.8745 41.0205 70.9483 41.1419C71.0274 41.2707 71.1372 41.4148 71.3134 41.5067C71.4657 41.5857 71.6371 41.6212 71.8084 41.6081C72.0062 41.5939 72.1647 41.5047 72.2878 41.4173C72.4216 41.3172 72.5505 41.2105 72.6738 41.0976L74.3069 39.6644ZM69.2291 44.1759C69.2108 44.341 69.2035 44.4876 69.2076 44.6159C69.2146 44.8236 69.2496 44.9541 69.2932 45.0343C69.4126 45.2527 69.6108 45.4332 70.0049 45.633C70.4093 45.8384 70.965 46.0366 71.7587 46.3188L72.9598 46.7458C73.7535 47.028 74.3095 47.2251 74.7528 47.3212C75.1844 47.4156 75.4522 47.4001 75.6827 47.3061C75.7672 47.2715 75.8773 47.1925 76.0131 47.0362C76.0975 46.9388 76.1843 46.8205 76.2744 46.6809L69.2291 44.1759ZM69.7374 38.6055C69.7664 38.5238 69.819 38.4526 69.8884 38.4007C69.9579 38.3489 70.0411 38.3187 70.1276 38.314C70.2142 38.3093 70.3002 38.3303 70.3748 38.3744C70.4494 38.4185 70.5094 38.4837 70.547 38.5617C70.5847 38.6398 70.5985 38.7272 70.5866 38.8131C70.5747 38.8989 70.5376 38.9793 70.4801 39.0442C70.4226 39.109 70.3472 39.1554 70.2634 39.1776C70.1796 39.1997 70.0912 39.1965 70.0092 39.1684L70.0042 39.1667C69.8944 39.1276 69.8046 39.0466 69.7546 38.9413C69.7045 38.8361 69.6984 38.7153 69.7374 38.6055ZM78.5688 41.7456C78.5979 41.6637 78.6507 41.5923 78.7204 41.5404C78.79 41.4885 78.8736 41.4584 78.9603 41.454C79.0471 41.4495 79.1333 41.4709 79.2079 41.5154C79.2825 41.56 79.3423 41.6256 79.3796 41.7041C79.4169 41.7826 79.4301 41.8704 79.4175 41.9563C79.4049 42.0423 79.3671 42.1226 79.3089 42.1872C79.2507 42.2517 79.1746 42.2974 79.0904 42.3187C79.0061 42.34 78.9175 42.3358 78.8356 42.3067L78.8306 42.305C78.7219 42.2653 78.6333 42.1842 78.5842 42.0793C78.5351 41.9745 78.5296 41.8545 78.5688 41.7456Z" fill="#135249" stroke="#135249" stroke-width="2" mask="url(#path-8-inside-2_0_1)"/>
</g>
<path d="M48.3333 46.4167H50C50 44.0525 47.7042 42.9742 45.8333 42.7258V41H44.1667V42.7258C42.2958 42.9742 40 44.0525 40 46.4167C40 48.6717 42.2217 49.8442 44.1667 50.1083V54.25C42.96 54.0408 41.6667 53.3967 41.6667 52.25H40C40 54.4075 42.0208 55.6825 44.1667 55.9467V57.6667H45.8333V55.9417C47.7042 55.6933 50 54.6142 50 52.25C50 49.8858 47.7042 48.8075 45.8333 48.5592V44.4167C46.9417 44.6158 48.3333 45.2008 48.3333 46.4167ZM41.6667 46.4167C41.6667 45.2008 43.0583 44.6158 44.1667 44.4167V48.4158C43.0242 48.205 41.6667 47.5808 41.6667 46.4167ZM48.3333 52.25C48.3333 53.4658 46.9417 54.0508 45.8333 54.25V50.25C46.9417 50.4492 48.3333 51.0342 48.3333 52.25Z" fill="#135249"/>
<defs>
<clipPath id="clip0_0_1">
<rect width="21.6338" height="21.6338" fill="white" transform="translate(0.614258 31.2463) rotate(-20.208)"/>
</clipPath>
<clipPath id="clip1_0_1">
<rect width="31.2659" height="31.2659" fill="white" transform="translate(35.083) rotate(18.814)"/>
</clipPath>
<clipPath id="clip2_0_1">
<rect width="18.9493" height="18.9493" fill="white" transform="translate(12 70.7356) rotate(-30.9155)"/>
</clipPath>
<clipPath id="clip3_0_1">
<rect width="15.6434" height="15.6434" fill="white" transform="translate(67.2305 58.3359) rotate(37.4773)"/>
</clipPath>
<clipPath id="clip4_0_1">
<rect width="14.0595" height="14.0595" fill="white" transform="translate(69.71 33) rotate(19.5731)"/>
</clipPath>
</defs>
</svg>


