<svg width="161" height="173" viewBox="0 0 161 173" fill="none" xmlns="http://www.w3.org/2000/svg">
<path d="M18.4002 58.7182C11.8816 61.2762 11.304 62.2663 11.9641 69.9401C9.32369 62.6789 8.41603 62.0188 1.40234 62.4314C7.92094 59.8734 8.49856 58.8833 7.83844 51.2095C10.3964 58.4707 11.3865 59.1308 18.4002 58.7182Z" fill="#A834FF"/>
<path d="M12.2946 71.508L11.717 70.0228C9.15904 62.8441 8.2514 62.2665 1.32023 62.679L0 62.7616L1.23771 62.2665C7.67379 59.7085 8.25138 58.8009 7.50876 51.2096L7.34375 49.6418L7.92133 51.1271C10.4793 58.3058 11.3869 58.8834 18.3181 58.4708L19.6383 58.3883L18.4006 58.8834C11.9645 61.4413 11.3869 62.349 12.1295 69.9403L12.2946 71.508ZM4.1257 62.1014C8.49893 62.1014 9.73663 63.3392 11.6345 68.3725C11.2219 62.349 11.9645 61.0288 17.1629 58.8834C11.6345 59.1309 10.3142 58.2233 8.16888 52.6123C8.58145 58.6359 7.83882 59.9561 2.64044 62.1014C3.13553 62.184 3.63061 62.1014 4.1257 62.1014Z" fill="black"/>
<path d="M158.92 54.427C151.907 53.9319 150.999 54.592 148.276 61.7707C149.019 54.0969 148.441 53.1067 142.005 50.4663C149.019 50.9614 149.926 50.3013 152.649 43.1226C151.907 50.7138 152.484 51.7865 158.92 54.427Z" fill="#A834FF"/>
<path d="M147.946 63.3384L148.111 61.7706C148.853 54.1793 148.358 53.2717 141.922 50.6312L140.685 50.1361L142.005 50.2186C148.936 50.7137 149.761 50.1361 152.484 42.9574L153.062 41.4722L152.897 43.0399C152.154 50.6312 152.649 51.5389 159.085 54.1793L160.323 54.6744L159.003 54.5919C152.071 54.0968 151.246 54.6744 148.523 61.8531L147.946 63.3384ZM143.242 50.7137C148.358 52.8591 149.183 54.2618 148.688 60.2853C150.916 54.6744 152.237 53.8493 157.765 54.0968C152.649 51.9514 151.824 50.5487 152.319 44.5252C150.091 50.2186 148.771 51.0438 143.242 50.7137Z" fill="black"/>
<path d="M157.286 91.6942C158.042 88.4546 156.245 85.2658 153.271 84.5718C150.298 83.8778 147.275 85.9414 146.519 89.1809C145.762 92.4205 147.56 95.6092 150.533 96.3032C153.506 96.9973 156.53 94.9337 157.286 91.6942Z" fill="#A834FF"/>
<path d="M150.092 97.9123L150.257 96.3445C150.753 91.6413 150.422 91.0637 146.379 89.4134L145.142 88.9183L146.462 89.0008C150.753 89.3309 151.33 88.9183 152.98 84.4625L153.558 82.9773L153.393 84.5451C152.898 89.2484 153.228 89.826 157.271 91.4762L158.509 91.9713L157.189 91.8888C152.898 91.5587 152.32 91.9713 150.67 96.4271L150.092 97.9123ZM147.7 89.4959C150.505 90.7336 151 91.7238 150.835 94.9418C152.073 91.8888 152.98 91.3112 156.033 91.3937C153.228 90.156 152.733 89.1658 152.898 85.9478C151.66 89.0008 150.753 89.5784 147.7 89.4959Z" fill="black"/>
<path d="M22.6096 22.6598C18.4014 24.0625 17.9888 24.6401 18.1539 29.5085C16.7511 24.8877 16.1735 24.3926 11.7178 24.3926C15.926 22.9899 16.3385 22.4123 16.1735 17.5439C17.6588 22.2472 18.2364 22.6598 22.6096 22.6598Z" fill="#A834FF"/>
<path d="M18.4834 31.1589L17.9883 29.5911C16.5855 25.0528 16.0904 24.6403 11.7997 24.6403H10.4795L11.7172 24.2277C15.8429 22.9075 16.173 22.3299 16.0079 17.5441L15.9254 15.9763L16.4205 17.5441C17.8232 22.0823 18.3183 22.4949 22.609 22.4949H23.9293L22.6916 22.9075C18.5659 24.2277 18.2358 24.8053 18.4008 29.5911L18.4834 31.1589ZM12.9549 24.2277C16.0079 24.3102 16.9156 24.9703 17.9057 28.1059C17.9057 24.8053 18.5659 23.8977 21.3713 22.825C18.3183 22.7425 17.4107 22.0823 16.4205 18.9468C16.4205 22.2474 15.8429 23.155 12.9549 24.2277Z" fill="black"/>
<path d="M57.2631 115.983C51.8997 121.099 46.4537 126.792 44.4734 134.136C42.328 141.892 44.9685 149.731 47.2789 157.075C47.774 158.643 49.1767 159.715 50.9095 159.385C52.3947 159.055 53.715 157.323 53.2199 155.755C51.2395 149.649 48.4341 142.553 50.2494 136.034C51.9822 129.68 56.8505 124.895 61.3888 120.521C64.1942 117.716 60.0685 113.26 57.2631 115.983Z" fill="black"/>
<path d="M58.0868 158.643V168.215L35.643 168.875L25.4938 169.205C25.4938 169.205 24.0085 158.395 35.2304 156.745C36.3031 156.58 37.5408 156.498 38.861 156.58C38.696 156.25 38.1184 155.012 38.366 153.445C38.4485 153.115 38.7785 151.547 40.0162 150.722C41.584 149.649 45.8747 149.979 47.8551 151.959H51.6507C51.6507 151.959 57.5092 149.319 59.572 152.702C61.3873 155.838 58.0868 158.643 58.0868 158.643Z" fill="#58AF00"/>
<path d="M25.3291 169.37V169.205C25.3291 169.122 24.0089 158.148 35.2308 156.58C36.3035 156.415 37.3762 156.333 38.6139 156.415C38.3664 155.755 38.0363 154.682 38.2838 153.445C38.3664 152.95 38.7789 151.464 40.0166 150.639C41.7494 149.484 45.9576 149.897 48.103 151.877H51.8161C52.3937 151.629 57.9221 149.319 59.9025 152.702C61.5527 155.755 58.9123 158.395 58.4172 158.891V168.545L25.3291 169.37ZM38.1188 156.745C37.1286 156.745 36.1385 156.828 35.3133 156.91C30.7751 157.57 27.8046 159.798 26.4018 163.594C25.5767 165.987 25.6592 168.297 25.7417 168.957L57.9221 167.967V158.478L58.0047 158.395C58.1697 158.313 61.0577 155.755 59.4899 152.702C57.5921 149.566 51.8986 152.042 51.8161 152.042H51.7336H47.8555L47.7729 151.959C45.8751 150.062 41.7494 149.649 40.1817 150.722C39.109 151.464 38.6964 152.867 38.6139 153.28C38.3664 154.682 38.7789 155.755 39.0265 156.333L39.1915 156.663H38.8614C38.6139 156.745 38.3663 156.745 38.1188 156.745Z" fill="black"/>
<path d="M25.4931 169.122C25.3281 169.287 24.833 169.782 24.7505 170.69C24.668 171.763 25.4106 172.505 25.4931 172.588C36.385 172.67 47.3593 172.67 58.2512 172.753C58.4162 172.505 59.0763 171.763 59.1588 170.525C59.1588 169.205 58.4987 168.297 58.3337 168.132C47.3593 168.545 36.385 168.792 25.4931 169.122Z" fill="white"/>
<path d="M58.3342 173L25.4111 172.835L25.3286 172.753C25.1636 172.588 24.4209 171.845 24.5034 170.69C24.586 169.782 25.081 169.205 25.3286 168.957L25.4111 168.875H25.4936L58.3342 167.885L58.4167 167.967C58.6642 168.297 59.3243 169.205 59.3243 170.525C59.2418 171.763 58.7467 172.505 58.3342 173ZM25.5761 172.423L58.1691 172.505C58.4167 172.175 58.9118 171.515 58.9118 170.525C58.9118 169.452 58.4167 168.71 58.1691 168.38L25.5761 169.37C25.3286 169.617 24.9985 170.03 24.916 170.773C24.916 171.598 25.4111 172.258 25.5761 172.423Z" fill="black"/>
<path d="M35.643 168.874L25.4938 169.204C25.4938 169.204 24.0085 158.395 35.2304 156.745C36.3856 158.725 37.3758 162.521 35.643 168.874Z" fill="white"/>
<path d="M25.3291 169.37V169.205C25.3291 169.122 24.0089 158.148 35.2308 156.58H35.3959L35.4784 156.663C36.6336 158.725 37.7062 162.604 35.9734 168.957V169.122L25.3291 169.37ZM35.1483 156.993C30.6925 157.653 27.7221 159.881 26.4018 163.676C25.5767 166.069 25.6592 168.38 25.7417 169.04L35.5609 168.71C37.1286 162.604 36.221 158.973 35.1483 156.993Z" fill="black"/>
<path d="M55.8599 159.963L55.7773 159.551C56.1899 159.468 56.6025 159.303 57.0151 159.056C57.3451 158.891 57.7577 158.643 58.0877 158.396L58.3353 158.726C58.0052 158.973 57.5927 159.221 57.2626 159.386C56.7675 159.716 56.2724 159.881 55.8599 159.963Z" fill="black"/>
<path d="M38.9127 156.37L38.8008 156.767L45.6309 158.691L45.7428 158.294L38.9127 156.37Z" fill="black"/>
<path d="M37.2881 156.424L37.0312 156.747L43.5534 161.936L43.8102 161.613L37.2881 156.424Z" fill="black"/>
<path d="M47.1122 158.643C47.1122 159.056 46.7821 159.386 46.3696 159.386C45.957 159.386 45.627 159.056 45.627 158.643C45.627 158.231 45.957 157.901 46.3696 157.901C46.7821 157.901 47.1122 158.231 47.1122 158.643Z" fill="white"/>
<path d="M46.3696 159.551C46.122 159.551 45.8745 159.468 45.7095 159.303C45.5444 159.138 45.4619 158.891 45.4619 158.643C45.4619 158.395 45.5444 158.148 45.7095 157.983C45.8745 157.818 46.122 157.735 46.3696 157.735C46.6171 157.735 46.8647 157.818 47.0297 157.983C47.1947 158.148 47.2772 158.395 47.2772 158.643C47.2772 158.891 47.1947 159.138 47.0297 159.303C46.8647 159.468 46.6171 159.551 46.3696 159.551ZM46.3696 158.065C46.2045 158.065 46.122 158.148 45.957 158.23C45.8745 158.313 45.792 158.478 45.792 158.643C45.792 158.808 45.8745 158.891 45.957 159.056C46.0395 159.138 46.2045 159.221 46.3696 159.221C46.5346 159.221 46.6171 159.138 46.7821 159.056C46.8647 158.973 46.9472 158.808 46.9472 158.643C46.9472 158.478 46.8647 158.395 46.7821 158.23C46.6171 158.148 46.5346 158.065 46.3696 158.065Z" fill="black"/>
<path d="M44.9667 162.191C44.9667 162.604 44.6366 162.934 44.2241 162.934C43.8115 162.934 43.4814 162.604 43.4814 162.191C43.4814 161.779 43.8115 161.448 44.2241 161.448C44.6366 161.448 44.9667 161.779 44.9667 162.191Z" fill="white"/>
<path d="M44.224 163.099C43.9765 163.099 43.729 163.016 43.5639 162.851C43.3989 162.686 43.3164 162.439 43.3164 162.191C43.3164 161.944 43.3989 161.696 43.5639 161.531C43.729 161.366 43.9765 161.283 44.224 161.283C44.4716 161.283 44.7191 161.366 44.8842 161.531C45.0492 161.696 45.1317 161.944 45.1317 162.191C45.1317 162.686 44.7191 163.099 44.224 163.099ZM44.224 161.614C44.059 161.614 43.9765 161.696 43.8115 161.779C43.729 161.861 43.6465 162.026 43.6465 162.191C43.6465 162.356 43.729 162.439 43.8115 162.604C43.894 162.686 44.059 162.769 44.224 162.769C44.3891 162.769 44.4716 162.686 44.6366 162.604C44.7191 162.521 44.8016 162.356 44.8016 162.191C44.8016 162.026 44.7191 161.944 44.6366 161.779C44.4716 161.696 44.3066 161.614 44.224 161.614Z" fill="black"/>
<path d="M105.041 115.983C110.404 121.099 115.85 126.792 117.83 134.136C119.976 141.892 117.335 149.731 115.025 157.075C114.53 158.643 113.127 159.715 111.394 159.385C109.909 159.055 108.589 157.322 109.084 155.755C111.064 149.649 113.87 142.552 112.055 136.034C110.322 129.68 105.453 124.894 100.915 120.521C98.1097 117.716 102.235 113.26 105.041 115.983Z" fill="black"/>
<path d="M104.214 158.643V168.214L126.658 168.874L136.807 169.204C136.807 169.204 138.293 158.395 127.071 156.745C125.998 156.58 124.76 156.497 123.44 156.58C123.605 156.25 124.183 155.012 123.935 153.444C123.853 153.114 123.523 151.546 122.285 150.721C120.717 149.648 116.426 149.979 114.446 151.959H110.65C110.65 151.959 104.792 149.318 102.729 152.702C100.996 155.837 104.214 158.643 104.214 158.643Z" fill="#58AF00"/>
<path d="M136.972 169.37L103.967 168.379V158.725C103.472 158.313 100.831 155.59 102.481 152.537C104.544 149.154 110.073 151.464 110.65 151.712H114.363C116.426 149.731 120.717 149.319 122.45 150.474C123.688 151.299 124.1 152.867 124.183 153.279C124.43 154.517 124.1 155.59 123.853 156.25C125.008 156.25 126.163 156.332 127.236 156.415C138.458 157.983 137.137 168.957 137.137 169.039L136.972 169.37ZM104.462 167.967L136.642 168.957C136.807 167.472 137.22 158.395 127.071 156.91C125.998 156.745 124.76 156.662 123.44 156.745H123.11L123.275 156.415C123.523 155.837 124.018 154.765 123.688 153.362C123.605 152.949 123.275 151.547 122.12 150.804C120.552 149.731 116.426 150.144 114.528 152.042L114.446 152.124L110.485 152.042C110.403 152.042 104.792 149.566 102.812 152.702C101.161 155.755 104.132 158.313 104.297 158.395L104.379 158.478V158.56L104.462 167.967Z" fill="black"/>
<path d="M136.807 169.122C136.972 169.287 137.467 169.782 137.55 170.69C137.632 171.762 136.89 172.505 136.807 172.588C125.915 172.67 114.941 172.67 104.049 172.753C103.884 172.505 103.224 171.762 103.142 170.525C103.142 169.205 103.802 168.297 103.967 168.132C115.024 168.544 125.915 168.792 136.807 169.122Z" fill="white"/>
<path d="M103.967 173C103.554 172.588 102.977 171.762 102.977 170.607C102.977 169.287 103.637 168.379 103.884 168.049L103.967 167.967H104.049L136.89 168.957L136.972 169.039C137.22 169.287 137.715 169.865 137.797 170.772C137.88 171.927 137.137 172.67 136.972 172.835L136.89 172.918L103.967 173ZM104.214 168.379C103.967 168.709 103.472 169.452 103.472 170.525C103.472 171.515 103.967 172.175 104.214 172.505L136.807 172.423C136.972 172.175 137.467 171.597 137.467 170.772C137.385 170.03 137.055 169.617 136.807 169.37L104.214 168.379Z" fill="black"/>
<path d="M126.659 168.874L136.808 169.204C136.808 169.204 138.294 158.395 127.072 156.745C125.999 158.725 124.926 162.521 126.659 168.874Z" fill="white"/>
<path d="M136.974 169.369L126.494 169.039V168.874C124.762 162.521 125.752 158.725 126.989 156.58L127.072 156.497H127.237C138.459 158.065 137.139 169.039 137.139 169.122L136.974 169.369ZM126.824 168.627L136.644 168.957C136.809 167.472 137.221 158.478 127.237 156.992C126.082 158.973 125.174 162.603 126.824 168.627Z" fill="black"/>
<path d="M106.443 159.963C106.03 159.88 105.535 159.632 105.123 159.467C104.71 159.302 104.38 159.055 104.05 158.807L104.297 158.477C104.627 158.725 104.957 158.972 105.37 159.137C105.783 159.302 106.195 159.467 106.608 159.632L106.443 159.963Z" fill="black"/>
<path d="M123.419 156.363L116.589 158.288L116.701 158.685L123.531 156.76L123.419 156.363Z" fill="black"/>
<path d="M125.056 156.44L118.534 161.628L118.791 161.951L125.313 156.763L125.056 156.44Z" fill="black"/>
<path d="M115.19 158.643C115.19 159.055 115.521 159.385 115.933 159.385C116.346 159.385 116.676 159.055 116.676 158.643C116.676 158.23 116.346 157.9 115.933 157.9C115.521 157.9 115.19 158.23 115.19 158.643Z" fill="white"/>
<path d="M115.932 159.55C115.685 159.55 115.437 159.468 115.272 159.303C115.107 159.138 115.024 158.89 115.024 158.643C115.024 158.395 115.107 158.147 115.272 157.982C115.437 157.817 115.685 157.735 115.932 157.735C116.18 157.735 116.427 157.817 116.592 157.982C116.757 158.147 116.84 158.395 116.84 158.643C116.84 158.89 116.757 159.138 116.592 159.303C116.427 159.468 116.18 159.55 115.932 159.55ZM115.932 158.065C115.767 158.065 115.685 158.147 115.52 158.23C115.437 158.312 115.354 158.477 115.354 158.643C115.354 158.808 115.437 158.89 115.52 159.055C115.602 159.138 115.767 159.22 115.932 159.22C116.097 159.22 116.18 159.138 116.345 159.055C116.427 158.973 116.51 158.808 116.51 158.643C116.51 158.477 116.427 158.395 116.345 158.23C116.262 158.147 116.097 158.065 115.932 158.065Z" fill="black"/>
<path d="M117.418 162.191C117.418 162.603 117.748 162.933 118.161 162.933C118.573 162.933 118.903 162.603 118.903 162.191C118.903 161.778 118.573 161.448 118.161 161.448C117.748 161.448 117.418 161.778 117.418 162.191Z" fill="white"/>
<path d="M118.161 163.098C117.666 163.098 117.253 162.686 117.171 162.191C117.171 161.943 117.253 161.696 117.418 161.531C117.583 161.365 117.831 161.283 118.079 161.283C118.326 161.283 118.574 161.365 118.739 161.531C118.904 161.696 118.986 161.943 118.986 162.191C118.986 162.438 118.904 162.686 118.739 162.851C118.656 163.016 118.409 163.098 118.161 163.098ZM117.583 162.191C117.583 162.356 117.666 162.438 117.748 162.603C117.831 162.686 117.996 162.768 118.161 162.768C118.326 162.768 118.409 162.686 118.574 162.603C118.656 162.521 118.739 162.356 118.739 162.191C118.739 162.026 118.656 161.943 118.574 161.778C118.491 161.696 118.326 161.613 118.161 161.613C117.996 161.613 117.914 161.696 117.748 161.778C117.666 161.861 117.583 162.026 117.583 162.191Z" fill="black"/>
<path d="M132.762 26.785C132.515 26.4549 132.267 26.1248 131.937 25.7948L131.855 25.7123L124.016 30.4981L119.313 25.6298L117.167 23.4844L113.124 19.3587C113.124 19.3587 129.379 -1.59983 144.314 13.5827C162.302 31.7358 145.552 41.72 132.762 26.785Z" fill="#F6CA4F"/>
<path d="M145.634 34.2114C142.086 34.2114 137.301 32.3136 132.68 26.8676C132.432 26.5376 132.185 26.29 131.937 25.96L124.098 30.6633L112.959 19.2764L113.042 19.1113C113.124 19.0288 121.458 8.38452 131.607 7.72441C136.31 7.47687 140.601 9.29217 144.562 13.2528C150.668 19.4414 153.391 25.4649 152.071 29.7556C151.41 31.9835 149.76 33.4687 147.367 33.9638C146.79 34.2114 146.212 34.2114 145.634 34.2114ZM132.02 25.4649L132.185 25.7124C132.432 26.0425 132.68 26.3726 132.927 26.7026C138.291 32.9737 143.819 34.4589 147.202 33.7163C149.43 33.2212 150.998 31.901 151.658 29.8381C152.896 25.7124 150.173 19.854 144.232 13.7479C140.436 9.86977 136.145 8.05446 131.607 8.30201C122.283 8.8796 114.444 18.1212 113.454 19.3589L124.098 30.2507L132.02 25.4649Z" fill="black"/>
<path d="M126.318 17.1035L125.978 17.3372L131.912 25.9742L132.252 25.7405L126.318 17.1035Z" fill="black"/>
<path d="M132.022 25.7951L124.101 30.4984L119.397 25.6301L126.906 18.2864L132.022 25.7951Z" fill="#F299DE"/>
<path d="M124.016 30.746L119.065 25.6301L126.904 17.9563L132.185 25.7126L132.02 25.8776L132.103 25.9601L124.016 30.746ZM119.643 25.6301L124.099 30.2509L131.69 25.7126L126.822 18.6989L119.643 25.6301Z" fill="black"/>
<path d="M48.3485 18.8639C48.6785 18.6163 49.0086 18.3688 49.3386 18.1213C49.3386 18.1213 49.4212 18.1213 49.4212 18.0387L55.9398 24.4748L61.6332 20.8442L64.1911 19.1939L69.0595 16.1409C69.0595 16.1409 58.1676 -8.03565 40.0971 3.18624C18.4784 16.7185 32.4233 30.4158 48.3485 18.8639Z" fill="#F6CA4F"/>
<path d="M55.9405 24.7225L49.4219 18.2864C49.1744 18.5339 48.8443 18.7815 48.5143 19.029C41.7481 23.9798 35.8071 24.0624 32.5066 22.4946C30.2787 21.4219 29.041 19.6066 28.876 17.2962C28.6284 12.8405 32.6716 7.64208 40.0978 3.0213C44.8011 0.0508032 49.5044 -0.691822 53.9602 0.6284C63.6968 3.5989 69.3078 15.8935 69.3903 16.0585L69.4728 16.2235L55.9405 24.7225ZM49.4219 17.7913L55.9405 24.2274L68.8127 16.141C68.1526 14.6558 62.7067 3.84644 53.7126 1.12348C49.3394 -0.196739 44.8011 0.545887 40.1804 3.43387C32.9191 7.97214 28.876 13.0055 29.1235 17.2962C29.206 19.4416 30.4437 21.1744 32.5066 22.082C35.6421 23.5673 41.4181 23.4848 48.1017 18.6164C48.4318 18.3689 48.7618 18.1214 49.0919 17.8738L49.4219 17.7913Z" fill="black"/>
<path d="M56.9638 10.9689L49.1641 17.968L49.4396 18.2751L57.2393 11.276L56.9638 10.9689Z" fill="black"/>
<path d="M49.3408 18.1212C49.3408 18.1212 49.4233 18.1212 49.4233 18.0386L55.9419 24.4747L61.6354 20.8441L56.107 11.9326L49.3408 18.1212Z" fill="#F299DE"/>
<path d="M55.9419 24.7225L49.2583 18.1214L49.3408 18.0389L49.1758 17.8738L56.107 11.6028L61.8829 20.8443L55.9419 24.7225ZM49.6709 18.0389L55.9419 24.2274L61.3879 20.8443L56.107 12.3454L49.6709 18.0389Z" fill="black"/>
<path d="M127.317 56.3252C127.07 59.3782 126.657 62.4312 126.162 65.4017C126.08 65.8968 125.997 66.4744 125.997 66.9695C125.915 68.1247 126.492 68.6198 127.73 68.6198C128.142 68.6198 128.555 68.5373 128.968 68.4548C130.123 68.1247 131.361 67.7946 132.516 67.4646C134.496 66.887 136.476 66.3919 138.457 66.0618C139.859 65.8968 141.18 65.8143 142.5 66.2269C145.553 67.1345 146.956 70.2701 145.47 72.993C145.058 73.7356 144.563 74.3132 143.985 74.8908C143.16 75.716 142.17 76.3761 141.097 76.8712C139.859 77.5313 138.622 78.1914 137.384 78.8515C135.321 79.9242 133.258 80.9969 131.278 82.0695C130.453 82.5646 129.628 82.9772 128.803 83.5548C128.39 83.8023 127.895 84.1324 127.565 84.545C126.74 85.2876 126.327 86.1952 126.327 87.2679C126.327 88.2581 126.41 89.2483 126.657 90.2384C127.317 93.4565 128.555 96.427 130.04 99.315C132.846 104.678 136.559 109.299 141.097 113.425C144.893 116.89 149.184 119.861 153.639 122.501C154.052 122.749 154.464 122.996 154.794 123.244C155.125 123.409 155.372 123.739 155.537 123.987C155.785 124.482 155.867 124.894 155.537 125.389C155.29 125.802 154.96 126.049 154.547 126.297C153.969 126.71 153.392 126.957 152.732 127.205C149.926 128.36 147.038 129.185 144.068 129.68C142.83 129.928 141.51 130.175 140.272 130.423C139.364 130.588 138.539 130.918 137.714 131.248C136.311 131.825 135.486 132.816 135.074 134.218C134.826 134.961 134.661 135.786 134.496 136.529C134.001 138.509 133.176 139.169 131.113 139.334C130.37 139.417 129.71 139.417 128.968 139.417C127.152 139.334 125.337 139.252 123.522 139.252C119.396 139.169 115.353 139.417 111.392 140.407C109.742 140.819 108.092 141.315 106.524 142.057C104.874 142.8 103.223 143.625 101.573 144.368C98.9325 145.605 96.2921 146.76 93.4866 147.586C90.3511 148.493 87.1331 148.906 83.915 148.906C81.1921 148.906 78.4691 148.658 75.7461 148.163C71.703 147.421 67.9073 145.935 64.4417 143.872C62.7915 142.882 61.2237 141.81 59.6559 140.737C58.5007 139.912 57.3455 139.169 56.1903 138.344C53.4674 136.446 50.4144 135.209 47.1963 134.218C44.3083 133.393 41.3379 132.816 38.2848 132.486C36.7171 132.321 35.1493 132.156 33.5815 131.908C32.6739 131.825 31.7662 131.578 30.9411 131.33C29.7034 130.918 29.0433 130.175 28.8783 128.937C28.7957 128.277 28.7132 127.535 28.6307 126.875C28.6307 126.71 28.6307 126.627 28.6307 126.462C28.4657 124.647 27.6406 123.244 25.9903 122.336C24.9176 121.759 23.8449 121.346 22.7722 120.934C20.8744 120.273 18.8941 119.613 16.9962 118.788C15.346 118.046 13.7782 117.22 12.2104 116.313C11.7979 116.065 11.3028 115.735 10.8902 115.405C10.6427 115.158 10.3126 114.91 10.1476 114.663C9.32245 113.672 9.40497 112.847 10.5602 112.105C11.1378 111.775 11.7154 111.527 12.293 111.362C16.5837 109.712 20.6269 107.814 24.505 105.338C29.9509 101.873 34.7367 97.7472 38.6149 92.6313C40.6777 89.9084 42.4105 87.0204 43.6482 83.8023C44.0608 82.8122 44.3084 81.7395 44.4734 80.6668C44.6384 79.5941 44.3084 78.6865 43.6482 77.8613C43.2357 77.3663 42.7406 76.9537 42.328 76.5411C40.9253 75.3859 39.44 74.2307 37.9548 73.158C36.057 71.7553 34.1591 70.3526 32.2613 68.9498C31.3537 68.2072 30.446 67.4646 29.6209 66.6394C29.0433 65.9793 28.5482 65.3192 28.1356 64.5766C27.3105 63.0088 27.393 61.4411 28.2181 59.8733C28.7957 58.8006 29.7034 58.1405 30.8586 57.7279C32.1788 57.3154 33.499 57.3979 34.8192 57.7279C36.387 58.058 37.8723 58.7181 39.275 59.2957C40.7602 59.9558 42.2455 60.6159 43.6482 61.276C44.3084 61.6061 45.051 61.8536 45.7936 62.1012C45.9586 62.1012 46.1236 62.1837 46.2887 62.1837C47.1963 62.2662 47.939 62.0187 48.0215 60.8635C48.104 59.9558 48.104 58.9657 48.104 58.058C48.104 53.0247 48.4341 47.9088 49.0117 42.8754C49.4242 39.6574 50.0018 36.5219 50.992 33.3863C52.3947 29.0956 54.5401 25.3 57.6756 21.9169C63.3691 15.7284 70.6303 12.0152 79.0467 10.4475C83.6675 9.53982 88.2883 9.53982 92.909 10.0349C97.8599 10.53 102.563 11.8502 107.019 13.9131C111.227 15.8934 115.105 18.4513 118.241 21.7519C122.284 25.9601 125.255 30.7459 126.657 36.3568C127.317 38.9148 127.565 41.4727 127.73 44.1131C127.977 48.3214 127.73 52.282 127.317 56.3252Z" fill="white"/>
<path d="M83.6676 149.071C81.0271 149.071 78.3867 148.823 75.8287 148.328C71.7856 147.586 67.9899 146.1 64.4418 144.037C62.7915 143.047 61.1413 141.975 59.656 140.902C58.5008 140.077 57.3456 139.334 56.1904 138.509C53.6325 136.776 50.7445 135.456 47.2789 134.466C44.4735 133.641 41.5029 133.063 38.4499 132.733C37.0472 132.568 35.3969 132.403 33.7467 132.155C32.7565 131.99 31.8488 131.825 31.1062 131.578C29.786 131.165 29.0434 130.258 28.8783 129.02C28.7958 128.525 28.7958 128.03 28.7133 127.452L28.6308 126.957C28.6308 126.875 28.6308 126.792 28.6308 126.71C28.6308 126.627 28.6308 126.627 28.6308 126.544C28.4658 124.729 27.6406 123.409 26.0728 122.584C25.0827 122.006 23.9275 121.594 22.8548 121.181C22.3597 121.016 21.9472 120.851 21.4521 120.686C19.9668 120.191 18.4816 119.696 17.0788 119.036C15.346 118.293 13.7783 117.468 12.293 116.56C11.8805 116.313 11.3854 115.983 10.9728 115.653C10.6428 115.405 10.3952 115.158 10.1477 114.91C9.65259 114.415 9.48755 113.837 9.57007 113.425C9.65258 112.93 9.98265 112.517 10.6428 112.105C11.1378 111.774 11.7154 111.609 12.2105 111.362L12.4581 111.279C16.8313 109.629 20.957 107.649 24.5876 105.338C30.3636 101.708 34.9844 97.5821 38.615 92.7138C40.8428 89.8258 42.4931 86.9378 43.5658 83.9673C43.9784 82.8946 44.2259 81.9045 44.3909 80.9143C44.4735 79.9241 44.2259 79.099 43.5658 78.2738C43.2357 77.8613 42.8232 77.4487 42.2456 76.9536C40.8428 75.7984 39.3576 74.6432 37.8724 73.5705C36.7997 72.8279 35.8095 72.0028 34.7368 71.2602C33.9117 70.6001 33.004 70.0225 32.1789 69.3623C31.1062 68.5372 30.1986 67.7946 29.5384 67.0519C28.8783 66.3918 28.3833 65.6492 28.0532 64.9891C27.2281 63.4213 27.228 61.7711 28.1357 60.1208C28.7133 59.0481 29.7035 58.3055 30.9412 57.8929C32.1789 57.5629 33.4991 57.5629 34.9844 57.8929C36.6346 58.3055 38.2024 58.8831 39.5226 59.4607C40.5128 59.8732 41.4204 60.2858 42.4106 60.7809C42.9057 61.0284 43.4008 61.276 43.9784 61.5235C44.6385 61.8536 45.2986 62.1011 46.0412 62.2661C46.1237 62.2661 46.1237 62.2661 46.2063 62.3487C46.2888 62.3487 46.4538 62.4312 46.5363 62.4312C47.5265 62.5137 47.939 62.1836 48.0216 61.3585C48.1041 60.5334 48.1041 59.6257 48.1041 58.553C48.1041 53.0246 48.4341 48.0738 49.0117 43.3705C49.4243 39.8224 50.0844 36.6868 50.9921 33.8814C52.3948 29.5081 54.6227 25.63 57.7582 22.3294C63.2866 16.3059 70.5479 12.4277 79.2118 10.7775C83.5851 9.95232 88.1233 9.7873 93.1567 10.3649C98.19 10.9425 102.976 12.1802 107.349 14.243C111.805 16.3059 115.6 18.9463 118.653 22.1644C123.027 26.7026 125.832 31.571 127.07 36.8519C127.647 39.2448 127.978 41.8027 128.143 44.6082C128.308 48.8164 127.978 53.0246 127.647 56.6552C127.4 59.5432 126.987 62.5137 126.492 65.7317C126.41 66.3093 126.327 66.8044 126.327 67.2995C126.245 67.7121 126.41 68.1246 126.575 68.2897C126.822 68.5372 127.235 68.7022 127.813 68.7022C128.143 68.7022 128.555 68.6197 129.05 68.5372C130.288 68.2071 131.526 67.8771 132.598 67.6296C134.414 67.1345 136.476 66.5569 138.622 66.2268C139.777 66.0618 141.262 65.8968 142.748 66.3918C144.315 66.8869 145.553 67.8771 146.131 69.2798C146.708 70.6001 146.626 72.0853 145.883 73.4055C145.553 74.0656 145.058 74.7257 144.315 75.3859C143.49 76.1285 142.582 76.7886 141.427 77.4487C140.52 77.9438 139.612 78.4389 138.622 78.934L135.734 80.4192C134.331 81.1618 132.928 81.9045 131.526 82.6471C130.7 83.0597 129.875 83.5547 129.05 84.1323C128.638 84.3799 128.225 84.7099 127.813 85.04C127.07 85.7001 126.657 86.6077 126.657 87.5979C126.657 88.5881 126.74 89.5782 126.987 90.5684C127.647 93.5389 128.72 96.5094 130.37 99.6449C133.011 104.761 136.641 109.382 141.345 113.672C144.975 116.973 149.101 119.943 153.887 122.666C154.299 122.914 154.63 123.161 155.042 123.409C155.372 123.657 155.62 123.904 155.867 124.234C156.197 124.812 156.197 125.307 155.867 125.802C155.537 126.214 155.207 126.544 154.795 126.792C154.217 127.205 153.557 127.452 152.979 127.7C150.421 128.772 147.533 129.598 144.233 130.175C143.078 130.34 141.84 130.588 140.437 130.918C139.529 131.083 138.622 131.413 137.879 131.743C136.559 132.238 135.734 133.228 135.321 134.548C135.239 134.961 135.074 135.373 134.991 135.786C134.909 136.116 134.826 136.446 134.744 136.859C134.166 138.922 133.341 139.582 131.196 139.829C130.535 139.912 129.793 139.912 129.05 139.912C128.143 139.912 127.317 139.829 126.41 139.829C125.502 139.829 124.594 139.747 123.604 139.747C119.149 139.664 115.188 139.994 111.557 140.819C109.907 141.232 108.257 141.727 106.689 142.47C105.121 143.212 103.553 143.955 102.068 144.698L101.821 144.863C99.3452 146.1 96.6222 147.255 93.7342 148.081C90.6812 148.988 87.4632 149.401 84.0801 149.483C83.9151 149.071 83.8326 149.071 83.6676 149.071ZM32.7565 57.7279C32.0964 57.7279 31.5188 57.8104 30.9412 57.9754C29.786 58.3055 28.9608 58.9656 28.3833 59.9558C27.5581 61.441 27.5581 62.9263 28.3007 64.494C28.6308 65.1541 29.1259 65.8142 29.786 66.4744C30.5286 67.217 31.3537 67.9596 32.4264 68.7847C33.2516 69.4449 34.1592 70.0225 34.9844 70.6826C36.057 71.4252 37.0472 72.2503 38.1199 72.993C39.6051 74.1481 41.0904 75.2208 42.4931 76.376C43.0707 76.8711 43.4833 77.2837 43.8959 77.7788C44.6385 78.6864 44.886 79.6766 44.8035 80.7493C44.721 81.7394 44.3909 82.8121 43.9784 83.8848C42.8232 86.8553 41.1729 89.7433 38.945 92.7138C35.2319 97.6646 30.6111 101.79 24.7526 105.421C21.0395 107.731 16.9138 109.794 12.5406 111.444L12.293 111.527C11.798 111.692 11.2203 111.94 10.8078 112.187C10.3127 112.517 9.98264 112.847 9.98264 113.177C9.90012 113.507 10.0652 113.92 10.4777 114.332C10.7253 114.58 10.9728 114.828 11.2203 114.993C11.6329 115.323 12.128 115.653 12.5406 115.9C14.0258 116.808 15.5936 117.633 17.2439 118.376C18.6466 118.953 20.1319 119.531 21.6171 120.026C22.1122 120.191 22.5248 120.356 23.0198 120.521C24.175 120.934 25.2477 121.429 26.3204 121.924C28.0532 122.831 28.9608 124.234 29.1259 126.214C29.1259 126.297 29.1259 126.379 29.1259 126.379C29.1259 126.462 29.1259 126.544 29.1259 126.627L29.2084 127.122C29.2909 127.617 29.2909 128.112 29.3734 128.69C29.5384 129.845 30.116 130.505 31.3538 130.918C32.0964 131.165 33.004 131.33 33.9117 131.495C35.5619 131.743 37.2122 131.908 38.615 132.073C41.668 132.403 44.721 133.063 47.5265 133.888C50.992 134.878 53.9626 136.281 56.5205 138.014C57.6757 138.757 58.8309 139.582 59.9861 140.407C61.4713 141.48 63.0391 142.552 64.6894 143.542C68.2375 145.605 72.0331 147.09 75.9938 147.833C78.7167 148.328 81.4397 148.576 84.1627 148.576C87.4632 148.576 90.6812 148.081 93.7342 147.255C96.6222 146.43 99.2627 145.193 101.738 144.037L101.986 143.872C103.471 143.13 105.039 142.387 106.606 141.645C108.174 140.902 109.824 140.407 111.557 139.994C115.27 139.169 119.231 138.757 123.769 138.839C124.677 138.839 125.667 138.922 126.575 138.922C127.482 138.922 128.308 139.004 129.215 139.004C129.958 139.004 130.7 139.004 131.361 138.922C133.341 138.757 134.001 138.179 134.496 136.281C134.579 135.951 134.661 135.621 134.744 135.291C134.826 134.878 134.909 134.466 135.074 133.971C135.486 132.485 136.394 131.413 137.797 130.918C138.539 130.588 139.447 130.258 140.355 130.093C141.757 129.845 142.995 129.598 144.15 129.35C147.451 128.772 150.256 127.947 152.814 126.875C153.392 126.627 154.052 126.379 154.547 125.967C154.877 125.719 155.207 125.472 155.455 125.059C155.702 124.647 155.702 124.317 155.455 123.904C155.29 123.657 155.042 123.409 154.795 123.244C154.382 122.996 153.969 122.749 153.639 122.501C148.771 119.778 144.645 116.808 141.015 113.425C136.229 109.052 132.598 104.431 129.958 99.2324C128.308 96.0968 127.235 93.1263 126.575 90.0733C126.327 89.0832 126.245 88.0105 126.245 87.0203C126.245 85.8651 126.657 84.9575 127.565 84.2148C127.978 83.8023 128.39 83.4722 128.885 83.2247C129.71 82.7296 130.618 82.2345 131.361 81.7394C132.763 80.9968 134.166 80.2542 135.569 79.5116L138.457 78.0263C139.364 77.5312 140.272 77.0361 141.18 76.541C142.252 75.9635 143.243 75.3033 143.985 74.5607C144.645 73.9831 145.14 73.4055 145.47 72.7454C146.131 71.5077 146.213 70.105 145.636 68.9498C145.14 67.7121 143.985 66.7219 142.582 66.3093C141.427 65.9793 140.19 65.8968 138.622 66.1443C136.559 66.4744 134.496 67.052 132.681 67.547C131.608 67.8771 130.37 68.2071 129.133 68.5372C128.638 68.7022 128.225 68.7022 127.813 68.7022C127.07 68.7022 126.575 68.5372 126.245 68.2071C125.915 67.8771 125.832 67.4645 125.915 66.8869C125.997 66.3918 125.997 65.8968 126.08 65.3192C126.575 62.0186 126.987 59.0481 127.235 56.2426C127.565 52.612 127.895 48.4038 127.73 44.1956C127.565 41.3901 127.235 38.9147 126.657 36.5218C125.337 31.2409 122.614 26.5376 118.323 21.9994C115.27 18.8638 111.557 16.2234 107.102 14.1605C102.811 12.1802 98.025 10.86 93.0741 10.2824C88.0408 9.70478 83.5851 9.86981 79.2118 10.6949C70.5479 12.3452 63.4517 16.1409 57.9232 22.0819C54.8702 25.3824 52.6423 29.1781 51.2396 33.4688C50.3319 36.2743 49.6718 39.3273 49.2593 42.8754C48.6817 47.4962 48.4341 52.5295 48.3516 57.9754C48.3516 59.0481 48.3516 59.9558 48.2691 60.7809C48.1866 62.3487 46.7838 62.2661 46.3713 62.2661C46.2062 62.2661 46.1237 62.1836 45.9587 62.1836C45.8762 62.1836 45.8762 62.1836 45.7937 62.1836C45.0511 62.0186 44.3084 61.6886 43.6483 61.3585C43.1532 61.111 42.6582 60.8634 42.0806 60.6159C41.0904 60.2033 40.1827 59.7082 39.1926 59.2956C37.8724 58.7181 36.3871 58.1405 34.7368 57.7279C34.0767 57.8104 33.4166 57.7279 32.7565 57.7279Z" fill="black"/>
<path d="M92.9924 53.6022C92.7448 55.8301 89.8569 57.3153 86.6388 56.9028C83.4208 56.4902 81.0279 54.3448 81.2754 52.1169C81.523 49.8891 84.4109 48.4038 87.629 48.8164C90.847 49.229 93.3224 51.3743 92.9924 53.6022Z" fill="black"/>
<path d="M87.7117 57.1502C87.3816 57.1502 86.9691 57.1502 86.639 57.0677C83.2559 56.6551 80.7805 54.4273 81.1106 52.0344C81.2756 50.8792 82.0182 49.889 83.3385 49.2289C84.5762 48.5688 86.1439 48.3212 87.7942 48.5688C91.1773 48.9813 93.6527 51.2092 93.3226 53.6021C93.1576 54.7573 92.415 55.7475 91.0948 56.4076C90.1046 56.9027 88.9494 57.1502 87.7117 57.1502ZM86.5565 48.8988C85.4013 48.8988 84.3286 49.1464 83.421 49.6414C82.2658 50.219 81.6057 51.1267 81.4406 52.1169C81.1931 54.2622 83.5035 56.2426 86.639 56.6551C88.2068 56.8202 89.692 56.6551 90.8472 55.995C92.0024 55.4174 92.6625 54.5098 92.8276 53.5196C93.0751 51.3742 90.7647 49.3939 87.6292 48.9813C87.2991 48.9813 86.8866 48.8988 86.5565 48.8988Z" fill="black"/>
<path d="M92.0022 52.1173C92.0022 52.9425 91.4246 53.6026 90.5995 53.6026C89.7744 53.6026 89.1143 53.025 89.1143 52.1998C89.1143 51.3747 89.6918 50.7146 90.517 50.7146C91.3421 50.7146 92.0022 51.2922 92.0022 52.1173Z" fill="white"/>
<path d="M56.9345 64.0817C57.017 66.4746 58.0072 69.0325 59.2449 71.0953C59.905 72.2505 60.7301 73.3232 61.5553 74.3134C69.3116 83.2249 83.0914 85.0402 93.9007 83.6375C94.8084 83.555 95.716 83.3899 96.6237 83.2249C97.3663 83.0599 98.1089 82.8948 98.9341 82.7298C101.079 82.1522 103.225 81.4921 105.288 80.5019C105.865 80.2544 106.443 79.9243 107.103 79.6768C109.578 78.3566 111.889 76.5413 113.457 74.1484C114.282 72.7456 114.859 71.1779 114.859 69.5276C114.942 64.4117 110.899 60.3685 106.03 60.6161C81.1936 61.9363 85.6493 60.3685 66.6711 56.4904C63.8657 55.9128 60.7301 56.5729 58.7498 58.8008C57.3471 60.3685 56.852 62.1838 56.9345 64.0817Z" fill="black"/>
<path d="M87.2997 84.2151C77.9757 84.2151 67.6614 81.6572 61.3904 74.396C60.4827 73.4058 59.7401 72.3331 59.08 71.1779C57.6772 68.785 56.8521 66.3096 56.7696 64.0817C56.6871 61.9364 57.3472 60.121 58.6674 58.6358C60.5652 56.4904 63.6182 55.5828 66.7538 56.2429C71.7046 57.2331 75.0877 58.1407 77.7281 58.8008C85.4019 60.6986 87.7123 61.3588 105.865 60.2861C108.176 60.121 110.404 60.9462 112.136 62.5965C113.952 64.3293 114.942 66.8047 114.942 69.3626C114.942 71.0129 114.447 72.6632 113.539 74.1484C112.136 76.3763 109.991 78.2741 107.103 79.7594C106.525 80.0894 105.865 80.337 105.288 80.667C103.307 81.5747 101.162 82.3173 98.9342 82.8949C98.1916 83.0599 97.4489 83.2249 96.6238 83.39C95.7161 83.555 94.8085 83.72 93.9008 83.8025C91.7555 84.0501 89.5276 84.2151 87.2997 84.2151ZM57.0996 64.0817C57.1822 66.2271 57.9248 68.62 59.3275 70.9304C59.9876 72.0856 60.7302 73.1582 61.6379 74.0659C69.3117 82.9774 83.2565 84.7102 93.7358 83.3075C94.6435 83.2249 95.5511 83.0599 96.4588 82.8949C97.2014 82.7299 98.0265 82.5648 98.7692 82.3998C100.997 81.8222 103.06 81.0796 105.04 80.2544C105.618 80.0069 106.195 79.6768 106.773 79.4293C109.578 77.944 111.641 76.1287 113.044 73.9009C113.952 72.4981 114.364 70.9304 114.447 69.3626C114.447 66.8872 113.457 64.5768 111.806 62.9265C110.156 61.3588 108.093 60.6161 105.865 60.6986C87.6298 61.7713 85.3194 61.1937 77.6456 59.2134C74.9226 58.5533 71.6221 57.6456 66.6713 56.6555C63.6182 55.9954 60.7303 56.903 58.915 58.8833C57.6772 60.2861 57.0171 62.1014 57.0996 64.0817Z" fill="black"/>
<path d="M17.0865 98.8185C20.7996 106.822 28.6384 112.103 36.2297 115.239C45.3887 118.952 54.3002 117.714 63.6243 113.506C73.0309 109.298 77.9817 101.872 83.8402 93.8677C86.7282 89.9896 92.4217 85.4513 97.7851 83.3885C100.838 82.2333 104.881 80.748 105.376 80.5005C104.551 77.53 99.2703 60.1195 86.3156 67.7108C85.9856 67.8758 85.9856 66.9682 84.6653 65.4004C82.85 63.2551 80.0446 62.2649 77.4041 62.2649C74.5161 62.2649 71.7932 63.4201 69.2353 64.5753C66.0997 65.8955 62.8817 67.2157 59.6636 68.2884C56.2806 69.3611 52.8975 70.3513 49.5144 71.0114C47.6991 71.3414 45.8838 71.589 44.151 71.754C36.3947 72.4141 26.163 70.7638 19.8919 76.9524C14.281 82.3983 13.9509 92.0524 17.0865 98.8185Z" fill="#F25A41"/>
<path d="M47.2867 117.632C43.4085 117.632 39.6954 116.889 36.0648 115.404C24.2653 110.536 19.0669 103.77 16.839 98.9013C13.8685 92.4652 13.8685 82.5635 19.6445 76.7876C24.5953 71.9193 31.9391 71.8367 38.4577 71.7542C40.438 71.7542 42.2533 71.6717 43.9861 71.5892C45.7189 71.4242 47.5342 71.1766 49.3495 70.8466C52.5676 70.1865 56.0331 69.3613 59.4987 68.2061C62.5517 67.216 65.7698 65.9783 69.0703 64.493C71.7108 63.3378 74.4337 62.1826 77.3217 62.1001C77.3217 62.1001 77.3217 62.1001 77.4042 62.1001C80.3747 62.1001 83.0152 63.2553 84.748 65.2356C85.4906 66.1433 85.8207 66.8034 86.0682 67.216C86.1507 67.2985 86.1507 67.4635 86.2332 67.546C89.6988 65.4832 92.9168 65.0706 95.8048 66.3083C102.158 68.9488 105.046 78.6029 105.541 80.5007L105.624 80.6657L105.459 80.7482C105.129 80.9133 103.479 81.4909 101.581 82.2335C100.343 82.7286 99.0229 83.2237 97.7852 83.6362C92.7518 85.5341 86.8933 89.9073 83.9228 94.033C83.5103 94.6106 83.0977 95.1882 82.6851 95.7658C77.4042 103.027 72.4534 109.876 63.6244 113.754C57.7659 116.312 52.4025 117.632 47.2867 117.632ZM77.4042 62.5127C74.5163 62.5127 71.7933 63.6679 69.2354 64.8231C65.9348 66.2258 62.7168 67.4635 59.6638 68.5362C56.1982 69.6914 52.7326 70.599 49.5146 71.2591C47.6167 71.5892 45.8014 71.8367 44.0686 72.0018C42.3358 72.1668 40.438 72.1668 38.4577 72.1668C32.0216 72.2493 24.7604 72.3318 19.892 77.1176C14.2811 82.7286 14.2811 92.3827 17.2516 98.7363C19.4795 103.522 24.5953 110.288 36.2298 115.074C44.5637 118.457 53.2277 117.962 63.4594 113.341C72.2059 109.463 76.9092 102.944 82.3551 95.4357C82.7676 94.8581 83.1802 94.2805 83.5928 93.7029C86.6458 89.5772 92.5043 85.1215 97.6202 83.1411C98.8579 82.6461 100.178 82.151 101.416 81.7384C103.066 81.0783 104.551 80.5832 105.046 80.3357C104.469 78.1078 101.581 69.0313 95.5573 66.6384C92.7518 65.4832 89.6988 65.8957 86.3157 67.9586C86.2332 68.0411 86.1507 68.0411 86.0682 67.9586C85.9032 67.8761 85.8207 67.711 85.6556 67.4635C85.4906 67.0509 85.078 66.3908 84.4179 65.5657C82.7676 63.5854 80.2097 62.5127 77.4042 62.5127Z" fill="black"/>
<path d="M38.206 95.1065L37.876 94.7765C43.1569 89.4131 49.0154 84.7098 55.2864 80.6666C64.693 74.6431 75.0897 70.1873 86.0641 67.5469L86.1466 67.9594C75.1723 70.5999 64.858 75.0556 55.4514 81.0792C49.2629 85.1223 43.4044 89.8256 38.206 95.1065Z" fill="black"/>
<path d="M23.6016 76.4587C21.6212 78.1915 20.0535 79.6768 18.8983 82.0697C17.7431 84.2976 17.413 86.5254 17.3305 89.0009C17.248 90.3211 19.3109 90.4861 19.3109 89.1659C19.3934 86.8555 19.6409 84.7926 20.7961 82.7298C21.8688 80.7495 23.2715 79.4292 24.9218 77.944C25.8295 77.1189 24.5917 75.5511 23.6016 76.4587Z" fill="#F79A8B"/>
<path d="M69.9724 104.76C65.9292 107.401 61.721 109.711 57.1827 111.197C55.1199 111.939 52.892 112.434 50.7467 112.847C48.0237 113.342 45.6308 113.177 42.9903 112.599C41.7526 112.352 41.2576 114.25 42.4953 114.58C45.0532 115.157 47.4461 115.405 50.0865 114.992C52.4794 114.662 54.8723 114.085 57.1827 113.342C62.1336 111.774 66.7543 109.299 71.0451 106.493C72.1177 105.751 71.0451 104.018 69.9724 104.76Z" fill="#F79A8B"/>
<path d="M73.7689 102.45C73.6864 102.285 73.6039 102.12 73.5213 102.038L73.2738 101.873C73.1088 101.79 72.9438 101.708 72.7787 101.708H72.6962C72.5312 101.708 72.4487 101.708 72.2836 101.79C72.1186 101.873 72.0361 101.873 71.9536 102.038C71.8711 102.12 71.7886 102.203 71.7886 102.368C71.7061 102.45 71.7061 102.615 71.7061 102.78C71.7061 102.863 71.7061 102.945 71.7886 103.028C71.8711 103.193 71.9536 103.358 72.0361 103.441L72.2836 103.606C72.4487 103.688 72.6137 103.771 72.7787 103.771H72.8612C73.0263 103.771 73.1088 103.771 73.2738 103.688C73.4388 103.606 73.5214 103.606 73.6039 103.441C73.6864 103.358 73.7689 103.276 73.7689 103.111C73.8514 103.028 73.8514 102.863 73.8514 102.698C73.8514 102.615 73.8514 102.533 73.7689 102.45Z" fill="#F79A8B"/>
<path d="M53.1397 29.5082C52.3145 29.2607 50.9943 28.6006 49.5916 27.6929C48.4364 26.8678 47.4462 25.9601 46.6211 24.8874L46.9511 24.6399C47.7763 25.7126 48.6839 26.6202 49.8391 27.3629C51.1594 28.2705 52.4796 28.9306 53.2222 29.1782L53.1397 29.5082Z" fill="black"/>
<path d="M51.1597 33.3042C50.3345 33.2217 48.8493 32.8091 47.364 32.149C46.1263 31.5714 44.9711 30.8288 43.8984 29.9211L44.146 29.5911C45.1362 30.4987 46.2914 31.1588 47.4466 31.7364C48.9318 32.3965 50.3345 32.7266 51.1597 32.8091V33.3042Z" fill="black"/>
<path d="M50.0058 37.7596C49.1807 37.7596 47.6954 37.5946 46.2102 37.2645C44.89 36.9345 43.6523 36.3569 42.4971 35.6142L42.7446 35.2842C43.8998 36.0268 45.055 36.5219 46.3752 36.8519C47.943 37.2645 49.4282 37.347 50.1709 37.347V37.7596C50.1709 37.7596 50.0883 37.7596 50.0058 37.7596Z" fill="black"/>
<path d="M83.0924 42.7098C81.1946 49.1459 75.8312 53.6016 69.6427 54.5918C67.2498 55.0044 64.7744 54.8393 62.2989 54.1792C60.8962 53.7666 59.576 53.1891 58.4208 52.5289C51.9847 48.7333 48.6841 40.977 50.8295 33.4682C52.6448 27.1147 57.8432 22.7414 63.9492 21.5862C66.4246 21.0911 69.0651 21.2562 71.623 21.9988C72.8607 22.3288 74.0159 22.8239 75.0886 23.484C81.8547 27.1147 85.3203 35.036 83.0924 42.7098Z" fill="white"/>
<path d="M67.0028 55.0871C65.435 55.0871 63.8673 54.8396 62.2995 54.427C60.8968 54.0144 59.5766 53.4368 58.3388 52.6942C51.6552 48.7335 48.5197 40.8122 50.6651 33.3859C52.4804 27.1974 57.5137 22.5766 63.9498 21.4214C66.5903 20.9263 69.1482 21.0914 71.7061 21.834C72.9438 22.164 74.099 22.6591 75.2542 23.3192C82.1854 27.1974 85.5685 35.2012 83.3406 42.875C81.5253 49.1461 76.1619 53.9319 69.7258 54.9221C68.8181 55.0046 67.9105 55.0871 67.0028 55.0871ZM67.0028 21.5039C66.0126 21.5039 65.0225 21.5865 64.0323 21.7515C57.8438 22.9067 52.8929 27.3624 51.0776 33.4685C49.0148 40.7297 52.0678 48.486 58.5864 52.2816C59.7416 53.0243 61.0618 53.5193 62.4645 53.9319C64.8574 54.592 67.2504 54.7571 69.7258 54.3445C75.9968 53.3543 81.2777 48.7335 83.0105 42.545C85.1559 35.0362 81.9378 27.1974 75.0892 23.4843C74.0165 22.9067 72.8613 22.4116 71.6236 22.0815C70.0558 21.7515 68.5706 21.5039 67.0028 21.5039Z" fill="black"/>
<path d="M75.1712 30.3332C74.7586 31.9009 73.5209 32.9736 72.6958 34.2938C71.0455 36.8518 72.2832 37.5944 72.4483 40.3999C72.5308 42.2152 72.0357 43.2053 71.0455 44.6906C69.8078 46.4234 69.5603 46.2584 69.8903 48.2387C70.1379 49.3939 70.798 50.5491 70.6329 51.8693C70.5504 52.8595 70.1379 53.7671 69.6428 54.5098C67.2499 54.9223 64.7745 54.7573 62.2991 54.0972C60.8963 53.6846 59.5761 53.107 58.4209 52.4469C58.4209 51.7043 58.6684 51.0442 58.7509 50.6316C59.081 49.3114 60.0712 48.4037 60.7313 47.331C61.7214 45.5157 61.4739 45.5983 60.8138 43.6179C60.3187 41.9676 60.1537 40.8124 60.8963 39.1622C61.969 36.5217 63.3717 36.1092 62.7116 33.2212C62.3816 31.7359 61.5564 30.4157 61.6389 28.8479C61.804 26.8676 62.8766 26.3725 63.6193 24.8047C64.1143 23.8146 63.9493 22.6594 63.9493 21.5042C66.4248 21.0091 69.0652 21.1741 71.6231 21.9168C72.8608 22.2468 74.016 22.7419 75.0887 23.402C74.7587 24.2271 74.4286 25.1348 74.5936 26.0425C74.8412 27.6927 75.6663 28.4354 75.1712 30.3332Z" fill="black"/>
<path d="M67.0023 55.0871C65.4346 55.0871 63.8668 54.8396 62.2991 54.427C60.8963 54.0144 59.5761 53.4368 58.3384 52.6942L58.2559 52.6117V52.5292C58.2559 51.8691 58.4209 51.2915 58.5034 50.8789L58.5859 50.7139C58.8335 49.8062 59.3286 49.1461 59.8236 48.486C60.0712 48.0734 60.3187 47.7434 60.5663 47.4133C61.3914 46.0106 61.3089 45.8456 60.8963 44.6904C60.8138 44.4428 60.7313 44.1953 60.6488 43.8652C60.1537 42.1324 59.9887 40.9772 60.7313 39.2444C61.0613 38.4193 61.4739 37.8417 61.804 37.2641C62.5466 36.1089 62.9592 35.3663 62.5466 33.4685C62.4641 32.9734 62.2991 32.4783 62.134 32.0657C61.804 31.1581 61.4739 30.1679 61.5564 29.0127C61.6389 27.6925 62.2165 26.9499 62.7116 26.2072C62.9592 25.7947 63.2892 25.3821 63.5368 24.887C63.9493 24.0619 63.8668 23.1542 63.8668 22.2466C63.8668 22.0815 63.8668 21.9165 63.8668 21.7515V21.5865H64.0318C66.5898 21.0914 69.2302 21.2564 71.7882 21.999C73.0259 22.3291 74.1811 22.8242 75.3362 23.4843L75.5013 23.5668L75.4188 23.7318C75.0887 24.6395 74.8412 25.4646 74.9237 26.2898C75.0062 26.8674 75.1712 27.2799 75.2537 27.775C75.5013 28.6001 75.8313 29.4253 75.4188 30.7455C75.1712 31.8182 74.5111 32.6433 73.851 33.4685C73.521 33.881 73.1909 34.2936 72.9434 34.7062C71.8707 36.439 72.0357 37.2641 72.3657 38.5843C72.5308 39.1619 72.6958 39.822 72.6958 40.7297C72.8608 42.545 72.2832 43.7002 71.2106 45.1854C71.0455 45.433 70.798 45.6805 70.7155 45.9281C69.9728 46.9182 69.8903 47.0833 70.1379 48.651C70.2204 49.0636 70.3029 49.4762 70.4679 49.8887C70.7155 50.7139 70.963 51.4565 70.8805 52.3642C70.798 53.3543 70.3854 54.3445 69.8078 55.0871L69.7253 55.1696H69.6428C68.8177 55.0046 67.91 55.0871 67.0023 55.0871ZM58.6684 52.3642C59.8236 53.0243 61.0613 53.6019 62.3816 53.9319C64.6919 54.592 67.0849 54.7571 69.4778 54.427C69.9728 53.6844 70.3029 52.8592 70.3854 51.9516C70.4679 51.1264 70.2204 50.3838 69.9728 49.6412C69.8078 49.2286 69.7253 48.8161 69.6428 48.321C69.3127 46.5882 69.4778 46.3406 70.3029 45.268C70.4679 45.1029 70.633 44.8554 70.798 44.5253C71.8707 43.0401 72.2832 42.0499 72.2007 40.3171C72.1182 39.492 71.9532 38.8319 71.8707 38.2543C71.5406 36.9341 71.3756 35.9439 72.5308 34.1286C72.7783 33.716 73.1084 33.2209 73.4384 32.8084C74.0986 31.9832 74.6761 31.2406 74.9237 30.1679C75.2537 28.9302 75.0062 28.2701 74.7586 27.445C74.5936 26.9499 74.4286 26.5373 74.3461 25.8772C74.2636 24.9695 74.5111 24.0619 74.8412 23.3193C73.851 22.7417 72.6958 22.3291 71.5406 21.999C69.0652 21.2564 66.5898 21.1739 64.1144 21.5865C64.1144 21.669 64.1144 21.834 64.1144 21.9165C64.1144 22.9067 64.1969 23.8969 63.7018 24.8045C63.4542 25.3821 63.1242 25.7947 62.7941 26.2072C62.299 26.9499 61.804 27.5275 61.7215 28.7652C61.6389 29.7553 61.969 30.663 62.2991 31.6532C62.4641 32.1482 62.6291 32.6433 62.7941 33.1384C63.2892 35.2013 62.7941 36.1089 62.0515 37.2641C61.7214 37.7592 61.3914 38.4193 61.0614 39.1619C60.4012 40.8122 60.4838 41.8849 60.9788 43.5352C61.0613 43.8652 61.1439 44.1128 61.2264 44.3603C61.6389 45.598 61.7214 45.8456 60.8138 47.4133C60.5663 47.8259 60.3187 48.1559 60.0712 48.5685C59.5761 49.2286 59.081 49.8887 58.916 50.7139L58.8335 50.8789C58.8335 51.2915 58.7509 51.8691 58.6684 52.3642Z" fill="black"/>
<path d="M127.152 38.2544V37.8419C127.977 37.8419 129.463 37.5943 130.948 37.0167C132.186 36.6041 133.341 35.944 134.414 35.1189L134.661 35.449C133.588 36.2741 132.351 36.9342 131.031 37.3468C129.463 37.9244 127.977 38.1719 127.152 38.2544Z" fill="black"/>
<path d="M129.792 42.5455C129.05 42.5455 128.472 42.463 128.06 42.463L128.142 42.0505C128.967 42.133 130.452 42.2155 132.02 41.9679C133.34 41.8029 134.578 41.3903 135.816 40.8127L135.981 41.2253C134.743 41.8029 133.423 42.2155 132.103 42.3805C131.195 42.5455 130.452 42.5455 129.792 42.5455Z" fill="black"/>
<path d="M131.856 47.5788C131.773 47.5788 131.691 47.5788 131.608 47.5788C129.958 47.5788 128.473 47.2487 127.647 47.0012L127.73 46.5886C128.473 46.8362 129.958 47.0837 131.526 47.1662C132.846 47.1662 134.166 47.0012 135.486 46.5886L135.569 47.0012C134.414 47.4138 133.176 47.5788 131.856 47.5788Z" fill="black"/>
<path d="M115.93 58.8835C114.527 59.2961 113.042 59.4611 111.556 59.4611C108.916 59.4611 106.358 58.8835 104.13 57.7283C98.6018 55.0053 94.8061 49.3119 94.7236 42.7108C94.7236 34.7894 100.17 28.1058 107.596 26.2905C108.834 25.9604 110.071 25.8779 111.391 25.7954C114.197 25.7954 116.837 26.4555 119.148 27.6932C124.511 30.4987 128.224 36.0271 128.224 42.5457C128.307 50.3846 123.026 56.9032 115.93 58.8835Z" fill="white"/>
<path d="M111.474 59.7084C108.834 59.7084 106.359 59.1308 103.966 57.9756C98.1072 55.0876 94.4766 49.3116 94.4766 42.793C94.4766 34.8717 99.84 28.023 107.514 26.2077C108.751 25.8777 110.072 25.7126 111.392 25.7126C114.115 25.7126 116.838 26.3728 119.231 27.6105C124.842 30.4985 128.39 36.2744 128.39 42.628C128.39 50.3018 123.274 57.0679 115.93 59.0483C114.527 59.4608 113.042 59.7084 111.474 59.7084ZM111.474 26.1252C110.154 26.1252 108.834 26.2902 107.596 26.5378C100.088 28.3531 94.8066 34.9542 94.8891 42.7105C94.8891 49.0641 98.4372 54.7575 104.131 57.4805C106.441 58.6357 108.916 59.1308 111.474 59.1308C112.96 59.1308 114.362 58.9658 115.765 58.5532C122.944 56.5729 127.977 49.9717 127.895 42.5455C127.895 36.3569 124.429 30.746 118.901 27.858C116.755 26.7853 114.115 26.1252 111.474 26.1252Z" fill="black"/>
<path d="M116.922 40.6477C115.52 43.2056 116.675 44.0307 117.005 46.8362C117.253 48.6515 116.757 49.7242 115.85 51.2095C114.777 52.9423 114.447 52.7772 114.942 54.7576C115.19 55.9953 115.932 57.1505 115.932 58.4707C115.932 58.5532 115.932 58.7182 115.932 58.8833C114.53 59.2958 113.044 59.4609 111.559 59.4609C108.919 59.4609 106.361 58.8833 104.133 57.7281C104.133 57.3155 104.133 56.8204 104.215 56.4078C104.463 55.0876 105.453 54.18 105.948 53.1073C106.856 51.292 106.526 51.3745 105.866 49.3942C105.288 47.6614 105.04 46.5062 105.701 44.8559C106.608 42.2154 107.928 41.8854 107.103 38.9149C106.691 37.4296 105.783 36.0269 105.783 34.4591C105.783 32.4788 106.856 31.9837 107.516 30.416C108.011 29.1782 107.598 27.693 107.681 26.3728C108.919 26.0427 110.156 25.9602 111.477 25.8777C114.282 25.8777 116.922 26.5378 119.233 27.7755C119.068 29.2608 118.16 30.746 118.408 32.2313C118.738 33.8815 119.645 34.7067 119.233 36.6045C118.82 38.2548 117.665 39.3275 116.922 40.6477Z" fill="black"/>
<path d="M111.476 59.7081C108.836 59.7081 106.36 59.1305 103.967 57.9753L103.885 57.8928V57.8103C103.885 57.3152 103.885 56.9027 103.967 56.4901C104.132 55.5824 104.627 54.9223 105.04 54.1797C105.287 53.7671 105.535 53.4371 105.7 53.107C106.36 51.7043 106.36 51.5393 105.865 50.3841C105.783 50.1365 105.7 49.889 105.535 49.5589C104.875 47.8261 104.71 46.5884 105.37 44.8556C105.7 44.0305 106.03 43.4529 106.278 42.8753C106.938 41.7201 107.35 40.9775 106.773 38.9971C106.608 38.5021 106.443 38.007 106.278 37.5119C105.865 36.5217 105.535 35.5316 105.535 34.4589C105.535 33.0561 106.03 32.396 106.525 31.6534C106.773 31.2408 107.02 30.9108 107.268 30.3332C107.598 29.508 107.515 28.6004 107.433 27.6927C107.433 27.2802 107.35 26.8676 107.35 26.455V26.29H107.515C108.753 25.9599 110.073 25.7949 111.394 25.7949C114.116 25.7949 116.839 26.455 119.232 27.6927L119.315 27.7753V27.9403C119.232 28.5179 119.067 29.178 118.902 29.7556C118.655 30.5807 118.325 31.4884 118.49 32.396C118.572 32.9736 118.737 33.3862 118.902 33.8813C119.232 34.7064 119.562 35.5316 119.232 36.8518C118.985 37.9245 118.407 38.7496 117.83 39.5747C117.582 39.9873 117.252 40.3999 117.004 40.8125C116.014 42.5452 116.262 43.3704 116.674 44.6906C116.839 45.2682 117.004 46.0108 117.17 46.836C117.417 48.7338 116.922 49.8065 115.932 51.2917C115.767 51.5393 115.602 51.7868 115.437 52.0343C114.777 53.0245 114.694 53.1895 115.024 54.7573C115.107 55.1699 115.272 55.5824 115.437 55.995C115.767 56.8202 116.014 57.6453 116.014 58.5529V59.1305H115.849C114.529 59.4606 113.044 59.7081 111.476 59.7081ZM104.297 57.6453C106.608 58.718 109.001 59.2956 111.559 59.2956C112.961 59.2956 114.364 59.1305 115.767 58.718V58.4704C115.767 57.6453 115.519 56.9027 115.189 56.0775C115.024 55.665 114.859 55.1699 114.777 54.7573C114.364 53.0245 114.529 52.777 115.272 51.7043C115.437 51.5393 115.602 51.2917 115.767 50.9617C116.674 49.4764 117.087 48.4862 116.922 46.7535C116.839 45.9283 116.592 45.1857 116.427 44.6081C116.014 43.2879 115.767 42.2977 116.839 40.3999C117.087 39.9873 117.417 39.4922 117.665 39.0797C118.242 38.2545 118.82 37.5119 118.985 36.4392C119.232 35.2015 118.985 34.5414 118.655 33.6337C118.49 33.1387 118.325 32.7261 118.16 32.066C117.995 31.0758 118.242 30.1682 118.572 29.178C118.737 28.6004 118.902 28.1053 118.985 27.6102C116.674 26.455 114.034 25.7949 111.476 25.7949C110.238 25.7949 109.001 25.9599 107.845 26.2075C107.845 26.5375 107.845 26.8676 107.928 27.2802C108.01 28.2703 108.093 29.2605 107.68 30.1682C107.433 30.7458 107.185 31.1583 106.855 31.5709C106.36 32.3135 105.948 32.8911 105.948 34.1288C105.948 35.119 106.278 36.1092 106.69 37.0168C106.855 37.5119 107.103 38.007 107.268 38.5021C107.845 40.6474 107.433 41.4726 106.773 42.6278C106.525 43.1228 106.195 43.7004 105.865 44.5256C105.287 46.1759 105.453 47.2485 106.03 48.8988C106.113 49.2289 106.278 49.4764 106.36 49.724C106.855 50.9617 106.938 51.2917 106.195 52.777C106.03 53.1895 105.783 53.5196 105.535 53.9322C105.122 54.5923 104.627 55.2524 104.545 56.0775C104.297 56.9027 104.297 57.2327 104.297 57.6453Z" fill="black"/>
</svg>
