<svg width="194" height="50" viewBox="0 0 194 50" fill="none" xmlns="http://www.w3.org/2000/svg">
<path d="M55.8523 25.588V22.5454H70.1875V25.588H64.8438V40H61.196V25.588H55.8523Z" fill="#F5F7F7"/>
<path d="M71.1208 40V26.909H74.6406V29.1931H74.777C75.0156 28.3806 75.4162 27.767 75.9787 27.3522C76.5412 26.9318 77.1889 26.7215 77.9219 26.7215C78.1037 26.7215 78.2997 26.7329 78.51 26.7556C78.7202 26.7784 78.9049 26.8096 79.0639 26.8494V30.071C78.8935 30.0198 78.6577 29.9744 78.3566 29.9346C78.0554 29.8948 77.7799 29.875 77.5299 29.875C76.9958 29.875 76.5185 29.9914 76.098 30.2244C75.6833 30.4517 75.3537 30.7698 75.1094 31.1789C74.8708 31.588 74.7514 32.0596 74.7514 32.5937V40H71.1208Z" fill="#F5F7F7"/>
<path d="M84.299 40.2471C83.4638 40.2471 82.7195 40.1022 82.0661 39.8125C81.4127 39.517 80.8956 39.0823 80.5149 38.5085C80.1399 37.9289 79.9524 37.2073 79.9524 36.3437C79.9524 35.6164 80.086 35.0056 80.353 34.5113C80.6201 34.017 80.9837 33.6193 81.4439 33.3181C81.9041 33.017 82.4269 32.7897 83.0121 32.6363C83.603 32.4829 84.2223 32.375 84.8701 32.3125C85.6314 32.2329 86.2451 32.159 86.711 32.0909C87.1769 32.017 87.5149 31.909 87.7252 31.767C87.9354 31.625 88.0405 31.4147 88.0405 31.1363V31.0852C88.0405 30.5454 87.8701 30.1278 87.5291 29.8323C87.1939 29.5369 86.7166 29.3892 86.0973 29.3892C85.4439 29.3892 84.924 29.534 84.5377 29.8238C84.1513 30.1079 83.8956 30.4659 83.7706 30.8977L80.4127 30.625C80.5831 29.8295 80.9183 29.142 81.4183 28.5625C81.9183 27.9772 82.5632 27.5284 83.353 27.2159C84.1485 26.8977 85.0689 26.7386 86.1144 26.7386C86.8416 26.7386 87.5377 26.8238 88.2024 26.9943C88.8729 27.1647 89.4666 27.4289 89.9837 27.7869C90.5064 28.1448 90.9183 28.6051 91.2195 29.1676C91.5206 29.7244 91.6712 30.392 91.6712 31.1704V40H88.228V38.1846H88.1257C87.9155 38.5937 87.6343 38.9545 87.282 39.267C86.9297 39.5738 86.5064 39.8153 86.0121 39.9914C85.5178 40.1619 84.9468 40.2471 84.299 40.2471ZM85.3388 37.7414C85.8729 37.7414 86.3445 37.6363 86.7536 37.4261C87.1627 37.2102 87.4837 36.9204 87.7166 36.5568C87.9496 36.1931 88.0661 35.7812 88.0661 35.321V33.9318C87.9524 34.0056 87.7962 34.0738 87.5973 34.1363C87.4041 34.1931 87.1854 34.2471 86.9411 34.2983C86.6968 34.3437 86.4524 34.3863 86.2081 34.4261C85.9638 34.4602 85.7422 34.4914 85.5433 34.5198C85.1172 34.5823 84.7451 34.6818 84.4269 34.8181C84.1087 34.9545 83.8615 35.1392 83.6854 35.3721C83.5093 35.5994 83.4212 35.8835 83.4212 36.2244C83.4212 36.7187 83.6002 37.0965 83.9581 37.3579C84.3218 37.6136 84.782 37.7414 85.3388 37.7414Z" fill="#F5F7F7"/>
<path d="M100.403 40.2556C99.0618 40.2556 97.9084 39.9715 96.9425 39.4034C95.9823 38.8295 95.2436 38.034 94.7266 37.017C94.2152 36 93.9595 34.8295 93.9595 33.5056C93.9595 32.1647 94.2181 30.9886 94.7351 29.9772C95.2578 28.9602 95.9993 28.1676 96.9595 27.5994C97.9198 27.0255 99.0618 26.7386 100.386 26.7386C101.528 26.7386 102.528 26.946 103.386 27.3608C104.244 27.7755 104.923 28.3579 105.423 29.1079C105.923 29.8579 106.198 30.7386 106.249 31.75H102.823C102.727 31.0965 102.471 30.571 102.056 30.1733C101.647 29.7698 101.11 29.5681 100.445 29.5681C99.8828 29.5681 99.3914 29.7215 98.9709 30.0284C98.5561 30.3295 98.2323 30.7698 97.9993 31.3494C97.7664 31.9289 97.6499 32.6306 97.6499 33.4545C97.6499 34.2897 97.7635 35 97.9908 35.5852C98.2237 36.1704 98.5504 36.6164 98.9709 36.9233C99.3914 37.2301 99.8828 37.3835 100.445 37.3835C100.86 37.3835 101.232 37.2983 101.562 37.1278C101.897 36.9573 102.173 36.7102 102.389 36.3863C102.61 36.0568 102.755 35.6619 102.823 35.2017H106.249C106.192 36.2017 105.92 37.0823 105.431 37.8437C104.948 38.5994 104.281 39.1903 103.428 39.6164C102.576 40.0426 101.567 40.2556 100.403 40.2556Z" fill="#F5F7F7"/>
<path d="M111.864 36.2329L111.872 31.8778H112.401L116.594 26.909H120.761L115.128 33.4886H114.267L111.864 36.2329ZM108.574 40V22.5454H112.205V40H108.574ZM116.756 40L112.903 34.2983L115.324 31.7329L121.009 40H116.756Z" fill="#F5F7F7"/>
<path d="M122.611 22.5454H127.162L131.969 34.2727H132.173L136.98 22.5454H141.531V40H137.952V28.6392H137.807L133.29 39.9147H130.852L126.335 28.5965H126.19V40H122.611V22.5454Z" fill="#F5F7F7"/>
<path d="M148.237 40.2471C147.401 40.2471 146.657 40.1022 146.004 39.8125C145.35 39.517 144.833 39.0823 144.452 38.5085C144.077 37.9289 143.89 37.2073 143.89 36.3437C143.89 35.6164 144.023 35.0056 144.291 34.5113C144.558 34.017 144.921 33.6193 145.381 33.3181C145.842 33.017 146.364 32.7897 146.95 32.6363C147.541 32.4829 148.16 32.375 148.808 32.3125C149.569 32.2329 150.183 32.159 150.648 32.0909C151.114 32.017 151.452 31.909 151.663 31.767C151.873 31.625 151.978 31.4147 151.978 31.1363V31.0852C151.978 30.5454 151.808 30.1278 151.467 29.8323C151.131 29.5369 150.654 29.3892 150.035 29.3892C149.381 29.3892 148.862 29.534 148.475 29.8238C148.089 30.1079 147.833 30.4659 147.708 30.8977L144.35 30.625C144.521 29.8295 144.856 29.142 145.356 28.5625C145.856 27.9772 146.501 27.5284 147.291 27.2159C148.086 26.8977 149.006 26.7386 150.052 26.7386C150.779 26.7386 151.475 26.8238 152.14 26.9943C152.81 27.1647 153.404 27.4289 153.921 27.7869C154.444 28.1448 154.856 28.6051 155.157 29.1676C155.458 29.7244 155.609 30.392 155.609 31.1704V40H152.166V38.1846H152.063C151.853 38.5937 151.572 38.9545 151.219 39.267C150.867 39.5738 150.444 39.8153 149.95 39.9914C149.455 40.1619 148.884 40.2471 148.237 40.2471ZM149.276 37.7414C149.81 37.7414 150.282 37.6363 150.691 37.4261C151.1 37.2102 151.421 36.9204 151.654 36.5568C151.887 36.1931 152.004 35.7812 152.004 35.321V33.9318C151.89 34.0056 151.734 34.0738 151.535 34.1363C151.342 34.1931 151.123 34.2471 150.879 34.2983C150.634 34.3437 150.39 34.3863 150.146 34.4261C149.901 34.4602 149.68 34.4914 149.481 34.5198C149.055 34.5823 148.683 34.6818 148.364 34.8181C148.046 34.9545 147.799 35.1392 147.623 35.3721C147.447 35.5994 147.359 35.8835 147.359 36.2244C147.359 36.7187 147.538 37.0965 147.896 37.3579C148.259 37.6136 148.719 37.7414 149.276 37.7414Z" fill="#F5F7F7"/>
<path d="M165.389 26.909V29.6363H157.505V26.909H165.389ZM159.295 23.7727H162.925V35.9772C162.925 36.3125 162.977 36.5738 163.079 36.7613C163.181 36.9431 163.323 37.071 163.505 37.1448C163.692 37.2187 163.908 37.2556 164.153 37.2556C164.323 37.2556 164.494 37.2414 164.664 37.213C164.835 37.1789 164.965 37.1534 165.056 37.1363L165.627 39.838C165.445 39.8948 165.19 39.9602 164.86 40.034C164.531 40.1136 164.13 40.1619 163.658 40.1789C162.783 40.213 162.016 40.0965 161.357 39.8295C160.704 39.5625 160.195 39.1477 159.832 38.5852C159.468 38.0227 159.289 37.3125 159.295 36.4545V23.7727Z" fill="#F5F7F7"/>
<path d="M173.579 40.2556C172.232 40.2556 171.073 39.9829 170.102 39.4375C169.136 38.8863 168.391 38.1079 167.869 37.1022C167.346 36.0909 167.085 34.8948 167.085 33.5142C167.085 32.1676 167.346 30.9858 167.869 29.9687C168.391 28.9517 169.127 28.159 170.076 27.5909C171.031 27.0227 172.15 26.7386 173.434 26.7386C174.298 26.7386 175.102 26.8778 175.846 27.1562C176.596 27.4289 177.249 27.8409 177.806 28.392C178.369 28.9431 178.806 29.6363 179.119 30.4715C179.431 31.3011 179.587 32.2727 179.587 33.3863V34.3835H168.533V32.1335H176.17C176.17 31.6108 176.056 31.1477 175.829 30.7443C175.602 30.3409 175.286 30.0255 174.883 29.7983C174.485 29.5653 174.022 29.4488 173.494 29.4488C172.942 29.4488 172.454 29.5767 172.028 29.8323C171.607 30.0823 171.278 30.4204 171.039 30.8465C170.8 31.267 170.678 31.7358 170.673 32.2528V34.392C170.673 35.0397 170.792 35.5994 171.031 36.071C171.275 36.5426 171.619 36.9062 172.062 37.1619C172.505 37.4176 173.031 37.5454 173.639 37.5454C174.042 37.5454 174.411 37.4886 174.746 37.375C175.082 37.2613 175.369 37.0909 175.607 36.8636C175.846 36.6363 176.028 36.3579 176.153 36.0284L179.511 36.25C179.34 37.0568 178.991 37.7613 178.462 38.3636C177.94 38.9602 177.264 39.4261 176.434 39.7613C175.61 40.0909 174.658 40.2556 173.579 40.2556Z" fill="#F5F7F7"/>
<path d="M192.849 30.642L189.525 30.8465C189.468 30.5625 189.346 30.3068 189.158 30.0795C188.971 29.8465 188.724 29.6619 188.417 29.5255C188.116 29.3835 187.755 29.3125 187.335 29.3125C186.772 29.3125 186.298 29.4318 185.911 29.6704C185.525 29.9034 185.332 30.2159 185.332 30.6079C185.332 30.9204 185.457 31.1846 185.707 31.4005C185.957 31.6164 186.386 31.7897 186.994 31.9204L189.363 32.3977C190.636 32.659 191.585 33.0795 192.21 33.659C192.835 34.2386 193.147 35 193.147 35.9431C193.147 36.8011 192.894 37.5539 192.389 38.2017C191.889 38.8494 191.201 39.3551 190.326 39.7187C189.457 40.0767 188.454 40.2556 187.317 40.2556C185.585 40.2556 184.204 39.8948 183.175 39.1733C182.153 38.446 181.553 37.4573 181.377 36.2073L184.948 36.0198C185.056 36.5483 185.317 36.9517 185.732 37.2301C186.147 37.5028 186.678 37.6392 187.326 37.6392C187.962 37.6392 188.474 37.517 188.86 37.2727C189.252 37.0227 189.451 36.7017 189.457 36.3096C189.451 35.9801 189.312 35.7102 189.039 35.5C188.766 35.284 188.346 35.1193 187.778 35.0056L185.511 34.5539C184.232 34.2983 183.281 33.8551 182.656 33.2244C182.036 32.5937 181.727 31.7897 181.727 30.8125C181.727 29.9715 181.954 29.2471 182.408 28.6392C182.869 28.0312 183.514 27.5625 184.343 27.2329C185.178 26.9034 186.156 26.7386 187.275 26.7386C188.928 26.7386 190.229 27.088 191.178 27.7869C192.133 28.4858 192.69 29.4375 192.849 30.642Z" fill="#F5F7F7"/>
<circle cx="21.5122" cy="28.4878" r="21.5122" fill="#F76519"/>
<circle cx="21.1138" cy="28.4879" r="17.5285" fill="#043730"/>
<circle cx="21.1139" cy="28.4879" r="13.1463" fill="#F76519"/>
<circle cx="21.1138" cy="28.4879" r="8.76423" fill="#043730"/>
<circle cx="21.1138" cy="28.4878" r="4.5813" fill="#D9D9D9"/>
<path d="M19 30L20.5 25.5L24 29.5L19 30Z" fill="#043730" stroke="#043730" stroke-width="0.199187" stroke-linejoin="round"/>
<path d="M42.8252 6.37805L42.626 12.2541L49.6971 6.67683V1L42.8252 6.37805Z" fill="#043730" stroke="#043730" stroke-width="0.199187" stroke-linejoin="round"/>
<path d="M48.3845 13.4413L42.626 12.2556L49.7073 6.69129L55.2255 8.02392L48.3845 13.4413Z" fill="#043730" stroke="#043730" stroke-width="0.199187" stroke-linejoin="round"/>
<path d="M21.7114 27.8902L49.3984 6.77637" stroke="#043730" stroke-width="1.39431"/>
<mask id="mask0_550_4239" style="mask-type:alpha" maskUnits="userSpaceOnUse" x="21" y="0" width="35" height="29">
<path d="M42.8252 6.37805L42.626 12.2541L49.6971 6.67683V1L42.8252 6.37805Z" fill="#043730" stroke="#043730" stroke-width="0.199187" stroke-linejoin="round"/>
<path d="M48.3845 13.4413L42.626 12.2556L49.7073 6.69129L55.2255 8.02392L48.3845 13.4413Z" fill="#043730" stroke="#043730" stroke-width="0.199187" stroke-linejoin="round"/>
<path d="M21.7114 27.8902L49.3984 6.77637" stroke="#043730" stroke-width="1.39431"/>
</mask>
<g mask="url(#mask0_550_4239)">
<path fill-rule="evenodd" clip-rule="evenodd" d="M22.5 75C48.1812 75 69 54.1812 69 28.5C69 2.81876 48.1812 -18 22.5 -18C-3.18124 -18 -24 2.81876 -24 28.5C-24 54.1812 -3.18124 75 22.5 75ZM21.5 50C33.3741 50 43 40.3741 43 28.5C43 16.6259 33.3741 7 21.5 7C9.62588 7 0 16.6259 0 28.5C0 40.3741 9.62588 50 21.5 50Z" fill="#D9D9D9"/>
</g>
</svg>
