<svg width="285" height="286" viewBox="0 0 285 286" fill="none" xmlns="http://www.w3.org/2000/svg">
<g clip-path="url(#clip0_1_945)">
<path d="M247.978 -0.0022413L228.176 17.0686L231.496 20.9181L251.298 3.84727L247.978 -0.0022413Z" fill="#F76519"/>
<path d="M277.247 64.2855L253.183 65.2029L253.377 70.2825L277.44 69.3651L277.247 64.2855Z" fill="#F76519"/>
<path d="M268.409 28.1415L243.321 40.6788L245.594 45.2258L270.683 32.6884L268.409 28.1415Z" fill="#F76519"/>
<path d="M182.923 192.827C191.471 211.931 196.5 232.152 195.326 253.937C194.879 262.092 207.506 261.701 207.953 253.658C209.183 230.867 203.763 207.462 194.879 187.241L182.923 192.827Z" fill="black" stroke="black" stroke-miterlimit="10"/>
<path d="M213.932 239.469L183.817 249.021L194.097 285.665L250.583 269.186C250.583 269.186 247.007 246.563 218.792 257.624L213.932 239.469Z" fill="#A986FC" stroke="black" stroke-miterlimit="10"/>
<path d="M246.169 267.678C246.169 267.734 246.169 267.734 246.169 267.678C245.722 267.79 245.22 267.566 245.108 267.12C244.996 266.729 242.482 258.126 232.704 259.132C232.257 259.188 231.81 258.852 231.755 258.35C231.699 257.903 232.034 257.456 232.537 257.4C243.767 256.227 246.728 266.505 246.784 266.617C246.896 267.12 246.616 267.566 246.169 267.678Z" fill="white"/>
<path d="M111.631 197.686C115.598 216.846 116.157 236.453 111.128 256.283C109.117 264.159 121.576 266.282 123.532 258.461C128.728 238.017 128.281 217.628 124.426 197.631C120.179 197.686 115.877 197.742 111.631 197.686Z" fill="black" stroke="black" stroke-miterlimit="10"/>
<path d="M133.365 246.228L101.854 247.122L101.63 285.218L160.463 284.939C160.463 284.939 163.256 262.26 133.086 265.109L133.365 246.228Z" fill="#A986FC" stroke="black" stroke-miterlimit="10"/>
<path d="M156.943 283.487C156.44 283.487 156.105 283.096 156.105 282.649C156.105 282.258 156.049 273.264 146.383 271.533C145.936 271.477 145.601 271.03 145.713 270.527C145.768 270.08 146.215 269.745 146.718 269.857C157.837 271.868 157.837 282.537 157.837 282.649C157.781 283.151 157.39 283.487 156.943 283.487Z" fill="white"/>
<path d="M49.111 52.7313L218.457 36.4762L236.113 193.162L68.1631 210.087L49.111 52.7313Z" fill="#38990C" stroke="black" stroke-miterlimit="10"/>
<path d="M61.5703 62.1156L208.344 48.0391L223.653 183.833L78.0524 198.524L61.5703 62.1156Z" stroke="black" stroke-miterlimit="10"/>
<path d="M107.385 131.437L120.179 164.115L173.201 86.9172L180.8 91.6653L124.426 178.806H113.531L98.5571 134.733L107.385 131.437Z" fill="#FFD800" stroke="black" stroke-miterlimit="10"/>
<path d="M139.231 74.0696C131.745 74.9633 126.213 71.7794 119.285 72.5055C115.43 72.8965 111.743 74.0696 111.966 78.3149C112.357 86.1352 118.783 91.0508 126.269 93.7321C135.991 97.2512 147.109 96.8602 155.825 91.5536C166.329 85.1297 170.519 76.5833 168.676 72.0587C167.055 68.0926 163.871 67.534 160.016 67.9809C153.143 68.8188 146.048 73.2876 139.231 74.0696Z" fill="white" stroke="black" stroke-miterlimit="10"/>
<path d="M156.831 68.4836C159.848 74.6282 161.468 81.6665 160.183 88.4813" stroke="black" stroke-miterlimit="10"/>
<path d="M143.701 73.3993C144.707 75.9688 145.768 79.3204 146.327 83.3981C146.942 88.0903 146.606 92.1122 146.16 95.0169" stroke="black" stroke-miterlimit="10"/>
<path d="M128.169 73.12C129.119 75.7454 130.18 79.5438 130.46 84.0684C130.683 88.202 130.124 92.1122 129.566 94.6817" stroke="black" stroke-miterlimit="10"/>
<path d="M121.073 43.9614C121.185 44.4083 121.688 47.0896 121.8 48.0392C123.085 60.7751 115.933 72.729 104.479 77.7564C102.524 78.5943 100.457 79.2646 98.3336 79.7114C82.4661 82.8396 67.0456 72.5056 63.9727 56.6415C60.8439 40.7775 71.1801 25.3603 87.0476 22.288C88.2768 22.0646 89.5618 21.897 90.791 21.7853C99.9539 21.1708 108.614 24.9134 114.48 31.4489C114.648 31.6724 114.872 31.8958 115.039 32.0634C117.833 35.3591 120.012 39.4368 121.073 43.9614Z" fill="white" stroke="black" stroke-miterlimit="10"/>
<path d="M121.017 43.9614C123.252 53.5133 120.57 64.1266 113.642 71.2766C112.916 72.0028 112.134 72.729 111.352 73.3993C109.229 75.1309 106.938 76.5833 104.424 77.7005C101.295 75.6337 103.921 71.5559 101.462 69.0981C99.3952 67.0313 96.5457 66.752 95.9311 63.6798C95.4283 61.2219 97.3838 58.7641 98.0543 56.3063C99.451 51.4466 95.9311 51.4466 92.8582 47.8157C90.8469 45.5255 91.0703 43.6821 92.1878 40.7774C93.4728 37.4259 94.255 37.37 91.5173 35.0239C89.897 33.5716 87.1035 32.5661 86.1537 30.6669C84.8127 27.9856 86.0419 24.5223 89.2266 22.5673C89.7294 22.288 90.2323 21.9528 90.7351 21.7294C99.898 21.1149 108.558 24.8575 114.425 31.393C114.536 31.6165 114.76 31.8399 114.983 32.0075C116.157 32.9012 117.106 34.7446 117.833 35.9735C119.341 38.4872 120.403 41.1684 121.017 43.9614Z" fill="black" stroke="black" stroke-miterlimit="10"/>
<path d="M106.491 12.0657L102.077 23.6844" stroke="black" stroke-miterlimit="10"/>
<path d="M80.7341 11.954L84.3658 22.7907" stroke="black" stroke-miterlimit="10"/>
<path d="M59.8941 25.9188L69.2805 33.7391" stroke="black" stroke-miterlimit="10"/>
<path d="M206.054 34.5212C206.165 34.968 206.501 37.7051 206.557 38.5989C207.171 51.3907 199.405 62.9536 187.728 67.3665C185.717 68.1485 183.649 68.6512 181.47 68.9864C165.435 71.2766 150.629 60.2165 148.283 44.1848C145.992 28.1532 157.054 13.3505 173.09 11.0044C174.375 10.8368 175.604 10.7251 176.833 10.7251C185.996 10.5575 194.488 14.7469 200.02 21.5618C200.187 21.7852 200.355 22.0087 200.578 22.2321C203.26 25.7512 205.16 29.8848 206.054 34.5212Z" fill="white" stroke="black" stroke-miterlimit="10"/>
<path d="M205.998 34.5212C207.73 44.1848 204.545 54.6305 197.226 61.4454C196.444 62.1715 195.662 62.8419 194.824 63.4563C192.645 65.0762 190.242 66.4169 187.672 67.3665C184.655 65.1321 187.504 61.2219 185.158 58.5965C183.202 56.418 180.409 55.9712 179.962 52.8989C179.571 50.4411 181.638 48.0391 182.476 45.6372C184.096 40.8333 180.632 40.6657 177.671 36.8672C175.771 34.4653 176.107 32.6219 177.336 29.829C178.788 26.5891 179.571 26.5333 176.945 24.0196C175.38 22.5114 172.698 21.3383 171.805 19.4391C170.575 16.6462 172.028 13.2946 175.324 11.5071C175.827 11.2278 176.33 10.9485 176.833 10.7251C185.996 10.5575 194.488 14.7469 200.02 21.5618C200.131 21.7852 200.299 22.0087 200.578 22.2321C201.696 23.1817 202.534 25.0809 203.204 26.3657C204.545 28.9352 205.495 31.6723 205.998 34.5212Z" fill="black" stroke="black" stroke-miterlimit="10"/>
<path d="M193.092 1.89929L188.063 13.2387" stroke="black" stroke-miterlimit="10"/>
<path d="M167.391 0.502808L170.464 11.5071" stroke="black" stroke-miterlimit="10"/>
<path d="M145.824 13.3505L154.82 21.6735" stroke="black" stroke-miterlimit="10"/>
<path d="M141.235 65.1202C145.788 63.2129 147.933 57.9762 146.025 53.4237C144.118 48.8712 138.88 46.7268 134.326 48.6341C129.773 50.5414 127.628 55.7781 129.536 60.3306C131.443 64.8831 136.681 67.0275 141.235 65.1202Z" fill="#FF9ED7" stroke="black" stroke-miterlimit="10"/>
<path d="M59.1119 135.403C57.324 136.073 55.4244 136.576 53.5248 136.855C42.4622 138.531 31.6791 133.783 25.9243 124.287C16.2027 108.256 15.9233 86.3586 16.5938 67.7016C16.6497 66.0258 16.7055 64.4059 16.7614 62.8418C16.7614 62.4508 16.8173 61.8364 16.8173 61.0543C16.8173 60.9426 16.8173 60.775 16.8173 60.6633C16.929 56.1387 17.3201 47.0336 20.0578 43.1235C20.4489 42.509 20.9518 42.0621 21.4546 41.727C22.0133 41.3918 22.6279 41.2243 23.2984 41.2801C24.2482 41.336 25.3656 41.7829 26.5948 42.7325C26.7624 42.8442 26.93 43.0118 27.1535 43.1793C27.1535 43.1793 27.2094 43.1793 27.2094 43.2352C27.2652 43.2911 27.377 43.3469 27.4328 43.4586C30.8969 46.8102 28.4944 55.0774 28.3268 59.211C28.1592 62.2274 28.0474 65.2997 27.9916 68.3161C27.8798 74.6282 27.9357 80.9961 28.4385 87.2524C29.3325 98.8153 29.8353 113.283 38.663 121.941C44.4177 127.583 51.3458 126.689 57.7151 123.338L59.1119 135.403Z" fill="black" stroke="black" stroke-miterlimit="10"/>
<path d="M23.8571 28.5442C23.8571 28.5442 22.6279 -0.0557835 31.7349 1.78758C38.7747 3.18406 35.7018 30.611 35.7018 30.611C35.7018 30.611 51.681 40.2188 36.931 57.0325C36.931 57.0325 37.2662 63.4005 35.5342 65.2438C33.9139 67.0313 21.7898 71.5559 13.6326 66.3052C12.7387 65.7466 12.1799 64.6852 12.1241 63.6239L12.0123 59.211C12.0123 59.211 4.13447 57.8145 4.30208 49.268C4.30208 49.268 -7.2633 31.2813 8.71592 29.2145C8.77179 28.3208 9.10702 26.0864 10.839 24.1313C11.1743 23.7403 14.1354 20.4446 17.9906 21.2266C21.1194 21.897 23.5777 24.8575 23.8571 28.5442Z" fill="white" stroke="black" stroke-miterlimit="10"/>
<path d="M8.71594 29.2704C8.77181 33.2364 9.55401 37.9844 12.2358 41.0009C13.6885 42.6766 15.6999 43.5145 17.9347 43.3469C20.7283 43.1794 23.3542 42.2298 24.2482 39.3809C25.4774 35.4149 24.4717 30.3876 23.4101 26.4774" fill="white"/>
<path d="M8.71594 29.2704C8.77181 33.2364 9.55401 37.9844 12.2358 41.0009C13.6885 42.6766 15.6999 43.5145 17.9347 43.3469C20.7283 43.1794 23.3542 42.2298 24.2482 39.3809C25.4774 35.4149 24.4717 30.3876 23.4101 26.4774" stroke="black" stroke-miterlimit="10"/>
<path d="M3.91101 48.5418C4.35798 48.877 6.09 49.9942 8.10137 50.1618C8.60421 50.2176 10.2804 50.2176 11.8447 49.2122C14.8618 47.2571 14.6383 43.2352 14.6383 43.0676" fill="white"/>
<path d="M3.91101 48.5418C4.35798 48.877 6.09 49.9942 8.10137 50.1618C8.60421 50.2176 10.2804 50.2176 11.8447 49.2122C14.8618 47.2571 14.6383 43.2352 14.6383 43.0676" stroke="black" stroke-miterlimit="10"/>
<path d="M35.7018 30.611C33.3552 29.9966 30.8969 29.5497 28.4944 29.3263C23.5777 28.8235 15.2529 28.0415 14.1913 34.4653C13.1298 40.7774 22.7396 42.3974 29.4442 43.1235C29.4442 43.1235 20.1137 43.0677 20.0019 53.4575" fill="white"/>
<path d="M35.7018 30.611C33.3552 29.9966 30.8969 29.5497 28.4944 29.3263C23.5777 28.8235 15.2529 28.0415 14.1913 34.4653C13.1298 40.7774 22.7396 42.3974 29.4442 43.1235C29.4442 43.1235 20.1137 43.0677 20.0019 53.4575" stroke="black" stroke-miterlimit="10"/>
<path d="M12.0682 59.2668C12.0682 59.2668 13.2415 61.1102 18.5493 61.1661L12.0682 59.2668Z" fill="white"/>
<path d="M12.0682 59.2668C12.0682 59.2668 13.2415 61.1102 18.5493 61.1661" stroke="black" stroke-miterlimit="10"/>
<path d="M28.9413 60.6633C28.9413 60.6633 32.6289 60.5516 36.9868 57.0325L28.9413 60.6633Z" fill="white"/>
<path d="M28.9413 60.6633C28.9413 60.6633 32.6289 60.5516 36.9868 57.0325" stroke="black" stroke-miterlimit="10"/>
<path d="M278.184 164.506C274.328 168.081 268.853 170.148 263.657 170.595C257.344 171.153 251.533 169.533 245.666 167.411C241.253 165.847 236.895 164.003 232.593 161.936C228.626 160.037 224.715 157.915 220.915 155.736C218.848 154.507 216.781 153.278 214.714 151.993C214.658 151.993 214.658 151.938 214.602 151.938C211.194 149.815 207.841 147.581 204.545 145.29C198.567 141.157 205.104 131.94 211.082 136.074C214.323 138.308 217.619 140.486 220.915 142.609C221.027 142.665 221.139 142.777 221.251 142.833C223.15 144.006 224.994 145.123 226.95 146.24C228.29 147.022 229.687 147.804 231.028 148.53C237.565 152.049 244.381 155.177 251.421 157.524C255.947 159.032 259.746 159.981 264.272 159.143C267.624 158.473 270.529 156.965 272.373 154.004C272.317 154.004 272.876 152.999 272.876 152.943C272.988 152.608 273.099 152.329 273.211 151.993C273.155 152.105 273.435 150.709 273.435 150.765C273.49 150.318 273.546 149.871 273.546 149.48C273.546 147.581 272.876 144.843 272.038 142.665C269.915 136.911 266.506 131.996 262.54 127.359C251.756 114.903 238.627 104.96 225.05 95.5755L223.374 80.8286C231.363 86.247 239.353 91.7212 246.951 97.6981C258.796 106.915 270.809 117.305 278.631 130.32C285.056 140.822 288.352 155.233 278.184 164.506Z" fill="black" stroke="black" stroke-miterlimit="10"/>
<path d="M182.532 149.983C184.04 151.211 185.772 152.273 187.56 153.222C190.074 154.563 192.756 155.568 195.382 156.742C195.717 156.853 195.997 157.021 196.276 157.133C204.601 160.372 209.741 155.959 209.741 155.959L212.144 157.915C213.317 158.864 214.881 159.088 216.278 158.529C219.016 157.468 221.307 155.624 223.15 153.39C225.106 150.988 226.503 148.083 227.341 145.011C227.508 144.397 227.676 143.726 227.788 143.112C228.123 141.324 227.564 139.704 226.335 138.42C225.888 137.917 222.871 136.353 222.759 135.962C222.759 135.794 222.703 135.571 222.647 135.403C219.072 114.903 202.645 120.6 202.645 120.6C202.645 120.6 183.37 105.127 178.062 109.429C172.084 114.288 188.622 124.846 192.924 127.415C190.298 126.075 187.504 126.745 185.437 128.421C184.822 128.924 184.32 129.482 183.984 130.041C182.197 132.778 183.035 136.576 185.661 138.475C185.94 138.699 186.163 138.811 186.387 138.867C184.99 138.587 183.258 139.146 182.029 139.76C180.073 140.766 178.844 143 179.291 145.234C179.682 147.301 181.079 148.865 182.532 149.983Z" fill="white" stroke="black" stroke-miterlimit="10"/>
<path d="M209.741 155.959C209.741 155.959 211.641 155.289 215.384 151.323L209.741 155.959Z" fill="white"/>
<path d="M209.741 155.959C209.741 155.959 211.641 155.289 215.384 151.323" stroke="black" stroke-miterlimit="10"/>
<path d="M220.524 144.173C220.524 144.173 222.647 141.436 222.703 136.073L220.524 144.173Z" fill="white"/>
<path d="M220.524 144.173C220.524 144.173 222.647 141.436 222.703 136.073" stroke="black" stroke-miterlimit="10"/>
<path d="M193.259 127.695L196.611 129.985" stroke="black" stroke-miterlimit="10"/>
<path d="M186.219 138.866L190.41 141.157" stroke="black" stroke-miterlimit="10"/>
<path d="M202.646 120.712L209.629 125.46" stroke="black" stroke-miterlimit="10"/>
</g>
<defs>
<clipPath id="clip0_1_945">
<rect width="285" height="286" fill="white"/>
</clipPath>
</defs>
</svg>
