<svg width="283" height="283" viewBox="0 0 283 283" fill="none" xmlns="http://www.w3.org/2000/svg">
<g clip-path="url(#clip0_1_549)">
<path d="M112.819 145.034C109.557 143.675 104.936 145.17 103.712 148.704C91.3429 183.773 85.634 220.61 86.7214 257.718C86.8573 261.388 91.071 264.106 94.4692 263.698C98.547 263.155 100.586 259.621 100.45 255.951C99.3626 221.425 104.936 186.764 116.353 154.141C117.713 150.607 116.353 146.665 112.819 145.034Z" fill="black"/>
<path d="M59.2641 270.495C60.6233 269.272 62.3904 268.456 64.1574 268.592C66.0604 268.592 67.8275 269.407 69.0508 270.631C70.4101 271.99 71.0897 273.757 71.0897 275.66C71.0897 277.563 70.2742 279.33 69.0508 280.553C67.6915 281.777 65.9245 282.592 64.1574 282.456C62.2545 282.456 60.4874 281.641 59.2641 280.418C57.9048 279.058 57.2252 277.291 57.2252 275.388C57.0892 273.621 57.9048 271.854 59.2641 270.495ZM68.643 280.146C69.8664 278.922 70.546 277.291 70.546 275.524C70.546 273.757 69.8664 272.126 68.643 270.903C67.4197 269.679 65.7886 269 64.1574 269C62.5263 269 60.8952 269.679 59.5359 270.903C58.3126 272.126 57.633 273.757 57.633 275.388C57.633 277.155 58.3126 278.786 59.5359 280.01C60.7593 281.233 62.3904 281.913 64.0215 281.913C65.7886 282.049 67.4197 281.369 68.643 280.146Z" fill="black"/>
<path d="M61.5748 272.806C62.2545 272.126 63.07 271.854 64.0215 271.854C65.9245 271.854 67.5556 273.485 67.5556 275.388C67.5556 276.34 67.1479 277.155 66.4682 277.835C65.7886 278.515 64.973 278.786 64.0215 278.786C62.1185 278.786 60.4874 277.155 60.4874 275.252C60.6234 274.301 61.0311 273.485 61.5748 272.806ZM67.0119 275.388C67.0119 273.757 65.6527 272.398 64.0215 272.398C62.3904 272.398 61.0311 273.757 61.0311 275.388C61.0311 277.019 62.3904 278.379 64.0215 278.379C64.8371 278.379 65.5167 278.107 66.0604 277.563C66.7401 276.883 67.0119 276.204 67.0119 275.388Z" fill="black"/>
<path d="M70.8179 275.66C70.8179 279.33 67.6915 282.321 64.0215 282.321C60.3515 282.321 57.3611 279.194 57.3611 275.524C57.3611 271.854 60.4874 268.864 64.1574 268.864C67.8275 268.864 70.8179 271.99 70.8179 275.66Z" fill="black"/>
<path d="M67.2838 275.388C67.2838 277.155 65.7886 278.65 64.0215 278.65C62.2545 278.65 60.7593 277.155 60.7593 275.388C60.7593 273.621 62.2545 272.126 64.0215 272.126C65.9245 272.126 67.2838 273.621 67.2838 275.388Z" fill="white"/>
<path d="M61.5748 272.806C62.2545 272.126 63.07 271.854 64.0215 271.854C65.9245 271.854 67.5556 273.485 67.5556 275.388C67.5556 276.34 67.1479 277.155 66.4682 277.835C65.7886 278.515 64.973 278.786 64.0215 278.786C62.1185 278.786 60.4874 277.155 60.4874 275.252C60.6234 274.301 61.0311 273.485 61.5748 272.806ZM67.0119 275.388C67.0119 273.757 65.6527 272.398 64.0215 272.398C62.3904 272.398 61.0311 273.757 61.0311 275.388C61.0311 277.019 62.3904 278.379 64.0215 278.379C64.8371 278.379 65.5167 278.107 66.0604 277.563C66.7401 276.883 67.0119 276.204 67.0119 275.388Z" fill="black"/>
<path d="M77.8861 271.039C79.2453 269.815 81.0124 269 82.7794 269.136C84.6824 269.136 86.4495 269.951 87.6728 271.175C89.0321 272.534 89.7117 274.301 89.7117 276.204C89.7117 278.107 88.8962 279.874 87.6728 281.097C86.3135 282.321 84.5465 283.136 82.7794 283C80.8765 283 79.1094 282.185 77.8861 280.961C76.5268 279.602 75.8472 277.835 75.8472 275.932C75.8472 274.029 76.5268 272.262 77.8861 271.039ZM87.265 280.689C87.265 280.553 87.265 280.553 87.265 280.689C88.4884 279.466 89.168 277.835 89.168 276.068C89.168 274.301 88.4884 272.67 87.265 271.446C86.0417 270.223 84.4106 269.543 82.7794 269.543C81.0124 269.543 79.5172 270.223 78.1579 271.446C76.9346 272.67 76.2549 274.301 76.2549 275.932C76.2549 277.699 76.9346 279.33 78.1579 280.553C79.3813 281.777 81.0124 282.456 82.6435 282.456C84.4106 282.456 86.0417 281.777 87.265 280.689Z" fill="black"/>
<path d="M80.3328 273.213C81.0124 272.534 81.828 272.262 82.7795 272.262C84.6824 272.262 86.3136 273.893 86.3136 275.796C86.3136 276.748 85.9058 277.563 85.2262 278.243C84.5465 278.922 83.731 279.194 82.7795 279.194C80.8765 279.194 79.2454 277.563 79.2454 275.66C79.2454 274.845 79.6531 273.893 80.3328 273.213ZM85.7699 275.796C85.7699 274.165 84.4106 272.806 82.7795 272.806C81.1483 272.806 79.7891 274.165 79.7891 275.796C79.7891 277.427 81.1483 278.786 82.7795 278.786C83.595 278.786 84.2747 278.515 84.8184 277.971C85.3621 277.291 85.7699 276.612 85.7699 275.796Z" fill="black"/>
<path d="M89.5758 276.068C89.5758 279.738 86.4495 282.728 82.7794 282.728C79.1094 282.728 76.119 279.602 76.119 275.932C76.119 272.262 79.2453 269.272 82.9154 269.272C86.5854 269.272 89.5758 272.398 89.5758 276.068Z" fill="black"/>
<path d="M86.0417 275.796C86.0417 277.563 84.5465 279.058 82.7795 279.058C81.0124 279.058 79.5172 277.563 79.5172 275.796C79.5172 274.029 81.0124 272.534 82.7795 272.534C84.5465 272.534 86.0417 274.029 86.0417 275.796Z" fill="white"/>
<path d="M80.3328 273.213C81.0124 272.534 81.828 272.262 82.7795 272.262C84.6824 272.262 86.3136 273.893 86.3136 275.796C86.3136 276.748 85.9058 277.563 85.2262 278.243C84.5465 278.922 83.731 279.194 82.7795 279.194C80.8765 279.194 79.2454 277.563 79.2454 275.66C79.2454 274.845 79.6531 273.893 80.3328 273.213ZM85.7699 275.796C85.7699 274.165 84.4106 272.806 82.7795 272.806C81.1483 272.806 79.7891 274.165 79.7891 275.796C79.7891 277.427 81.1483 278.786 82.7795 278.786C83.595 278.786 84.2747 278.515 84.8184 277.971C85.3621 277.291 85.7699 276.612 85.7699 275.796Z" fill="black"/>
<path d="M96.1003 270.767C97.4595 269.543 99.2266 268.728 100.994 268.864C102.897 268.864 104.664 269.679 105.887 270.903C107.246 272.262 107.926 274.029 107.926 275.932C107.926 277.835 107.11 279.602 105.887 280.825C104.528 282.049 102.761 282.864 100.994 282.728C99.0907 282.728 97.3236 281.913 96.1003 280.689C94.741 279.33 94.0613 277.563 94.0613 275.66C93.9254 273.893 94.741 272.126 96.1003 270.767ZM105.479 280.418C106.703 279.194 107.382 277.563 107.382 275.796C107.382 274.029 106.703 272.398 105.479 271.175C104.256 269.951 102.625 269.272 100.994 269.272C99.2266 269.272 97.7314 269.951 96.3721 271.175C95.1488 272.398 94.4691 274.029 94.4691 275.66C94.4691 277.427 95.1488 279.058 96.3721 280.282C97.5955 281.505 99.2266 282.185 100.858 282.185C102.625 282.321 104.256 281.641 105.479 280.418Z" fill="black"/>
<path d="M98.5469 273.077C99.2265 272.398 100.042 272.126 100.994 272.126C102.897 272.126 104.528 273.757 104.528 275.66C104.528 276.612 104.12 277.427 103.44 278.107C102.761 278.786 101.945 279.058 100.994 279.058C99.0906 279.058 97.4595 277.427 97.4595 275.524C97.4595 274.573 97.8673 273.757 98.5469 273.077ZM103.848 275.66C103.848 274.029 102.489 272.67 100.858 272.67C99.2265 272.67 97.8673 274.029 97.8673 275.66C97.8673 277.291 99.2265 278.65 100.858 278.65C101.673 278.65 102.353 278.379 102.897 277.835C103.576 277.155 103.848 276.476 103.848 275.66Z" fill="black"/>
<path d="M107.654 275.932C107.654 279.602 104.528 282.592 100.858 282.592C97.1877 282.592 94.1973 279.466 94.1973 275.796C94.1973 272.126 97.3236 269.136 100.994 269.136C104.8 269.136 107.654 272.126 107.654 275.932Z" fill="black"/>
<path d="M104.12 275.66C104.12 277.427 102.625 278.922 100.858 278.922C99.0906 278.922 97.5955 277.427 97.5955 275.66C97.5955 273.893 99.0906 272.398 100.858 272.398C102.761 272.398 104.12 273.893 104.12 275.66Z" fill="white"/>
<path d="M98.5469 273.077C99.2265 272.398 100.042 272.126 100.994 272.126C102.897 272.126 104.528 273.757 104.528 275.66C104.528 276.612 104.12 277.427 103.44 278.107C102.761 278.786 101.945 279.058 100.994 279.058C99.0906 279.058 97.4595 277.427 97.4595 275.524C97.4595 274.573 97.8673 273.757 98.5469 273.077ZM103.848 275.66C103.848 274.029 102.489 272.67 100.858 272.67C99.2265 272.67 97.8673 274.029 97.8673 275.66C97.8673 277.291 99.2265 278.65 100.858 278.65C101.673 278.65 102.353 278.379 102.897 277.835C103.576 277.155 103.848 276.476 103.848 275.66Z" fill="black"/>
<path d="M106.295 240.183L80.1968 240.863L80.7405 242.902L81.692 246.3L82.3716 248.747L83.1872 251.873L83.459 253.096C81.4201 252.688 79.5172 252.417 77.7501 252.281C54.2347 250.242 56.5455 268.864 56.5455 268.864L109.421 269.271L106.295 240.183Z" fill="#FF9BED"/>
<path d="M86.3136 248.611C85.3621 248.611 83.3232 248.611 82.3717 248.747L83.1873 251.873C84.1388 251.873 85.498 252.009 86.3136 252.009C91.4788 252.009 95.5566 251.329 95.5566 250.378C95.5566 249.426 91.4788 248.611 86.3136 248.611Z" fill="#FEBE30"/>
<path d="M85.498 242.766C84.5465 242.766 82.2357 242.766 80.8765 242.766L81.828 246.164C82.9154 246.164 84.6824 246.164 85.6339 246.164C90.7991 246.164 95.1488 245.076 95.1488 244.261C94.8769 243.309 90.5273 242.902 85.498 242.766Z" fill="#FEBE30"/>
<path d="M67.6915 255.407C66.8759 253.912 64.5652 255.543 63.7496 256.222C62.5263 257.038 61.3029 258.125 60.4874 259.485C59.6718 260.708 58.9922 262.203 58.8563 263.834C58.5844 265.466 61.0311 265.737 61.3029 263.97C61.3029 263.97 61.3029 263.97 61.3029 264.106C61.4389 262.339 62.5263 260.708 63.8856 259.485C64.7011 258.669 65.5167 258.125 66.4682 257.582C66.8759 257.31 67.5556 257.31 67.8274 256.902C67.8274 256.358 67.9634 255.815 67.6915 255.407Z" fill="white"/>
<path d="M101.673 243.309L103.712 263.97C103.848 265.601 106.295 265.33 106.159 263.698L104.12 243.038C103.984 241.542 101.537 241.814 101.673 243.309Z" fill="white"/>
<path d="M109.421 269.407H109.693L106.567 239.911L79.925 240.591L81.1483 244.941L81.5561 246.436L82.3717 249.698L82.9154 252.009L83.0513 252.552C81.1483 252.145 79.3813 252.009 77.7502 251.873C70.0023 251.193 64.2934 252.688 60.4874 256.222C60.3515 256.358 60.2156 256.358 60.2156 256.494C55.3222 261.524 56.1378 268.728 56.1378 268.728V269L109.421 269.407ZM81.1483 243.038C82.6435 243.038 84.9543 243.038 85.498 243.038C88.2165 243.038 90.5273 243.174 92.1584 243.445C94.6051 243.717 94.741 244.261 94.741 244.261C94.741 244.805 91.071 246.028 85.498 245.892C85.2261 245.892 84.6824 245.892 84.1387 245.892C83.4591 245.892 82.6435 245.892 81.9639 245.892L81.4202 243.989L81.1483 243.038ZM82.6435 248.882C83.7309 248.882 85.498 248.747 86.3136 248.882C88.7602 248.882 91.071 249.154 92.8381 249.426C94.877 249.834 95.2847 250.242 95.2847 250.378C95.2847 250.378 95.2847 250.378 95.2847 250.514C94.6051 251.193 91.3429 251.737 86.3136 251.737C85.6339 251.737 84.5465 251.601 83.595 251.601H83.3232L82.6435 248.882ZM60.6234 256.902C64.1575 253.232 69.8664 251.737 77.7502 252.417C79.5172 252.552 81.4202 252.824 83.4591 253.232L83.8669 253.368L83.595 252.145C84.5465 252.145 85.6339 252.281 86.3136 252.281C90.9351 252.281 94.741 251.737 95.5566 250.921C95.6925 250.785 95.8284 250.649 95.8284 250.378C95.8284 250.106 95.8285 249.426 92.974 248.882C91.2069 248.611 88.8962 248.339 86.4495 248.339C85.6339 248.339 83.7309 248.339 82.6435 248.475L82.0998 246.572C82.7795 246.572 83.4591 246.572 84.1387 246.572C84.6824 246.572 85.0902 246.572 85.498 246.572C90.1195 246.572 95.2847 245.62 95.2847 244.397C95.2847 243.717 94.3333 243.309 92.2943 243.038C90.6632 242.766 88.3525 242.766 85.6339 242.63C85.0902 242.63 82.6435 242.63 81.1483 242.63L80.7406 241.271L106.159 240.591L109.149 269L56.8174 268.592C56.6815 267.233 56.5455 261.252 60.6234 256.902Z" fill="black"/>
<path d="M205.114 206.337C202.803 203.075 198.725 202.667 195.463 204.57C188.395 208.648 180.919 211.774 173.171 214.085C169.501 215.173 165.831 216.124 162.025 216.668C158.627 217.211 154.277 217.891 151.559 217.483C149.656 217.211 149.248 217.211 147.617 216.396C147.481 216.396 147.481 216.26 147.345 216.26C147.073 216.124 146.801 215.852 146.529 215.58C146.529 215.58 145.85 214.629 146.121 215.037C145.578 213.949 145.442 212.862 145.442 211.774C145.442 210.687 145.986 208.376 146.393 206.881C148.296 199.813 152.646 190.978 156.18 183.637C160.666 174.259 165.695 165.151 171.132 156.18C173.035 153.054 170.996 148.432 167.87 146.937C164.2 145.17 160.666 146.937 158.627 150.199C153.054 159.171 148.024 168.55 143.403 178.064C139.189 187.036 134.296 196.551 132.257 206.337C130.218 215.716 133.616 225.911 143.131 229.581C152.374 233.115 162.84 230.804 172.084 228.493C182.958 225.911 193.288 221.425 202.939 215.852C206.609 214.085 207.017 209.192 205.114 206.337Z" fill="black"/>
<path d="M221.969 242.63C220.338 241.678 219.25 240.319 218.706 238.416C218.163 236.649 218.435 234.746 219.25 233.115C220.202 231.484 221.697 230.261 223.464 229.717C225.231 229.173 227.134 229.445 228.765 230.261C230.396 231.212 231.484 232.571 232.027 234.474C232.571 236.241 232.299 238.144 231.484 239.775C230.532 241.407 229.037 242.63 227.27 243.174C225.639 243.853 223.736 243.581 221.969 242.63ZM228.629 230.94C227.134 230.125 225.367 229.853 223.736 230.396C222.105 230.94 220.745 232.028 219.93 233.523C219.114 235.018 218.842 236.785 219.386 238.416C219.93 240.047 221.017 241.407 222.512 242.222C224.008 243.038 225.775 243.31 227.406 242.766C229.037 242.222 230.396 241.135 231.212 239.64C232.027 238.144 232.299 236.377 231.755 234.746C231.076 233.115 230.124 231.756 228.629 230.94Z" fill="black"/>
<path d="M223.464 239.639C222.648 239.232 222.105 238.416 221.833 237.601C221.289 235.698 222.376 233.795 224.279 233.251C225.231 232.979 226.182 233.115 226.998 233.523C227.814 233.931 228.357 234.746 228.629 235.562C229.173 237.465 228.085 239.368 226.182 239.911C225.231 240.319 224.279 240.183 223.464 239.639ZM224.415 233.795C222.784 234.202 221.969 235.834 222.376 237.465C222.784 239.096 224.415 239.911 226.047 239.504C227.678 239.096 228.493 237.465 228.085 235.834C227.814 235.018 227.406 234.474 226.726 234.066C225.911 233.659 225.095 233.523 224.415 233.795Z" fill="black"/>
<path d="M223.6 230.125C227.134 229.037 230.94 231.212 231.891 234.746C232.979 238.28 230.94 242.086 227.27 243.038C223.736 244.125 219.93 241.95 218.978 238.416C217.891 234.882 219.93 231.076 223.6 230.125Z" fill="black"/>
<path d="M224.279 233.523C226.047 232.979 227.814 234.066 228.357 235.698C228.901 237.465 227.814 239.232 226.182 239.639C224.415 240.183 222.648 239.096 222.105 237.465C221.561 235.834 222.648 234.066 224.279 233.523Z" fill="white"/>
<path d="M223.464 239.639C222.648 239.232 222.105 238.416 221.833 237.601C221.289 235.698 222.376 233.795 224.279 233.251C225.231 232.979 226.182 233.115 226.998 233.523C227.814 233.931 228.357 234.746 228.629 235.562C229.173 237.465 228.085 239.368 226.182 239.911C225.231 240.319 224.279 240.183 223.464 239.639ZM224.415 233.795C222.784 234.202 221.969 235.834 222.376 237.465C222.784 239.096 224.415 239.911 226.047 239.504C227.678 239.096 228.493 237.465 228.085 235.834C227.814 235.018 227.406 234.474 226.726 234.066C225.911 233.659 225.095 233.523 224.415 233.795Z" fill="black"/>
<path d="M217.075 224.552C215.444 223.6 214.357 222.241 213.813 220.338C213.269 218.571 213.541 216.668 214.357 215.037C215.308 213.406 216.803 212.182 218.571 211.638C220.338 211.095 222.241 211.367 223.872 212.182C225.503 213.134 226.59 214.493 227.134 216.396C227.678 218.163 227.406 220.066 226.59 221.697C225.639 223.328 224.144 224.552 222.376 225.095C220.609 225.775 218.706 225.503 217.075 224.552C217.075 224.687 217.075 224.687 217.075 224.552ZM223.6 212.862C222.105 212.046 220.338 211.774 218.706 212.318C217.075 212.862 215.716 213.949 214.901 215.444C214.085 216.94 213.813 218.707 214.357 220.338C214.9 221.969 215.988 223.328 217.483 224.144C218.978 224.959 220.745 225.231 222.376 224.687C224.008 224.144 225.367 223.056 226.182 221.561C226.998 220.066 227.27 218.299 226.726 216.668C226.182 215.037 225.095 213.677 223.6 212.862Z" fill="black"/>
<path d="M218.571 221.697C217.755 221.289 217.211 220.474 216.939 219.658C216.396 217.755 217.483 215.852 219.386 215.308C220.338 215.037 221.289 215.173 222.105 215.58C222.92 215.988 223.464 216.804 223.736 217.619C224.279 219.522 223.192 221.425 221.289 221.969C220.338 222.241 219.386 222.105 218.571 221.697ZM219.386 215.716C217.755 216.124 216.939 217.755 217.347 219.386C217.755 221.017 219.386 221.833 221.017 221.425C222.648 221.017 223.464 219.386 223.056 217.755C222.784 216.94 222.376 216.396 221.697 215.988C221.017 215.58 220.202 215.58 219.386 215.716Z" fill="black"/>
<path d="M218.571 212.046C222.105 210.959 225.911 213.134 226.862 216.668C227.814 220.202 225.911 224.008 222.241 224.959C218.706 226.047 214.9 223.872 213.949 220.338C212.997 216.804 215.036 213.134 218.571 212.046Z" fill="black"/>
<path d="M219.386 215.444C221.153 214.901 222.92 215.988 223.464 217.619C224.008 219.386 222.92 221.153 221.289 221.561C219.522 222.105 217.755 221.017 217.211 219.386C216.668 217.755 217.619 215.988 219.386 215.444Z" fill="white"/>
<path d="M218.571 221.697C217.755 221.289 217.211 220.474 216.939 219.658C216.396 217.755 217.483 215.852 219.386 215.308C220.338 215.037 221.289 215.173 222.105 215.58C222.92 215.988 223.464 216.804 223.736 217.619C224.279 219.522 223.192 221.425 221.289 221.969C220.338 222.241 219.386 222.105 218.571 221.697ZM219.386 215.716C217.755 216.124 216.939 217.755 217.347 219.386C217.755 221.017 219.386 221.833 221.017 221.425C222.648 221.017 223.464 219.386 223.056 217.755C222.784 216.94 222.376 216.396 221.697 215.988C221.017 215.58 220.202 215.58 219.386 215.716Z" fill="black"/>
<path d="M211.638 207.289C210.007 206.337 208.92 204.978 208.376 203.075C207.832 201.308 208.104 199.405 208.92 197.774C209.871 196.143 211.366 194.919 213.133 194.376C214.901 193.832 216.803 194.104 218.435 194.919C220.066 195.871 221.153 197.23 221.697 199.133C222.241 200.9 221.969 202.803 221.153 204.434C220.202 206.065 218.706 207.289 216.939 207.833C215.308 208.376 213.405 208.24 211.638 207.289ZM218.299 195.599C216.803 194.784 215.036 194.512 213.405 195.055C211.774 195.599 210.415 196.687 209.599 198.182C208.784 199.677 208.512 201.444 209.056 203.075C209.599 204.706 210.687 206.065 212.182 206.881C213.677 207.697 215.444 207.968 217.075 207.425C218.706 206.881 220.066 205.794 220.881 204.298C221.697 202.803 221.969 201.036 221.425 199.405C220.881 197.774 219.794 196.415 218.299 195.599Z" fill="black"/>
<path d="M213.133 204.298C212.318 203.891 211.774 203.075 211.502 202.26C210.959 200.357 212.046 198.454 213.949 197.91C214.9 197.638 215.852 197.774 216.668 198.182C217.483 198.589 218.027 199.405 218.299 200.221C218.842 202.124 217.755 204.027 215.852 204.57C214.9 204.978 213.949 204.842 213.133 204.298ZM214.085 198.454C212.454 198.861 211.638 200.492 212.046 202.124C212.454 203.755 214.085 204.57 215.716 204.162C217.347 203.755 218.163 202.124 217.755 200.492C217.483 199.677 217.075 199.133 216.396 198.725C215.58 198.318 214.9 198.182 214.085 198.454Z" fill="black"/>
<path d="M213.269 194.784C216.803 193.696 220.609 195.871 221.561 199.405C222.648 202.939 220.609 206.745 216.939 207.697C213.405 208.784 209.599 206.609 208.648 203.075C207.56 199.541 209.599 195.735 213.269 194.784Z" fill="black"/>
<path d="M213.949 198.182C215.716 197.638 217.483 198.725 218.027 200.357C218.571 202.124 217.483 203.891 215.852 204.298C214.085 204.842 212.318 203.755 211.774 202.124C211.366 200.492 212.318 198.725 213.949 198.182Z" fill="white"/>
<path d="M213.133 204.298C212.318 203.891 211.774 203.075 211.502 202.26C210.959 200.357 212.046 198.454 213.949 197.91C214.9 197.638 215.852 197.774 216.668 198.182C217.483 198.589 218.027 199.405 218.299 200.221C218.842 202.124 217.755 204.027 215.852 204.57C214.9 204.978 213.949 204.842 213.133 204.298ZM214.085 198.454C212.454 198.861 211.638 200.492 212.046 202.124C212.454 203.755 214.085 204.57 215.716 204.162C217.347 203.755 218.163 202.124 217.755 200.492C217.483 199.677 217.075 199.133 216.396 198.725C215.58 198.318 214.9 198.182 214.085 198.454Z" fill="black"/>
<path d="M179.424 206.201L187.579 230.94L189.346 229.853L192.337 228.086L194.511 226.726L197.23 225.095L198.317 224.416C198.589 226.455 198.861 228.358 199.133 230.125C203.89 253.232 221.153 245.756 221.153 245.756L206.473 195.055L179.424 206.201Z" fill="#FF9BED"/>
<path d="M193.152 223.056C193.424 223.872 194.104 225.911 194.376 226.862L197.094 225.231C196.822 224.28 196.55 222.92 196.414 222.241C195.055 217.347 193.152 213.542 192.201 213.813C191.385 213.949 191.793 218.163 193.152 223.056Z" fill="#FEBE30"/>
<path d="M187.851 225.503C188.123 226.319 188.803 228.629 189.21 229.989L192.201 228.222C191.929 227.134 191.385 225.503 191.113 224.688C189.754 219.794 187.443 215.988 186.492 216.124C185.676 216.26 186.492 220.61 187.851 225.503Z" fill="#FEBE30"/>
<path d="M204.978 238.96C203.89 240.183 206.065 241.814 206.881 242.494C208.104 243.445 209.463 244.261 210.959 244.669C212.454 245.077 214.085 245.348 215.58 245.077C217.211 244.805 216.803 242.358 215.036 242.63C215.036 242.63 215.036 242.63 215.172 242.63C213.405 242.902 211.502 242.358 210.007 241.542C209.056 240.999 208.24 240.319 207.424 239.504C207.153 239.096 206.745 238.688 206.337 238.416C205.929 238.416 205.386 238.552 204.978 238.96Z" fill="white"/>
<path d="M183.773 209.871L202.939 201.988C204.434 201.444 203.483 199.133 201.987 199.677L182.822 207.561C181.327 208.24 182.278 210.415 183.773 209.871Z" fill="white"/>
<path d="M206.609 194.919L206.473 194.648L179.016 206.065L187.307 231.348L191.113 229.037L192.473 228.222L195.327 226.455L197.366 225.231L197.91 224.959C198.046 226.862 198.317 228.629 198.725 230.26C200.356 237.872 203.347 242.902 207.832 245.484C207.968 245.62 208.104 245.62 208.24 245.756C214.357 249.018 221.017 246.164 221.153 246.164L221.425 246.028L206.609 194.919ZM189.346 229.581C188.938 228.086 188.259 225.911 188.123 225.503C187.307 222.92 186.9 220.746 186.628 219.114C186.22 216.668 186.628 216.396 186.628 216.396C187.171 216.26 189.346 219.386 190.841 224.687C190.977 224.959 191.113 225.503 191.249 225.911C191.521 226.59 191.657 227.406 191.929 227.95L190.298 229.037L189.346 229.581ZM194.511 226.319C194.24 225.367 193.696 223.6 193.424 222.92C192.744 220.61 192.337 218.299 192.065 216.532C191.793 214.493 192.201 213.949 192.201 213.949C192.201 213.949 192.201 213.949 192.337 213.949C193.152 214.357 194.647 217.347 196.007 222.105C196.143 222.784 196.414 223.872 196.686 224.687V224.959L194.511 226.319ZM208.512 245.212C204.026 242.902 200.9 237.736 199.269 230.125C198.861 228.357 198.589 226.455 198.453 224.416V224.008L197.366 224.687C197.094 223.872 196.958 222.649 196.686 222.105C195.463 217.619 193.832 214.221 192.744 213.541C192.608 213.406 192.337 213.406 192.201 213.406C191.929 213.406 191.249 213.677 191.657 216.668C191.793 218.435 192.337 220.746 193.016 223.192C193.288 224.008 193.832 225.775 194.104 226.726L192.473 227.814C192.337 227.27 192.065 226.454 191.929 225.911C191.793 225.367 191.657 224.959 191.521 224.687C190.298 220.338 187.851 215.58 186.628 215.988C186.084 216.124 185.948 217.211 186.22 219.25C186.492 220.882 187.035 223.192 187.851 225.775C187.987 226.183 188.667 228.629 189.074 229.989L187.851 230.804L179.967 206.609L206.337 195.599L220.881 245.756C219.522 246.028 213.813 247.931 208.512 245.212Z" fill="black"/>
<path d="M274.98 75.7115C260.98 109.829 226.318 160.938 145.578 147.345C61.5749 133.073 48.6619 71.3618 48.7978 33.8459L274.98 75.7115Z" fill="#F76519"/>
<path d="M277.835 76.2552C277.427 78.0222 257.446 196.007 139.869 176.026C18.7579 155.501 45.3996 36.0208 45.9433 33.3022H46.0792C44.0403 69.051 51.7882 140.141 143.811 155.637C232.027 170.453 265.873 109.557 277.699 76.2552H277.835Z" fill="#376B58"/>
<path d="M277.699 76.2552C265.873 109.557 232.027 170.453 143.811 155.637C51.7882 140.277 44.0403 69.051 46.0792 33.3022L48.7978 33.846C48.6618 71.3618 61.5749 133.209 145.578 147.345C226.318 160.938 260.98 109.829 274.98 75.7115L277.699 76.2552Z" fill="white"/>
<path d="M252.824 98.1394C252.28 100.722 253.096 103.169 254.455 103.441C255.95 103.712 257.446 101.809 257.989 99.0909C258.533 96.5083 257.718 94.0616 256.358 93.7897C254.999 93.5179 253.368 95.5568 252.824 98.1394Z" fill="black"/>
<path d="M254.863 103.712C254.727 103.712 254.591 103.712 254.591 103.712C254.048 103.577 253.64 103.305 253.232 102.761C252.552 101.674 252.28 99.9065 252.688 98.1394C253.232 95.285 254.863 93.382 256.494 93.6538C257.038 93.7898 257.446 94.0616 257.853 94.6053C258.533 95.6927 258.805 97.4598 258.397 99.2268C257.853 101.809 256.358 103.712 254.863 103.712ZM256.086 94.0616C254.863 94.0616 253.504 95.8287 253.096 98.1394C252.824 99.7706 252.96 101.402 253.64 102.353C253.912 102.761 254.183 103.033 254.591 103.033C255.815 103.305 257.31 101.402 257.853 98.955C258.125 97.3239 257.989 95.6927 257.31 94.7413C257.038 94.3335 256.766 94.0616 256.358 94.0616C256.222 94.0616 256.222 94.0616 256.086 94.0616Z" fill="black"/>
<path d="M224.415 121.927C223.872 124.509 224.687 126.956 226.047 127.228C227.542 127.5 229.037 125.597 229.581 122.878C230.124 120.296 229.309 117.849 227.95 117.577C226.454 117.305 224.823 119.208 224.415 121.927Z" fill="black"/>
<path d="M226.318 127.5C226.182 127.5 226.047 127.5 226.047 127.5C225.503 127.364 225.095 127.092 224.687 126.548C224.008 125.461 223.736 123.694 224.144 121.927C224.687 119.072 226.318 117.169 227.95 117.441C228.493 117.577 228.901 117.849 229.309 118.393C229.988 119.48 230.26 121.247 229.853 123.014C229.309 125.597 227.814 127.5 226.318 127.5ZM227.678 117.849C226.454 117.849 225.095 119.616 224.687 121.927C224.415 123.558 224.551 125.189 225.231 126.14C225.503 126.548 225.775 126.82 226.182 126.82C227.406 127.092 228.901 125.189 229.445 122.742C229.717 121.111 229.581 119.48 228.901 118.528C228.629 118.121 228.357 117.849 227.95 117.849C227.814 117.849 227.678 117.849 227.678 117.849Z" fill="black"/>
<path d="M182.414 112.684C181.87 115.266 182.686 117.713 184.045 117.985C185.54 118.257 187.035 116.354 187.579 113.635C188.123 111.052 187.307 108.606 185.948 108.334C184.453 108.062 182.822 109.965 182.414 112.684Z" fill="black"/>
<path d="M184.317 118.257C184.181 118.257 184.045 118.257 184.045 118.257C183.501 118.121 183.094 117.849 182.686 117.305C182.006 116.218 181.734 114.451 182.142 112.684C182.686 109.829 184.453 107.926 185.948 108.198C186.492 108.334 186.9 108.606 187.307 109.15C187.987 110.237 188.259 112.004 187.851 113.771C187.307 116.218 185.812 118.257 184.317 118.257ZM185.676 108.606C184.453 108.606 183.094 110.373 182.686 112.684C182.414 114.315 182.55 115.946 183.23 116.897C183.501 117.305 183.773 117.577 184.181 117.577C185.404 117.849 186.9 115.946 187.443 113.499C187.715 111.868 187.579 110.237 186.9 109.285C186.628 108.878 186.356 108.606 185.948 108.606C185.812 108.606 185.676 108.606 185.676 108.606Z" fill="black"/>
<path d="M198.589 135.655C198.046 138.238 198.861 140.685 200.22 140.956C201.716 141.228 203.211 139.325 203.754 136.607C204.298 134.024 203.483 131.577 202.123 131.306C200.628 131.034 198.997 132.937 198.589 135.655Z" fill="black"/>
<path d="M200.492 141.228C200.356 141.228 200.22 141.228 200.22 141.228C199.677 141.092 199.269 140.821 198.861 140.277C198.182 139.189 197.91 137.422 198.317 135.655C198.861 132.801 200.628 130.898 202.123 131.17C202.667 131.306 203.075 131.577 203.483 132.121C204.162 133.209 204.434 134.976 204.026 136.743C203.483 139.325 201.987 141.228 200.492 141.228ZM201.852 131.577C200.628 131.577 199.269 133.345 198.861 135.655C198.589 137.286 198.725 138.918 199.405 139.869C199.677 140.277 199.949 140.549 200.356 140.549C201.58 140.821 203.075 138.918 203.619 136.471C203.89 134.84 203.755 133.209 203.075 132.257C202.803 131.849 202.531 131.577 202.123 131.577C201.987 131.577 201.852 131.577 201.852 131.577Z" fill="black"/>
<path d="M151.559 70.1385C150.471 75.9834 152.102 81.2845 155.365 81.8282C158.627 82.3719 162.025 78.1582 163.248 72.1774C164.336 66.3325 162.705 61.0314 159.442 60.4877C156.18 59.944 152.646 64.2936 151.559 70.1385Z" fill="black"/>
<path d="M155.772 82.236C155.5 82.236 155.365 82.236 155.093 82.236C154.005 82.1 153.054 81.4204 152.374 80.333C150.879 78.0222 150.335 74.2163 151.151 70.1385C152.374 64.1577 156.044 59.6721 159.306 60.3517C160.394 60.4876 161.345 61.1673 162.025 62.2547C163.52 64.5655 164.064 68.3714 163.248 72.4492C162.297 78.0222 159.035 82.236 155.772 82.236ZM158.763 60.7595C155.908 60.7595 152.782 64.8373 151.83 70.1385C151.151 73.9444 151.559 77.7504 153.054 79.9252C153.733 80.8767 154.549 81.4204 155.365 81.5563C158.355 82.1 161.753 77.8863 162.841 72.1774C163.52 68.3714 163.112 64.5655 161.617 62.3906C160.938 61.4391 160.122 60.8954 159.306 60.7595C159.17 60.7595 158.899 60.7595 158.763 60.7595Z" fill="black"/>
<path d="M115.402 97.4597C114.858 100.042 115.674 102.489 117.033 102.761C118.528 103.033 120.023 101.13 120.567 98.4112C121.111 95.8286 120.295 93.3819 118.936 93.1101C117.441 92.8382 115.81 94.7412 115.402 97.4597Z" fill="black"/>
<path d="M117.305 103.033C117.169 103.033 117.033 103.033 117.033 103.033C116.489 102.897 116.082 102.625 115.674 102.081C114.994 100.994 114.722 99.2268 115.13 97.4597C115.674 94.6053 117.305 92.7023 118.936 92.9742C119.48 93.1101 119.888 93.3819 120.295 93.9256C120.975 95.0131 121.247 96.7801 120.839 98.5472C120.295 101.13 118.8 103.033 117.305 103.033ZM118.664 93.3819C117.441 93.3819 116.082 95.149 115.674 97.4597C115.402 99.0909 115.538 100.722 116.217 101.673C116.489 102.081 116.761 102.353 117.169 102.353C118.392 102.625 119.888 100.722 120.431 98.2753C120.703 96.6442 120.567 95.0131 119.888 94.0616C119.616 93.6538 119.344 93.3819 118.936 93.3819C118.8 93.3819 118.664 93.3819 118.664 93.3819Z" fill="black"/>
<path d="M87.1292 106.431C86.5855 109.014 87.401 111.46 88.7603 111.732C90.2555 112.004 91.7507 110.101 92.2944 107.382C92.8381 104.8 92.0225 102.353 90.6633 102.081C89.304 101.809 87.6729 103.848 87.1292 106.431Z" fill="black"/>
<path d="M89.1681 112.004C89.0321 112.004 88.8962 112.004 88.8962 112.004C88.3525 111.868 87.9447 111.596 87.5369 111.052C86.8573 109.965 86.5854 108.198 86.9932 106.431C87.5369 103.576 89.1681 101.673 90.7992 101.945C91.3429 102.081 91.7507 102.353 92.1585 102.897C92.8381 103.984 93.1099 105.751 92.7022 107.518C92.1585 110.101 90.6633 112.004 89.1681 112.004ZM90.3914 102.353C89.1681 102.353 87.8088 104.12 87.401 106.431C87.1292 108.062 87.2651 109.693 87.9447 110.645C88.2166 111.052 88.4884 111.324 88.8962 111.324C90.1196 111.596 91.6148 109.693 92.1585 107.247C92.4303 105.615 92.2944 103.984 91.6147 103.033C91.3429 102.625 91.071 102.353 90.6633 102.353C90.5273 102.353 90.5273 102.353 90.3914 102.353Z" fill="black"/>
<path d="M114.45 128.723C113.907 131.306 114.722 133.752 116.082 134.024C117.577 134.296 119.072 132.393 119.616 129.675C120.159 127.092 119.344 124.645 117.985 124.373C116.489 124.237 114.994 126.14 114.45 128.723Z" fill="black"/>
<path d="M116.489 134.296C116.353 134.296 116.217 134.296 116.217 134.296C115.674 134.16 115.266 133.888 114.858 133.345C114.179 132.257 113.907 130.49 114.315 128.723C114.858 125.869 116.489 123.966 118.12 124.237C118.664 124.373 119.072 124.645 119.48 125.189C120.159 126.276 120.431 128.043 120.023 129.81C119.48 132.393 117.985 134.296 116.489 134.296ZM117.713 124.645C116.489 124.645 115.13 126.412 114.722 128.723C114.45 130.354 114.586 131.985 115.266 132.937C115.538 133.345 115.81 133.616 116.217 133.616C117.441 133.888 118.936 131.985 119.48 129.539C119.752 127.907 119.616 126.276 118.936 125.325C118.664 124.917 118.392 124.645 117.985 124.645C117.849 124.645 117.849 124.645 117.713 124.645Z" fill="black"/>
<path d="M122.606 55.1864C122.062 57.769 122.878 60.2157 124.237 60.4876C125.732 60.7594 127.228 58.8564 127.771 56.1379C128.315 53.5553 127.499 51.1086 126.14 50.8367C124.645 50.5649 123.15 52.6038 122.606 55.1864Z" fill="black"/>
<path d="M124.645 60.7594C124.509 60.7594 124.373 60.7594 124.373 60.7594C123.829 60.6235 123.422 60.3517 123.014 59.808C122.334 58.7205 122.062 56.9535 122.47 55.1864C123.014 52.332 124.645 50.429 126.276 50.7008C126.82 50.8368 127.228 51.1086 127.635 51.6523C128.315 52.7397 128.587 54.5068 128.179 56.2739C127.635 58.8565 126.14 60.7594 124.645 60.7594ZM125.868 51.1086C124.645 51.1086 123.286 52.8757 122.878 55.1864C122.606 56.8176 122.742 58.4487 123.422 59.4002C123.694 59.808 123.965 60.0798 124.373 60.0798C125.596 60.3517 127.092 58.4487 127.635 56.002C127.907 54.3709 127.771 52.7397 127.092 51.7883C126.82 51.3805 126.548 51.1086 126.14 51.1086C126.004 51.1086 126.004 51.1086 125.868 51.1086Z" fill="black"/>
<path d="M185.268 73.6726C184.725 76.2552 185.54 78.7018 186.9 78.9737C188.395 79.2456 189.89 77.3426 190.434 74.624C190.977 72.0414 190.162 69.5947 188.803 69.3229C187.307 69.187 185.676 71.0899 185.268 73.6726Z" fill="black"/>
<path d="M187.171 79.2455C187.035 79.2455 186.899 79.2455 186.899 79.2455C186.356 79.1096 185.948 78.8377 185.54 78.294C184.861 77.2066 184.589 75.4396 184.997 73.6725C185.54 70.818 187.171 68.9151 188.802 69.1869C189.346 69.3229 189.754 69.5947 190.162 70.1384C190.841 71.2258 191.113 72.9929 190.705 74.7599C190.162 77.3425 188.667 79.2455 187.171 79.2455ZM188.531 69.7306C187.307 69.7306 185.948 71.4977 185.54 73.8084C185.268 75.4396 185.404 77.0707 186.084 78.0222C186.356 78.43 186.628 78.7018 187.035 78.7018C188.259 78.9737 189.754 77.0707 190.298 74.624C190.57 72.9929 190.434 71.3618 189.754 70.4103C189.482 70.0025 189.21 69.7306 188.802 69.7306C188.667 69.7306 188.531 69.7306 188.531 69.7306Z" fill="black"/>
<path d="M214.221 73.4006C213.677 75.9833 214.493 78.4299 215.852 78.7018C217.347 78.9736 218.842 77.0707 219.386 74.3521C219.93 71.7695 219.114 69.3228 217.755 69.051C216.26 68.7791 214.629 70.6821 214.221 73.4006Z" fill="black"/>
<path d="M216.124 78.9737C215.988 78.9737 215.852 78.9737 215.852 78.9737C215.308 78.8377 214.901 78.5659 214.493 78.0222C213.813 76.9348 213.541 75.1677 213.949 73.4007C214.493 70.5462 216.124 68.6432 217.755 68.9151C218.299 69.051 218.706 69.3229 219.114 69.8666C219.794 70.954 220.066 72.721 219.658 74.4881C219.114 77.0707 217.619 78.9737 216.124 78.9737ZM214.493 73.4007C214.221 75.0318 214.357 76.6629 215.036 77.6144C215.308 78.0222 215.58 78.294 215.988 78.294C217.211 78.5659 218.706 76.6629 219.25 74.2162C219.522 72.5851 219.386 70.954 218.706 70.0025C218.435 69.5947 218.163 69.3229 217.755 69.3229C216.396 69.051 214.901 70.954 214.493 73.4007Z" fill="black"/>
<path d="M82.3716 50.8369C81.8279 53.4195 82.6435 55.8662 84.0027 56.138C85.4979 56.4099 86.9931 54.5069 87.5368 51.7883C88.0805 49.2057 87.265 46.759 85.9057 46.4872C84.4105 46.3513 82.9153 48.2542 82.3716 50.8369Z" fill="black"/>
<path d="M84.2746 56.4098C84.1387 56.4098 84.0028 56.4098 84.0028 56.4098C83.4591 56.2739 83.0513 56.002 82.6435 55.4583C81.9639 54.3709 81.692 52.6039 82.0998 50.8368C82.6435 47.9824 84.4106 46.0794 85.9058 46.3512C86.4495 46.4872 86.8572 46.759 87.265 47.3027C87.9447 48.3901 88.2165 50.1572 87.8087 51.9242C87.265 54.5069 85.7698 56.4098 84.2746 56.4098ZM85.6339 46.8949C84.4106 46.8949 83.0513 48.662 82.6435 50.9728C82.3716 52.6039 82.5076 54.235 83.1872 55.1865C83.4591 55.5943 83.7309 55.8661 84.1387 55.8661C85.362 56.138 86.8572 54.235 87.401 51.7883C87.6728 50.1572 87.5369 48.5261 86.8572 47.5746C86.5854 47.1668 86.3135 46.8949 85.9058 46.8949C85.7698 46.8949 85.6339 46.8949 85.6339 46.8949Z" fill="black"/>
<path d="M142.995 128.995C142.451 131.577 143.267 134.024 144.626 134.296C146.121 134.568 147.617 132.665 148.16 129.946C148.704 127.364 147.889 124.917 146.529 124.645C145.17 124.373 143.539 126.412 142.995 128.995Z" fill="black"/>
<path d="M145.034 134.568C144.898 134.568 144.762 134.568 144.762 134.568C144.218 134.432 143.811 134.16 143.403 133.616C142.723 132.529 142.451 130.762 142.859 128.995C143.403 126.14 145.034 124.237 146.665 124.509C147.209 124.645 147.617 124.917 148.024 125.461C148.704 126.548 148.976 128.315 148.568 130.082C148.024 132.665 146.529 134.568 145.034 134.568ZM146.257 125.053C145.034 125.053 143.675 126.82 143.267 129.131C142.995 130.762 143.131 132.393 143.811 133.344C144.083 133.752 144.354 134.024 144.762 134.024C145.986 134.296 147.481 132.393 148.024 129.946C148.296 128.315 148.16 126.684 147.481 125.733C147.209 125.325 146.937 125.053 146.529 125.053C146.393 125.053 146.393 125.053 146.257 125.053Z" fill="black"/>
<path d="M68.2352 84.1389C67.6915 86.7215 68.5071 89.1682 69.8664 89.4401C71.3616 89.7119 72.8568 87.8089 73.4005 85.0904C73.9442 82.5078 73.1286 80.0611 71.7693 79.7893C70.4101 79.5174 68.779 81.4204 68.2352 84.1389Z" fill="black"/>
<path d="M70.2741 89.712C70.1382 89.712 70.0023 89.712 70.0023 89.712C69.4586 89.576 69.0508 89.3042 68.643 88.7605C67.9634 87.6731 67.6915 85.906 68.0993 84.139C68.643 81.2845 70.2741 79.3815 71.9053 79.6534C72.449 79.7893 72.8568 80.0611 73.2645 80.6048C73.9442 81.6923 74.216 83.4593 73.8082 85.2264C73.2645 87.809 71.7693 89.712 70.2741 89.712ZM68.5071 84.139C68.2352 85.7701 68.3712 87.4012 69.0508 88.3527C69.3227 88.7605 69.5945 89.0323 70.0023 89.0323C71.2256 89.3042 72.7208 87.4012 73.2645 84.9545C73.5364 83.3234 73.4005 81.6923 72.7208 80.7408C72.449 80.333 72.1771 80.0611 71.7693 80.0611C70.546 79.7893 69.0508 81.6923 68.5071 84.139Z" fill="black"/>
<path d="M54.7785 50.565C54.2348 53.1476 55.0503 55.5943 56.4096 55.8662C57.9048 56.138 59.4 54.235 59.9437 51.5165C60.4874 48.9339 59.6718 46.4872 58.3126 46.2153C56.8174 46.0794 55.1862 47.9824 54.7785 50.565Z" fill="black"/>
<path d="M56.6815 56.138C56.5456 56.138 56.4096 56.138 56.4096 56.138C55.8659 56.002 55.4581 55.7302 55.0504 55.1865C54.3707 54.0991 54.0989 52.332 54.5067 50.565C55.0504 47.7105 56.6815 45.8075 58.3126 46.0794C58.8563 46.2153 59.2641 46.4872 59.6719 47.0309C60.3515 48.1183 60.6234 49.8853 60.2156 51.6524C59.6719 54.235 58.1767 56.138 56.6815 56.138ZM55.0504 50.565C54.7785 52.1961 54.9144 53.8272 55.5941 54.7787C55.8659 55.1865 56.1378 55.4583 56.5456 55.4583C57.7689 55.7302 59.2641 53.8272 59.8078 51.3805C60.0797 49.7494 59.9437 48.1183 59.2641 47.1668C58.9922 46.759 58.7204 46.4872 58.3126 46.4872C56.9533 46.3512 55.4581 48.2542 55.0504 50.565Z" fill="black"/>
<path d="M167.19 141.228C166.646 143.811 167.462 146.258 168.821 146.529C170.316 146.801 171.812 144.898 172.355 142.18C172.899 139.597 172.083 137.15 170.724 136.879C169.229 136.607 167.598 138.51 167.19 141.228Z" fill="black"/>
<path d="M169.093 146.801C168.957 146.801 168.821 146.801 168.821 146.801C168.278 146.665 167.87 146.394 167.462 145.85C166.782 144.762 166.511 142.995 166.918 141.228C167.462 138.374 169.093 136.471 170.724 136.743C171.268 136.879 171.676 137.15 172.084 137.694C172.763 138.782 173.035 140.549 172.627 142.316C172.084 144.898 170.588 146.801 169.093 146.801ZM170.452 137.15C169.229 137.15 167.87 138.918 167.462 141.228C167.19 142.859 167.326 144.491 168.006 145.442C168.278 145.85 168.549 146.122 168.957 146.122C170.181 146.394 171.676 144.491 172.219 142.044C172.491 140.413 172.355 138.782 171.676 137.83C171.404 137.422 171.132 137.15 170.724 137.15C170.588 137.15 170.452 137.15 170.452 137.15Z" fill="black"/>
<path d="M277.971 75.9833C277.835 75.9833 277.563 75.8473 277.427 75.8473C276.204 75.5755 275.116 75.4396 273.893 75.1677C272.534 74.8959 271.174 74.624 269.815 74.4881C267.504 74.0803 265.329 73.6725 263.019 73.2647C259.892 72.721 256.902 72.1773 253.776 71.4977C249.97 70.818 246.164 70.1384 242.494 69.4588C238.144 68.6432 233.794 67.8276 229.309 67.0121C224.415 66.0606 219.522 65.245 214.765 64.2935C209.599 63.3421 204.298 62.3906 199.133 61.4391C193.696 60.4876 188.123 59.4002 182.686 58.4487C177.113 57.3613 171.54 56.4098 165.831 55.3224C160.258 54.2349 154.549 53.2835 148.976 52.196C143.403 51.1086 137.83 50.1571 132.257 49.0697C126.956 48.1182 121.519 47.0308 116.217 46.0793C111.188 45.1278 106.159 44.1763 101.13 43.2249C96.5081 42.4093 91.8866 41.4578 87.265 40.6422C83.1872 39.8267 79.1094 39.1471 75.0316 38.3315C71.6334 37.6519 68.2353 37.1081 64.7012 36.4285C61.9826 35.8848 59.4 35.477 56.6815 34.9333C54.9144 34.6615 53.1474 34.2537 51.2444 33.9818C50.4288 33.8459 49.6133 33.71 48.7977 33.574C47.9821 33.4381 47.0307 33.3022 46.2151 33.0303C46.0792 33.0303 45.8073 33.0303 45.6714 32.8944C45.2636 34.7974 44.8558 36.7004 44.584 38.6033C44.0403 42.1374 43.6325 45.8075 43.2247 49.3416C42.8169 54.2349 42.5451 59.2642 42.681 64.1576C42.681 70.0025 43.0888 75.9833 43.7684 81.8281C44.584 88.3526 45.8073 94.7412 47.7103 101.13C49.6133 107.926 52.1959 114.451 55.3222 120.703C58.4485 126.684 62.1185 132.393 66.3323 137.694C70.1382 142.316 74.352 146.665 78.9735 150.471C83.7309 154.413 88.8962 157.947 94.1973 160.938C99.9063 164.2 105.887 166.783 112.004 169.093C118.664 171.54 125.461 173.443 132.257 174.802C140.277 176.569 148.568 177.657 156.86 178.2C165.151 178.744 173.443 178.472 181.598 177.385C189.346 176.297 196.958 174.53 204.298 171.812C211.095 169.365 217.619 166.103 223.736 162.161C229.852 158.219 235.425 153.598 240.591 148.568C246.028 143.131 250.921 137.15 255.271 130.626C259.485 124.373 263.155 117.713 266.417 110.781C269.135 104.936 271.446 99.0909 273.349 92.9741C274.708 88.6245 275.932 84.4107 277.019 79.9252C277.291 78.5659 277.563 77.2066 277.971 75.8473V75.9833ZM274.029 77.2066C269.543 87.9448 263.698 98.1394 256.766 107.518C249.834 116.761 241.406 125.053 231.891 131.577C223.872 137.15 215.036 141.364 205.657 144.219C195.871 147.209 185.812 148.84 175.618 149.112C164.472 149.52 153.19 148.432 142.18 146.258C132.257 144.355 122.334 141.636 112.955 137.694C104.528 134.16 96.3722 129.674 89.0321 124.237C82.0998 118.936 75.8472 112.819 70.546 105.887C64.0215 97.1879 58.9922 87.4011 55.5941 77.0707C51.924 65.7887 49.8851 54.099 49.2055 42.2734C49.0696 39.5548 48.9336 36.7004 48.9336 33.9818L274.572 75.9833C274.437 76.3911 274.165 76.7988 274.029 77.2066ZM48.5259 34.6615C48.5259 45.5356 49.6133 56.5457 52.1959 67.2839C54.7785 78.1581 58.8563 88.7604 64.7012 98.2753C69.4586 106.023 75.3035 113.227 81.9639 119.344C88.6243 125.325 96.1003 130.49 104.12 134.568C112.819 139.053 122.198 142.316 131.577 144.762C142.859 147.617 154.413 149.52 165.967 149.928C177.249 150.335 188.531 149.52 199.541 146.801C210.415 144.083 220.745 139.733 230.124 133.616C239.503 127.5 247.659 119.888 254.727 111.188C261.659 102.625 267.368 93.246 271.99 83.3233C273.077 81.0126 274.165 78.5659 275.116 76.2551L277.291 76.6629C273.077 88.6245 267.368 100.042 260.3 110.509C253.504 120.567 245.076 129.674 235.425 137.015C227.27 143.267 218.163 148.161 208.512 151.559C198.589 155.093 188.123 156.996 177.521 157.675C165.831 158.355 154.005 157.404 142.315 155.365C131.577 153.462 120.975 150.607 110.916 146.529C101.945 142.859 93.2458 138.102 85.498 132.257C78.1579 126.684 71.6334 120.024 66.3323 112.548C59.4 102.897 54.2348 92.0227 50.9725 80.6048C47.4384 68.2354 45.9432 55.4583 45.9432 42.5452C45.9432 39.6908 46.0792 36.7004 46.2151 33.8459L48.3899 34.2537C48.5258 34.2537 48.5259 34.3896 48.5259 34.6615ZM250.785 136.471C243.853 145.714 235.425 153.869 225.911 160.394C216.668 166.783 206.337 171.404 195.599 174.258C184.045 177.385 172.083 178.336 160.258 177.929C148.024 177.521 135.791 175.482 124.101 172.356C114.043 169.637 104.12 165.831 95.0129 160.666C86.5854 155.908 78.8376 150.199 72.1771 143.267C64.973 135.791 58.9922 127.092 54.6426 117.713C50.021 107.926 47.0307 97.4597 45.2636 86.8574C43.7684 77.6144 43.2247 68.2354 43.4966 58.9924C43.6325 52.4679 44.1762 45.8075 45.2636 39.283C45.3995 38.3315 45.5355 37.38 45.8073 36.2926C45.3995 48.2542 46.2151 60.2157 48.6618 71.9055C51.1085 83.4593 55.1863 94.7412 61.1671 104.936C65.2449 112.412 70.6819 119.208 76.7987 125.189C83.1872 131.306 90.2554 136.471 98.0033 140.685C106.295 145.306 115.13 148.84 124.237 151.423C134.84 154.549 145.85 156.588 156.996 157.539C169.229 158.627 181.462 158.219 193.56 155.908C205.793 153.598 217.483 148.976 228.085 142.452C238.552 135.927 247.795 127.364 255.543 117.713C263.019 108.334 269.135 97.7316 273.893 86.7215C274.98 84.1389 276.068 81.4204 277.155 78.7018C274.844 88.7604 267.912 114.043 250.785 136.471Z" fill="black"/>
<path d="M254.727 78.4299C257.853 54.9146 240.047 31.807 217.755 29.0884C183.501 24.8747 172.491 56.1379 172.491 56.1379C171.948 55.5942 171.404 55.1864 170.86 54.7786C164.879 50.1571 157.403 49.7493 150.335 52.0601C150.335 52.0601 154.413 22.6999 124.781 9.7868C104.392 0.815619 77.4784 10.8742 67.6916 33.3022C63.206 32.3507 59.4001 33.1662 58.8564 35.2051C58.3127 37.1081 61.1671 39.5548 65.3809 41.05C60.8953 60.8954 71.0898 81.2844 90.6633 89.0322C112.548 97.7316 137.966 86.9933 147.209 65.1091C148.16 62.2546 149.52 57.0894 149.52 57.0894C153.869 55.1864 158.491 54.6427 162.705 55.8661C166.103 56.8175 168.821 58.8564 170.996 61.3031C170.996 61.3031 170.588 63.6139 170.317 64.8372C167.054 88.4885 183.365 110.645 206.609 114.451C227.27 117.849 246.436 105.479 252.824 86.1778C257.174 87.1293 260.844 86.4496 261.388 84.5467C261.931 82.6437 259.077 79.9251 254.727 78.4299Z" fill="#826BFB"/>
<path d="M255.135 78.294C258.261 54.6427 241.814 32.4866 218.571 28.6807C207.289 26.9136 196.143 29.6322 187.036 36.2926C180.375 41.186 175.482 47.8464 172.627 55.5942C172.219 55.1865 171.812 54.7787 171.268 54.3709C165.695 50.1572 158.491 49.2057 150.879 51.5164C151.423 44.856 150.471 38.0596 147.753 31.807C143.403 21.3406 135.111 13.3209 124.509 9.1072C102.353 0.407871 76.9347 11.1461 67.5557 32.8944C62.9342 32.0789 59.1282 32.8944 58.5845 34.9333C58.0408 36.9722 60.6234 39.5548 64.9731 40.9141C60.6234 61.1672 71.2257 81.2844 90.3915 88.8963C95.2848 90.7993 100.178 91.7508 105.207 91.8867C122.878 92.2945 140.005 81.9641 147.345 64.7013C148.432 62.2547 149.248 59.672 149.792 57.0894C154.413 55.1864 158.763 54.7787 162.705 55.8661C165.831 56.8176 168.549 58.5846 170.724 61.1672C170.452 62.2547 170.317 63.478 170.045 64.5654C166.782 88.2167 183.23 110.645 206.609 114.451C208.512 114.722 210.415 114.994 212.318 114.994C230.532 115.402 247.115 104.12 253.096 86.3137C257.582 87.2652 261.116 86.4497 261.659 84.4108C262.203 82.5078 259.485 79.9252 255.135 78.294ZM146.801 64.7013C137.558 86.4497 112.276 97.1879 90.5274 88.4886C71.4976 81.0126 61.0312 60.8954 65.5168 40.9141V40.6423L65.245 40.5063C61.1671 39.1471 58.4486 36.8363 58.9923 35.0693C59.4001 33.71 61.5749 33.0303 64.4294 33.0303C65.3809 33.0303 66.4683 33.1663 67.5557 33.4381H67.8276L67.9635 33.1663C77.2065 11.418 102.489 0.815652 124.237 9.37905C134.568 13.8646 142.723 21.7484 147.073 32.0789C149.656 38.3315 150.743 45.1278 150.063 51.7883V51.9242C149.927 53.1475 149.792 54.3709 149.52 55.5942V55.7302C149.384 56.1379 149.384 56.5457 149.248 56.9535V57.0894C148.704 59.672 147.889 62.2547 146.801 64.7013ZM162.841 55.5942C161.481 55.1865 160.122 55.0505 158.627 54.9146C155.908 54.7787 152.918 55.4583 149.927 56.6816C150.063 56.4098 150.063 56.002 150.063 55.7302V55.5942C150.199 54.5068 150.471 53.4194 150.471 52.332C157.947 49.8853 165.151 50.8368 170.588 55.0505C171.132 55.4583 171.676 55.8661 172.084 56.2739C171.948 56.5457 171.948 56.8176 171.812 57.0894C171.676 57.3613 171.676 57.6331 171.54 57.905C171.404 58.3128 171.268 58.7206 171.132 59.1283C170.996 59.4002 170.996 59.672 170.86 59.9439C170.724 60.2157 170.724 60.4876 170.588 60.7595C168.685 58.1768 165.967 56.5457 162.841 55.5942ZM261.252 84.5467C260.844 86.3137 257.31 86.9934 253.096 86.0419H252.824L252.688 86.3137C246.3 105.887 226.998 117.577 206.745 114.315C183.637 110.645 167.462 88.4886 170.588 65.1091C170.724 63.8858 170.996 62.6624 171.268 61.575C171.404 61.1672 171.404 60.7595 171.54 60.3517C171.54 60.0798 171.676 59.9439 171.676 59.672C171.812 59.1283 171.948 58.5846 172.084 58.0409C172.219 57.7691 172.219 57.4972 172.355 57.3613C172.491 57.0894 172.627 56.6816 172.627 56.4098C175.346 48.662 180.375 41.8656 187.036 36.9722C194.512 31.3992 203.347 28.6807 212.454 28.9525C214.357 28.9525 216.26 29.2244 218.163 29.4962C241.27 33.1663 257.446 55.3224 254.319 78.7018V78.9737L254.591 79.1096C258.805 80.197 261.659 82.7796 261.252 84.5467Z" fill="black"/>
<path d="M76.9347 33.1665C67.6917 50.837 73.9443 72.1775 91.0711 80.7409C91.4789 80.8769 91.7508 81.1487 92.1586 81.2847C94.6052 82.3721 97.0519 83.1876 99.4986 83.7313C100.45 83.8673 101.402 84.1391 102.353 84.1391C107.246 84.6828 112.276 84.1391 117.033 82.6439C126.004 79.7895 133.888 73.4009 138.646 64.2938C147.889 46.6233 141.636 25.2827 124.509 16.7193C121.383 15.0882 118.121 14.1367 114.722 13.593C109.829 12.7774 104.936 13.1852 100.314 14.4086C99.3627 14.6804 98.4112 14.9523 97.4597 15.3601C95.1489 16.1756 92.8382 17.263 90.6634 18.4864C85.0903 21.8846 80.3329 26.9139 76.9347 33.1665Z" fill="black"/>
<path d="M100.314 14.4083C100.042 37.6519 101.13 60.8954 102.353 84.1389C107.246 84.6826 112.276 84.1389 117.033 82.6437C116.354 62.9343 114.994 43.3608 114.858 23.6514C114.858 20.2532 114.858 16.991 114.858 13.5928C109.965 12.7772 105.072 13.0491 100.314 14.4083Z" fill="white"/>
<path d="M90.7993 18.4862C90.7993 39.4189 91.8867 60.3517 92.1586 81.2845C94.6053 82.3719 97.0519 83.1874 99.4986 83.7311C98.6831 67.284 97.8675 50.7009 97.5957 34.1178C97.4597 27.8651 97.4597 21.6125 97.5957 15.3599C95.149 16.0395 92.9741 17.1269 90.7993 18.4862Z" fill="white"/>
<path d="M141.5 36.1567C138.646 27.4573 132.393 20.1173 124.101 16.1754C121.247 14.8161 118.256 13.8646 115.13 13.3209C110.101 12.5054 105.072 12.7772 100.178 14.1365C99.2267 14.4084 98.2752 14.6802 97.4596 14.9521C95.013 15.7676 92.7022 16.855 90.5274 18.2143C81.6921 23.6514 75.3036 32.7585 73.1287 42.8171C71.0898 52.8757 73.2646 63.6139 79.6532 71.6336C82.9155 75.7114 87.1292 79.2455 92.0226 81.2844C94.4693 82.3718 97.0519 83.1874 99.7704 83.7311C100.586 83.867 101.537 84.003 102.353 84.1389C107.382 84.6826 112.412 84.1389 117.305 82.5078C123.965 80.3329 129.946 76.2551 134.432 70.8181C139.461 64.8373 142.587 57.2254 143.131 49.3416C143.539 45.1279 142.859 40.5063 141.5 36.1567ZM115.81 82.6437C111.596 83.867 107.11 84.2748 102.625 83.8671C101.402 59.4002 100.314 37.2441 100.586 14.6802C105.072 13.4569 109.829 13.185 114.451 13.8646C114.315 22.6999 114.586 31.6711 114.858 40.5063C115.13 49.4775 115.674 58.3128 116.082 67.284C116.354 72.3133 116.489 77.4785 116.625 82.5078C116.354 82.5078 116.082 82.5078 115.81 82.6437ZM98.2752 83.0515C96.2363 82.5078 94.3333 81.9641 92.4304 81.0126C92.2944 72.857 92.0226 64.7013 91.8866 56.5457C91.6148 48.526 91.4789 40.3704 91.207 32.3507C91.0711 27.8651 91.0711 23.2436 91.0711 18.6221C92.9741 17.3987 95.1489 16.4473 97.3237 15.6317C97.1878 23.9232 97.3237 32.2148 97.4596 40.5063C97.7315 49.6134 98.0034 58.7206 98.4111 67.6917C98.683 72.857 98.9548 78.0222 99.2267 83.1874C98.8189 83.1874 98.5471 83.1874 98.2752 83.0515ZM97.8674 34.1178C97.7315 27.0496 97.7315 21.0688 97.8674 15.4958C98.5471 15.2239 99.3626 14.9521 100.178 14.8161C99.9063 37.38 100.858 59.4002 102.217 83.8671C101.402 83.7311 100.722 83.5952 99.9063 83.4593C98.9548 66.6043 98.1393 50.2931 97.8674 34.1178ZM74.6239 61.1672C72.585 55.0505 72.4491 48.2542 73.9443 42.0015C75.4395 35.8848 78.4299 30.1759 82.7795 25.5544C85.0903 23.1077 87.6729 20.9328 90.5274 19.0299C90.5274 27.0496 90.6633 35.2052 90.9352 43.2249C91.207 51.2446 91.3429 59.2643 91.6148 67.284C91.7507 71.7695 91.8866 76.3911 91.8866 80.8767C85.4981 77.8863 80.1969 72.857 76.9347 66.6043C75.9832 64.8373 75.3036 63.0702 74.6239 61.1672ZM138.374 64.0217C133.888 72.721 126.276 79.1096 117.169 82.1C116.897 73.1288 116.489 64.2936 116.082 55.3224C115.674 46.3512 115.266 37.5159 115.13 28.5448C114.994 23.6514 114.994 18.6221 115.13 13.7287C123.286 15.088 130.626 19.4377 135.655 26.0981C140.684 32.6226 143.131 41.186 142.587 49.3416C142.316 54.5068 140.82 59.5361 138.374 64.0217Z" fill="black"/>
<path d="M246.843 73.6725C245.756 93.6538 229.445 108.606 210.415 107.246C210.007 107.246 209.599 107.246 209.192 107.111C206.609 106.839 204.026 106.295 201.716 105.344C200.764 104.936 199.949 104.664 198.997 104.256C194.512 102.217 190.434 99.2268 187.171 95.4208C180.919 88.3526 177.385 78.8377 177.928 68.5073C179.016 48.526 195.327 33.5741 214.357 34.9333C217.891 35.2052 221.153 36.0207 224.415 37.2441C228.901 39.0111 232.979 41.8656 236.377 45.3997C237.057 46.0793 237.736 46.8949 238.416 47.7105C240.047 49.6134 241.406 51.6523 242.63 53.9631C245.62 59.808 247.251 66.6043 246.843 73.6725Z" fill="black"/>
<path d="M236.377 45.5356C224.687 65.6528 211.774 85.0904 198.861 104.392C194.376 102.353 190.298 99.3627 187.036 95.5568C197.638 78.9737 208.92 62.7984 219.114 46.0793C220.881 43.2249 222.512 40.3704 224.28 37.38C228.901 39.1471 232.979 42.0015 236.377 45.5356Z" fill="white"/>
<path d="M242.494 53.9632C231.756 71.9055 220.202 89.4401 209.192 107.247C206.609 106.975 204.026 106.431 201.716 105.479C210.959 91.7509 220.066 77.8863 228.765 63.8858C232.027 58.5847 235.29 53.1476 238.416 47.8464C239.911 49.6135 241.27 51.6524 242.494 53.9632Z" fill="white"/>
<path d="M242.766 53.9631C241.542 51.6524 240.183 49.4776 238.552 47.5746C238.008 46.8949 237.465 46.2153 236.649 45.5357C233.115 41.8656 228.901 39.0112 224.144 37.1082C218.027 34.6615 211.095 34.1178 204.706 35.613C198.725 36.9723 193.152 39.9627 188.667 44.3123C184.453 48.3901 181.191 53.5554 179.424 59.1284C177.521 64.9732 177.113 71.2259 178.064 77.2067C179.016 83.1874 181.599 89.0323 185.269 93.7897C185.676 94.4694 186.22 95.0131 186.764 95.5568C190.162 99.4987 194.24 102.489 198.997 104.664C199.677 104.936 200.492 105.344 201.172 105.615C203.755 106.567 206.337 107.111 209.056 107.518C213.949 108.198 219.25 107.382 224.008 105.751C228.629 103.984 232.979 101.266 236.513 97.7316C243.445 90.7994 247.115 81.2845 247.115 71.4977C247.115 65.381 245.62 59.2643 242.766 53.9631ZM209.056 106.839C206.745 106.567 204.298 106.023 202.123 105.208C207.289 97.5957 212.318 89.9838 217.347 82.236C222.241 74.624 227.134 67.1481 231.756 59.4002C234.066 55.7302 236.241 51.9242 238.416 48.1183C239.911 49.8853 241.135 51.7883 242.222 53.8272C238.008 60.8954 233.659 67.8277 229.309 74.624C224.959 81.4204 220.61 88.2167 216.396 95.0131C213.949 98.955 211.502 102.897 209.056 106.839ZM238.008 47.7105C233.794 54.9146 229.445 61.9828 225.095 69.051C220.202 76.7989 215.308 84.4108 210.279 92.0227C207.425 96.3724 204.434 100.722 201.58 105.072C200.764 104.8 200.085 104.528 199.405 104.12C212.998 83.7312 225.231 65.381 236.513 45.8075C237.057 46.6231 237.6 47.1668 238.008 47.7105ZM198.046 103.576C194.104 101.538 190.434 98.8191 187.579 95.5568C192.473 87.9449 197.366 80.6048 202.395 72.9929C207.289 65.5169 212.318 58.0409 217.075 50.429C219.658 46.2153 222.241 42.0016 224.687 37.7878C229.037 39.5549 232.979 42.2734 236.241 45.5357C224.823 65.1092 212.726 83.5952 198.997 103.984C198.589 103.848 198.318 103.712 198.046 103.576ZM178.2 68.6433C178.608 60.4876 181.734 52.6039 187.172 46.4872C192.745 40.2345 200.356 36.1567 208.648 35.3411C213.813 34.7974 219.114 35.613 224.008 37.38C219.522 45.1279 214.901 52.6039 210.007 60.0799C205.25 67.5558 200.356 74.8959 195.463 82.236C192.609 86.4497 189.89 90.7994 187.172 95.0131C180.783 87.809 177.657 78.43 178.2 68.6433ZM246.572 73.6726C246.164 80.7408 243.717 87.809 239.503 93.5179C235.154 99.3628 228.901 103.712 221.969 105.751C218.027 106.839 213.813 107.247 209.735 106.839C213.949 100.042 218.299 93.246 222.648 86.4497C226.998 79.6533 231.212 72.9929 235.426 66.1966C237.872 62.2547 240.183 58.4487 242.63 54.5068C245.484 60.3517 246.843 67.0121 246.572 73.6726Z" fill="black"/>
<path d="M166.647 90.1197C170.86 89.7119 174.394 93.246 173.851 97.3238C171.676 112.819 164.472 143.947 142.995 140.005C121.383 136.063 128.315 102.353 132.937 86.3137C134.024 82.3718 138.917 80.8766 142.452 83.4592C145.442 85.6341 149.248 87.8089 153.869 89.0322C158.763 90.5274 163.112 90.5274 166.647 90.1197Z" fill="#FEBE30"/>
<path d="M172.355 92.0226C170.86 90.3915 168.821 89.7119 166.647 89.8478C162.161 90.2556 158.083 89.9837 154.005 88.8963C150.063 87.8089 146.393 86.0418 142.587 83.3233C140.684 81.964 138.374 81.6922 136.335 82.3718C134.432 83.0514 133.073 84.4107 132.529 86.3137C128.995 98.5471 124.101 120.975 131.441 132.801C134.024 136.879 137.694 139.325 142.723 140.277C143.811 140.413 144.898 140.549 145.986 140.549C149.928 140.549 153.462 139.461 156.724 137.15C167.87 129.131 172.22 108.742 173.851 97.3238C174.394 95.4208 173.715 93.5178 172.355 92.0226ZM173.579 97.3238C171.948 108.742 167.598 128.859 156.588 136.879C152.646 139.733 148.025 140.82 142.995 139.869C138.238 139.053 134.568 136.607 132.121 132.665C124.917 120.975 129.674 98.819 133.209 86.5855C133.752 84.9544 134.976 83.5951 136.607 83.0514C137.286 82.7796 137.966 82.6437 138.646 82.7796C139.869 82.7796 141.228 83.1874 142.316 84.0029C146.122 86.7215 149.928 88.4885 153.869 89.7119C157.947 90.7993 162.161 91.2071 166.647 90.7993C168.55 90.6633 170.588 91.343 171.948 92.7022C173.307 93.7897 173.851 95.5567 173.579 97.3238Z" fill="black"/>
<path d="M167.87 95.0129C168.957 94.877 169.909 95.9644 169.637 97.0518C167.87 106.431 160.258 139.733 143.811 135.927C125.053 131.441 134.296 98.2752 137.15 89.304C137.558 88.2166 138.781 87.6729 139.597 88.3525C142.451 90.2555 147.209 92.8381 153.462 94.3333C159.442 95.6925 164.472 95.4207 167.87 95.0129Z" fill="white"/>
<path d="M167.734 94.7411C162.976 95.2848 158.219 95.0129 153.462 93.9255C148.568 92.8381 143.811 90.7992 139.733 88.0807C139.189 87.8088 138.646 87.6729 138.102 87.8088C137.558 88.0807 137.014 88.4885 136.878 89.1681C135.655 92.8381 133.344 101.13 132.393 109.965C132.393 109.965 132.393 109.965 132.393 110.101V110.237C131.713 117.305 132.121 124.509 134.976 129.674C135.791 131.17 136.878 132.393 138.102 133.48L138.238 133.616C139.869 134.975 141.636 135.791 143.811 136.335C144.626 136.471 145.442 136.607 146.257 136.607C148.568 136.607 150.743 135.927 152.782 134.704C157.675 131.577 161.481 124.781 164.2 117.713V117.577C167.326 109.421 169.229 100.994 169.909 97.1878C170.045 96.5081 169.909 95.8285 169.365 95.4207C168.957 94.877 168.414 94.7411 167.734 94.7411ZM159.171 95.4207L154.549 114.994L143.403 112.412L147.889 92.8381C149.792 93.5178 151.559 94.0615 153.462 94.6052C155.365 95.0129 157.268 95.2848 159.171 95.4207ZM137.422 89.4399C137.558 89.0322 137.966 88.6244 138.374 88.4885C138.51 88.4885 138.646 88.3525 138.781 88.3525C139.053 88.3525 139.325 88.4884 139.461 88.6244C141.908 90.2555 144.49 91.6148 147.345 92.7022L142.723 112.276L132.937 109.965C133.752 101.266 136.199 92.974 137.422 89.4399ZM135.383 129.402C132.529 124.509 132.257 117.441 132.937 110.509L142.723 112.819L138.102 132.801C137.014 131.849 136.063 130.626 135.383 129.402ZM143.811 135.655C141.772 135.111 140.005 134.296 138.51 133.073L143.131 112.819L154.277 115.402L149.52 135.383C147.753 136.063 145.85 136.199 143.811 135.655ZM152.374 134.16C151.695 134.568 150.879 134.975 150.199 135.247L154.821 115.674L163.384 117.713C160.802 124.509 157.132 131.034 152.374 134.16ZM169.365 97.0519C168.685 100.722 166.782 109.149 163.792 117.169L155.093 115.13L159.85 95.5567C162.569 95.6926 165.287 95.6926 168.006 95.4207C168.414 95.4207 168.821 95.5567 169.093 95.8285C169.229 96.1004 169.501 96.6441 169.365 97.0519Z" fill="black"/>
<path d="M45.6714 90.7993C46.487 94.3334 47.3026 97.1879 48.2541 100.994C44.1763 102.897 37.9236 105.751 33.7099 107.654C29.3602 109.557 25.1465 111.324 20.389 111.868C15.4957 112.412 10.0586 110.916 6.38855 107.382C3.1263 104.256 1.76703 99.9064 1.35925 95.5567C0.951471 91.2071 1.63111 86.8574 2.17481 82.6437C2.85445 77.3425 3.94187 72.0414 5.02928 66.8761C7.47597 56.5457 10.8741 46.3512 14.952 36.5644C16.0394 33.8459 20.1172 33.1662 22.4279 34.3896C25.2824 36.0207 25.6902 39.147 24.6028 41.8656C20.6609 51.5164 17.5346 61.4391 15.3597 71.6336C14.4082 75.9832 13.5927 80.3329 13.049 84.8185C12.5053 88.2167 11.9616 91.8867 12.5053 95.2849C13.4568 102.761 20.9327 100.994 26.2339 98.9549C31.8069 96.6442 40.0984 93.5178 45.6714 90.7993Z" fill="black"/>
<path d="M26.098 45.1278C26.098 45.1278 32.8943 50.5648 23.6513 52.196C17.1268 53.4193 1.4952 53.5552 8.01969 44.9918C8.01969 44.9918 -3.94188 37.6518 4.62152 25.4183L30.1758 28.8165C30.7195 28.9524 31.1273 29.3602 31.3991 29.768C33.3021 33.574 34.3895 41.7296 26.098 45.1278Z" fill="white"/>
<path d="M31.671 29.768C31.3991 29.0884 30.8554 28.6806 30.3117 28.6806L4.48559 25.1465L4.34967 25.2824C1.63113 29.0884 0.679639 32.7584 1.4952 36.2925C2.58262 41.3218 6.66043 44.3122 7.61191 45.1278C6.11672 47.1667 5.84486 48.9337 6.66043 50.1571C7.88377 52.196 11.4179 52.8756 15.0879 53.0115C18.3501 53.1474 21.6124 52.8756 23.7872 52.4678C26.6417 51.9241 28.4087 50.9726 28.6806 49.6133C29.0884 47.8463 27.3213 45.9433 26.6417 45.2637C29.4962 44.0403 31.3991 42.0014 32.3506 39.4188C33.7099 35.8847 32.8943 32.0788 31.671 29.768ZM31.8069 39.2829C30.8554 41.8655 28.9525 43.7685 25.9621 44.9918C25.8261 44.9918 22.428 46.2152 19.8453 46.2152C19.7094 46.2152 19.5735 46.3511 19.5735 46.487C19.5735 46.6229 19.7094 46.7589 19.8453 46.7589C22.428 46.7589 25.4184 45.8074 26.098 45.6715C26.6417 46.0792 28.6806 47.9822 28.2728 49.7493C28.001 50.9726 26.5058 51.7882 23.7872 52.196C19.0298 53.0115 9.24304 53.2834 7.34006 50.1571C6.66043 49.0696 6.93228 47.4385 8.29155 45.6715C10.3305 46.2152 12.0975 46.487 13.049 46.487C13.4568 46.487 13.8646 46.487 13.8646 46.487C14.0005 46.487 14.1364 46.3511 14.1364 46.2152C14.1364 46.0792 14.0005 45.9433 13.8646 45.9433C13.8646 45.9433 11.4179 46.0792 8.29155 45.1278C8.0197 44.9918 3.26225 41.8655 2.17484 36.5644C1.4952 33.1662 2.44669 29.6321 4.89337 26.098L30.3117 29.4961C30.8554 29.6321 31.1273 30.0399 31.2632 30.3117C32.3506 32.2147 33.1662 35.8847 31.8069 39.2829Z" fill="black"/>
<path d="M18.3501 24.0592C18.3501 24.0592 23.7872 -0.407675 31.9428 2.58272C38.3314 5.0294 28.1368 28.6807 28.1368 28.6807L18.3501 24.0592Z" fill="white"/>
<path d="M28.1368 29.0885L17.9423 24.1951V23.9232C18.0782 23.2436 22.0201 5.98086 28.1368 2.58269C29.3601 1.90305 30.5835 1.76713 31.8068 2.31083C32.6224 2.58269 33.1661 3.26232 33.5739 4.07789C36.1565 10.0587 28.4086 28.001 28.1368 28.6807V29.0885ZM18.6219 23.9232L27.8649 28.4088C28.8164 26.0981 35.4768 9.92275 33.1661 4.48567C32.8942 3.6701 32.3505 3.26232 31.6709 2.99047C30.5835 2.58269 29.4961 2.71862 28.4086 3.26232C22.9716 6.25272 19.1656 21.8843 18.6219 23.9232Z" fill="black"/>
<path d="M9.92262 22.6998C9.92262 22.6998 5.70889 0.951473 12.7771 0.271838C21.6123 -0.543724 18.622 23.1076 18.622 23.1076L9.92262 22.6998Z" fill="white"/>
<path d="M9.65079 22.9716V22.6998C9.51486 22.1561 6.52447 6.52447 10.1945 1.49517C10.8741 0.679608 11.6897 0.135901 12.7771 -2.63844e-05C14.1364 -0.135953 15.3597 0.271828 16.3112 1.22332C20.9327 5.98076 19.0298 22.292 18.8938 22.9716V23.2435L9.65079 22.9716ZM13.4567 0.543682C13.3208 0.543682 13.049 0.543682 12.7771 0.543682C11.8256 0.679609 11.146 1.08739 10.6023 1.90295C7.34003 6.38854 9.78672 20.5249 10.0586 22.4279L18.3501 22.6998C18.622 20.5249 20.1172 5.84483 15.9034 1.6311C15.2238 0.951463 14.4082 0.543682 13.4567 0.543682Z" fill="black"/>
<path d="M2.5825 19.0298C4.07769 18.4861 5.98067 18.758 7.33994 19.5735C9.37885 20.7969 10.3303 23.2436 10.874 25.4184C11.2818 27.3214 11.4178 29.6321 9.37885 30.8555C6.52438 32.6225 3.94177 30.5836 2.31064 28.4088C0.815445 26.3699 -0.271971 23.6513 0.407664 21.0687C0.815445 19.9813 1.63101 19.3017 2.5825 19.0298Z" fill="white"/>
<path d="M7.06812 31.8069C4.62144 31.671 2.71846 29.4962 2.17475 28.5447C1.22326 27.3213 -0.679717 24.195 0.271772 21.0687C0.679553 19.9813 1.35919 19.1657 2.4466 18.7579C3.9418 18.2142 5.98071 18.4861 7.4759 19.4376C9.24295 20.525 10.4663 22.5639 11.1459 25.4184C11.8256 28.1369 11.2819 30.1758 9.51481 31.1273C8.69925 31.671 7.88368 31.8069 7.06812 31.8069ZM4.48551 18.8939C3.80587 18.8939 3.26217 18.8939 2.71846 19.1657C1.76697 19.5735 1.08733 20.2531 0.81548 21.2046C-8.16267e-05 24.0591 1.76697 27.0495 2.58253 28.2728C3.53402 29.6321 6.25256 32.4866 9.24295 30.5836C11.1459 29.3603 11.01 27.1854 10.6022 25.4184C9.92259 22.6998 8.69925 20.7969 7.20405 19.7094C6.38849 19.3017 5.437 19.0298 4.48551 18.8939Z" fill="black"/>
<path d="M31.399 29.904C28.1367 23.7873 10.6021 19.5735 7.20397 23.9232C2.58245 29.768 18.4859 35.0692 18.4859 35.0692C18.4859 35.0692 16.0392 39.5548 20.117 41.5937" fill="white"/>
<path d="M19.9812 41.8655C18.6219 41.1859 17.9423 40.3704 17.5345 39.2829C16.9908 37.6518 17.6704 35.8848 17.9423 35.2051C16.1752 34.5255 7.33995 31.2632 6.11661 27.0495C5.70883 25.9621 5.98068 24.7387 6.93217 23.6513C8.15551 22.1561 11.01 21.4765 15.0878 21.7484C21.3404 22.2921 29.496 25.4184 31.6709 29.4962C31.8068 29.6321 31.6709 29.768 31.535 29.904C31.399 30.0399 31.2631 29.904 31.1272 29.768C29.0883 25.8262 21.2045 22.8358 14.9519 22.2921C11.1459 21.8843 8.42737 22.5639 7.33995 23.9232C6.66032 24.8747 6.38846 25.8262 6.66032 26.7777C7.88366 31.1273 18.35 34.5255 18.486 34.6614L18.7578 34.7973L18.6219 35.0692C18.6219 35.0692 17.5345 37.1081 18.0782 39.0111C18.35 39.9626 19.0297 40.7781 20.1171 41.1859C20.253 41.3218 20.253 41.4578 20.253 41.5937C20.253 41.8656 20.1171 41.8655 19.9812 41.8655Z" fill="black"/>
<path d="M282.456 166.918C280.417 175.21 272.262 179.831 264.242 180.511C255.407 181.327 246.164 180.375 237.193 180.103C227.95 179.831 218.842 179.56 209.599 179.288C204.434 179.152 203.483 173.443 205.929 170.317C206.881 169.093 208.376 168.278 210.415 168.278H210.551C220.881 168.549 231.348 168.957 241.678 169.229C246.707 169.365 251.737 169.501 256.766 169.637C260.708 169.773 265.329 169.909 268.864 167.598C271.718 165.695 272.126 163.112 271.446 159.986C270.495 155.636 268.456 151.559 266.689 147.481C264.106 141.364 259.621 133.48 256.63 127.635C259.213 124.101 261.659 120.024 263.834 115.81C267.912 123.694 273.077 134.432 276.475 142.587C280.01 150.199 284.495 158.627 282.456 166.918Z" fill="black"/>
<path d="M214.085 165.967C214.085 165.967 219.93 161.753 221.017 166.511C221.833 170.181 221.289 178.064 220.881 181.598C220.745 183.23 219.658 184.725 218.163 185.269C217.211 185.676 214.493 184.997 213.269 184.045C210.823 185.812 207.425 189.21 201.036 189.89C196.279 190.298 191.113 189.618 186.764 187.851C184.453 186.9 182.414 185.54 181.191 183.366C180.511 182.142 179.967 180.783 179.967 179.288C179.967 178.608 180.239 177.928 180.511 177.249C180.647 177.113 181.327 175.89 181.327 175.89C181.327 175.89 177.249 169.773 184.045 166.918C184.045 166.918 178.336 156.86 193.424 159.306C194.376 159.442 195.191 155.365 198.725 153.733C199.269 153.462 202.939 151.695 206.745 153.054C211.231 154.549 214.493 159.85 214.085 165.967Z" fill="white"/>
<path d="M221.289 166.375C221.017 165.151 220.474 164.472 219.522 164.064C217.755 163.384 215.444 164.743 214.357 165.423C214.493 159.442 211.502 154.277 206.881 152.782C203.075 151.559 199.405 153.19 198.725 153.597C196.55 154.685 195.327 156.724 194.511 157.947C194.24 158.491 193.832 159.17 193.56 159.17C188.259 158.355 184.861 158.899 183.501 160.802C182.006 162.976 183.365 165.967 183.773 166.782C181.87 167.598 180.647 168.821 180.103 170.317C179.424 172.763 180.647 175.21 181.055 175.754C180.783 176.025 180.375 176.841 180.239 176.977C179.831 177.657 179.695 178.336 179.695 179.152C179.695 180.783 180.375 182.278 180.919 183.365C182.142 185.268 183.909 186.764 186.628 187.987C190.57 189.618 195.055 190.434 199.677 190.162C200.22 190.162 200.628 190.162 201.172 190.026C206.609 189.482 209.871 187.036 212.182 185.133C212.59 184.861 212.998 184.589 213.269 184.317C214.629 185.268 217.211 185.812 218.163 185.404C219.794 184.861 220.881 183.23 221.017 181.463C221.425 178.2 222.105 170.045 221.289 166.375ZM220.609 181.463C220.474 183.094 219.522 184.453 218.027 184.997C217.211 185.268 214.765 184.861 213.541 183.909V179.695C213.541 179.56 213.405 179.424 213.269 179.424C213.133 179.424 212.998 179.56 212.998 179.695V183.909C212.59 184.181 212.182 184.453 211.774 184.861C209.463 186.628 206.201 189.074 201.036 189.618C196.143 190.026 191.113 189.346 186.764 187.579C184.181 186.492 182.414 184.997 181.327 183.23C180.783 182.278 180.103 180.919 180.239 179.424C180.239 178.744 180.375 178.064 180.783 177.521C180.919 177.385 181.327 176.569 181.598 176.297L187.443 177.249C187.579 177.249 187.715 177.113 187.715 176.977C187.715 176.841 187.579 176.705 187.443 176.705L181.598 175.754C181.327 175.21 179.967 172.899 180.647 170.724C181.055 169.365 182.278 168.142 184.045 167.462C184.045 167.462 184.045 167.462 184.181 167.462L189.89 168.957C189.89 168.957 189.89 168.957 190.026 168.957C190.162 168.957 190.298 168.821 190.298 168.685C190.298 168.549 190.298 168.414 190.162 168.414L184.453 166.918C184.181 166.511 182.55 163.248 184.045 161.209C184.861 160.122 186.356 159.442 188.531 159.442C189.89 159.442 191.521 159.442 193.56 159.85L201.852 161.481C201.987 161.481 202.123 161.345 202.123 161.209C202.123 161.073 202.123 160.938 201.852 160.938L194.24 159.442C194.511 159.17 194.647 158.763 194.919 158.355C195.735 157.132 196.822 155.229 198.997 154.141C199.677 153.869 203.211 152.238 206.745 153.462C211.231 154.957 214.221 160.258 213.813 166.103V166.646L213.677 172.084C213.677 172.219 213.813 172.355 213.949 172.355C214.085 172.355 214.221 172.219 214.221 172.084L214.357 166.239C214.901 165.831 217.619 164.064 219.25 164.743C219.93 165.015 220.474 165.695 220.609 166.646C221.561 170.045 220.881 178.2 220.609 181.463Z" fill="black"/>
<path d="M230.804 207.289H264.922C265.058 207.289 265.194 207.425 265.194 207.561C265.194 207.696 265.058 207.832 264.922 207.832H230.804C230.668 207.832 230.532 207.696 230.532 207.561C230.532 207.425 230.532 207.289 230.804 207.289Z" fill="black"/>
<path d="M238.824 200.22H277.019C277.155 200.22 277.291 200.356 277.291 200.492C277.291 200.628 277.155 200.764 277.019 200.764H238.824C238.688 200.764 238.552 200.628 238.552 200.492C238.552 200.356 238.688 200.22 238.824 200.22Z" fill="black"/>
<path d="M122.062 282.32H156.18C156.316 282.32 156.452 282.456 156.452 282.592C156.452 282.728 156.316 282.864 156.18 282.864H122.062C121.926 282.864 121.791 282.728 121.791 282.592C121.791 282.456 121.791 282.32 122.062 282.32Z" fill="black"/>
<path d="M130.082 275.252H168.278C168.413 275.252 168.549 275.388 168.549 275.524C168.549 275.66 168.413 275.796 168.278 275.796H130.082C129.946 275.796 129.81 275.66 129.81 275.524C129.81 275.388 129.946 275.252 130.082 275.252Z" fill="black"/>
<path d="M39.9625 172.763H74.0802C74.2161 172.763 74.3521 172.899 74.3521 173.035C74.3521 173.171 74.2161 173.307 74.0802 173.307H39.9625C39.8266 173.307 39.6907 173.171 39.6907 173.035C39.6907 172.899 39.8266 172.763 39.9625 172.763Z" fill="black"/>
<path d="M27.865 179.831H66.0605C66.1964 179.831 66.3323 179.967 66.3323 180.103C66.3323 180.239 66.1964 180.375 66.0605 180.375H27.865C27.7291 180.375 27.5931 180.239 27.5931 180.103C27.5931 179.967 27.7291 179.831 27.865 179.831Z" fill="black"/>
</g>
<defs>
<clipPath id="clip0_1_549">
<rect width="283" height="283" fill="white"/>
</clipPath>
</defs>
</svg>
