<svg width="187" height="179" viewBox="0 0 187 179" fill="none" xmlns="http://www.w3.org/2000/svg">
<path d="M52.5908 49.2642C61.2925 41.4301 61.2769 27.2266 52.5559 17.5398C43.8349 7.85299 29.711 6.35108 21.0093 14.1852C12.3075 22.0193 12.3232 36.2228 21.0442 45.9096C29.7652 55.5964 43.8891 57.0984 52.5908 49.2642Z" fill="black"/>
<path d="M39.212 54.5067C31.112 54.5067 22.712 50.0067 18.012 42.1067C14.612 36.4067 13.512 29.7067 15.112 23.8067C16.512 18.5067 19.912 14.1067 24.612 11.6067C35.012 5.90668 48.912 10.3067 55.712 21.5067C59.112 27.2067 60.212 33.9067 58.612 39.8067C57.212 45.1067 53.812 49.5067 49.112 52.0067C46.012 53.7067 42.612 54.5067 39.212 54.5067ZM34.412 9.40668C31.012 9.40668 27.712 10.2067 24.712 11.8067C20.112 14.3067 16.812 18.6067 15.412 23.8067C13.812 29.7067 14.912 36.2067 18.312 41.8067C25.012 52.8067 38.712 57.1067 48.912 51.5067C53.512 49.0067 56.812 44.7067 58.212 39.5067C59.812 33.6067 58.712 27.1067 55.312 21.5067C50.612 13.9067 42.412 9.40668 34.412 9.40668Z" fill="black"/>
<path d="M163.407 47.9163C173.151 39.1767 174.742 25.0597 166.961 16.385C159.18 7.71037 144.974 7.76304 135.23 16.5027C125.487 25.2423 123.896 39.3593 131.676 48.034C139.457 56.7086 153.664 56.656 163.407 47.9163Z" fill="black"/>
<path d="M146.612 54.7063C142.412 54.7063 138.312 53.5063 134.812 51.1063C130.412 48.1063 127.612 43.5063 126.812 38.1063C125.812 32.0063 127.612 25.4063 131.712 20.0063C139.712 9.60634 154.012 6.60634 163.712 13.3063C168.112 16.3063 170.912 20.9063 171.712 26.3063C172.712 32.4063 170.912 39.0063 166.812 44.4063C161.812 51.0063 154.112 54.7063 146.612 54.7063ZM152.012 10.1063C144.712 10.1063 137.112 13.7063 132.112 20.2063C128.112 25.5063 126.312 31.9063 127.212 38.0063C128.012 43.3063 130.812 47.8063 135.112 50.7063C144.612 57.3063 158.712 54.3063 166.612 44.1063C170.612 38.8063 172.412 32.4063 171.512 26.3063C170.712 21.0063 167.912 16.5063 163.612 13.6063C160.112 11.3063 156.112 10.1063 152.012 10.1063Z" fill="black"/>
<path d="M159.113 128.307C159.113 148.407 158.213 164.907 156.713 178.407H30.6126C28.8126 164.907 27.9126 148.407 27.9126 128.307C27.9126 51.7068 57.2126 14.0068 93.5126 14.0068C129.713 14.0068 159.113 50.4068 159.113 128.307Z" fill="#826BFB"/>
<path d="M156.912 178.607H30.4124V178.407C28.6124 164.607 27.7124 147.707 27.7124 128.207C27.7124 92.1066 34.4124 62.4066 47.0124 42.2066C58.6124 23.6066 74.7124 13.8066 93.5124 13.8066C112.412 13.8066 128.512 23.5066 140.112 41.8066C152.712 61.8066 159.412 91.7066 159.412 128.307C159.412 147.807 158.612 164.707 157.012 178.507L156.912 178.607ZM30.7124 178.207H156.512C158.112 164.407 158.912 147.607 158.912 128.307C158.912 91.8066 152.312 62.0066 139.712 42.0066C128.212 23.8066 112.312 14.2066 93.5124 14.2066C74.8124 14.2066 58.9124 24.0066 47.3124 42.6066C34.7124 62.7066 28.1124 92.3066 28.1124 128.407C28.1124 147.707 29.0124 164.507 30.7124 178.207Z" fill="black"/>
<path d="M95.2123 109.107C88.5123 109.207 83.4123 105.907 77.3123 106.007C73.9123 106.007 70.5123 106.707 70.4123 110.607C70.1123 117.607 75.3123 122.507 81.7123 125.507C90.0123 129.407 99.8123 130.007 107.912 126.007C117.712 121.207 122.112 115.107 120.812 109.807C119.912 106.107 117.012 105.407 113.512 105.507C107.412 105.507 101.312 108.907 95.2123 109.107Z" fill="white"/>
<path d="M121.012 109.706C120.012 105.606 116.712 105.106 113.512 105.206C110.412 105.306 107.312 106.206 104.312 107.006C101.312 107.906 98.2121 108.806 95.2121 108.806C91.8121 108.906 88.8121 108.006 85.8121 107.206C84.7121 106.906 83.6121 106.606 82.5121 106.306H82.4121C80.7121 105.906 79.1121 105.706 77.3121 105.706C74.3121 105.706 70.4121 106.206 70.2121 110.506C70.0121 114.806 71.8121 120.906 81.6121 125.606C86.2121 127.806 91.1121 128.906 95.8121 128.906C100.112 128.906 104.312 128.006 108.012 126.206C117.412 121.406 122.312 115.306 121.012 109.706ZM94.8121 109.306L94.9121 128.506C90.7121 128.406 86.4121 127.406 82.4121 125.606L82.6121 106.906C83.6121 107.106 84.6121 107.406 85.7121 107.706C88.5121 108.506 91.5121 109.306 94.8121 109.306ZM70.5121 110.506C70.7121 106.706 74.2121 106.206 77.2121 106.106H77.3121C79.0121 106.106 80.5121 106.306 82.1121 106.706L81.9121 125.306C81.8121 125.306 81.7121 125.206 81.6121 125.206C76.4121 122.706 70.2121 118.106 70.5121 110.506ZM95.4121 128.406L95.3121 109.206C98.4121 109.106 101.512 108.206 104.512 107.406C105.312 107.206 106.112 107.006 106.812 106.706L107.312 125.906C103.612 127.706 99.6121 128.506 95.4121 128.406ZM107.812 125.806C107.812 125.806 107.712 125.806 107.712 125.906L107.212 106.806C109.312 106.206 111.512 105.806 113.612 105.706C116.612 105.606 119.812 106.106 120.712 109.906C121.812 115.206 117.112 121.206 107.812 125.806Z" fill="black"/>
<path d="M82.2124 76.9065C82.2124 82.8065 81.1124 88.9065 78.6124 94.3065C76.6124 98.6065 73.7124 102.807 69.6124 105.207C67.5124 106.407 65.1124 107.207 62.7124 107.207C60.7124 107.207 58.7124 106.707 56.9124 105.807C52.8124 103.707 49.7124 99.8065 47.7124 95.7065C45.1124 90.6065 43.9124 84.8065 43.6124 79.1065C43.3124 73.1065 44.2124 67.0065 46.3124 61.3065C48.0124 56.8065 50.7124 52.4065 54.6124 49.4065C58.2124 46.7065 62.8124 45.6065 67.2124 47.2065C71.5124 48.7065 74.8124 52.3065 77.1124 56.1065C80.0124 61.0065 81.5124 66.6065 82.0124 72.2065C82.1124 73.9065 82.2124 75.4065 82.2124 76.9065Z" fill="white"/>
<path d="M80.2124 90.2067C78.3124 96.2067 74.8124 102.407 69.2124 105.507C66.5124 107.007 63.4124 107.507 60.4124 107.007C57.6124 106.507 55.1124 104.907 53.0124 103.007C50.2124 100.407 48.2124 97.0067 46.7124 93.5067C46.8124 89.2067 47.8124 84.9067 49.7124 81.0067C51.3124 77.8067 53.7124 74.8067 56.8124 72.9067C59.7124 71.1067 63.1124 70.5067 66.4124 71.3067C69.9124 72.1067 72.8124 74.4067 75.0124 77.2067C77.6124 80.5067 79.2124 84.5067 80.0124 88.6067C80.0124 89.0067 80.1124 89.6067 80.2124 90.2067Z" fill="black"/>
<path d="M82.4122 77.0068C82.4122 72.5068 81.8122 67.9068 80.5122 63.6068C79.3122 59.8068 77.6122 56.2068 75.2122 53.1068C73.1122 50.5068 70.5122 48.2068 67.4122 47.1068C63.8122 45.8068 59.9122 46.2068 56.5122 48.1068C52.9122 50.1068 50.1122 53.5068 48.1122 57.1068C47.8122 57.6068 47.5122 58.1068 47.3122 58.7068C44.5122 56.5068 41.7122 54.3068 38.9122 52.1068C38.6122 51.9068 38.2122 51.5068 37.9122 51.3068C37.6122 51.2068 37.5122 51.4068 37.7122 51.6068L37.8122 51.7068C38.0122 51.9068 38.2122 52.0068 38.4122 52.1068C40.0122 53.4068 41.7122 54.7068 43.3122 55.9068C44.2122 56.6068 45.1122 57.3068 46.0122 58.0068C46.4122 58.3068 46.8122 58.7068 47.2122 58.9068C46.4122 60.6068 45.7122 62.4068 45.2122 64.3068C41.7122 63.1068 38.2122 62.0068 34.6122 60.8068C34.3122 60.7068 34.0122 60.6068 33.7122 60.5068C33.6122 60.5068 33.4122 60.4068 33.3122 60.4068C33.0122 60.4068 32.9122 60.6068 33.2122 60.8068H33.3122C33.5122 60.9068 33.8122 61.0068 34.0122 61.0068C36.0122 61.7068 38.1122 62.3068 40.1122 63.0068C41.8122 63.5068 43.4122 64.1068 45.1122 64.6068C44.4122 67.0068 44.0122 69.6068 43.7122 72.3068C40.3122 71.5068 37.0122 70.8068 33.6122 70.0068C33.2122 69.9068 32.8122 69.7068 32.4122 69.7068C32.1122 69.7068 32.1122 70.0068 32.3122 70.1068H32.4122C32.6122 70.2068 32.8122 70.2068 33.1122 70.3068C35.0122 70.7068 37.0122 71.2068 38.9122 71.6068C40.5122 72.0068 42.1122 72.3068 43.6122 72.7068C43.2122 77.7068 43.5122 82.9068 44.7122 87.8068C45.8122 92.3068 47.7122 96.8068 50.7122 100.507C53.6122 104.107 57.7122 107.007 62.5122 107.107C66.7122 107.207 70.6122 105.107 73.5122 102.207C76.5122 99.2068 78.5122 95.4068 80.0122 91.4068C80.2122 90.9068 80.3122 90.4068 80.5122 89.9068C81.6122 86.1068 82.3122 81.6068 82.4122 77.0068ZM63.0122 46.7068C68.9122 46.7068 73.6122 50.9068 76.6122 55.7068C80.2122 61.5068 81.9122 68.6068 82.0122 75.4068C82.1122 80.0068 81.6122 84.7068 80.3122 89.2068C79.6122 85.1068 78.1122 81.1068 75.7122 77.7068C73.7122 74.9068 70.9122 72.5068 67.6122 71.4068C64.5122 70.3068 61.0122 70.6068 58.1122 72.0068C54.9122 73.5068 52.4122 76.2068 50.6122 79.2068C48.5122 82.7068 47.3122 86.8068 46.8122 90.9068C46.7122 91.5068 46.7122 92.0068 46.7122 92.6068C43.6122 84.6068 43.2122 75.4068 45.0122 67.1068C46.4122 60.7068 49.4122 54.0068 54.7122 49.9068C57.0122 47.9068 59.9122 46.7068 63.0122 46.7068ZM69.5122 105.007C66.2122 107.007 62.3122 107.507 58.7122 106.307C55.1122 105.107 52.2122 102.307 50.0122 99.2068C48.7122 97.4068 47.7122 95.4068 46.9122 93.4068C47.0122 89.1068 47.9122 84.8068 49.9122 81.0068C51.5122 77.8068 53.8122 74.8068 56.9122 72.9068C59.7122 71.2068 63.1122 70.6068 66.3122 71.3068C69.7122 72.1068 72.6122 74.3068 74.7122 77.0068C77.3122 80.2068 78.9122 84.2068 79.7122 88.3068C79.8122 88.9068 79.9122 89.4068 80.0122 90.0068C77.8122 96.9068 74.1122 102.307 69.5122 105.007Z" fill="black"/>
<path d="M143.212 77.3063C143.012 83.2063 141.812 89.2063 139.212 94.6063C137.112 98.9063 134.112 102.906 129.912 105.306C127.812 106.506 125.412 107.106 123.012 107.106C121.012 107.006 119.012 106.506 117.212 105.506C113.112 103.306 110.212 99.4063 108.312 95.3063C105.812 90.1063 104.712 84.3063 104.612 78.5063C104.512 72.5063 105.512 66.4063 107.812 60.9063C109.612 56.4063 112.412 52.1063 116.412 49.3063C120.112 46.6063 124.712 45.7063 129.012 47.3063C133.312 48.9063 136.512 52.5063 138.712 56.5063C141.512 61.5063 142.812 67.2063 143.212 72.8063C143.312 74.2063 143.312 75.8063 143.212 77.3063Z" fill="white"/>
<path d="M140.913 90.4068C138.813 96.4068 135.213 102.607 129.413 105.507C126.713 106.907 123.613 107.307 120.613 106.707C117.813 106.107 115.312 104.507 113.312 102.507C110.612 99.8068 108.712 96.4068 107.312 92.9068C107.513 88.6068 108.613 84.3068 110.613 80.4068C112.313 77.2068 114.713 74.2068 117.913 72.4068C120.813 70.7068 124.312 70.2068 127.512 71.1068C131.012 72.0068 133.812 74.4068 136.012 77.3068C138.512 80.7068 140.012 84.7068 140.712 88.9068C140.812 89.3068 140.813 89.9068 140.913 90.4068Z" fill="black"/>
<path d="M154.212 66.5065L142.912 68.5065C142.512 66.1065 142.012 63.9065 141.312 61.8065C144.712 60.6065 148.112 59.4065 151.512 58.2065C151.912 58.1065 152.412 58.0065 152.812 57.7065C153.112 57.5065 152.812 57.3065 152.512 57.4065C152.312 57.5065 152.112 57.6065 151.812 57.6065C149.812 58.3065 147.812 59.0065 145.912 59.7065C144.312 60.3065 142.712 60.8065 141.112 61.4065C140.412 59.6065 139.712 57.8065 138.812 56.2065C139.112 56.0065 139.412 55.7065 139.712 55.4065C140.412 54.8065 141.112 54.1065 141.812 53.5065C143.412 52.1065 145.012 50.6065 146.512 49.2065C146.812 48.9065 147.312 48.6065 147.512 48.3065C147.712 48.0065 147.412 47.9065 147.212 48.1065C147.012 48.2065 146.912 48.4065 146.712 48.6065C145.212 49.9065 143.712 51.3065 142.312 52.6065C141.112 53.7065 139.912 54.8065 138.712 55.9065C136.712 52.4065 133.812 49.1065 130.012 47.4065C126.812 45.9065 123.212 45.8065 119.912 47.1065C113.512 49.6065 109.412 56.1065 107.112 62.3065C104.012 70.7065 103.612 80.4065 105.912 89.0065C108.112 97.4065 114.112 107.607 123.912 107.307C131.712 107.007 137.212 100.007 140.012 93.4065C140.412 92.5065 140.812 91.5065 141.112 90.5065C142.912 85.2065 143.712 79.5065 143.412 73.9065C143.312 72.3065 143.212 70.6065 142.912 69.0065C146.312 68.4065 149.712 67.8065 153.012 67.2065C153.312 67.1065 153.612 67.1065 153.912 67.0065C154.012 67.0065 154.012 67.0065 154.112 67.0065C154.512 66.8065 154.512 66.5065 154.212 66.5065ZM109.212 96.5065C108.612 95.3065 108.012 94.1065 107.512 92.8065C107.712 88.5065 108.812 84.2065 110.812 80.4065C112.512 77.2065 114.912 74.3065 118.012 72.5065C120.912 70.9065 124.312 70.3065 127.512 71.2065C130.912 72.1065 133.712 74.4065 135.812 77.2065C138.312 80.5065 139.812 84.6065 140.512 88.7065C140.612 89.3065 140.712 89.8065 140.712 90.4065C138.912 95.5065 136.012 100.707 131.612 103.907C129.712 105.307 127.612 106.307 125.312 106.607C122.212 107.107 118.912 106.307 116.312 104.607C113.212 102.707 110.912 99.7065 109.212 96.5065ZM143.012 77.3065C142.912 81.6065 142.112 85.8065 141.012 89.5065C140.412 85.4065 139.112 81.3065 136.712 77.8065C134.712 74.9065 132.012 72.4065 128.712 71.2065C125.612 70.1065 122.112 70.2065 119.112 71.6065C115.912 73.0065 113.312 75.6065 111.412 78.6065C109.212 82.1065 107.912 86.2065 107.312 90.3065C107.212 90.9065 107.212 91.4065 107.112 92.0065C104.612 84.9065 104.212 76.9065 105.512 69.5065C106.612 63.5065 108.812 57.4065 112.812 52.8065C116.112 49.0065 120.812 46.2065 126.012 46.8065C131.312 47.5065 135.512 51.6065 138.112 56.0065C141.412 61.6065 142.812 68.3065 143.012 74.7065C143.112 75.5065 143.112 76.4065 143.012 77.3065Z" fill="black"/>
<g opacity="0.51">
<path d="M151.17 98.9561C151.282 91.3353 140.494 84.9981 127.075 84.8016C113.656 84.6051 102.687 90.6236 102.575 98.2443C102.464 105.865 113.251 112.202 126.671 112.399C140.09 112.595 151.059 106.577 151.17 98.9561Z" fill="#00BE70"/>
</g>
<g opacity="0.51">
<path d="M84.8319 98.9219C84.9435 91.3012 74.1556 84.964 60.7364 84.7674C47.3173 84.5709 36.3484 90.5894 36.2368 98.2102C36.1252 105.831 46.9131 112.168 60.3322 112.365C73.7514 112.561 84.7203 106.543 84.8319 98.9219Z" fill="#00BE70"/>
</g>
<path d="M144.312 88.9063C139.712 86.2063 133.612 84.7063 127.112 84.6063C117.112 84.5063 108.412 87.8063 104.512 92.7063C100.212 89.1063 95.2123 87.9063 90.6123 89.6063C88.2123 90.5063 86.0122 92.1063 83.9123 94.4063C82.7122 92.4063 80.8123 90.5063 78.1123 88.9063C73.5123 86.2063 67.4123 84.7063 60.9123 84.6063C47.4123 84.4063 36.3123 90.5063 36.2123 98.3063C36.1123 102.106 38.7123 105.606 43.3123 108.406C47.9123 111.106 54.0123 112.606 60.5123 112.706C60.7123 112.706 60.9123 112.706 61.1123 112.706C67.4123 112.706 73.3123 111.306 77.8123 108.906C82.5123 106.306 85.1123 102.806 85.2123 99.1063C85.2123 98.7063 85.2123 98.4063 85.1123 98.0063C88.1123 94.0063 91.4123 92.1063 95.1123 92.2063C97.7123 92.2063 100.512 93.4063 102.912 95.6063C102.512 96.5063 102.312 97.5063 102.312 98.5063C102.212 102.306 104.812 105.806 109.412 108.606C114.012 111.306 120.112 112.806 126.612 112.906C126.812 112.906 127.012 112.906 127.212 112.906C133.512 112.906 139.412 111.506 143.912 109.106C148.612 106.506 151.212 103.006 151.312 99.3063C151.412 95.2063 148.912 91.6063 144.312 88.9063ZM77.5122 108.406C72.9123 110.906 66.8123 112.306 60.3123 112.206C53.8123 112.106 47.8123 110.606 43.3123 107.906C38.8123 105.306 36.4123 101.806 36.4123 98.2063C36.5123 90.8063 47.1123 84.9063 60.1123 84.9063C60.3123 84.9063 60.5123 84.9063 60.7123 84.9063C67.2123 85.0063 73.2123 86.5063 77.7123 89.2063C80.4123 90.8063 82.3123 92.6063 83.4123 94.6063L83.5122 94.7063C84.0122 95.7063 84.4123 96.7063 84.5122 97.7063V97.9063C84.5122 98.2063 84.6122 98.5063 84.5122 98.8063C84.6122 102.506 82.1122 105.906 77.5122 108.406ZM143.812 108.406C139.212 110.906 133.112 112.306 126.612 112.206C120.112 112.106 114.112 110.606 109.612 107.906C105.112 105.306 102.712 101.806 102.712 98.2063C102.712 97.3063 102.912 96.4063 103.212 95.5063L103.312 95.4063C103.312 95.3063 103.412 95.3063 103.412 95.2063C103.512 95.1063 103.512 94.9063 103.612 94.8063C106.412 89.0063 115.912 84.8063 127.112 85.0063C133.612 85.1063 139.612 86.6063 144.112 89.3063C148.612 91.9063 151.012 95.4063 151.012 99.0063C150.912 102.506 148.412 105.906 143.812 108.406Z" fill="black"/>
<path d="M94.7123 102.107C97.8051 102.107 100.312 99.5551 100.312 96.407C100.312 93.259 97.8051 90.707 94.7123 90.707C91.6195 90.707 89.1123 93.259 89.1123 96.407C89.1123 99.5551 91.6195 102.107 94.7123 102.107Z" fill="#F06416"/>
<path d="M94.7121 102.307C91.5121 102.307 88.9121 99.7068 88.9121 96.4068C88.9121 93.2068 91.5121 90.5068 94.7121 90.5068C97.9121 90.5068 100.512 93.1068 100.512 96.4068C100.612 99.7068 98.0121 102.307 94.7121 102.307ZM94.7121 90.9068C91.7121 90.9068 89.3121 93.4068 89.3121 96.4068C89.3121 99.4068 91.7121 101.907 94.7121 101.907C97.7121 101.907 100.112 99.4068 100.112 96.4068C100.212 93.4068 97.7121 90.9068 94.7121 90.9068Z" fill="black"/>
<path d="M143.212 133.707L103.312 142.407C101.412 141.307 98.912 140.207 95.812 140.207C92.412 140.107 89.612 141.207 87.612 142.407L48.112 133.807C48.112 133.807 46.812 157.407 64.812 161.907C78.812 165.407 86.012 155.807 89.312 149.107C91.112 148.207 93.312 147.507 95.912 147.607C98.512 147.707 100.712 148.607 102.412 149.607C105.712 156.307 113.012 165.307 126.612 161.907C144.512 157.307 143.212 133.707 143.212 133.707Z" fill="#FEBE30"/>
<path d="M70.4118 162.707C68.6118 162.707 66.7118 162.507 64.7118 162.007C55.3118 159.707 51.3118 152.107 49.5118 146.107C47.6118 139.707 47.9118 133.707 47.9118 133.707V133.507L87.6118 142.107C90.2118 140.607 93.0118 139.907 95.8118 140.007C98.4118 140.107 100.912 140.807 103.312 142.207L143.412 133.507V133.707C143.412 133.807 143.712 139.707 141.812 146.107C140.012 152.007 136.012 159.607 126.612 162.007C112.612 165.507 105.312 155.807 102.212 149.607C100.212 148.407 98.1118 147.707 95.9118 147.707C93.7118 147.607 91.5118 148.107 89.5118 149.207C86.7118 154.607 81.0118 162.707 70.4118 162.707ZM95.3118 147.207C95.5118 147.207 95.6118 147.207 95.8118 147.207C98.1118 147.307 100.312 148.007 102.412 149.207H102.512V149.307C109.212 162.707 119.312 163.307 126.512 161.507C143.112 157.307 143.112 136.407 143.012 133.907L103.312 142.607H103.212C100.812 141.207 98.3118 140.507 95.8118 140.407C93.0118 140.307 90.3118 141.007 87.7118 142.507H87.6118L48.3118 133.907C48.2118 136.407 48.2118 157.407 64.8118 161.507C78.8118 165.007 86.0118 155.007 89.0118 148.807V148.707H89.1118C91.1118 147.807 93.2118 147.207 95.3118 147.207Z" fill="black"/>
<path d="M43.212 157.907C38.612 160.007 33.912 161.907 29.112 163.607C25.412 164.907 21.612 166.107 17.812 167.207C14.012 168.307 10.012 168.907 6.21205 167.407C2.11205 165.707 -0.187955 161.807 0.0120452 157.607C0.212045 153.407 2.71205 149.807 5.01205 146.307C7.21205 142.907 9.51204 139.507 11.812 136.107C16.812 128.907 22.112 122.007 27.612 115.207C27.812 115.007 27.912 114.807 28.112 114.707C28.012 118.407 27.912 122.307 27.912 126.207C27.912 127.107 27.912 128.007 27.912 128.907C25.712 131.807 23.512 134.707 21.412 137.707C17.412 143.307 13.112 149.007 10.012 155.007C9.31205 156.407 8.01204 158.907 10.112 159.707C12.512 160.607 16.212 158.907 18.512 158.207C21.912 157.107 25.312 156.007 28.612 154.707C32.312 153.307 35.912 151.807 39.512 150.207C44.712 147.807 48.412 155.607 43.212 157.907Z" fill="black"/>
<path d="M35.6118 148.007C36.4118 149.507 38.3118 150.207 40.6118 150.107C39.3118 152.107 39.0118 154.307 40.2118 156.007C41.3118 157.507 42.7118 158.107 44.2118 158.107C43.7118 159.507 43.7118 160.907 44.4118 161.907C46.0118 164.107 50.4118 163.807 54.1118 161.307C57.8118 158.807 59.5118 154.907 57.9118 152.807C57.4118 152.107 56.6118 151.707 55.6118 151.507C55.6118 150.407 55.3118 145.107 50.3118 144.807C50.7118 143.707 50.6118 142.607 49.9118 141.307C48.7118 138.907 44.8118 138.607 40.7118 140.507C36.7118 142.107 34.4118 145.607 35.6118 148.007Z" fill="white"/>
<path d="M58.2119 152.507C57.7119 151.807 56.9119 151.307 55.9119 151.107C55.9119 149.707 55.4119 144.807 50.7119 144.407C52.1119 135.007 37.4119 138.907 35.3119 145.207C34.3119 148.407 36.8119 150.307 40.2119 150.207C39.0119 152.307 38.9119 154.407 40.0119 156.007C41.0119 157.407 42.3119 158.107 43.9119 158.207C43.0119 160.707 44.2119 162.907 46.8119 163.307C48.9119 163.707 51.8119 163.007 54.3119 161.307C57.4119 159.207 60.2119 155.507 58.2119 152.507ZM35.8119 147.907C34.5119 144.907 37.8119 141.907 40.9119 140.407C44.9119 138.507 48.7119 138.907 49.8119 141.107C50.4119 142.307 50.5119 143.407 50.2119 144.407C46.4119 144.707 42.7119 146.707 40.5119 149.807C38.3119 149.907 36.5119 149.207 35.8119 147.907ZM40.4119 155.807C39.0119 153.807 39.9119 151.507 40.7119 150.307C42.9119 147.107 46.6119 145.107 50.5119 144.807C54.9119 145.207 55.4119 149.807 55.4119 151.107C51.0119 150.907 46.0119 153.407 44.0119 157.807C42.6119 157.807 41.3119 157.107 40.4119 155.807ZM58.4119 155.307C58.1119 157.307 56.4119 159.407 54.1119 161.007C49.2119 164.407 42.3119 163.707 44.5119 157.807C45.2119 156.507 46.4119 154.707 48.5119 153.307C51.3119 151.507 54.2119 151.407 55.7119 151.407C57.7119 151.907 58.7119 153.407 58.4119 155.307Z" fill="black"/>
<path d="M180.612 167.407C176.812 169.007 172.812 168.307 169.012 167.207C165.312 166.107 161.612 165.007 158.012 163.707C153.112 162.007 148.312 160.007 143.612 157.907C138.412 155.607 142.112 147.807 147.312 150.207C151.012 151.907 154.712 153.407 158.412 154.807C161.712 156.007 165.012 157.207 168.312 158.207C170.612 158.907 174.312 160.607 176.712 159.707C178.812 158.907 177.612 156.407 176.812 155.007C173.612 149.007 169.312 143.307 165.412 137.707C163.312 134.807 161.212 131.907 159.012 129.107C159.012 128.107 159.012 127.207 159.012 126.207C159.012 122.307 158.912 118.507 158.812 114.807C158.912 114.907 159.012 115.007 159.112 115.207C164.712 122.007 169.912 129.007 174.912 136.107C177.212 139.507 179.512 142.907 181.712 146.307C183.912 149.807 186.512 153.407 186.712 157.607C187.012 161.807 184.712 165.707 180.612 167.407Z" fill="black"/>
<path d="M152.612 150.507C151.612 151.807 149.612 152.107 147.312 151.607C148.212 153.807 148.112 156.007 146.612 157.407C145.212 158.707 143.712 159.007 142.312 158.707C142.612 160.207 142.312 161.507 141.412 162.407C139.412 164.207 135.212 163.207 132.012 160.007C128.812 156.807 127.812 152.707 129.812 150.907C130.412 150.307 131.312 150.007 132.312 150.007C132.512 148.907 133.812 143.707 138.812 144.407C138.612 143.307 138.912 142.207 139.812 141.007C141.412 138.907 145.312 139.207 149.012 141.907C152.612 144.607 154.212 148.407 152.612 150.507Z" fill="white"/>
<path d="M153.412 147.907C152.612 141.307 138.812 134.707 138.412 144.207C133.712 143.807 132.312 148.507 132.012 149.907C129.912 150.007 128.412 151.407 128.412 153.507C128.412 155.607 129.612 158.107 131.712 160.207C133.912 162.407 136.512 163.607 138.712 163.607C141.312 163.607 142.912 161.707 142.512 159.107C144.112 159.307 145.512 158.807 146.712 157.707C148.112 156.407 148.412 154.307 147.612 152.007C151.012 152.607 153.812 151.207 153.412 147.907ZM141.212 162.307C137.212 165.607 128.612 158.607 128.912 153.507C128.912 151.507 130.212 150.307 132.212 150.307C133.712 150.507 136.512 151.207 138.912 153.507C141.412 155.907 143.412 160.007 141.212 162.307ZM146.412 157.307C145.212 158.407 143.912 158.807 142.412 158.607C141.312 153.907 136.812 150.507 132.412 149.907C132.612 148.507 134.312 144.107 138.412 144.607C142.212 145.607 145.512 148.207 147.112 151.807C147.712 153.207 148.212 155.607 146.412 157.307ZM152.412 150.407C151.512 151.607 149.612 152.007 147.412 151.507C145.812 148.007 142.612 145.407 138.912 144.407C138.712 143.307 139.112 142.307 139.912 141.207C141.412 139.207 145.212 139.607 148.812 142.107C151.612 144.107 154.212 147.707 152.412 150.407Z" fill="black"/>
</svg>
