<svg width="275" height="283" viewBox="0 0 275 283" fill="none" xmlns="http://www.w3.org/2000/svg">
<path d="M179.336 215.969C179.064 207.947 177.84 200.061 176.208 192.311C175.393 188.368 174.305 184.561 173.217 180.754C172.673 178.851 171.994 176.947 171.45 175.044C171.042 173.82 170.634 172.596 169.818 171.645C167.235 168.925 161.796 169.469 160.3 173.14C159.893 174.092 159.893 175.044 160.029 175.996C160.165 176.811 160.436 177.627 160.708 178.307C160.98 179.259 161.388 180.211 161.66 181.162C162.884 184.969 163.972 188.776 164.787 192.719C166.691 200.469 167.779 208.219 168.187 216.105C168.594 224.399 168.594 232.693 168.322 240.851C168.186 244.93 168.051 249.145 167.779 253.224C167.643 255.263 167.507 257.303 167.371 259.478C167.235 260.838 166.963 262.334 167.235 263.693C168.186 267.5 173.353 267.908 176.072 265.869C178.248 264.237 178.248 261.654 178.52 259.206C178.928 255.127 179.2 251.048 179.336 246.969C179.744 238.676 179.744 230.382 179.472 222.088C179.472 219.912 179.472 218.009 179.336 215.969Z" fill="black"/>
<path d="M182.055 250.776L181.784 261.925C181.784 261.925 201.634 263.149 204.762 278.513L166.827 277.969L166.419 250.64L182.055 250.776Z" fill="#FF9BED"/>
<path d="M204.764 278.785L204.492 282.728H175.531L173.22 280.417L173.356 282.728H166.693V277.969L204.628 278.513L204.764 278.785Z" fill="black"/>
<path d="M184.913 262.333C190.624 263.421 202.453 266.956 204.764 278.513L166.83 277.969L166.558 266.412C172.405 272.123 183.69 266.956 184.913 262.333Z" fill="white"/>
<path d="M178.658 256.895C179.202 256.895 178.93 254.855 178.93 254.583C178.93 254.311 179.202 252.136 178.658 252.136C178.114 252.136 178.386 254.175 178.386 254.447C178.386 254.855 178.114 256.895 178.658 256.895Z" fill="black"/>
<path d="M174.037 256.895C174.581 256.895 174.309 254.855 174.309 254.583C174.309 254.311 174.581 252.136 174.037 252.136C173.493 252.136 173.765 254.175 173.765 254.447C173.765 254.719 173.493 256.895 174.037 256.895Z" fill="black"/>
<path d="M169.688 256.623C170.231 256.623 169.96 254.583 169.96 254.311C169.96 254.039 170.231 251.864 169.688 251.864C169.144 251.864 169.416 253.903 169.416 254.175C169.416 254.583 169.144 256.623 169.688 256.623Z" fill="black"/>
<path d="M205.038 278.785C204.358 274.842 202.182 271.171 199.191 268.452C196.336 265.868 192.801 264.237 189.13 263.013C187.634 262.605 186.138 262.197 184.643 261.925C183.419 261.653 182.467 261.653 182.06 261.517L182.331 250.368L166.016 250.232L166.288 265.732C166.423 270.083 166.559 274.434 166.424 278.649C166.424 280.009 166.423 281.504 166.288 282.864H173.63L173.494 280.96L175.397 282.864H204.766L205.038 278.785ZM191.441 264.509C189.538 266.004 187.634 267.364 185.867 268.86C185.731 268.996 185.051 269.403 185.323 269.675C185.595 269.947 186.003 269.539 186.138 269.403C187.226 268.588 188.314 267.772 189.402 266.956C190.353 266.276 191.169 265.596 192.121 264.917C193.073 265.324 194.16 265.868 195.112 266.412C193.209 267.908 191.305 269.267 189.402 270.763C189.266 270.899 188.722 271.171 188.722 271.443C188.858 271.987 189.402 271.443 189.674 271.307C190.761 270.491 191.849 269.675 192.937 268.86C193.888 268.18 194.704 267.5 195.656 266.82C200.007 269.403 203.27 273.482 204.358 278.513C199.463 278.377 194.432 278.377 189.538 278.241C184.235 278.105 179.068 278.105 173.766 277.969C171.454 277.969 169.279 277.833 166.967 277.833L166.831 267.228C169.687 269.675 173.766 269.811 177.165 268.86C178.932 268.316 180.7 267.5 182.195 266.412C183.419 265.46 184.507 264.373 185.051 262.877C186.818 263.013 188.994 263.557 191.441 264.509ZM181.788 251.048L181.516 262.197C182.467 262.197 183.555 262.469 184.507 262.605C183.963 264.101 182.739 265.188 181.516 266.004C180.02 267.092 178.252 267.908 176.485 268.316C173.222 269.131 169.415 268.86 166.831 266.412L166.559 250.912L181.788 251.048ZM204.222 282.456H175.669L172.814 279.737L172.95 282.456H166.831L166.967 278.241C172.406 278.377 177.845 278.377 183.283 278.513C187.498 278.513 191.849 278.649 196.064 278.649C198.783 278.649 201.503 278.785 204.358 278.785L204.222 282.456Z" fill="black"/>
<path d="M118.698 215.969C118.969 207.947 120.193 200.061 121.825 192.311C122.641 188.368 123.728 184.561 124.816 180.754C125.36 178.851 126.04 176.947 126.584 175.043C126.991 173.82 127.399 172.596 128.215 171.644C130.798 168.925 136.237 169.469 137.733 173.14C138.141 174.092 138.141 175.043 138.005 175.995C137.869 176.811 137.597 177.627 137.325 178.307C137.053 179.258 136.645 180.21 136.373 181.162C135.149 184.969 134.062 188.776 133.246 192.719C131.342 200.469 130.255 208.219 129.847 216.105C129.439 224.399 129.439 232.693 129.711 240.851C129.847 244.93 129.983 249.145 130.255 253.224C130.391 255.263 130.527 257.302 130.663 259.478C130.798 260.838 131.07 262.333 130.798 263.693C129.847 267.5 124.68 267.908 121.961 265.868C119.785 264.237 119.785 261.653 119.513 259.206C119.105 255.127 118.834 251.048 118.698 246.969C118.29 238.675 118.29 230.381 118.562 222.087C118.562 219.912 118.562 218.009 118.698 215.969Z" fill="black"/>
<path d="M115.979 250.776L116.251 261.925C116.251 261.925 96.3997 263.149 93.2725 278.513L131.207 277.969L131.615 250.64L115.979 250.776Z" fill="#FF9BED"/>
<path d="M93.4082 278.785L93.5441 282.728H122.505L124.952 280.417L124.68 282.728H131.478L131.343 277.969L93.4082 278.513V278.785Z" fill="black"/>
<path d="M113.259 262.333C107.549 263.421 95.7196 266.956 93.4082 278.513L131.343 277.969L131.478 266.412C125.632 272.123 114.347 266.956 113.259 262.333Z" fill="white"/>
<path d="M119.513 256.895C118.969 256.895 119.241 254.855 119.241 254.583C119.241 254.311 118.969 252.136 119.513 252.136C120.057 252.136 119.785 254.175 119.785 254.447C119.785 254.855 119.921 256.895 119.513 256.895Z" fill="black"/>
<path d="M124 256.895C123.456 256.895 123.728 254.855 123.728 254.583C123.728 254.311 123.456 252.136 124 252.136C124.544 252.136 124.272 254.175 124.272 254.447C124.272 254.719 124.544 256.895 124 256.895Z" fill="black"/>
<path d="M128.485 256.623C127.942 256.623 128.213 254.583 128.213 254.311C128.213 254.039 127.942 251.864 128.485 251.864C129.029 251.864 128.757 253.903 128.757 254.175C128.757 254.583 129.029 256.623 128.485 256.623Z" fill="black"/>
<path d="M93.1362 278.785L93.4082 283H122.777L124.68 281.096L124.544 283H131.886C131.886 281.64 131.886 280.145 131.75 278.785C131.614 274.434 131.886 270.083 131.886 265.868L132.158 250.368L115.842 250.504L116.114 261.653C115.706 261.653 114.755 261.789 113.531 262.061C112.035 262.333 110.54 262.741 109.044 263.149C105.373 264.237 101.838 266.004 98.9827 268.588C95.8555 271.171 93.8161 274.842 93.1362 278.785ZM112.987 262.605C113.395 264.101 114.619 265.189 115.842 266.14C117.338 267.228 119.106 268.18 120.873 268.588C124.408 269.539 128.351 269.403 131.207 266.956L131.071 277.561C128.759 277.561 126.584 277.697 124.272 277.697C118.97 277.833 113.803 277.833 108.5 277.969C103.606 278.105 98.5748 278.105 93.6801 278.241C94.7678 273.21 98.031 269.132 102.382 266.548C103.334 267.228 104.149 267.908 105.101 268.588C106.189 269.403 107.277 270.219 108.364 271.035C108.5 271.171 109.18 271.715 109.316 271.171C109.316 270.899 108.772 270.627 108.636 270.491C106.733 268.996 104.829 267.636 102.926 266.14C103.878 265.596 104.965 265.053 105.917 264.645C106.869 265.324 107.685 266.004 108.636 266.684C109.724 267.5 110.812 268.316 111.899 269.132C112.035 269.267 112.579 269.675 112.715 269.403C112.987 269.131 112.307 268.724 112.171 268.588C110.268 267.092 108.364 265.732 106.597 264.237C109.044 263.557 111.356 263.013 112.987 262.605ZM131.478 250.912L131.207 266.412C128.623 268.86 124.816 269.131 121.553 268.316C119.785 267.908 118.018 267.092 116.522 266.004C115.299 265.189 114.075 263.965 113.531 262.605C114.483 262.469 115.571 262.333 116.522 262.197L116.25 251.048L131.478 250.912ZM93.6801 278.785C96.3994 278.785 99.1187 278.649 101.974 278.649C106.189 278.513 110.54 278.513 114.755 278.513C120.193 278.377 125.632 278.377 131.071 278.241L131.207 282.456H125.088L125.224 279.737L122.369 282.456H93.8161L93.6801 278.785Z" fill="black"/>
<path d="M203.812 82.0433L207.211 77.6924H194.566H107.141H92.5925L96.2636 82.7231C73.8293 94.96 59.417 114.539 59.417 136.701C59.417 173.82 100.343 203.868 150.786 203.868C201.229 203.868 242.154 173.82 242.154 136.701C242.154 114.131 226.926 94.1442 203.812 82.0433Z" fill="#00BE70"/>
<path d="M150.786 204.276C100.207 204.276 59.145 173.956 59.145 136.837C59.145 125.96 62.5441 115.627 69.2064 105.973C75.5968 96.8636 84.7065 88.8416 95.8557 82.7232L92.0486 77.4205H207.891L204.356 81.9074C228.286 94.5522 242.562 115.083 242.562 136.701C242.426 173.956 201.229 204.276 150.786 204.276ZM93.1363 77.9644L96.6715 82.8591L96.3995 82.9951C85.2504 89.1135 76.0047 97.1355 69.6144 106.245C62.9521 115.763 59.5529 125.96 59.5529 136.701C59.5529 173.684 100.478 203.596 150.65 203.596C200.821 203.596 241.746 173.548 241.746 136.701C241.746 115.083 227.47 94.8241 203.54 82.1793L203.268 82.0434L206.531 77.9644H194.431H107.005H93.1363Z" fill="black"/>
<path d="M79.1319 83.9469C79.6758 88.8416 95.8556 91.9688 156.768 93.0566C194.023 93.7364 224.207 87.2101 223.799 80.9557C223.527 77.6925 205.172 74.8372 191.167 73.0697L191.031 72.7977L184.641 57.4337L169.277 26.2976L211.29 34.4555C211.29 34.4555 157.856 -6.47004 148.338 1.14402C142.356 5.9028 128.623 34.8634 119.378 55.6661C116.114 63.0082 113.395 69.2626 111.764 73.2056C111.764 73.3416 111.628 73.4776 111.628 73.6135C91.7767 75.9249 78.5881 79.8679 79.1319 83.9469Z" fill="#5040E5"/>
<path d="M111.627 73.0696C122.097 74.9731 133.654 76.3327 146.299 76.6047C163.022 77.0126 175.939 76.0608 190.895 72.7976L184.505 57.4335C170.772 57.8414 160.575 58.5213 147.25 57.9774C137.461 57.5695 128.079 56.6178 119.242 55.53C115.978 62.8722 113.259 69.2625 111.627 73.0696Z" fill="#826BFB"/>
<path d="M223.935 80.9556C223.799 78.2363 213.601 75.789 191.303 72.9337L184.777 57.2977L169.684 26.7055L212.242 34.9994L211.29 34.3195C209.114 32.688 157.583 -6.74198 148.066 1.00804C142.083 5.76682 129.031 33.2318 119.105 55.3942L118.969 55.5301C118.697 55.938 118.561 56.4819 118.289 56.8898C117.746 58.1135 117.202 59.3372 116.658 60.4249C116.25 61.3766 115.842 62.3284 115.434 63.1442C115.298 63.4161 115.298 63.5521 115.162 63.824C115.026 64.2319 114.89 64.5038 114.618 64.9117C113.123 68.3109 111.899 71.1661 111.083 72.9337C111.083 73.0697 111.083 73.0697 110.947 73.2056C110.947 73.2056 110.947 73.2056 110.947 73.3416C93.4079 75.517 81.8508 78.6442 79.1315 82.1793C78.5876 82.8592 78.4516 83.403 78.5876 84.0828C79.2674 89.7934 100.342 92.3767 156.496 93.4644C158.399 93.4644 160.303 93.4644 162.07 93.4644C193.75 93.4644 217.952 88.2978 222.711 83.2671C223.663 82.4513 224.071 81.6355 223.935 80.9556ZM112.579 71.71C112.579 71.574 112.715 71.4381 112.715 71.3021C112.715 71.1661 112.851 71.0302 112.851 71.0302C112.987 70.8942 112.987 70.6223 113.123 70.4863C113.123 70.3503 113.123 70.3503 113.259 70.2144C113.395 70.0784 113.395 69.8065 113.531 69.6705C113.531 69.5346 113.667 69.3986 113.667 69.2626C113.803 69.1267 113.803 68.8547 113.939 68.7188C114.075 68.5828 114.075 68.4468 114.211 68.1749C114.347 68.0389 114.347 67.767 114.482 67.631C114.482 67.4951 114.618 67.3591 114.618 67.2231C114.754 66.9512 114.89 66.8153 114.89 66.5433C114.89 66.4074 115.026 66.2714 115.026 66.1354C115.162 65.8635 115.298 65.5916 115.298 65.4556C115.298 65.3196 115.434 65.1837 115.434 65.0477C115.57 64.7758 115.706 64.5038 115.706 64.2319C115.706 64.0959 115.842 63.96 115.842 63.824C115.978 63.5521 116.114 63.2802 116.114 63.0082C116.25 62.8723 116.25 62.7363 116.386 62.4644C116.522 62.0565 116.658 61.7845 116.794 61.3766C116.794 61.3766 116.794 61.2407 116.93 61.2407C117.066 60.9687 117.202 60.5608 117.338 60.153C117.474 59.881 117.61 59.4731 117.746 59.2012C117.882 58.9293 117.882 58.7933 118.018 58.5214C118.154 58.3854 118.154 58.1135 118.289 57.9775C118.425 57.7056 118.561 57.4336 118.697 57.1617C118.833 57.0257 118.833 56.8898 118.969 56.6179C119.105 56.3459 119.241 56.074 119.377 55.8021C128.759 57.0257 138.14 57.8415 147.25 58.2494C157.991 58.6573 166.693 58.3854 176.891 57.9775C179.338 57.8415 181.785 57.8415 184.369 57.7056L189.535 69.9425L190.623 72.5258C176.347 75.517 163.838 76.6048 146.298 76.1969C134.877 75.9249 123.32 74.8372 112.035 72.6618C112.171 72.5258 112.307 72.1179 112.579 71.71ZM148.474 1.27997C157.04 -5.5183 202.996 28.473 210.066 33.9116L168.733 25.8897L184.233 57.1617C181.785 57.2977 179.338 57.2977 177.027 57.4336C166.965 57.8415 158.263 58.1135 147.522 57.7056C138.412 57.2977 129.167 56.4819 119.785 55.2582C127.807 37.1748 142.355 6.17472 148.474 1.27997ZM222.575 82.7232C217.544 88.0258 190.895 93.3285 156.632 92.6487C127.399 92.1048 107.276 91.0171 95.3114 89.5215C84.7061 88.1618 79.6753 86.2583 79.2674 83.8109C79.2674 83.2671 79.4034 82.8592 79.8113 82.3153C82.3947 79.0521 94.2236 75.789 111.491 73.7495H111.627V73.6135C111.627 73.4776 111.627 73.4776 111.763 73.3416C123.184 75.3811 134.741 76.6048 146.298 76.8767C148.61 76.8767 150.785 77.0126 152.825 77.0126C167.101 77.0126 178.25 75.9249 190.759 73.2056L190.895 73.3416H191.031C212.377 76.0609 223.255 78.6442 223.391 80.9556C223.391 81.4995 223.119 82.1793 222.575 82.7232Z" fill="black"/>
<path d="M157.177 137.109C157.177 140.644 154.458 143.5 150.923 143.5C147.388 143.5 144.532 140.78 144.532 137.245C144.532 133.71 147.252 130.855 150.787 130.855C154.322 130.719 157.177 133.574 157.177 137.109Z" fill="#F06416"/>
<path d="M150.922 143.772C147.387 143.772 144.396 140.916 144.26 137.245C144.26 133.574 147.115 130.583 150.786 130.583C152.554 130.583 154.185 131.263 155.545 132.487C156.769 133.71 157.584 135.342 157.584 137.109C157.584 138.877 156.905 140.508 155.681 141.868C154.457 142.956 152.69 143.772 150.922 143.772ZM150.922 131.127C150.786 131.127 150.786 131.127 150.922 131.127C147.523 131.127 144.804 133.982 144.804 137.245C144.804 140.644 147.523 143.228 150.922 143.228C152.554 143.228 154.049 142.548 155.137 141.324C156.225 140.101 156.905 138.605 156.905 136.973C156.905 135.342 156.225 133.846 155.001 132.758C153.913 131.671 152.418 131.127 150.922 131.127Z" fill="black"/>
<path d="M161.799 148.258C161.799 148.258 164.11 183.066 151.602 183.066C137.461 183.066 140.86 148.258 140.86 148.258C142.628 149.21 146.435 150.842 151.602 150.842C156.36 150.706 160.031 149.074 161.799 148.258Z" fill="white"/>
<path d="M162.071 147.715L161.663 147.851C158.535 149.482 155 150.298 151.465 150.298C146.842 150.298 143.171 148.938 140.86 147.715L140.452 147.579V147.987C140.452 147.987 139.908 154.105 140.18 161.039C140.588 170.421 142.356 176.947 145.483 180.346C147.114 182.114 149.154 183.066 151.465 183.066C153.369 183.066 155 182.386 156.36 180.89C158.943 178.171 160.575 173.14 161.391 165.934C161.527 164.574 161.663 163.215 161.799 161.719C162.342 154.513 161.935 148.258 161.935 148.258L162.071 147.715ZM151.601 150.978C152.825 150.978 154.049 150.842 155.136 150.706V165.662H148.066L147.93 150.706C149.018 150.842 150.242 150.978 151.601 150.978ZM141.132 148.53C142.627 149.346 144.803 150.162 147.386 150.57L147.522 165.662H141.268C140.452 158.048 140.996 150.434 141.132 148.53ZM146.027 180.074C143.307 177.083 141.948 171.644 141.268 166.07H147.386L147.522 181.298C146.978 181.026 146.571 180.618 146.027 180.074ZM151.737 182.658C150.378 182.658 149.29 182.386 148.202 181.706L148.066 166.206H155.136V181.57C154.049 182.386 152.961 182.658 151.737 182.658ZM156.224 180.618C156.088 180.754 155.816 181.026 155.68 181.162V166.206H161.119C160.303 172.052 158.943 177.763 156.224 180.618ZM161.119 165.798H155.68V150.706C157.72 150.298 159.759 149.618 161.527 148.802C161.663 150.434 162.071 158.184 161.119 165.798Z" fill="black"/>
<path d="M105.553 155.465C119.369 155.252 130.37 142.176 130.125 126.258C129.88 110.34 118.482 97.6088 104.666 97.8213C90.851 98.0338 79.8498 111.11 80.0947 127.028C80.3395 142.946 91.7376 155.677 105.553 155.465Z" fill="white"/>
<path d="M107.277 104.342C96.8072 102.982 87.4256 111.684 86.3379 123.649C86.3379 123.921 86.3379 124.193 86.3379 124.464L99.6625 126.232L87.2897 133.03C89.6011 140.916 95.5835 146.899 103.198 147.851C113.667 149.21 123.049 140.508 124.136 128.543C125.224 116.579 117.746 105.701 107.277 104.342Z" fill="black"/>
<path d="M107.957 97.6795C101.974 96.8637 95.8556 98.6312 90.8249 102.574C84.8424 107.333 80.8994 114.947 80.0836 123.377C78.9959 135.07 84.0266 145.947 92.3205 151.658L86.7459 158.456C86.61 158.592 86.61 158.728 86.7459 158.864H86.8819C87.0179 158.864 87.0179 158.864 87.1538 158.728L92.7284 151.93C95.3118 153.561 98.167 154.785 101.158 155.329L99.1188 164.71C99.1188 164.846 99.1188 164.982 99.3907 164.982C99.5267 164.982 99.6626 164.846 99.6626 164.71L101.702 155.329C101.974 155.329 102.246 155.465 102.382 155.465C103.334 155.601 104.285 155.601 105.237 155.601C107.141 155.601 109.18 155.329 111.084 154.785L113.259 164.031C113.259 164.167 113.395 164.302 113.531 164.302C113.667 164.302 113.803 164.167 113.803 164.031L111.628 154.785C114.483 153.969 117.202 152.473 119.514 150.57C125.496 145.811 129.439 138.197 130.255 129.767C131.75 113.995 121.689 99.447 107.957 97.6795ZM129.711 129.903C128.895 138.197 125.088 145.539 119.242 150.298C114.347 154.241 108.364 155.873 102.518 155.057C88.9214 153.289 79.1319 139.013 80.6275 123.377C81.4433 115.083 85.2503 107.741 91.0968 102.982C95.1758 99.719 100.071 97.9514 104.965 97.9514C105.917 97.9514 106.869 97.9514 107.685 98.0874C121.417 99.9909 131.207 114.131 129.711 129.903Z" fill="black"/>
<path d="M195.29 156.416C209.105 156.204 220.107 143.127 219.862 127.21C219.617 111.292 208.219 98.5601 194.403 98.7727C180.588 98.9852 169.587 112.061 169.832 127.979C170.076 143.897 181.475 156.629 195.29 156.416Z" fill="white"/>
<path d="M191.982 105.973C202.316 104.342 211.969 112.636 213.465 124.601C213.465 124.872 213.465 125.144 213.601 125.416L200.412 127.592L212.921 133.982C210.881 141.868 205.035 148.123 197.557 149.346C187.224 150.978 177.57 142.684 176.074 130.719C174.443 118.754 181.649 107.741 191.982 105.973Z" fill="black"/>
<path d="M208.434 152.201C216.456 146.219 221.215 135.206 219.719 123.513C218.631 115.083 214.552 107.741 208.434 103.118C203.267 99.3109 197.149 97.6794 191.166 98.7671C177.434 100.943 167.916 115.763 169.82 131.671C170.908 140.101 174.987 147.443 181.105 152.065C183.552 153.969 186.272 155.193 189.127 156.008L187.224 165.254C187.224 165.39 187.223 165.526 187.495 165.526C187.631 165.526 187.767 165.39 187.767 165.254L189.671 156.008C191.302 156.416 193.07 156.688 194.838 156.688C196.061 156.688 197.149 156.552 198.373 156.416C198.645 156.416 198.916 156.28 199.052 156.28L201.364 165.662C201.364 165.798 201.5 165.934 201.636 165.934C201.772 165.934 201.908 165.798 201.772 165.662L199.46 156.28C202.452 155.601 205.307 154.377 207.754 152.609L213.465 159.272C213.465 159.272 213.601 159.408 213.737 159.408C213.737 159.408 213.873 159.408 213.873 159.272C214.009 159.136 214.009 159 213.873 158.864L208.434 152.201ZM198.373 156.008C192.526 156.96 186.544 155.465 181.513 151.658C175.53 147.171 171.451 139.829 170.364 131.671C168.46 116.035 177.706 101.486 191.302 99.3109C192.39 99.175 193.614 99.039 194.702 99.039C199.46 99.039 204.083 100.671 208.162 103.662C214.145 108.149 218.224 115.491 219.311 123.649C221.215 139.285 211.833 153.697 198.373 156.008Z" fill="black"/>
<path d="M231.413 122.833C227.878 101.894 208.707 87.4819 188.72 90.745C179.339 92.2407 171.181 97.4073 165.606 105.293C161.527 111.14 159.08 117.802 158.536 124.872C157.584 124.193 156.496 123.649 155.409 123.241C151.058 121.609 146.435 122.561 142.764 125.008C142.628 123.921 142.492 122.969 142.356 121.881C138.821 100.942 119.65 86.5301 99.6629 89.7933C90.2813 91.2889 82.1234 96.4556 76.5488 104.342C70.5664 112.771 68.255 123.105 70.0225 133.574C73.5576 154.513 92.7287 168.925 112.716 165.662C114.075 165.39 115.435 165.118 116.795 164.71C124.409 162.535 131.071 157.776 135.83 151.114C140.045 145.267 142.492 138.333 142.9 131.127C145.211 129.223 147.931 128 150.786 128C153.913 128 156.496 129.359 158.672 131.263C158.808 132.35 158.944 133.302 159.08 134.39C162.615 155.329 181.786 169.741 201.773 166.478C203.133 166.206 204.492 165.934 205.852 165.526C213.466 163.351 220.128 158.592 224.887 151.929C231.005 143.772 233.317 133.302 231.413 122.833ZM131.479 147.579C126.72 154.241 119.65 158.728 111.628 159.951C94.4963 162.671 78.1805 150.298 75.0533 132.35C73.5576 123.377 75.4611 114.403 80.6278 107.197C84.7068 101.486 90.4173 97.4073 96.9436 95.6398C98.0314 95.3679 99.2551 95.0959 100.479 94.824C117.61 92.1047 133.926 104.478 137.053 122.425C138.685 131.535 136.646 140.372 131.479 147.579ZM220.536 148.666C215.777 155.329 208.707 159.815 200.685 161.039C183.554 163.758 167.238 151.386 164.111 133.438C162.615 124.464 164.518 115.491 169.685 108.285C173.764 102.574 179.475 98.4951 186.001 96.7275C187.089 96.4556 188.312 96.1836 189.536 95.9117C206.668 93.1924 222.983 105.565 226.111 123.513C227.742 132.486 225.703 141.46 220.536 148.666Z" fill="#FEBE30"/>
<path d="M100.479 94.5521C99.2549 94.6881 98.0312 94.96 96.9435 95.3679C90.2812 97.2714 84.5707 101.35 80.4918 107.061C75.3251 114.267 73.2856 123.377 74.9172 132.486C77.7724 148.938 91.6409 160.631 107.005 160.631C108.637 160.631 110.268 160.495 111.764 160.223C119.786 158.864 126.856 154.513 131.751 147.715C136.917 140.508 138.957 131.399 137.325 122.289C134.198 104.342 117.746 91.8328 100.479 94.5521ZM131.207 147.443C126.448 154.105 119.514 158.456 111.628 159.68C94.6321 162.399 78.4522 150.162 75.325 132.351C73.8294 123.377 75.733 114.539 80.8996 107.333C84.9786 101.622 90.5532 97.6793 97.0795 95.7758C98.1672 95.5039 99.3909 95.232 100.615 94.96C102.246 94.6881 103.742 94.5521 105.373 94.5521C120.466 94.5521 134.198 106.109 136.917 122.289C138.277 131.399 136.373 140.372 131.207 147.443Z" fill="black"/>
<path d="M231.685 122.833C228.014 101.758 208.707 87.21 188.72 90.4731C179.339 91.9688 171.045 97.1355 165.334 105.021C161.255 110.732 158.944 117.394 158.264 124.329C157.312 123.785 156.361 123.241 155.409 122.833C151.33 121.337 146.979 121.881 142.9 124.464C142.764 123.513 142.628 122.697 142.492 121.745C138.821 100.671 119.514 86.1223 99.5272 89.3854C90.1456 90.881 81.8517 96.0477 76.1412 103.934C70.1587 112.364 67.7113 122.833 69.6149 133.438C72.878 152.473 89.0579 166.206 107.005 166.206C108.909 166.206 110.812 166.07 112.58 165.798C113.94 165.526 115.435 165.254 116.795 164.846C124.545 162.671 131.207 157.912 135.966 151.114C140.181 145.267 142.628 138.333 143.036 131.127C145.483 129.223 148.067 128.136 150.65 128.136C153.369 128.136 155.953 129.223 158.264 131.263C158.4 132.215 158.536 133.302 158.672 134.254C161.935 153.289 178.115 167.022 196.063 167.022C197.966 167.022 199.87 166.886 201.637 166.614C202.997 166.342 204.492 166.07 205.852 165.662C213.602 163.487 220.264 158.728 225.023 151.929C231.278 143.772 233.589 133.302 231.685 122.833ZM135.558 150.978C130.799 157.64 124.273 162.263 116.659 164.438C115.299 164.846 113.94 165.118 112.58 165.39C92.7289 168.517 73.8298 154.241 70.1587 133.574C68.3912 123.105 70.7025 112.771 76.685 104.478C82.2596 96.7276 90.4175 91.5609 99.6631 90.0653C101.567 89.7933 103.334 89.6574 105.238 89.6574C122.913 89.6574 138.821 103.118 142.084 122.017C142.22 122.969 142.356 123.921 142.492 125.008V125.144C142.628 127.184 142.764 129.223 142.628 131.263V131.943C142.084 138.605 139.637 145.267 135.558 150.978ZM150.786 127.728H150.65C148.067 127.728 145.483 128.679 143.172 130.447C143.308 128.679 143.172 126.912 143.036 125.008C146.979 122.425 151.33 121.881 155.273 123.377C156.361 123.785 157.312 124.329 158.264 124.872C158.128 126.776 158.128 128.679 158.264 130.583C155.953 128.815 153.505 127.728 150.786 127.728ZM224.751 151.929C219.992 158.592 213.466 163.215 205.852 165.39C204.492 165.798 203.133 166.07 201.773 166.342C181.922 169.469 163.023 155.193 159.352 134.526C159.216 133.438 159.08 132.35 158.944 131.399C158.944 130.855 158.808 130.311 158.808 129.767C158.808 129.767 158.808 129.767 158.808 129.631C158.672 128 158.672 126.368 158.808 124.872V124.736C159.352 117.802 161.663 111.14 165.742 105.429C171.317 97.6793 179.475 92.5126 188.72 91.017C190.624 90.7451 192.391 90.6091 194.295 90.6091C211.97 90.6091 227.878 104.07 231.142 122.969C232.909 133.302 230.734 143.636 224.751 151.929Z" fill="black"/>
<path d="M189.536 95.6398C188.313 95.7757 187.089 96.0477 186.001 96.4556C179.339 98.3591 173.628 102.438 169.549 108.149C164.383 115.355 162.343 124.464 163.975 133.574C166.83 150.026 180.699 161.719 196.063 161.719C197.694 161.719 199.326 161.583 200.821 161.311C208.843 159.951 215.914 155.6 220.808 148.802C225.975 141.596 228.014 132.486 226.383 123.377C223.392 105.293 206.804 92.9205 189.536 95.6398ZM220.4 148.53C215.642 155.193 208.707 159.543 200.821 160.767C183.826 163.486 167.646 151.25 164.519 133.438C163.023 124.464 164.927 115.627 170.093 108.421C174.172 102.71 179.747 98.767 186.273 96.8635C187.361 96.5915 188.585 96.3196 189.808 96.0477C191.44 95.7757 192.935 95.6398 194.567 95.6398C209.659 95.6398 223.392 107.197 226.111 123.377C227.471 132.486 225.431 141.324 220.4 148.53Z" fill="black"/>
<path d="M274.107 185.513C273.155 196.39 261.87 198.43 253.168 199.517C242.155 200.877 231.142 200.469 220.129 198.837C217.273 198.43 215.778 194.758 216.458 192.311C217.273 189.32 220.129 188.232 222.984 188.64C231.822 189.864 240.795 190.136 249.633 189.32C252.76 189.048 264.589 189.048 263.501 183.609C262.822 180.074 259.423 176.947 257.247 174.364C254.528 171.236 251.808 168.381 248.953 165.39C245.554 161.991 242.155 158.728 238.484 155.6C239.979 152.065 240.931 148.258 241.611 144.451C247.73 149.482 253.576 154.785 259.151 160.495C262.55 164.03 265.949 167.837 268.94 171.644C271.795 175.723 274.515 180.346 274.107 185.513Z" fill="black"/>
<path d="M221.08 186.193C221.08 186.193 227.063 181.842 228.287 186.736C229.102 190.544 228.559 198.701 228.151 202.373C228.015 204.14 226.927 205.636 225.295 206.18C224.208 206.587 221.488 205.908 220.265 204.956C217.681 206.723 214.146 210.394 207.62 210.938C202.725 211.346 197.287 210.666 192.8 208.763C190.488 207.811 188.313 206.316 186.953 204.14C186.273 202.916 185.729 201.421 185.729 199.925C185.729 199.245 186.001 198.43 186.273 197.886C186.409 197.75 187.225 196.39 187.225 196.39C187.225 196.39 183.01 190 190.08 187.144C190.08 187.144 184.234 176.675 199.87 179.394C200.822 179.53 201.773 175.315 205.444 173.548C205.988 173.276 209.795 171.508 213.738 172.868C218.225 174.364 221.488 179.802 221.08 186.193Z" fill="white"/>
<path d="M228.422 186.601C228.15 185.377 227.606 184.561 226.654 184.289C224.887 183.609 222.303 184.969 221.351 185.649C221.487 179.53 218.36 174.092 213.601 172.46C209.658 171.101 205.851 172.868 205.036 173.276C202.724 174.364 201.501 176.403 200.549 177.763C200.141 178.307 199.733 179.122 199.597 178.987C194.158 178.035 190.623 178.579 189.128 180.618C187.632 182.794 188.992 185.921 189.4 186.873C187.36 187.688 186.136 189.048 185.593 190.544C184.777 192.991 186.136 195.574 186.544 196.254C186.272 196.662 185.865 197.478 185.729 197.614C185.321 198.294 185.185 198.973 185.049 199.789C184.913 201.557 185.729 203.052 186.272 204.14C187.496 206.18 189.4 207.675 192.255 208.899C195.926 210.395 200.141 211.21 204.356 211.21C205.308 211.21 206.259 211.21 207.211 211.074C212.786 210.53 216.185 207.947 218.632 206.044C219.04 205.772 219.448 205.364 219.856 205.092C221.216 206.044 223.935 206.723 225.023 206.18C226.654 205.5 227.878 204.004 228.014 202.101C228.694 198.973 229.373 190.408 228.422 186.601ZM227.878 202.373C227.742 204.004 226.654 205.5 225.294 206.044C224.479 206.316 221.895 205.908 220.672 204.956V200.605C220.672 200.469 220.536 200.333 220.4 200.333C220.264 200.333 220.128 200.469 220.128 200.605V204.956C219.72 205.228 219.312 205.5 218.904 205.908C216.457 207.811 213.194 210.259 207.755 210.802C202.588 211.21 197.422 210.53 193.071 208.627C190.351 207.539 188.448 206.044 187.36 204.14C186.816 203.188 186.136 201.693 186.136 200.061C186.136 199.381 186.408 198.701 186.68 198.158C186.816 198.022 187.224 197.206 187.496 196.934L193.615 198.022C193.751 198.022 193.886 197.886 193.886 197.75C193.886 197.614 193.751 197.478 193.615 197.478L187.496 196.39C187.224 195.846 185.865 193.399 186.544 191.087C186.952 189.592 188.176 188.504 190.079 187.688C190.079 187.688 190.079 187.688 190.215 187.688L196.062 189.184C196.062 189.184 196.062 189.184 196.198 189.184C196.334 189.184 196.47 189.048 196.47 188.912C196.47 188.776 196.47 188.64 196.334 188.64L190.487 187.144C190.215 186.737 188.584 183.337 190.079 181.298C191.031 180.074 192.799 179.394 195.518 179.394C196.742 179.394 198.237 179.53 200.005 179.802L208.571 181.57C208.707 181.57 208.843 181.434 208.843 181.298C208.843 181.162 208.843 181.026 208.571 181.026L200.685 179.394C200.957 179.122 201.229 178.715 201.501 178.307C202.316 176.947 203.54 175.044 205.715 173.956C206.395 173.548 210.066 171.916 213.737 173.276C218.36 174.908 221.487 180.346 221.08 186.465V187.008L220.944 192.583C220.944 192.719 221.08 192.855 221.216 192.855C221.351 192.855 221.487 192.719 221.487 192.583L221.623 186.601C222.167 186.193 225.023 184.425 226.79 185.105C227.47 185.377 228.014 186.057 228.286 187.144C228.83 190.544 228.15 198.837 227.878 202.373Z" fill="black"/>
<path d="M62.1365 153.017C60.233 154.105 58.1935 155.193 56.29 156.28C48.268 160.631 37.5268 165.798 29.5048 158.184C26.1057 154.921 25.1539 150.162 24.882 145.539C24.746 140.644 25.1539 135.614 25.4259 130.719C26.1057 119.978 27.4654 109.236 29.3689 98.4951C29.9127 95.6398 33.4478 94.1442 35.8952 94.96C38.8864 95.7758 39.9742 98.767 39.4303 101.486C37.9347 110.324 36.711 119.298 36.1671 128.272C35.8952 132.758 35.6233 137.245 35.4873 141.732C35.4873 144.043 34.8075 148.53 36.711 150.434C38.6145 152.337 42.1496 151.25 44.3251 150.434C48.1321 148.938 51.8032 146.627 55.3382 144.723C56.8339 143.908 58.1935 143.092 59.6891 142.14C60.097 145.947 60.9128 149.618 62.1365 153.017Z" fill="black"/>
<path d="M29.0967 77.0126C29.0967 77.0126 28.9607 75.6529 28.2809 74.2933C27.1931 72.2538 24.8817 70.0784 22.8422 68.8547C21.0747 67.9029 19.0352 67.495 17.1317 68.3108C15.0922 69.2626 14.4124 71.71 15.2282 73.6135C15.0922 73.4775 14.8203 73.3415 14.4124 73.0696C14.1405 72.9336 14.0045 72.9336 14.0045 72.9336C13.3247 72.7977 12.6449 72.6617 11.965 72.6617C10.3335 72.6617 8.83783 73.6135 8.02204 74.9731C7.07028 76.4687 6.93433 78.2363 6.93433 80.0038C6.93433 80.0038 6.39047 80.0038 6.25451 80.0038C2.85537 80.0038 0.543945 82.7231 0.543945 85.9863C0.815876 93.8723 10.0615 97.2714 10.0615 97.2714C10.1975 108.013 19.0352 106.789 20.3949 106.517C20.5309 106.517 20.5309 106.517 20.6668 106.653C22.5704 113.315 29.3686 111.548 38.0704 103.254C46.0923 95.6398 38.7502 93.6004 37.2546 93.3284C37.1186 93.3284 36.9827 93.1925 36.9827 93.0565C33.7195 83.5389 32.9037 82.0433 29.0967 77.0126Z" fill="white"/>
<path d="M42.0133 96.4558C41.3334 94.1443 38.3422 93.3285 37.3905 93.1926C37.3905 93.1926 37.2545 93.1926 37.2545 93.0566C33.8554 83.675 33.1755 82.0434 29.2325 77.0127C29.2325 76.6048 28.9606 75.5171 28.4167 74.2934C27.465 72.3899 25.0176 70.0785 22.9781 68.7188C20.9387 67.4951 18.8992 67.3592 16.9957 68.175C15.0921 68.9908 14.1404 71.0302 14.6843 73.2057C14.5483 73.2057 14.5483 73.0697 14.4123 73.0697C14.1404 72.9338 14.0044 72.9338 13.8685 72.9338C13.1886 72.6618 12.3729 72.6618 11.693 72.6618C10.0614 72.6618 8.42985 73.6136 7.47809 75.1092C6.52633 76.6048 6.39037 78.1004 6.39037 80.004C6.2544 80.004 6.11843 80.004 5.98247 80.004C4.35088 80.004 2.85528 80.5478 1.76755 81.6355C0.543865 82.8592 0 84.4908 0 86.2584C0.135965 93.6005 8.29388 97.2715 9.51757 97.8154C9.65354 101.351 10.6053 103.934 12.6448 105.565C15.3641 107.877 19.3071 107.333 20.1229 107.197C20.8027 109.372 21.8904 110.732 23.658 111.14C24.0659 111.276 24.6097 111.276 25.0176 111.276C28.2808 111.276 32.7676 108.693 38.0703 103.798C41.3335 100.671 42.5571 98.3593 42.0133 96.4558ZM38.0703 103.118C32.2238 108.693 27.329 111.14 24.2018 110.324C22.7062 109.916 21.6185 108.693 21.0746 106.789C22.9781 106.381 25.0176 105.293 27.329 103.526C27.465 103.39 27.465 103.254 27.329 103.118C27.1931 102.982 27.0571 102.982 26.9211 103.118C24.4737 104.886 22.2983 105.973 20.5308 106.245C20.5308 106.245 20.5308 106.245 20.3948 106.245C19.715 106.381 15.9079 106.925 13.1886 104.75C11.2851 103.254 10.3334 100.671 10.3334 97.2715V97.1356H10.1974C10.0614 97.1356 1.08773 93.7364 0.8158 86.1224C0.8158 84.4908 1.35966 82.9952 2.44738 81.9075C3.39914 80.9557 4.75879 80.4118 6.25441 80.4118C6.25441 80.4118 6.39037 80.4118 6.52634 80.4118C6.6623 80.4118 6.79827 80.4118 6.79827 80.4118H7.07019V80.1399C7.07019 78.3724 7.07019 76.7408 8.02194 75.3811C8.83774 74.1574 10.3334 73.3416 11.829 73.2057C12.5088 73.2057 13.1886 73.2057 13.8685 73.4776C13.8685 73.4776 14.0044 73.4776 14.2764 73.6136C14.5483 73.7495 14.8202 73.8855 15.0922 74.0215L15.908 74.5653L15.5 73.6136C14.8202 71.846 15.2281 69.5346 17.2676 68.5829C18.8992 67.903 20.8027 68.039 22.7062 69.1267C24.7457 70.3504 27.0571 72.6618 28.0089 74.4294C28.5527 75.5171 28.6887 76.4688 28.6887 76.8767C28.6887 77.0127 28.6887 77.1487 28.8247 77.1487C32.6317 82.1794 33.4475 83.675 36.7106 93.0566C36.8466 93.3285 36.9826 93.4645 37.2545 93.4645C38.0703 93.6005 40.9256 94.4163 41.4694 96.4558C42.0133 98.2233 40.7896 100.399 38.0703 103.118Z" fill="black"/>
<path d="M61.0483 25.4817C60.3685 25.0738 59.6887 25.2097 59.4168 25.7536L2.99114 119.026C2.31132 120.249 2.58326 121.881 3.80694 122.561H3.9429C5.16658 123.241 6.6622 122.833 7.34203 121.609L61.7282 27.1133C62.0001 26.5694 61.5922 25.7536 61.0483 25.4817Z" fill="#BB7F55"/>
<path d="M5.03033 123.105C4.62243 123.105 4.07857 122.969 3.67067 122.697H3.53472C2.8549 122.289 2.447 121.745 2.17507 121.065C2.0391 120.25 2.0391 119.57 2.447 118.89L59.1445 25.6177C59.5524 24.9379 60.3682 24.8019 61.184 25.2098C61.5919 25.4817 61.8638 25.7536 61.9998 26.2975C62.1358 26.5694 61.9998 26.9773 61.8638 27.2493L7.47771 121.745C6.93385 122.697 5.98208 123.105 5.03033 123.105ZM60.2322 25.4817C59.9603 25.4817 59.6884 25.6177 59.5524 25.7536L3.12682 119.026C2.85489 119.57 2.71893 120.25 2.8549 120.793C2.99086 121.337 3.39874 121.881 3.9426 122.153H4.07857C5.1663 122.697 6.52595 122.289 7.06981 121.337L61.456 26.8414C61.5919 26.7054 61.5919 26.4335 61.456 26.2975C61.32 26.0256 61.184 25.7536 60.9121 25.6177C60.6401 25.6177 60.5042 25.4817 60.2322 25.4817Z" fill="black"/>
<path d="M20.5303 27.5211C27.1926 29.2886 28.2803 28.7447 32.2233 22.3544C30.0479 29.6965 30.4557 30.7842 36.3023 34.4553C29.64 32.6877 28.5522 33.2316 24.6092 39.622C26.7847 32.4158 26.3768 31.1921 20.5303 27.5211Z" fill="#826BFB"/>
<path d="M41.605 10.9334C46.9076 12.565 47.8594 12.1571 51.1226 7.12634C49.219 12.9729 49.491 13.7886 53.9778 17.0518C48.6752 15.4202 47.7234 15.8281 44.4603 20.8588C46.4997 15.0123 46.2278 14.0606 41.605 10.9334Z" fill="#826BFB"/>
<path d="M65.6709 48.8677C70.8376 51.0431 71.7894 50.7712 75.5964 45.8765C73.149 51.451 73.285 52.4028 77.6359 55.9379C72.4692 53.7625 71.5174 54.0344 67.7104 58.9291C70.1578 53.4905 69.8858 52.5388 65.6709 48.8677Z" fill="#826BFB"/>
<path d="M4.75879 89.6573C4.75879 89.6573 16.3158 96.9994 18.0834 91.2889C19.8509 85.4424 7.07019 80.0038 7.07019 80.0038" fill="white"/>
<path d="M14.6837 93.7363C10.6048 93.7363 4.89421 90.0652 4.62228 89.9292C4.48632 89.7933 4.48633 89.6573 4.48633 89.5213C4.62229 89.3854 4.75826 89.3854 4.89423 89.3854C5.03019 89.3854 12.5083 94.2801 16.1793 92.9205C16.9951 92.6485 17.539 92.1047 17.8109 91.1529C19.5785 85.5783 7.06967 80.2757 6.93371 80.1397C6.79774 80.1397 6.66177 79.8678 6.79773 79.7318C6.79773 79.5959 7.06967 79.4599 7.20563 79.5959C7.7495 79.8678 20.2583 85.1704 18.3548 91.1529C18.0829 92.2406 17.403 92.9205 16.4513 93.3284C15.7715 93.7363 15.2276 93.7363 14.6837 93.7363Z" fill="black"/>
<path d="M9.65332 81.3635C18.3551 86.1223 18.2191 91.289 18.2191 91.289C33.0393 87.21 15.0919 73.4775 15.0919 73.4775C21.0744 78.1004 23.1139 82.1793 23.1139 82.1793C35.6227 78.5082 25.8332 68.7187 20.5305 67.903" fill="white"/>
<path d="M17.8109 91.561V91.1531C17.8109 91.1531 17.9469 86.1224 9.38107 81.4995C9.2451 81.3636 9.24512 81.2276 9.24512 81.0916C9.38108 80.9557 9.51705 80.9557 9.65302 80.9557C17.2671 85.0346 18.2188 89.3855 18.3548 90.7452C21.482 89.7934 23.2495 88.4338 23.6574 86.5303C24.7451 81.2276 14.9556 73.7495 14.8197 73.6136L15.0916 73.2057C20.3943 77.2846 22.5697 80.9557 23.1136 81.7715C27.0566 80.5478 28.9601 78.6443 28.8241 76.1969C28.5522 72.3899 23.5215 68.5828 20.3943 68.039C20.2583 68.039 20.1223 67.903 20.1223 67.767C20.1223 67.6311 20.2583 67.4951 20.3943 67.4951C23.6574 68.039 28.9601 71.982 29.232 76.0609C29.368 77.9644 28.4162 80.5478 23.2495 82.1794C23.9294 83.675 24.3373 85.1706 24.0653 86.5303C23.6575 88.7057 21.6179 90.3373 18.0828 91.289L17.8109 91.561Z" fill="black"/>
<path d="M37.2543 93.3284C39.0219 90.2012 39.7017 86.9381 39.7017 85.5784C39.7017 81.9074 36.9824 79.46 32.4956 77.8284C26.6491 75.653 23.2499 75.653 20.1227 75.653C17.9473 75.653 15.9078 77.1486 15.3639 79.1881C14.0043 85.3065 26.921 88.4337 26.921 88.4337C26.921 88.4337 17.2675 94.6881 28.0087 100.263" fill="white"/>
<path d="M39.974 85.5785C39.974 82.0434 37.5266 79.4601 32.4959 77.5565C26.6494 75.5171 23.3862 75.3811 20.123 75.3811C17.6756 75.3811 15.6362 77.0127 15.0923 79.1881C13.8686 84.7627 23.7941 87.8899 26.2415 88.7057C25.1537 89.5215 22.4345 91.8329 22.5704 94.6882C22.7064 96.8636 24.4739 98.9031 27.7371 100.535H27.8731C28.009 100.535 28.009 100.535 28.145 100.399C28.281 100.263 28.145 100.127 28.009 99.9908C24.8818 98.3592 23.2502 96.5917 23.1143 94.5522C22.9783 91.289 26.9213 88.7057 26.9213 88.7057L27.4652 88.2978L26.7853 88.1618C26.6494 88.1618 14.1406 84.8987 15.3643 79.1881C15.7721 77.2846 17.6757 75.925 19.8511 75.789C23.1143 75.789 26.3774 75.925 32.088 77.9644C36.8468 79.732 39.1582 82.0434 39.1582 85.4425C39.1582 86.6662 38.6143 89.7934 36.7108 93.0566C36.7108 93.0566 33.7196 98.3592 30.7283 100.127C30.5924 100.263 30.5924 100.399 30.5924 100.535C30.5924 100.671 30.7283 100.671 30.8643 100.671H31.0002C34.2634 98.7671 37.2547 93.1926 37.2547 93.1926C39.4301 89.9294 39.974 86.8022 39.974 85.5785Z" fill="black"/>
</svg>
