<svg width="56" height="50" viewBox="0 0 56 50" fill="none" xmlns="http://www.w3.org/2000/svg">
<circle cx="21.5122" cy="28.4878" r="21.5122" fill="#F76519"/>
<circle cx="21.1138" cy="28.4878" r="17.5285" fill="#043730"/>
<circle cx="21.1138" cy="28.4878" r="13.1463" fill="#F76519"/>
<circle cx="21.1138" cy="28.4878" r="8.76423" fill="#043730"/>
<circle cx="21.1138" cy="28.4878" r="4.5813" fill="#D9D9D9"/>
<path d="M19 30L20.5 25.5L24 29.5L19 30Z" fill="#043730" stroke="#043730" stroke-width="0.199187" stroke-linejoin="round"/>
<path d="M42.8252 6.37805L42.626 12.2541L49.6971 6.67683V1L42.8252 6.37805Z" fill="#043730" stroke="#043730" stroke-width="0.199187" stroke-linejoin="round"/>
<path d="M48.3845 13.4413L42.626 12.2556L49.7073 6.69129L55.2255 8.02392L48.3845 13.4413Z" fill="#043730" stroke="#043730" stroke-width="0.199187" stroke-linejoin="round"/>
<path d="M21.7114 27.8903L49.3984 6.77649" stroke="#043730" stroke-width="1.39431"/>
<mask id="mask0_659_201" style="mask-type:alpha" maskUnits="userSpaceOnUse" x="21" y="0" width="35" height="29">
<path d="M42.8252 6.37805L42.626 12.2541L49.6971 6.67683V1L42.8252 6.37805Z" fill="#043730" stroke="#043730" stroke-width="0.199187" stroke-linejoin="round"/>
<path d="M48.3845 13.4413L42.626 12.2556L49.7073 6.69129L55.2255 8.02392L48.3845 13.4413Z" fill="#043730" stroke="#043730" stroke-width="0.199187" stroke-linejoin="round"/>
<path d="M21.7114 27.8903L49.3984 6.77649" stroke="#043730" stroke-width="1.39431"/>
</mask>
<g mask="url(#mask0_659_201)">
<path fill-rule="evenodd" clip-rule="evenodd" d="M22.5 75C48.1812 75 69 54.1812 69 28.5C69 2.81876 48.1812 -18 22.5 -18C-3.18124 -18 -24 2.81876 -24 28.5C-24 54.1812 -3.18124 75 22.5 75ZM21.5 50C33.3741 50 43 40.3741 43 28.5C43 16.6259 33.3741 7 21.5 7C9.62588 7 0 16.6259 0 28.5C0 40.3741 9.62588 50 21.5 50Z" fill="#D9D9D9"/>
</g>
</svg>
