<svg width="140" height="57" viewBox="0 0 140 57" fill="none" xmlns="http://www.w3.org/2000/svg">
<path d="M0.539771 55.5858L138.609 55.7867C138.609 55.7867 147.114 10.9864 103.842 22.6385C103.842 22.6385 99.8398 3.15134 76.578 0.539662C66.3229 -0.665728 55.5675 1.94595 48.0637 8.77649C43.8116 12.5936 40.3098 17.8169 40.0596 24.6475C40.0596 24.8484 -1.21111 8.5756 0.539771 55.5858Z" fill="white"/>
<path d="M139.11 56.3895L0.0394934 56.1886V55.7869C-0.460758 39.715 3.7914 29.2683 12.7959 24.4467C23.0511 19.2233 36.3078 23.2413 39.5594 24.2458C40.0597 18.4198 42.811 13.1964 47.8136 8.57574C55.0672 1.94609 65.5725 -1.06739 76.578 0.338899C98.0889 2.74968 103.342 19.2234 104.342 22.2368C115.598 19.2234 124.102 19.826 130.355 24.0449C137.359 28.6656 139.36 37.1033 139.86 43.3312C140.36 50.1617 139.36 55.7869 139.36 55.7869L139.11 56.3895ZM1.04002 55.1842L138.109 55.3851C138.609 52.5725 141.111 32.6835 129.355 24.6476C123.602 20.6296 114.847 20.2278 103.842 23.2413L103.342 23.4422V23.0404C103.342 22.8395 99.0894 3.95507 76.3279 1.34339C65.5725 0.138001 55.3173 2.95058 48.3138 9.37933C43.3113 13.7991 40.5599 19.2233 40.3098 25.0494V25.6521L39.5594 25.4512C39.3093 25.4512 24.3017 19.6251 13.2962 25.2503C4.79189 29.4692 0.539768 39.715 1.04002 55.1842Z" fill="black"/>
</svg>
