<svg width="162" height="81" viewBox="0 0 162 81" fill="none" xmlns="http://www.w3.org/2000/svg">
<path d="M0.552781 79.7718L159.679 80.254C159.679 80.254 169.323 16.1212 119.415 32.7572C119.415 32.7572 114.834 4.7895 87.8312 1.17299C75.7761 -0.514709 63.7211 3.1018 55.0415 12.9869C50.2195 18.5322 46.1208 26.0063 45.6386 35.8915C45.8797 35.6504 -1.37602 12.2636 0.552781 79.7718Z" fill="white"/>
<path d="M160.161 80.7361L0.070691 80.2539V79.7717C-0.65261 56.8671 4.1694 41.6778 14.7778 34.927C26.5917 27.2117 42.0222 33.2393 45.6387 34.6859C46.1209 26.2473 49.2552 18.7732 55.0416 12.2635C63.239 2.8606 75.5351 -1.47921 88.3135 0.449599C113.147 4.06611 119.174 27.935 120.139 32.0338C132.917 27.935 143.043 28.6583 150.035 34.4448C157.992 41.1956 160.403 53.2506 161.126 62.1713C161.849 71.8153 160.644 80.0127 160.644 80.0127L160.161 80.7361ZM1.03509 79.2895L159.197 79.7717C159.679 75.914 162.814 46.982 149.071 35.4092C142.32 29.6228 132.435 28.8995 119.657 33.2393L119.174 33.4804V32.9982C119.174 32.7571 114.352 5.51271 88.0724 1.6551C75.5351 -0.0326022 63.9623 4.06611 55.7649 13.2279C49.9785 19.7376 46.8442 27.2117 46.6031 35.8914V36.6147L45.8798 36.3736C45.6387 36.3736 28.2794 27.935 15.5011 36.1325C5.3749 42.4011 0.552892 56.8671 1.03509 79.2895Z" fill="black"/>
</svg>
