<svg width="32" height="16" viewBox="0 0 32 16" fill="none" xmlns="http://www.w3.org/2000/svg">
<path d="M0.137416 15.7474L31.649 15.8105C31.649 15.8105 33.5434 3.11751 23.6921 6.40127C23.6921 6.40127 22.8081 0.907275 17.4404 0.149483C15.1038 -0.166264 12.7041 0.528382 10.936 2.48601C9.98872 3.55955 9.16778 5.07514 9.10463 7.03277C9.10463 7.03277 -0.30463 2.35971 0.137416 15.7474Z" fill="white"/>
<path d="M31.7121 16L0.0111312 15.9368V15.8106C-0.115168 11.2638 0.832073 8.23262 2.916 6.90649C5.25253 5.3909 8.22055 6.52759 8.97834 6.84334C9.10464 5.20145 9.73614 3.68587 10.8728 2.42288C12.5147 0.591546 14.9144 -0.292548 17.4404 0.0863483C22.3029 0.780992 23.5659 5.45405 23.7553 6.33814C26.2813 5.5172 28.3021 5.70665 29.6913 6.84334C31.2701 8.16948 31.7753 10.5691 31.9016 12.3373C32.0279 14.2318 31.7753 15.8737 31.7753 15.8737L31.7121 16ZM0.263729 15.6211L31.5227 15.6843C31.649 14.8002 32.2173 9.24301 29.5019 6.96963C28.1758 5.83295 26.2181 5.70665 23.6922 6.52759L23.5659 6.59074V6.46444C23.5659 6.40129 22.6186 1.03359 17.4404 0.275798C14.9775 -0.0399486 12.641 0.780993 11.0623 2.54918C9.92559 3.81216 9.29409 5.32775 9.23094 6.96963V7.15908L9.04149 7.09593C8.97834 7.09593 5.56828 5.3909 3.0423 7.03278C1.08467 8.35892 0.13743 11.2638 0.263729 15.6211Z" fill="black"/>
</svg>
