<svg width="113" height="57" viewBox="0 0 113 57" fill="none" xmlns="http://www.w3.org/2000/svg">
<path d="M0.433527 55.5858L111.329 55.7867C111.329 55.7867 118.16 10.9864 83.4045 22.6385C83.4045 22.6385 80.1902 3.15134 61.5066 0.539662C53.2698 -0.665728 44.6312 1.94595 38.6042 8.77649C35.1889 12.5936 32.3763 17.8169 32.1754 24.6475C32.1754 24.8484 -0.972761 8.5756 0.433527 55.5858Z" fill="white"/>
<path d="M111.731 56.3895L0.0317207 56.1886V55.7869C-0.370076 39.715 3.04521 29.2683 10.2776 24.4467C18.5144 19.2233 29.162 23.2413 31.7737 24.2458C32.1755 18.4198 34.3854 13.1964 38.4033 8.57574C44.2294 1.94609 52.6671 -1.06739 61.5066 0.338899C78.7839 2.74968 83.0028 19.2234 83.8064 22.2368C92.8468 19.2234 99.6773 19.826 104.7 24.0449C110.325 28.6656 111.932 37.1033 112.334 43.3312C112.736 50.1617 111.932 55.7869 111.932 55.7869L111.731 56.3895ZM0.835333 55.1842L110.928 55.3851C111.329 52.5725 113.338 32.6835 103.896 24.6476C99.2755 20.6296 92.2441 20.2278 83.4045 23.2413L83.0028 23.4422V23.0404C83.0028 22.8395 79.5875 3.95507 61.3057 1.34339C52.6671 0.138001 44.4303 2.95058 38.8051 9.37933C34.7871 13.7991 32.5773 19.2233 32.3764 25.0494V25.6521L31.7737 25.4512C31.5728 25.4512 19.5189 19.6251 10.6793 25.2503C3.8488 29.4692 0.433536 39.715 0.835333 55.1842Z" fill="black"/>
</svg>
