<svg width="10" height="10" viewBox="0 0 10 10" fill="none" xmlns="http://www.w3.org/2000/svg">
<path d="M9.68117 0.560075C10.1009 0.97985 10.1009 1.66044 9.68117 2.08022L6.64047 5.12009L9.68058 8.16067C10.1004 8.58045 10.1004 9.26104 9.68058 9.68081C9.2608 10.1006 8.58021 10.1006 8.16044 9.68081L5.12033 6.64023L2.07997 9.68141C1.6602 10.1012 0.979606 10.1012 0.55983 9.68141C0.140055 9.26164 0.140054 8.58105 0.559829 8.16127L3.60019 5.12009L0.560431 2.0808C0.140655 1.66103 0.140655 0.980438 0.560431 0.560663C0.980207 0.140887 1.6608 0.140887 2.08057 0.560663L5.12033 3.59995L8.16103 0.560075C8.5808 0.140299 9.26139 0.140299 9.68117 0.560075Z" fill="#AEB4BB"/>
</svg>
