<svg width="20" height="20" viewBox="0 0 20 20" fill="currentColor" xmlns="http://www.w3.org/2000/svg">
<path d="M2.27273 20C1.64773 20 1.11269 19.7824 0.667614 19.3472C0.222538 18.912 0 18.3889 0 17.7778V2.22222C0 1.61111 0.222538 1.08796 0.667614 0.652778C1.11269 0.217593 1.64773 0 2.27273 0H9.09091C9.41288 0 9.68277 0.106481 9.90057 0.319444C10.1184 0.532407 10.2273 0.796296 10.2273 1.11111C10.2273 1.42593 10.1184 1.68981 9.90057 1.90278C9.68277 2.11574 9.41288 2.22222 9.09091 2.22222H2.27273V17.7778H9.09091C9.41288 17.7778 9.68277 17.8843 9.90057 18.0972C10.1184 18.3102 10.2273 18.5741 10.2273 18.8889C10.2273 19.2037 10.1184 19.4676 9.90057 19.6806C9.68277 19.8935 9.41288 20 9.09091 20H2.27273ZM16.108 11.1111H7.95455C7.63258 11.1111 7.36269 11.0046 7.14489 10.7917C6.92708 10.5787 6.81818 10.3148 6.81818 10C6.81818 9.68519 6.92708 9.4213 7.14489 9.20833C7.36269 8.99537 7.63258 8.88889 7.95455 8.88889H16.108L13.9773 6.80556C13.7689 6.60185 13.6648 6.35185 13.6648 6.05556C13.6648 5.75926 13.7689 5.5 13.9773 5.27778C14.1856 5.05556 14.4508 4.93981 14.7727 4.93056C15.0947 4.9213 15.3693 5.02778 15.5966 5.25L19.6591 9.22222C19.8864 9.44444 20 9.7037 20 10C20 10.2963 19.8864 10.5556 19.6591 10.7778L15.5966 14.75C15.3693 14.9722 15.0994 15.0787 14.7869 15.0694C14.4744 15.0602 14.2045 14.9444 13.9773 14.7222C13.7689 14.5 13.6695 14.2361 13.679 13.9306C13.6884 13.625 13.7973 13.3704 14.0057 13.1667L16.108 11.1111Z"/>
</svg>
