<svg width="217" height="29" viewBox="0 0 217 29" fill="none" xmlns="http://www.w3.org/2000/svg">
<path d="M0.338013 5.63824V0.856995H22.8648V5.63824H14.4675V28.2855H8.73533V5.63824H0.338013Z" fill="#043730"/>
<path d="M24.3313 28.2855V7.71413H29.8625V11.3034H30.0768C30.4518 10.0266 31.0813 9.06235 31.9652 8.41056C32.8492 7.74985 33.867 7.41949 35.0188 7.41949C35.3045 7.41949 35.6125 7.43735 35.9429 7.47306C36.2733 7.50878 36.5634 7.55788 36.8134 7.62038V12.6829C36.5456 12.6025 36.175 12.5311 35.7018 12.4686C35.2286 12.4061 34.7956 12.3748 34.4027 12.3748C33.5634 12.3748 32.8134 12.5579 32.1527 12.924C31.5009 13.2811 30.9831 13.7811 30.5992 14.424C30.2242 15.0668 30.0367 15.8079 30.0367 16.6472V28.2855H24.3313Z" fill="#043730"/>
<path d="M45.04 28.6739C43.7275 28.6739 42.5578 28.4463 41.5311 27.9909C40.5043 27.5266 39.6918 26.8436 39.0936 25.9418C38.5043 25.0311 38.2096 23.8972 38.2096 22.54C38.2096 21.3972 38.4195 20.4373 38.8391 19.6606C39.2587 18.8838 39.8302 18.2588 40.5534 17.7856C41.2766 17.3123 42.098 16.9552 43.0177 16.7141C43.9462 16.4731 44.9195 16.3034 45.9373 16.2052C47.1337 16.0802 48.098 15.9641 48.8302 15.857C49.5623 15.7409 50.0936 15.5713 50.4239 15.3481C50.7543 15.1248 50.9194 14.7945 50.9194 14.357V14.2766C50.9194 13.4284 50.6516 12.7722 50.1159 12.3079C49.5891 11.8436 48.8391 11.6115 47.8659 11.6115C46.8391 11.6115 46.0221 11.8391 45.415 12.2945C44.8078 12.7409 44.4061 13.3034 44.2096 13.982L38.9329 13.5534C39.2007 12.3034 39.7275 11.2231 40.5132 10.3123C41.2989 9.3927 42.3123 8.68735 43.5534 8.19627C44.8034 7.69628 46.2498 7.44628 47.8927 7.44628C49.0355 7.44628 50.1293 7.5802 51.1739 7.84806C52.2275 8.11592 53.1605 8.5311 53.973 9.0936C54.7944 9.6561 55.4418 10.3793 55.915 11.2632C56.3882 12.1382 56.6248 13.1873 56.6248 14.4106V28.2855H51.2141V25.4329H51.0534C50.723 26.0757 50.2811 26.6427 49.7275 27.1338C49.1739 27.6159 48.5087 27.9954 47.732 28.2722C46.9552 28.54 46.0578 28.6739 45.04 28.6739ZM46.6739 24.7364C47.5132 24.7364 48.2543 24.5713 48.8971 24.2409C49.54 23.9016 50.0445 23.4463 50.4105 22.8748C50.7766 22.3034 50.9596 21.6561 50.9596 20.9329V18.7498C50.7811 18.8659 50.5355 18.9731 50.223 19.0713C49.9195 19.1606 49.5757 19.2454 49.1918 19.3257C48.8078 19.3972 48.4239 19.4641 48.04 19.5266C47.6561 19.5802 47.3078 19.6293 46.9953 19.6739C46.3257 19.7722 45.7409 19.9284 45.2409 20.1427C44.7409 20.357 44.3525 20.6472 44.0757 21.0132C43.7989 21.3704 43.6605 21.8168 43.6605 22.3525C43.6605 23.1293 43.9418 23.7231 44.5043 24.1338C45.0757 24.5355 45.7989 24.7364 46.6739 24.7364Z" fill="#043730"/>
<path d="M70.3458 28.6873C68.2386 28.6873 66.4261 28.2409 64.9083 27.348C63.3994 26.4463 62.2386 25.1963 61.4261 23.5981C60.6226 21.9998 60.2208 20.1606 60.2208 18.0802C60.2208 15.9731 60.627 14.1248 61.4395 12.5356C62.261 10.9373 63.4261 9.69181 64.9351 8.79895C66.444 7.89717 68.2386 7.44628 70.319 7.44628C72.1136 7.44628 73.6851 7.77217 75.0333 8.42395C76.3815 9.07574 77.4484 9.99092 78.2342 11.1695C79.0199 12.3481 79.4529 13.732 79.5333 15.3213H74.1493C73.9976 14.2945 73.5958 13.4686 72.944 12.8436C72.3011 12.2097 71.4574 11.8927 70.4127 11.8927C69.5288 11.8927 68.7565 12.1338 68.0958 12.6159C67.444 13.0891 66.9351 13.7811 66.569 14.6918C66.2029 15.6025 66.0199 16.7052 66.0199 17.9998C66.0199 19.3123 66.1985 20.4284 66.5556 21.3481C66.9217 22.2677 67.4351 22.9686 68.0958 23.4507C68.7565 23.9329 69.5288 24.1739 70.4127 24.1739C71.0645 24.1739 71.6493 24.04 72.1672 23.7722C72.694 23.5043 73.127 23.1159 73.4663 22.607C73.8145 22.0891 74.0422 21.4686 74.1493 20.7454H79.5333C79.444 22.3168 79.0154 23.7007 78.2476 24.8972C77.4886 26.0847 76.4395 27.0132 75.1002 27.6829C73.761 28.3525 72.1761 28.6873 70.3458 28.6873Z" fill="#043730"/>
<path d="M88.3558 22.3659L88.3692 15.5222H89.1996L95.7888 7.71413H102.338L93.4853 18.0534H92.1326L88.3558 22.3659ZM83.1862 28.2855V0.856995H88.8915V28.2855H83.1862ZM96.0433 28.2855L89.9897 19.3257L93.7933 15.2945L102.726 28.2855H96.0433Z" fill="#043730"/>
<path d="M105.244 0.856995H112.396L119.95 19.2856H120.271L127.825 0.856995H134.976V28.2855H129.351V10.4329H129.124L122.025 28.1516H118.195L111.097 10.3659H110.869V28.2855H105.244V0.856995Z" fill="#043730"/>
<path d="M145.513 28.6739C144.201 28.6739 143.031 28.4463 142.004 27.9909C140.977 27.5266 140.165 26.8436 139.567 25.9418C138.977 25.0311 138.683 23.8972 138.683 22.54C138.683 21.3972 138.893 20.4373 139.312 19.6606C139.732 18.8838 140.303 18.2588 141.027 17.7856C141.75 17.3123 142.571 16.9552 143.491 16.7141C144.419 16.4731 145.393 16.3034 146.41 16.2052C147.607 16.0802 148.571 15.9641 149.303 15.857C150.035 15.7409 150.567 15.5713 150.897 15.3481C151.227 15.1248 151.393 14.7945 151.393 14.357V14.2766C151.393 13.4284 151.125 12.7722 150.589 12.3079C150.062 11.8436 149.312 11.6115 148.339 11.6115C147.312 11.6115 146.495 11.8391 145.888 12.2945C145.281 12.7409 144.879 13.3034 144.683 13.982L139.406 13.5534C139.674 12.3034 140.201 11.2231 140.986 10.3123C141.772 9.3927 142.785 8.68735 144.027 8.19627C145.277 7.69628 146.723 7.44628 148.366 7.44628C149.509 7.44628 150.602 7.5802 151.647 7.84806C152.701 8.11592 153.634 8.5311 154.446 9.0936C155.268 9.6561 155.915 10.3793 156.388 11.2632C156.861 12.1382 157.098 13.1873 157.098 14.4106V28.2855H151.687V25.4329H151.527C151.196 26.0757 150.754 26.6427 150.201 27.1338C149.647 27.6159 148.982 27.9954 148.205 28.2722C147.428 28.54 146.531 28.6739 145.513 28.6739ZM147.147 24.7364C147.986 24.7364 148.727 24.5713 149.37 24.2409C150.013 23.9016 150.518 23.4463 150.884 22.8748C151.25 22.3034 151.433 21.6561 151.433 20.9329V18.7498C151.254 18.8659 151.009 18.9731 150.696 19.0713C150.393 19.1606 150.049 19.2454 149.665 19.3257C149.281 19.3972 148.897 19.4641 148.513 19.5266C148.129 19.5802 147.781 19.6293 147.468 19.6739C146.799 19.7722 146.214 19.9284 145.714 20.1427C145.214 20.357 144.826 20.6472 144.549 21.0132C144.272 21.3704 144.134 21.8168 144.134 22.3525C144.134 23.1293 144.415 23.7231 144.977 24.1338C145.549 24.5355 146.272 24.7364 147.147 24.7364Z" fill="#043730"/>
<path d="M172.466 7.71413V11.9998H160.078V7.71413H172.466ZM162.89 2.78557H168.596V21.9641C168.596 22.4909 168.676 22.9016 168.837 23.1963C168.997 23.482 169.221 23.6829 169.506 23.7989C169.801 23.915 170.14 23.9731 170.524 23.9731C170.792 23.9731 171.06 23.9507 171.328 23.9061C171.596 23.8525 171.801 23.8123 171.944 23.7856L172.841 28.0311C172.556 28.1204 172.154 28.223 171.636 28.3391C171.118 28.4641 170.489 28.54 169.747 28.5668C168.372 28.6204 167.167 28.4373 166.131 28.0177C165.105 27.598 164.306 26.9463 163.734 26.0623C163.163 25.1784 162.881 24.0623 162.89 22.7141V2.78557Z" fill="#043730"/>
<path d="M185.337 28.6873C183.221 28.6873 181.399 28.2588 179.872 27.4016C178.355 26.5355 177.185 25.3123 176.364 23.732C175.542 22.1427 175.131 20.2632 175.131 18.0936C175.131 15.9775 175.542 14.1204 176.364 12.5222C177.185 10.924 178.341 9.67842 179.832 8.78556C181.332 7.8927 183.091 7.44628 185.109 7.44628C186.466 7.44628 187.73 7.66503 188.899 8.10253C190.078 8.5311 191.105 9.17842 191.98 10.0445C192.864 10.9106 193.551 11.9998 194.042 13.3123C194.533 14.6159 194.779 16.1427 194.779 17.8927V19.4597H177.408V15.9239H189.408C189.408 15.1025 189.23 14.3748 188.872 13.7409C188.515 13.107 188.02 12.6115 187.386 12.2543C186.761 11.8882 186.033 11.7052 185.203 11.7052C184.337 11.7052 183.569 11.9061 182.899 12.3079C182.239 12.7007 181.721 13.232 181.346 13.9016C180.971 14.5623 180.779 15.2989 180.77 16.1114V19.4731C180.77 20.4909 180.957 21.3704 181.332 22.1114C181.716 22.8525 182.256 23.4239 182.953 23.8257C183.649 24.2275 184.475 24.4284 185.431 24.4284C186.064 24.4284 186.645 24.3391 187.172 24.1606C187.698 23.982 188.149 23.7141 188.524 23.357C188.899 22.9998 189.185 22.5623 189.381 22.0445L194.658 22.3927C194.39 23.6606 193.841 24.7677 193.011 25.7141C192.189 26.6516 191.127 27.3838 189.823 27.9105C188.529 28.4284 187.033 28.6873 185.337 28.6873Z" fill="#043730"/>
<path d="M215.618 13.5802L210.395 13.9016C210.306 13.4552 210.114 13.0534 209.819 12.6963C209.524 12.3302 209.136 12.04 208.654 11.8257C208.181 11.6025 207.614 11.4909 206.953 11.4909C206.069 11.4909 205.323 11.6784 204.716 12.0534C204.109 12.4195 203.805 12.9106 203.805 13.5266C203.805 14.0177 204.002 14.4329 204.395 14.7722C204.788 15.1114 205.462 15.3838 206.417 15.5891L210.14 16.3391C212.14 16.7498 213.631 17.4106 214.614 18.3213C215.596 19.232 216.087 20.4284 216.087 21.9106C216.087 23.2588 215.689 24.4418 214.895 25.4597C214.109 26.4775 213.029 27.2722 211.654 27.8436C210.288 28.4061 208.712 28.6873 206.926 28.6873C204.203 28.6873 202.033 28.1204 200.417 26.9864C198.81 25.8436 197.868 24.29 197.591 22.3257L203.203 22.0311C203.372 22.8614 203.783 23.4954 204.435 23.9329C205.087 24.3614 205.922 24.5757 206.939 24.5757C207.939 24.5757 208.743 24.3838 209.35 23.9998C209.966 23.607 210.279 23.1025 210.288 22.4864C210.279 21.9686 210.06 21.5445 209.631 21.2141C209.203 20.8748 208.542 20.6159 207.649 20.4373L204.087 19.7275C202.078 19.3257 200.582 18.6293 199.6 17.6382C198.627 16.6472 198.14 15.3838 198.14 13.8481C198.14 12.5266 198.497 11.3882 199.212 10.4329C199.935 9.47752 200.948 8.74092 202.252 8.22306C203.564 7.7052 205.1 7.44628 206.859 7.44628C209.457 7.44628 211.502 7.99538 212.993 9.0936C214.493 10.1918 215.368 11.6873 215.618 13.5802Z" fill="#043730"/>
</svg>
