<svg width="24" height="24" viewBox="0 0 24 24"  xmlns="http://www.w3.org/2000/svg">
<path d="M19 12.9403H12V5.91971C12 5.31794 11.6 4.91677 11 4.91677C6 4.91677 2 8.92852 2 13.9432C2 18.9579 6 22.9697 11 22.9697C16 22.9697 20 18.9579 20 13.9432C20 13.3415 19.6 12.9403 19 12.9403ZM12 20.8635C8.2 21.4653 4.6 18.7573 4.1 14.9462C3.5 11.135 6.2 7.52441 10 7.02294V13.9432C10 14.545 10.4 14.9462 11 14.9462H17.9C17.5 18.0553 15.1 20.4623 12 20.8635ZM15 2.91089C14.4 2.91089 14 3.31206 14 3.91383V9.93146C14 10.5332 14.4 10.9344 15 10.9344H21C21.6 10.9344 22 10.5332 22 9.93146C22 6.02 18.9 2.91089 15 2.91089ZM16 8.92852V5.01706C18 5.41824 19.5 6.92264 19.9 8.92852H16Z" />
</svg>
