<svg width="208" height="208" viewBox="0 0 208 208" fill="none" xmlns="http://www.w3.org/2000/svg">
<path d="M0.230872 32.6361L66.2309 32.8361C66.2309 32.8361 70.2309 6.23607 49.5309 13.1361C49.5309 13.1361 47.6309 1.53607 36.4309 0.0360742C31.4309 -0.663926 26.4309 0.836074 22.8309 4.93607C20.8309 7.23607 19.1309 10.3361 18.9309 14.4361C19.0309 14.3361 -0.569128 4.63607 0.230872 32.6361Z" fill="white"/>
<path d="M66.4309 33.036L0.130883 32.836V32.636C-0.169117 23.136 1.83087 16.836 6.23087 14.036C11.1309 10.836 17.5309 13.336 19.0309 13.936C19.2309 10.436 20.5309 7.33604 22.9309 4.63604C26.3309 0.736038 31.4309 -1.06396 36.7309 -0.263962C47.0309 1.23604 49.5309 11.136 49.9309 12.836C55.2309 11.136 59.4309 11.436 62.3309 13.836C65.6309 16.636 66.6309 21.636 66.9309 25.336C67.2309 29.336 66.7309 32.736 66.7309 32.736L66.4309 33.036ZM0.430871 32.436L66.0309 32.636C66.2309 31.036 67.5309 19.036 61.8309 14.236C59.0309 11.836 54.9309 11.536 49.6309 13.336L49.4309 13.436V13.236C49.4309 13.136 47.4309 1.83604 36.5309 0.236038C31.3309 -0.463962 26.5309 1.23604 23.1309 5.03604C20.7309 7.73604 19.4309 10.836 19.3309 14.436V14.736L19.0309 14.636C18.9309 14.636 11.7309 11.136 6.43087 14.536C2.13087 17.136 0.230871 23.236 0.430871 32.436Z" fill="black"/>
<path d="M152.131 78.936L207.331 79.036C207.331 79.036 210.731 56.736 193.431 62.536C193.431 62.536 191.831 52.836 182.531 51.536C178.431 50.936 174.131 52.236 171.131 55.636C169.431 57.536 168.031 60.136 167.931 63.536C167.931 63.636 151.431 55.536 152.131 78.936Z" fill="white"/>
<path d="M207.531 79.336L151.931 79.236V79.036C151.731 71.036 153.431 65.836 157.031 63.436C161.131 60.836 166.431 62.836 167.731 63.336C167.931 60.436 169.031 57.836 171.031 55.536C173.931 52.236 178.131 50.736 182.531 51.436C191.131 52.636 193.231 60.836 193.631 62.336C198.131 60.836 201.531 61.136 204.031 63.236C206.831 65.536 207.631 69.736 207.831 72.836C208.031 76.236 207.631 79.036 207.631 79.036L207.531 79.336ZM152.331 78.736L207.131 78.836C207.331 77.436 208.331 67.536 203.631 63.536C201.331 61.536 197.831 61.336 193.431 62.836L193.231 62.936V62.736C193.231 62.636 191.531 53.236 182.431 51.936C178.131 51.336 174.031 52.736 171.231 55.936C169.231 58.136 168.131 60.836 168.031 63.736V64.036L167.731 63.936C167.631 63.936 161.631 61.036 157.231 63.836C153.831 66.036 152.131 71.036 152.331 78.736Z" fill="black"/>
<path d="M7.3308 109.036L57.2308 109.136C57.2308 109.136 60.2308 89.036 44.6308 94.236C44.6308 94.236 43.2308 85.536 34.7308 84.336C31.0308 83.836 27.2308 84.936 24.4308 88.036C22.9308 89.736 21.6308 92.136 21.5308 95.236C21.5308 95.236 6.6308 87.936 7.3308 109.036Z" fill="white"/>
<path d="M57.3309 109.436L7.13091 109.336V109.136C6.93091 101.936 8.4309 97.1361 11.7309 95.0361C15.4309 92.6361 20.1309 94.4361 21.3309 94.9361C21.5309 92.3361 22.5309 89.9361 24.3309 87.9361C26.9309 85.0361 30.7309 83.6361 34.7309 84.2361C42.4309 85.3361 44.4309 92.7361 44.7309 94.1361C48.7309 92.8361 51.9309 93.1361 54.1309 94.9361C56.6309 97.0361 57.4309 100.836 57.6309 103.636C57.8309 106.636 57.4309 109.236 57.4309 109.236L57.3309 109.436ZM7.5309 108.836L57.0309 108.936C57.2309 107.536 58.1309 98.7361 53.8309 95.1361C51.7309 93.3361 48.6309 93.1361 44.6309 94.4361L44.4309 94.5361V94.3361C44.4309 94.2361 42.9309 85.7361 34.7309 84.5361C30.8309 84.0361 27.1309 85.3361 24.6309 88.1361C22.8309 90.1361 21.8309 92.5361 21.7309 95.1361V95.4361L21.4309 95.3361C21.3309 95.3361 15.9309 92.6361 11.9309 95.2361C8.8309 97.3361 7.3309 101.936 7.5309 108.836Z" fill="black"/>
<path d="M181.031 158.036C181.131 158.936 182.531 158.936 182.431 158.036C182.031 154.236 184.331 150.736 188.031 149.536C190.931 148.636 193.731 149.736 194.631 152.736C195.031 154.036 195.031 155.336 194.631 156.536C193.331 156.536 192.231 156.836 191.031 157.336C190.131 157.736 188.931 158.336 188.731 159.336C188.531 160.536 189.931 161.336 190.931 161.436C192.131 161.636 193.331 160.936 194.131 160.036C194.731 159.336 195.231 158.636 195.531 157.936C195.731 157.936 195.931 158.036 196.131 158.036C198.631 158.636 200.731 160.736 201.131 163.436C201.431 165.736 199.631 167.136 197.531 167.536C197.031 166.736 196.331 166.136 195.531 165.636C193.931 164.736 192.231 165.136 191.631 166.936C191.531 167.136 191.631 167.436 191.831 167.636C193.231 168.736 195.031 169.236 196.831 169.036C197.431 170.036 197.631 171.136 197.531 172.336C197.231 174.236 195.531 176.036 193.731 176.436C189.931 177.236 186.231 173.236 185.131 170.036C184.831 169.236 183.531 169.536 183.831 170.436C184.731 173.136 186.731 175.536 189.131 176.936C191.231 178.136 193.731 178.436 195.831 177.136C197.931 175.736 199.231 173.336 198.831 170.836C198.731 170.236 198.531 169.536 198.231 168.936C198.631 168.836 199.131 168.636 199.531 168.536C202.331 167.236 203.131 164.436 202.031 161.636C201.031 159.136 198.731 157.436 196.131 156.836C196.431 155.736 196.431 154.536 196.231 153.336C195.931 151.336 194.831 149.536 193.031 148.636C191.331 147.836 189.431 147.836 187.631 148.436C183.331 149.636 180.631 153.736 181.031 158.036ZM195.731 167.736C194.731 167.736 193.831 167.436 193.031 166.936C193.731 166.136 195.131 167.136 195.731 167.736ZM194.031 158.036C193.931 158.136 193.931 158.236 193.831 158.336C193.331 159.136 192.531 160.136 191.531 160.336C191.031 160.436 190.631 160.236 190.231 159.936C189.931 159.736 190.031 159.736 190.231 159.436C190.831 158.836 191.931 158.436 192.731 158.236C193.131 158.136 193.531 158.036 194.031 158.036Z" fill="black"/>
<path d="M180.031 161.536H156.031C155.631 161.536 155.331 161.236 155.331 160.836C155.331 160.436 155.631 160.136 156.031 160.136H180.031C180.431 160.136 180.731 160.436 180.731 160.836C180.731 161.136 180.431 161.536 180.031 161.536Z" fill="black"/>
<path d="M179.531 167.936H164.431C164.031 167.936 163.731 167.636 163.731 167.236C163.731 166.836 164.031 166.536 164.431 166.536H179.531C179.931 166.536 180.231 166.836 180.231 167.236C180.331 167.636 180.031 167.936 179.531 167.936Z" fill="black"/>
<path d="M132.831 161.336C128.831 162.736 124.831 164.436 120.831 165.936C117.231 167.236 111.831 170.436 107.931 169.536C101.131 168.036 109.631 148.936 111.131 144.936C113.331 138.936 104.031 135.336 101.831 141.336C98.331 150.836 89.631 169.536 100.531 177.036C105.431 180.436 110.931 179.636 116.331 178.036C123.331 175.836 130.131 172.836 137.031 170.336C143.031 168.236 138.831 159.236 132.831 161.336Z" fill="black"/>
<path d="M129.031 160.136C129.031 160.136 121.031 156.136 126.431 168.936C132.131 182.636 133.931 171.536 133.931 171.536L136.031 173.036C136.031 173.036 131.131 192.736 144.931 193.036C158.731 193.336 153.631 176.736 149.531 167.036C145.331 157.436 142.831 146.136 129.031 160.136Z" fill="#FC79FF"/>
<path d="M145.231 193.336C145.131 193.336 144.931 193.336 144.831 193.336C141.531 193.236 139.031 192.136 137.331 189.936C135.031 186.936 134.731 182.536 134.831 179.336C134.931 176.336 135.531 173.836 135.631 173.236L133.931 172.036C133.731 173.036 133.031 175.936 131.431 176.136C129.931 176.336 128.131 174.036 126.131 169.236C124.131 164.436 123.731 161.336 125.031 160.136C126.231 159.036 128.331 159.836 128.931 160.136C133.831 155.236 137.631 153.136 140.631 153.736C144.431 154.536 146.331 159.336 148.431 164.436C148.831 165.336 149.231 166.336 149.631 167.336C152.931 175.036 156.131 185.236 152.631 190.336C151.131 192.236 148.631 193.336 145.231 193.336ZM133.731 171.236L136.131 173.036V173.136C136.131 173.236 133.431 184.136 137.731 189.636C139.331 191.736 141.731 192.836 144.831 192.936C148.331 193.036 150.831 192.036 152.231 189.936C155.831 184.636 151.931 173.436 149.231 167.236C148.831 166.236 148.431 165.336 148.031 164.336C146.031 159.336 144.131 154.536 140.531 153.836C137.631 153.236 133.931 155.336 129.131 160.236L129.031 160.336L128.931 160.236C128.931 160.236 126.531 159.036 125.431 160.136C124.631 160.836 124.231 162.936 126.631 168.736C129.031 174.436 130.631 175.536 131.531 175.436C132.831 175.236 133.631 172.436 133.731 171.336V171.236Z" fill="black"/>
<path d="M132.231 165.536C132.131 165.536 132.031 165.436 132.031 165.436C130.831 162.036 128.831 160.436 128.831 160.436C128.731 160.336 128.731 160.236 128.831 160.136C128.931 160.036 129.031 160.036 129.131 160.136C129.231 160.236 131.231 161.836 132.431 165.336C132.531 165.336 132.431 165.436 132.231 165.536C132.331 165.536 132.331 165.536 132.231 165.536Z" fill="black"/>
<path d="M133.931 171.736C133.831 171.736 133.831 171.736 133.931 171.736C133.831 171.736 133.731 171.636 133.731 171.536C133.831 169.836 133.431 169.136 133.431 169.136C133.331 169.036 133.431 168.936 133.531 168.836C133.631 168.736 133.731 168.836 133.831 168.936C133.831 168.936 134.231 169.736 134.231 171.536C134.131 171.636 134.031 171.736 133.931 171.736Z" fill="black"/>
<path d="M135.931 173.236C135.731 173.236 135.731 173.036 135.731 172.936L137.831 166.736C137.831 166.636 138.031 166.536 138.131 166.636C138.231 166.636 138.331 166.836 138.231 166.936L136.131 173.136C136.131 173.236 136.031 173.236 135.931 173.236Z" fill="black"/>
<path d="M135.931 173.236C135.831 173.236 135.831 173.236 135.731 173.136C135.631 173.036 135.731 172.936 135.831 172.836L140.631 170.236C140.731 170.136 140.831 170.236 140.931 170.336C141.031 170.436 140.931 170.536 140.831 170.636L135.931 173.236Z" fill="black"/>
<path d="M138.731 187.436C139.631 188.036 140.631 188.436 141.531 188.836C142.431 189.136 143.431 189.436 144.331 189.436C145.231 189.536 146.231 189.436 147.231 189.236C148.231 189.036 149.231 188.736 150.231 188.336L150.331 188.436C149.831 188.736 149.431 189.036 148.931 189.336C148.431 189.536 147.931 189.836 147.431 189.936C146.431 190.336 145.331 190.436 144.231 190.336C142.131 190.236 140.131 189.036 138.731 187.436Z" fill="white"/>
<path d="M72.3309 135.136C63.7309 155.736 58.3309 176.536 57.5309 198.936C57.3309 205.236 67.0309 206.636 67.2309 200.336C68.0309 178.836 73.0309 158.936 81.3309 139.036C83.8309 133.236 74.8309 129.336 72.3309 135.136Z" fill="black"/>
<path d="M68.631 192.336C68.631 192.336 75.831 187.536 62.531 185.836C48.231 184.036 56.731 190.936 56.731 190.936L54.431 191.936C54.431 191.936 40.231 178.236 33.231 189.736C26.231 201.236 42.631 204.936 52.831 206.236C62.931 207.436 73.631 210.836 68.631 192.336Z" fill="#FC79FF"/>
<path d="M62.531 207.436C60.431 207.436 58.131 207.136 55.731 206.736C54.731 206.636 53.731 206.436 52.731 206.336C44.731 205.336 34.531 203.036 31.931 197.636C30.831 195.336 31.131 192.636 33.031 189.536C34.631 186.836 36.831 185.236 39.531 184.936C43.131 184.436 47.031 186.336 49.631 188.036C52.131 189.636 53.931 191.236 54.431 191.636L56.331 190.836C55.631 190.136 53.531 188.136 54.131 186.736C54.731 185.336 57.531 185.036 62.531 185.636C67.531 186.236 70.331 187.436 70.731 189.136C71.131 190.636 69.331 192.036 68.831 192.436C70.631 198.936 70.531 203.236 68.531 205.436C67.231 206.936 65.031 207.436 62.531 207.436ZM40.631 185.336C40.231 185.336 39.831 185.336 39.531 185.436C37.031 185.736 34.931 187.236 33.331 189.836C31.531 192.736 31.231 195.336 32.331 197.536C35.031 203.136 46.331 205.236 52.831 206.036C53.831 206.136 54.831 206.336 55.831 206.436C61.031 207.136 65.931 207.836 68.331 205.236C70.231 203.136 70.231 198.936 68.431 192.536V192.436L68.531 192.336C68.531 192.336 70.731 190.836 70.331 189.436C70.131 188.436 68.531 187.036 62.531 186.236C56.531 185.436 54.831 186.236 54.531 187.136C54.031 188.336 56.031 190.336 56.831 191.036L57.131 191.236L54.431 192.436L54.331 192.336C54.131 192.036 47.131 185.336 40.631 185.336Z" fill="black"/>
<path d="M65.2309 193.136C64.4309 193.136 63.6309 193.036 62.6309 192.836C62.5309 192.836 62.4309 192.736 62.4309 192.636C62.4309 192.536 62.5309 192.436 62.6309 192.436C66.0309 193.136 68.4309 192.236 68.4309 192.236C68.5309 192.236 68.6309 192.236 68.7309 192.336C68.7309 192.436 68.7309 192.536 68.6309 192.636C68.6309 192.636 67.3309 193.136 65.2309 193.136Z" fill="black"/>
<path d="M58.9309 192.136C58.9309 192.136 58.0309 192.136 56.5309 191.136C56.4309 191.036 56.4309 190.936 56.4309 190.836C56.5309 190.736 56.6309 190.736 56.7309 190.736C58.1309 191.636 58.9309 191.636 58.9309 191.636C59.0309 191.636 59.1309 191.736 59.1309 191.836C59.1309 192.036 59.0309 192.136 58.9309 192.136Z" fill="black"/>
<path d="M58.631 196.936C58.531 196.936 58.531 196.936 58.431 196.836L54.231 192.036C54.131 191.936 54.131 191.836 54.231 191.736C54.331 191.636 54.431 191.636 54.531 191.736L58.731 196.536C58.831 196.636 58.831 196.736 58.731 196.836C58.631 196.936 58.631 196.936 58.631 196.936Z" fill="black"/>
<path d="M54.231 197.436C54.131 197.436 54.031 197.336 54.031 197.236L54.131 191.936C54.131 191.836 54.231 191.736 54.331 191.736C54.431 191.736 54.531 191.836 54.531 191.936L54.431 197.236C54.431 197.436 54.331 197.436 54.231 197.436Z" fill="black"/>
<path d="M40.9309 187.336C40.0309 187.836 39.1309 188.436 38.4309 189.036C37.7309 189.636 37.0309 190.336 36.5309 191.136C36.0309 191.936 35.5309 192.736 35.3309 193.636C35.0309 194.536 34.8309 195.536 34.6309 196.636H34.5309C34.5309 196.136 34.4309 195.636 34.4309 195.036C34.5309 194.536 34.4309 193.936 34.6309 193.436C34.8309 192.436 35.2309 191.436 35.8309 190.536C36.9309 188.836 38.9309 187.736 40.9309 187.336Z" fill="white"/>
<path d="M62.831 1.93594C76.231 -0.364064 89.931 -0.764064 104.131 0.735936C139.331 4.53594 159.831 16.5359 165.631 36.8359C166.931 41.4359 167.331 46.5359 166.731 52.1359C165.231 66.5359 160.131 76.9359 151.431 83.3359C148.131 85.8359 143.931 88.4359 138.631 91.2359C133.431 94.0359 129.431 96.4359 126.831 98.4359C120.731 103.036 116.131 108.936 113.131 116.036L75.131 111.936C73.731 105.436 73.331 99.6359 73.831 94.4359C74.431 89.2359 75.531 85.1359 77.331 82.0359C79.131 78.9359 81.231 76.3359 83.631 74.2359C86.031 72.1359 88.631 70.4359 91.331 69.0359C94.031 67.6359 96.531 66.4359 98.831 65.2359C101.131 64.0359 103.131 62.8359 104.731 61.5359C106.331 60.2359 107.231 58.6359 107.431 56.7359C108.331 48.6359 103.131 43.9359 92.131 42.7359C84.331 41.9359 74.831 42.7359 63.631 45.2359H63.531C60.831 45.8359 58.431 43.6359 58.731 40.9359L62.831 1.93594ZM94.631 117.636C99.031 118.136 102.731 118.936 105.731 120.236C108.731 121.536 111.131 123.036 113.031 124.936C116.731 128.536 118.331 132.836 117.831 137.936C117.331 142.936 114.231 147.236 108.531 150.636C102.831 154.036 95.631 155.336 86.831 154.436C78.031 153.536 71.731 151.236 68.031 147.436C64.231 143.736 62.631 139.336 63.131 134.436C63.631 129.436 66.931 125.236 73.031 121.636C79.031 118.136 86.231 116.736 94.631 117.636Z" fill="#00A45C"/>
<path d="M92.131 154.936C90.431 154.936 88.6309 154.836 86.8309 154.636C78.0309 153.736 71.631 151.336 67.931 147.636C64.131 143.836 62.431 139.436 63.031 134.436C63.531 129.436 66.831 125.136 73.031 121.536C79.131 117.936 86.4309 116.636 94.8309 117.536C99.2309 118.036 103.031 118.936 106.031 120.136C109.031 121.436 111.531 123.036 113.331 124.836C117.031 128.436 118.731 132.936 118.131 137.936C117.631 143.036 114.431 147.336 108.731 150.836C104.131 153.536 98.631 154.936 92.131 154.936ZM89.731 117.636C83.431 117.636 77.831 119.036 73.031 121.836C67.031 125.336 63.731 129.536 63.231 134.436C62.731 139.336 64.331 143.636 68.031 147.336C71.731 151.036 78.031 153.336 86.731 154.236C95.431 155.136 102.731 153.836 108.331 150.536C113.931 147.136 117.031 142.936 117.531 137.936C118.031 132.936 116.531 128.636 112.831 125.136C111.031 123.336 108.631 121.736 105.631 120.536C102.631 119.236 98.931 118.436 94.531 117.936C93.031 117.736 91.331 117.636 89.731 117.636ZM113.331 116.136H113.231L75.131 112.036V111.936C73.731 105.436 73.3309 99.536 73.8309 94.436C74.4309 89.236 75.5309 85.036 77.3309 81.936C79.1309 78.836 81.231 76.136 83.731 74.036C86.131 71.936 88.731 70.236 91.431 68.836C94.131 67.436 96.631 66.236 98.931 65.036C101.231 63.836 103.231 62.636 104.731 61.336C106.231 60.136 107.131 58.536 107.331 56.636C107.731 52.636 106.731 49.536 104.231 47.236C101.731 44.936 97.631 43.536 92.231 42.936C84.431 42.136 74.9309 42.936 63.8309 45.436L63.731 45.236V45.436C62.431 45.736 61.031 45.436 60.031 44.536C59.031 43.636 58.531 42.336 58.631 40.936L62.8309 1.73599H63.031C76.331 -0.564015 90.2309 -0.964015 104.331 0.535985C121.831 2.43599 135.931 6.43599 146.131 12.436C156.431 18.436 163.031 26.636 165.931 36.736C167.231 41.336 167.631 46.536 167.031 52.136C165.531 66.536 160.331 77.036 151.631 83.436C148.331 85.836 144.031 88.536 138.831 91.336C133.631 94.136 129.631 96.536 127.131 98.436C121.131 103.036 116.531 108.936 113.531 115.936L113.331 116.136ZM75.3309 111.736L113.031 115.736C116.031 108.636 120.631 102.736 126.731 98.236C129.331 96.236 133.331 93.836 138.531 91.036C143.731 88.236 148.031 85.636 151.331 83.136C159.931 76.736 165.031 66.336 166.631 52.036C167.231 46.536 166.831 41.436 165.531 36.836C162.631 26.836 156.031 18.736 145.831 12.736C135.631 6.73599 121.631 2.83599 104.131 0.935985C90.131 -0.564015 76.331 -0.164015 63.031 2.03599L58.8309 40.936C58.7309 42.136 59.131 43.336 60.031 44.136C60.931 44.936 62.1309 45.236 63.3309 45.036L63.431 45.236V45.036C74.531 42.536 84.131 41.636 91.931 42.536C97.531 43.136 101.631 44.636 104.231 46.936C106.831 49.336 107.931 52.536 107.531 56.636C107.331 58.636 106.431 60.336 104.831 61.636C103.231 62.936 101.231 64.136 98.931 65.336C96.631 66.536 94.131 67.836 91.431 69.136C88.831 70.536 86.2309 72.236 83.8309 74.336C81.4309 76.436 79.331 79.036 77.531 82.036C75.831 85.136 74.631 89.236 74.031 94.336C73.531 99.536 74.0309 105.336 75.3309 111.736Z" fill="black"/>
<path d="M109.531 59.536C104.531 63.336 98.6311 63.736 93.5311 61.236C91.7311 60.336 89.8311 59.036 88.2311 57.236C85.7311 54.536 83.9311 50.736 84.6311 46.236C85.2311 42.036 87.8311 41.136 90.6311 41.436C93.1311 41.736 95.8311 42.936 97.4311 43.736C98.8311 44.336 100.331 44.936 101.831 44.936C104.331 45.036 106.731 43.736 109.231 43.636C109.731 43.636 110.231 43.636 110.831 43.736C112.431 44.036 114.331 44.836 115.231 46.236C117.931 50.736 112.231 57.436 109.531 59.536Z" fill="black"/>
<path d="M100.131 63.036C97.831 63.036 95.631 62.536 93.431 61.436C91.431 60.436 89.531 59.036 88.031 57.436C85.931 55.136 83.631 51.436 84.331 46.236C84.831 42.536 86.931 40.936 90.531 41.336C93.031 41.636 95.831 42.836 97.431 43.636C98.631 44.136 100.131 44.736 101.831 44.836C103.131 44.836 104.431 44.536 105.731 44.236C106.831 43.936 108.031 43.636 109.231 43.636C109.831 43.636 110.331 43.636 110.931 43.736C111.931 43.936 114.231 44.536 115.431 46.336C118.331 51.036 112.231 57.836 109.731 59.836C106.731 61.936 103.431 63.036 100.131 63.036ZM89.531 41.636C86.731 41.636 85.231 43.136 84.731 46.236C84.031 51.236 86.331 54.836 88.331 57.036C89.831 58.636 91.631 60.036 93.531 61.036C98.731 63.536 104.531 62.936 109.231 59.336C111.731 57.436 117.631 50.836 114.931 46.436C113.831 44.736 111.631 44.136 110.731 44.036C110.231 43.936 109.731 43.936 109.131 43.936C108.031 43.936 106.831 44.236 105.731 44.536C104.431 44.836 103.131 45.236 101.731 45.136C100.031 45.136 98.431 44.436 97.231 43.936C95.631 43.236 92.931 41.936 90.431 41.636C90.231 41.636 89.831 41.636 89.531 41.636Z" fill="black"/>
<path d="M109.531 59.5361C104.531 63.3361 98.6309 63.7361 93.5309 61.2361C91.7309 60.3361 89.831 59.0361 88.231 57.2361C90.831 53.5361 95.031 51.3361 99.631 51.8361C104.131 52.3361 107.831 55.4361 109.531 59.5361Z" fill="#FF7300"/>
<path d="M100.131 63.0361C97.8309 63.0361 95.5309 62.5361 93.4309 61.4361C91.4309 60.4361 89.5309 59.0361 88.0309 57.4361L87.9309 57.3361L88.0309 57.2361C90.7309 53.3361 95.1309 51.2361 99.6309 51.7361C104.031 52.2361 107.931 55.2361 109.731 59.5361L109.831 59.6361L109.731 59.7361C106.731 61.9361 103.431 63.0361 100.131 63.0361ZM88.5309 57.2361C89.9309 58.8361 91.8309 60.1361 93.6309 61.0361C98.7309 63.5361 104.631 62.9361 109.231 59.4361C107.531 55.3361 103.831 52.4361 99.5309 52.0361C95.3309 51.6361 91.1309 53.6361 88.5309 57.2361Z" fill="black"/>
<path d="M94.5309 24.636C93.2309 33.536 88.6309 40.736 83.0309 43.636C80.8309 44.736 78.531 45.236 76.231 44.836C67.931 43.636 62.6309 32.636 64.4309 20.236C66.2309 7.83602 74.431 -1.26398 82.731 0.0360199C84.931 0.33602 86.9309 1.33602 88.6309 2.93602C93.3309 7.13602 95.8309 15.536 94.5309 24.636Z" fill="white"/>
<path d="M77.7309 45.136C77.2309 45.136 76.7309 45.136 76.2309 45.036C72.1309 44.436 68.6309 41.536 66.4309 36.836C64.2309 32.136 63.4309 26.236 64.3309 20.236C65.2309 14.236 67.6309 8.73599 71.1309 4.93599C74.6309 1.03599 78.8309 -0.764007 82.9309 -0.164007C85.1309 0.135993 87.1309 1.13599 88.9309 2.73599C93.8309 7.23599 96.1309 15.836 94.8309 24.636C93.5309 33.236 89.0309 40.836 83.2309 43.736C81.3309 44.736 79.5309 45.136 77.7309 45.136ZM81.2309 0.0359933C77.7309 0.0359933 74.2309 1.83599 71.3309 5.13599C67.9309 8.93599 65.5309 14.336 64.6309 20.236C63.7309 26.236 64.5309 32.036 66.7309 36.636C68.9309 41.236 72.3309 44.036 76.2309 44.636C78.4309 44.936 80.7309 44.536 82.9309 43.436C88.6309 40.536 93.0309 33.136 94.3309 24.636C95.6309 15.936 93.3309 7.43599 88.5309 3.03599C86.8309 1.43599 84.8309 0.535993 82.7309 0.235993C82.2309 0.135993 81.7309 0.0359933 81.2309 0.0359933Z" fill="black"/>
<path d="M88.6309 2.83607C80.7309 2.43607 73.2309 10.3361 71.6309 21.1361C71.5309 21.5361 71.5309 21.8361 71.5309 22.2361L84.0309 24.6361L71.4309 27.5361C72.1309 35.7361 76.6309 42.3361 83.0309 43.6361C88.6309 40.7361 93.2309 33.5361 94.5309 24.6361C95.8309 15.5361 93.3309 7.13607 88.6309 2.83607Z" fill="black"/>
<path d="M83.0309 43.836C76.7309 42.536 71.931 35.936 71.231 27.536V27.336H71.4309L83.0309 24.636L71.231 22.436V22.236C71.231 21.836 71.3309 21.536 71.3309 21.136C73.0309 10.336 80.531 2.23602 88.631 2.63602H88.731H88.8309C93.7309 7.13602 96.031 15.736 94.731 24.536C93.431 33.236 88.9309 40.836 83.0309 43.836ZM71.631 27.636C72.431 35.736 76.9309 42.036 82.9309 43.336C88.5309 40.336 93.031 33.036 94.231 24.536C95.531 15.836 93.2309 7.43602 88.4309 3.03602C80.6309 2.63602 73.231 10.636 71.731 21.136C71.731 21.436 71.631 21.736 71.631 22.036L84.9309 24.536L71.631 27.636Z" fill="black"/>
<path d="M145.731 31.736C144.331 41.436 139.331 49.236 133.331 52.436C130.931 53.636 128.431 54.136 125.931 53.836C116.931 52.536 111.131 40.536 113.031 27.136C114.931 13.636 123.831 3.83598 132.831 5.13598C135.231 5.43598 137.431 6.53598 139.231 8.23598C144.431 12.736 147.131 21.836 145.731 31.736Z" fill="white"/>
<path d="M127.531 54.036C127.031 54.036 126.431 54.036 125.931 53.936C116.831 52.636 110.931 40.536 112.931 26.936C114.831 13.336 123.831 3.43602 133.031 4.73602C135.431 5.03602 137.631 6.13602 139.531 7.93602C144.831 12.736 147.431 22.136 146.031 31.736C144.731 41.136 139.731 49.336 133.531 52.536C131.431 53.536 129.431 54.036 127.531 54.036ZM131.231 5.13602C122.931 5.13602 114.931 14.536 113.231 27.136C111.331 40.436 117.031 52.336 125.931 53.636C128.331 53.936 130.831 53.536 133.231 52.236C139.431 49.036 144.231 40.936 145.531 31.736C146.931 22.236 144.431 13.036 139.131 8.33602C137.231 6.63602 135.131 5.63602 132.831 5.23602C132.331 5.13602 131.831 5.13602 131.231 5.13602Z" fill="black"/>
<path d="M139.331 8.13599C130.731 7.63599 122.631 16.336 120.931 28.036C120.831 28.436 120.831 28.836 120.831 29.236L134.431 31.836L120.831 35.036C121.631 43.936 126.531 51.036 133.431 52.436C139.531 49.236 144.431 41.436 145.831 31.736C147.131 21.836 144.431 12.736 139.331 8.13599Z" fill="black"/>
<path d="M133.331 52.636C126.431 51.236 121.331 44.136 120.431 35.036V34.836L133.331 31.836L120.531 29.336V29.136C120.531 28.736 120.631 28.336 120.631 27.936C122.331 16.236 130.531 7.33599 139.231 7.83599H139.331H139.431C144.731 12.636 147.331 22.036 145.931 31.636C144.631 41.136 139.631 49.336 133.331 52.636ZM120.931 35.136C121.831 44.036 126.731 50.836 133.331 52.236C139.431 49.036 144.231 40.936 145.631 31.736C147.031 22.236 144.531 13.136 139.331 8.33599C130.831 7.93599 122.831 16.636 121.231 28.036C121.231 28.336 121.131 28.636 121.131 29.036L135.531 31.736L120.931 35.136Z" fill="black"/>
<path d="M107.331 37.4361C107.031 40.4361 104.331 42.6361 101.331 42.3361C98.3309 42.0361 96.1309 39.3361 96.4309 36.3361C96.7309 33.3361 99.4309 31.1361 102.431 31.4361C105.531 31.7361 107.731 34.4361 107.331 37.4361Z" fill="#FFBE32"/>
<path d="M101.931 42.536C101.731 42.536 101.531 42.536 101.331 42.536C99.831 42.336 98.431 41.636 97.531 40.436C96.531 39.236 96.131 37.736 96.331 36.236C96.631 33.136 99.431 30.836 102.631 31.236C104.131 31.436 105.531 32.136 106.431 33.336C107.431 34.536 107.831 36.036 107.631 37.536C107.231 40.336 104.831 42.536 101.931 42.536ZM101.931 31.536C99.231 31.536 96.931 33.536 96.731 36.236C96.531 37.636 97.031 39.036 97.831 40.136C98.731 41.236 99.931 41.936 101.331 42.036C104.231 42.336 106.831 40.236 107.131 37.336C107.331 35.936 106.831 34.536 106.031 33.436C105.131 32.336 103.931 31.636 102.531 31.536C102.331 31.636 102.131 31.536 101.931 31.536Z" fill="black"/>
<path d="M168.531 91.536C168.131 92.036 167.731 92.536 167.331 93.036C167.231 93.136 167.131 93.236 167.131 93.336C164.931 96.136 162.831 98.836 160.731 101.636C160.031 102.536 159.331 103.536 158.531 104.436C156.631 106.936 154.831 109.436 152.931 111.936C149.431 116.736 145.331 124.436 139.031 126.036C133.331 127.536 131.231 121.936 130.331 117.436C129.031 110.836 129.031 104.536 126.331 98.636C126.531 98.536 126.631 98.436 126.831 98.236C128.231 97.136 130.031 95.936 132.231 94.636C133.931 97.836 135.031 101.236 135.731 105.136C136.231 108.036 136.631 110.936 137.031 113.936C137.231 115.136 137.231 116.636 137.731 117.736C137.931 118.236 138.031 118.636 138.131 118.836C138.231 118.736 138.331 118.536 138.631 118.436C141.231 117.336 143.531 112.936 145.131 110.736C147.031 108.136 148.931 105.536 150.831 102.936C151.531 101.936 152.231 101.036 152.931 100.136C153.631 99.236 154.231 98.336 154.931 97.436C156.631 95.236 158.331 93.036 160.031 90.936C161.031 89.736 162.031 88.436 162.931 87.236C164.531 85.136 167.131 85.736 168.431 87.236C169.431 88.436 169.731 90.036 168.531 91.536Z" fill="black"/>
<path d="M155.331 96.236C152.231 91.436 151.431 84.536 154.431 83.236C158.531 81.936 160.631 88.036 160.631 88.036C160.631 88.036 163.831 84.436 169.331 82.136C175.831 79.336 173.731 84.036 173.731 84.036C173.731 84.036 176.431 82.336 178.531 84.136C180.031 85.836 177.531 87.336 177.531 87.336C178.731 87.036 181.231 86.836 181.331 88.536C181.431 90.136 179.631 91.236 178.531 91.936C177.031 92.936 175.531 93.936 173.931 94.736C173.431 95.036 172.631 95.336 172.331 95.836C168.431 103.036 162.731 101.436 162.731 101.436C162.731 102.636 162.231 105.636 159.531 104.136C157.931 103.236 154.631 100.736 153.331 99.236C151.731 97.436 155.331 96.236 155.331 96.236Z" fill="white"/>
<path d="M160.931 104.736C160.531 104.736 160.031 104.636 159.531 104.336C158.031 103.436 154.631 100.936 153.331 99.436C152.931 98.936 152.731 98.436 152.931 97.936C153.231 96.936 154.531 96.336 155.131 96.136C152.931 92.636 151.931 87.936 152.831 85.236C153.131 84.136 153.731 83.436 154.531 83.136C158.231 81.936 160.331 86.436 160.831 87.736C161.631 86.936 164.731 84.036 169.331 82.036C171.731 81.036 173.231 80.836 173.931 81.536C174.531 82.136 174.331 83.036 174.131 83.636C175.031 83.236 177.031 82.536 178.631 83.936C179.031 84.436 179.231 84.936 179.131 85.436C179.031 86.036 178.631 86.636 178.231 86.936C179.131 86.836 180.231 86.836 180.931 87.336C181.331 87.636 181.431 87.936 181.531 88.436C181.631 90.036 180.131 91.136 178.931 91.836L178.631 92.036C177.331 92.936 175.931 93.836 174.031 94.936C173.931 95.036 173.831 95.036 173.631 95.136C173.231 95.336 172.731 95.636 172.531 95.936C169.131 102.336 164.131 101.936 162.931 101.736C162.931 102.636 162.631 104.036 161.731 104.536C161.431 104.736 161.231 104.736 160.931 104.736ZM155.331 96.036L155.731 96.336L155.331 96.436C155.331 96.436 153.431 97.036 153.131 98.036C153.031 98.436 153.131 98.736 153.431 99.136C154.731 100.636 158.031 103.136 159.531 103.936C160.331 104.336 160.931 104.436 161.331 104.136C162.131 103.636 162.331 102.136 162.331 101.436V101.136L162.631 101.236C162.831 101.336 168.231 102.636 172.031 95.736C172.231 95.336 172.831 95.036 173.331 94.736C173.431 94.636 173.631 94.636 173.731 94.536C175.631 93.436 177.031 92.536 178.331 91.736L178.631 91.536C179.631 90.836 181.131 89.836 181.031 88.436C181.031 88.036 180.831 87.836 180.631 87.636C179.831 87.036 178.131 87.336 177.531 87.436L176.331 87.636L177.331 87.036C177.331 87.036 178.631 86.236 178.731 85.236C178.831 84.836 178.631 84.436 178.331 84.036C176.431 82.436 173.831 83.936 173.831 84.036L173.231 84.436L173.531 83.836C173.531 83.836 174.231 82.336 173.531 81.636C173.131 81.236 172.131 81.036 169.331 82.236C163.931 84.536 160.731 88.036 160.731 88.136L160.531 88.436L160.431 88.136C160.431 88.036 158.331 82.236 154.531 83.536C153.831 83.836 153.331 84.436 153.031 85.436C152.131 88.036 153.131 92.636 155.331 96.036Z" fill="black"/>
<path d="M166.131 88.736C166.031 88.736 166.031 88.736 165.931 88.636C165.831 88.536 165.931 88.436 166.031 88.336L173.531 83.736C173.631 83.636 173.731 83.736 173.831 83.836C173.931 83.936 173.831 84.036 173.731 84.136L166.231 88.736C166.231 88.736 166.231 88.736 166.131 88.736Z" fill="black"/>
<path d="M169.531 92.236C169.431 92.236 169.431 92.236 169.331 92.136C169.231 92.036 169.331 91.936 169.431 91.836L177.331 87.0361C177.431 86.9361 177.531 87.036 177.631 87.136C177.731 87.236 177.631 87.3361 177.531 87.4361L169.631 92.236C169.531 92.236 169.531 92.236 169.531 92.236Z" fill="black"/>
<path d="M170.831 93.636C170.731 93.636 170.731 93.636 170.731 93.536L165.531 88.036C165.431 87.936 165.431 87.836 165.531 87.736C165.631 87.636 165.731 87.636 165.831 87.736L171.031 93.236C171.131 93.336 171.131 93.436 171.031 93.536C170.931 93.636 170.831 93.636 170.831 93.636Z" fill="black"/>
<path d="M163.831 94.636C163.631 94.636 163.631 94.4359 163.631 94.3359C164.031 93.1359 163.931 92.1359 163.431 91.3359C162.431 89.7359 160.131 89.436 160.031 89.436H159.731L160.231 88.036C160.231 87.936 160.431 87.836 160.531 87.936C160.631 87.936 160.731 88.1359 160.631 88.2359L160.231 89.2359C160.931 89.3359 162.731 89.8359 163.631 91.2359C164.231 92.1359 164.331 93.236 163.831 94.536C164.031 94.536 163.931 94.636 163.831 94.636Z" fill="black"/>
<path d="M162.731 101.736H162.631L161.031 100.436C160.931 100.336 160.931 100.236 161.031 100.136C161.131 100.036 161.231 100.036 161.331 100.136L162.931 101.436C163.031 101.536 163.031 101.636 162.931 101.736C162.831 101.636 162.831 101.736 162.731 101.736Z" fill="black"/>
<path d="M156.931 97.736H156.831L155.231 96.436C155.131 96.336 155.131 96.236 155.231 96.136C155.331 96.036 155.431 96.036 155.531 96.136L157.131 97.436C157.231 97.536 157.231 97.636 157.131 97.736C157.031 97.636 156.931 97.736 156.931 97.736Z" fill="black"/>
<path d="M73.9308 94.4361C73.7308 96.2361 73.6309 98.0361 73.7309 99.9361C72.4309 102.536 71.1309 105.236 69.6309 107.836C67.3309 111.836 63.5309 116.436 58.6309 113.236C53.2309 109.736 51.8309 101.036 50.0309 95.4361C49.1309 92.4361 48.1309 89.4361 47.1309 86.5361C46.7309 85.4361 46.4309 84.236 46.0309 83.136C44.9309 79.836 43.7309 76.5361 42.6309 73.1361C42.6309 73.0361 42.5309 72.936 42.5309 72.736C42.3309 72.136 42.1308 71.5361 41.9308 70.9361C41.3308 69.1361 42.1308 67.7361 43.3308 67.0361C45.1308 66.0361 47.7309 66.336 48.6309 68.836C49.1309 70.336 49.6309 71.836 50.2309 73.336C51.1309 75.936 52.0308 78.5361 52.9308 81.1361C53.3308 82.2361 53.6309 83.236 54.0309 84.336C54.4309 85.436 54.7309 86.536 55.1309 87.736C56.0309 90.836 56.9308 93.8361 57.9308 96.9361C58.8308 99.5361 59.6309 104.436 61.6309 106.336C61.8309 106.536 61.9308 106.736 61.9308 106.836C62.0308 106.636 62.2309 106.336 62.6309 105.936C63.4309 105.036 63.9309 103.636 64.5309 102.536C65.8309 99.8361 67.1309 97.236 68.5309 94.636C70.6309 90.736 72.9309 87.6361 76.0309 85.0361C75.0309 87.5361 74.3308 90.7361 73.9308 94.4361Z" fill="black"/>
<path d="M54.731 81.636C59.631 77.836 61.831 69.536 59.131 67.236C55.431 64.436 52.131 71.436 52.131 71.436C52.131 71.436 50.131 66.636 45.331 62.336C39.631 57.136 40.131 62.736 40.131 62.736C40.131 62.736 38.031 60.036 35.231 61.136C33.031 62.336 35.131 64.836 35.131 64.836C33.931 64.136 31.531 63.036 30.831 64.736C30.131 66.436 31.631 68.136 32.431 69.236C33.631 70.836 34.831 72.336 36.131 73.736C36.531 74.136 37.331 74.836 37.431 75.436C38.931 84.136 45.331 84.536 45.331 84.536C44.931 85.736 44.431 89.036 47.631 88.436C49.631 88.036 53.931 86.636 55.631 85.636C57.931 84.036 54.731 81.636 54.731 81.636Z" fill="white"/>
<path d="M46.8309 88.536C46.1309 88.536 45.6309 88.336 45.2309 87.936C44.5309 87.036 44.7309 85.536 44.9309 84.636C43.7309 84.436 38.4309 83.136 37.1309 75.336C37.0309 74.936 36.6309 74.536 36.2309 74.136C36.1309 74.036 36.0309 73.936 35.9309 73.836C34.3309 72.036 33.2309 70.636 32.2309 69.336L32.0309 69.036C31.1309 67.836 29.9309 66.236 30.6309 64.636C30.8309 64.136 31.1309 63.836 31.6309 63.636C32.5309 63.336 33.6309 63.736 34.5309 64.136C34.2309 63.636 33.9309 62.936 34.1309 62.236C34.2309 61.636 34.6309 61.236 35.2309 60.936C37.4309 60.036 39.3309 61.436 40.0309 62.236C40.0309 61.536 40.2309 60.536 41.0309 60.136C42.0309 59.636 43.5309 60.336 45.6309 62.236C49.6309 65.836 51.7309 69.836 52.3309 71.036C52.9309 70.036 54.6309 67.136 56.8309 66.536C57.7309 66.336 58.6309 66.536 59.4309 67.136C60.2309 67.836 60.7309 69.136 60.6309 70.836C60.5309 74.036 58.6309 78.936 55.2309 81.736C55.7309 82.136 56.9309 83.236 56.8309 84.336C56.8309 84.836 56.5309 85.336 55.9309 85.636C54.1309 86.736 49.7309 88.136 47.8309 88.536C47.3309 88.536 47.0309 88.536 46.8309 88.536ZM32.2309 63.936C32.0309 63.936 31.8309 63.936 31.7309 64.036C31.4309 64.136 31.1309 64.336 31.0309 64.736C30.4309 66.136 31.6309 67.636 32.4309 68.736L32.6309 69.036C33.6309 70.436 34.7309 71.736 36.3309 73.536C36.4309 73.636 36.5309 73.736 36.6309 73.836C37.0309 74.236 37.5309 74.736 37.6309 75.236C38.3309 79.636 40.4309 81.836 42.0309 82.936C43.7309 84.136 45.3309 84.236 45.3309 84.236H45.6309L45.5309 84.536C45.2309 85.236 44.9309 86.836 45.6309 87.736C46.0309 88.236 46.7309 88.336 47.6309 88.136C49.5309 87.836 53.8309 86.436 55.6309 85.336C56.1309 85.036 56.3309 84.736 56.3309 84.336C56.4309 83.236 54.7309 81.936 54.6309 81.936L54.3309 81.736L54.7309 81.636C58.1309 78.936 60.0309 74.136 60.1309 70.936C60.1309 69.336 59.8309 68.236 59.0309 67.536C58.3309 67.036 57.5309 66.836 56.7309 67.036C54.2309 67.636 52.3309 71.636 52.3309 71.636L52.1309 72.036L51.9309 71.636C51.9309 71.636 49.8309 66.836 45.1309 62.636C42.7309 60.436 41.5309 60.336 41.0309 60.636C40.3309 61.036 40.2309 62.436 40.2309 62.936L40.3309 63.636L39.9309 63.136C39.9309 63.136 37.8309 60.636 35.2309 61.636C34.7309 61.936 34.5309 62.236 34.4309 62.636C34.2309 63.736 35.2309 64.936 35.2309 64.936L36.0309 65.836L35.0309 65.236C34.4309 64.536 33.2309 63.936 32.2309 63.936Z" fill="black"/>
<path d="M46.231 70.136C46.131 70.136 46.131 70.136 46.031 70.036L39.931 62.736C39.831 62.636 39.831 62.536 39.931 62.436C40.031 62.336 40.131 62.336 40.231 62.436L46.331 69.736C46.431 69.836 46.431 69.936 46.331 70.036C46.331 70.136 46.231 70.136 46.231 70.136Z" fill="black"/>
<path d="M41.5309 72.536C41.4309 72.536 41.4309 72.536 41.3309 72.436L34.8309 64.736C34.7309 64.636 34.7309 64.536 34.8309 64.436C34.9309 64.336 35.0309 64.336 35.1309 64.436L41.6309 72.136C41.7309 72.236 41.7309 72.336 41.6309 72.436C41.6309 72.536 41.6309 72.536 41.5309 72.536Z" fill="black"/>
<path d="M39.7309 73.536C39.6309 73.536 39.6309 73.536 39.5309 73.436C39.4309 73.336 39.5309 73.236 39.6309 73.136L46.9309 69.336C47.0309 69.236 47.1309 69.336 47.2309 69.436C47.3309 69.536 47.2309 69.636 47.1309 69.736L39.7309 73.536Z" fill="black"/>
<path d="M46.5308 76.936C46.4308 76.936 46.3308 76.836 46.3308 76.736C46.3308 75.236 46.8308 74.136 47.7308 73.436C49.1308 72.236 51.2308 72.436 51.9308 72.536V71.436C51.9308 71.336 52.0308 71.236 52.1308 71.236C52.2308 71.236 52.3308 71.336 52.3308 71.436L52.4308 73.036H52.1308C52.1308 73.036 49.5308 72.536 48.0308 73.836C47.2308 74.536 46.8308 75.536 46.8308 76.836C46.7308 76.836 46.6308 76.936 46.5308 76.936Z" fill="black"/>
<path d="M45.2308 84.636C45.1308 84.636 45.0308 84.536 45.0308 84.536C45.0308 84.436 45.0308 84.336 45.1308 84.236L47.2308 83.536C47.3308 83.536 47.4308 83.536 47.5308 83.636C47.6308 83.736 47.5308 83.836 47.4308 83.936L45.2308 84.636Z" fill="black"/>
<path d="M52.6309 82.536C52.5309 82.536 52.4309 82.436 52.4309 82.436C52.4309 82.336 52.4309 82.236 52.5309 82.136L54.6309 81.436C54.7309 81.436 54.8309 81.436 54.9309 81.536C54.9309 81.636 54.9309 81.736 54.8309 81.836L52.6309 82.536Z" fill="black"/>
</svg>
