<svg width="179" height="179" viewBox="0 0 179 179" fill="none" xmlns="http://www.w3.org/2000/svg">
<g clip-path="url(#clip0_9_259)">
<path d="M114.281 25.2068C114.281 25.2068 129.577 30.9055 125.727 44.9598L96.2204 43.5613L67.2388 39.401C66.1537 28.5631 78.9994 23.6336 78.9994 23.6336C79.1744 23.5986 79.6995 17.8301 79.7695 17.3056C80.2245 14.334 81.2395 11.6769 82.9546 9.26463C86.5948 4.12538 92.7202 0.139828 98.8455 0.174789C107.281 0.244711 113.686 7.97108 114.771 16.4666C114.981 18.1447 114.981 19.8578 114.806 21.5359C114.771 22.0953 114.071 25.067 114.281 25.2068Z" fill="#4363D6"/>
<path d="M125.867 45.1696H125.727L96.2204 43.7711L67.0638 39.6108V39.4709C66.6087 34.9959 68.4988 30.8356 72.5591 27.4094C75.4292 24.9971 78.4044 23.7385 78.8944 23.5637C79.0344 23.1092 79.2794 20.4172 79.4544 18.9139C79.5244 18.0748 79.5945 17.4805 79.6295 17.3406C80.1195 14.2641 81.1695 11.6071 82.8496 9.22971C86.7698 3.67092 93.0352 0.0699463 98.7755 0.0699463C98.8105 0.0699463 98.8455 0.0699463 98.8805 0.0699463C102.871 0.104907 106.721 1.88792 109.731 5.10432C112.566 8.14592 114.421 12.2014 114.981 16.5016C115.191 18.1448 115.191 19.8928 115.016 21.6408C115.016 21.7807 114.911 22.1653 114.841 22.6198C114.701 23.319 114.421 24.7873 114.456 25.102C115.576 25.5565 129.682 31.4998 125.937 45.0297L125.867 45.1696ZM67.4138 39.2612L96.2904 43.3865L125.622 44.785C127.127 39.0864 125.727 34.0869 121.352 29.9615C118.062 26.85 114.281 25.3817 114.246 25.3817L114.211 25.3467C114.036 25.2069 114.036 24.7873 114.491 22.5149C114.561 22.0953 114.666 21.7108 114.666 21.5709C114.841 19.8578 114.841 18.1448 114.631 16.5365C113.336 6.11819 105.531 0.454517 98.8805 0.384595C98.8455 0.384595 98.8105 0.384595 98.7755 0.384595C93.1402 0.384595 87.0149 3.91565 83.1296 9.40452C81.4846 11.7469 80.4345 14.369 79.9445 17.3756C79.9095 17.5155 79.8395 18.1448 79.7695 18.9489C79.2794 23.6686 79.2094 23.8084 79.0344 23.8434C78.7894 23.9483 75.7092 25.1719 72.7691 27.6541C68.8138 31.0104 67.0288 34.926 67.4138 39.2612Z" fill="#4363D6"/>
<path d="M131.957 50.0642C131.992 51.2878 131.817 52.5114 131.712 53.7001L117.327 52.6513L103.816 51.6724L90.2701 50.6585L76.9693 49.6796L62.0235 48.5958C61.9185 47.1274 61.9185 45.3794 62.2335 43.4216C62.6535 40.8694 63.4936 38.8417 64.2286 37.3733C64.6136 36.6392 65.2437 36.0798 66.0487 35.905C66.5387 35.8001 66.9938 35.6603 67.4838 35.5554C79.9795 32.6886 94.3653 33.9472 105.846 36.0099C110.361 36.814 115.051 37.5481 119.392 38.4222C121.877 38.9116 124.222 39.436 126.357 40.0653C126.637 40.1353 126.882 40.2052 127.127 40.3101C130.977 41.4288 131.852 46.5681 131.957 50.0642Z" fill="#4363D6"/>
<path d="M131.852 53.9098L61.8135 48.7706V48.6307C61.6735 46.9177 61.7435 45.1696 62.0235 43.4216C62.3735 41.2889 63.0735 39.2262 64.0536 37.3034C64.4736 36.4993 65.1737 35.9399 65.9787 35.7301C66.4337 35.6253 66.9238 35.4854 67.4138 35.3805C77.8794 32.9682 90.7951 33.143 105.846 35.835C107.421 36.1147 108.996 36.3944 110.606 36.6741C113.546 37.1635 116.557 37.688 119.392 38.2473C122.157 38.8067 124.432 39.3311 126.392 39.8905C126.672 39.9604 126.917 40.0303 127.197 40.1352C128.947 40.6596 131.922 42.6524 132.132 50.0641C132.167 51.043 132.062 52.0219 131.957 52.9659C131.922 53.2106 131.922 53.4903 131.887 53.735L131.852 53.9098ZM62.1635 48.421L131.537 53.5253C131.572 53.3155 131.572 53.1407 131.607 52.9309C131.712 51.987 131.782 51.0081 131.782 50.0641C131.712 47.5819 131.152 41.6735 127.092 40.4499C126.847 40.38 126.567 40.31 126.322 40.2051C124.397 39.6458 122.087 39.1214 119.357 38.562C116.522 38.0026 113.511 37.4782 110.571 36.9887C108.961 36.7091 107.386 36.4294 105.811 36.1497C90.8301 33.4577 77.9144 33.2829 67.5188 35.6952C67.0288 35.8001 66.5387 35.9399 66.0837 36.0448C65.3487 36.2196 64.7536 36.744 64.3686 37.4432C63.3886 39.3311 62.7235 41.3589 62.3735 43.4565C62.1285 45.1346 62.0235 46.7778 62.1635 48.421Z" fill="black"/>
<path d="M77.5022 34.1151L76.7695 49.6906L77.1191 49.707L77.8518 34.1315L77.5022 34.1151Z" fill="black"/>
<path d="M91.4569 34.2385L90.0715 50.6475L90.4203 50.6768L91.8056 34.2679L91.4569 34.2385Z" fill="black"/>
<path d="M105.305 36.0082L103.612 51.6494L103.96 51.687L105.653 36.0458L105.305 36.0082Z" fill="black"/>
<path d="M117.502 52.6862L117.152 52.6512L119.217 38.3522L119.567 38.3871L118.657 44.6451L117.502 52.6862Z" fill="black"/>
<path d="M73.8892 124.251L65.7687 124.321C62.2685 136.488 60.8684 149.143 63.0036 162.079C63.8086 166.973 71.579 166.344 70.739 161.415C68.6389 148.549 70.179 136.173 73.8892 124.251Z" fill="black"/>
<path d="M67.0988 165.61C66.5388 165.61 65.9787 165.505 65.4537 165.295C64.0536 164.771 63.0736 163.582 62.8286 162.079C60.8334 149.947 61.7435 137.571 65.5937 124.216L65.6287 124.076L74.1342 124.006L74.0642 124.251C70.004 137.292 68.9889 149.423 70.949 161.31C71.159 162.673 70.774 163.862 69.7939 164.666C69.0589 165.33 68.0789 165.61 67.0988 165.61ZM65.8737 124.496C62.0585 137.746 61.1835 150.052 63.1436 162.079C63.3886 163.477 64.2286 164.526 65.5237 165.016C66.8888 165.54 68.4989 165.295 69.5139 164.456C70.109 163.967 70.809 163.023 70.529 161.45C68.5689 149.563 69.5839 137.466 73.6092 124.426L65.8737 124.496Z" fill="black"/>
<path d="M57.5782 154.912L77.0043 155.332L77.2843 178.79L41.0223 178.825C41.0223 178.825 39.2022 164.841 57.8232 166.484L57.5782 154.912Z" fill="#4363D6"/>
<path d="M40.8473 179L40.8123 178.86C40.8123 178.825 40.1823 173.686 43.7175 169.98C46.5526 167.008 51.2429 165.785 57.5782 166.309L57.3332 154.737H57.5082L77.1093 155.157L77.3893 178.965H77.2143L40.8473 179ZM54.8831 166.519C50.0178 166.519 46.3776 167.743 43.9975 170.19C40.9173 173.406 41.0923 177.776 41.1623 178.615L77.1093 178.581L76.8293 155.471L57.7533 155.052L57.9983 166.659H57.7883C56.7732 166.554 55.7931 166.519 54.8831 166.519Z" fill="black"/>
<path d="M43.6474 176.238C43.1574 176.063 43.0524 175.609 43.1224 175.154C43.7174 172.427 45.6076 169.98 48.3377 169.141C48.7577 169.001 49.2828 169.421 49.3178 169.805C49.3878 170.295 49.1077 170.644 48.6527 170.784C48.8277 170.749 48.5827 170.819 48.5477 170.819C48.4777 170.854 48.4077 170.889 48.3377 170.924C48.1977 170.959 48.0927 171.029 47.9877 171.099C47.8477 171.169 47.7077 171.239 47.5677 171.344C47.5327 171.344 47.5327 171.344 47.5327 171.379C47.4627 171.414 47.4277 171.448 47.3576 171.483C47.1126 171.658 46.9026 171.833 46.6926 172.043C46.6226 172.113 46.5876 172.148 46.5176 172.218C46.5176 172.218 46.4476 172.288 46.4126 172.322C46.3076 172.427 46.2376 172.532 46.1676 172.637C45.9926 172.882 45.8176 173.127 45.6776 173.371C45.6076 173.476 45.5375 173.616 45.4675 173.721C45.4675 173.756 45.3975 173.826 45.3975 173.861C45.3625 173.931 45.3275 173.966 45.3275 174.036C45.0825 174.595 44.9075 175.154 44.7675 175.749C44.6275 176.203 44.0325 176.378 43.6474 176.238Z" fill="white"/>
<path d="M122.017 124.181H113.861C110.221 136.138 108.646 148.584 110.501 161.415C111.201 166.344 118.972 165.855 118.272 160.89C116.417 148.13 118.167 135.928 122.017 124.181Z" fill="black"/>
<path d="M114.631 165.086C114.036 165.086 113.441 164.981 112.881 164.771C111.481 164.212 110.536 163.023 110.326 161.485C108.611 149.493 109.696 137.257 113.721 124.146L113.756 124.006H122.297L122.227 124.251C117.992 137.082 116.767 149.073 118.482 160.89C118.692 162.254 118.237 163.442 117.257 164.212C116.522 164.771 115.576 165.086 114.631 165.086ZM114.001 124.356C110.046 137.362 108.961 149.493 110.676 161.415C110.886 162.813 111.691 163.897 113.021 164.421C114.386 164.981 115.997 164.771 117.047 163.967C117.677 163.477 118.342 162.568 118.132 160.96C116.417 149.143 117.642 137.187 121.842 124.391H114.001V124.356Z" fill="black"/>
<path d="M104.971 154.912L124.397 155.332L124.677 178.79L88.415 178.825C88.415 178.825 86.5949 164.841 105.216 166.484L104.971 154.912Z" fill="#4363D6"/>
<path d="M88.275 179L88.24 178.86C88.24 178.825 87.6099 173.686 91.1451 169.98C93.9803 167.008 98.6706 165.785 105.006 166.309L104.761 154.737H104.936L124.537 155.157L124.817 178.965H124.642L88.275 179ZM102.276 166.519C97.4105 166.519 93.7703 167.743 91.3902 170.19C88.31 173.406 88.485 177.776 88.555 178.615L124.502 178.581L124.222 155.471L105.146 155.052L105.391 166.659H105.181C104.166 166.554 103.221 166.519 102.276 166.519Z" fill="black"/>
<path d="M91.0401 176.238C90.5501 176.063 90.4451 175.609 90.5151 175.154C91.1101 172.427 93.0002 169.98 95.7304 169.141C96.1504 169.001 96.6754 169.421 96.7105 169.805C96.7805 170.295 96.5004 170.644 96.0454 170.784C96.2204 170.749 95.9754 170.819 95.9404 170.819C95.8704 170.854 95.8004 170.889 95.7304 170.924C95.5904 170.959 95.4854 171.029 95.3804 171.099C95.2404 171.169 95.1004 171.239 94.9604 171.344C94.9254 171.344 94.9254 171.344 94.9254 171.379C94.8554 171.414 94.8204 171.448 94.7503 171.483C94.5053 171.658 94.2953 171.833 94.0853 172.043C94.0153 172.113 93.9803 172.148 93.9103 172.218C93.9103 172.218 93.8403 172.288 93.8053 172.322C93.7003 172.427 93.6303 172.532 93.5603 172.637C93.3853 172.882 93.2103 173.127 93.0702 173.371C93.0002 173.476 92.9302 173.616 92.8602 173.721C92.8602 173.756 92.7902 173.826 92.7902 173.861C92.7552 173.931 92.7202 173.966 92.7202 174.036C92.4752 174.595 92.3002 175.154 92.1602 175.749C92.0552 176.203 91.4602 176.378 91.0401 176.238Z" fill="white"/>
<path d="M146.063 54.7488C147.148 54.8537 148.933 55.1683 150.823 56.2521C150.858 56.2521 150.893 56.2871 150.893 56.2871C153.904 58.0351 155.584 61.4613 155.409 65.0273C154.464 84.99 153.519 104.988 152.574 124.95C152.434 128.097 151.208 131.173 149.003 133.376C148.968 133.411 148.968 133.411 148.933 133.446C146.238 136.173 143.158 136.942 141.933 137.187L146.063 54.7488Z" fill="#F76519"/>
<path d="M141.758 137.396V137.187L145.888 54.574H146.063C147.778 54.7488 149.423 55.2382 150.893 56.1123L150.963 56.1472C153.939 57.8953 155.759 61.3914 155.584 65.0273L152.749 124.95C152.609 128.272 151.313 131.278 149.143 133.516L149.073 133.586C146.623 136.033 143.858 137.012 141.968 137.361L141.758 137.396ZM146.203 54.9585L142.108 136.977C143.928 136.592 146.518 135.613 148.793 133.341L148.863 133.271C150.963 131.138 152.224 128.167 152.364 124.95L155.199 65.0273C155.374 61.4962 153.624 58.14 150.753 56.4619L150.683 56.4269C149.318 55.6228 147.813 55.1333 146.203 54.9585Z" fill="black"/>
<path d="M140.883 137.431L37.2771 129.81C34.687 129.635 32.7269 127.328 32.8669 124.671L36.9971 51.7072C37.1371 48.9803 39.4472 46.9176 42.1074 47.1274L145.713 54.7488C148.303 54.9236 150.263 57.2311 150.123 59.8881L145.993 132.852C145.818 135.579 143.543 137.641 140.883 137.431Z" fill="#F76519"/>
<path d="M141.233 137.606C141.128 137.606 140.988 137.606 140.883 137.606L37.2771 129.985C34.6169 129.775 32.5518 127.398 32.6918 124.671L36.8221 51.7072C36.8921 50.3088 37.5221 49.0502 38.5372 48.1762C39.5172 47.3021 40.8123 46.8826 42.1074 46.9875L145.713 54.609C148.373 54.8187 150.438 57.1961 150.298 59.923L146.168 132.852C146.098 134.25 145.468 135.509 144.453 136.383C143.543 137.187 142.423 137.606 141.233 137.606ZM140.918 137.257C142.143 137.362 143.298 136.942 144.243 136.138C145.188 135.299 145.783 134.11 145.853 132.852L149.983 59.8881C150.123 57.3359 148.233 55.0984 145.748 54.9236L42.1424 47.3021C40.9173 47.1973 39.7622 47.6168 38.8172 48.4209C37.8721 49.2599 37.2771 50.4486 37.2071 51.7072L33.0419 124.671C32.9019 127.223 34.792 129.46 37.2771 129.635L140.918 137.257Z" fill="black"/>
<path d="M72.034 84.7103L70.984 112.574C70.914 114.532 72.7691 115.965 74.5542 115.371L107.981 104.393C110.326 103.624 110.571 100.338 108.401 99.219L76.0243 82.3329C74.2392 81.354 72.104 82.6476 72.034 84.7103Z" fill="white"/>
<path d="M73.7141 115.651C73.1191 115.651 72.489 115.441 71.999 115.056C71.229 114.462 70.7739 113.518 70.809 112.539L71.859 84.6754C71.894 83.6265 72.454 82.7175 73.3291 82.1931C74.1691 81.7037 75.2192 81.6687 76.0942 82.1232L108.471 99.0093C109.556 99.5687 110.151 100.687 110.046 101.911C109.941 103.135 109.171 104.114 108.016 104.498L74.5892 115.476C74.3441 115.616 74.0291 115.651 73.7141 115.651ZM72.209 84.7103L71.159 112.574C71.124 113.448 71.509 114.287 72.209 114.812C72.8741 115.301 73.7141 115.441 74.5192 115.196L107.946 104.219C108.961 103.904 109.626 102.995 109.731 101.946C109.836 100.862 109.276 99.8834 108.331 99.359L75.9542 82.4379C75.1842 82.0533 74.2741 82.0533 73.5391 82.5078C72.7341 82.9623 72.244 83.7664 72.209 84.7103Z" fill="black"/>
<path d="M103.711 49.7146C102.906 58.315 108.506 66.0763 116.521 67.9642C117.222 68.139 117.957 68.2439 118.692 68.3138C127.827 69.2228 135.983 62.3704 136.858 52.9659C137.733 43.5964 131.012 35.2757 121.877 34.3667C121.142 34.2968 120.407 34.2618 119.672 34.2968C111.481 34.6114 104.516 41.0792 103.711 49.7146Z" fill="white"/>
<path d="M120.337 68.5934C119.777 68.5934 119.252 68.5585 118.692 68.5235C117.922 68.4536 117.187 68.3137 116.486 68.1389C108.296 66.2161 102.731 58.28 103.536 49.7145C104.341 41.1491 111.271 34.4716 119.672 34.1569C120.372 34.1219 121.107 34.1569 121.912 34.2268C131.152 35.1358 137.943 43.5614 137.068 53.0358C136.648 57.6856 134.443 61.8809 130.872 64.8176C127.827 67.2649 124.152 68.5934 120.337 68.5934ZM120.302 34.4716C120.092 34.4716 119.882 34.4716 119.707 34.4716C111.481 34.7512 104.691 41.3239 103.921 49.7145C103.151 58.1051 108.576 65.8665 116.592 67.7893C117.257 67.9641 117.992 68.069 118.727 68.1389C123.032 68.5585 127.267 67.2649 130.627 64.503C134.127 61.6362 136.263 57.5458 136.718 52.9659C137.593 43.7012 130.942 35.4505 121.877 34.5415C121.317 34.5065 120.792 34.4716 120.302 34.4716Z" fill="black"/>
<path d="M139.203 70.0968L139.133 69.9919C138.293 68.8382 137.768 68.0691 135.843 66.6706C134.547 65.6917 133.112 64.9226 131.607 64.2933L131.747 63.9786C133.287 64.6079 134.722 65.412 136.053 66.3909C138.013 67.8593 138.573 68.6284 139.413 69.8171L139.483 69.922L139.203 70.0968Z" fill="black"/>
<path d="M131.397 75.5158C130.942 74.0824 130.312 72.684 129.612 71.3554C128.807 69.922 127.862 68.5586 126.777 67.3349L127.057 67.0902C128.142 68.3488 129.122 69.7123 129.927 71.1806C130.662 72.5092 131.292 73.9426 131.747 75.4109L131.397 75.5158Z" fill="black"/>
<path d="M122.717 77.7533L122.367 77.7183C122.472 76.3199 122.472 74.8865 122.332 73.4531C122.157 71.8449 121.842 70.2367 121.352 68.6984L121.702 68.5935C122.192 70.1667 122.542 71.775 122.717 73.4181C122.857 74.8865 122.857 76.3199 122.717 77.7533Z" fill="black"/>
<path d="M119.672 34.2968C121.352 37.5831 122.367 41.9532 122.472 46.7778L110.921 50.4137L121.597 56.2173C120.582 60.937 118.797 65.0274 116.521 67.9292C108.506 66.0413 102.906 58.28 103.711 49.6796C104.516 41.0792 111.481 34.6114 119.672 34.2968Z" fill="black"/>
<path d="M116.592 68.1742L116.486 68.1393C108.296 66.2164 102.731 58.2803 103.536 49.7148C104.341 41.1494 111.271 34.4719 119.672 34.1572H119.777L119.812 34.2621C121.527 37.6184 122.507 42.0934 122.647 46.848V46.9879L111.376 50.5189L121.807 56.2176L121.772 56.3574C120.792 61.0072 118.972 65.1676 116.662 68.1393L116.592 68.1742ZM119.567 34.5068C111.411 34.8564 104.656 41.3941 103.886 49.7498C103.116 58.1055 108.506 65.8318 116.452 67.7896C118.657 64.8879 120.407 60.8674 121.387 56.3574L110.466 50.4141L122.297 46.7082C122.192 42.0584 121.212 37.7582 119.567 34.5068Z" fill="black"/>
<path d="M50.9279 45.729C50.1228 54.3294 55.7231 62.0907 63.7386 63.9786C64.4386 64.1534 65.1737 64.2583 65.9087 64.3282C75.0442 65.2372 83.1997 58.3848 84.0747 48.9803C84.9498 39.6108 78.2294 31.2901 69.0939 30.3811C68.3588 30.3112 67.6238 30.2762 66.8888 30.3112C58.6633 30.6258 51.7329 37.0936 50.9279 45.729Z" fill="white"/>
<path d="M67.5188 64.6078C66.9587 64.6078 66.4337 64.5729 65.8737 64.5379C65.1036 64.468 64.3686 64.3281 63.6686 64.1533C55.4781 62.2305 49.9128 54.2944 50.7178 45.7289C51.5229 37.1635 58.4533 30.486 66.8537 30.1713C67.5538 30.1363 68.2888 30.1713 69.0939 30.2412C78.3344 31.1502 85.1248 39.5758 84.2497 49.0502C83.8297 53.7 81.6246 57.8953 78.0544 60.8321C75.0442 63.2793 71.334 64.6078 67.5188 64.6078ZM51.1029 45.7289C50.3328 54.1196 55.7581 61.8809 63.7736 63.8037C64.4386 63.9785 65.1736 64.0834 65.9087 64.1533C70.2139 64.5729 74.4492 63.2793 77.8094 60.5174C81.3095 57.6506 83.4447 53.5602 83.8997 48.9803C84.7747 39.7156 78.1244 31.4649 69.0589 30.5559C68.2888 30.486 67.5538 30.451 66.8887 30.486C58.6633 30.8006 51.8729 37.3383 51.1029 45.7289Z" fill="black"/>
<path d="M44.5575 60.2727L44.3125 60.0279L44.3825 59.958C45.4326 58.9791 46.1326 58.3148 48.3377 57.266C49.8428 56.5668 51.4179 56.0424 53.028 55.7627L53.098 56.1123C51.5229 56.392 49.9478 56.9164 48.4777 57.6156C46.3076 58.6295 45.6426 59.2588 44.6275 60.2377L44.5575 60.2727Z" fill="black"/>
<path d="M51.2429 67.09L50.9279 66.9152C51.6629 65.5517 52.5379 64.2931 53.518 63.1394C54.5681 61.8808 55.7931 60.6922 57.0882 59.7133L57.2982 59.9929C56.0031 60.9719 54.8131 62.1256 53.763 63.3842C52.818 64.5379 51.9779 65.7965 51.2429 67.09Z" fill="black"/>
<path d="M59.6784 71.0755L59.3284 71.0406C59.4684 69.6072 59.7484 68.1738 60.1684 66.8103C60.6234 65.2371 61.2535 63.7337 62.0585 62.2654L62.3735 62.4402C61.6035 63.8386 60.9735 65.3419 60.5184 66.9152C60.0984 68.2437 59.8184 69.6421 59.6784 71.0755Z" fill="black"/>
<path d="M66.8888 30.3112C68.5688 33.5975 69.5839 37.9676 69.6889 42.7922L58.1383 46.4282L68.8139 52.2317C67.7988 56.9514 66.0137 61.0418 63.7386 63.9436C55.7231 62.0557 50.1228 54.2944 50.9279 45.694C51.7329 37.0936 58.6633 30.6258 66.8888 30.3112Z" fill="black"/>
<path d="M63.8086 64.1533L63.7036 64.1184C55.5131 62.1955 49.9478 54.2594 50.7529 45.694C51.5579 37.1285 58.4883 30.451 66.8888 30.1364H66.9938L67.0288 30.2412C68.7439 33.5975 69.7239 38.0725 69.8639 42.8272V42.967L58.5933 46.4981L69.0239 52.1967L68.9889 52.3365C68.0088 56.9864 66.1887 61.1467 63.8786 64.1184L63.8086 64.1533ZM66.7838 30.486C58.6283 30.8356 51.8729 37.3733 51.1029 45.7289C50.3328 54.0846 55.7231 61.811 63.6686 63.7688C65.8737 60.867 67.6238 56.8465 68.6039 52.3365L57.6833 46.3932L69.5139 42.6873C69.3739 38.0725 68.4289 33.7723 66.7838 30.486Z" fill="black"/>
<path d="M100.981 77.1588L100.946 77.1937C96.5004 80.6199 91.0751 81.0045 86.3849 78.8719C84.7398 78.1027 82.9547 76.9141 81.4496 75.3758C79.1044 72.9635 77.3893 69.6422 77.8444 65.6217C78.2644 61.8808 80.6095 61.0767 83.1997 61.3215C86.3498 61.6361 89.185 63.4191 92.2652 64.0135C95.5204 64.6428 98.6355 62.7549 101.856 63.2094C104.061 63.524 106.686 65.307 106.546 68.5584C106.406 72.3342 103.326 75.3408 100.981 77.1588Z" fill="black"/>
<path d="M92.3352 80.3752C90.3051 80.3752 88.275 79.9207 86.3149 79.0467C84.4947 78.2076 82.7096 76.949 81.3096 75.5156C79.3495 73.5228 77.1443 70.2015 77.6694 65.6216C78.0544 62.3353 79.9095 60.832 83.2347 61.1816C84.9848 61.3564 86.6649 61.9857 88.31 62.615C89.605 63.1045 90.9701 63.6289 92.3352 63.8736C93.9803 64.1883 95.6254 63.8386 97.2355 63.489C98.7755 63.1744 100.351 62.8248 101.926 63.0695C104.411 63.4191 106.896 65.4468 106.756 68.5933C106.651 71.565 104.761 74.5017 101.121 77.2986L101.086 77.3336C98.4605 79.3613 95.4504 80.3752 92.3352 80.3752ZM82.3946 61.4613C79.8045 61.4613 78.3694 62.8248 78.0194 65.6566C77.4944 70.0967 79.6645 73.3131 81.5546 75.2709C82.9197 76.6693 84.6698 77.9279 86.4549 78.732C91.2501 80.9345 96.6404 80.3402 100.841 77.0888L100.876 77.0539C104.411 74.292 106.266 71.4601 106.371 68.5933C106.511 65.272 103.746 63.6988 101.821 63.4191C100.316 63.2093 98.7405 63.524 97.2705 63.8386C95.6254 64.1883 93.9453 64.5379 92.2302 64.2232C90.8301 63.9435 89.465 63.4541 88.17 62.9297C86.5599 62.3353 84.9148 61.6711 83.1997 61.5312C82.9197 61.4613 82.6396 61.4613 82.3946 61.4613Z" fill="black"/>
<path d="M100.981 77.1587L100.946 77.1937C96.5004 80.6199 91.0751 81.0044 86.3849 78.8718C84.7398 78.1027 82.9547 76.914 81.4496 75.3757C83.7247 72.0894 87.5749 70.0617 91.7402 70.4462C95.9404 70.8308 99.3706 73.4878 100.981 77.1587Z" fill="#F299DE"/>
<path d="M92.3352 80.3752C90.3051 80.3752 88.275 79.9207 86.3149 79.0467C84.4948 78.2076 82.7097 76.949 81.3096 75.5156L81.2046 75.4108L81.2746 75.3059C83.6547 71.8447 87.68 69.9219 91.7402 70.3065C95.8004 70.6561 99.4056 73.2781 101.121 77.1238L101.156 77.2287L101.051 77.3336C98.4606 79.3613 95.4504 80.3752 92.3352 80.3752ZM81.6946 75.3758C83.0597 76.7393 84.7398 77.9279 86.4899 78.732C91.2852 80.9346 96.6054 80.3403 100.806 77.1238C99.1256 73.4529 95.6604 70.9707 91.7752 70.6211C87.855 70.2715 84.0047 72.0895 81.6946 75.3758Z" fill="black"/>
<path d="M98.4605 53.3854C98.6705 56.0774 96.6754 58.4547 94.0503 58.6645C91.3902 58.8743 89.08 56.8465 88.905 54.1196C88.695 51.4276 90.6901 49.0502 93.3153 48.8405C95.9404 48.6307 98.2505 50.6584 98.4605 53.3854Z" fill="#F6CA4F"/>
<path d="M93.6653 58.8393C92.5102 58.8393 91.3902 58.4198 90.4801 57.6507C89.43 56.7766 88.8 55.5181 88.695 54.1196C88.485 51.3227 90.5501 48.8755 93.2803 48.6657C94.5753 48.5608 95.8704 48.9804 96.8505 49.8544C97.9005 50.7284 98.5305 51.987 98.6356 53.3854C98.8456 56.1823 96.7805 58.6296 94.0503 58.8393C93.9103 58.8393 93.7703 58.8393 93.6653 58.8393ZM93.6653 49.0153C93.5603 49.0153 93.4203 49.0153 93.3153 49.0153C90.7601 49.2251 88.87 51.4975 89.045 54.1196C89.15 55.4132 89.7451 56.5669 90.6901 57.4059C91.6352 58.21 92.7902 58.5946 94.0153 58.4897C96.5704 58.28 98.4605 56.0075 98.2855 53.3854C98.1805 52.0919 97.5855 50.9382 96.6404 50.0991C95.8004 49.3999 94.7503 49.0153 93.6653 49.0153Z" fill="black"/>
<path d="M35.527 81.2142L35.072 89.6049C33.7769 90.339 32.4818 91.0383 31.1518 91.7025C24.5714 95.0238 12.6007 99.7435 8.19049 90.7586C6.93042 88.1365 6.33539 85.1299 6.23039 82.2281C6.02037 76.2847 7.63046 70.1666 9.27556 64.5029C10.9907 58.5246 12.6357 52.5812 14.1408 46.533C15.2259 42.1629 21.9813 44.0158 20.8962 48.3859C19.1811 55.1683 17.151 61.8459 15.4009 68.5933C14.5609 71.8097 14.0358 75.0961 13.5458 78.3824C13.1258 81.2842 12.2857 87.2974 15.7159 88.8357C17.676 89.7097 19.8461 88.8707 21.7013 88.1715C23.6964 87.4023 25.6915 86.5982 27.5816 85.6543C30.3117 84.2908 32.9369 82.7875 35.527 81.2142Z" fill="black"/>
<path d="M10.9206 48.7705C10.9206 48.7705 3.5702 55.553 19.8111 53.4553C26.1115 52.6162 22.2262 48.7006 22.2262 48.7006C22.2262 48.7006 27.0915 45.4143 28.5616 41.0092C31.1517 33.4227 26.3915 30.9405 22.4363 36.8838C19.0761 41.9182 21.6312 42.2678 16.1359 36.2895C14.3158 34.2967 12.7757 32.0592 10.2906 29.6469C7.87544 27.3045 5.2853 28.5981 5.3903 29.8217C5.3903 29.8217 2.10012 29.1574 2.76516 32.6885C2.76516 32.6885 -0.910048 31.4649 0.455029 36.0448C3.04517 44.6102 10.9206 48.7705 10.9206 48.7705Z" fill="white"/>
<path d="M14.4908 54.0496C11.5157 54.0496 9.76558 53.4903 9.24055 52.4065C8.61051 51.043 10.1156 49.3299 10.6406 48.8055C9.38056 48.0713 2.62518 43.841 0.31505 36.1147C-0.174978 34.5065 -0.104974 33.4227 0.525061 32.8284C1.12009 32.234 2.10015 32.3739 2.59018 32.4787C2.45017 31.4649 2.62518 30.7307 3.11521 30.2412C3.78024 29.577 4.8303 29.6119 5.25033 29.6469C5.32033 29.1575 5.70535 28.703 6.26538 28.4582C7.24544 28.0037 8.89053 28.0387 10.4306 29.577C11.9707 31.0453 13.1258 32.4787 14.2458 33.8422C14.9459 34.6813 15.5759 35.4854 16.2759 36.2196C17.571 37.618 18.4461 38.7018 19.0061 39.401C19.5661 40.1002 19.9511 40.5897 20.1262 40.5547C20.2662 40.5547 20.4412 40.1352 20.6862 39.6457C21.0012 39.0164 21.4912 38.0375 22.2963 36.7789C24.1164 34.0869 26.2865 32.8283 27.8966 33.6325C29.2267 34.2967 30.2767 36.6391 28.7366 41.0791C27.4066 45.0297 23.3463 48.1063 22.4713 48.7356C22.8563 49.1901 23.9064 50.5186 23.4863 51.7422C23.1363 52.7561 21.9113 53.3854 19.8111 53.6651C17.746 53.9098 15.9609 54.0496 14.4908 54.0496ZM1.82013 32.7584C1.47011 32.7584 1.05009 32.8283 0.770075 33.108C0.280048 33.5975 0.245046 34.6114 0.665069 36.0448C3.15021 44.3655 10.9556 48.5957 11.0256 48.6307L11.2357 48.7356L11.0606 48.9104C11.0256 48.9453 8.92553 50.9032 9.59057 52.2666C10.0806 53.2805 12.2157 54.2944 19.8111 53.2805C21.7362 53.0358 22.8913 52.4764 23.1713 51.6024C23.5913 50.3438 22.1213 48.8405 22.1213 48.8055L21.9813 48.6657L22.1563 48.5608C22.1913 48.5258 26.9865 45.2744 28.4566 40.9742C29.7517 37.0237 29.0517 34.6114 27.7216 33.9471C26.2865 33.2479 24.2914 34.4366 22.5763 36.9887C21.7712 38.2123 21.2812 39.1563 20.9662 39.8205C20.6162 40.5198 20.4412 40.9043 20.1262 40.9393C19.7761 40.9742 19.4961 40.6246 18.6911 39.6457C18.131 38.9465 17.256 37.8627 15.9959 36.4643C15.2959 35.6951 14.6308 34.926 13.9658 34.052C12.8457 32.6885 11.6907 31.2901 10.1856 29.8217C8.75052 28.4233 7.28044 28.3534 6.40539 28.7729C5.88036 29.0176 5.53034 29.4371 5.56534 29.8567V30.1014L5.35533 30.0664C5.35533 30.0664 4.02526 29.8217 3.32522 30.5209C2.87019 30.9754 2.73018 31.7096 2.9402 32.7235L3.0102 33.0032L2.73018 32.8983C2.73018 32.8983 2.27516 32.7584 1.82013 32.7584Z" fill="black"/>
<path d="M5.42535 29.8567C5.42535 29.8567 8.43552 33.3528 13.3708 39.2612L5.42535 29.8567Z" fill="white"/>
<path d="M13.2308 39.401C8.33051 33.5276 5.32034 30.0315 5.28534 29.9966L5.56535 29.7518C5.60036 29.7868 8.64553 33.3178 13.5108 39.1913L13.2308 39.401Z" fill="black"/>
<path d="M2.90046 32.6099L2.63763 32.8408L10.2426 41.4778L10.5054 41.2469L2.90046 32.6099Z" fill="black"/>
<path d="M14.3579 38.4029L8.77661 42.1417L8.97157 42.4321L14.5528 38.6932L14.3579 38.4029Z" fill="black"/>
<path d="M20.1261 49.3999C19.8811 49.3999 19.6011 49.3649 19.3561 49.3299L19.4261 48.9803C19.9161 49.0502 20.4061 49.0502 20.8962 48.9803C21.3162 48.9104 21.7362 48.7706 22.1212 48.5608L22.2962 48.8754C21.8762 49.0852 21.4562 49.26 20.9662 49.3299C20.6862 49.3649 20.4061 49.3999 20.1261 49.3999Z" fill="black"/>
<path d="M14.0708 49.7145C13.5458 49.7145 12.9857 49.6446 12.4607 49.5397C11.9007 49.3998 11.3756 49.225 10.8856 48.9803L11.0606 48.6656C11.5507 48.9104 12.0407 49.0852 12.5657 49.225C13.0557 49.3299 13.5808 49.3998 14.1058 49.3998L14.0708 49.7145Z" fill="black"/>
<path d="M132.132 104.358C132.587 104.288 133.007 104.638 133.007 105.093L133.812 127.083L133.987 131.418L134.127 135.474L120.127 137.991L118.937 134.04L117.677 129.88L111.166 108.519C111.096 108.274 111.236 108.029 111.481 107.994L132.132 104.358Z" fill="#58AF00"/>
<path d="M120.022 138.201L117.502 129.95L110.991 108.589C110.956 108.414 110.956 108.239 111.061 108.099C111.131 107.959 111.271 107.855 111.446 107.82L132.132 104.184C132.412 104.149 132.657 104.219 132.867 104.393C133.077 104.568 133.217 104.813 133.217 105.093L134.338 135.649L120.022 138.201ZM132.167 104.498L111.481 108.134C111.411 108.134 111.376 108.169 111.341 108.239C111.306 108.309 111.306 108.379 111.306 108.449L120.232 137.781L133.917 135.334L132.832 105.093C132.832 104.918 132.727 104.743 132.622 104.638C132.482 104.533 132.342 104.498 132.167 104.498Z" fill="black"/>
<path d="M133.462 105.652C133.462 105.652 131.957 108.344 122.437 109.847C113.056 111.351 111.096 109.463 111.096 109.463L111.026 108.169L111.061 108.134V108.169C111.341 109.673 116.452 110.022 122.542 109.008C128.492 108.029 133.112 106.037 133.042 104.568L133.462 105.652Z" fill="white"/>
<path d="M116.137 110.617C112.111 110.617 111.061 109.638 110.991 109.603L110.956 109.568L110.886 108.134L111.236 107.89L111.271 108.239C111.621 109.428 116.172 109.987 122.542 108.903C128.807 107.855 132.972 105.862 132.902 104.638V104.498L133.182 104.428L133.252 104.568L133.673 105.687L133.638 105.757C133.568 105.862 131.992 108.554 122.507 110.057C119.812 110.442 117.747 110.617 116.137 110.617ZM111.271 109.393C111.621 109.638 114.036 111.036 122.402 109.708C130.872 108.379 132.937 106.072 133.252 105.652L133.077 105.198C132.202 106.841 127.267 108.484 122.542 109.253C117.747 110.057 112.636 110.057 111.236 108.868L111.271 109.393Z" fill="black"/>
<path d="M133.007 104.394C133.252 105.862 128.562 107.925 122.507 108.973C116.452 110.022 111.341 109.708 111.061 108.239C110.816 106.771 115.506 104.708 121.562 103.659C127.617 102.611 132.727 102.925 133.007 104.394Z" fill="white"/>
<path d="M115.962 109.777C113.791 109.777 112.146 109.498 111.376 108.973C111.096 108.764 110.921 108.554 110.886 108.274C110.571 106.491 116.067 104.463 121.527 103.484C126.637 102.576 131.222 102.645 132.657 103.659C132.937 103.869 133.112 104.079 133.147 104.359C133.462 106.142 127.967 108.169 122.507 109.148C120.127 109.568 117.852 109.777 115.962 109.777ZM128.107 103.205C126.217 103.205 123.977 103.415 121.597 103.834C115.121 104.953 111.026 107.016 111.236 108.204C111.271 108.379 111.376 108.519 111.586 108.659C112.916 109.603 117.502 109.673 122.472 108.799C128.947 107.68 133.042 105.617 132.832 104.428C132.797 104.254 132.692 104.114 132.482 103.974C131.782 103.45 130.172 103.205 128.107 103.205Z" fill="black"/>
<path d="M123.627 105.792C123.662 105.932 123.382 106.142 122.962 106.281C122.927 106.281 122.892 106.316 122.822 106.316C122.612 106.386 122.367 106.456 122.122 106.491C121.807 106.561 121.492 106.596 121.247 106.596C120.792 106.596 120.477 106.526 120.442 106.386C120.407 106.211 120.757 106.002 121.282 105.827C121.492 105.757 121.702 105.722 121.947 105.652C122.332 105.582 122.717 105.547 122.997 105.547C123.382 105.582 123.592 105.652 123.627 105.792Z" fill="black"/>
<path d="M121.142 106.806C120.617 106.806 120.337 106.701 120.267 106.456C120.197 106.176 120.547 105.932 121.212 105.687C121.422 105.617 121.667 105.547 121.877 105.512C122.262 105.442 122.647 105.407 122.962 105.407H122.997C123.452 105.407 123.732 105.547 123.767 105.757C123.802 106.002 123.557 106.246 122.997 106.456C122.927 106.456 122.892 106.491 122.857 106.491C122.647 106.561 122.402 106.631 122.122 106.701C121.807 106.771 121.492 106.806 121.212 106.806C121.212 106.806 121.177 106.806 121.142 106.806ZM120.652 106.386C120.722 106.421 120.897 106.456 121.247 106.456C121.527 106.456 121.807 106.421 122.087 106.351C122.332 106.316 122.577 106.246 122.787 106.176C122.822 106.176 122.892 106.142 122.927 106.142C123.277 106.002 123.417 105.897 123.452 105.862C123.417 105.827 123.277 105.792 123.067 105.792H123.032C122.752 105.792 122.402 105.827 122.017 105.897C121.807 105.932 121.562 106.002 121.387 106.072C120.897 106.176 120.722 106.316 120.652 106.386Z" fill="black"/>
<path d="M121.282 106.246L124.117 90.1643L134.723 88.1715L134.793 89.57L125.517 91.4578L122.822 106.037L121.282 106.246Z" fill="#F6CA4F"/>
<path d="M121.072 106.456L123.977 90.0245L134.898 87.9618L134.968 89.7098L125.657 91.5977L122.927 106.176L121.072 106.456ZM124.292 90.3391L121.527 106.037L122.682 105.862L125.377 91.318L134.618 89.4302L134.583 88.3813L124.292 90.3391Z" fill="black"/>
<path d="M178.44 115.161C176.13 121.699 166.959 123.307 160.099 124.321C155.654 124.985 151.173 125.405 146.658 125.755C143.473 125.999 140.253 126.209 137.068 126.454C134.933 126.594 133.112 124.776 133.112 123.028C133.112 121.07 134.933 119.776 137.068 119.601C140.393 119.357 143.718 119.147 147.043 118.902C150.088 118.657 153.099 118.378 156.109 117.993C159.224 117.574 162.374 117.084 165.384 116.28C167.379 115.756 170.004 115.196 170.81 113.378C171.58 111.63 170.74 109.358 169.689 107.785C168.324 105.757 166.224 104.219 164.229 102.68C159.784 99.2192 154.779 96.3524 149.983 93.2758C149.493 92.9612 149.003 92.6465 148.548 92.3668L148.968 84.8502C150.368 85.4096 152.048 86.2137 153.939 87.3674C160.099 91.0733 166.084 94.919 171.685 99.3241C176.62 103.205 180.54 109.288 178.44 115.161Z" fill="black"/>
<path d="M143.263 116.874C141.513 114.986 139.343 116.909 139.343 116.909C138.083 113.518 137.278 109.707 135.038 109.428C130.942 108.973 132.937 117.259 132.937 117.259C132.937 117.259 125.377 121.489 120.162 120.021C119.287 119.776 118.377 120.091 117.922 120.895C117.467 121.734 117.362 122.923 118.937 124.321C118.937 124.321 116.101 126.314 119.217 129.39C119.217 129.39 119.077 129.6 118.902 129.985C117.502 133.586 128.842 138.166 139.518 129.74C139.518 129.74 140.323 131.978 142.633 131.069C146.273 129.705 145.293 119.077 143.263 116.874Z" fill="white"/>
<path d="M126.812 134.739C123.942 134.739 121.527 133.97 120.092 132.887C118.902 132.012 118.412 130.929 118.797 129.95C118.902 129.705 118.972 129.53 119.042 129.425C118.027 128.377 117.537 127.363 117.607 126.349C117.677 125.3 118.377 124.601 118.692 124.321C117.152 122.853 117.362 121.594 117.817 120.79C118.272 119.951 119.287 119.566 120.232 119.846C124.992 121.21 131.782 117.679 132.762 117.189C132.552 116.315 131.607 111.7 133.182 109.917C133.637 109.393 134.267 109.183 135.073 109.253C136.998 109.463 137.873 112.085 138.818 114.882C139.028 115.441 139.203 116.035 139.413 116.595C140.008 116.175 141.863 115.056 143.403 116.735C144.978 118.413 145.783 124.286 144.943 127.957C144.523 129.705 143.788 130.859 142.773 131.278C142.038 131.558 141.373 131.593 140.778 131.313C140.078 130.999 139.693 130.369 139.518 130.055C135.073 133.481 130.522 134.739 126.812 134.739ZM119.602 120.126C118.972 120.126 118.412 120.44 118.097 121C117.502 122.049 117.852 123.132 119.077 124.216L119.252 124.356L119.077 124.496C119.077 124.496 118.062 125.23 117.992 126.419C117.922 127.363 118.412 128.307 119.427 129.32L119.532 129.425L119.462 129.53C119.462 129.53 119.322 129.74 119.182 130.09C118.867 130.894 119.287 131.838 120.337 132.607C123.627 135.054 131.747 135.753 139.518 129.635L139.693 129.495L139.763 129.705C139.763 129.705 140.113 130.614 140.918 130.999C141.408 131.208 142.003 131.208 142.633 130.964C143.543 130.614 144.243 129.53 144.593 127.887C145.468 124.111 144.488 118.448 143.158 116.979C141.548 115.231 139.553 116.944 139.483 117.014L139.308 117.189L139.203 116.944C138.958 116.28 138.748 115.616 138.503 114.987C137.593 112.295 136.718 109.777 135.038 109.603C134.337 109.533 133.812 109.707 133.427 110.127C131.887 111.875 133.112 117.154 133.112 117.189L133.147 117.329L133.042 117.399C132.727 117.574 125.377 121.664 120.127 120.161C119.952 120.161 119.777 120.126 119.602 120.126Z" fill="black"/>
<path d="M123.417 125.16C122.052 125.16 120.512 124.985 118.902 124.496L119.007 124.146C124.642 125.894 129.122 123.657 129.192 123.657L129.367 123.972C129.297 124.006 126.917 125.16 123.417 125.16Z" fill="black"/>
<path d="M123.837 130.09C122.437 130.09 120.897 129.95 119.217 129.565L119.287 129.216C125.517 130.614 130.102 128.656 130.137 128.656L130.277 128.971C130.242 129.006 127.722 130.09 123.837 130.09Z" fill="black"/>
<path d="M139.973 121.14C139.973 120.65 139.938 120.161 139.868 119.706C139.763 118.762 139.518 117.853 139.168 116.944L139.483 116.804C139.833 117.713 140.078 118.657 140.218 119.636C140.288 120.126 140.323 120.615 140.323 121.105L139.973 121.14Z" fill="black"/>
<path d="M139.728 129.95L139.413 129.81C139.588 129.425 139.728 129.041 139.833 128.656C140.078 127.887 140.183 127.048 140.218 126.244H140.568C140.533 127.083 140.393 127.957 140.148 128.761C140.043 129.146 139.903 129.565 139.728 129.95Z" fill="black"/>
<path d="M173.26 16.991C170.215 7.65644 160.134 2.55214 150.788 5.59375C141.443 8.63535 136.333 18.7041 139.378 28.0387C140.183 30.5559 141.548 32.7234 143.228 34.5764L140.183 41.4637L147.638 38.0375C151.839 40.3799 156.949 41.0441 161.849 39.4359C171.23 36.3594 176.305 26.3256 173.26 16.991Z" fill="white"/>
<path d="M139.833 41.8132L143.018 34.6113C141.268 32.7234 140.008 30.5209 139.203 28.1086C137.698 23.5636 138.083 18.6691 140.253 14.4039C142.423 10.1386 146.133 6.95719 150.718 5.45386C155.269 3.95054 160.169 4.33511 164.439 6.50269C168.709 8.67027 171.895 12.3761 173.4 16.956C174.905 21.5009 174.52 26.3955 172.35 30.6607C170.18 34.9259 166.469 38.1074 161.884 39.6107C157.159 41.149 151.979 40.6595 147.603 38.2472L139.833 41.8132ZM156.354 4.85953C154.499 4.85953 152.644 5.13922 150.858 5.73355C141.618 8.74019 136.543 18.739 139.588 27.9687C140.358 30.381 141.653 32.5486 143.403 34.4365L143.473 34.5064L140.568 41.0791L147.673 37.7927L147.743 37.8277C152.049 40.24 157.159 40.7295 161.814 39.2261C166.294 37.7578 169.935 34.6462 172.07 30.4509C174.205 26.2556 174.555 21.466 173.12 16.991C171.65 12.516 168.534 8.88004 164.334 6.74742C161.779 5.52379 159.084 4.85953 156.354 4.85953Z" fill="black"/>
<path d="M165.586 14.1696L154.447 9.51025L146.199 29.1815L157.338 33.8409L165.586 14.1696Z" fill="#F6CA4F"/>
<path d="M157.404 34.0869L145.958 29.2972L154.359 9.29956L165.804 14.0892L157.404 34.0869ZM146.413 29.1224L157.229 33.6324L165.349 14.264L154.534 9.75405L146.413 29.1224Z" fill="black"/>
<path d="M160.764 13.9144L160.519 14.4737L158.069 13.4599L158.279 12.9005L155.234 11.6069L148.583 27.4442L157.054 31.0103L163.704 15.138L160.764 13.9144Z" fill="black"/>
<path d="M34.687 0.384566C25.9015 1.74804 19.8811 9.96386 21.2462 18.774C22.6113 27.5492 30.8717 33.5625 39.6572 32.199C42.0374 31.8144 44.1725 30.9404 46.0626 29.7168L51.7679 33.4227L49.7728 26.2906C52.468 22.8994 53.798 18.4244 53.098 13.8096C51.7329 4.99941 43.5075 -1.01387 34.687 0.384566Z" fill="white"/>
<path d="M52.0829 33.8422L46.0626 29.9265C44.1025 31.1851 41.9674 32.0242 39.6923 32.3738C35.387 33.0381 31.0818 31.9892 27.5816 29.4371C24.0814 26.8849 21.7713 23.1092 21.1062 18.809C20.4412 14.5088 21.4912 10.2086 24.0464 6.71248C26.6015 3.18143 30.3817 0.874006 34.687 0.209748C38.9922 -0.45451 43.2975 0.594319 46.7977 3.14647C50.2978 5.69862 52.608 9.4744 53.273 13.7746C53.9731 18.2146 52.748 22.7596 49.9828 26.3256L52.0829 33.8422ZM46.0626 29.507L51.4879 33.0381L49.5978 26.2556L49.6678 26.1857C52.433 22.6896 53.623 18.2146 52.958 13.8445C52.293 9.6492 50.0528 5.94334 46.6226 3.42615C43.1924 0.908967 38.9572 -0.1049 34.757 0.559358C30.5567 1.22362 26.8465 3.46112 24.3264 6.88729C21.8063 10.3135 20.7912 14.5437 21.4562 18.739C22.1213 22.9344 24.3614 26.6402 27.7916 29.1574C31.2218 31.6746 35.457 32.6885 39.6573 32.0242C41.9324 31.6746 44.0325 30.8355 45.9926 29.5769L46.0626 29.507Z" fill="black"/>
<path d="M29.8917 22.2002L45.9226 19.5781L47.8477 23.7734L28.0016 26.7801L29.8917 22.2002Z" fill="#F299DE"/>
<path d="M27.7216 26.9899L29.7517 22.0254L45.9926 19.3684L48.0577 23.9133L27.7216 26.9899ZM30.0317 22.3401L28.2816 26.5704L47.6027 23.6336L45.8176 19.753L30.0317 22.3401Z" fill="black"/>
<path d="M29.8917 22.2002L27.7566 8.49553L43.8925 5.8385L45.9226 19.5781L29.8917 22.2002Z" fill="#F299DE"/>
<path d="M29.7517 22.41L27.5466 8.39065L44.0325 5.6637L44.0675 5.8385L46.1326 19.753L29.7517 22.41ZM27.9666 8.67034L30.0667 21.9905L45.7476 19.4383L43.7525 6.04827L27.9666 8.67034Z" fill="black"/>
<path d="M31.0118 20.5921L29.2967 9.61433L42.7724 7.37683L44.3825 18.4245L31.0118 20.5921Z" fill="black"/>
<path d="M30.8368 20.8018L29.0867 9.47449L42.9124 7.20203L44.5925 18.5643L30.8368 20.8018ZM29.4717 9.75417L31.1518 20.3823L44.2075 18.2497L42.6324 7.5866L29.4717 9.75417Z" fill="black"/>
</g>
<defs>
<clipPath id="clip0_9_259">
<rect width="179" height="179" fill="white"/>
</clipPath>
</defs>
</svg>

